<?xml version="1.0" encoding="UTF-8"?> <svg xmlns="http://www.w3.org/2000/svg" width="618" height="183" viewBox="0 0 618 183" fill="none"> <g clip-path="url(#clip0_1687_825)"> <path fill-rule="evenodd" clip-rule="evenodd" d="M0.322266 24.6144C0.322266 66.4621 0.684385 78.0539 1.99256 78.0699C3.31944 78.086 3.31676 78.3102 1.98053 79.1581C0.656321 79.9979 0.371703 95.6446 0.644294 152.904L0.990383 225.584L308.657 225.875L616.322 226.167L616.313 98.6807L616.302 -28.8051L585.295 -28.709C563.377 -28.6422 553.708 -28.1469 552.313 -27.0187C550.772 -25.7743 550.554 -25.7837 551.321 -27.0601C552.747 -29.4326 384.245 -29.4206 381.308 -27.048C379.821 -25.8451 379.547 -25.8357 380.252 -27.012C380.985 -28.2296 361.013 -28.6235 294.155 -28.7076C212.381 -28.8091 206.994 -28.6729 205.265 -26.4526C203.717 -24.4672 203.545 -24.4405 204.185 -26.2883C204.886 -28.3151 196.999 -28.4994 102.634 -28.6542L0.322266 -28.8211V24.6144ZM384.691 -26.4179C383.741 -24.8824 385.311 -18.0812 386.617 -18.0812C387.248 -18.0812 387.173 -19.6339 386.451 -21.5312C385.73 -23.4284 385.478 -25.5313 385.895 -26.2042C386.311 -26.8771 386.351 -27.4272 385.984 -27.4272C385.616 -27.4272 385.035 -26.9733 384.691 -26.4179ZM142.675 -24.4846C142.352 -23.5326 141.113 -19.1493 139.923 -14.7433C134.584 5.02101 127.322 20.6665 127.322 20.6665C127.322 20.6665 124.331 31.2234 118.769 44.149C107.317 70.7533 106.822 71.6665 106.822 71.6665C106.822 71.6665 105.422 75.0845 104.605 76.6106C101.769 81.9045 104.586 79.3423 110.729 71.0403C114.124 66.4514 117.322 61.6665 117.322 61.6665C117.322 61.6665 119.085 58.7903 120.726 56.4872C122.369 54.1827 127.128 46.3881 131.305 39.1649C135.481 31.9417 139.822 26.1665 139.822 26.1665C139.822 26.1665 159.682 -18.6232 160.761 -17.5458C161.078 -17.228 161.338 -18.8716 161.338 -21.1961V-25.4245L152.3 -25.8197C145.806 -26.1041 143.098 -25.7276 142.675 -24.4846ZM172.227 -25.0787C171.883 -24.5206 170.591 -20.1653 169.359 -15.3988C165.327 0.182413 159.199 18.1843 148.68 45.3386C142.992 60.0253 137.264 76.0805 135.953 81.0166C134.642 85.9527 132.71 96.6665 132.71 96.6665C132.575 102.576 131.194 100.312 147.853 71.6785C157.797 54.5859 162.322 48.6665 162.322 48.6665C162.322 48.6665 163.322 46.6665 166.176 40.1275C168.65 35.9912 170.847 33.118 171.054 33.7415C171.263 34.365 169.28 41.7364 166.647 50.1212C156.171 83.4947 148.253 120.298 144.017 155.309C141.808 173.555 139.124 220.775 140.193 222.58C140.519 223.132 142.552 223.582 144.714 223.582C148.627 223.582 148.644 223.546 148.644 215.571C148.644 210.823 149.22 207.56 150.059 207.56C150.837 207.56 151.078 206.919 150.594 206.135C149.414 204.227 153.208 175.09 153.822 171.667C153.822 165.667 168.822 71.1665 170.627 68.597C172.322 60.6665 172.312 61.1333 173.822 54.1665C175.334 47.1983 175.369 41.7364 175.369 41.3559C175.369 40.9767 175.982 40.6656 176.731 40.6656C177.48 40.6656 177.798 42.0168 177.439 43.6697C175.104 54.4123 163.001 119.92 161.22 131.456C158.881 146.599 158.305 179.814 160.157 179.814C161.176 184.964 160.729 178.162 160.471 181.397C160.213 184.631 160.352 187.061 160.781 186.797C162.009 186.038 164.988 215.126 164.03 218.525C163.358 220.905 163.478 221.137 164.571 219.576C165.731 217.922 165.978 218.095 165.995 220.578C166.006 222.23 166.56 223.582 167.227 223.582C168.71 223.582 169.771 209.028 168.323 208.549C166.976 208.103 168.822 148.166 168.822 148.166C168.822 148.166 169.494 140.802 169.662 133.459C170.128 113.147 179.822 60.1665 181.346 56.4071C181.822 52.6665 183.218 38.8351 189.497 13.9625C195.656 -10.4374 195.561 -10.137 196.885 -9.31854C197.528 -8.92066 197.696 -9.52949 197.258 -10.671C196.82 -11.8126 197.428 -15.1598 198.609 -18.1105C199.791 -21.0612 200.757 -24.064 200.757 -24.7836C200.757 -26.3231 173.174 -26.6074 172.227 -25.0787ZM298.957 -24.7355C298.495 -23.9892 297.465 -23.7809 296.667 -24.2736C295.869 -24.7663 295.597 -24.5566 296.06 -23.8063C297.004 -22.2815 292.579 -17.6953 291.179 -18.7461C290.687 -19.1146 290.588 -19.0131 290.959 -18.5218C291.329 -18.0291 287.42 -13.2866 282.273 -7.98206C277.126 -2.67883 272.914 2.20516 272.914 2.8714C272.914 4.13446 293.447 9.95707 297.906 9.95707C299.317 9.95707 301.818 8.13725 303.463 5.91422C305.109 3.69119 306.957 2.18247 307.573 2.56165C308.188 2.94217 308.608 2.20784 308.507 0.930096C308.407 -0.346311 308.976 -1.27424 309.771 -1.13271C310.568 -0.989854 311.22 -1.64674 311.22 -2.59336C311.22 -3.53999 312.949 -6.48 315.063 -9.12628C318.244 -13.1117 319.259 -13.6631 320.964 -12.3387C322.72 -10.9728 322.781 -11.0476 321.377 -12.8474C320.026 -14.5817 320.324 -15.7606 323.047 -19.4497C324.871 -21.9197 326.363 -24.4245 326.363 -25.0159C326.363 -26.6088 299.949 -26.3377 298.957 -24.7355ZM342.398 -11.2518C335.416 -3.20353 327.085 6.37351 323.886 10.0305L318.067 16.6782L328.563 21.5061C334.334 24.1618 339.822 27.1665 340.822 27.6665C344.822 29.1665 358.322 35.6665 360.322 37.1665C360.322 37.1665 360.697 37.5934 362.223 36.7776C366.952 34.2489 375.7 3.78866 377.691 -17.0798L378.551 -26.0921L366.822 -25.9893L355.092 -25.8865L342.398 -11.2518ZM393.726 -22.7635C393.262 -20.913 392.268 -19.8182 391.49 -20.2988C390.674 -20.8035 390.487 -20.5218 391.042 -19.6246C392.332 -17.5391 386.352 0.680423 384.71 -0.332958C383.958 -0.797591 383.84 -0.438433 384.431 0.516201C385.791 2.7152 376.15 24.2538 376.15 24.2538C376.15 24.2538 374.581 28.9897 372.955 32.7668C370.22 39.1235 370.168 39.7283 372.262 40.8992C373.506 41.5962 374.118 42.8219 373.622 43.6243C373.097 44.4721 373.333 44.7045 374.187 44.1771C374.994 43.6791 381.033 45.6898 387.604 48.6471C394.176 51.6032 403.981 54.9985 409.393 56.1908C421.28 58.809 424.025 60.7103 415.824 60.6462C411.582 60.6128 392.154 57.8263 388.41 56.7141C388.361 56.6994 391.173 59.6435 394.66 63.2577C401.863 70.7252 403.73 77.4397 401.504 87.8686C399.974 95.0411 400.744 95.6459 409.301 93.9943C419.932 91.9448 433.769 92.567 443.36 95.5271C448.392 97.0812 453.822 99.1665 453.822 99.1665C457.977 99.284 458.649 99.7542 465.356 89.113C472.819 77.2742 477.81 72.947 487.38 70.0176C494.224 67.9228 496.33 66.0335 491.819 66.0335C489.925 66.0335 487.627 65.1323 486.712 64.0308C485.262 62.2857 486.156 62.0281 493.655 62.0281C503.07 62.0281 515.442 58.9492 519.101 55.6968C520.378 54.5592 522.409 50.1238 523.612 45.838C524.816 41.5521 527.322 34.1665 527.322 34.1665C527.322 34.1665 527.666 33.4384 530.71 20.3566C533.493 8.39762 537.488 -16.9196 537.488 -22.5913V-26.0921H466.025H394.562L393.726 -22.7635ZM560.362 11.8263C560.643 32.6814 561.822 46.6665 561.875 49.1318C561.875 65.8533 571.925 123.747 580.289 156.156C584.301 171.698 593.447 199.839 597.738 209.839C599.146 213.123 599.904 216.452 599.422 217.233C598.935 218.018 599.168 218.268 599.943 217.788C600.72 217.308 601.714 218.403 602.178 220.253C602.801 222.732 603.901 223.582 606.486 223.582C609.453 223.582 609.829 223.146 609.084 220.578C602.472 197.828 590.201 129.584 591.502 122.791C591.924 120.581 591.794 119.508 591.212 120.406C589.887 122.454 584.283 83.4145 583.312 65.3659C582.805 55.9665 583.013 52.4096 584.012 53.3496C584.794 54.0839 585.634 57.6888 585.88 61.3605L586.328 68.0362L588.081 64.0308C590.839 57.7355 597.285 31.9123 599.581 17.968C600.728 10.9918 602.037 3.78199 602.486 1.94615C603.301 -1.37838 603.311 -1.37304 605.151 2.97021C607.847 9.33355 609.57 28.74 609.804 55.3523C609.916 68.2031 610.269 77.3663 610.588 75.7134C610.906 74.0605 611.647 72.7093 612.232 72.7093C612.817 72.7093 613.413 50.479 613.556 23.3086L613.815 -26.0921H586.834H559.852L560.362 11.8263ZM29.6793 -22.1614C31.6062 -18.5645 33.3353 -17.7287 35.8928 -19.1586C37.3867 -19.9944 37.6019 -20.6767 36.5716 -21.3136C35.7432 -21.8249 35.0644 -21.4738 35.0644 -20.5338C35.0644 -19.5926 34.1277 -20.1573 32.9838 -21.7889C30.3755 -25.5099 27.7258 -25.8077 29.6793 -22.1614ZM383.462 -15.304C383.935 -13.4989 384.54 -12.8928 384.874 -13.8928C385.195 -14.8568 384.824 -16.2787 384.046 -17.0557C383.054 -18.0464 382.881 -17.5244 383.462 -15.304ZM39.7412 -15.1144C32.9758 -12.7192 28.4687 -8.78983 24.4841 -1.81899C22.3848 1.85268 20.3978 4.35209 20.0678 3.73525C19.7377 3.11841 19.6442 3.34806 19.8607 4.24528C20.5368 7.05311 17.5143 14.0093 16.0203 13.0867C15.1745 12.5646 15.0035 12.8557 15.5968 13.813C16.1406 14.6915 15.5193 18.3699 14.2178 21.9868C14.2178 21.9868 11.0496 31.1313 9.25499 37.6722C3.22857 59.6475 3.06956 81.2329 8.83006 95.4844C10.6968 100.1 12.3223 105.166 12.3223 105.166C13.3223 108.667 29.2036 135.355 34.4069 151.483C36.4206 157.725 38.5012 163.309 39.0303 163.892C40.265 165.253 50.3776 152.199 53.0608 145.785C54.1859 143.092 55.0945 138.014 55.0798 134.503C55.0558 129.225 53.7997 127.845 48.8223 120.166C46.5833 116.713 42.8223 106.666 42.8223 106.666C40.8223 96.1665 42.0275 93.5297 47.2254 77.2835C51.4506 64.0775 53.6701 59.1962 56.9131 55.9651C59.2275 53.662 61.9494 51.5031 62.9636 51.1706C64.5029 50.6646 64.4214 48.7914 62.4692 39.7604C61.1837 33.8189 59.6684 28.2073 59.1019 27.29C56.9078 23.7425 43.7606 36.8964 37.2277 49.1745C30.5 60.5 29.1903 76.0912 27.9676 77.3823C25.8002 79.6721 28.0732 57.9278 30.8352 49.9476C34.6902 38.8057 38.5 33.5 38.5 33.5C38.5 33.5 42.5833 27.2006 47.1025 22.629C53.5953 16.0601 54.0482 15.1882 53.2318 10.8383C51.8394 3.42551 48.4467 0.100975 43.4011 1.20782C41.0894 1.71518 37.6981 3.31068 35.8634 4.75265C31.3804 8.27478 20.8615 25.3421 18.1717 33.4531C15.2921 42.1383 13.0686 44.356 14.2859 37.3277C15.5767 29.8749 24.0498 13.3724 30.1243 6.47633C36.6024 -0.876358 47.2054 -4.77769 53.5618 -2.1461C59.0524 0.126332 63.8749 7.88892 67.9357 20.9948C73.4517 38.7977 73.0508 38.508 76.4302 27.1325C78.7138 19.4433 82.5835 7.85955 82.5835 7.85955C83.1728 5.74867 81.58 3.31868 75.8623 -2.39444C63.3618 -14.8848 51.19 -19.1706 39.7412 -15.1144ZM136.809 -15.5577C135.695 -14.8514 135.512 -14.0917 136.335 -13.583C137.072 -13.1277 138.019 -13.6538 138.441 -14.7513C139.325 -17.0571 139.243 -17.0971 136.809 -15.5577ZM555.056 -11.7792C554.555 -7.6229 535.294 32.2341 535.294 32.2341L529.571 45.4041C529.571 45.4041 528.737 46.7085 528.657 48.8781C528.542 51.9904 528.965 52.6459 530.662 51.9864C531.844 51.5244 538.374 49.3628 545.172 47.1798L557.532 43.2104L557.386 22.9121C557.265 5.84214 555.715 -17.2373 555.056 -11.7792ZM275.587 -8.73508C275.587 -8.00074 276.188 -7.39993 276.923 -7.39993C277.658 -7.39993 278.259 -8.00074 278.259 -8.73508C278.259 -9.46941 277.658 -10.0702 276.923 -10.0702C276.188 -10.0702 275.587 -9.46941 275.587 -8.73508ZM272.331 -4.33842C272.834 -3.02196 273.581 -2.28095 273.992 -2.69217C274.404 -3.10206 273.994 -4.17953 273.08 -5.0861C271.76 -6.39455 271.607 -6.24101 272.331 -4.33842ZM2.99473 0.546904C2.99473 1.75121 13.9826 9.95707 15.5954 9.95707C17.9859 9.95707 15.5927 6.89023 10.4376 3.3454C4.08109 -1.02456 2.99473 -1.43313 2.99473 0.546904ZM319.014 4.61646C319.468 5.35079 320.104 5.95161 320.429 5.95161C320.754 5.95161 321.018 5.35079 321.018 4.61646C321.018 3.88212 320.381 3.2813 319.603 3.2813C318.826 3.2813 318.56 3.88212 319.014 4.61646ZM256.518 20.5155C250.102 27.7947 244.853 34.2555 244.852 34.8724C244.852 35.4879 252.518 35.8604 261.889 35.7002L278.927 35.4078L284.729 28.688C288.079 24.8067 294.345 17.219 294.345 17.219L297.032 12.8731L284.941 9.56989L282.322 8.6665C281.322 8.1665 279.085 7.80212 275.216 7.61654L268.182 7.27876L256.518 20.5155ZM373.893 15.1468C373.491 15.797 374.207 17.1495 375.485 18.1509C377.537 19.7584 377.615 19.7224 376.15 17.8452C375.238 16.6756 374.886 15.3244 375.37 14.8411C375.853 14.3577 375.884 13.9625 375.438 13.9625C374.99 13.9625 374.295 14.4953 373.893 15.1468ZM537.7 17.968C537.7 19.8038 538.003 20.5555 538.373 19.6369C538.744 18.7197 538.744 17.2176 538.373 16.2991C538.003 15.3818 537.7 16.1322 537.7 17.968ZM301.63 20.6597C301.167 21.406 300.231 21.6717 299.547 21.2485C297.564 20.0241 298.109 22.8199 300.188 24.545C301.477 25.6144 302.347 25.6651 302.939 24.7092C303.415 23.9388 303.094 23.3086 302.227 23.3086C301.05 23.3086 301.071 22.7986 302.311 21.3059C303.227 20.2044 303.635 19.3031 303.221 19.3031C302.808 19.3031 302.091 19.9133 301.63 20.6597ZM311.322 20.1665C310.442 21.2253 309.844 22.4127 309.844 22.4127C309.844 22.4127 307.597 26.6558 304.179 30.1219L297.966 36.4265L305.817 37.2449C326.828 39.4359 342.623 42.7364 342.623 42.7364C346.322 43.6665 348.836 44.0716 348.836 44.0716C348.836 44.0716 360.081 45.6417 360.718 43.7845C361.819 40.5748 342.023 29.5024 322.134 22.2031C315.588 19.8012 312.707 18.5002 311.322 20.1665ZM83.1688 23.3086C83.1688 24.0429 83.8062 24.6438 84.5839 24.6438C85.3616 24.6438 85.6275 24.0429 85.1731 23.3086C84.7188 22.5743 84.0828 21.9735 83.7581 21.9735C83.4334 21.9735 83.1688 22.5743 83.1688 23.3086ZM188.83 23.8574C187.907 24.9695 187.777 26.0577 188.515 26.513C189.202 26.9375 190.077 26.0897 190.459 24.6291C191.282 21.4821 190.937 21.3192 188.83 23.8574ZM194.182 25.4221C194.246 26.9776 194.563 27.294 194.989 26.2299C195.375 25.266 195.327 24.1137 194.883 23.6704C194.44 23.2272 194.124 24.0149 194.182 25.4221ZM292.958 28.728C292.958 29.5051 293.559 29.7708 294.294 29.3168C295.029 28.8628 295.63 28.2273 295.63 27.9029C295.63 27.5784 295.029 27.3141 294.294 27.3141C293.559 27.3141 292.958 27.9509 292.958 28.728ZM112.566 31.3983C112.566 32.1754 113.167 32.4411 113.902 31.9871C114.637 31.5332 115.238 30.8976 115.238 30.5732C115.238 30.2487 114.637 29.9844 113.902 29.9844C113.167 29.9844 112.566 30.6213 112.566 31.3983ZM232.827 33.2288C232.827 33.596 234.03 34.5386 235.499 35.325C236.969 36.1114 238.172 36.4532 238.172 36.086C238.172 35.7189 236.969 34.7762 235.499 33.9898C234.03 33.2034 232.827 32.8616 232.827 33.2288ZM240.469 40.2504C239.497 40.8458 236.693 43.8686 234.237 46.9675L221.897 61.3431C218.822 65.1665 218.468 72.1418 215.463 82.0554C212.457 91.9689 208.324 108.346 206.28 118.45C204.236 128.553 201.893 136.15 201.893 136.15C201.893 136.15 201.479 137.22 201.79 139.344C202.305 142.845 203.314 143.52 212.582 146.567C218.205 148.416 225.067 151.158 227.822 151.667C230.674 152.193 231.249 152.717 234.059 153.55C237.822 154.666 253.322 157.666 256.879 158.071C256.879 158.071 274.696 161.578 286.822 163.166C314.711 166.817 358.654 167.79 371.109 166.205C381.833 164.839 383.493 163.426 387.754 152.045C389.72 146.798 390.503 141.54 390.503 133.591C390.503 120.294 392.266 110.142 395.868 102.709C397.964 98.3816 398.52 94.4723 398.52 84.0581V70.8828L392.009 64.6129C385.976 58.801 377.794 54.654 367.506 52.1893C364.659 51.5084 363.561 51.9263 362.371 54.148C360.373 57.8797 361.498 58.6608 371.795 60.6942C381.261 62.5648 389.984 65.661 388.883 66.7612C388.502 67.143 381.988 65.9934 374.409 64.207C361.649 61.2016 357.097 60.9399 357.097 63.215C357.097 63.7117 364.028 66.3967 372.5 69.1832C383.222 72.7093 388.469 75.1299 389.766 77.15C392.698 81.7149 392.322 95.6665 392.322 95.6665C392.322 95.6665 392.312 98.4163 391.633 104.51C391.087 109.417 390.047 115.582 390.047 115.582C390.047 115.582 383.736 140.196 379.322 150.166C374.313 161.479 375.95 161.442 337.485 161.915C300.813 162.365 276.676 160.466 255.881 155.495C242.135 152.21 228.822 144.166 228.322 141.666C228.322 141.666 227.288 137.829 227.85 124.647C228.649 105.873 230.943 91.4095 233.386 89.7525C234.209 89.1944 233.549 88.7632 231.856 88.7512C226.928 88.7178 225.196 93.6899 221.983 117.103C220.296 129.403 218.421 139.467 217.817 139.467C216.54 139.467 217.563 126.696 220.252 109.107C222.696 93.1171 222.748 93.6298 218.797 94.6205C216.959 95.0811 215.456 95.2414 215.456 94.977C215.456 93.6592 226.139 83.8284 226.826 84.516C227.264 84.954 227.239 84.3104 226.769 83.0874C225.571 79.9672 232.001 58.0867 233.635 59.7209C234.039 60.1241 233.074 65.0682 231.491 70.7066C229.907 76.3449 228.976 81.3224 229.42 81.767C230.865 83.2103 235.032 77.5185 236.598 71.9616C238.628 64.7678 242.954 60.9666 250.778 59.5059C259.613 57.857 261.381 54.8263 253.834 54.2668C244.357 53.5645 244.749 51.3468 254.35 51.3468C261.755 51.3468 263.67 50.8301 267.254 47.8634C269.568 45.9475 272.381 42.9767 273.506 41.2624L275.55 38.1435L258.322 37.7349C248.846 37.5106 240.469 40.2504 240.469 40.2504ZM234.163 39.3304C234.163 40.0648 234.801 40.6656 235.578 40.6656C236.356 40.6656 236.622 40.0648 236.168 39.3304C235.713 38.5961 235.077 37.9953 234.753 37.9953C234.428 37.9953 234.163 38.5961 234.163 39.3304ZM287.896 44.9448C279.905 51.6686 280.585 52.4416 294.628 52.5885C300.447 52.6486 303.647 53.2241 303.647 54.2081C303.647 55.3109 299.996 55.4831 290.488 54.8289C279.889 54.0986 277.02 54.2949 275.743 55.8316C274.387 57.4645 276.96 57.8797 293.579 58.7102C304.261 59.2443 313.001 60.0587 313.001 60.5207C313.001 60.9826 316.76 61.3605 321.353 61.3605C325.947 61.3605 334.966 61.8652 341.396 62.482C351.271 63.4286 353.088 63.3004 353.088 61.6529C353.088 60.319 350.969 59.4205 346.395 58.8143C333.452 57.0986 333.057 55.4017 345.739 55.9932L357.765 56.5539V53.2334C357.765 50.3361 356.732 49.5938 349.67 47.4148C341.133 44.7792 320.095 41.3545 304.19 40.0114L294.711 39.2103L287.896 44.9448ZM143.913 48.766C143.428 49.5484 143.318 50.4763 143.668 50.8261C144.018 51.1759 144.661 50.5351 145.097 49.4015C146 47.049 145.23 46.6351 143.913 48.766ZM542.165 52.7447C534.816 55.63 527.3 58.7022 525.462 59.574C523.625 60.4459 521.693 61.0614 521.168 60.9426C520.643 60.8224 520.529 61.5461 520.915 62.5501C521.427 63.8839 525.822 64.5849 537.236 65.1563C545.827 65.5862 554.659 66.3059 556.864 66.7558L560.872 67.5743V60.1321C560.872 56.0385 559.87 49.6665 559.87 49.6665C559.322 46.1665 557.731 46.6364 542.165 52.7447ZM108.557 52.6032C108.557 53.2948 109.152 54.2268 109.879 54.6754C110.635 55.1427 110.86 54.6073 110.404 53.419C109.515 51.1065 108.557 50.6833 108.557 52.6032ZM265.876 52.8475C266.783 53.7608 267.862 54.1707 268.272 53.7595C268.684 53.3482 267.942 52.6019 266.624 52.0998C264.72 51.3762 264.567 51.5284 265.876 52.8475ZM380.552 52.5685C380.121 53.2641 380.339 54.184 381.035 54.6139C381.732 55.0439 382.652 54.8262 383.083 54.1306C383.513 53.435 383.295 52.5151 382.599 52.0852C381.903 51.6553 380.982 51.8729 380.552 52.5685ZM139.041 53.5939C140.004 53.9798 141.157 53.9317 141.601 53.4884C142.045 53.0452 141.256 52.7301 139.848 52.7875C138.291 52.8516 137.974 53.168 139.041 53.5939ZM62.6082 58.2669C62.9943 58.8905 63.8696 59.056 64.5537 58.6328C66.3015 57.554 66.1051 57.1321 63.8522 57.1321C62.7819 57.1321 62.222 57.6434 62.6082 58.2669ZM605.897 61.3605C605.924 63.5635 606.223 64.3031 606.562 63.004C606.902 61.7049 606.879 59.9025 606.513 58.9986C606.147 58.0947 605.87 59.1575 605.897 61.3605ZM62.6509 63.3766C58.3041 68.5369 50.3963 85.0341 48.3211 93.2693C46.2019 101.678 47.1693 108.322 50.3223 116.666C51.8223 119.667 52.3223 122.167 54.079 122.731C55.2442 122.285 57.8271 111.365 61.5405 91.1905C64.6633 74.2194 66.9736 60.0881 66.6743 59.789C66.375 59.4899 64.5644 61.1041 62.6509 63.3766ZM271.03 60.8878C271.341 61.3898 270.891 62.0347 270.033 62.3204C269.174 62.6062 268.335 63.7664 268.169 64.8986C267.923 66.5702 268.796 66.7865 272.831 66.0482C282.257 64.3258 283.839 61.251 275.699 60.4753C272.821 60.2002 270.72 60.3871 271.03 60.8878ZM285.608 60.6929C285.154 61.4272 285.42 62.0281 286.198 62.0281C286.975 62.0281 287.613 61.4272 287.613 60.6929C287.613 59.9586 287.348 59.3577 287.023 59.3577C286.699 59.3577 286.063 59.9586 285.608 60.6929ZM421.904 62.733C418.964 63.701 414.003 64.5395 410.88 64.5956C402.326 64.7504 404.056 67.0789 412.803 67.1831C418.251 67.2485 421.66 66.4995 424.829 64.5421C431.703 60.2977 430.868 59.781 421.904 62.733ZM154.744 63.223C154.337 63.8812 154.872 64.7518 155.933 65.1576C157.22 65.6517 157.614 65.2538 157.119 63.9627C156.257 61.7196 155.768 61.5674 154.744 63.223ZM243.895 63.2724C244.014 63.689 243.018 65.6637 241.684 67.6597C237.68 73.6465 239.807 74.2273 245.67 68.7479L251.164 63.6116L247.421 63.0628C245.364 62.761 243.776 62.8559 243.895 63.2724ZM132.609 63.8879C132.609 64.1763 133.542 64.7704 134.683 65.2084C135.873 65.6637 136.408 65.4394 135.941 64.6837C135.156 63.414 132.609 62.8065 132.609 63.8879ZM209.388 64.7878C208.903 65.5702 208.794 66.4981 209.144 66.8479C209.494 67.1978 210.136 66.5569 210.572 65.4233C211.475 63.0708 210.706 62.6569 209.388 64.7878ZM512.1 64.6984C510.998 65.41 510.697 65.9921 511.432 65.9921C512.167 65.9921 513.67 65.41 514.772 64.6984C515.875 63.9867 516.175 63.4046 515.441 63.4046C514.706 63.4046 513.202 63.9867 512.1 64.6984ZM260.22 68.7038C259.168 70.4035 262.264 70.4035 264.897 68.7038C266.526 67.6517 266.353 67.4061 263.973 67.3887C262.363 67.378 260.674 67.9695 260.22 68.7038ZM276.021 68.2472C276.505 68.7305 276.153 70.0817 275.24 71.2513C273.776 73.1285 273.853 73.1646 275.906 71.557C277.996 69.9188 278.025 67.3687 275.953 67.3687C275.506 67.3687 275.537 67.7639 276.021 68.2472ZM346.407 68.6251C346.407 70.8628 348.777 71.4182 349.566 69.3634C350.031 68.1524 349.562 67.3687 348.37 67.3687C347.29 67.3687 346.407 67.9334 346.407 68.6251ZM358.768 68.4541C351.016 69.2018 349.908 76.2034 355.564 88.7311C357.055 92.0356 359.573 96.6913 361.158 99.0786C362.744 101.466 363.397 103.418 362.613 103.418C360.777 103.418 345.822 85.1665 345.822 85.1665C345.822 85.1665 343.517 82.5828 341.098 80.09C338.681 77.5973 334.985 74.8482 332.886 73.979C332.886 73.979 326.48 70.517 322.046 70.286C314.701 69.9015 314.073 70.079 314.984 72.2887C319.092 82.2556 318.764 94.5497 314.126 104.376C307.311 118.816 290.322 127.167 272.235 117.858C268.322 116.167 265.322 112.166 265.322 112.166C260.822 106.667 255.543 96.4482 255.543 89.4775C255.543 87.5989 256.245 86.0608 257.102 86.0608C257.959 86.0608 258.357 85.7577 257.987 85.3879C257.617 85.0167 255.408 85.6643 253.079 86.8245L248.846 88.9354L253.531 97.3055C259.429 107.844 259.526 109.664 254.025 106.498C249.394 103.832 239.309 94.6605 239.567 93.3468C239.658 92.8888 239.284 92.1131 238.737 91.6244C238.191 91.1344 238.216 91.5496 238.793 92.5457C239.584 93.9115 239.173 94.1452 237.124 93.4963C234.738 92.7393 234.213 93.4936 232.816 99.6954C231.941 103.578 230.903 113.796 230.509 122.401C229.897 135.753 230.128 138.56 232.089 141.552C234.694 145.522 242.322 148.166 250.822 151.666C253.944 152.533 259.218 153.688 259.218 153.688C265.322 155.167 273.382 156.283 273.382 156.283C286.822 157.666 287.014 157.104 296.899 157.952C319.102 159.857 359.919 159.911 367.119 158.046C370.058 157.283 372.322 158.166 375.026 155.313C376.941 150.979 376.406 151.946 377.822 149.166C379.237 146.388 380.272 141.606 381.198 138.51C382.124 135.412 383.822 129.666 383.822 129.666L387.822 109.166C387.822 109.166 389.208 98.885 389.027 91.0249C388.847 83.1662 389.822 79.1665 388.155 77.2809C387.322 76.6665 384.503 76.3796 380.705 74.6132C376.906 72.8455 371.795 71.3795 371.795 71.3795C371.795 71.3795 361.156 68.2245 358.768 68.4541ZM521.913 68.298C521.054 68.8948 523.724 69.3714 527.926 69.3714C532.083 69.3714 540.295 69.804 546.174 70.3327C554.392 71.0724 556.091 70.9576 553.523 69.8374C549.425 68.0496 524.05 66.8133 521.913 68.298ZM495.529 70.2259C495.811 70.6972 493.792 71.525 491.042 72.0658C488.294 72.6078 486.744 73.3075 487.599 73.6212C489.188 74.2033 510.778 70.4689 511.815 69.4328C512.129 69.119 508.479 68.9775 503.702 69.1164C498.926 69.2566 495.247 69.7559 495.529 70.2259ZM248.967 72.1525C249.032 73.708 249.348 74.0244 249.774 72.9603C250.161 71.9963 250.113 70.8441 249.669 70.4008C249.225 69.9575 248.91 70.7453 248.967 72.1525ZM603.577 71.4636C603.092 72.246 602.983 73.1739 603.333 73.5237C603.683 73.8735 604.325 73.2327 604.761 72.0991C605.664 69.7466 604.895 69.3327 603.577 71.4636ZM518.113 72.1993C508.602 73.1579 487.508 76.7695 482.703 78.2622C475.391 80.5333 469.923 85.3732 465.229 93.7259C462.853 97.9544 458.867 102.77 457.822 105.666C459.085 106.928 464.252 106.063 464.859 103.744C465.286 102.112 467.322 97.6665 467.322 97.6665C467.322 97.6665 476.442 80.9552 482.322 80.6665C482.322 80.6665 489.822 78.6665 498.718 78.0526C515.722 76.2114 534.603 76.859 551.922 79.8764C561.63 81.568 564.444 80.8778 561.633 77.4932C558.832 74.1206 531.743 70.8254 518.113 72.1993ZM588.265 74.0444C588.265 74.7788 588.903 75.3796 589.68 75.3796C590.458 75.3796 590.724 74.7788 590.27 74.0444C589.815 73.3101 589.179 72.7093 588.855 72.7093C588.53 72.7093 588.265 73.3101 588.265 74.0444ZM183.136 76.2915C184.1 76.6774 185.253 76.6293 185.697 76.186C186.14 75.7428 185.352 75.4277 183.944 75.4851C182.387 75.5492 182.07 75.8656 183.136 76.2915ZM272.791 80.2515C271.571 81.7536 271.498 82.2156 272.58 81.5654C273.523 80.9992 274.25 81.2209 274.25 82.0741C274.25 82.9059 275.303 83.3838 276.589 83.1368C279.511 82.5734 279.673 78.8977 276.8 78.345C275.629 78.1193 273.825 78.9778 272.791 80.2515ZM509.427 78.9992C509.427 79.7656 510.48 81.2182 511.766 82.2263C513.929 83.9206 513.957 83.8578 512.144 81.3878C511.066 79.9191 510.014 78.4678 509.806 78.1607C509.597 77.855 509.427 78.2328 509.427 78.9992ZM345.071 79.9925C345.071 81.0233 349.047 81.8511 349.613 80.9392C349.952 80.3891 349.07 79.8523 347.651 79.7455C346.232 79.6387 345.071 79.7495 345.071 79.9925ZM522.79 82.0554C523.577 83.524 524.52 84.7257 524.888 84.7257C525.255 84.7257 524.913 83.524 524.126 82.0554C523.339 80.5867 522.396 79.3851 522.028 79.3851C521.661 79.3851 522.003 80.5867 522.79 82.0554ZM535.419 82.8444C535.997 84.2463 537.322 87.1665 537.322 87.1665C539.322 92.1665 542.625 92.9489 543.571 98.8649C544.227 102.977 543.782 105.613 541.764 109.546C539.282 114.386 529.565 125.318 528.6 124.356C528.366 124.122 529.412 121.568 530.925 118.681C533.092 114.545 533.539 111.792 533.032 105.706C532.286 96.7661 527.798 95.5443 524.003 89.5362C522.822 87.6665 520.753 87.2064 520.753 87.2064C520.753 87.2064 519.634 86.7898 517.434 87.1129C514.565 87.5335 513.436 88.4321 513.436 90.2973C513.436 90.2973 512.516 96.1693 509.982 104.844C507.272 114.119 502.822 121.167 500.322 124.166C500.322 124.166 494.458 130.24 489.806 132.628C485.687 134.743 479.805 134.487 476.312 132.042C472.546 129.408 468.909 122.49 469.912 119.875C470.384 118.649 470.034 118.094 469.008 118.432C468.088 118.733 466.907 121.9 466.907 121.9L458.822 142.438C458.822 142.438 457.493 145.984 455.828 147.33L452.803 149.778L458.065 153.223C466.544 158.773 473.003 159.628 503.376 159.211C530.898 158.833 531.425 158.773 532.893 155.831C532.893 155.831 538.767 136.826 543.723 118.803C553.978 81.504 554.043 82.6241 541.527 81.1421C534.848 80.3517 534.438 80.4665 535.419 82.8444ZM103.367 85.6483C103.282 87.2571 102.611 88.9448 101.876 89.3987C101.141 89.8527 100.564 91.2399 100.593 92.4816C100.629 93.9903 101.322 93.4963 102.68 90.9902C103.799 88.9287 104.447 86.225 104.118 84.982C103.683 83.3317 103.481 83.5107 103.367 85.6483ZM475.227 87.7298L472.681 90.7339L475.688 88.1904C478.512 85.8005 479.302 84.7257 478.233 84.7257C477.979 84.7257 476.627 86.0768 475.227 87.7298ZM313.001 86.5655C313.001 86.8419 314.054 87.894 315.339 88.902C317.459 90.5616 317.506 90.5149 315.845 88.3973C314.098 86.173 313.001 85.4667 313.001 86.5655ZM45.7542 88.7311C45.7542 89.4655 46.3916 90.0663 47.1693 90.0663C47.947 90.0663 48.2129 89.4655 47.7586 88.7311C47.3043 87.9968 46.6682 87.396 46.3435 87.396C46.0188 87.396 45.7542 87.9968 45.7542 88.7311ZM122.365 89.34C122.365 90.4094 122.876 90.9688 123.5 90.583C124.124 90.1971 124.29 89.3226 123.866 88.639C122.787 86.8926 122.365 87.0889 122.365 89.34ZM175.369 88.7311C175.369 89.4655 176.006 90.0663 176.784 90.0663C177.562 90.0663 177.828 89.4655 177.373 88.7311C176.919 87.9968 176.283 87.396 175.958 87.396C175.634 87.396 175.369 87.9968 175.369 88.7311ZM108.619 91.2866C107.798 92.8194 107.685 94.0717 108.367 94.0717C109.741 94.0717 111.636 90.0276 110.702 89.0929C110.376 88.7685 109.439 89.7552 108.619 91.2866ZM179.477 90.615C178.406 91.9035 178.355 92.7726 179.312 93.3641C180.083 93.8394 180.759 94.0437 180.817 93.8167C181.415 91.3961 181.736 88.7311 181.427 88.7311C181.215 88.7311 180.337 89.579 179.477 90.615ZM294.294 90.3493C294.294 91.5577 299.136 91.0142 300.499 89.6524C301.01 89.141 299.823 88.8566 297.86 89.0182C295.899 89.1811 294.294 89.7792 294.294 90.3493ZM62.6416 92.069C62.2193 93.1705 62.4558 94.0717 63.1667 94.0717C63.8789 94.0717 64.4615 93.1705 64.4615 92.069C64.4615 90.9675 64.225 90.0663 63.9364 90.0663C63.6477 90.0663 63.0651 90.9675 62.6416 92.069ZM183.492 92.1798C183.556 93.7353 183.873 94.0517 184.299 92.9876C184.685 92.0236 184.637 90.8714 184.193 90.4281C183.75 89.9848 183.434 90.7726 183.492 92.1798ZM558.775 92.5617C559.51 93.9329 559.681 95.5311 559.155 96.1132C558.63 96.694 558.954 96.7367 559.874 96.208C561.096 95.5044 561.173 94.5457 560.162 92.6551C559.399 91.2319 558.474 90.0663 558.107 90.0663C557.739 90.0663 558.04 91.1891 558.775 92.5617ZM279.138 96.1426C279.949 98.2548 282.268 98.8049 282.268 96.8849C282.268 96.2293 281.396 95.3588 280.331 94.9503C279.037 94.4536 278.641 94.8488 279.138 96.1426ZM481.8 94.981C482.321 95.8475 482.135 96.9343 481.388 97.3963C479.11 98.8035 479.873 100.748 482.703 100.748C485.966 100.748 486.19 97.7301 483.114 95.236C481.826 94.1933 481.261 94.0824 481.8 94.981ZM269.533 99.0786C271.393 106.529 278.703 111.441 287.88 111.409C296.304 111.378 297.854 110.003 294.967 105.121C293.202 102.136 291.886 101.323 289.546 101.769C287.845 102.095 283.035 100.796 278.855 98.8836C269.274 94.5003 268.394 94.519 269.533 99.0786ZM490.72 97.2467C490.72 97.5231 491.773 98.5752 493.059 99.5832C495.178 101.243 495.225 101.196 493.564 99.0786C491.817 96.8542 490.72 96.1479 490.72 97.2467ZM297.41 100.184C296.965 101.342 297.622 103.295 298.869 104.523C300.991 106.612 301.261 106.59 303.038 104.195C304.447 102.298 304.556 101.173 303.462 99.8556C301.46 97.4457 298.397 97.6126 297.41 100.184ZM410.101 98.9677C408.856 100.212 408.989 102.083 410.323 102.083C410.936 102.083 411.437 101.181 411.437 100.08C411.437 97.8115 411.34 97.73 410.101 98.9677ZM506.755 102.75C506.755 103.852 506.992 104.753 507.28 104.753C507.569 104.753 508.151 103.852 508.575 102.75C508.997 101.649 508.761 100.748 508.05 100.748C507.338 100.748 506.755 101.649 506.755 102.75ZM554.965 102.861C555.029 104.417 555.346 104.733 555.772 103.669C556.158 102.705 556.11 101.553 555.667 101.109C555.223 100.666 554.908 101.454 554.965 102.861ZM61.2719 103.662C61.6581 104.286 62.5333 104.451 63.2175 104.028C64.9653 102.949 64.7688 102.527 62.5159 102.527C61.4456 102.527 60.8857 103.039 61.2719 103.662ZM588.265 102.607C588.265 102.896 589.198 103.49 590.339 103.928C591.528 104.383 592.064 104.159 591.597 103.403C590.812 102.133 588.265 101.526 588.265 102.607ZM204.155 105.996C203.732 106.68 203.898 107.554 204.522 107.94C205.146 108.326 205.657 107.766 205.657 106.697C205.657 104.446 205.235 104.25 204.155 105.996ZM472.681 107.423C472.227 108.158 472.493 108.758 473.27 108.758C474.048 108.758 474.685 108.158 474.685 107.423C474.685 106.689 474.421 106.088 474.096 106.088C473.771 106.088 473.135 106.689 472.681 107.423ZM148.062 109.15C148.564 110.466 149.311 111.207 149.723 110.796C150.134 110.386 149.724 109.309 148.81 108.402C147.49 107.093 147.337 107.247 148.062 109.15ZM197.91 109.215C198.728 110.2 198.952 111.498 198.407 112.099C197.863 112.7 198.197 112.741 199.153 112.191C200.489 111.421 200.528 110.759 199.322 109.307C198.462 108.271 197.457 107.423 197.089 107.423C196.722 107.423 197.091 108.23 197.91 109.215ZM493.405 112.082C492.496 113.175 491.223 113.741 490.573 113.341C489.924 112.939 489.953 114.086 490.639 115.888C491.324 117.691 491.491 119.558 491.01 120.04C488.425 122.624 495.97 118.518 499.074 115.653C501.771 113.164 502.307 111.975 501.079 111.196C498.458 109.534 495.21 109.908 493.405 112.082ZM465.437 113.542C465.501 115.098 465.818 115.414 466.244 114.35C466.631 113.386 466.582 112.234 466.139 111.791C465.695 111.347 465.38 112.135 465.437 113.542ZM470.094 114.49C470.597 115.807 471.344 116.548 471.755 116.136C472.167 115.727 471.756 114.649 470.842 113.743C469.522 112.434 469.37 112.588 470.094 114.49ZM478.905 118.474C479.183 122.595 479.457 122.82 483.623 122.334C489.07 121.699 489.153 120.759 484.092 117.02C478.919 113.198 478.556 113.299 478.905 118.474ZM172.115 116.629C171.708 117.287 172.244 118.158 173.304 118.564C174.591 119.058 174.985 118.66 174.49 117.369C173.628 115.126 173.139 114.974 172.115 116.629ZM563.854 123.338C563.272 125.559 563.446 126.081 564.438 125.09C565.215 124.313 565.587 122.891 565.266 121.927C564.932 120.927 564.327 121.533 563.854 123.338ZM394.155 123.611C395.062 124.524 396.14 124.934 396.55 124.523C396.962 124.111 396.22 123.365 394.903 122.863C392.999 122.139 392.845 122.292 394.155 123.611ZM494.835 124.224C494.899 125.779 495.215 126.095 495.642 125.031C496.028 124.067 495.98 122.915 495.536 122.472C495.092 122.029 494.777 122.816 494.835 124.224ZM562.877 137.034C552.652 162.19 551.782 162.54 501.128 161.915C468.406 161.51 467.125 161.393 460.655 158.227C456.98 156.429 453.433 154.697 452.771 154.378C452.083 154.046 451.971 156.294 452.509 159.65C453.026 162.87 453.515 166.103 453.597 166.838C453.322 169.167 463.822 168.667 467.822 168.667C467.822 168.667 479.338 169.161 494.519 168.736C526.383 167.846 548.23 164.195 554.809 158.664C559.788 154.478 571.611 128.105 570.034 124.704C569.134 122.767 567.606 125.401 562.877 137.034ZM483.371 124.78C481.193 125.716 481.115 125.945 482.958 126.022C484.201 126.073 485.589 125.515 486.043 124.78C486.993 123.245 486.947 123.245 483.371 124.78ZM407.215 127.436C406.747 128.192 407.283 128.416 408.472 127.961C410.787 127.073 411.21 126.115 409.289 126.115C408.597 126.115 407.664 126.71 407.215 127.436ZM429.004 127.027C429.967 127.413 431.12 127.365 431.564 126.922C432.007 126.479 431.219 126.163 429.811 126.221C428.254 126.285 427.937 126.601 429.004 127.027ZM173.422 128.694C172.998 129.377 173.164 130.252 173.788 130.638C174.412 131.023 174.924 130.464 174.924 129.395C174.924 127.143 174.502 126.947 173.422 128.694ZM287.168 129.521C292.577 131.889 326.697 133.121 325.959 130.922C325.646 129.99 320.789 129.453 312.678 129.453C305.644 129.453 300.169 129.003 300.511 128.452C300.853 127.901 297.038 127.5 292.034 127.56C283.096 127.667 283.011 127.702 287.168 129.521ZM198.891 131.233C198.513 131.846 199.051 132.347 200.089 132.347C201.128 132.347 201.666 131.846 201.288 131.233C200.91 130.622 200.37 130.121 200.089 130.121C199.809 130.121 199.269 130.622 198.891 131.233ZM415.72 132.457C414.059 134.575 414.106 134.622 416.225 132.962C418.451 131.217 419.158 130.121 418.059 130.121C417.782 130.121 416.729 131.173 415.72 132.457ZM393.184 133.471C393.902 134.333 394.042 135.586 393.497 136.252C392.953 136.918 393.076 136.996 393.771 136.424C395.766 134.782 395.73 131.901 393.714 131.901C392.462 131.901 392.295 132.397 393.184 133.471ZM458.651 135.383C458.651 136.074 459.245 137.006 459.972 137.455C460.728 137.922 460.953 137.387 460.497 136.199C459.609 133.886 458.651 133.463 458.651 135.383ZM397.488 136.849C395.818 137.519 394.215 138.833 393.925 139.769C393.635 140.705 392.109 145.889 390.532 151.292C387.552 161.506 382.322 166.205 382.322 166.205C380.822 168.882 358.809 170.221 335.717 168.882C286.977 166.054 264.196 162.783 228.79 153.526C199.115 145.768 201.507 145.971 201.005 151.175C201.005 151.175 197.997 191.61 196.245 190.745C195.419 190.338 195.845 190.902 197.192 192C199.253 193.678 199.569 195.578 199.197 203.992C198.952 209.49 199.167 213.732 199.672 213.417C200.179 213.102 200.78 215.11 201.009 217.879L201.426 222.914H327.7H453.974L454.642 212.691C455.009 207.067 454.964 202.683 454.54 202.946C453.529 203.576 450.925 180.249 449.794 160.421L448.896 144.657L443.793 142.056C432.706 136.404 406.062 133.408 397.488 136.849ZM480.698 140.288C485.938 142.547 500.643 142.669 502.464 140.468C503.553 139.153 500.966 138.774 490.267 138.681C478.042 138.572 477.089 138.733 480.698 140.288ZM597.619 138.388C597.619 138.757 598.822 140.444 600.291 142.137C601.761 143.83 602.964 144.617 602.964 143.884C602.964 143.151 601.761 141.463 600.291 140.135C598.822 138.806 597.619 138.02 597.619 138.388ZM170.024 140.659C170.024 141.315 170.895 142.185 171.96 142.594C173.255 143.091 173.651 142.695 173.153 141.402C172.342 139.289 170.024 138.739 170.024 140.659ZM545.335 141.803C543.674 143.921 543.721 143.968 545.84 142.308C548.066 140.563 548.773 139.467 547.673 139.467C547.397 139.467 546.344 140.519 545.335 141.803ZM134.796 153.478C135.218 154.576 136.11 155.135 136.78 154.721C138.182 153.856 137.056 151.483 135.245 151.483C134.576 151.483 134.375 152.381 134.796 153.478ZM172.133 154.921C173.345 159.958 173.552 160.142 174.394 156.925C174.782 155.439 174.226 153.533 173.143 152.634C171.482 151.258 171.332 151.597 172.133 154.921ZM598.232 154.243C597.747 155.025 597.638 155.953 597.988 156.303C598.338 156.653 598.981 156.012 599.416 154.879C600.319 152.526 599.55 152.112 598.232 154.243ZM572.06 159.16C570.399 161.278 570.445 161.325 572.565 159.665C573.85 158.657 574.903 157.605 574.903 157.329C574.903 156.23 573.806 156.936 572.06 159.16ZM169.051 163.5C169.051 166.804 169.312 168.157 169.631 166.504C169.949 164.851 169.949 162.149 169.631 160.496C169.312 158.843 169.051 160.195 169.051 163.5ZM536.83 159.48C536.362 160.235 536.898 160.46 538.087 160.004C540.401 159.116 540.825 158.159 538.904 158.159C538.211 158.159 537.279 158.753 536.83 159.48ZM26.463 162.028C26.0394 162.712 26.4497 163.577 27.373 163.951C28.6852 164.482 28.6558 164.91 27.238 165.902C24.5268 167.8 27.5627 169.075 31.2668 167.592C33.5825 166.665 33.7883 166.317 32.0578 166.254C30.771 166.209 29.7194 165.305 29.7194 164.246C29.7194 161.857 27.5026 160.349 26.463 162.028ZM174.244 163.5C174.244 165.336 174.547 166.087 174.917 165.169C175.289 164.251 175.289 162.749 174.917 161.831C174.547 160.914 174.244 161.664 174.244 163.5ZM576.239 165.502C576.239 166.604 576.74 167.505 577.352 167.505C577.966 167.505 578.467 166.604 578.467 165.502C578.467 164.401 577.966 163.5 577.352 163.5C576.74 163.5 576.239 164.401 576.239 165.502ZM599.061 164.596C599.003 165.567 599.857 167.262 600.96 168.364C602.741 170.143 602.964 170.05 602.964 167.521C602.964 165.958 602.413 165.016 601.741 165.432C601.069 165.847 600.215 165.432 599.842 164.509C599.323 163.219 599.142 163.239 599.061 164.596ZM64.4642 168.84C63.3711 172.354 63.4834 174.357 64.7047 173.137C65.4717 172.37 65.7777 170.941 65.3848 169.958C64.9933 168.977 64.5791 168.473 64.4642 168.84ZM68.8323 178.186C67.2676 187.964 67.0298 192.873 68.1201 192.873C68.4181 192.873 69.5886 191.947 70.7231 190.813C72.4442 189.093 72.5912 187.051 71.609 178.463L70.4345 168.173L68.8323 178.186ZM75.8195 170.176C75.3652 170.91 75.9665 171.511 77.1557 171.511C78.345 171.511 78.9463 170.91 78.492 170.176C78.0376 169.441 77.4363 168.84 77.1557 168.84C76.8751 168.84 76.2738 169.441 75.8195 170.176ZM458.822 170.167C453.484 170.647 453.306 170.575 453.306 174.432C453.306 176.688 454.256 184.504 455.416 191.8C456.577 199.095 457.329 209.243 457.086 214.352L456.646 223.639L484.698 223.276L512.749 222.914L515.868 214.236C517.584 209.462 521.041 198.347 523.549 189.535C526.057 180.723 528.643 172.588 529.293 171.459C530.325 169.669 529.507 169.525 522.96 170.344C510.889 171.855 464.664 170.176 464.664 170.176C464.664 170.176 462.822 170.167 458.822 170.167ZM48.6351 175.946C45.2745 179.536 45.5391 183.982 49.1964 185.384C51.7472 186.362 52.7267 183.793 52.1909 177.535L51.7673 172.597L48.6351 175.946ZM535.471 175.537C535.008 176.284 533.978 176.492 533.18 175.999C532.336 175.477 532.113 175.722 532.649 176.587C533.661 178.224 537.488 177.265 537.488 175.373C537.488 173.782 536.508 173.862 535.471 175.537ZM57.8859 177.63C57.95 179.185 58.2667 179.502 58.693 178.437C59.0792 177.473 59.031 176.321 58.5874 175.878C58.1438 175.435 57.8284 176.222 57.8859 177.63ZM154.144 179.746C154.059 180.972 153.643 183.074 153.22 184.419C152.491 186.737 152.531 186.741 153.979 184.487C154.818 183.179 155.233 181.076 154.902 179.814L154.144 179.746ZM172.696 181.524C172.696 182.626 173.279 183.527 173.991 183.527C174.702 183.527 174.939 182.626 174.516 181.524C174.093 180.423 173.51 179.522 173.222 179.522C172.933 179.522 172.696 180.423 172.696 181.524ZM39.526 184.275C38.5412 186.837 45.2745 194.208 48.5977 194.208C52.9405 194.208 52.4434 191.856 47.0758 187.01C41.02 181.544 40.6284 181.401 39.526 184.275ZM136.368 185.774C137.332 186.16 138.485 186.112 138.929 185.669C139.372 185.225 138.584 184.91 137.175 184.968C135.619 185.032 135.302 185.348 136.368 185.774ZM170.024 188.2C170.024 189.302 170.607 190.203 171.319 190.203C172.03 190.203 172.266 189.302 171.844 188.2C171.42 187.099 170.838 186.197 170.549 186.197C170.261 186.197 170.024 187.099 170.024 188.2ZM132.87 193.541C132.897 195.744 133.196 196.483 133.535 195.184C133.875 193.885 133.852 192.083 133.486 191.179C133.12 190.275 132.843 191.338 132.87 193.541ZM66.0343 196.413C66.2721 197.626 67.8195 198.824 69.4724 199.075C71.7373 199.419 72.4789 198.876 72.4789 196.871C72.4789 194.901 71.585 194.208 69.0408 194.208C66.5607 194.208 65.7216 194.822 66.0343 196.413ZM138.215 197.546C138.242 199.749 138.541 200.489 138.88 199.19C139.22 197.891 139.197 196.088 138.831 195.184C138.465 194.28 138.188 195.343 138.215 197.546ZM171.402 195.543C171.402 196.645 171.984 198.447 172.696 199.549C173.848 201.329 173.991 201.329 173.991 199.549C173.991 198.447 173.409 196.645 172.696 195.543C171.545 193.764 171.402 193.764 171.402 195.543ZM154.095 198.992C154.159 200.548 154.476 200.864 154.902 199.8C155.288 198.836 155.24 197.684 154.796 197.24C154.353 196.797 154.037 197.585 154.095 198.992ZM604.968 198.214C605.423 198.948 606.059 199.549 606.383 199.549C606.708 199.549 606.973 198.948 606.973 198.214C606.973 197.479 606.335 196.879 605.557 196.879C604.78 196.879 604.514 197.479 604.968 198.214ZM187.577 208.629C186.742 212.52 186.059 217.475 186.059 219.642C186.059 223.006 186.572 223.582 189.572 223.582C193.081 223.582 193.083 223.57 192.168 215.48C191.663 211.025 190.765 206.068 190.173 204.468C189.274 202.04 188.842 202.733 187.577 208.629ZM196.854 207.003C196.918 208.559 197.235 208.875 197.661 207.811C198.048 206.847 197.999 205.695 197.556 205.251C197.112 204.808 196.797 205.596 196.854 207.003ZM171.001 210.123C170.42 212.344 170.593 212.866 171.585 211.875C172.362 211.098 172.734 209.676 172.413 208.712C172.079 207.712 171.474 208.318 171.001 210.123ZM155.325 216.827C155.325 218.253 155.84 219.736 156.469 220.125C157.097 220.513 157.328 219.347 156.981 217.533C156.227 213.593 155.325 213.209 155.325 216.827ZM196.081 216.906C193.903 217.842 193.825 218.07 195.668 218.148C196.91 218.198 198.299 217.64 198.753 216.906C199.703 215.37 199.656 215.37 196.081 216.906ZM519.783 223.189C521.438 223.507 524.142 223.507 525.796 223.189C527.451 222.87 526.097 222.61 522.79 222.61C519.483 222.61 518.129 222.87 519.783 223.189Z" fill="#FA007A"></path> <path d="M26.463 162.028C26.0394 162.712 26.4497 163.577 27.373 163.951C28.6852 164.482 28.6558 164.91 27.238 165.902C24.5268 167.8 27.5627 169.075 31.2668 167.592C33.5825 166.665 33.7883 166.317 32.0578 166.254C30.771 166.209 29.7194 165.305 29.7194 164.246C29.7194 161.857 27.5026 160.349 26.463 162.028Z" fill="#FA007A"></path> <path d="M48.6351 175.946C45.2745 179.536 45.5391 183.982 49.1964 185.384C51.7472 186.362 52.7267 183.793 52.1909 177.535L51.7673 172.597L48.6351 175.946Z" fill="#FA007A"></path> <path d="M64.4642 168.84C63.3711 172.354 63.4834 174.357 64.7047 173.137C65.4717 172.37 65.7777 170.941 65.3848 169.958C64.9933 168.977 64.5791 168.473 64.4642 168.84Z" fill="#FA007A"></path> <path d="M68.8323 178.186C67.2676 187.964 67.0298 192.873 68.1201 192.873C68.4181 192.873 69.5886 191.947 70.7231 190.813C72.4442 189.093 72.5912 187.051 71.609 178.463L70.4345 168.173L68.8323 178.186Z" fill="#FA007A"></path> <path d="M75.8195 170.176C75.3652 170.91 75.9665 171.511 77.1557 171.511C78.345 171.511 78.9463 170.91 78.492 170.176C78.0376 169.441 77.4363 168.84 77.1557 168.84C76.8751 168.84 76.2738 169.441 75.8195 170.176Z" fill="#FA007A"></path> <path d="M57.8859 177.63C57.95 179.185 58.2667 179.502 58.693 178.437C59.0792 177.473 59.031 176.321 58.5874 175.878C58.1438 175.435 57.8284 176.222 57.8859 177.63Z" fill="#FA007A"></path> <path d="M45.7542 88.7311C45.7542 89.4655 46.3916 90.0663 47.1693 90.0663C47.947 90.0663 48.2129 89.4655 47.7586 88.7311C47.3043 87.9968 46.6682 87.396 46.3435 87.396C46.0188 87.396 45.7542 87.9968 45.7542 88.7311Z" fill="#FA007A"></path> <path d="M61.2719 103.662C61.6581 104.286 62.5333 104.451 63.2175 104.028C64.9653 102.949 64.7688 102.527 62.5159 102.527C61.4456 102.527 60.8857 103.039 61.2719 103.662Z" fill="#FA007A"></path> <path d="M62.6416 92.069C62.2193 93.1705 62.4558 94.0717 63.1667 94.0717C63.8789 94.0717 64.4615 93.1705 64.4615 92.069C64.4615 90.9675 64.225 90.0663 63.9364 90.0663C63.6477 90.0663 63.0651 90.9675 62.6416 92.069Z" fill="#FA007A"></path> <path d="M2.99473 0.546904C2.99473 1.75121 13.9826 9.95707 15.5954 9.95707C17.9859 9.95707 15.5927 6.89023 10.4376 3.3454C4.08109 -1.02456 2.99473 -1.43313 2.99473 0.546904Z" fill="#FA007A"></path> <path d="M83.1688 23.3086C83.1688 24.0429 83.8062 24.6438 84.5839 24.6438C85.3616 24.6438 85.6275 24.0429 85.1731 23.3086C84.7188 22.5743 84.0828 21.9735 83.7581 21.9735C83.4334 21.9735 83.1688 22.5743 83.1688 23.3086Z" fill="#FA007A"></path> <path d="M112.566 31.3983C112.566 32.1754 113.167 32.4411 113.902 31.9871C114.637 31.5332 115.238 30.8976 115.238 30.5732C115.238 30.2487 114.637 29.9844 113.902 29.9844C113.167 29.9844 112.566 30.6213 112.566 31.3983Z" fill="#FA007A"></path> <path d="M108.557 52.6032C108.557 53.2948 109.152 54.2268 109.879 54.6754C110.635 55.1427 110.86 54.6073 110.404 53.419C109.515 51.1065 108.557 50.6833 108.557 52.6032Z" fill="#FA007A"></path> <path d="M62.6082 58.2669C62.9943 58.8905 63.8696 59.056 64.5537 58.6328C66.3015 57.554 66.1051 57.1321 63.8522 57.1321C62.7819 57.1321 62.222 57.6434 62.6082 58.2669Z" fill="#FA007A"></path> <path d="M313.001 86.5655C313.001 86.8419 314.054 87.894 315.339 88.902C317.459 90.5616 317.506 90.5149 315.845 88.3973C314.098 86.173 313.001 85.4667 313.001 86.5655Z" fill="#FA007A"></path> <path d="M294.294 90.3493C294.294 91.5577 299.136 91.0142 300.499 89.6524C301.01 89.141 299.823 88.8566 297.86 89.0182C295.899 89.1811 294.294 89.7792 294.294 90.3493Z" fill="#FA007A"></path> <path d="M279.138 96.1426C279.949 98.2548 282.268 98.8049 282.268 96.8849C282.268 96.2293 281.396 95.3588 280.331 94.9503C279.037 94.4536 278.641 94.8488 279.138 96.1426Z" fill="#FA007A"></path> <path d="M272.791 80.2515C271.571 81.7536 271.498 82.2156 272.58 81.5654C273.523 80.9992 274.25 81.2209 274.25 82.0741C274.25 82.9059 275.303 83.3838 276.589 83.1368C279.511 82.5734 279.673 78.8977 276.8 78.345C275.629 78.1193 273.825 78.9778 272.791 80.2515Z" fill="#FA007A"></path> <path d="M276.021 68.2472C276.505 68.7305 276.153 70.0817 275.24 71.2513C273.776 73.1285 273.853 73.1646 275.906 71.557C277.996 69.9188 278.025 67.3687 275.953 67.3687C275.506 67.3687 275.537 67.7639 276.021 68.2472Z" fill="#FA007A"></path> <path d="M285.608 60.6929C285.154 61.4272 285.42 62.0281 286.198 62.0281C286.975 62.0281 287.613 61.4272 287.613 60.6929C287.613 59.9586 287.348 59.3577 287.023 59.3577C286.699 59.3577 286.063 59.9586 285.608 60.6929Z" fill="#FA007A"></path> <path d="M429.004 127.027C429.967 127.413 431.12 127.365 431.564 126.922C432.007 126.479 431.219 126.163 429.811 126.221C428.254 126.285 427.937 126.601 429.004 127.027Z" fill="#FA007A"></path> <path d="M415.72 132.457C414.059 134.575 414.106 134.622 416.225 132.962C418.451 131.217 419.158 130.121 418.059 130.121C417.782 130.121 416.729 131.173 415.72 132.457Z" fill="#FA007A"></path> <path d="M407.215 127.436C406.747 128.192 407.283 128.416 408.472 127.961C410.787 127.073 411.21 126.115 409.289 126.115C408.597 126.115 407.664 126.71 407.215 127.436Z" fill="#FA007A"></path> <path d="M394.155 123.611C395.062 124.524 396.14 124.934 396.55 124.523C396.962 124.111 396.22 123.365 394.903 122.863C392.999 122.139 392.845 122.292 394.155 123.611Z" fill="#FA007A"></path> <path d="M393.184 133.471C393.902 134.333 394.042 135.586 393.497 136.252C392.953 136.918 393.076 136.996 393.771 136.424C395.766 134.782 395.73 131.901 393.714 131.901C392.462 131.901 392.295 132.397 393.184 133.471Z" fill="#FA007A"></path> <path d="M410.101 98.9677C408.856 100.212 408.989 102.083 410.323 102.083C410.936 102.083 411.437 101.181 411.437 100.08C411.437 97.8115 411.34 97.73 410.101 98.9677Z" fill="#FA007A"></path> <path d="M458.651 135.383C458.651 136.074 459.245 137.006 459.972 137.455C460.728 137.922 460.953 137.387 460.497 136.199C459.609 133.886 458.651 133.463 458.651 135.383Z" fill="#FA007A"></path> <path d="M465.437 113.542C465.501 115.098 465.818 115.414 466.244 114.35C466.631 113.386 466.582 112.234 466.139 111.791C465.695 111.347 465.38 112.135 465.437 113.542Z" fill="#FA007A"></path> <path d="M470.094 114.49C470.597 115.807 471.344 116.548 471.755 116.136C472.167 115.727 471.756 114.649 470.842 113.743C469.522 112.434 469.37 112.588 470.094 114.49Z" fill="#FA007A"></path> <path d="M472.681 107.423C472.227 108.158 472.493 108.758 473.27 108.758C474.048 108.758 474.685 108.158 474.685 107.423C474.685 106.689 474.421 106.088 474.096 106.088C473.771 106.088 473.135 106.689 472.681 107.423Z" fill="#FA007A"></path> <path d="M481.8 94.981C482.321 95.8475 482.135 96.9343 481.388 97.3963C479.11 98.8035 479.873 100.748 482.703 100.748C485.966 100.748 486.19 97.7301 483.114 95.236C481.826 94.1933 481.261 94.0824 481.8 94.981Z" fill="#FA007A"></path> <path d="M490.72 97.2467C490.72 97.5231 491.773 98.5752 493.059 99.5832C495.178 101.243 495.225 101.196 493.564 99.0786C491.817 96.8542 490.72 96.1479 490.72 97.2467Z" fill="#FA007A"></path> <path d="M506.755 102.75C506.755 103.852 506.992 104.753 507.28 104.753C507.569 104.753 508.151 103.852 508.575 102.75C508.997 101.649 508.761 100.748 508.05 100.748C507.338 100.748 506.755 101.649 506.755 102.75Z" fill="#FA007A"></path> <path d="M475.227 87.7298L472.681 90.7339L475.688 88.1904C478.512 85.8005 479.302 84.7257 478.233 84.7257C477.979 84.7257 476.627 86.0768 475.227 87.7298Z" fill="#FA007A"></path> <path d="M509.427 78.9992C509.427 79.7656 510.48 81.2182 511.766 82.2263C513.929 83.9206 513.957 83.8578 512.144 81.3878C511.066 79.9191 510.014 78.4678 509.806 78.1607C509.597 77.855 509.427 78.2328 509.427 78.9992Z" fill="#FA007A"></path> <path d="M512.1 64.6984C510.998 65.41 510.697 65.9921 511.432 65.9921C512.167 65.9921 513.67 65.41 514.772 64.6984C515.875 63.9867 516.175 63.4046 515.441 63.4046C514.706 63.4046 513.202 63.9867 512.1 64.6984Z" fill="#FA007A"></path> <path d="M522.79 82.0554C523.577 83.524 524.52 84.7257 524.888 84.7257C525.255 84.7257 524.913 83.524 524.126 82.0554C523.339 80.5867 522.396 79.3851 522.028 79.3851C521.661 79.3851 522.003 80.5867 522.79 82.0554Z" fill="#FA007A"></path> <path d="M554.965 102.861C555.029 104.417 555.346 104.733 555.772 103.669C556.158 102.705 556.11 101.553 555.667 101.109C555.223 100.666 554.908 101.454 554.965 102.861Z" fill="#FA007A"></path> <path d="M558.775 92.5617C559.51 93.9329 559.681 95.5311 559.155 96.1132C558.63 96.694 558.954 96.7367 559.874 96.208C561.096 95.5044 561.173 94.5457 560.162 92.6551C559.399 91.2319 558.474 90.0663 558.107 90.0663C557.739 90.0663 558.04 91.1891 558.775 92.5617Z" fill="#FA007A"></path> <path d="M122.365 89.34C122.365 90.4094 122.876 90.9688 123.5 90.583C124.124 90.1971 124.29 89.3226 123.866 88.639C122.787 86.8926 122.365 87.0889 122.365 89.34Z" fill="#FA007A"></path> <path d="M148.062 109.15C148.564 110.466 149.311 111.207 149.723 110.796C150.134 110.386 149.724 109.309 148.81 108.402C147.49 107.093 147.337 107.247 148.062 109.15Z" fill="#FA007A"></path> <path d="M134.796 153.478C135.218 154.576 136.11 155.135 136.78 154.721C138.182 153.856 137.056 151.483 135.245 151.483C134.576 151.483 134.375 152.381 134.796 153.478Z" fill="#FA007A"></path> <path d="M172.133 154.921C173.345 159.958 173.552 160.142 174.394 156.925C174.782 155.439 174.226 153.533 173.143 152.634C171.482 151.258 171.332 151.597 172.133 154.921Z" fill="#FA007A"></path> <path d="M169.051 163.5C169.051 166.804 169.312 168.157 169.631 166.504C169.949 164.851 169.949 162.149 169.631 160.496C169.312 158.843 169.051 160.195 169.051 163.5Z" fill="#FA007A"></path> <path d="M170.024 140.659C170.024 141.315 170.895 142.185 171.96 142.594C173.255 143.091 173.651 142.695 173.153 141.402C172.342 139.289 170.024 138.739 170.024 140.659Z" fill="#FA007A"></path> <path d="M173.422 128.694C172.998 129.377 173.164 130.252 173.788 130.638C174.412 131.023 174.924 130.464 174.924 129.395C174.924 127.143 174.502 126.947 173.422 128.694Z" fill="#FA007A"></path> <path d="M172.115 116.629C171.708 117.287 172.244 118.158 173.304 118.564C174.591 119.058 174.985 118.66 174.49 117.369C173.628 115.126 173.139 114.974 172.115 116.629Z" fill="#FA007A"></path> <path d="M175.369 88.7311C175.369 89.4655 176.006 90.0663 176.784 90.0663C177.562 90.0663 177.828 89.4655 177.373 88.7311C176.919 87.9968 176.283 87.396 175.958 87.396C175.634 87.396 175.369 87.9968 175.369 88.7311Z" fill="#FA007A"></path> <path d="M179.477 90.615C178.406 91.9035 178.355 92.7726 179.312 93.3641C180.083 93.8394 180.759 94.0437 180.817 93.8167C181.415 91.3961 181.736 88.7311 181.427 88.7311C181.215 88.7311 180.337 89.579 179.477 90.615Z" fill="#FA007A"></path> <path d="M183.492 92.1798C183.556 93.7353 183.873 94.0517 184.299 92.9876C184.685 92.0236 184.637 90.8714 184.193 90.4281C183.75 89.9848 183.434 90.7726 183.492 92.1798Z" fill="#FA007A"></path> <path d="M183.136 76.2915C184.1 76.6774 185.253 76.6293 185.697 76.186C186.14 75.7428 185.352 75.4277 183.944 75.4851C182.387 75.5492 182.07 75.8656 183.136 76.2915Z" fill="#FA007A"></path> <path d="M197.91 109.215C198.728 110.2 198.952 111.498 198.407 112.099C197.863 112.7 198.197 112.741 199.153 112.191C200.489 111.421 200.528 110.759 199.322 109.307C198.462 108.271 197.457 107.423 197.089 107.423C196.722 107.423 197.091 108.23 197.91 109.215Z" fill="#FA007A"></path> <path d="M204.155 105.996C203.732 106.68 203.898 107.554 204.522 107.94C205.146 108.326 205.657 107.766 205.657 106.697C205.657 104.446 205.235 104.25 204.155 105.996Z" fill="#FA007A"></path> <path d="M198.891 131.233C198.513 131.846 199.051 132.347 200.089 132.347C201.128 132.347 201.666 131.846 201.288 131.233C200.91 130.622 200.37 130.121 200.089 130.121C199.809 130.121 199.269 130.622 198.891 131.233Z" fill="#FA007A"></path> <path d="M174.244 163.5C174.244 165.336 174.547 166.087 174.917 165.169C175.289 164.251 175.289 162.749 174.917 161.831C174.547 160.914 174.244 161.664 174.244 163.5Z" fill="#FA007A"></path> <path d="M154.744 63.223C154.337 63.8812 154.872 64.7518 155.933 65.1576C157.22 65.6517 157.614 65.2538 157.119 63.9627C156.257 61.7196 155.768 61.5674 154.744 63.223Z" fill="#FA007A"></path> <path d="M139.041 53.5939C140.004 53.9798 141.157 53.9317 141.601 53.4884C142.045 53.0452 141.256 52.7301 139.848 52.7875C138.291 52.8516 137.974 53.168 139.041 53.5939Z" fill="#FA007A"></path> <path d="M132.609 63.8879C132.609 64.1763 133.542 64.7704 134.683 65.2084C135.873 65.6637 136.408 65.4394 135.941 64.6837C135.156 63.414 132.609 62.8065 132.609 63.8879Z" fill="#FA007A"></path> <path d="M143.913 48.766C143.428 49.5484 143.318 50.4763 143.668 50.8261C144.018 51.1759 144.661 50.5351 145.097 49.4015C146 47.049 145.23 46.6351 143.913 48.766Z" fill="#FA007A"></path> <path d="M108.619 91.2866C107.798 92.8194 107.685 94.0717 108.367 94.0717C109.741 94.0717 111.636 90.0276 110.702 89.0929C110.376 88.7685 109.439 89.7552 108.619 91.2866Z" fill="#FA007A"></path> <path d="M103.367 85.6483C103.282 87.2571 102.611 88.9448 101.876 89.3987C101.141 89.8527 100.564 91.2399 100.593 92.4816C100.629 93.9903 101.322 93.4963 102.68 90.9902C103.799 88.9287 104.447 86.225 104.118 84.982C103.683 83.3317 103.481 83.5107 103.367 85.6483Z" fill="#FA007A"></path> <path d="M188.83 23.8574C187.907 24.9695 187.777 26.0577 188.515 26.513C189.202 26.9375 190.077 26.0897 190.459 24.6291C191.282 21.4821 190.937 21.3192 188.83 23.8574Z" fill="#FA007A"></path> <path d="M194.182 25.4221C194.246 26.9776 194.563 27.294 194.989 26.2299C195.375 25.266 195.327 24.1137 194.883 23.6704C194.44 23.2272 194.124 24.0149 194.182 25.4221Z" fill="#FA007A"></path> <path d="M209.388 64.7878C208.903 65.5702 208.794 66.4981 209.144 66.8479C209.494 67.1978 210.136 66.5569 210.572 65.4233C211.475 63.0708 210.706 62.6569 209.388 64.7878Z" fill="#FA007A"></path> <path d="M234.163 39.3304C234.163 40.0648 234.801 40.6656 235.578 40.6656C236.356 40.6656 236.622 40.0648 236.168 39.3304C235.713 38.5961 235.077 37.9953 234.753 37.9953C234.428 37.9953 234.163 38.5961 234.163 39.3304Z" fill="#FA007A"></path> <path d="M232.827 33.2288C232.827 33.596 234.03 34.5386 235.499 35.325C236.969 36.1114 238.172 36.4532 238.172 36.086C238.172 35.7189 236.969 34.7762 235.499 33.9898C234.03 33.2034 232.827 32.8616 232.827 33.2288Z" fill="#FA007A"></path> <path d="M248.967 72.1525C249.032 73.708 249.348 74.0244 249.774 72.9603C250.161 71.9963 250.113 70.8441 249.669 70.4008C249.225 69.9575 248.91 70.7453 248.967 72.1525Z" fill="#FA007A"></path> <path d="M260.22 68.7038C259.168 70.4035 262.264 70.4035 264.897 68.7038C266.526 67.6517 266.353 67.4061 263.973 67.3887C262.363 67.378 260.674 67.9695 260.22 68.7038Z" fill="#FA007A"></path> <path d="M265.876 52.8475C266.783 53.7608 267.862 54.1707 268.272 53.7595C268.684 53.3482 267.942 52.6019 266.624 52.0998C264.72 51.3762 264.567 51.5284 265.876 52.8475Z" fill="#FA007A"></path> <path d="M301.63 20.6597C301.167 21.406 300.231 21.6717 299.547 21.2485C297.564 20.0241 298.109 22.8199 300.188 24.545C301.477 25.6144 302.347 25.6651 302.939 24.7092C303.415 23.9388 303.094 23.3086 302.227 23.3086C301.05 23.3086 301.071 22.7986 302.311 21.3059C303.227 20.2044 303.635 19.3031 303.221 19.3031C302.808 19.3031 302.091 19.9133 301.63 20.6597Z" fill="#FA007A"></path> <path d="M292.958 28.728C292.958 29.5051 293.559 29.7708 294.294 29.3168C295.029 28.8628 295.63 28.2273 295.63 27.9029C295.63 27.5784 295.029 27.3141 294.294 27.3141C293.559 27.3141 292.958 27.9509 292.958 28.728Z" fill="#FA007A"></path> <path d="M319.014 4.61646C319.468 5.35079 320.104 5.95161 320.429 5.95161C320.754 5.95161 321.018 5.35079 321.018 4.61646C321.018 3.88212 320.381 3.2813 319.603 3.2813C318.826 3.2813 318.56 3.88212 319.014 4.61646Z" fill="#FA007A"></path> <path d="M373.893 15.1468C373.491 15.797 374.207 17.1495 375.485 18.1509C377.537 19.7584 377.615 19.7224 376.15 17.8452C375.238 16.6756 374.886 15.3244 375.37 14.8411C375.853 14.3577 375.884 13.9625 375.438 13.9625C374.99 13.9625 374.295 14.4953 373.893 15.1468Z" fill="#FA007A"></path> <path d="M535.471 175.537C535.008 176.284 533.978 176.492 533.18 175.999C532.336 175.477 532.113 175.722 532.649 176.587C533.661 178.224 537.488 177.265 537.488 175.373C537.488 173.782 536.508 173.862 535.471 175.537Z" fill="#FA007A"></path> <path d="M536.83 159.48C536.362 160.235 536.898 160.46 538.087 160.004C540.401 159.116 540.825 158.159 538.904 158.159C538.211 158.159 537.279 158.753 536.83 159.48Z" fill="#FA007A"></path> <path d="M545.335 141.803C543.674 143.921 543.721 143.968 545.84 142.308C548.066 140.563 548.773 139.467 547.673 139.467C547.397 139.467 546.344 140.519 545.335 141.803Z" fill="#FA007A"></path> <path d="M563.854 123.338C563.272 125.559 563.446 126.081 564.438 125.09C565.215 124.313 565.587 122.891 565.266 121.927C564.932 120.927 564.327 121.533 563.854 123.338Z" fill="#FA007A"></path> <path d="M576.239 165.502C576.239 166.604 576.74 167.505 577.352 167.505C577.966 167.505 578.467 166.604 578.467 165.502C578.467 164.401 577.966 163.5 577.352 163.5C576.74 163.5 576.239 164.401 576.239 165.502Z" fill="#FA007A"></path> <path d="M572.06 159.16C570.399 161.278 570.445 161.325 572.565 159.665C573.85 158.657 574.903 157.605 574.903 157.329C574.903 156.23 573.806 156.936 572.06 159.16Z" fill="#FA007A"></path> <path d="M599.061 164.596C599.003 165.567 599.857 167.262 600.96 168.364C602.741 170.143 602.964 170.05 602.964 167.521C602.964 165.958 602.413 165.016 601.741 165.432C601.069 165.847 600.215 165.432 599.842 164.509C599.323 163.219 599.142 163.239 599.061 164.596Z" fill="#FA007A"></path> <path d="M598.232 154.243C597.747 155.025 597.638 155.953 597.988 156.303C598.338 156.653 598.981 156.012 599.416 154.879C600.319 152.526 599.55 152.112 598.232 154.243Z" fill="#FA007A"></path> <path d="M597.619 138.388C597.619 138.757 598.822 140.444 600.291 142.137C601.761 143.83 602.964 144.617 602.964 143.884C602.964 143.151 601.761 141.463 600.291 140.135C598.822 138.806 597.619 138.02 597.619 138.388Z" fill="#FA007A"></path> <path d="M588.265 102.607C588.265 102.896 589.198 103.49 590.339 103.928C591.528 104.383 592.064 104.159 591.597 103.403C590.812 102.133 588.265 101.526 588.265 102.607Z" fill="#FA007A"></path> <path d="M588.265 74.0444C588.265 74.7788 588.903 75.3796 589.68 75.3796C590.458 75.3796 590.724 74.7788 590.27 74.0444C589.815 73.3101 589.179 72.7093 588.855 72.7093C588.53 72.7093 588.265 73.3101 588.265 74.0444Z" fill="#FA007A"></path> <path d="M603.577 71.4636C603.092 72.246 602.983 73.1739 603.333 73.5237C603.683 73.8735 604.325 73.2327 604.761 72.0991C605.664 69.7466 604.895 69.3327 603.577 71.4636Z" fill="#FA007A"></path> <path d="M605.897 61.3605C605.924 63.5635 606.223 64.3031 606.562 63.004C606.902 61.7049 606.879 59.9025 606.513 58.9986C606.147 58.0947 605.87 59.1575 605.897 61.3605Z" fill="#FA007A"></path> <path d="M537.7 17.968C537.7 19.8038 538.003 20.5555 538.373 19.6369C538.744 18.7197 538.744 17.2176 538.373 16.2991C538.003 15.3818 537.7 16.1322 537.7 17.968Z" fill="#FA007A"></path> <path d="M345.071 79.9925C345.071 81.0233 349.047 81.8511 349.613 80.9392C349.952 80.3891 349.07 79.8523 347.651 79.7455C346.232 79.6387 345.071 79.7495 345.071 79.9925Z" fill="#FA007A"></path> <path d="M346.407 68.6251C346.407 70.8628 348.777 71.4182 349.566 69.3634C350.031 68.1524 349.562 67.3687 348.37 67.3687C347.29 67.3687 346.407 67.9334 346.407 68.6251Z" fill="#FA007A"></path> <path d="M380.552 52.5685C380.121 53.2641 380.339 54.184 381.035 54.6139C381.732 55.0439 382.652 54.8262 383.083 54.1306C383.513 53.435 383.295 52.5151 382.599 52.0852C381.903 51.6553 380.982 51.8729 380.552 52.5685Z" fill="#FA007A"></path> <path d="M494.835 124.224C494.899 125.779 495.215 126.095 495.642 125.031C496.028 124.067 495.98 122.915 495.536 122.472C495.092 122.029 494.777 122.816 494.835 124.224Z" fill="#FA007A"></path> </g> <rect x="2" y="2" width="614" height="179" stroke="#FA007A" stroke-width="4"></rect> <defs> <clipPath id="clip0_1687_825"> <rect x="2" y="2" width="614" height="179" fill="white"></rect> </clipPath> </defs> </svg> 