<?xml version="1.0" encoding="UTF-8"?> <svg xmlns="http://www.w3.org/2000/svg" width="447" height="113" viewBox="0 0 447 113" fill="none"> <path d="M47.76 56.88V96.72C47.76 98.52 47.04 98.88 44.76 99C42.36 99.12 33.36 99.12 26.28 98.76C28.32 102.6 30.72 108.6 31.56 112.68C41.88 112.68 49.68 112.44 55.32 110.4C60.96 108.48 62.76 104.64 62.76 97.2V56.88H47.76ZM11.64 6.84V20.04H85.32V6.84H11.64ZM79.92 6.84V9.96C74.52 16.8 61.92 27.24 51.48 33.12C53.88 35.4 58.2 39.84 60.12 42.72C72.96 35.64 87.12 24.24 97.32 14.16L87 6L83.76 6.84H79.92ZM0 45.96V59.64H98.04V45.96H0ZM28.44 35.4C42.24 40.56 62.4 48.84 72.12 53.64L79.8 41.28C69.36 36.6 48.72 29.04 35.64 24.6L28.44 35.4ZM93.24 45.96V48.36C89.88 57.12 83.76 67.68 78.72 74.4L90.96 81.48C97.8 73.44 105 61.32 110.28 50.04L98.52 45L96 45.96H93.24Z" fill="#201B19"></path> <path d="M180.64 54.48C186.76 63.12 193.12 74.76 195.28 82.2L207.88 75.72C205.24 68.04 198.4 56.88 192.16 48.6L180.64 54.48ZM184.6 20.52V34.08H227.68V20.52H184.6ZM221.56 20.52V23.4C220.12 72.24 218.44 92.52 214.48 96.6C213.16 98.28 211.72 98.64 209.32 98.64C206.2 98.64 199.24 98.64 191.68 98.04C194.32 102.12 196.24 108.36 196.48 112.44C203.56 112.8 210.88 112.8 215.32 112.2C220.36 111.36 223.6 110.04 226.96 105.48C232 99.12 233.56 80.04 235.36 27.12C235.48 25.32 235.48 20.52 235.48 20.52H221.56ZM185.32 0C181.36 15.72 174.04 31.44 164.92 40.92C168.52 42.96 174.88 47.28 177.76 49.68C186.88 38.76 195.16 21.12 200.2 3.24L185.32 0ZM143.08 0.239997C140.32 8.64 135.16 20.16 130.84 27.36L140.56 31.32C145.24 24.72 150.88 14.04 155.8 4.68L143.08 0.239997ZM157.48 14.4C151.12 27.24 140.2 44.88 130.96 55.68L139.72 60.12C148.96 49.92 160.72 33.24 169.6 19.44L157.48 14.4ZM124.6 28.68C130.72 34.44 138.04 42.72 141.04 48.48L148.36 37.2C145.24 31.92 137.8 24.24 131.32 18.72L124.6 28.68ZM154.48 43.32C159.04 51.6 163.48 62.52 164.92 69.36L175.84 64.32C174.28 57.36 169.48 46.92 164.68 38.88L154.48 43.32ZM124.48 53.04L125.68 65.52C137.56 64.8 153.16 63.72 168.28 62.52V51.12C152.2 51.96 135.64 52.68 124.48 53.04ZM156.64 73.44C159.52 80.76 162.64 90.48 163.72 96.72L175 92.64C173.56 86.52 170.32 77.16 167.2 69.96L156.64 73.44ZM129.64 70.68C128.68 80.88 126.76 91.56 123.28 98.64C126.28 99.84 131.68 102.36 134.2 103.92C137.68 96.24 140.32 84.24 141.52 72.72L129.64 70.68ZM143.56 59.4V112.92H156.4V59.4H143.56Z" fill="#201B19"></path> <path d="M367.88 10.68L368.36 26.28C371.12 25.8 374.84 25.56 378.08 25.32C384.56 24.84 401.12 24.24 407.24 24C401.36 29.28 388.76 39.36 382.04 44.88C375.08 50.76 360.56 63 352.04 69.72L362.96 81C375.8 66.48 387.68 56.64 406.16 56.64C420.2 56.64 431 63.96 431 74.88C431 87.72 420.68 95.4 400.4 95.4C393.08 95.4 388.16 92.4 388.16 87.96C388.16 84.84 391.16 82.08 395.6 82.08C402.68 82.08 407.24 88.08 407.48 96.72L421.52 94.92C421.16 81.72 412.04 70.68 395.6 70.68C382.88 70.68 374 79.56 374 89.28C374 101.4 386.6 108.96 403.28 108.96C432.32 108.96 446.72 93.96 446.72 75C446.72 57.6 431.24 44.88 410.84 44.88C407.12 44.88 403.52 45.12 399.44 46.2C407.12 40.2 419.72 29.64 426.2 25.08C428.84 23.04 431.72 21.36 434.48 19.56L426.8 8.76C425.36 9.24 422.6 9.72 417.56 10.08C410.72 10.68 385.16 11.28 378.68 11.28C375.32 11.28 371.24 11.04 367.88 10.68Z" fill="#201B19"></path> <path d="M319.84 5.28H302.44C302.68 6.84 303.16 10.92 303.52 15.72C304 22.08 304 45.12 304 52.56L319 57.6C318.88 48 318.64 23.52 319 15.6C319.12 13.68 319.48 7.32 319.84 5.28ZM251.92 20.28L252.28 34.68C270.4 33.72 294.28 32.76 316.12 32.76C333.76 32.76 346 33.12 353.44 33.48L353.68 19.32C346.96 19.2 328.72 19.32 316.48 19.32C301.48 19.32 269.8 20.28 251.92 20.28ZM316.96 55.8L305.68 52.68C309.52 66.96 304.6 71.76 298.96 71.76C294.04 71.76 289.6 68.28 289.6 62.88C289.6 56.52 294.28 53.28 298.96 53.28C304.24 53.28 308.44 57 308.44 64.8C308.44 85.8 292.48 93.84 272.08 98.28L284.8 111C314.08 102.72 323.32 82.92 323.32 67.2C323.32 52.32 315.04 40.68 299.2 40.68C286.24 40.68 275.2 49.56 275.2 63.12C275.2 77.76 286.72 85.08 295.96 85.08C309.76 85.08 316.96 75.36 316.96 55.8Z" fill="#201B19"></path> </svg> 