<?xml version="1.0" encoding="UTF-8"?> <svg xmlns="http://www.w3.org/2000/svg" width="333" height="98" viewBox="0 0 333 98" fill="none"> <path d="M55.56 89.04L65.64 97.32C66.84 96.48 68.28 95.16 70.8 93.84C84.36 87 101.52 74.04 111.48 61.08L102.36 47.76C94.2 59.4 82.44 68.88 72.6 73.08C72.6 65.76 72.6 20.04 72.6 10.44C72.6 5.04 73.44 0.240004 73.44 0H55.68C55.68 0.240004 56.52 4.92 56.52 10.32C56.52 20.04 56.52 73.92 56.52 80.28C56.52 83.52 56.16 86.76 55.56 89.04ZM0 87.36L14.64 97.08C24.96 87.96 32.4 76.08 36.12 62.64C39.24 50.52 39.6 25.2 39.6 10.92C39.6 6 40.44 0.599999 40.44 0.120006H22.8C23.52 3.12 24 6.24001 24 11.16C24 25.56 23.88 48.36 20.4 58.56C17.16 68.88 10.68 79.92 0 87.36Z" fill="#201B19"></path> <path d="M276.56 89.04L286.64 97.32C287.84 96.48 289.28 95.16 291.8 93.84C305.36 87 322.52 74.04 332.48 61.08L323.36 47.76C315.2 59.4 303.44 68.88 293.6 73.08C293.6 65.76 293.6 20.04 293.6 10.44C293.6 5.04 294.44 0.240004 294.44 0H276.68C276.68 0.240004 277.52 4.92 277.52 10.32C277.52 20.04 277.52 73.92 277.52 80.28C277.52 83.52 277.16 86.76 276.56 89.04ZM221 87.36L235.64 97.08C245.96 87.96 253.4 76.08 257.12 62.64C260.24 50.52 260.6 25.2 260.6 10.92C260.6 6 261.44 0.599999 261.44 0.120006H243.8C244.52 3.12 245 6.24001 245 11.16C245 25.56 244.88 48.36 241.4 58.56C238.16 68.88 231.68 79.92 221 87.36Z" fill="#201B19"></path> <path d="M122.24 36.12V55.08C126.8 54.72 134.84 54.36 141.56 54.36C155.72 54.36 195.2 54.36 206.12 54.36C211.16 54.36 217.28 54.96 220.16 55.08V36.12C216.92 36.36 211.64 36.96 206 36.96C195.32 36.96 155.72 36.96 141.56 36.96C135.32 36.96 126.68 36.48 122.24 36.12Z" fill="#201B19"></path> </svg> 