<?xml version="1.0" encoding="UTF-8"?> <svg xmlns="http://www.w3.org/2000/svg" width="659" height="1050" viewBox="0 0 659 1050" fill="none"> <path fill-rule="evenodd" clip-rule="evenodd" d="M466.55 0.793267C464.625 1.17827 462.111 2.00227 460.964 2.62527C457.07 4.73927 451.58 11.8233 447.62 19.8433C445.449 24.2393 442.443 29.4483 440.939 31.4203C435.408 38.6713 419.461 43.8833 409.356 41.7413C399.628 39.6793 393.832 35.7013 395.035 31.9113C395.619 30.0723 395.245 29.8533 391.367 29.7633C388.993 29.7093 380.075 29.3293 371.55 28.9213C357.87 28.2653 355.313 27.8603 349.774 25.4703C346.323 23.9813 341.308 22.5033 338.63 22.1863C334.203 21.6623 333.611 21.8413 332.088 24.1643C330.732 26.2343 330.544 28.0353 331.099 33.6643L331.783 40.6103L326.417 43.1653C323.465 44.5713 319.925 46.6433 318.55 47.7703L316.05 49.8193L323.718 49.8413C331.463 49.8633 334.894 50.4983 334.112 51.7633C333.877 52.1433 334.821 57.1593 336.211 62.9093L338.737 73.3633L333.95 77.5873C331.318 79.9103 329.376 82.0223 329.634 82.2813C329.893 82.5393 332.064 82.3103 334.459 81.7723C336.854 81.2343 338.919 80.9223 339.048 81.0783C339.994 82.2273 346.816 110.274 348.063 118.142C350.797 135.387 350.291 164.255 347.031 177.113C346.155 180.564 347.828 180.742 349.368 177.362C350.854 174.102 354.023 161.341 355.701 151.863C357.076 144.099 357.42 112.696 356.19 107.295C354.779 101.098 357.774 108.117 362.55 122.2C369.65 143.133 373.55 163.889 373.55 180.742C373.55 187.582 374.196 189.863 376.131 189.863C379.808 189.863 382.483 176.228 382.661 156.572L382.771 144.363L384.11 149.863C384.846 152.888 385.921 160.05 386.499 165.779C387.076 171.508 387.781 176.428 388.066 176.712C390.583 179.23 393.439 165.934 394.566 146.449C395.104 137.147 395.69 129.39 395.868 129.211C396.047 129.033 398.597 131.793 401.535 135.345C406.844 141.763 412.401 146.14 424.234 153.225C430.409 156.922 434.263 161.693 437.475 169.613C439.274 174.051 440.303 173.693 441.104 168.351C441.86 163.311 442.937 162.109 445.094 163.899C447.341 165.765 446.884 167.202 442.438 172.253C438.256 177.004 431.843 180.86 428.112 180.867C424.907 180.873 419.67 184.537 418.989 187.25C418.109 190.757 420.31 200.288 422.703 203.33C423.823 204.754 426.487 206.811 428.624 207.901C430.761 208.991 433.237 211.29 434.127 213.011C435.74 216.131 435.734 216.149 431.897 219.971C428.705 223.15 426.836 224.056 420.918 225.294C416.638 226.189 409.841 228.812 403.918 231.854C392.889 237.518 387.265 238.863 374.605 238.863C363.678 238.863 362.016 239.846 362.819 245.832C364.517 258.492 384.884 265.937 404.217 260.964C408.708 259.808 413.471 258.863 414.8 258.863C416.129 258.863 420.578 260.634 424.688 262.799C428.797 264.964 434.23 267.257 436.761 267.895C440.861 268.927 441.432 269.418 441.991 272.398C443.112 278.375 450.306 282.429 455.948 280.264C456.807 279.934 458.47 278.111 459.644 276.211C462.775 271.145 463.096 272.852 460.117 278.73C456.52 285.83 456.66 291.127 460.55 295.017C462.931 297.397 464.268 297.954 467.03 297.716C468.945 297.551 470.52 297.742 470.531 298.14C470.541 298.538 470.55 303.555 470.55 309.29V319.716L465.012 322.252C460.111 324.495 459.205 325.396 457.132 330.075C445.518 356.3 442.044 363.649 440.41 365.446C438.333 367.729 426.877 371.946 416.307 374.318C408.169 376.144 397.061 381.566 393.01 385.689C390.132 388.617 389.673 388.729 376.505 389.694C364.58 390.568 361.894 391.116 354.06 394.275C349.166 396.248 344.61 397.863 343.935 397.863C343.001 397.863 342.799 393.876 343.086 381.113C343.765 350.861 341.246 334.27 330.929 301.039C327.97 291.511 325.55 283.523 325.55 283.289C325.55 281.4 309.762 284.231 290.955 289.494C274.272 294.162 273.399 293.985 270.783 285.415C267.334 274.114 259.02 260.594 248.05 248.444C242.55 242.353 236.394 235.729 234.37 233.723C230.879 230.263 216.367 220.325 206.496 214.634C201.741 211.892 175.694 201.307 167.05 198.603C160.33 196.501 140.681 194.45 134.396 195.195C128.4 195.905 126.382 197.322 110.55 211.938C104.225 217.777 98.0046 223.108 96.7266 223.783C95.4286 224.469 89.0276 225.209 82.2266 225.459C66.8476 226.024 61.8796 228.096 54.7406 236.918C50.4006 242.282 49.7336 243.847 47.2116 254.583C45.6896 261.062 43.9916 269.513 43.4396 273.363C42.3376 281.042 43.3036 323.863 44.5786 323.863C46.1136 323.863 46.5496 320.412 46.5496 308.281C46.5496 294.899 47.8986 291.634 48.8916 302.613C49.8236 312.924 53.6116 330.515 61.1896 359.722C62.5246 364.869 63.8706 370.944 64.1806 373.222C64.8726 378.31 64.3046 378.789 46.5496 388.111C33.2856 395.075 32.0136 395.489 21.0496 396.419C9.24959 397.42 1.3096 398.703 0.227595 399.785C-0.480405 400.493 0.450587 402.31 3.20059 405.589C5.40359 408.215 10.3746 415.088 14.2476 420.863C18.1216 426.638 22.3056 432.263 23.5456 433.363C24.7856 434.463 27.9866 438.594 30.6586 442.544C33.3306 446.494 35.9456 449.99 36.4696 450.313C36.9926 450.637 40.9236 455.506 45.2036 461.132C64.0496 485.907 78.0396 501.792 96.0636 518.883C109.321 531.453 114.552 537.454 114.534 540.07C114.525 541.331 112.46 546.863 109.945 552.363C103.779 565.847 98.7026 578.08 90.8586 598.363C83.2806 617.955 80.0936 627.827 75.0396 647.363L71.4176 661.363L71.9296 704.863C72.4716 750.975 71.7816 764.69 67.5296 792.363C66.4306 799.513 65.0886 815.038 64.5476 826.863C63.0806 858.885 61.6696 880.824 60.1416 895.365C58.8906 907.268 58.1776 910.014 51.7016 927.865C45.6676 944.499 35.4686 976.008 28.3996 999.863C27.3396 1003.44 24.9076 1015.14 22.9936 1025.86C21.0806 1036.59 19.2836 1046.4 19.0006 1047.67L18.4856 1049.97L55.7676 1049.81C76.3776 1049.72 93.8306 1049.24 94.7966 1048.72C97.2396 1047.43 100.55 1040.56 100.55 1036.79C100.55 1033.99 100.808 1033.7 102.8 1034.27C114.677 1037.62 119.492 1037.08 126.696 1031.58C132.29 1027.32 135.916 1019.75 138.601 1006.76C141.623 992.118 140.973 983.391 136.093 973.116C132.757 966.091 127.366 958.314 123.573 955.055C122.735 954.335 120.137 952.851 117.8 951.758C113.689 949.834 112.864 948.882 114.174 947.573C115.43 946.316 122.878 951.147 128.423 956.814C138.371 966.981 144.52 982.662 144.52 997.863C144.52 1015.74 137.294 1031.13 126.05 1037.2C122.763 1038.97 120.369 1039.35 112.622 1039.36C103.355 1039.36 103.182 1039.41 102.51 1041.92C102.133 1043.33 101.322 1045.42 100.706 1046.57C99.7986 1048.27 99.8966 1048.78 101.226 1049.29C103.101 1050.01 444.643 1050.1 445.362 1049.38C446.167 1048.58 443.459 1037.46 441.958 1035.41C440.736 1033.74 439.209 1033.44 431.164 1033.34C423.114 1033.23 420.999 1032.83 416.163 1030.46C400.503 1022.8 390.288 997.774 392.576 972.673C393.522 962.292 396.369 956.177 403.251 949.74C410.307 943.139 421.746 939.886 429.381 942.309C431.057 942.841 431.619 942.171 433.011 937.98C435.234 931.289 441.256 924.666 447.6 921.937C457.381 917.729 475.49 918.561 476.39 923.259C476.661 924.677 476.336 924.995 475.097 924.519C471.141 923.001 459.642 921.8 455.05 922.425C443.685 923.971 437.792 929.245 435.608 939.826C434.987 942.83 433.985 945.594 433.38 945.968C432.775 946.342 430.78 946.021 428.947 945.256C421.896 942.309 412.512 944.861 405.961 951.506C395.239 962.383 392.271 976.528 396.688 995.707C398.39 1003.1 399.827 1006.55 403.564 1012.21C411.845 1024.75 419.085 1029.57 431.214 1030.6C439.238 1031.28 441.771 1030.56 446.555 1026.24C455.109 1018.51 455.554 1004.87 447.513 996.826C443.556 992.869 438.79 991.202 434.036 992.11C430.953 992.7 430.723 990.69 433.55 987.863C435.817 985.596 437.452 985.43 442.827 986.923C458.721 991.337 463.066 1018.3 449.766 1029.98C446.948 1032.45 446.26 1033.76 446.361 1036.45C446.459 1039.07 449.413 1046.76 451.046 1048.65C451.183 1048.81 461.132 1048.94 473.154 1048.95C491.71 1048.95 495.183 1048.72 496.142 1047.41C497.589 1045.43 498.065 1045.46 501.34 1047.78C503.225 1049.12 505.039 1049.54 507.3 1049.17L510.55 1048.64V1042C510.55 1036.44 509.509 1032.33 504.182 1016.86C498.284 999.728 492.374 984.098 486.222 969.363C484.844 966.063 483.422 960.663 483.061 957.363C481.607 944.07 478.409 920.926 477.05 913.863C476.256 909.738 475.1 902.313 474.48 897.363C473.861 892.413 472.048 881.757 470.452 873.683C468.856 865.608 467.546 857.508 467.542 855.683C467.528 849.821 461.815 821.397 458.689 811.638C453.316 794.865 449.55 778.32 449.55 771.489C449.55 765.876 449.279 764.912 447.55 764.363C445.171 763.608 445.094 762.15 447.05 754.863C449.377 746.197 450.693 738.016 450.693 732.212V726.863H455.44C467.442 726.863 477.053 732.238 493.242 748.003C504.268 758.739 511.969 763.83 517.222 763.853C520.042 763.866 525.003 753.613 530.964 735.449C533.326 728.252 537.998 714.713 541.346 705.363C547.326 688.658 554.208 665.161 557.161 651.363C559.435 640.737 560.714 616.181 561.067 576.363C561.314 548.429 561.744 538.571 562.982 532.363C564.445 525.034 567.305 506.811 571.222 479.863C573.334 465.333 574.034 439.643 572.593 429.552C569.232 406.023 553.824 357.163 544.355 340.009C540.543 333.105 532.599 322.297 530.125 320.651C527.009 318.578 527.974 276.721 531.328 268.465C533.649 262.753 533.525 249.567 531.108 244.863C530.118 242.938 528.576 240.527 527.679 239.506C526.74 238.436 526.045 235.894 526.038 233.506C526.032 231.227 525.682 228.238 525.261 226.863C524.84 225.488 525.892 227.005 527.6 230.235C531.308 237.246 533.107 236.661 531.111 229.093C530.352 226.216 529.903 223.863 530.113 223.863C530.323 223.863 531.462 226.113 532.645 228.863C533.828 231.613 535.174 233.863 535.636 233.863C536.097 233.863 539.013 232.913 542.115 231.753C548.118 229.507 548.323 229.01 545.987 222.363C545.6 221.263 546.733 222.275 548.504 224.613C550.57 227.341 552.508 228.863 553.915 228.863C556.071 228.863 569.798 222.732 572.31 220.647C573.349 219.785 573.304 219.129 572.073 217.222C567.128 209.561 567.141 209.383 572.291 214.113C575.137 216.725 577.977 218.863 578.604 218.863C579.232 218.863 583.325 217 587.701 214.724C593.092 211.919 595.479 210.146 595.104 209.224C593.138 204.391 593.117 204.561 595.502 205.837C597.47 206.891 598.223 206.668 601.404 204.094C603.409 202.47 605.05 200.639 605.05 200.024C605.05 199.409 601.296 195.937 596.708 192.309C592.12 188.681 588.604 185.476 588.894 185.186C589.183 184.896 591.587 185.348 594.235 186.191C596.883 187.033 601.3 188.184 604.05 188.748C608.309 189.621 609.235 189.529 610.3 188.127C610.987 187.222 611.55 186.145 611.55 185.736C611.55 185.326 606.488 181.944 600.3 178.221C594.113 174.498 583.425 167.806 576.55 163.35C569.675 158.893 561.125 153.494 557.55 151.35C546.095 144.482 530.277 132.621 522.252 124.883C515.349 118.226 514.303 116.732 513.132 111.863C512.404 108.838 511.452 105.508 511.015 104.462C510.275 102.691 510.573 102.608 515.385 103.247C518.944 103.719 520.55 103.583 520.55 102.81C520.55 102.062 521.833 101.904 524.392 102.336C526.505 102.693 532.417 103.558 537.529 104.257C545.973 105.412 546.864 105.378 547.255 103.882C547.65 102.374 548.427 102.404 556.589 104.245C565.296 106.209 568.111 106.024 565.733 103.646C563.177 101.09 564.951 101.268 575.104 104.586C585.695 108.048 589.024 108.261 587.929 105.408C587.41 104.057 587.792 104.066 591.196 105.487C593.316 106.372 598.425 108.778 602.55 110.833C606.675 112.889 611.698 114.827 613.713 115.14C616.987 115.649 642.499 128.59 654.754 135.959C658.362 138.129 659.288 138.389 658.729 137.075C654.346 126.778 644.832 113.515 629.05 95.7033C623.55 89.4963 619.05 83.6723 619.05 82.7623C619.05 80.8193 597.744 61.8723 587.914 55.0743C586.268 53.9363 586.46 53.8403 589.55 54.2593C591.475 54.5203 594.512 55.0443 596.3 55.4243C598.324 55.8533 599.55 55.7213 599.55 55.0743C599.55 52.9853 571.43 33.2383 560.242 27.4713C551.535 22.9823 548.916 21.1813 549.248 19.9103C549.577 18.6503 547.746 17.3323 541.773 14.5293C535.001 11.3513 531.425 10.4613 516.955 8.35327C496.191 5.32727 495.259 5.08527 495.841 2.85827C496.225 1.38927 495.294 1.03427 489.672 0.503267C481.511 -0.267733 471.21 -0.138733 466.55 0.793267ZM471.8 8.57927C473.313 8.80827 475.787 8.80827 477.3 8.57927C478.813 8.35027 477.575 8.16327 474.55 8.16327C471.525 8.16327 470.287 8.35027 471.8 8.57927ZM510.363 18.5463C511.084 18.8353 511.947 18.7993 512.279 18.4673C512.611 18.1353 512.021 17.8993 510.967 17.9423C509.802 17.9903 509.565 18.2273 510.363 18.5463ZM519.05 19.9203C524.116 20.9683 528.209 20.9213 524.05 19.8633C522.4 19.4433 519.7 19.0983 518.05 19.0963C515.528 19.0943 515.687 19.2253 519.05 19.9203ZM354.05 32.8193C349.564 34.9623 344.489 38.8073 346.1 38.8413C346.678 38.8533 347.578 38.4353 348.101 37.9123C348.625 37.3883 351.527 35.5963 354.551 33.9303C360.646 30.5713 360.31 29.8273 354.05 32.8193ZM553.638 37.2523C554.309 37.8713 579.853 50.8633 580.399 50.8633C582.021 50.8633 575.554 45.6133 571.673 43.7793C567.274 41.7003 552.769 36.4513 553.638 37.2523ZM332.915 42.3653C327.176 44.1753 324.389 45.7933 325.081 46.9133C325.404 47.4363 326.429 47.8313 327.359 47.7933C328.806 47.7333 328.78 47.6163 327.179 46.9873C324.589 45.9693 331.974 43.7823 340.3 43.1013C343.738 42.8193 346.55 42.2013 346.55 41.7263C346.55 40.4483 337.673 40.8643 332.915 42.3653ZM335.615 44.9983C328.927 46.1083 327.941 46.8573 333.133 46.8823C336.943 46.9013 353.523 49.1583 358.55 50.3423C359.925 50.6663 357.937 49.3413 354.132 47.3973C346.945 43.7253 344.892 43.4603 335.615 44.9983ZM344.509 49.9513C352.295 51.1613 359.55 54.1963 359.55 56.2433C359.55 57.5413 356.447 60.5753 342.05 73.3583L339.05 76.0213L343.419 73.6923C347.536 71.4983 364.55 56.4583 364.55 55.0143C364.55 53.5763 351.683 49.8943 345.05 49.4333L338.05 48.9473L344.509 49.9513ZM335.55 52.2953C335.55 52.5323 337.012 53.7373 338.8 54.9723L342.05 57.2183L339.626 54.5413C337.464 52.1533 335.55 51.0983 335.55 52.2953ZM356.3 65.3883C352.587 68.9403 347.075 73.2433 344.05 74.9503C337.454 78.6723 335.864 80.5893 341.209 78.3743C349.666 74.8693 359.004 67.0283 362.954 60.1133C364.154 58.0133 363.304 58.6863 356.3 65.3883ZM578.55 63.6443C578.55 65.1893 606.213 80.5343 607.207 79.5403C607.739 79.0083 598.876 72.8633 597.576 72.8633C597.096 72.8633 594.679 71.3183 592.204 69.4293C585.023 63.9473 578.55 61.2053 578.55 63.6443ZM341.044 65.8693C340.046 66.9733 339.465 68.1123 339.754 68.4003C340.043 68.6893 341.025 67.7863 341.938 66.3943C343.931 63.3533 343.533 63.1193 341.044 65.8693ZM352.681 80.0393C353.434 81.5113 356.3 84.4113 359.05 86.4833C367.606 92.9323 377.463 102.013 378.106 104.04C378.444 105.106 379.826 106.398 381.177 106.911C382.528 107.425 384.402 109.248 385.341 110.963C386.281 112.679 387.838 115.045 388.802 116.223C390.449 118.235 390.514 118.244 389.893 116.363C388.63 112.545 380.137 100.656 378.099 99.8553C376.972 99.4123 374.25 97.3753 372.05 95.3303C369.85 93.2843 366.025 90.0053 363.55 88.0423C361.075 86.0803 357.309 82.8743 355.181 80.9193C351.612 77.6383 351.418 77.5703 352.681 80.0393ZM464.55 81.8583C464.55 82.8073 475.492 86.2553 476.213 85.5333C476.46 85.2863 473.937 84.1643 470.606 83.0393C467.275 81.9143 464.55 81.3833 464.55 81.8583ZM505.061 87.8453C504.791 88.2823 505.892 88.8333 507.507 89.0703C509.123 89.3073 510.25 89.1873 510.013 88.8033C509.326 87.6923 505.601 86.9713 505.061 87.8453ZM474.05 93.8633C473.71 94.4133 474.107 94.8633 474.932 94.8633C475.757 94.8633 476.71 94.4133 477.05 93.8633C477.39 93.3133 476.993 92.8633 476.168 92.8633C475.343 92.8633 474.39 93.3133 474.05 93.8633ZM379.109 96.3133C379.992 97.6603 382.147 99.6083 383.898 100.641C387.62 102.837 393.55 104.222 393.55 102.895C393.55 101.33 389.238 98.8633 386.502 98.8633C385.018 98.8633 382.889 97.7883 381.55 96.3633C378.54 93.1593 377.022 93.1283 379.109 96.3133ZM588.785 95.5713C585.981 96.1103 586.847 97.8633 589.918 97.8633C591.155 97.8633 594.841 99.4963 598.109 101.493C607.048 106.954 611.106 109.289 610.55 108.65C608.575 106.383 593.133 94.8903 592.208 94.9993C591.571 95.0743 590.031 95.3313 588.785 95.5713ZM389.05 96.8633C389.39 97.4133 390.118 97.8633 390.668 97.8633C391.218 97.8633 391.39 97.4133 391.05 96.8633C390.71 96.3133 389.982 95.8633 389.432 95.8633C388.882 95.8633 388.71 96.3133 389.05 96.8633ZM444.282 123.781C443.674 126.105 448.522 133.036 454.589 138.517C460.897 144.216 468.616 150.13 469.107 149.64C469.771 148.975 459.869 139.958 454.274 136.134C451.676 134.357 449.55 132.392 449.55 131.765C449.55 131.138 451.012 131.723 452.8 133.065C459.044 137.752 459.003 137.145 452.611 130.279C449.069 126.475 445.867 122.996 445.495 122.547C445.122 122.098 444.577 122.653 444.282 123.781ZM379.138 125.863C379.715 129.623 381.611 135.135 382.144 134.603C382.322 134.424 381.598 131.597 380.534 128.321C379.349 124.669 378.808 123.718 379.138 125.863ZM508.782 134.863C508.782 136.788 508.988 137.576 509.239 136.613C509.491 135.65 509.491 134.076 509.239 133.113C508.988 132.15 508.782 132.938 508.782 134.863ZM453.947 141.757C457.463 145.358 457.61 145.733 455.9 146.727C454.776 147.38 454.573 147.814 455.383 147.833C456.117 147.849 456.533 148.426 456.308 149.113C456.069 149.844 452.398 150.86 447.474 151.559L439.05 152.755L448.05 152.264C453 151.994 458.571 151.798 460.43 151.828C463.29 151.874 463.623 151.656 462.594 150.416C461.925 149.61 461.624 148.552 461.926 148.064C462.467 147.188 452.401 137.863 450.914 137.863C450.49 137.863 451.855 139.615 453.947 141.757ZM507.708 140.863C507.708 142.238 507.935 142.801 508.212 142.113C508.49 141.426 508.49 140.301 508.212 139.613C507.935 138.926 507.708 139.488 507.708 140.863ZM506.629 144.486C506.519 146.048 502.853 153.847 500.811 156.863L499.118 159.363L501.444 157.363C505.518 153.86 509.924 147.714 508.858 147.02C508.303 146.658 507.593 145.688 507.279 144.863C506.965 144.038 506.672 143.868 506.629 144.486ZM424.55 147.863C425.375 148.396 426.5 148.832 427.05 148.832C427.6 148.832 427.375 148.396 426.55 147.863C425.725 147.33 424.6 146.894 424.05 146.894C423.5 146.894 423.725 147.33 424.55 147.863ZM429.55 149.863C430.375 150.396 431.5 150.832 432.05 150.832C432.6 150.832 432.375 150.396 431.55 149.863C430.725 149.33 429.6 148.894 429.05 148.894C428.5 148.894 428.725 149.33 429.55 149.863ZM466.173 151.226C468.072 153.831 469.55 154.598 469.55 152.978C469.55 152.491 468.368 151.319 466.923 150.372L464.297 148.651L466.173 151.226ZM434.819 151.556C435.792 151.81 437.142 151.793 437.819 151.519C438.496 151.245 437.7 151.038 436.05 151.058C434.4 151.078 433.846 151.302 434.819 151.556ZM462.783 157.571C461.362 157.844 459.984 159.281 459.089 161.424C458.304 163.303 456.265 166.871 454.558 169.352C452.851 171.833 451.687 173.863 451.971 173.863C452.255 173.863 455.806 171.697 459.862 169.05C463.917 166.402 468.768 163.624 470.643 162.877C475.186 161.065 475.128 161.16 473.056 158.869C471.292 156.921 468.201 156.53 462.783 157.571ZM471.55 167.196C471.55 169.213 471.989 170.863 472.525 170.863C473.085 170.863 473.237 169.48 472.881 167.613C472.014 163.056 471.55 162.911 471.55 167.196ZM473.62 166.054C473.582 167.534 474 169.023 474.55 169.363C475.744 170.101 475.744 168.141 474.55 165.363C473.783 163.577 473.683 163.651 473.62 166.054ZM468.55 168.804C468.55 170.486 469 171.863 469.55 171.863C470.1 171.863 470.55 170.765 470.55 169.422C470.55 168.079 470.1 166.703 469.55 166.363C468.967 166.002 468.55 167.019 468.55 168.804ZM504.55 166.79C504.55 167.299 505.9 168.39 507.55 169.213C510.789 170.829 511.251 170.37 509.158 167.613C507.763 165.775 504.55 165.201 504.55 166.79ZM465.62 168.613C465.659 169.576 466.072 171.263 466.539 172.363C467.198 173.918 467.369 173.529 467.307 170.613C467.262 168.551 466.849 166.863 466.388 166.863C465.927 166.863 465.582 167.65 465.62 168.613ZM448.038 168.844C448.327 169.31 448.02 169.873 447.357 170.094C446.609 170.343 446.816 170.751 447.902 171.168C449.09 171.624 449.423 171.467 448.938 170.682C448.466 169.919 448.765 169.732 449.813 170.134C450.688 170.469 451.885 170.164 452.473 169.456C453.304 168.455 452.87 168.148 450.528 168.081C448.87 168.034 447.75 168.377 448.038 168.844ZM462.565 170.613C462.583 172.612 464.208 175.541 464.907 174.834C465.164 174.575 465.136 173.125 464.845 171.613C464.264 168.586 462.541 167.83 462.565 170.613ZM485.55 169.879C484.725 170.42 482.475 170.781 480.55 170.682C478.055 170.554 473.67 172.171 465.277 176.314C458.803 179.511 453.269 182.508 452.982 182.974C452.694 183.439 453.441 185.15 454.643 186.774C456.217 188.904 456.663 190.548 456.239 192.667C455.71 195.311 456.022 195.77 459.351 197.252C464.714 199.64 476.092 201.826 483.266 201.846C491.893 201.87 495.395 203.806 499.929 211.059C501.993 214.362 503.876 216.87 504.114 216.633C504.929 215.817 502.401 204.615 499.343 195.496C495.855 185.095 489.07 169.528 487.86 169.149C487.415 169.01 486.375 169.338 485.55 169.879ZM460.55 172.696C460.55 174.438 461.009 175.863 461.569 175.863C462.174 175.863 462.32 174.746 461.928 173.113C460.987 169.187 460.55 169.055 460.55 172.696ZM446.05 172.863C448.799 174.044 450.378 174.044 448.55 172.863C447.725 172.33 446.375 171.918 445.55 171.949C444.561 171.985 444.731 172.296 446.05 172.863ZM457.55 174.363C457.55 175.738 458 176.863 458.55 176.863C459.1 176.863 459.55 175.738 459.55 174.363C459.55 172.988 459.1 171.863 458.55 171.863C458 171.863 457.55 172.988 457.55 174.363ZM443.55 174.863C445.52 176.136 447.837 176.136 447.05 174.863C446.71 174.313 445.446 173.87 444.241 173.878C442.46 173.891 442.331 174.075 443.55 174.863ZM454.943 175.445C455.277 176.315 455.55 177.466 455.55 178.004C455.55 178.541 455.958 178.729 456.456 178.421C457.605 177.711 456.651 173.863 455.326 173.863C454.782 173.863 454.609 174.575 454.943 175.445ZM452.55 177.245C452.55 178.07 453 179.023 453.55 179.363C454.1 179.703 454.55 179.306 454.55 178.481C454.55 177.656 454.1 176.703 453.55 176.363C453 176.023 452.55 176.42 452.55 177.245ZM450.55 178.863C450.55 179.963 450.958 180.863 451.456 180.863C451.955 180.863 452.127 179.963 451.84 178.863C451.552 177.763 451.144 176.863 450.933 176.863C450.723 176.863 450.55 177.763 450.55 178.863ZM438.025 178.903C437.604 179.585 438.358 179.709 440.216 179.262C444.048 178.342 444.41 177.863 441.276 177.863C439.841 177.863 438.379 178.331 438.025 178.903ZM447.764 181.058C448.565 182.266 449.79 183.443 450.485 183.675C451.307 183.949 451.15 183.182 450.034 181.479C449.091 180.04 447.867 178.863 447.313 178.863C446.759 178.863 446.962 179.851 447.764 181.058ZM443.565 181.113C443.584 182.663 444.433 183.842 447.237 186.211C451.05 189.433 451.748 186.995 448.067 183.314C444.329 179.575 443.542 179.19 443.565 181.113ZM431.55 182.363C430.856 183.2 430.747 183.863 431.305 183.863C431.855 183.863 432.865 183.188 433.55 182.363C434.244 181.526 434.353 180.863 433.795 180.863C433.245 180.863 432.235 181.538 431.55 182.363ZM439.779 182.051C440.397 183.905 442.55 184.212 442.55 182.446C442.55 181.576 441.838 180.863 440.967 180.863C440.096 180.863 439.561 181.397 439.779 182.051ZM437.188 183.363C437.505 184.188 438.152 184.863 438.626 184.863C439.099 184.863 439.228 184.188 438.912 183.363C438.595 182.538 437.948 181.863 437.474 181.863C437.001 181.863 436.872 182.538 437.188 183.363ZM434.189 183.557C433.063 184.683 433.504 185.863 435.05 185.863C435.875 185.863 436.55 185.44 436.55 184.922C436.55 183.661 434.988 182.758 434.189 183.557ZM549.657 183.457C550.624 185.798 565.046 202.876 565.332 202.018C565.953 200.155 559.57 191.308 554.449 186.934C551.598 184.499 549.441 182.934 549.657 183.457ZM424.822 185.109C422.066 186.395 421.1 189.155 422.495 191.759C423.075 192.844 423.55 194.886 423.55 196.297C423.55 197.785 424.117 198.863 424.9 198.863C426.986 198.863 434.702 204.808 434.029 205.897C433.701 206.428 434.584 206.863 435.991 206.863C437.398 206.863 438.55 206.413 438.55 205.863C438.55 205.313 438.213 204.856 437.8 204.848C436.541 204.823 428.972 197.941 430.159 197.901C430.769 197.88 433.313 199.663 435.813 201.863C441.377 206.761 442.768 206.941 442.015 202.663C441.466 199.549 441.503 199.511 443.392 201.22C445.666 203.278 445.216 206.283 442.33 208.304C440.459 209.615 440.653 209.915 446.205 214.273C449.42 216.797 452.318 218.862 452.645 218.862C454.054 218.864 456.79 214.734 457.518 211.505C458.171 208.608 457.882 207.4 455.849 204.543C454.496 202.642 453.141 199.235 452.838 196.972C452.416 193.828 451.356 192.017 448.348 189.3C443.789 185.181 439.889 184.866 440.294 188.65C440.658 192.046 437.873 192.534 434.74 189.622C429.939 185.16 427.293 183.956 424.822 185.109ZM451.55 188.922C451.55 189.504 452 189.703 452.55 189.363C453.1 189.023 453.55 188.547 453.55 188.304C453.55 188.061 453.1 187.863 452.55 187.863C452 187.863 451.55 188.34 451.55 188.922ZM453.55 190.863C453.55 191.413 454.027 191.863 454.609 191.863C455.191 191.863 455.39 191.413 455.05 190.863C454.71 190.313 454.234 189.863 453.991 189.863C453.748 189.863 453.55 190.313 453.55 190.863ZM434.55 198.647C434.55 199.51 439.854 202.866 441.204 202.858C442.216 202.852 436.381 197.951 435.3 197.899C434.887 197.879 434.55 198.216 434.55 198.647ZM455.55 199.565C455.55 201.215 459.828 206.674 462.054 207.865C464.589 209.222 470.803 208.561 475.8 206.404C476.794 205.975 477.55 206.075 477.55 206.635C477.55 207.922 473.158 209.701 467.686 210.631C463.45 211.35 463.27 211.534 461.576 216.867C460.616 219.89 457.742 226.605 455.19 231.79C452.638 236.976 450.55 241.953 450.55 242.851C450.55 243.75 449.206 249.857 447.563 256.424C444.342 269.298 443.822 273.216 445.999 268.213C447.826 264.014 450.12 262.817 453.85 264.117C456.729 265.121 456.787 265.276 456.248 270.505C455.943 273.452 455.834 275.863 456.005 275.863C457.572 275.863 466.55 252.3 466.55 248.188C466.55 246.909 467 245.863 467.55 245.863C468.1 245.863 468.55 246.483 468.55 247.241C468.55 249.336 471.306 251.172 473.287 250.398C474.833 249.794 474.686 249.417 472.089 247.33C470.461 246.022 469.379 244.7 469.686 244.393C469.993 244.086 471.415 244.756 472.845 245.881L475.446 247.926L476.625 245.724C477.608 243.887 477.502 243.301 475.985 242.192C473.637 240.475 472.489 240.517 469.773 242.42C466.445 244.751 467.02 243.586 472.8 236.296C476.093 232.143 480.577 228.033 484.831 225.269C492.592 220.226 495.579 219.53 490.8 223.878C487.049 227.291 486.996 227.436 489.195 228.28C490.119 228.635 491.651 228.176 492.695 227.232C496.078 224.17 494.616 227.507 490.55 232.126C488.35 234.625 486.55 237.115 486.55 237.659C486.55 238.204 485.911 238.894 485.129 239.194C482.313 240.275 475.538 250.641 472.142 259.066C470.235 263.794 467.072 270.847 465.113 274.738C460.945 283.014 460.699 284.459 463.8 282.455C465.734 281.205 466.507 281.195 469.3 282.383C472.975 283.947 473.128 284.544 471.101 289.395C469.437 293.377 470.296 293.871 473.223 290.613C476.735 286.703 485.55 270.234 485.55 267.582C485.55 265.671 488.142 262.503 495.957 254.859C506.782 244.273 510.55 241.121 510.55 242.651C510.55 243.147 509.65 244.368 508.55 245.363C507.45 246.358 506.55 247.623 506.55 248.173C506.55 249.603 510.401 245.923 512.341 242.64C513.984 239.859 515.55 238.99 515.55 240.859C515.55 241.407 512.738 244.933 509.3 248.695C504.992 253.41 502.471 257.217 501.186 260.949C499.62 265.497 494.411 277.505 492.869 280.121C492.624 280.537 493.519 280.378 494.86 279.768C496.674 278.941 497.864 278.961 499.518 279.846C501.701 281.014 501.77 281.937 499.994 286.277C499.426 287.663 499.547 287.983 500.433 287.435C501.106 287.019 502.693 284.358 503.959 281.521C505.225 278.684 507.285 275.463 508.535 274.363C509.786 273.263 511.845 270.733 513.111 268.742C515.155 265.525 527.595 255.984 527.521 257.689C527.465 258.961 521.578 264.863 520.364 264.863C519.42 264.863 519.417 265.13 520.35 266.063C522.293 268.006 521.722 269.328 519.721 267.518C518.715 266.608 517.59 265.863 517.221 265.863C515.815 265.863 516.635 268.63 518.556 270.369C519.66 271.367 520.333 272.414 520.052 272.694C519.772 272.975 518.419 272.149 517.046 270.859C513.77 267.781 513.777 270.156 517.057 274.053C518.435 275.692 519.322 277.423 519.026 277.901C518.731 278.379 515.784 279.077 512.477 279.451C506.961 280.075 506.356 280.388 505.145 283.247C503.444 287.265 500.675 289.688 496.928 290.437C493.206 291.182 491.57 289.429 490.828 283.902C490.301 279.973 490.182 279.863 486.418 279.863C481.877 279.863 481.548 280.93 485.203 283.804C486.662 284.952 487.56 286.186 487.199 286.548C486.838 286.909 485.421 286.151 484.05 284.863C482.679 283.575 481.275 282.805 480.928 283.151C480.582 283.498 481.705 284.964 483.424 286.411C487.722 290.027 487.383 291.6 483.023 288.274C477.217 283.846 477.623 286.656 483.55 291.917C490.14 297.767 489.198 298.566 482.435 292.863C477.2 288.449 476.55 288.171 476.55 290.346C476.55 291.162 479.494 294.143 483.092 296.971C486.69 299.798 489.421 302.325 489.161 302.585C488.901 302.845 485.507 300.52 481.619 297.418C475.263 292.346 474.555 292.009 474.601 294.07C474.637 295.682 476.716 297.996 481.601 301.863C485.422 304.888 488.549 307.77 488.549 308.268C488.55 308.766 487.762 308.514 486.8 307.709C474.999 297.835 474.55 297.555 474.55 300.095C474.55 301.865 476.296 303.931 481.055 307.791C484.632 310.694 487.877 313.585 488.266 314.216C489.344 315.966 483.497 311.924 479.55 308.191C477.625 306.37 475.713 304.876 475.3 304.872C473.082 304.846 475.258 308.059 481.282 313.706C487.757 319.775 487.014 319.694 479.149 313.474C473.229 308.792 473.556 311.596 479.55 316.917C482.575 319.602 484.6 321.812 484.05 321.827C483.5 321.842 481.612 320.506 479.854 318.858C478.097 317.211 476.184 315.863 475.604 315.863C473.456 315.863 474.668 318.201 478.8 322.028C481.137 324.193 482.113 325.516 480.968 324.968C479.823 324.42 478.305 323.273 477.595 322.418C475.982 320.474 474.55 320.414 474.55 322.29C474.55 323.075 476.228 325.1 478.278 326.79C482.313 330.116 481.661 331.078 477.55 327.863C476.175 326.787 474.713 325.897 474.3 325.885C472.69 325.838 473.673 328.172 476.05 330.042C477.425 331.123 478.55 332.504 478.55 333.11C478.55 333.716 477.483 333.209 476.178 331.983C473.977 329.915 473.756 329.883 473.121 331.538C472.631 332.815 473.376 334.142 475.743 336.209C478.505 338.621 478.602 338.83 476.335 337.48C474.842 336.591 473.38 335.863 473.085 335.863C471.825 335.863 472.716 338.411 474.724 340.549C475.92 341.821 476.397 342.863 475.783 342.863C475.17 342.863 474.39 342.413 474.05 341.863C473.71 341.313 472.955 340.863 472.372 340.863C471.789 340.863 472.574 342.551 474.116 344.613C476.252 347.469 476.397 347.908 474.729 346.452C471.662 343.778 470.706 345.335 473.554 348.367C475.811 350.77 475.128 352.041 472.82 349.733C470.568 347.481 470.05 356.571 470.05 398.363C470.05 441.689 470.245 444.798 475.169 479.863C478.098 500.719 481.412 519.521 483.148 525.129C483.832 527.339 493.607 533.663 499.378 535.629C502.591 536.724 504.314 536.836 506.018 536.059C509.824 534.325 521.431 517.928 527.924 505.113C529.387 502.225 531.035 499.863 531.587 499.863C533.44 499.863 521.776 520.228 513.534 531.385C508.246 538.542 505.725 539.561 498.712 537.372C495.776 536.455 493.265 535.853 493.131 536.034C491.272 538.549 487.927 545.863 488.637 545.863C489.157 545.863 490.333 544.288 491.251 542.363C492.913 538.879 495.065 537.357 493.849 540.527C493.419 541.646 493.593 541.954 494.38 541.468C496.116 540.395 495.852 541.322 492.562 547.84C490.918 551.096 489.939 553.986 490.386 554.262C490.834 554.538 492.241 552.649 493.514 550.064C494.787 547.478 496.03 545.931 496.277 546.626C496.523 547.32 495.531 549.926 494.072 552.416C492.613 554.906 491.586 557.713 491.79 558.653C492.035 559.782 493.099 558.546 494.923 555.014C496.442 552.071 497.909 549.888 498.183 550.162C498.457 550.436 497.301 553.393 495.615 556.733C493.929 560.073 492.55 563.269 492.55 563.834C492.55 566.088 494.175 564.634 496.45 560.345C499.761 554.103 500.275 555.454 497.123 562.116C493.515 569.744 493.979 572.656 497.665 565.513C499.325 562.295 500.908 559.887 501.182 560.162C501.456 560.436 500.276 563.443 498.56 566.844C495.043 573.81 494.958 577.175 498.441 571.54C499.69 569.518 500.89 567.863 501.107 567.863C501.749 567.863 499.735 572.651 497.942 575.388C497.027 576.784 496.599 578.245 496.99 578.636C497.38 579.027 498.085 578.675 498.557 577.855C500.988 573.62 502.487 572.678 500.595 576.573C497.827 582.272 497.829 584.915 500.599 581.724L502.649 579.363L501.059 582.641C498.719 587.468 500.78 597.15 510.687 627.863C520.432 658.075 530.545 700.942 530.548 712.054C530.55 718.047 531.826 718.819 533.909 714.086C536.217 708.84 544.781 677.929 548.377 661.863C553.834 637.489 556.677 607.031 557.059 568.863C557.305 544.327 557.712 537.26 559.481 526.863C567.152 481.767 568.575 469.535 568.816 446.627C569.027 426.529 568.823 423.309 566.716 413.528C562.936 395.978 554.167 374.518 543.811 357.47L540.172 351.479L537.17 357.921C534.953 362.679 534.188 365.757 534.242 369.696C534.35 377.504 535.843 378.033 538.599 371.242C539.881 368.084 541.071 365.927 541.245 366.448C541.419 366.969 540.285 370.419 538.726 374.114C536.022 380.523 535.494 386.863 537.663 386.863C538.151 386.863 538.55 386.499 538.55 386.054C538.55 385.609 539.225 384.372 540.05 383.304C541.006 382.066 540.833 382.993 539.572 385.863C538.484 388.338 537.584 390.926 537.572 391.613C537.536 393.642 539.359 393.04 540.074 390.788C540.436 389.646 540.943 388.923 541.2 389.18C541.457 389.437 540.966 391.325 540.109 393.377C538.172 398.012 538.146 399.981 540.054 397.46C541.393 395.691 541.466 395.776 541.098 398.682C540.881 400.401 540.426 402.254 540.089 402.8C539.751 403.347 540.392 412.104 541.512 422.261C544.577 450.036 543.773 477.289 539.849 478.597C539.033 478.869 539.109 477.444 540.113 473.671C543.442 461.165 540.271 415.43 533.573 379.363C526.868 343.254 526.337 338.616 525.675 310.363C524.982 280.82 525.56 272.035 528.673 264.798C530.523 260.499 530.619 259.318 529.639 253C529.04 249.139 528.55 245.73 528.55 245.426C528.55 245.121 525.625 241.683 522.049 237.787C518.473 233.891 515.269 229.593 514.929 228.237C514.492 226.496 512.572 224.893 508.399 222.787C504.338 220.737 501.638 218.515 499.769 215.684C498.274 213.419 495.7 210.125 494.05 208.365C491.084 205.2 490.919 205.158 479.55 204.641C470.325 204.222 466.814 203.612 461.8 201.561C458.363 200.154 455.55 199.256 455.55 199.565ZM427.55 202.755C429.475 204.435 431.443 205.821 431.922 205.836C433.426 205.882 430.849 203.443 427.377 201.532L424.05 199.701L427.55 202.755ZM436.55 209.824C436.55 210.895 436.862 211.182 444.345 216.993C447.258 219.255 449.958 220.774 450.345 220.368C450.733 219.962 449.707 218.67 448.065 217.497C446.424 216.323 443.566 213.9 441.715 212.113C438.325 208.838 436.55 208.052 436.55 209.824ZM445.05 211.278C446.7 212.601 448.275 213.46 448.55 213.187C449.209 212.533 444.653 208.862 443.189 208.868C442.563 208.871 443.4 209.955 445.05 211.278ZM458.55 212.28C458.55 215.998 460.436 217.387 460.7 213.863C460.782 212.763 460.895 211.338 460.95 210.696C461.005 210.055 460.488 209.342 459.8 209.113C458.955 208.831 458.55 209.857 458.55 212.28ZM472.977 213.384C475.032 214.939 476.18 214.692 475.091 212.93C474.729 212.343 473.671 211.877 472.741 211.895C471.256 211.923 471.285 212.104 472.977 213.384ZM439.737 215.992C440.353 217.932 453.723 227.874 454.812 227.201C455.308 226.895 454.287 225.681 452.543 224.503C450.799 223.326 447.107 220.621 444.337 218.492C441.568 216.363 439.498 215.238 439.737 215.992ZM457.05 217.863C457.39 218.413 458.118 218.863 458.668 218.863C459.218 218.863 459.39 218.413 459.05 217.863C458.71 217.313 457.982 216.863 457.432 216.863C456.882 216.863 456.71 217.313 457.05 217.863ZM438.55 218.712C438.55 220.188 452.859 230.79 453.945 230.119C454.502 229.774 454.149 229.04 453.137 228.435C452.148 227.846 448.462 225.21 444.945 222.579C441.428 219.949 438.55 218.208 438.55 218.712ZM454.55 219.756C454.55 221.006 457.373 221.959 458.012 220.924C458.302 220.456 457.829 219.8 456.962 219.468C454.866 218.663 454.55 218.701 454.55 219.756ZM435.021 221.261C434.044 221.975 433.551 223.056 433.926 223.663C434.625 224.793 449.968 235.863 450.836 235.863C451.1 235.863 451.555 234.953 451.845 233.841C452.267 232.231 450.788 230.612 444.586 225.89C437.77 220.702 436.576 220.124 435.021 221.261ZM451.55 221.622C451.55 222.78 455.655 225.091 456.396 224.351C456.754 223.992 456.174 223.061 455.107 222.281C452.968 220.717 451.55 220.454 451.55 221.622ZM436.767 223.015C437.237 224.424 448.321 232.441 448.912 231.8C449.134 231.559 446.401 229.214 442.841 226.588C439.28 223.962 436.547 222.354 436.767 223.015ZM514.565 223.054C514.557 223.984 515 225.023 515.55 225.363C516.816 226.145 516.816 224.821 515.55 222.863C514.715 221.57 514.579 221.597 514.565 223.054ZM430.695 225.118C430.018 225.795 431.717 227.601 435.869 230.616C439.268 233.086 443.498 236.476 445.268 238.15C448.067 240.797 448.571 240.971 449.142 239.485C449.502 238.545 449.629 237.611 449.424 237.407C449.218 237.204 445.147 234.13 440.376 230.575C434.551 226.234 431.371 224.442 430.695 225.118ZM418.695 228.832C414.65 229.82 410.15 231.597 408.695 232.779C400.444 239.488 387.171 242.893 375.918 241.189C367.901 239.975 366.732 240.254 365.424 243.695C364.005 247.428 366.769 250.617 375.365 255.162C379.317 257.251 382.55 258.776 382.55 258.549C382.55 258.323 379.4 255.796 375.55 252.933C371.7 250.07 368.55 247.269 368.55 246.709C368.55 245.642 380.956 254.954 383.55 257.968C384.823 259.448 388.659 260.364 391.927 259.969C392.409 259.911 390.517 258.176 387.722 256.113C384.927 254.051 383.102 252.202 383.667 252.006C384.231 251.809 385.673 252.523 386.871 253.592C388.07 254.661 390.521 256.546 392.318 257.78L395.586 260.025L401.818 258.028C412.808 254.506 416.38 254.383 422.05 257.33L427.05 259.929L420.3 253.522C413.312 246.89 411.72 244.618 416.05 247.455C417.46 248.379 418.55 248.629 418.55 248.028C418.55 247.442 417.766 246.524 416.808 245.988C415.85 245.452 415.39 244.69 415.784 244.296C416.179 243.901 417.133 244.102 417.904 244.742C419.024 245.672 419.428 245.449 419.914 243.634C420.249 242.385 420.529 240.303 420.536 239.008L420.55 236.653L422.8 238.673C424.037 239.783 429.293 244.556 434.479 249.278C439.665 254 444.311 257.863 444.802 257.863C447.032 257.863 444.388 254.598 436.298 247.362C431.484 243.057 427.761 239.319 428.025 239.055C428.501 238.579 443.747 251.681 444.383 253.113C444.929 254.34 446.551 253.964 446.54 252.613C446.535 251.926 442.719 248.213 438.06 244.363C430.569 238.172 428.391 235.863 430.044 235.863C430.315 235.863 434.112 239.013 438.481 242.863C442.85 246.713 446.678 249.863 446.987 249.863C448.533 249.863 447.264 246.167 445.3 244.947C441.421 242.539 429.564 232.516 430.036 232.044C430.283 231.796 434.141 234.579 438.608 238.228C446.81 244.929 448.577 245.889 448.518 243.613C448.474 241.947 430.181 227.408 427.865 227.199C426.867 227.109 422.74 227.844 418.695 228.832ZM482.3 229.162C478.866 230.519 478.799 232.325 482.101 234.489C483.892 235.662 484.967 235.846 485.709 235.104C486.45 234.363 486.111 233.699 484.572 232.875C483.366 232.229 482.598 231.481 482.867 231.213C483.136 230.944 484.313 231.318 485.483 232.044C487.27 233.152 487.755 233.132 488.508 231.921C489.118 230.941 488.867 230.069 487.728 229.202C485.794 227.732 485.918 227.733 482.3 229.162ZM477.114 234.556C476.721 235.58 477.262 237.02 478.507 238.265C480.29 240.048 480.715 240.118 481.941 238.831C483.147 237.564 482.957 237.056 480.548 235.123C478.044 233.113 477.69 233.055 477.114 234.556ZM474.55 238.708C474.55 240.404 478.319 243.045 479.051 241.862C479.436 241.239 478.918 240.099 477.9 239.328C475.775 237.718 474.55 237.491 474.55 238.708ZM124.05 242.252C115.389 245.098 102.224 251.509 99.1016 254.402C97.8176 255.592 95.9316 256.89 94.9086 257.286C93.2076 257.946 93.2616 258.126 95.5496 259.4C96.9246 260.166 97.4576 260.808 96.7336 260.828C96.0106 260.847 94.5746 260.412 93.5446 259.86C92.2836 259.185 91.4646 259.192 91.0386 259.881C90.6906 260.444 92.0616 261.597 94.0856 262.443C96.1096 263.288 97.5406 264.205 97.2656 264.48C96.9906 264.755 95.0876 264.279 93.0356 263.422C86.2676 260.594 85.7776 262.349 92.3646 265.828C94.7126 267.069 95.3906 267.791 94.2336 267.819C93.2356 267.843 91.5476 267.397 90.4836 266.828C89.0266 266.048 88.5496 266.117 88.5496 267.109C88.5496 267.832 89.9826 268.965 91.7336 269.626C93.4846 270.287 94.6726 271.074 94.3726 271.374C94.0726 271.674 92.6396 271.468 91.1886 270.916C89.0636 270.108 88.5496 270.205 88.5496 271.413C88.5496 272.238 89.7856 273.383 91.2966 273.957C93.6116 274.837 95.0086 274.522 100.168 271.954C104.991 269.554 106.41 268.318 106.849 266.135C107.428 263.257 111.908 259.863 115.126 259.863C116.097 259.863 117.628 260.528 118.526 261.341C119.971 262.649 120.729 262.607 125.105 260.978C131.901 258.447 135.55 257.657 135.55 258.719C135.55 259.211 134.313 259.865 132.8 260.173C127.675 261.216 120.55 264.92 120.55 266.542C120.55 269.361 116.685 274.48 113.324 276.113C111.523 276.987 107.323 278.814 103.989 280.172C98.4606 282.425 97.6386 282.52 94.6356 281.257C91.1856 279.807 89.5496 280.123 89.5496 282.241C89.5496 282.934 91.8286 284.122 94.6126 284.88C97.3976 285.639 99.9106 286.638 100.197 287.101C100.73 287.963 96.8886 287.248 92.7136 285.709C91.0156 285.082 90.4896 285.184 90.7886 286.079C91.0136 286.756 93.2066 287.934 95.6616 288.696C100.035 290.054 100.219 290.018 104.809 286.921C111.953 282.099 124.778 276.441 137.834 272.349L149.618 268.656L143.697 257.51C135.012 241.158 134.197 239.872 132.55 239.914C131.725 239.935 127.9 240.987 124.05 242.252ZM416.55 240.863C416.55 241.413 417.027 241.863 417.609 241.863C418.191 241.863 418.39 241.413 418.05 240.863C417.71 240.313 417.234 239.863 416.991 239.863C416.748 239.863 416.55 240.313 416.55 240.863ZM453.55 240.337C453.55 241.262 459.704 243.978 460.868 243.567C461.518 243.337 460.308 242.41 458.178 241.506C453.988 239.728 453.55 239.618 453.55 240.337ZM421.55 243.298C421.55 244.637 421.12 246.864 420.594 248.247C419.718 250.551 420.248 251.308 426.904 257.265C437.235 266.511 442.805 268.338 443.904 262.842C444.432 260.204 443.972 259.347 440.279 256.092C437.953 254.041 433.312 249.776 429.965 246.613C423.289 240.304 421.55 239.619 421.55 243.298ZM422.665 245.707C423.234 247.415 440.903 262.82 441.55 262.173C442.028 261.694 437.816 257.728 427.141 248.606C424.442 246.299 422.427 244.994 422.665 245.707ZM157.619 249.363C157.593 249.913 158.254 252.613 159.089 255.363C159.923 258.113 161.061 262.051 161.617 264.113C162.172 266.176 163.176 267.863 163.848 267.863C164.519 267.863 165.658 268.807 166.379 269.96C167.944 272.467 169.085 271.849 167.764 269.21C167.255 268.194 164.775 263.088 162.253 257.863C159.731 252.638 157.646 248.813 157.619 249.363ZM394.55 251.806C394.55 253.714 395.332 255.297 396.773 256.306C399.976 258.55 401.313 258.222 398.739 255.824C397.535 254.703 396.55 252.678 396.55 251.324C396.55 249.97 396.1 248.863 395.55 248.863C395 248.863 394.55 250.187 394.55 251.806ZM412.05 251.394C413.7 252.746 415.5 253.839 416.05 253.822C416.6 253.805 415.7 252.684 414.05 251.332C412.4 249.98 410.6 248.887 410.05 248.904C409.5 248.921 410.4 250.042 412.05 251.394ZM421.641 249.464C421.866 250.045 425.2 253.143 429.05 256.349C432.9 259.554 436.84 262.853 437.806 263.68C438.772 264.507 439.79 264.956 440.069 264.677C440.348 264.398 437.134 261.289 432.928 257.767C423.44 249.823 421.118 248.116 421.641 249.464ZM502.55 250.863C501.274 251.97 500.539 253.185 500.917 253.564C501.296 253.942 502.581 253.277 503.772 252.085C506.592 249.266 505.57 248.244 502.55 250.863ZM405.55 250.874C405.55 252.008 409.322 254.109 410.583 253.678C411.09 253.505 410.165 252.596 408.527 251.66C406.89 250.723 405.55 250.369 405.55 250.874ZM468.213 252.299C467.572 253.969 470.482 255.331 471.825 253.988C472.411 253.402 472.01 252.645 470.757 251.974C469.215 251.149 468.626 251.224 468.213 252.299ZM399.55 252.468C399.55 253.294 402.744 255.787 403.859 255.831C404.304 255.849 404.391 255.415 404.053 254.868C403.249 253.567 399.55 251.595 399.55 252.468ZM113.383 254.613C113.2 255.026 111.257 256.263 109.066 257.363C104.419 259.696 99.5286 267.242 101.431 269.144C102.256 269.969 102.551 269.752 102.554 268.313C102.561 264.638 106.478 259.783 111.077 257.748C113.537 256.66 115.55 255.34 115.55 254.816C115.55 253.689 113.864 253.531 113.383 254.613ZM467.011 255.926C466.346 257.002 468.075 258.812 469.8 258.848C471.032 258.873 470.651 257.191 469.139 255.937C468.07 255.05 467.554 255.047 467.011 255.926ZM475.717 255.802C476.446 258.088 481.11 261.102 483.17 260.619C484.714 260.257 484.515 259.959 482.052 258.951C480.403 258.276 478.2 256.968 477.156 256.043C475.71 254.763 475.367 254.706 475.717 255.802ZM498.286 255.461C497.957 255.79 497.932 256.695 498.23 257.472C498.596 258.424 498.28 258.696 497.262 258.306C494.9 257.4 494.163 259.777 496.131 261.953C497.881 263.886 497.928 263.868 499.229 260.775C499.956 259.047 500.55 257.01 500.55 256.248C500.55 254.823 499.343 254.403 498.286 255.461ZM505.55 258.706C505.55 259.767 511.591 262.156 512.351 261.395C512.613 261.133 511.575 260.443 510.045 259.861C508.514 259.279 506.877 258.565 506.406 258.274C505.935 257.983 505.55 258.178 505.55 258.706ZM465.55 260.304C465.55 262.343 467.51 263.303 468.879 261.934C469.751 261.062 469.669 260.55 468.542 259.837C466.431 258.503 465.55 258.64 465.55 260.304ZM111.753 262.561C109.872 263.473 108.55 264.872 108.55 265.952C108.55 267.712 108.756 267.704 113.28 265.765C119.131 263.256 119.139 263.248 116.839 262.018C115.478 261.289 114.069 261.44 111.753 262.561ZM492.096 261.789C491.43 262.866 494.439 267.775 495.8 267.832C496.213 267.849 496.55 267.033 496.55 266.018C496.55 263.676 493.008 260.313 492.096 261.789ZM464.176 264.394C463.555 266.014 465.075 267.275 466.55 266.363C467.978 265.48 467.785 264.167 466.133 263.533C465.353 263.234 464.473 263.621 464.176 264.394ZM488.087 264.803C487.767 265.32 488.942 267.379 490.697 269.377C493.461 272.526 494.012 272.789 494.819 271.347C495.518 270.098 495.054 268.955 492.963 266.772C490.005 263.685 489.023 263.288 488.087 264.803ZM115.939 266.843C114.778 267.312 113.579 268.344 113.275 269.136C112.971 269.928 110.847 270.828 108.554 271.136C106.261 271.443 104.141 271.938 103.844 272.236C102.709 273.371 104.573 275.831 107.036 276.449C110.389 277.29 117.019 272.824 118.432 268.773C119.509 265.682 119.27 265.497 115.939 266.843ZM462.55 267.863C462.55 268.413 463 268.863 463.55 268.863C464.1 268.863 464.55 268.413 464.55 267.863C464.55 267.313 464.1 266.863 463.55 266.863C463 266.863 462.55 267.313 462.55 267.863ZM487.256 270.186C486.942 271.006 487.913 272.794 489.495 274.31C491.677 276.401 492.41 276.67 492.844 275.54C493.158 274.72 492.187 272.932 490.605 271.416C488.423 269.325 487.69 269.056 487.256 270.186ZM148.392 271.187C147.712 271.915 146.007 272.308 144.603 272.061C142.589 271.707 142.299 271.877 143.227 272.864C144.012 273.7 145.343 273.853 147.227 273.326C148.78 272.891 150.371 272.603 150.764 272.687C151.157 272.771 151.221 272.169 150.907 271.351C150.207 269.528 149.957 269.512 148.392 271.187ZM163.05 270.863C163.39 271.413 164.118 271.863 164.668 271.863C165.218 271.863 165.39 271.413 165.05 270.863C164.71 270.313 163.982 269.863 163.432 269.863C162.882 269.863 162.71 270.313 163.05 270.863ZM138.55 273.756C138.55 274.86 141.145 275.935 141.925 275.155C142.239 274.841 142.256 274.197 141.964 273.724C141.262 272.588 138.55 272.613 138.55 273.756ZM512.225 273.521C511.162 274.584 513.619 276.863 515.827 276.863C517.797 276.863 517.804 276.801 516.05 274.863C514.134 272.746 513.295 272.452 512.225 273.521ZM485.217 274.53C483.518 276.229 484.738 277.863 487.705 277.863C490.797 277.863 490.824 277.823 489.05 275.863C487.13 273.742 486.295 273.451 485.217 274.53ZM89.1766 276.333C89.5176 277.221 90.2246 277.805 90.7476 277.63C92.2466 277.131 91.8166 275.397 90.1056 275.04C89.0366 274.818 88.7486 275.219 89.1766 276.333ZM95.7996 276.753C92.7366 278.139 91.4436 279.863 93.4676 279.863C93.9726 279.863 95.0916 280.134 95.9536 280.465C97.0366 280.88 97.8446 280.218 98.5636 278.326C99.1366 276.819 99.4806 275.517 99.3276 275.434C99.1746 275.35 97.5876 275.944 95.7996 276.753ZM100.305 277.363C99.8066 279.968 100.95 280.529 103.486 278.924C104.676 278.171 104.697 277.746 103.613 276.439C101.771 274.219 100.858 274.474 100.305 277.363ZM133.55 275.863C135.526 277.14 138.839 277.14 138.05 275.863C137.71 275.313 136.221 274.87 134.741 274.878C132.636 274.89 132.377 275.105 133.55 275.863ZM129.55 276.84C129.55 277.274 130.45 277.865 131.55 278.153C132.65 278.44 133.55 278.32 133.55 277.886C133.55 277.452 132.65 276.861 131.55 276.573C130.45 276.286 129.55 276.406 129.55 276.84ZM509.05 276.863C508.71 277.413 509.134 277.863 509.991 277.863C510.848 277.863 511.55 277.413 511.55 276.863C511.55 276.313 511.127 275.863 510.609 275.863C510.091 275.863 509.39 276.313 509.05 276.863ZM126.05 278.863C127.15 279.336 128.95 279.747 130.05 279.777C131.701 279.823 131.788 279.663 130.55 278.863C129.725 278.33 127.925 277.918 126.55 277.949C124.26 277.999 124.218 278.076 126.05 278.863ZM118.55 280.602C115.067 282.17 115.062 282.181 117.55 282.921C121.939 284.225 123.275 283.973 121.05 282.259C119.175 280.815 119.3 280.758 123.05 281.353C126.796 281.947 126.927 281.888 125.109 280.425C122.829 278.59 123.03 278.585 118.55 280.602ZM166.564 282.113C166.605 285.876 167.91 287.87 170.417 287.999C172.772 288.121 172.813 288.181 170.8 288.569C167.416 289.221 168.094 290.584 171.55 290.076C174.994 289.571 174.913 289.806 173.392 284.729C172.4 281.42 171.824 280.863 169.392 280.863C167.778 280.863 166.556 281.403 166.564 282.113ZM113.141 283.716C112.519 284.721 117.423 286.323 118.335 285.412C119.056 284.691 118.509 284.252 115.884 283.447C114.693 283.081 113.459 283.202 113.141 283.716ZM134.829 287.823C122.864 292.19 114.108 296.669 106.8 302.159C103.913 304.328 101.55 306.214 101.55 306.35C101.55 306.485 104.7 306.371 108.55 306.095C113.275 305.757 115.55 305.952 115.55 306.693C115.55 308.407 112.695 309.463 104.3 310.858C97.4816 311.991 96.5516 312.399 96.5646 314.254C96.5926 318.01 97.9656 319.244 100.416 317.715C101.59 316.982 102.55 316.014 102.55 315.563C102.55 315.113 102.953 314.994 103.445 315.298C103.938 315.603 104.661 315.067 105.053 314.107C105.705 312.51 105.834 312.531 106.587 314.363C107.287 316.065 107.42 316.102 107.48 314.613C107.559 312.637 109.512 312.181 109.62 314.113C109.659 314.801 110.077 314.463 110.55 313.363C111.285 311.653 111.42 311.617 111.48 313.113C111.583 315.693 113.533 315.244 113.65 312.613C113.745 310.454 113.782 310.465 114.55 312.863C114.99 314.238 115.44 314.688 115.55 313.863C115.66 313.038 116.11 313.488 116.55 314.863C117.151 316.74 117.375 316.896 117.45 315.491C117.531 313.968 117.822 313.844 119.004 314.825C121.084 316.551 119.95 327.178 116.546 337.863C115.056 342.538 112.336 351.73 110.502 358.289C108.668 364.848 106.994 369.695 106.782 369.059C106.381 367.857 112.969 343.767 116.517 333.456C119.01 326.213 119.136 320.592 116.857 318.313C114.755 316.211 105.566 316.769 100.679 319.296C95.8566 321.79 97.9266 323.026 103.096 320.74C108.602 318.304 114.872 318.513 115.372 321.149C115.831 323.573 108.421 333.27 107.383 331.602C106.818 330.695 105.947 331.033 104.13 332.863L101.648 335.363L104.599 345.241C106.222 350.673 107.55 355.736 107.55 356.491C107.55 359.992 105.502 357.083 102.004 348.613C97.7576 338.333 97.4676 337.827 96.8296 339.613C95.8476 342.363 94.4916 340.687 95.0956 337.468C95.4646 335.5 95.2316 333.138 94.5406 331.846L93.3486 329.619L91.2406 331.728C89.1516 333.817 89.1506 333.852 91.0906 335.418C92.9736 336.938 92.9426 336.977 90.2996 336.412C88.7876 336.089 87.5496 336.14 87.5496 336.525C87.5496 337.414 93.8586 360.126 96.6716 369.363C103.734 392.557 120.957 413.027 144.697 426.446C148.022 428.325 151.61 429.863 152.671 429.863C153.732 429.863 157.757 428.273 161.616 426.33C165.475 424.386 169.011 423.03 169.472 423.315C170.412 423.896 168.302 436.472 167.072 437.625C166.358 438.294 166.672 435.668 168.285 427.479C168.717 425.288 168.517 424.707 167.452 425.062C166.654 425.327 165.694 427.755 165.224 430.696C164.769 433.538 164.03 435.863 163.58 435.863C163.13 435.863 163.18 434.004 163.691 431.731C164.729 427.112 164.087 425.286 162.722 428.974C160.966 433.715 160.547 434.315 160.918 431.555C161.205 429.419 160.947 428.881 159.841 429.305C159.041 429.612 158.198 429.863 157.968 429.863C156.859 429.863 157.85 432.294 160.918 437.094C165.578 444.386 177.55 468.423 177.55 470.487C177.55 470.694 176.926 470.863 176.163 470.863C175.232 470.863 174.395 473.082 173.617 477.613C171.724 488.636 171.717 488.863 173.267 488.863C174.059 488.863 176.584 490.707 178.879 492.96C182.803 496.815 183.31 497.022 187.44 496.46C189.854 496.132 192.451 495.863 193.211 495.863C193.971 495.863 195.096 494.76 195.71 493.411C196.99 490.602 202.093 487.863 206.047 487.863C207.529 487.863 210.066 488.645 211.684 489.601C214.571 491.306 214.737 491.282 220.315 488.351C225.313 485.725 226.096 484.898 226.778 481.53C227.204 479.421 228.203 476.769 228.997 475.636C231.047 472.709 235.648 469.877 238.367 469.87C240.106 469.865 240.554 469.426 240.161 468.113C239.873 467.151 239.11 463.262 238.466 459.473L237.296 452.582L235.037 461.309C233.794 466.108 232.276 470.537 231.664 471.149C230.244 472.569 230.263 472.368 232.109 466.363C232.954 463.613 234.268 458.441 235.027 454.869C236.534 447.782 236.08 444.436 231.293 427.363L229.05 419.363L228.545 431.363C228.267 437.963 227.749 442.688 227.394 441.863C227.039 441.038 225.519 434.963 224.017 428.363C221.328 416.552 216.957 399.801 215.798 396.863C215.472 396.038 214.847 398.963 214.409 403.363C213.11 416.399 212.643 416.204 213.21 402.863C213.503 395.988 213.493 390.606 213.189 390.903C212.885 391.2 211.847 397.275 210.883 404.403C209.918 411.531 208.96 416.547 208.754 415.55C208.35 413.597 210.263 397.774 211.197 395.34C211.509 394.527 211.332 393.863 210.804 393.863C209.871 393.863 208.846 398.873 206.026 417.222C204.695 425.883 203.501 429.602 203.599 424.78C203.626 423.45 204.671 416.401 205.921 409.113C207.171 401.825 208.076 395.863 207.933 395.863C207.79 395.863 206.35 397.101 204.733 398.613C202.087 401.088 201.621 402.514 200.075 412.863C199.129 419.188 198.117 426.51 197.824 429.134C197.531 431.758 196.939 434.123 196.507 434.39C196.076 434.656 195.908 433.634 196.135 432.119C198.905 413.628 200.252 403.288 199.936 402.946C198.919 401.847 198.195 404.916 195.905 420.032C193.397 436.58 192.814 439.464 192.114 438.756C191.901 438.54 192.795 431.613 194.101 423.363C196.817 406.218 196.878 405.542 195.637 406.309C194.859 406.79 194.078 409.892 192.979 416.863C192.848 417.688 191.996 423.763 191.084 430.363C190.172 436.963 189.075 442.72 188.646 443.155C188.217 443.591 188.655 438.191 189.62 431.155C193.411 403.521 193.097 403.307 186.977 429.363C184.91 438.163 183.045 444.844 182.833 444.209C182.621 443.575 183.882 437.05 185.636 429.709C190.029 411.323 190.003 411.465 188.778 412.222C188.194 412.583 186 419.962 183.902 428.621C181.805 437.279 179.946 443.636 179.772 442.747C179.598 441.859 181.007 434.974 182.904 427.447C184.921 419.44 185.891 413.916 185.24 414.133C184.628 414.337 182.53 420.917 180.577 428.755C178.624 436.593 176.772 442.752 176.462 442.441C176.151 442.131 177.303 436.264 179.021 429.404C181.58 419.185 181.886 416.88 180.713 416.647C179.926 416.491 183.729 412.918 189.166 408.708C194.602 404.498 202.193 398.153 206.034 394.608L213.017 388.163L207.142 369.263C203.91 358.868 199.517 344.288 197.378 336.863C192.423 319.656 185.469 298.611 184.92 299.159C184.688 299.392 185.003 303.865 185.621 309.101C186.238 314.337 186.545 319.462 186.301 320.492C185.762 322.777 185.83 322.945 181.479 308.613C179.684 302.7 177.867 297.863 177.442 297.863C175.953 297.863 175.388 299.963 176.512 301.318C177.998 303.107 176.39 304.112 173.288 303.333L170.933 302.742L172.685 312.053C173.649 317.173 174.708 323.049 175.039 325.111C175.506 328.027 176.351 329.22 178.845 330.49C183.352 332.785 191.744 339.002 191.144 339.602C190.869 339.877 188.421 338.471 185.704 336.476C182.987 334.482 175.879 330.578 169.907 327.8C149.79 318.443 144.244 315.441 140.64 311.957C138.665 310.049 136.262 308.6 135.3 308.738C134.286 308.883 133.55 308.345 133.55 307.457C133.55 306.507 134.119 306.144 135.05 306.501C135.875 306.818 136.55 306.552 136.55 305.911C136.55 305.27 136.1 305.023 135.55 305.363C134.953 305.732 134.55 304.504 134.55 302.315C134.55 299.541 134.899 298.783 135.985 299.2C136.775 299.503 137.671 299.213 137.976 298.557C138.282 297.9 138.28 298.375 137.973 299.613C137.657 300.89 137.877 301.863 138.483 301.863C139.07 301.863 139.55 300.838 139.55 299.585C139.55 298.332 140.422 296.561 141.489 295.648C143.296 294.1 143.457 294.102 143.873 295.675C144.173 296.814 144.356 296.596 144.434 295.006C144.52 293.261 144.973 292.811 146.177 293.273C147.071 293.617 148.407 293.396 149.145 292.784C149.883 292.172 152.39 291.109 154.717 290.422C159.517 289.004 160.159 288.078 158.201 285.4C156.894 283.613 156.3 283.852 146.437 290.132C132.34 299.108 130.677 299.303 139.55 290.937C143.675 287.048 146.6 283.917 146.05 283.979C145.5 284.041 140.45 285.771 134.829 287.823ZM110.55 286.959C111.71 287.783 111.441 287.892 109.361 287.44C106.098 286.731 104.65 288.394 107.811 289.222C110.097 289.82 115.55 287.986 115.55 286.619C115.55 286.203 114.088 285.87 112.3 285.878C109.726 285.89 109.362 286.115 110.55 286.959ZM90.7816 290.058C91.2946 291.598 96.3636 292.973 97.1046 291.773C97.4156 291.271 96.4886 290.41 95.0446 289.861C91.5746 288.542 90.2956 288.601 90.7816 290.058ZM105.55 290.971C105.55 291.654 104.59 291.839 103.05 291.452C101.541 291.074 100.55 291.252 100.55 291.903C100.55 292.496 100.969 292.722 101.481 292.406C101.993 292.089 102.675 292.256 102.996 292.775C103.317 293.295 102.56 293.916 101.315 294.155C99.3696 294.529 99.3326 294.609 101.05 294.722C102.15 294.794 104.4 293.746 106.05 292.394C108.352 290.507 108.643 289.927 107.3 289.899C106.338 289.879 105.55 290.362 105.55 290.971ZM153.617 292.162C151.729 292.765 147.461 295.817 144.133 298.944C138.45 304.286 138.143 304.806 139.081 307.497C140.344 311.123 147.75 315.995 161.394 322.177C167.083 324.754 172.122 326.863 172.592 326.863C173.062 326.863 173.066 325.627 172.6 324.113C172.134 322.601 170.741 317.636 169.504 313.08C168.266 308.525 166.893 304.575 166.453 304.303C166.013 304.031 163.492 304.332 160.851 304.972C155.744 306.209 152.917 307.863 155.909 307.863C156.876 307.863 157.39 308.313 157.05 308.863C155.944 310.652 144.55 309.757 144.55 307.882C144.55 307.47 147.813 306.348 151.8 305.388C161.647 303.017 161.799 302.895 159.113 299.536C156.86 296.719 156.84 296.715 153.005 298.317C150.889 299.201 147.671 301.059 145.854 302.445C144.037 303.831 142.55 304.495 142.55 303.92C142.55 302.349 149.597 297.559 155.935 294.823C159.023 293.49 161.55 292.054 161.55 291.631C161.55 290.584 157.773 290.836 153.617 292.162ZM79.2096 297.863C79.8166 304.631 81.0196 307.409 82.1116 304.563C82.4556 303.664 81.8136 300.327 80.6826 297.146L78.6266 291.363L79.2096 297.863ZM91.7416 293.938C91.9386 294.529 92.5276 295.013 93.0496 295.013C93.5716 295.013 94.1606 294.529 94.3576 293.938C94.5546 293.347 93.9666 292.863 93.0496 292.863C92.1326 292.863 91.5446 293.347 91.7416 293.938ZM94.5496 295.711C94.5496 296.177 96.0116 296.581 97.7996 296.609C100.437 296.65 100.673 296.503 99.0496 295.831C96.3736 294.724 94.5496 294.675 94.5496 295.711ZM93.0496 297.863C93.3896 298.413 94.6536 298.831 95.8586 298.793C97.9706 298.725 97.9776 298.692 96.0496 297.863C93.2976 296.68 92.3186 296.68 93.0496 297.863ZM141.009 297.93C140.646 298.516 140.564 299.211 140.826 299.473C141.088 299.735 141.569 299.255 141.895 298.406C142.571 296.644 141.995 296.334 141.009 297.93ZM128.629 301.446C128.677 302.611 128.914 302.848 129.233 302.051C129.522 301.329 129.486 300.466 129.154 300.134C128.822 299.802 128.586 300.392 128.629 301.446ZM131.932 301.415C132.273 302.305 132.105 302.706 131.539 302.356C130.995 302.02 130.55 302.222 130.55 302.804C130.55 303.386 130.986 303.863 131.519 303.863C132.051 303.863 132.234 304.651 131.924 305.613C131.449 307.09 131.53 307.129 132.44 305.863C133.855 303.897 133.856 299.863 132.443 299.863C131.834 299.863 131.604 300.561 131.932 301.415ZM82.5496 307.863C82.5496 308.413 82.9996 308.863 83.5496 308.863C84.0996 308.863 84.5496 308.413 84.5496 307.863C84.5496 307.313 84.0996 306.863 83.5496 306.863C82.9996 306.863 82.5496 307.313 82.5496 307.863ZM202.995 319.084L199.939 321.182L208.089 340.272C216.589 360.186 218.974 366.982 227.531 395.694C234.269 418.301 237.058 430.933 239.493 449.863C240.589 458.388 242.152 468.963 242.965 473.363C247.828 499.667 250.405 541.086 248.627 564.363C248.039 572.063 247.55 589.613 247.541 603.363L247.524 628.363L242.577 652.363C235.892 684.793 228.099 721.091 225.078 733.863C223.712 739.638 221.647 750.888 220.488 758.863C219.329 766.838 217.567 775.838 216.572 778.863C213.872 787.071 211.725 797.307 208.392 817.863C202.244 855.782 203.029 848.484 198.021 914.363C197.185 925.363 196.286 935.343 196.024 936.541C195.763 937.738 195.098 947.413 194.547 958.041C193.997 968.668 192.816 982.837 191.923 989.528C190.603 999.419 190.438 1005.93 191.038 1024.33L191.776 1046.96L196.913 1046.66L202.05 1046.36L201.831 1042.36C201.36 1033.78 203.628 987.731 205.08 976.363C205.924 969.763 207.016 949.288 207.509 930.863C208.353 899.244 211.397 856.969 213.507 847.555C214.033 845.208 215.393 837.23 216.53 829.826C221.129 799.878 223.714 785.655 227.159 771.363C233.998 742.989 234.491 740.313 235.994 723.363C236.824 714.013 237.97 703.888 238.543 700.863C240.439 690.841 250.22 655.499 252.104 651.863C252.896 650.334 253.83 641.74 254.507 629.738C255.116 618.944 256.009 607.685 256.492 604.718C257.569 598.104 256.214 493.746 255.026 491.825C254.561 491.073 253.844 485.936 253.431 480.41C252.973 474.265 251.509 466.286 249.662 459.863C248.002 454.088 245.688 443.288 244.52 435.863C241.932 419.402 240.075 411.884 233.653 391.863C229.272 378.204 216.724 341.539 213.12 331.863C209.539 322.25 207.213 316.869 206.661 316.925C206.325 316.959 204.675 317.931 202.995 319.084ZM86.2996 321.333C84.4206 323.917 84.0496 327.526 85.4396 329.718C86.1466 330.835 86.7606 330.771 88.9236 329.353C91.8526 327.434 92.0356 326.555 90.4516 322.012C89.1426 318.257 88.6006 318.169 86.2996 321.333ZM99.8776 327.955C100.233 329.279 100.529 331.022 100.536 331.827C100.548 333.055 100.81 333.032 102.157 331.684C103.633 330.208 103.58 329.893 101.499 327.812L99.2336 325.547L99.8776 327.955ZM527.55 333.304C527.55 334.711 528 335.863 528.55 335.863C529.1 335.863 529.55 334.99 529.55 333.922C529.55 332.854 529.1 331.703 528.55 331.363C527.983 331.012 527.55 331.853 527.55 333.304ZM86.5496 332.922C86.5496 333.504 86.9996 333.703 87.5496 333.363C88.0996 333.023 88.5496 332.547 88.5496 332.304C88.5496 332.061 88.0996 331.863 87.5496 331.863C86.9996 331.863 86.5496 332.34 86.5496 332.922ZM530.043 337.3C529.772 338.159 529.345 339.524 529.094 340.331C528.209 343.176 530.173 342.701 531.266 339.805C531.922 338.065 531.999 336.641 531.454 336.304C530.949 335.992 530.314 336.44 530.043 337.3ZM117.61 341.363C117.45 343.013 117.413 345.263 117.527 346.363C117.764 348.651 122.477 355.269 123.29 354.456C123.587 354.16 122.67 352.399 121.254 350.542C119.662 348.455 118.531 345.487 118.29 342.765C117.991 339.393 117.832 339.065 117.61 341.363ZM531.171 343.462C529.358 348.782 529.211 349.865 530.3 349.859C531.735 349.852 534.864 340.777 533.8 339.713C533.123 339.036 532.26 340.267 531.171 343.462ZM135.282 344.863C136.224 345.963 137.639 346.863 138.427 346.863C139.545 346.863 139.462 346.424 138.05 344.863C137.055 343.763 135.639 342.863 134.905 342.863C133.917 342.863 134.015 343.383 135.282 344.863ZM533.752 346.897C530.907 353.54 530.371 355.635 531.36 356.246C532.674 357.058 537.475 345.359 536.485 343.757C535.909 342.826 535.095 343.761 533.752 346.897ZM124.015 349.418C125.532 350.824 127.02 351.727 127.322 351.425C128.164 350.582 124.436 346.863 122.749 346.863C121.758 346.863 122.183 347.72 124.015 349.418ZM535.215 352.849C533.749 356.229 532.579 360.203 532.615 361.679C532.665 363.747 533.466 362.675 536.105 357.006C538.321 352.243 539.239 349.129 538.705 348.176C538.105 347.103 537.156 348.374 535.215 352.849ZM538.118 363.89C536.631 367.205 535.557 370.55 535.732 371.324C535.907 372.098 537.473 369.385 539.213 365.297C542.978 356.447 542.014 355.208 538.118 363.89ZM67.9676 363.363C68.4206 368.57 70.2366 374.509 71.1096 373.636C71.6206 373.125 69.9896 365.433 68.4016 360.863C67.7646 359.031 67.6486 359.698 67.9676 363.363ZM152.05 367.723C139.102 373.23 132.885 376.549 132.206 378.317C131.88 379.167 132.049 379.863 132.581 379.863C133.114 379.863 133.55 379.392 133.55 378.817C133.55 377.866 141.497 373.842 156.294 367.298C160.825 365.294 162.105 365.078 163.352 366.106C164.606 367.141 164.788 367.098 164.38 365.863C163.565 363.395 161.492 363.708 152.05 367.723ZM538.578 378.289C537.011 382.41 537.512 383.825 539.182 379.997C539.99 378.145 540.416 376.395 540.128 376.108C539.841 375.821 539.143 376.802 538.578 378.289ZM73.5626 389.613C81.0946 421.829 83.6326 432.514 84.1346 434.113C84.4376 435.075 84.2356 435.863 83.6876 435.863C83.1396 435.863 81.9526 433.276 81.0486 430.113C80.1446 426.95 77.4596 418.063 75.0806 410.363C72.7026 402.663 69.9636 393.213 68.9936 389.363C68.0236 385.513 66.9646 381.835 66.6406 381.19C66.2506 380.416 62.6466 382.074 56.0496 386.063C38.4076 396.73 35.8656 397.647 19.0446 399.414C10.8226 400.277 3.90758 401.172 3.67758 401.402C3.44758 401.632 4.44658 403.292 5.89758 405.091C7.34858 406.891 13.3556 414.663 19.2466 422.363C25.1376 430.063 34.4786 441.809 40.0036 448.465C45.5286 455.122 55.7486 467.497 62.7146 475.965C69.9376 484.747 87.4896 503.577 103.564 519.787C119.065 535.42 133.447 550.495 135.524 553.287C140.909 560.525 142.903 566.799 148.506 594.139C160.663 653.457 166.825 671.824 191.371 721.909C196.37 732.11 202.01 744.485 203.905 749.409C208.194 760.557 212.527 769.837 212.54 767.904C212.564 764.321 201.255 722.312 197.67 712.667C192.478 698.698 186.983 680.831 180.199 655.863C174.44 634.668 168.472 591.457 167.077 560.863C166.764 553.988 166.291 545.438 166.027 541.863C165.428 533.768 166.946 507.128 168.633 496.112C169.875 488.003 169.856 487.818 167.553 485.366C166.263 483.994 165.544 482.535 165.954 482.125C166.364 481.715 167.139 482.163 167.675 483.121C168.211 484.079 169.077 484.863 169.6 484.863C171.394 484.863 170.548 482.765 167.8 480.4C166.287 479.098 165.376 477.706 165.775 477.306C166.174 476.907 167.373 477.656 168.439 478.971C170.816 481.903 171.2 481.565 171.973 475.863L172.584 471.363L161.317 456.699C146.657 437.62 142.446 431.824 141.861 429.921C141.155 427.623 143.428 430.47 158.941 451.315C168.115 463.642 173.169 469.644 173.823 468.99C175.116 467.697 173.738 465.574 159.131 446.364C147.458 431.012 143.642 427.07 141.644 428.305C141.098 428.643 140.141 427.968 139.519 426.805C137.443 422.926 137.54 425.444 139.716 431.939C141.127 436.149 143.374 440.048 146.237 443.252C148.64 445.941 150.359 448.388 150.057 448.689C149.755 448.991 148.133 447.691 146.452 445.8C144.417 443.511 143.619 443.031 144.062 444.363C145.976 450.112 148.654 462.092 148.14 462.606C147.415 463.332 148.627 465.526 138.181 444.566C133.302 434.777 129.11 426.97 128.864 427.216C127.273 428.806 140.21 481.975 145.508 495.624C147.674 501.203 148.215 504.943 146.621 503.313C146.11 502.791 143.277 496.948 140.326 490.329C135.121 478.655 117.427 445.653 116.741 446.339C116.554 446.526 117.993 452.683 119.939 460.021C124.059 475.557 130.797 507.622 130.272 509.197C129.862 510.428 115.904 484.036 106.259 463.79C95.8016 441.841 82.1036 408.483 77.0306 392.613C74.4366 384.5 71.9776 377.863 71.5656 377.863C71.1526 377.863 72.0516 383.151 73.5626 389.613ZM40.7316 402.363C40.6196 404.563 40.2786 408.163 39.9736 410.363C39.5326 413.544 39.6466 414.005 40.5316 412.616C41.1586 411.633 41.4896 408.138 41.2896 404.616C41.0636 400.63 40.8616 399.813 40.7316 402.363ZM204.156 403.863C203.716 406.338 202.499 412.784 201.453 418.187C199.466 428.444 199.212 430.534 200.056 429.69C200.948 428.798 205.63 403.44 205.286 401.363C205.105 400.263 204.596 401.388 204.156 403.863ZM42.8356 411.363C42.8436 414.113 43.0376 415.119 43.2676 413.599C43.4966 412.079 43.4906 409.829 43.2536 408.599C43.0166 407.369 42.8286 408.613 42.8356 411.363ZM44.6856 414.672C44.6106 416.492 44.9616 417.727 45.4646 417.416C45.9676 417.105 46.6066 417.416 46.8856 418.107C47.1906 418.865 47.4226 418.669 47.4706 417.613C47.5136 416.651 47.1306 415.863 46.6196 415.863C46.1076 415.863 45.4936 414.851 45.2556 413.613C44.9476 412.017 44.7826 412.324 44.6856 414.672ZM175.129 429.477C173.587 435.799 172.601 441.248 172.938 441.584C173.275 441.921 173.55 441.905 173.55 441.549C173.55 441.192 174.858 435.943 176.457 429.884C178.056 423.824 179.043 418.667 178.649 418.424C178.255 418.181 176.671 423.155 175.129 429.477ZM207.55 418.863C207.55 419.413 208 419.863 208.55 419.863C209.1 419.863 209.55 419.413 209.55 418.863C209.55 418.313 209.1 417.863 208.55 417.863C208 417.863 207.55 418.313 207.55 418.863ZM171.687 426.466C171.063 428.723 170.334 432.773 170.068 435.466C169.67 439.501 169.937 438.966 171.588 432.425C173.642 424.284 173.729 419.082 171.687 426.466ZM150.717 432.674C151.394 434.322 169.023 457.723 169.345 457.401C170.04 456.706 162.472 442.863 161.398 442.863C160.218 442.863 157.637 439.948 157.582 438.554C157.564 438.109 158.089 438.078 158.748 438.485C159.407 438.893 159.065 437.718 157.989 435.875C156.912 434.032 155.361 432.313 154.541 432.056C153.654 431.778 154.031 432.656 155.471 434.222C156.802 435.67 157.639 437.108 157.33 437.417C157.021 437.725 155.788 436.602 154.591 434.921C152.654 432.2 149.855 430.577 150.717 432.674ZM316.751 435.32C316.136 436.672 311.203 442.409 305.789 448.07C282.861 472.046 278.838 477.295 294.814 462.391C301.834 455.841 308.489 448.936 309.604 447.047C313.487 440.465 312.557 444.631 308.153 453.547C297.02 476.083 284.402 511.157 278.131 536.999C276.711 542.849 275.586 548.474 275.629 549.499C275.72 551.641 276.796 548.602 282.586 529.863C288.479 510.788 298.133 485.302 309.232 459.516C321.336 431.398 320.789 432.863 319.186 432.863C318.463 432.863 317.367 433.969 316.751 435.32ZM161.561 461.913C161.567 462.711 163.847 465.838 166.629 468.863C172.172 474.893 172.193 473.921 166.671 466.863C161.541 460.306 161.549 460.314 161.561 461.913ZM164.55 471.176C164.55 471.348 165.9 472.782 167.55 474.363C171.188 477.848 171.593 476.997 168.005 473.408C165.68 471.084 164.55 470.354 164.55 471.176ZM231.881 475.332C229.276 477.937 228.491 479.495 228.731 481.582C228.997 483.906 229.583 484.414 232.29 484.676C234.775 484.915 236.119 484.352 238.064 482.254C245.541 474.185 239.637 467.576 231.881 475.332ZM233.14 476.549C230.066 479.864 229.817 481.863 232.477 481.863C234.556 481.863 238.822 477.178 238.264 475.506C237.576 473.44 235.662 473.83 233.14 476.549ZM234.056 477.857C233.057 478.96 232.705 479.863 233.273 479.863C234.531 479.863 237.025 477.005 236.353 476.333C236.088 476.068 235.054 476.753 234.056 477.857ZM239.278 483.588C237.04 485.827 235.69 486.331 232.278 486.2C228.074 486.039 228.028 486.076 224.132 492.7C219.422 500.709 208.565 515.212 207.83 514.477C207.542 514.188 209.798 510.64 212.845 506.593C218.466 499.124 224.917 488.863 223.991 488.863C221.976 488.863 213.575 494.21 213.065 495.816C212.104 498.843 207.655 501.863 204.165 501.859C202.452 501.857 199.577 500.957 197.776 499.859C193.621 497.326 181.269 497.001 178.908 499.363C178.083 500.187 175.699 501.135 173.61 501.469L169.813 502.077L169.158 508.22C168.533 514.086 168.628 514.464 171.277 516.602C177.909 521.958 193.402 524.303 204.07 521.567C217.974 518 233.697 508.789 240.577 500.181C244.206 495.639 244.564 492.958 242.728 484.088L242.05 480.814L239.278 483.588ZM199.005 492.318C195.978 495.344 195.94 496.323 198.773 498.306C203.347 501.51 210.463 499.286 211.992 494.174C213.389 489.499 203.269 488.053 199.005 492.318ZM171.55 491.828C171.55 492.358 172.45 493.274 173.55 493.863C176.259 495.313 176.066 496.695 173.05 497.452C170.373 498.124 169.605 499.863 171.985 499.863C177.887 499.863 180.517 495.354 176.327 492.42C173.821 490.664 171.55 490.382 171.55 491.828ZM201.672 493.767C199.802 494.951 201.161 496.867 203.859 496.848C206.782 496.827 208.97 495.352 208.119 493.975C207.303 492.655 203.616 492.535 201.672 493.767ZM202.55 494.863C202.55 495.413 203.45 495.863 204.55 495.863C205.65 495.863 206.55 495.413 206.55 494.863C206.55 494.313 205.65 493.863 204.55 493.863C203.45 493.863 202.55 494.313 202.55 494.863ZM171.363 495.546C172.084 495.835 172.947 495.799 173.279 495.467C173.611 495.135 173.021 494.899 171.967 494.942C170.802 494.99 170.565 495.227 171.363 495.546ZM508.05 523.568C503.65 526.648 500.914 528.858 501.97 528.481C503.075 528.086 504.2 528.296 504.619 528.975C505.807 530.896 508.382 529.202 509.94 525.473C510.769 523.489 512.714 521.312 514.471 520.404C517.404 518.887 518.421 517.801 516.8 517.916C516.387 517.945 512.45 520.489 508.05 523.568ZM239.731 526.029C233.787 532.918 233.75 532.718 241.8 537.331L246.55 540.053L246.48 531.708C246.374 519.108 245.985 518.78 239.731 526.029ZM232.291 530.265C230.518 532.038 218.256 538.196 213.3 539.802C211.238 540.471 209.558 541.321 209.568 541.691C209.588 542.454 219.608 549.178 219.99 548.684C220.127 548.507 222.897 544.763 226.145 540.363C229.393 535.963 232.613 531.768 233.3 531.042C235.544 528.67 234.607 527.949 232.291 530.265ZM484.89 532C485.238 533.299 485.529 535.151 485.536 536.113C485.544 537.075 485.928 537.863 486.389 537.863C487.209 537.863 489.907 532.835 489.337 532.369C489.179 532.24 487.972 531.572 486.654 530.885C484.402 529.711 484.296 529.779 484.89 532ZM228.707 539.874C226.353 543.09 223.779 546.258 222.988 546.914C222.197 547.571 221.55 548.512 221.55 549.006C221.55 549.977 234.867 558.888 236.225 558.825C237.048 558.787 243.905 549.521 246.329 545.17C247.532 543.01 247.297 542.678 242.329 539.519C232.611 533.341 233.507 533.317 228.707 539.874ZM488.753 537.715C487.562 539.834 486.88 541.86 487.238 542.217C487.771 542.751 492.55 535.593 492.55 534.261C492.55 532.691 490.559 534.502 488.753 537.715ZM132.555 537.701C132.558 538.065 133.688 539.713 135.067 541.363L137.574 544.363L136.922 541.363C136.562 539.713 136.094 538.162 135.88 537.917C135.229 537.17 132.55 536.996 132.555 537.701ZM125.423 539.363C126.962 542.159 137.327 552.419 137.967 551.779C138.257 551.49 135.305 548.128 131.408 544.308C127.511 540.488 124.818 538.263 125.423 539.363ZM168.579 545.113L168.609 550.363L171.722 546.938L174.835 543.512L172.582 541.688C169.144 538.904 168.547 539.415 168.579 545.113ZM131.55 542.464C131.55 543.76 138.36 550.386 139.017 549.73C139.29 549.457 137.722 547.483 135.532 545.345C133.342 543.207 131.55 541.91 131.55 542.464ZM204.55 542.572C203.318 542.895 193.55 555.787 193.55 557.089C193.55 558.251 206.811 566.983 207.453 566.244C208.224 565.357 216.531 553.333 217.823 551.235C218.459 550.201 215.972 548.177 208.55 543.69C207.175 542.858 205.375 542.355 204.55 542.572ZM490.674 545.377C488.322 549.363 488.176 549.863 489.365 549.863C490.307 549.863 493.844 542.824 493.217 542.196C492.986 541.966 491.842 543.398 490.674 545.377ZM184.05 549.3C187.9 552.866 191.299 555.802 191.603 555.824C191.907 555.845 194.031 553.204 196.323 549.954L200.49 544.046L191.77 544.204C186.974 544.292 181.7 544.015 180.05 543.589C177.434 542.915 177.945 543.645 184.05 549.3ZM172.3 548.914C170.097 552.099 169.55 554.009 169.55 558.514C169.55 563.949 169.711 564.286 174.3 568.479C176.912 570.866 179.295 572.829 179.595 572.841C180.628 572.883 190.62 557.786 190.108 556.957C189.48 555.941 175.982 544.848 175.439 544.901C175.225 544.922 173.813 546.728 172.3 548.914ZM242.173 554.47C238.3 560.049 238.298 560.056 240.292 562.049C242.03 563.787 242.562 563.873 244.418 562.713C246.1 561.663 246.55 560.395 246.55 556.704C246.55 554.132 246.823 551.315 247.157 550.445C248.456 547.058 245.867 549.15 242.173 554.47ZM214.119 559.765C211.056 564.112 208.55 567.89 208.55 568.161C208.55 568.432 210.735 570.057 213.405 571.77C216.076 573.484 219.071 575.781 220.06 576.874C221.05 577.968 222.173 578.863 222.555 578.863C223.372 578.863 234.55 562.269 234.55 561.056C234.55 560.145 221.944 551.863 220.557 551.863C220.079 551.863 217.182 555.419 214.119 559.765ZM190.463 561.144C184.545 569.417 181.553 573.946 181.57 574.603C181.605 575.901 194.522 584.998 195.485 584.403C196.466 583.797 205.755 568.669 205.315 568.394C205.169 568.303 202.322 566.121 198.988 563.546C195.654 560.97 192.729 558.877 192.488 558.894C192.247 558.912 191.336 559.924 190.463 561.144ZM232.055 568.96C229.49 572.853 227.542 576.188 227.725 576.371C228.241 576.887 240.55 565.785 240.55 564.803C240.55 564.325 239.688 563.472 238.634 562.908C236.959 562.011 236.132 562.773 232.055 568.96ZM170.399 573.612C170.932 582.406 173.032 584.056 176.515 578.419L178.644 574.976L174.847 571.446C172.759 569.505 170.825 567.904 170.55 567.889C170.275 567.873 170.207 570.448 170.399 573.612ZM201.865 578.135L196.68 586.363L199.365 588.603C201.214 590.146 202.829 590.67 204.55 590.285C207.971 589.521 220.817 582.563 221.26 581.234C221.532 580.418 208.423 569.776 207.279 569.885C207.153 569.897 204.717 573.609 201.865 578.135ZM177.663 579.704C176.501 581.336 175.55 582.921 175.55 583.225C175.55 583.967 183.155 588.384 187.703 590.283C191.234 591.758 191.407 591.73 192.898 589.454C194.402 587.159 194.289 586.981 188.413 582.418C185.098 579.843 181.798 577.512 181.081 577.236C180.363 576.961 178.826 578.072 177.663 579.704ZM194.545 589.873C193.59 591.656 193.795 591.863 196.515 591.863C200.015 591.863 200.398 590.874 197.58 589.114C195.906 588.068 195.449 588.182 194.545 589.873ZM105.861 680.363C108.916 691.282 111.56 699.833 116.162 713.674C122.797 733.632 124.008 742.995 123.108 767.363C122.762 776.713 122.452 793.138 122.419 803.863L122.358 823.363L126.904 837.215C129.405 844.834 131.972 853.609 132.609 856.715C134.536 866.117 135.729 866.273 135.029 857.032C134.221 846.356 132.384 839.404 128.311 831.606L125.05 825.363L125.497 806.863C125.742 796.688 125.933 776.663 125.921 762.363L125.898 736.363L122.319 725.863C110.709 691.804 106.332 679.316 105.847 678.868C105.547 678.59 105.553 679.263 105.861 680.363ZM250.871 709.718C244.144 712.043 238.565 715.883 238.557 718.196C238.553 719.205 238.887 719.859 239.3 719.651C253.606 712.437 253.842 712.363 262.55 712.363C270.215 712.363 271.59 712.668 276.55 715.473C280.982 717.978 282.581 719.629 284.783 723.973C286.287 726.937 287.524 730.652 287.533 732.226C287.549 734.91 287.754 735.053 290.8 734.495C305.925 731.727 311.724 732.872 318.677 740C325.441 746.934 328.926 756.966 328.868 769.334C328.765 791.369 320.673 806.565 304.924 814.303C296.195 818.591 291.092 818.773 283.191 815.076C279.63 813.409 275.947 810.873 275.008 809.44C270.837 803.074 272.749 790.905 278.822 785.157C283.224 780.992 285.711 779.863 290.484 779.863C294.533 779.863 295.182 779.352 293.785 777.267C292.204 774.91 287.583 774.793 282.494 776.983C274.275 780.518 268.55 788.962 268.55 797.548C268.55 805.874 274.872 816.91 281.65 820.415C285.304 822.304 285.427 825.437 282.126 832.527C279.018 839.202 273.634 844.499 265.537 848.846C260.053 851.79 258.045 852.331 252.55 852.346C243.717 852.369 239.942 850.123 236.175 842.603C234.594 839.446 232.724 836.863 232.019 836.863C231.314 836.863 229.176 839.036 227.268 841.693C225.359 844.349 221.718 847.837 219.176 849.443C216.499 851.134 214.553 853.114 214.552 854.148C214.549 856.788 217.14 855.091 224.097 847.899C227.324 844.563 230.368 841.969 230.862 842.134C231.356 842.298 232.349 844.147 233.07 846.243C234.7 850.984 237.883 854.459 242.997 857.081C254.061 862.753 275.802 853.498 282.271 840.363C282.812 839.263 284.096 834.988 285.123 830.863C286.92 823.649 288.106 821.471 289.701 822.456C291.203 823.385 304.192 820.696 309.17 818.427C315.422 815.576 321.854 809.913 325.045 804.447C326.356 802.201 328.631 796.313 330.101 791.363C335.424 773.433 333.516 753.479 325.31 741.268C319.477 732.588 312.617 729.534 298.709 729.427L290.368 729.363L289.044 725.518C286.948 719.43 281.57 713.978 274.05 710.317C267.887 707.316 258.521 707.074 250.871 709.718ZM259.773 739.42C257.968 740.684 257.546 741.952 257.527 746.17C257.477 757.309 248.518 766.677 239.05 765.491C236.85 765.216 234.037 764.684 232.8 764.31C230.972 763.757 230.55 764.018 230.55 765.699C230.55 767.239 231.51 768.036 234.3 768.81C242.453 771.075 247.98 769.197 255.247 761.696C260.688 756.079 263.5 749.767 263.528 743.113C263.552 737.437 263.157 737.049 259.773 739.42ZM195.758 745.961C191.668 750.145 189.638 756.383 188.874 767.113L188.251 775.863H184.465C178.189 775.863 175.431 777.537 166.55 786.736C160.313 793.196 157.168 795.713 154.738 796.189C150.96 796.929 145.925 795.149 140.854 791.281L137.55 788.761V794.631C137.55 810.063 149.474 831.243 161.63 837.403C165.418 839.323 168.028 839.863 173.517 839.863C180.139 839.863 180.551 839.994 180.566 842.113C180.612 848.36 190.176 857.644 197.09 858.151C201.443 858.471 201.668 855.297 197.35 854.481C195.535 854.138 192.649 853.002 190.937 851.958C180.107 845.351 181.391 820.156 192.845 814.522C196.558 812.695 197.39 812.753 203.552 815.273C204.45 815.64 205.544 815.103 206.271 813.937C207.343 812.222 207.088 811.741 204.151 809.926C193.977 803.638 181.421 812.879 179.781 827.863C179.158 833.554 178.096 834.863 174.106 834.863C161.318 834.863 147.46 821.393 141.966 803.625C139.972 797.174 140.376 795.928 143.708 798.261C146.899 800.496 154.084 800.267 159.25 797.766C161.637 796.61 165.922 792.978 168.797 789.672C174.824 782.743 177.925 780.863 183.326 780.863C189.512 780.863 191.192 778.239 192.486 766.555C193.625 756.266 195.368 750.75 198.552 747.361C199.703 746.135 200.145 744.825 199.667 744.052C199.083 743.108 198.058 743.609 195.758 745.961ZM432.142 772.113C431.187 775.551 428.639 783.056 426.478 788.792C422.144 800.299 421.505 803.496 424.764 797.363C426.709 793.704 435.55 768.542 435.55 766.667C435.55 766.225 435.174 765.863 434.714 765.863C434.254 765.863 433.097 768.676 432.142 772.113ZM415.723 823.547C411.325 835.231 410.484 840.094 414.458 830.854C416.928 825.112 420.855 812.829 420.37 812.36C420.194 812.19 418.103 817.224 415.723 823.547ZM395.629 875.737C395.501 877.962 379.382 915.022 371 932.363C359.917 955.289 333.872 998.032 328.029 1002.88C327.164 1003.6 325.543 1005.58 324.427 1007.27C319.424 1014.89 332.453 999.214 340.343 988.126C355.383 966.989 375.338 931.545 383.981 910.617C389.55 897.133 396.645 876.619 396.151 875.43C395.907 874.843 395.672 874.981 395.629 875.737ZM461.453 951.144C460.401 964.373 468.34 977.959 477.965 979.403C483.712 980.264 487.791 979.324 487.366 977.235C487.145 976.145 485.637 975.59 482.338 975.385C472.727 974.786 465.485 967.11 464.734 956.725C464.469 953.072 463.816 950.795 462.934 950.457C462.173 950.165 461.506 950.474 461.453 951.144Z" fill="#201B19"></path> <path d="M471.8 8.57927C473.313 8.80827 475.787 8.80827 477.3 8.57927C478.813 8.35027 477.575 8.16327 474.55 8.16327C471.525 8.16327 470.287 8.35027 471.8 8.57927Z" fill="#FAF5E5"></path> <path d="M510.363 18.5463C511.084 18.8353 511.947 18.7993 512.279 18.4673C512.611 18.1353 512.021 17.8993 510.967 17.9423C509.802 17.9903 509.565 18.2273 510.363 18.5463Z" fill="#FAF5E5"></path> <path d="M519.05 19.9203C524.116 20.9683 528.209 20.9213 524.05 19.8633C522.4 19.4433 519.7 19.0983 518.05 19.0963C515.528 19.0943 515.687 19.2253 519.05 19.9203Z" fill="#FAF5E5"></path> <path d="M464.55 81.8583C464.55 82.8073 475.492 86.2553 476.213 85.5333C476.46 85.2863 473.937 84.1643 470.606 83.0393C467.275 81.9143 464.55 81.3833 464.55 81.8583Z" fill="#FAF5E5"></path> <path d="M344.509 49.9513C352.295 51.1613 359.55 54.1963 359.55 56.2433C359.55 57.5413 356.447 60.5753 342.05 73.3583L339.05 76.0213L343.419 73.6923C347.536 71.4983 364.55 56.4583 364.55 55.0143C364.55 53.5763 351.683 49.8943 345.05 49.4333L338.05 48.9473L344.509 49.9513Z" fill="#FAF5E5"></path> <path d="M335.615 44.9983C328.927 46.1083 327.941 46.8573 333.133 46.8823C336.943 46.9013 353.523 49.1583 358.55 50.3423C359.925 50.6663 357.937 49.3413 354.132 47.3973C346.945 43.7253 344.892 43.4603 335.615 44.9983Z" fill="#FAF5E5"></path> <path d="M354.05 32.8193C349.564 34.9623 344.489 38.8073 346.1 38.8413C346.678 38.8533 347.578 38.4353 348.101 37.9123C348.625 37.3883 351.527 35.5963 354.551 33.9303C360.646 30.5713 360.31 29.8273 354.05 32.8193Z" fill="#FAF5E5"></path> <path d="M332.915 42.3653C327.176 44.1753 324.389 45.7933 325.081 46.9133C325.404 47.4363 326.429 47.8313 327.359 47.7933C328.806 47.7333 328.78 47.6163 327.179 46.9873C324.589 45.9693 331.974 43.7823 340.3 43.1013C343.738 42.8193 346.55 42.2013 346.55 41.7263C346.55 40.4483 337.673 40.8643 332.915 42.3653Z" fill="#FAF5E5"></path> <path d="M356.3 65.3883C352.587 68.9403 347.075 73.2433 344.05 74.9503C337.454 78.6723 335.864 80.5893 341.209 78.3743C349.666 74.8693 359.004 67.0283 362.954 60.1133C364.154 58.0133 363.304 58.6863 356.3 65.3883Z" fill="#FAF5E5"></path> <path d="M341.044 65.8693C340.046 66.9733 339.465 68.1123 339.754 68.4003C340.043 68.6893 341.025 67.7863 341.938 66.3943C343.931 63.3533 343.533 63.1193 341.044 65.8693Z" fill="#FAF5E5"></path> <path d="M335.55 52.2953C335.55 52.5323 337.012 53.7373 338.8 54.9723L342.05 57.2183L339.626 54.5413C337.464 52.1533 335.55 51.0983 335.55 52.2953Z" fill="#FAF5E5"></path> <path d="M352.681 80.0393C353.434 81.5113 356.3 84.4113 359.05 86.4833C367.606 92.9323 377.463 102.013 378.106 104.04C378.444 105.106 379.826 106.398 381.177 106.911C382.528 107.425 384.402 109.248 385.341 110.963C386.281 112.679 387.838 115.045 388.802 116.223C390.449 118.235 390.514 118.244 389.893 116.363C388.63 112.545 380.137 100.656 378.099 99.8553C376.972 99.4123 374.25 97.3753 372.05 95.3303C369.85 93.2843 366.025 90.0053 363.55 88.0423C361.075 86.0803 357.309 82.8743 355.181 80.9193C351.612 77.6383 351.418 77.5703 352.681 80.0393Z" fill="#FAF5E5"></path> <path d="M379.109 96.3133C379.992 97.6603 382.147 99.6083 383.898 100.641C387.62 102.837 393.55 104.222 393.55 102.895C393.55 101.33 389.238 98.8633 386.502 98.8633C385.018 98.8633 382.889 97.7883 381.55 96.3633C378.54 93.1593 377.022 93.1283 379.109 96.3133Z" fill="#FAF5E5"></path> <path d="M389.05 96.8633C389.39 97.4133 390.118 97.8633 390.668 97.8633C391.218 97.8633 391.39 97.4133 391.05 96.8633C390.71 96.3133 389.982 95.8633 389.432 95.8633C388.882 95.8633 388.71 96.3133 389.05 96.8633Z" fill="#FAF5E5"></path> </svg> 