<?xml version="1.0" encoding="UTF-8"?> <svg xmlns="http://www.w3.org/2000/svg" width="256" height="278" viewBox="0 0 256 278" fill="none"> <path d="M99.8193 195.791C99.6416 196.162 99.6614 196.504 99.9302 196.729C100.457 197.166 101.022 197.559 101.544 197.95C101.935 198.707 101.731 199.407 101.198 199.861C99.4758 201.315 97.6061 202.602 95.9272 204.093C93.4402 206.302 90.518 207.847 87.7989 209.699C86.7679 210.406 85.6109 210.754 84.3451 210.726L84.4822 210.678C83.8172 211.718 83.3372 212.829 83.1878 214.054C83.5417 215.583 85.1248 215.351 86.0588 216.053C86.8926 216.672 87.8132 217.201 88.7605 217.637C89.8717 218.152 91.0442 218.521 92.161 218.952C93.9423 218.946 95.705 219.108 97.4158 218.902C101.589 218.404 105.608 217.403 109.348 215.269C114.232 212.464 116.52 211.238 120.81 207.991C124.426 205.254 128.245 202.807 131.807 200C133.175 198.92 134.511 197.834 135.774 196.625C137.27 195.185 138.901 193.811 140.798 192.888C142.078 192.266 143.201 191.367 144.132 190.393C145.605 188.855 147.3 187.695 149.063 186.559C150.815 185.427 152.415 184.063 154.105 182.84C156.225 181.305 158.392 179.837 160.73 178.652C160.982 178.528 161.377 178.691 161.706 178.717L161.478 178.81C161.768 178.37 161.96 177.822 162.351 177.519C163.726 176.442 165.097 175.337 166.598 174.453C168.426 173.383 170.073 172.104 171.709 170.793C175.929 167.399 180.446 164.392 184.547 160.844C186.934 159.394 189.313 157.94 191.71 156.503C193.513 155.43 195.301 154.332 197.155 153.371C198.392 152.728 199.391 151.848 200.362 150.902C200.349 150.563 200.337 150.224 200.331 149.888C200.839 149.816 201.343 149.751 201.858 149.682C202.03 148.538 200.672 148.684 200.384 147.932C200.205 147.593 200.188 147.207 200.477 146.952C201.679 145.906 202.52 144.591 203.332 143.245C204.054 142.048 205.393 141.358 205.943 139.991C206.404 138.845 207.363 138.033 208.139 137.09C209.127 135.889 209.791 134.411 210.617 133.018C210.979 132.701 211.412 132.383 211.763 131.999C212.12 131.6 212.313 131.088 212.174 130.556C212.048 130.05 211.892 129.536 211.637 129.081C210.781 127.557 209.974 125.987 208.958 124.58C207.106 122.026 205.52 119.32 203.931 116.604C203.411 115.715 202.723 114.92 202.278 114.313C201.513 113.788 200.982 113.963 200.563 114.253C196.798 116.788 192.794 118.962 189.088 121.594C187.917 122.427 186.73 123.094 185.298 123.284C183.409 122.913 182.065 122.006 181.864 119.719C182.557 116.939 184.294 114.484 185.74 111.89C187.862 110.479 188.214 107.641 190.336 106.231C190.948 105.174 191.556 104.107 192.106 103.16C192.206 101.526 191.303 100.356 190.833 99.0528C190.6 98.4239 190.236 97.8291 190.475 97.1109C191.437 96.8968 192.119 97.5216 193.064 98.036C195.295 100.675 197.938 103.221 200.174 106.125C203.262 110.139 206.333 114.17 209.407 118.194C210.791 120.006 211.873 122.006 212.973 123.989C213.575 125.075 214.322 126.038 215.087 126.983C215.505 127.499 216.193 127.802 216.708 128.172C217.122 127.984 217.434 127.845 217.746 127.705C219.263 124.54 220.777 121.383 222.3 118.204C222.294 116.956 222.292 115.736 222.296 114.52C222.3 111.551 222.421 108.593 223.385 105.742C223.494 103.795 224.072 101.969 224.873 100.205C225.024 99.8916 225.233 99.5451 225.221 99.2236C225.148 97.5668 225.899 96.1649 226.493 94.7054C227.342 92.6054 228.568 90.6333 228.617 88.2639C229.419 86.3166 230.228 84.3728 230.989 82.5288C231.251 80.1735 231.776 77.9445 231.469 75.4397C231.035 73.9693 230.552 72.2911 230.053 70.5885C230.343 69.7281 230.616 68.9033 230.906 68.0606C231.108 66.6148 229.982 65.4353 230.031 63.8719C230.391 63.4487 230.818 62.9431 231.255 62.4337C231.239 60.1821 231.2 60.1898 229.637 57.3455C229.087 57.0119 228.345 56.5683 227.345 55.9665C226.911 55.3374 226.31 54.4885 225.705 53.629C225.945 53.3846 226.135 53.1162 226.394 52.9599C227.101 52.5096 227.21 51.8255 227.032 51.1356C226.862 50.4667 226.614 49.778 226.233 49.2011C224.899 47.159 223.75 44.9865 222.219 43.0608C221.021 41.5573 219.778 40.0935 218.66 38.532C216.713 35.8109 214.071 33.7731 211.763 31.4045C211.044 30.6742 209.918 30.3537 209.189 29.6271C207.029 27.4787 204.289 26.3052 201.678 24.8962C200.145 24.0735 198.519 23.4256 197.302 22.0533C196.754 21.4403 195.803 21.177 195.012 20.7979C187.737 17.3109 180.463 13.8239 173.184 10.344C172.707 10.1151 172.239 9.79422 171.739 9.72131C168.377 9.24053 165.537 7.397 162.456 6.18324C162.132 6.05435 161.795 5.95397 161.592 5.88314C158.266 5.43711 155.609 6.52117 153.083 9.15851L150.643 14.2478C150.389 16.3874 150.682 18.2809 151.224 20.0924C150.996 20.4215 150.803 20.6969 150.499 21.1298C149.435 21.3386 148.237 21.5709 146.757 21.8609C144.343 23.351 141.282 24.3994 139.534 27.2782C139.087 28.0104 138.397 28.5912 137.605 29.4742L135.432 34.0075C135.357 34.988 135.271 36.0253 135.193 37.066C135.344 38.3043 135.71 39.4612 136.518 40.4445C137.788 41.413 139.254 41.9929 140.727 42.5761C141.382 42.8373 142.061 43.3032 142.7 43.25C144.521 43.1062 146.101 43.9952 147.827 44.2349C152.159 44.8478 156.496 45.0859 160.853 45.0444C163.168 45.0231 165.385 44.6747 167.505 43.5608C168.423 42.6156 169.806 42.0515 170.546 40.4164C170.623 39.4889 170.73 38.278 170.843 36.9999C170.379 36.085 169.904 35.1562 169.389 34.1644C168.725 33.9422 168.079 33.589 167.411 33.5401C165.801 33.4258 164.303 33.0763 162.99 32.105C162.911 32.4528 162.713 32.647 162.401 32.6204C162.292 32.6117 162.102 32.477 162.115 32.4308C162.268 31.8025 162.683 32.1243 163.024 32.1999C163.099 32.043 163.148 31.8124 163.278 31.7431C164.517 31.0576 165.866 30.7486 167.276 30.7142C168.671 30.6731 170.07 30.6601 171.724 30.6288C173.125 31.1426 174.757 31.7408 176.275 32.3021C178.996 31.1958 180.095 28.5754 182.939 26.4064C184.066 25.7193 186.199 24.9799 188.454 24.7369C188.844 24.8364 189.191 24.8977 189.522 25.0123C191.199 25.5533 192.836 26.2328 194.205 27.3445C195.415 28.3282 196.495 29.4766 197.556 30.6254C198.503 31.6488 199.352 32.7658 200.211 33.8614C202.095 36.2548 203.293 39.0027 203.629 41.9949C203.952 44.8672 204.916 47.4069 206.51 49.7663C206.873 50.3082 207.197 50.9108 206.885 51.7256C205.145 51.4438 203.696 50.3546 201.888 49.83C201.15 49.853 200.281 49.8747 199.232 49.9065C198.535 50.5015 197.747 51.1759 197.064 51.7601C196.828 53.8498 196.925 55.4685 197.356 56.616C198.416 57.6588 199.937 58.1776 201.324 58.886C202.725 59.6013 204.163 60.2559 205.567 60.9287C207.245 63.2231 207.464 65.8001 207.257 68.6989L205.026 73.3534C204.287 73.9456 203.467 74.5958 202.494 75.3828C201.149 75.7024 199.587 75.9443 198.115 76.457C196.65 76.973 195.274 77.7598 194.008 78.3538C191.816 78.1184 190.322 76.7012 188.344 76.13C186.544 76.9415 184.639 77.7902 182.685 78.668C181.67 78.5932 180.626 78.5224 179.508 78.4422C177.012 77.3247 174.462 76.155 171.888 75.0529C169.97 74.2297 168.173 73.0968 165.977 72.9994C165.315 72.9717 164.672 72.523 164.031 72.2509C162.262 71.4817 160.499 70.6983 158.819 69.963C157.663 69.9258 156.616 69.8975 155.52 69.8629C154.707 70.0958 153.874 70.3361 153.75 70.3735C152.765 71.0759 150.057 74.2042 149.716 74.7685C149.176 75.6755 148.827 76.7702 148.092 77.4613C146.384 79.0703 145.406 81.1089 144.326 83.1068C143.572 84.4982 142.119 85.3358 141.501 86.8628C140.978 88.1548 140.184 89.3348 139.505 90.5694C137.409 92.5278 136.375 95.179 134.98 97.5958C132.728 99.8821 131.539 102.836 130.012 105.584C129.84 105.887 129.701 106.25 129.45 106.463C127.759 107.853 127.047 109.887 126.02 111.7C125.587 112.457 125.255 113.279 124.892 114.035C122.502 116.079 121.324 118.811 120.221 121.587L120.155 121.432C120.522 121.599 120.911 121.61 121.093 121.339C121.88 120.191 122.455 118.827 123.436 117.895C124.484 116.898 125.203 115.744 125.944 114.565C126.212 114.133 126.591 113.762 126.96 113.395C128.813 111.54 130.591 109.64 131.771 107.251C131.997 106.781 132.253 106.264 132.644 105.96C133.939 104.942 134.579 103.496 135.37 102.139C135.631 101.686 135.823 101.12 136.207 100.813C137.801 99.5704 138.474 97.7279 139.462 96.0886C139.819 95.4887 140.13 94.8047 140.642 94.3754C141.754 93.4269 142.309 92.1414 143.01 90.9347C143.704 89.7246 144.229 88.337 145.167 87.349C146.285 86.1671 147.001 84.8011 147.749 83.4239C148.586 81.8791 149.219 80.1928 150.267 78.8105C151.312 77.4354 152.306 76.0011 153.445 74.5749C154.441 74.2895 155.424 73.9017 156.439 73.7574C157.332 73.6328 158.154 73.9831 158.53 74.9348C158.069 75.4587 157.621 75.9718 157.09 76.5675C157.472 76.9959 157.728 77.5042 158.13 77.706C162.851 80.0128 167.6 82.2803 172.345 84.5373C172.652 84.6841 173.012 84.6993 173.374 84.7851C174.389 84.6231 175.422 84.4607 176.36 84.3141C178.89 84.922 181.03 86.1057 183.068 87.5032C183.759 88.2905 184.584 89.0013 185.1 89.88C185.726 90.9512 187.139 91.3128 187.453 92.8135C186.563 94.7445 185.589 96.7937 184.68 98.8735C183.689 101.124 182.729 103.382 181.461 105.369C180.741 106.031 180.137 106.689 179.442 107.206C177.891 108.338 176.389 109.59 174.696 110.453C172.046 111.813 169.494 113.316 166.947 114.847C163.202 117.102 161.54 118.54 158.512 121.787C157.067 123.339 155.81 124.937 154.967 126.916C154.286 128.519 153.314 129.999 152.473 131.533C150.717 132.856 150.12 134.98 149.107 136.362C147.533 138.018 146.199 139.395 144.897 140.795C143.345 142.479 141.591 143.962 139.576 144.986C136.754 146.412 133.715 147.269 130.532 147.347C130.154 146.526 130.497 145.884 131.013 145.43C132.978 143.707 134.773 141.807 136.505 139.858C137.775 138.433 139.231 137.168 140.326 135.58C141.437 133.974 143.185 133.032 144.469 131.614C145.174 130.839 146.136 130.204 146.563 129.313C147.133 128.123 148.654 127.966 149.015 126.684C148.885 125.456 148.688 124.257 147.865 123.013C147.151 122.565 146.186 122.147 145.229 121.749C144.912 121.624 144.561 121.534 144.218 121.501C143.743 121.449 143.27 121.467 142.888 121.46C142.588 121.044 142.385 120.772 142.107 120.384C141.514 120.67 140.894 120.959 140.333 121.234C139.659 122.401 139.04 123.455 138.573 124.265C136.528 126.046 134.684 127.643 132.848 129.243C132.259 130.363 131.001 130.795 130.279 131.843C129.503 132.969 128.207 133.68 127.442 134.874C127.259 135.163 126.867 135.142 126.5 134.957C126.066 135.862 125.828 136.906 124.798 137.411C124.556 136.471 125.011 135.778 125.663 135.222C125.854 135.06 126.263 135.159 126.58 135.136C127.024 133.99 127.413 132.722 128.38 131.984C129.651 131.015 130.257 129.439 131.658 128.638C132.606 127.172 133.876 125.967 134.96 124.619C135.94 123.397 137.404 122.591 138.011 121.068C139.31 119.876 140.347 118.498 141.142 116.932C141.289 116.626 141.51 116.311 141.786 116.119C142.805 115.381 143.388 114.292 144.136 113.336C144.984 112.243 146.215 111.466 146.798 110.141C149.585 107.287 152.027 104.093 155.347 101.775C156.454 100.999 157.72 100.37 158.452 99.1346C157.173 94.6558 156.058 92.5958 154.006 90.99C153.193 91.8628 152.406 92.774 151.543 93.6051C150.148 94.9437 149.762 97.0465 148.059 98.1499C147.79 98.3277 147.626 98.6875 147.448 98.9874C146.195 101.07 145.218 103.31 143.47 105.11C142.643 105.958 142.165 107.175 141.656 108.291C141.06 109.609 139.664 110.254 139.056 111.541C138.069 113.636 136.326 115.132 134.834 116.819C134.491 117.207 133.973 117.502 133.771 117.94C132.949 119.729 131.329 120.898 130.313 122.506C129.279 124.149 127.586 125.213 126.703 126.964C126.484 127.403 125.855 127.618 125.583 128.04C124.618 129.506 123.128 130.492 122.177 131.982C120.796 134.152 117.319 138.279 115.581 140.023C113.86 141.749 112.088 143.415 110.144 144.894C109.149 145.653 108.07 146.187 106.828 146.346C106.154 146.435 105.462 146.436 104.847 146.475C103.783 147.306 102.791 148.023 101.868 148.816C101.338 149.263 100.92 149.825 100.44 150.332C97.9425 152.965 95.3014 155.477 92.9043 158.211C92.7482 158.391 92.2766 158.296 91.9554 158.326L92.1728 158.22C91.6095 159.212 91.0785 160.229 90.4725 161.201C90.2039 161.633 89.7002 161.733 89.1867 161.671L89.383 161.572C88.8232 162.558 88.2813 163.56 87.6821 164.518C87.417 164.943 86.9207 165.064 86.4109 165.013L86.5932 164.925C85.7167 166.424 85.162 168.148 83.5233 169.081C83.0833 169.834 82.7044 170.643 82.1929 171.345C81.4775 172.325 80.5902 173.171 79.8962 174.162C79.2024 175.17 78.8564 176.477 78.0147 177.301C76.0598 179.204 75.1532 181.662 74.0043 184.004C73.5428 184.949 73.2941 185.943 73.1383 186.999C72.9707 188.189 72.463 189.34 72.0205 190.793C71.9015 192.577 71.7627 194.658 71.5975 197.068C71.808 198.475 72.2281 200.158 73.073 201.667C73.787 202.097 74.434 201.899 75.1158 201.665C75.6079 201.498 76.1299 201.432 76.563 201.333C77.1386 201.521 77.741 201.617 77.7692 202.253C77.7807 202.522 77.4822 202.852 77.2597 203.078C77.0128 203.319 76.6578 203.438 76.3892 203.652C76.1277 203.868 75.8881 204.13 75.6734 204.395C75.3304 204.818 75.3146 205.144 75.4687 206.34C76.2886 206.768 77.185 206.47 77.9891 206.584C79.5585 207.02 80.7717 208.145 82.3353 208.448C82.4878 208.477 82.6733 208.364 82.8773 208.304C82.8868 207.809 82.9031 207.3 82.9162 206.596L84.8022 202.661C86.7137 201.123 87.7646 199.059 89.4606 197.531C91.1358 196.029 92.6092 194.29 94.4939 192.844C95.0866 192.777 95.7676 192.709 96.4449 192.631C96.4356 192.284 96.4227 191.927 96.4068 191.394C96.8144 191.037 97.2838 190.57 97.8037 190.161C99.3038 188.97 100.905 187.914 102.102 186.366C102.41 185.962 102.904 185.699 103.323 185.391C105.987 183.416 108.345 181.093 110.736 178.811C112.754 176.886 114.798 175.017 117.064 173.377C117.613 172.983 117.988 172.347 118.477 171.784C119.342 171.296 120.248 170.775 121.215 170.221C121.76 169.413 122.332 168.566 122.884 167.743C123.288 167.797 123.708 167.726 123.923 167.899C124.718 168.543 125.149 169.618 126.263 169.889L126.084 169.952C126.125 169.63 126.267 169.277 126.199 168.981C126.036 168.316 125.767 167.67 125.515 166.935C125.926 166.589 126.288 166.254 126.668 165.954C128.043 164.896 129.436 163.854 130.981 163.025C132.544 162.197 133.397 160.546 134.837 159.57C136.41 158.501 137.844 157.155 140.131 156.954C142.05 157.172 143.708 158.52 145.54 159.433C145.987 160.602 145.305 161.459 144.777 162.468C140.498 166.369 136.11 170.296 131.865 174.38C131.392 174.837 130.656 175.019 130.11 175.3C129.497 175.042 129.014 174.845 128.533 174.641L128.733 174.57C128.116 175.51 129.036 176.644 128.521 177.353C128.255 177.725 128.184 177.91 128.051 178.004C124.613 180.37 121.675 183.336 118.647 186.162C114.828 189.723 110.548 192.676 106.48 195.898C105.52 196.657 104.361 197.1 102.831 197.13C101.935 196.77 100.811 196.319 99.6863 195.867L99.8689 195.797L99.8193 195.791ZM125.21 196.452C125.498 195.889 125.65 195.225 126.363 194.998C126.443 196.167 126.453 196.181 125.129 196.238C124.91 196.641 124.715 197.065 124.449 197.437C124.152 197.856 123.739 197.913 123.28 197.683C123.078 198.104 122.923 198.573 122.643 198.938C122.401 199.261 122.086 199.241 121.976 199.013C121.918 198.88 121.868 198.69 121.912 198.562C122.152 197.879 122.606 197.571 123.346 197.838C123.378 197.222 123.41 196.606 123.443 195.991C123.601 195.953 123.776 195.844 123.9 195.895C124.345 196.046 124.776 196.262 125.207 196.442L125.21 196.452ZM117.173 202.417C116.444 203.207 115.735 203.972 115.023 204.744C114.127 205.261 113.109 205.65 112.346 206.327C109.712 208.659 106.704 210.364 103.592 211.922C103.129 212.156 102.648 212.373 102.259 212.563C101.322 212.727 100.454 212.838 99.6128 213.039C98.5953 213.279 97.6007 213.617 96.5943 213.889C96.0912 214.025 95.5732 214.118 95.0626 214.233C94.5238 214.351 93.7896 213.982 93.8644 213.588C93.9227 213.266 93.9758 212.844 94.192 212.667C96.8982 210.458 99.7238 208.42 103.18 207.535C104.897 207.096 106.374 206.173 107.857 205.271C109.638 204.188 111.402 203.087 113.157 201.965C114.196 201.297 115.269 200.759 116.522 200.65C117.207 201.084 117.162 201.781 117.183 202.414L117.173 202.417ZM172.723 20.0453C172.699 19.876 172.614 19.6865 172.661 19.5513C172.979 18.6516 173.75 18.2851 174.569 18.0026C175.381 17.7168 176.21 17.4483 177.015 17.9827C177.14 18.069 177.262 18.3992 177.248 18.4101C175.752 19.4286 175.242 19.614 172.719 20.0524L172.723 20.0453ZM162.209 17.3198C162.594 17.1012 163.003 16.8327 163.442 16.6309C163.824 16.4547 164.101 16.5526 164.194 16.8162C164.25 16.9743 164.313 17.1536 164.28 17.2955C164.106 17.9312 163.869 18.5362 163.202 18.8302C162.887 18.977 162.554 18.9578 162.323 18.6541C162.149 18.4308 162.074 18.1139 162.019 17.8249C161.996 17.691 162.12 17.5227 162.205 17.3092L162.209 17.3198ZM157.686 12.8991C157.299 12.3364 157.45 11.839 157.84 11.5001C158.366 11.0423 159.038 10.8648 159.891 10.9318C159.824 11.3819 159.754 11.8214 159.684 12.2963C158.966 12.5134 158.312 12.7082 157.686 12.8991ZM93.113 183.057C93.3488 182.784 93.595 182.709 93.7749 182.901C93.8721 183.009 93.9642 183.237 93.9126 183.326C93.7683 183.573 93.5598 183.788 93.3547 183.997C93.306 184.043 93.0609 183.97 93.0606 183.952C93.0628 183.655 93.1003 183.358 93.1201 183.06L93.113 183.057ZM94.4118 186.8L94.0342 186.838L94.1421 186.522L94.4118 186.8V186.8ZM138.577 182.295L138.217 182.369L138.332 182.02L138.573 182.302L138.577 182.295ZM123.257 138.724L122.898 138.832L123.047 138.413L123.257 138.724ZM141.415 124.076L141.785 124.017L141.667 124.354L141.422 124.079L141.415 124.076Z" fill="#FA007A"></path> <path d="M67.9253 208.605C67.8742 208.931 67.721 209.287 67.7966 209.586C68.0155 210.427 68.3296 211.253 68.5675 211.963C68.4328 213.012 67.9801 213.847 67.3135 214.36C64.3956 216.59 61.7585 219.13 59.053 221.594C58.5411 222.059 57.9107 222.405 57.3027 222.832C55.7303 223.499 54.0932 224.099 52.4347 224.47C50.4175 223.669 49.7269 221.655 48.2754 220.443C47.2468 219.792 46.0475 219.296 45.2277 218.447C44.4942 217.692 43.6568 217.063 42.9658 216.311C41.9872 215.263 40.9821 214.326 39.6828 213.764C38.6505 213.322 38.1156 212.391 37.3514 211.7C35.9879 210.889 34.628 210.088 33.2788 209.283C32.3544 207.885 30.8847 207.277 29.4529 206.608C28.5018 206.161 27.5561 205.611 26.5488 205.391C25.0199 205.053 23.501 204.675 21.9789 204.323C20.2901 203.934 18.507 204.035 16.6228 204.437C16.0217 204.851 15.3018 205.347 14.6483 205.796C14.3746 206.13 14.1028 206.368 13.9488 206.671C13.2475 208.079 12.5784 209.511 11.9839 210.752C11.8645 213.938 12.1254 217.256 12.7668 220.708C13.5476 222.406 14.2387 224.017 15.0243 225.577C16.7595 228.994 18.2324 232.575 20.8288 235.494C21.178 235.881 21.4683 236.335 21.7161 236.787C23.8122 240.658 26.8128 243.867 29.3699 247.398C30.5129 248.981 32.1731 249.996 33.42 251.452C33.8454 251.954 34.6157 252.157 35.2256 252.493L35.0746 252.552C35.1213 252.382 35.2659 252.153 35.1972 252.059C34.6284 251.216 34.1739 250.227 33.4074 249.614C31.6128 248.167 30.4215 246.228 29.0072 244.481C27.5892 242.723 26.1851 240.954 25.0286 238.98C24.0649 237.335 22.8071 235.864 21.6545 234.338C21.1196 233.626 20.764 232.851 20.6047 231.977C20.798 231.701 20.9914 231.426 21.2295 231.075C22.5384 231.361 23.8678 231.823 25.2262 231.896C26.6271 231.971 27.7944 233.1 29.254 232.669C29.3616 232.335 29.4695 232.019 29.5773 231.702C28.3201 229.408 26.8604 227.262 25.222 225.214C23.1576 222.629 21.2329 219.936 19.1965 217.329C17.8751 215.644 16.9611 213.804 16.583 211.448C16.6743 210.984 16.8079 210.303 16.9712 209.487C16.7088 209.011 16.3917 208.429 16.0384 207.795C16.451 207.52 16.8706 207.247 17.2028 207.03C18.6482 206.811 19.6177 207.731 20.7414 208.147C21.8828 208.563 22.9533 209.181 23.8867 209.629C24.8028 209.673 25.4995 209.7 26.1752 209.735L31.2055 212.146C31.6915 212.686 32.0444 213.083 32.5413 213.637C34.3255 214.667 36.3188 215.737 38.4221 216.614L38.2289 216.688C38.1918 216.363 38.2791 215.87 38.1038 215.742C37.1167 215.041 36.0676 214.433 34.7964 213.648C34.5472 213.327 34.1176 212.78 33.6372 212.155C32.0258 211.312 30.3047 210.461 28.6422 209.524C28.2497 209.301 28.2789 208.929 28.5354 208.833C28.6969 208.77 28.877 208.76 29.1836 208.705C31.1082 209.68 33.1221 210.707 35.0219 211.679C35.437 212.202 35.7654 212.614 36.1985 213.155C36.6659 213.423 37.2413 213.812 37.8752 214.099C39.0288 214.617 39.7484 215.601 40.6523 216.403C41.6816 217.308 42.9769 217.841 43.8693 219.014C44.5774 219.95 45.9012 220.277 46.643 221.326C47.9459 223.177 49.8268 224.5 51.3249 226.182C51.6382 226.534 52.2195 226.637 52.7468 226.89C53.3128 226.495 53.8313 225.998 54.4384 225.737C59.8111 223.412 64.0494 219.597 68.0277 215.447C68.6219 214.829 69.1835 214.169 69.8062 213.565C70.5471 212.842 71.1121 211.956 71.2097 210.801C71.1655 210.693 71.1508 210.449 71.026 210.38C69.9806 209.783 68.9215 209.214 67.8587 208.634L67.9219 208.612L67.9253 208.605Z" fill="#FA007A"></path> <path d="M51.1084 241.401C50.8612 241.843 50.6141 242.286 50.3945 242.689C49.9327 242.976 49.5094 243.237 49.1 243.488C48.9833 245.194 50.6783 245.533 51.4797 246.768C51.4571 247.108 51.4262 247.592 51.3755 248.375C51.5227 248.726 51.7697 249.344 52.0344 249.961C52.2366 250.435 52.3539 250.903 52.1466 251.409L52.0796 251.201C52.8141 251.808 53.1795 252.745 52.9695 253.513C52.5492 255.029 52.9641 256.613 52.4196 258.096C52.193 258.715 52.2332 259.436 52.1469 260.201C51.8392 260.404 51.4127 260.691 51.0247 260.952C50.3166 261.734 50.6115 263.112 49.3106 263.522C48.9836 263.199 48.6421 262.851 48.1641 262.368C47.6437 262.32 46.9641 262.257 46.419 262.206C43.884 259.799 41.3192 257.509 38.9283 255.057C37.7958 253.892 36.5525 253.085 35.056 252.57L35.207 252.511C35.0328 252.874 34.9865 253.281 35.2578 253.447C36.4823 254.183 37.2538 255.315 38.0919 256.418C38.9267 257.528 39.8802 258.555 40.9544 259.824C43.2062 260.701 44.8848 262.83 47.1127 264.196C47.6734 264.543 48.0275 265.23 48.4743 265.742C50.177 266.979 52.2791 267.566 53.6782 269.254C54.0965 269.752 54.8497 269.99 55.4732 270.298C57.9887 271.521 60.5178 272.716 63.0472 273.929C64.0748 274.088 65.0955 274.262 66.13 274.407C68.2342 274.697 70.3011 274.662 72.2495 273.65C72.7435 273.387 73.0557 273.028 73.0597 272.417C72.2406 271.822 71.5025 272.503 70.7229 272.594C69.8587 272.697 68.9911 272.807 68.1186 272.836C67.2532 272.868 66.3826 272.801 65.5198 272.773C64.3933 272.4 64.1338 271.241 63.4847 270.457C63.059 269.937 62.8317 269.223 62.6052 268.562C61.2042 264.411 59.0032 260.612 57.3495 256.568C56.6276 254.802 55.6456 253.121 54.6118 251.512C53.6432 250.005 53.0379 248.453 52.874 246.656C52.7315 245.089 52.3596 243.543 51.6188 242.127C51.4728 241.847 51.1342 241.676 50.8796 241.457L51.0765 241.394L51.1084 241.401Z" fill="#FA007A"></path> <path d="M120.214 121.548C119.837 121.385 119.476 121.387 119.272 121.666C118.357 122.937 117.656 124.38 116.077 125.262C115.398 127.628 113.262 129.05 111.806 130.991C111.391 131.546 110.765 131.938 110.368 132.493C109.459 133.766 108.743 135.132 107.499 136.21C106.482 137.09 106.136 138.651 104.873 139.44C104.601 139.607 104.444 139.988 104.273 140.291C103.571 141.498 102.948 142.707 101.804 143.649C100.884 144.4 100.41 145.698 99.486 146.438C98.0908 147.558 97.7134 149.533 96.0231 150.336C95.0071 151.523 93.8484 152.624 93.0111 153.932C92.0565 155.412 90.4885 156.343 89.7027 157.983C89.3473 158.724 88.3895 159.15 87.9276 159.858C86.9588 161.331 85.4979 162.331 84.5046 163.818C83.5597 165.241 81.9107 166.195 80.9553 167.622C79.5857 169.656 77.5284 171.133 76.5094 173.424C75.9301 174.724 74.3724 175.213 73.8657 176.636C73.4502 177.795 72.6706 178.745 71.6799 179.533C71.289 179.836 71.0576 180.374 70.807 180.823C69.0762 183.886 67.5592 187.051 66.2702 190.325C65.5716 192.111 65.7357 194.127 64.9131 195.898C64.9038 197.471 64.7744 199.057 64.9309 200.613C65.1008 202.343 65.5531 204.05 66.504 205.557C66.5839 205.683 66.8175 205.708 66.9743 205.783L66.8794 205.816C67.0445 205.326 67.4107 204.817 67.3501 204.359C67.0755 202.281 66.6844 200.209 66.2925 197.882C66.3912 197.439 66.5745 196.764 66.6657 196.08C66.7384 195.563 66.6801 195.027 66.6793 194.553C67.2181 192.295 68.6251 190.384 68.7345 188.017C68.7627 187.373 69.1565 186.606 69.633 186.142C71.431 184.366 72.2618 182.029 73.4424 179.895C73.9538 178.975 74.4296 178.037 75.0193 176.934C75.413 176.588 76.0928 176.231 76.4405 175.67C77.7345 173.555 79.5849 171.961 81.2198 170.159C81.9211 169.391 82.3926 168.407 83.1335 167.684C83.8849 166.957 84.7518 166.374 85.266 165.411C85.5197 164.936 86.0291 164.751 86.6005 164.893L86.4182 164.981C86.9777 163.978 87.5088 162.962 88.1111 161.979C88.3864 161.533 88.8834 161.447 89.3903 161.541L89.194 161.64C89.7499 160.626 90.2664 159.585 90.8687 158.603C91.144 158.156 91.6626 158.098 92.1767 158.196L91.9593 158.302C92.7466 156.751 93.4373 155.127 95.0549 154.202C95.6304 153.093 96.7152 152.438 97.4631 151.499C98.3252 150.414 98.9368 149.138 100.158 148.364C100.934 146.782 102.358 145.693 103.317 144.26C104.182 142.965 104.78 141.481 106.186 140.613C106.905 138.766 108.662 137.732 109.696 136.124C110.82 134.383 112.551 133.092 113.41 131.137C114.899 130.133 115.463 128.352 116.727 127.178C117.513 126.451 118.147 125.659 118.609 124.714C119.142 123.62 119.65 122.505 120.169 121.404L120.235 121.558L120.214 121.548Z" fill="#FA007A"></path> <path d="M169.101 175.283C169.421 175.366 169.796 175.59 170.052 175.493C170.874 175.204 171.685 174.847 172.434 174.417C174.248 173.376 176.032 172.268 177.82 171.188C180.959 169.3 184.069 167.363 187.245 165.546C189.213 164.42 191.032 163.057 193.206 162.25C194.664 161.713 196.035 160.862 197.332 159.985C200.677 157.74 204.322 156.042 207.86 154.162C213.105 151.373 218.132 148.234 223.148 145.247C224.018 143.376 223.989 141.645 223.22 140.014C222.554 138.607 221.638 137.318 220.797 136.003C220.586 135.674 220.147 135.604 219.857 135.825C219.62 136.009 219.35 136.353 219.351 136.625C219.351 138.545 219.446 140.466 219.446 142.386C219.447 142.895 219.247 143.404 219.126 143.986C216.378 147.288 212.33 148.731 208.795 151.025C208.522 151.411 208.221 151.837 207.859 152.356C204.882 153.997 201.842 155.713 198.762 157.348C197.224 158.163 196.046 159.596 194.242 159.924C193.217 160.966 191.939 161.476 190.536 161.75C187.124 164.19 183.082 165.566 179.753 168.143C179.208 168.566 178.686 169.052 178.087 169.387C176.879 170.079 175.676 170.817 174.379 171.291C172.521 171.97 171.053 173.186 169.586 174.419C169.345 174.628 169.267 175.029 169.113 175.332L169.091 175.269L169.101 175.283Z" fill="#FA007A"></path> <path d="M86.4972 223.293L89.4612 224.714C91.4319 224.625 93.5243 224.628 95.5847 224.406C100.139 223.916 104.436 222.574 108.398 220.213C111.065 219.257 113.256 217.519 115.505 215.862C120.268 212.36 125.136 209.005 129.769 205.335C131.265 204.15 132.762 202.965 134.287 201.759C134.552 201.115 134.82 200.481 135.085 199.836L135.146 200.058C134.81 200.099 134.396 200.032 134.151 200.213C131.186 202.359 128.398 204.757 125.162 206.519C124.559 206.844 123.955 207.299 123.561 207.847C122.594 209.171 121.18 209.835 119.873 210.698C118.278 211.757 116.811 213.009 115.279 214.159C112.049 216.581 108.605 218.63 104.749 219.911C103.09 220.465 101.431 221.038 99.7798 221.613C97.2777 222.483 94.733 222.911 92.0704 222.836C90.3518 222.783 88.6234 222.989 86.8935 223.107C86.7736 223.119 86.6679 223.358 86.55 223.494L86.4938 223.301L86.4972 223.293Z" fill="#FA007A"></path> <path d="M86.552 223.486C83.9789 222.2 81.3988 220.911 78.6867 219.55C78.5993 219.183 78.4963 218.722 78.3861 218.257L78.4526 218.429C78.1371 218.374 77.7914 218.2 77.517 218.279C77.0315 218.414 76.5261 218.628 76.1247 218.935C73.6854 220.825 71.1922 222.663 68.8684 224.696C66.9488 226.379 65.152 228.226 63.4696 230.146C62.4567 231.309 61.2247 232.252 60.2728 233.47C60.1794 233.592 59.9677 233.613 59.7606 233.698C59.3026 233.575 58.8022 233.449 58.3052 233.316L58.4949 233.249C58.4659 233.419 58.4053 233.6 58.4222 233.766C58.4354 233.922 58.4984 234.101 58.603 234.23C61.7849 238.139 64.855 242.135 67.4255 246.479C67.8073 247.127 68.354 247.485 69.0431 247.693L68.9659 247.726C69.0339 247.566 69.1829 247.383 69.1523 247.246C68.7842 245.71 68.1146 244.329 67.129 243.076C65.7355 241.304 64.3872 239.492 63.053 237.669C62.7528 237.253 62.5326 236.762 62.3515 236.281C62.2297 235.968 62.2555 235.604 62.2072 235.247C62.6913 233.744 63.4114 232.406 64.6266 231.297C65.3786 230.605 65.9074 229.667 66.6374 228.71C67.6902 227.83 69.0186 226.942 70.0385 225.783C70.9753 224.724 72.0604 223.868 73.1637 223.047C74.4103 222.128 75.5009 220.968 77.0215 220.373C78.4331 220.462 79.5855 221.33 80.8663 221.839C82.4779 222.48 84.0796 223.16 85.6981 223.787C86.0005 223.906 86.2964 223.635 86.492 223.282L86.5482 223.476L86.552 223.486Z" fill="#FA007A"></path> <path d="M169.123 175.346C168.797 175.331 168.435 175.227 168.151 175.327C166.822 175.777 165.839 176.805 164.645 177.486C163.899 177.909 163.215 178.44 162.455 178.838C162.206 178.973 161.811 178.828 161.479 178.809L161.707 178.716C161.449 179.163 161.285 179.724 160.901 180.031C159.688 181.009 158.467 182.002 157.13 182.781C153.363 184.955 150.095 187.806 146.657 190.427C144.866 191.787 143.093 193.181 141.321 194.558C139.133 196.253 137.009 198.014 135.142 200.064L135.081 199.842C135.569 200.014 136.045 200.19 136.639 200.396C138.157 199.239 139.682 198.085 141.197 196.918C145.898 193.289 150.592 189.658 155.296 186.04C156.958 184.767 158.604 183.471 160.476 182.492C161.061 182.185 161.471 181.549 162.229 180.808C163.996 179.735 166.082 178.473 168.189 177.204L169.101 175.301L169.123 175.364L169.123 175.346Z" fill="#FA007A"></path> <path d="M58.306 233.315C59.1291 231.58 59.7909 229.706 61.1254 228.329C62.1263 227.301 62.9494 226.206 63.5863 224.968C64.1755 223.83 65.4724 223.391 66.0119 222.248C66.2374 221.777 66.445 221.289 66.6562 220.812L66.7261 220.977C66.5625 220.916 66.4055 220.823 66.239 220.805C66.0974 220.79 65.9 220.818 65.7954 220.908C64.0308 222.56 61.792 223.538 59.9296 225.047C59.267 225.589 58.5788 226.074 57.9815 226.717C56.6308 228.182 56.5841 228.133 54.0854 228.356C55.1189 229.728 56.1173 231.118 57.2029 232.436C57.5059 232.809 58.0637 232.98 58.4992 233.241L58.3094 233.308L58.306 233.315Z" fill="#FA007A"></path> <path d="M73.968 264.017C74.7817 264.494 74.7607 265.361 74.9359 266.129C75.1035 266.858 74.8611 267.162 73.9471 267.46C73.7995 267.512 73.6256 267.473 73.4595 267.472L73.653 267.416C73.3342 268.446 73.8632 269.445 73.7493 270.469C74.3815 270.368 75.214 268.985 76.2468 266.319C76.2641 265.442 76.2859 264.409 76.3085 263.21C75.2297 259.52 73.7899 255.797 72.4061 252.048C71.9212 250.72 71.1004 249.599 70.2939 248.485C70.019 248.108 69.4194 247.969 68.97 247.719L69.0472 247.686C68.9863 247.849 68.8234 248.043 68.8679 248.169C69.3 249.297 69.6167 250.501 70.2449 251.512C71.4575 253.46 72.1015 255.645 73.0366 257.697C73.7482 259.266 74.0634 261.021 74.5351 262.614C74.3472 263.226 74.1964 263.723 74.0456 264.22L73.9714 264.01L73.968 264.017Z" fill="#FA007A"></path> <path d="M66.6458 220.816C66.8122 220.834 67.0331 220.94 67.1379 220.868C68.3968 220.051 69.1916 218.74 70.335 217.781C70.809 217.377 70.966 216.611 71.267 216.001L71.3408 216.194C71.0231 216.217 70.6293 216.125 70.4023 216.288C69.714 216.773 69.0945 217.353 68.1114 218.179C67.7658 218.863 67.239 219.926 66.7122 220.988L66.6424 220.823L66.6458 220.816Z" fill="#FA007A"></path> <path d="M99.6403 195.854C99.818 195.483 99.8196 195.151 99.5681 194.907C98.764 194.154 98.7535 194.158 97.3027 194.058C97.8047 195.132 98.8861 195.343 99.8229 195.783L99.6403 195.854V195.854Z" fill="#FA007A"></path> <path d="M126.241 169.879C125.959 170.523 126.231 170.961 126.767 171.305L126.552 171.369C126.934 170.701 126.682 170.257 126.052 169.946L126.231 169.882L126.241 169.879Z" fill="#FA007A"></path> <path d="M120.14 121.39C119.621 122.491 119.113 123.606 118.58 124.7C118.118 125.645 117.485 126.437 116.698 127.164C115.438 128.331 114.87 130.118 113.381 131.123C112.533 133.074 110.791 134.369 109.667 136.11C108.623 137.722 106.876 138.751 106.158 140.598C104.751 141.467 104.154 142.951 103.288 144.245C102.329 145.679 100.905 146.767 100.129 148.35C98.908 149.123 98.293 150.406 97.4343 151.485C96.6898 152.417 95.6086 153.082 95.0261 154.188C93.4085 155.113 92.7249 156.74 91.9305 158.287C92.2516 158.257 92.7232 158.352 92.8793 158.172C95.2764 155.438 97.9141 152.933 100.415 150.293C100.895 149.786 101.32 149.228 101.843 148.777C102.773 147.987 103.758 147.267 104.823 146.436C105.444 146.401 106.13 146.396 106.803 146.307C108.045 146.149 109.124 145.614 110.119 144.855C112.056 143.373 113.835 141.71 115.556 139.984C117.294 138.24 120.771 134.113 122.152 131.944C123.103 130.453 124.593 129.467 125.558 128.001C125.837 127.583 126.459 127.364 126.678 126.925C127.561 125.175 129.254 124.11 130.288 122.467C131.3 120.866 132.924 119.69 133.747 117.901C133.958 117.459 134.466 117.168 134.81 116.78C136.301 115.094 138.044 113.597 139.031 111.502C139.639 110.215 141.035 109.57 141.631 108.252C142.136 107.144 142.618 105.92 143.445 105.071C145.193 103.271 146.17 101.031 147.423 98.9486C147.601 98.6486 147.765 98.2888 148.034 98.1111C149.737 97.0077 150.123 94.9048 151.518 93.5662C152.381 92.7351 153.168 91.8239 153.981 90.9512C156.033 92.557 157.145 94.6241 158.427 99.0957C157.695 100.331 156.433 100.953 155.322 101.736C152.003 104.054 149.564 107.259 146.773 110.102C146.183 111.424 144.952 112.201 144.111 113.297C143.367 114.264 142.788 115.345 141.761 116.08C141.492 116.275 141.271 116.59 141.117 116.893C140.319 118.466 139.274 119.841 137.986 121.029C137.375 122.56 135.915 123.358 134.935 124.58C133.851 125.928 132.584 127.126 131.633 128.599C130.24 129.404 129.626 130.976 128.355 131.945C127.388 132.683 126.999 133.951 126.555 135.097L126.485 134.915C126.856 135.092 127.248 135.114 127.427 134.831C128.185 133.634 129.488 132.927 130.265 131.8C130.983 130.759 132.244 130.321 132.834 129.201C134.677 127.604 136.513 126.003 138.559 124.222C139.026 123.412 139.648 122.352 140.318 121.191C140.876 120.924 141.5 120.627 142.093 120.341C142.367 120.719 142.574 121.001 142.874 121.417C143.245 121.429 143.725 121.413 144.203 121.458C144.547 121.491 144.891 121.578 145.215 121.706C146.183 122.1 147.14 122.515 147.851 122.97C148.684 124.211 148.877 125.417 149 126.642C148.632 127.92 147.119 128.08 146.548 129.271C146.118 130.169 145.156 130.804 144.455 131.572C143.167 132.997 141.416 133.928 140.311 135.537C139.217 137.125 137.761 138.391 136.49 139.816C134.759 141.764 132.967 143.658 130.998 145.388C130.483 145.842 130.14 146.484 130.517 147.305C133.701 147.226 136.74 146.369 139.562 144.943C141.574 143.926 143.33 142.437 144.882 140.753C146.177 139.349 147.512 137.972 149.093 136.319C150.106 134.938 150.71 132.817 152.459 131.49C153.3 129.956 154.272 128.476 154.952 126.874C155.796 124.894 157.053 123.296 158.497 121.745C161.526 118.498 163.188 117.059 166.932 114.804C169.473 113.27 172.032 111.77 174.681 110.411C176.378 109.541 177.877 108.296 179.427 107.163C180.129 106.649 180.723 105.996 181.447 105.326C182.715 103.339 183.674 101.082 184.666 98.8309C185.582 96.7545 186.559 94.6983 187.439 92.7709C187.124 91.2702 185.712 90.9086 185.086 89.8374C184.566 88.9482 183.738 88.2445 183.053 87.4606C181.016 86.0631 178.879 84.8724 176.346 84.2716C175.408 84.4182 174.372 84.5876 173.36 84.7425C172.998 84.6567 172.637 84.6415 172.331 84.4947C167.586 82.2378 162.837 79.9703 158.116 77.6635C157.71 77.4688 157.458 76.9534 157.076 76.525C157.6 75.9258 158.058 75.409 158.516 74.8922C158.132 73.9371 157.317 73.5902 156.425 73.7148C155.41 73.8592 154.423 74.2541 153.431 74.5323C152.295 75.9514 151.308 77.3892 150.253 78.768C149.208 80.1431 148.571 81.8365 147.735 83.3814C146.987 84.7585 146.271 86.1246 145.152 87.3065C144.214 88.2944 143.693 89.6749 142.995 90.8921C142.301 92.1022 141.739 93.3843 140.628 94.3328C140.119 94.7727 139.809 95.4567 139.447 96.046C138.46 97.6853 137.78 99.5245 136.192 100.771C135.801 101.074 135.616 101.643 135.355 102.096C134.565 103.453 133.917 104.896 132.63 105.918C132.239 106.221 131.986 106.749 131.757 107.209C130.58 109.59 128.799 111.497 126.946 113.353C126.577 113.719 126.198 114.09 125.929 114.522C125.186 115.708 124.469 116.855 123.422 117.852C122.441 118.784 121.866 120.148 121.079 121.296C120.893 121.575 120.507 121.557 120.14 121.39V121.39ZM156.706 109.561C155.406 108.964 155.423 108.946 155.135 107.134C155.765 106.936 156.408 106.727 156.967 106.548C158.072 107.296 158.089 107.296 158.081 107.678C158.076 108.201 158.032 108.732 157.592 109.083C157.334 109.292 157 109.404 156.706 109.561V109.561Z" fill="#FAF5E5"></path> <path d="M156.703 109.569C157.005 109.415 157.331 109.3 157.589 109.091C158.029 108.74 158.077 108.202 158.079 107.686C158.087 107.304 158.069 107.304 156.964 106.556C156.409 106.728 155.766 106.937 155.133 107.142C155.428 108.957 155.4 108.979 156.703 109.569V109.569Z" fill="#FA007A"></path> </svg> 