<?xml version="1.0" encoding="UTF-8"?> <svg xmlns="http://www.w3.org/2000/svg" width="614" height="181" viewBox="0 0 614 181" fill="none"> <g clip-path="url(#clip0_1431_174)"> <path fill-rule="evenodd" clip-rule="evenodd" d="M-23.4827 1.79638C-24.2512 2.27264 -24.4067 20.6507 -24.2368 90.991L-24.0232 179.585L181.734 179.735C377.399 179.877 387.44 179.819 386.434 178.534C385.499 177.339 385.519 177.294 386.606 178.143C387.283 178.672 388.121 178.846 388.468 178.53C388.816 178.215 388.851 178.392 388.545 178.924C387.749 180.311 611.326 180.306 612.71 178.918C614.09 177.535 614.018 2.92291 612.637 2.02746C611.231 1.11654 607.13 1.19011 606.468 2.13783C606.096 2.67208 605.897 2.62102 605.889 1.9893C605.872 0.586506 487.697 0.617484 487.681 2.02028C487.671 2.74878 487.53 2.75577 487.083 2.05136C486.632 1.34076 428.103 1.13705 231.991 1.16244C92.0129 1.18144 -22.9505 1.46648 -23.4827 1.79638ZM-21.6911 3.23443C-22.1095 4.33771 -22.0214 4.42672 -21.2584 3.66788C-20.7302 3.14212 -20.4931 2.51732 -20.7311 2.27969C-20.969 2.04129 -21.4008 2.47105 -21.6911 3.23443ZM262.6 3.09572C262.325 3.81343 262.274 4.57522 262.486 4.78807C262.699 5.00093 263.097 4.58745 263.372 3.86974C263.647 3.15203 263.698 2.39023 263.485 2.17738C263.273 1.96452 262.874 2.37801 262.6 3.09572ZM313.504 2.62121C313.242 3.04705 313.395 3.3954 313.845 3.39531C314.294 3.39522 314.663 3.04677 314.663 2.62098C314.663 2.19519 314.51 1.84684 314.322 1.84688C314.134 1.84691 313.767 2.19536 313.504 2.62121ZM377.087 2.3633C377.644 2.58692 378.311 2.55893 378.567 2.30185C378.823 2.04478 378.368 1.86215 377.553 1.8956C376.654 1.93294 376.47 2.11646 377.087 2.3633ZM573.048 2.57019C573.311 2.99593 573.679 3.34424 573.867 3.3442C574.054 3.34417 574.207 2.99576 574.207 2.56996C574.207 2.14417 573.838 1.79587 573.389 1.79595C572.939 1.79604 572.786 2.14445 573.048 2.57019ZM-3.78096 3.25026C-1.97493 3.41326 0.978932 3.41268 2.7849 3.24897C4.59086 3.08604 3.11313 2.9524 -0.498089 2.95311C-4.10931 2.95382 -5.58698 3.08804 -3.78096 3.25026ZM27.1172 3.2558C32.322 3.38871 40.8375 3.38704 46.0423 3.25208C51.247 3.11713 46.9885 3.00804 36.5797 3.01009C26.1709 3.01213 21.9124 3.12289 27.1172 3.2558ZM65.7398 3.2428C68.3956 3.39402 72.7406 3.39316 75.3955 3.2409C78.0512 3.08942 75.8782 2.96597 70.5676 2.96701C65.257 2.96806 63.0849 3.09236 65.7398 3.2428ZM93.5482 3.24198C97.9025 3.37892 105.029 3.37752 109.383 3.23886C113.738 3.10021 110.175 2.98787 101.466 2.98959C92.7563 2.9913 89.1938 3.10503 93.5482 3.24198ZM159.979 3.22737C163.485 3.3699 166.352 3.82145 166.352 4.22944C166.352 4.6382 167.743 4.97237 169.442 4.97204C171.141 4.9717 172.532 4.6726 172.532 4.30719C172.532 3.45793 164.431 2.60406 158.321 2.80964C154.296 2.94436 154.538 3.00548 159.979 3.22737ZM223.32 3.21647C227.675 3.35341 234.801 3.35201 239.156 3.21336C243.511 3.0747 239.947 2.96237 231.238 2.96408C222.528 2.96579 218.965 3.07952 223.32 3.21647ZM284.878 3.81905C285.703 4.44055 287.238 4.94888 288.29 4.94868C290.798 4.94818 290.258 4.5225 286.468 3.51295C283.688 2.77184 283.529 2.80206 284.878 3.81905ZM327.65 3.14719C328.207 3.37081 328.874 3.34281 329.13 3.08574C329.387 2.82866 328.931 2.64604 328.117 2.67949C327.217 2.71683 327.034 2.90035 327.65 3.14719ZM350.051 3.14278C350.608 3.36641 351.275 3.33841 351.531 3.08134C351.788 2.82426 351.332 2.64164 350.518 2.67509C349.618 2.71243 349.435 2.89594 350.051 3.14278ZM383.991 3.15391C384.946 3.33798 386.511 3.33767 387.467 3.15323C388.422 2.96802 387.64 2.81721 385.729 2.81759C383.817 2.81797 383.035 2.96907 383.991 3.15391ZM402.529 3.15027C403.485 3.33433 405.05 3.33403 406.005 3.14959C406.961 2.96437 406.179 2.81357 404.267 2.81395C402.356 2.81432 401.574 2.96543 402.529 3.15027ZM424.158 3.17235C426.814 3.32356 431.159 3.32271 433.814 3.17045C436.469 3.01897 434.297 2.89552 428.986 2.89656C423.675 2.8976 421.503 3.02191 424.158 3.17235ZM451.966 3.14055C452.922 3.32462 454.487 3.32431 455.443 3.13987C456.398 2.95465 455.616 2.80385 453.704 2.80423C451.793 2.8046 451.011 2.95571 451.966 3.14055ZM526.122 3.12598C527.077 3.31004 528.643 3.30973 529.598 3.12529C530.553 2.94008 529.772 2.78928 527.86 2.78965C525.948 2.79003 525.166 2.94114 526.122 3.12598ZM555.668 3.73486L549.103 4.68761L555.475 4.79165C559.279 4.85283 561.848 4.58291 561.848 4.12073C561.848 2.98425 567.834 3.16423 568.244 4.31302C568.433 4.84561 568.887 5.00036 569.251 4.6581C570.295 3.67702 567.905 2.58591 564.938 2.68869C563.451 2.74007 559.279 3.21082 555.668 3.73486ZM586.373 3.14356C589.879 3.28609 595.613 3.28496 599.119 3.14105C602.623 2.99714 599.756 2.88003 592.746 2.88141C585.736 2.88278 582.868 3.00103 586.373 3.14356ZM146.646 4.21551C146.481 4.48418 148.153 4.74784 150.362 4.80314C154.776 4.91221 154.517 4.48028 149.89 4.02056C148.271 3.85985 146.811 3.94761 146.646 4.21551ZM208.065 4.17557C209.972 4.80227 216.348 5.22449 215.725 4.68347C215.548 4.52944 213.317 4.21015 210.768 3.97298C207.889 3.70491 206.865 3.78175 208.065 4.17557ZM276.607 4.27279C277.131 4.80222 277.755 5.03978 277.992 4.80129C278.23 4.5628 277.801 4.13011 277.039 3.83918C275.938 3.41979 275.849 3.50806 276.607 4.27279ZM13.2133 4.77513C14.1697 4.9592 15.7331 4.95889 16.6894 4.77445C17.6456 4.58924 16.8631 4.43843 14.9513 4.43881C13.0394 4.43919 12.257 4.5903 13.2133 4.77513ZM56.4707 4.76663C57.427 4.9507 58.9905 4.95039 59.9467 4.76595C60.903 4.58073 60.1205 4.42993 58.2086 4.43031C56.2968 4.43068 55.5144 4.58179 56.4707 4.76663ZM117.494 4.72058C118.026 4.9357 118.895 4.93552 119.426 4.7202C119.957 4.50565 119.522 4.33 118.46 4.33021C117.398 4.33042 116.964 4.50624 117.494 4.72058ZM200.919 4.70418C201.451 4.9193 202.32 4.91913 202.851 4.7038C203.382 4.48925 202.947 4.3136 201.885 4.31381C200.823 4.31402 200.389 4.48984 200.919 4.70418ZM322.195 4.7144C323.15 4.89847 324.715 4.89816 325.671 4.71372C326.626 4.5285 325.844 4.3777 323.933 4.37808C322.021 4.37845 321.239 4.52956 322.195 4.7144ZM330.692 4.67867C331.223 4.89379 332.092 4.89362 332.623 4.67829C333.154 4.46374 332.719 4.2881 331.657 4.2883C330.595 4.28851 330.161 4.46433 330.692 4.67867ZM337.644 4.71136C338.599 4.89543 340.164 4.89512 341.12 4.71068C342.075 4.52547 341.293 4.37466 339.382 4.37504C337.47 4.37542 336.688 4.52653 337.644 4.71136ZM346.141 4.67564C346.672 4.89075 347.541 4.89058 348.072 4.67526C348.603 4.46071 348.168 4.28506 347.106 4.28527C346.044 4.28548 345.61 4.4613 346.141 4.67564ZM458.146 4.68768C459.102 4.87174 460.667 4.87143 461.622 4.68699C462.578 4.50178 461.796 4.35098 459.884 4.35135C457.972 4.35173 457.191 4.50284 458.146 4.68768ZM472.051 4.70507C473.856 4.86807 476.811 4.86749 478.616 4.70378C480.422 4.54085 478.945 4.40721 475.333 4.40792C471.722 4.40863 470.245 4.54285 472.051 4.70507ZM533.074 4.68612C534.456 4.85772 536.714 4.85727 538.095 4.68513C539.476 4.51377 538.346 4.37309 535.585 4.37364C532.823 4.37418 531.693 4.5153 533.074 4.68612ZM285.117 5.55006C278.851 5.66896 273.723 5.927 273.723 6.12364C273.723 6.32028 277.125 10.9267 281.282 16.3598C290.861 28.8786 294.829 34.3659 294.302 34.366C294.073 34.366 294.653 35.2012 295.588 36.2222C297.674 38.4986 302.647 46.6744 302.21 47.1111C302.037 47.2861 299.861 44.4028 297.377 40.7035C294.893 37.005 288.121 27.6226 282.327 19.8534L271.792 5.72764L263.035 5.72859L254.278 5.72953L256.637 8.94265C257.934 10.7098 258.808 12.4601 258.579 12.8317C258.348 13.2041 258.572 13.4131 259.073 13.2961C259.574 13.1791 263.426 19.8416 267.632 28.1012C271.839 36.3616 276.506 44.6172 278.004 46.4485C279.501 48.2792 285.047 52.7598 290.327 56.4058C295.608 60.0519 300.466 63.8034 301.122 64.7423C301.779 65.6812 302.316 66.2052 302.316 65.9064C302.316 65.6076 305.01 67.5402 308.303 70.2003C311.597 72.8605 315.681 75.8751 317.381 76.899C319.081 77.9229 322.637 80.4406 325.284 82.4947C327.93 84.548 330.284 86.2283 330.515 86.2283C330.905 86.2282 327.639 82.1567 319.432 72.41C317.587 70.2186 316.413 68.4251 316.824 68.425C317.925 68.4248 328.899 81.4729 335.337 90.4357C338.414 94.7201 342.521 101.535 344.462 105.58C346.404 109.624 349.241 115.372 350.766 118.352C354.697 126.031 366.082 143.185 370.288 147.767C375.167 153.081 378.304 157.927 377.603 159.065C377.25 159.637 377.347 159.804 377.851 159.492C378.697 158.968 381.29 165.819 382.497 171.764L383.126 174.86L392.851 175.075L402.576 175.289L403.073 172.63C403.794 168.774 402.243 154.101 400.417 147.504C398.336 139.981 395.104 133.682 389.23 125.699C386.568 122.081 382.615 116.485 380.447 113.264C377.173 108.401 375.491 106.764 370.52 103.61C367.228 101.521 362.355 98.138 359.691 96.0924C357.027 94.0476 354.848 92.615 354.848 92.9092C354.848 93.6284 361.315 106.228 364.2 111.13C365.47 113.287 366.343 115.221 366.139 115.425C365.227 116.34 359.355 105.376 348.222 81.9668C345.089 75.3793 339.36 67.4219 332.897 60.6802C323.746 51.1341 315.405 36.9499 311.733 24.6854C310.841 21.705 309.211 16.249 308.112 12.5603L306.114 5.85405L301.312 5.5941C298.671 5.4514 291.383 5.43115 285.117 5.55006ZM-20.5647 90.5552L-20.548 175.327L97.9062 175.304L216.361 175.28L209.089 160.766C203.835 150.279 200.881 145.304 198.443 142.834L195.069 139.416L192.321 141.835C188.52 145.181 184.378 146.141 176.036 145.611C166.797 145.023 159.42 142.839 148.226 137.379C140.177 133.453 138.278 132.142 133.817 127.438C127.871 121.168 123.888 113.72 121.569 104.532C119.81 97.5641 119.647 95.1092 120.892 94.3387C121.495 93.9646 121.661 94.6613 121.434 96.6154C121.254 98.1638 121.339 99.4303 121.624 99.4302C121.909 99.4302 122.416 101.259 122.752 103.494C123.515 108.579 123.035 107.219 126.876 115.176C131.692 125.149 137.342 130.564 148.755 136.144C168.9 145.991 185.733 147.675 192.217 140.491L193.719 138.827L185.915 131.008L178.111 123.19L174.931 124.466C170.306 126.322 169.162 126.118 171.431 123.842C173.503 121.765 173.861 118.697 172.561 114.156C172.1 112.548 172.075 111.202 172.499 110.777C172.922 110.353 173.42 111.527 173.75 113.725C174.27 117.194 174.941 118.015 187.109 130.038C194.156 137.002 200.071 142.548 200.254 142.365C200.437 142.181 200.247 141.588 199.829 141.045C198.342 139.108 192.311 123.773 189.12 113.81C185.945 103.898 185.861 103.744 185.314 106.772C184.206 112.89 182.74 117.734 182.666 115.52C182.563 112.493 184.122 105.494 185.323 103.587C185.891 102.685 186.084 101.64 185.754 101.264C184.82 100.197 181.351 85.7404 181.708 84.4003C181.81 84.0171 181.661 83.1461 181.378 82.4649C180.727 80.9005 180.956 73.1332 181.739 70.2469C182.116 68.8564 182.337 71.0132 182.348 76.1932C182.365 84.3506 184.192 93.4932 188.847 108.707C193.583 124.186 204.018 148.672 213.426 166.378L217.95 174.893L299.884 175.074L381.819 175.255L380.656 171.187C380.016 168.95 378.121 164.212 376.445 160.659C374.77 157.106 373.628 153.796 373.909 153.305C374.19 152.813 374.133 152.671 373.785 152.987C373.437 153.304 372.606 152.782 371.94 151.826C371.274 150.871 368.628 147.477 366.058 144.284C359.245 135.818 349.62 120.245 345.882 111.64C338.015 93.5303 332.873 87.66 318.54 80.4259C316.162 79.2256 311.218 75.3465 307.31 71.6126C303.47 67.9454 296.074 62.0252 290.873 58.458C279.944 50.96 276.373 47.2687 271.026 37.9464C268.901 34.2409 266.809 30.6863 266.376 30.0477C265.74 29.108 264.512 30.2207 259.95 35.8723C256.847 39.7151 254.497 43.1629 254.726 43.5345C254.956 43.9061 257.935 46.0468 261.348 48.2913C264.761 50.5357 267.553 52.6184 267.553 52.9196C267.553 53.2207 268.014 53.4676 268.579 53.4675C270.21 53.4672 276.564 58.1512 278.359 60.677C280.834 64.1602 283.984 71.611 287.573 82.4735L290.805 92.2576L294.919 94.9942C299 97.7077 305.25 104.462 304.436 105.277C304.203 105.511 302.954 105.154 301.662 104.484C299.315 103.268 296.144 102.842 296.144 103.742C296.144 104.004 297.622 105.544 299.427 107.165C303.15 110.506 303.037 111.364 298.421 114.777L295.76 116.746L298.27 114.034C301.201 110.867 301.315 110.185 299.234 108.298C297.852 107.044 297.548 107.02 296.338 108.061C294.33 109.79 292.274 110.387 292.766 109.098C292.989 108.516 292.015 106.837 290.602 105.368C288.41 103.088 287.368 102.631 283.5 102.256L278.967 101.815L280.738 103.703C283.227 106.358 282.048 106.055 278.812 103.209C277.3 101.879 275.496 100.961 274.729 101.131C273.788 101.34 275.601 102.881 280.492 106.029C284.417 108.556 287.531 110.928 287.413 111.301C287.224 111.894 278.971 114.841 277.414 114.871C276.08 114.898 276.983 113.515 278.86 112.658C280.753 111.793 280.804 111.639 279.631 110.341C278.94 109.577 278.636 108.662 278.956 108.309C279.276 107.955 279.087 107.927 278.538 108.244C277.943 108.588 276.438 107.981 274.818 106.743C273.321 105.599 271.991 104.786 271.861 104.935C271.731 105.085 270.894 106.888 270 108.942C268.94 111.375 268.057 112.48 267.463 112.113C266.917 111.774 266.759 111.882 267.066 112.381C267.736 113.466 263.739 116.614 262.364 116.085C261.782 115.861 261.497 115.989 261.731 116.368C262.268 117.239 258.019 118.758 255.046 118.758C253.453 118.759 252.967 118.477 253.378 117.791C253.838 117.024 253.716 117.02 252.791 117.769C251.012 119.212 246.604 118.525 242.614 116.182C238.687 113.876 235.326 109.016 234.612 104.61L234.181 101.954L224.893 101.429C219.785 101.141 215.431 101.079 215.219 101.293C214.594 101.919 223.324 112.921 227.845 117.204C236.168 125.09 243.357 126.609 255.313 123.007C263.254 120.615 278.541 116.443 279.391 116.436C279.735 116.433 279.784 116.807 279.501 117.267C279.217 117.727 279.718 118.617 280.614 119.246C282.289 120.421 282.847 122.624 281.471 122.624C281.046 122.624 280.699 122.989 280.699 123.435C280.699 123.943 281.856 124.074 283.788 123.785C285.921 123.465 286.878 123.608 286.878 124.244C286.878 124.751 288.47 127.031 290.415 129.313C292.36 131.594 293.594 133.46 293.156 133.46C292.718 133.46 291.214 132.03 289.813 130.284C286.679 126.378 284.037 124.946 279.965 124.947C276.483 124.947 276.226 124.584 278.178 122.422C279.454 121.008 279.447 120.883 278.03 119.845C276.154 118.472 274.314 118.481 269.69 119.888C267.673 120.502 266.021 120.805 266.021 120.56C266.021 120.315 265.587 120.463 265.056 120.889C263.368 122.244 251.842 125.9 248.915 126.01C247.365 126.067 246.256 126.375 246.45 126.695C247.01 127.618 239.484 127.369 236.591 126.37C233.11 125.167 229.659 122.58 230.252 121.617C230.513 121.193 230.347 121.083 229.881 121.371C228.382 122.3 214.101 108.215 210.583 102.338C209.89 101.18 208.001 99.7028 206.385 99.0551C204.77 98.4082 203.448 97.6653 203.448 97.4044C203.448 96.8996 211.517 97.4338 223.532 98.7351C227.568 99.1717 233.738 99.4879 237.243 99.4369C240.749 99.3867 243.616 99.6695 243.616 100.067C243.616 100.464 244.156 100.996 244.815 101.25C245.503 101.514 245.813 101.384 245.542 100.946C245.238 100.453 249.629 100.179 257.861 100.178C269.284 100.175 270.652 100.037 270.652 98.8846C270.652 98.1754 270.42 97.8271 270.136 98.1105C268.838 99.4129 247.028 85.2746 247.972 83.7432C248.275 83.2507 248.125 83.1323 247.606 83.4544C246.59 84.0833 235.114 75.8577 235.114 74.4998C235.114 74.0058 234.897 73.8193 234.633 74.0849C234.368 74.3505 232.972 73.6672 231.531 72.5658C229.3 70.8607 229.056 70.3777 229.888 69.3092C230.73 68.2275 230.698 68.1849 229.659 68.9965C228.69 69.753 227.363 69.5574 222.886 67.9984C217.276 66.0439 207.519 64.417 207.129 65.3708C207.013 65.6534 205.875 66.1359 204.601 66.4428C202.389 66.9758 202.354 66.9464 203.828 65.7942C205.611 64.4011 212.546 62.2026 214.256 62.4887C214.893 62.5947 215.845 62.9514 216.372 63.2811C217.035 63.6967 217.181 63.4961 216.847 62.6237C215.971 60.3385 221.708 62.0762 233.568 67.6881C239.729 70.6032 246.62 73.7109 248.882 74.5946C251.143 75.4782 255.488 77.5669 258.538 79.2362C264.415 82.4532 268.539 84.0836 279.147 87.3841C282.758 88.5075 286.126 89.6023 286.632 89.8166C287.151 90.0364 286.85 88.7521 285.939 86.8664C280.74 76.1011 276.15 65.0213 276.577 64.2695C276.849 63.7917 276.825 63.6214 276.523 63.8917C275.774 64.5615 271.638 60.5002 272.082 59.5309C272.277 59.105 272.174 58.9928 271.853 59.2816C271.532 59.5705 268.988 58.2417 266.197 56.3285C263.408 54.4145 259.009 51.7809 256.421 50.4746C249.967 47.2166 243.605 43.073 243.605 42.1269C243.605 41.6965 244.295 41.3433 245.139 41.3432C246.034 41.343 250.077 38.0551 254.853 33.4432C262.038 26.5044 262.975 25.3035 262.556 23.571C262.293 22.4864 262.034 21.1634 261.98 20.6308C261.926 20.099 261.709 19.8365 261.497 20.0479C261.287 20.2601 258.905 17.1252 256.206 13.0814L251.299 5.73012L221.764 5.78082L192.23 5.83076L196.405 7.72975C198.702 8.77443 200.396 9.81381 200.171 10.0399C199.605 10.6067 193.182 8.06018 192.211 6.88286C191.61 6.15526 184.355 5.89734 162.085 5.81346L132.751 5.70233L138.159 11.2056C143.936 17.0835 155.767 25.4817 162.108 28.2048C164.233 29.1171 168.752 30.6886 172.151 31.6982C179.067 33.7507 177.325 34.2961 169.945 32.3884C159.536 29.6971 146.688 21.5709 136.097 10.9784C132.398 7.27938 130.301 5.7539 128.915 5.75417C127.839 5.75439 126.963 6.01623 126.971 6.33518C126.978 6.65414 128.579 9.8767 130.531 13.4956C135.349 22.4316 136.185 25.0458 137.021 33.8046C137.776 41.7219 140.32 49.6451 144.279 56.4129C146.224 59.7368 146.538 59.9426 149.673 59.942C151.503 59.9417 154.111 60.329 155.469 60.8033C157.54 61.526 158.18 61.4446 159.447 60.2954C161.356 58.5617 161.404 59.1857 159.526 61.356C158.739 62.2651 157.87 62.7832 157.595 62.5068C157.32 62.2305 157.094 62.5116 157.094 63.1309C157.095 64.7544 149.63 71.9448 149.221 70.7147C148.979 69.9893 147.558 70.3488 143.917 72.0574C141.182 73.3407 138.697 74.3631 138.396 74.3283C137.607 74.2387 133.924 79.4124 133.924 80.6108C133.924 81.1667 133.664 81.6219 133.345 81.622C133.026 81.6221 132.82 85.9373 132.888 91.2117L133.01 100.801L135.709 104.732C137.193 106.894 138.866 110.453 139.426 112.641C140.075 115.176 141.529 117.855 143.434 120.022C145.078 121.894 146.086 123.425 145.675 123.425C144.007 123.425 139.328 117.1 138.468 113.684C137.974 111.716 136.18 108.024 134.484 105.478L131.398 100.849L131.786 92.2037C132.099 85.2237 132.007 84.0385 131.312 86.0514C130.777 87.5976 130.597 91.7379 130.837 96.9495C131.223 105.296 131.249 105.388 134.509 110.253C136.315 112.947 137.793 115.812 137.793 116.618C137.794 119.055 139.89 122.341 143.321 125.283C145.108 126.816 146.096 128.07 145.517 128.07C143.537 128.07 137.267 120.719 136.709 117.743C136.418 116.194 134.718 112.804 132.931 110.208L129.68 105.489L129.722 95.2977C129.76 85.8241 129.907 84.8254 131.817 81.1199C132.946 78.9272 135.185 76.0461 136.793 74.7165C139.73 72.2866 146.683 69.2327 149.276 69.2321C150.7 69.2319 156.322 63.7264 156.322 62.3321C156.321 60.303 145.444 60.3059 138.555 62.3364C134.061 63.6619 126.347 71.1914 123.952 76.5917C123.007 78.7209 121.745 83.4242 121.147 87.0436L120.061 93.6243L120.292 87.3712C120.476 82.3492 120.979 80.1404 122.847 76.1453C126.674 67.9608 134.775 61.2053 141.671 60.4476C143.143 60.2855 144.34 59.8447 144.331 59.4677C144.322 59.0907 143.067 56.3434 141.541 53.3632C137.73 45.9156 136.374 41.3808 135.519 33.2359C134.679 25.2296 133.889 22.778 128.963 12.9152L125.387 5.75487L52.4032 5.76921L-20.5813 5.78356L-20.5647 90.5552ZM296.911 6.25688C296.896 7.27104 302.254 18.7556 305.236 24.0999C308.292 29.5773 307.99 27.3663 304.723 20.3483C301.013 12.3767 296.93 5.01123 296.911 6.25688ZM308.768 10.5574C309.768 13.2188 311.526 18.705 312.677 22.7498C316.059 34.6396 322.237 45.781 329.917 53.8371C331.601 55.6027 332.394 57.0324 332.023 57.6332C331.664 58.2162 331.746 58.4012 332.228 58.1015C333.159 57.5246 344.134 71.9708 348.667 79.7395C350.375 82.667 351.577 85.5746 351.337 86.2009C351.099 86.8265 351.144 87.0967 351.438 86.8017C351.732 86.5067 352.574 87.3883 353.309 88.7607C355.337 92.5476 356.62 91.9133 357.937 86.4714C359.103 81.6543 360.803 78.5387 360.079 82.5451C359.868 83.7157 359.792 84.6742 359.909 84.6741C360.027 84.6741 362.044 82.6709 364.391 80.2218C370.021 74.3478 372.044 68.6968 372.248 58.271L372.393 50.8366L375.857 47.6355C377.762 45.8754 379.548 44.6039 379.825 44.8113C380.103 45.0179 380.149 44.9483 379.928 44.6557C379.706 44.3631 380.768 42.8486 382.286 41.2899L385.046 38.4551L380.176 35.3516C377.498 33.6443 374.013 31.4797 372.432 30.5409C368.54 28.23 364.115 23.0439 361.015 17.1616C359.603 14.4817 357.443 10.8095 356.216 8.99972L353.984 5.70993L330.469 5.71456L306.952 5.71918L308.768 10.5574ZM359.437 11.3216C368.735 25.0017 372.314 28.6736 383.418 35.9223C389.154 39.6674 393.958 42.4279 394.093 42.0571C394.703 40.3848 391.147 35.2566 384.167 27.7446C378.449 21.5903 375.72 17.8965 373.015 12.6513L369.435 5.7069L362.529 5.70825L355.623 5.70961L359.437 11.3216ZM371.053 6.11612C371.053 6.77416 375.481 15.1947 377.004 17.4341C377.772 18.5619 381.09 22.429 384.377 26.0275C391.423 33.7407 393.791 36.6689 392.982 36.6691C392.657 36.6691 392.962 37.1049 393.658 37.6367C394.355 38.1692 395.687 40.6942 396.619 43.2488C397.551 45.8034 399.655 50.3613 401.295 53.3771C402.935 56.393 404.017 59.1217 403.698 59.4408C403.38 59.7598 403.529 59.9053 404.03 59.7627C404.53 59.621 407.833 62.477 411.369 66.1103C416.447 71.3264 419.2 73.437 424.462 76.1479C430.163 79.0855 431.127 79.8634 431.135 81.5402C431.146 83.999 429.93 86.3961 428.972 85.8033C428.573 85.5564 428.442 85.8622 428.679 86.483C428.948 87.1828 427.157 89.6899 423.968 93.0791C415.07 102.537 405.054 106.076 389.129 105.391C378.073 104.914 376.863 105.491 379.811 109.838C380.916 111.466 381.605 113.176 381.343 113.637C381.082 114.099 381.144 114.225 381.482 113.92C382.189 113.279 388.088 121.147 387.558 122.022C387.364 122.342 387.53 122.603 387.927 122.603C388.868 122.603 395.823 132.73 398.293 137.697C400.866 142.869 402.98 149.474 402.376 150.453C402.107 150.888 402.206 151.244 402.593 151.244C403.659 151.244 405.071 161.143 405.072 168.619L405.074 175.243L414.333 175.241L423.593 175.24L426.404 169.626C427.95 166.539 429.605 163.757 430.081 163.444C430.558 163.131 430.693 162.87 430.381 162.863C430.068 162.857 430.541 161.022 431.432 158.787C432.323 156.552 434.421 150.716 436.094 145.819C437.768 140.922 439.34 136.392 439.588 135.754C439.837 135.115 440.124 134.07 440.227 133.431C440.329 132.792 441.663 126.173 443.192 118.721C446.331 103.421 448.611 88.0871 447.915 86.9592C447.659 86.5443 446.949 86.2054 446.337 86.2055C445.724 86.2056 445.224 85.8573 445.224 85.4315C445.224 85.0057 445.387 84.6573 445.587 84.6573C447.834 84.6569 463.343 93.7317 487.308 109.07C493.168 112.82 502.077 116.801 508.185 118.4C510.309 118.955 519 120.3 527.497 121.389C544.27 123.538 549.775 124.483 554.534 126.031C556.595 126.701 560.84 126.954 567.279 126.791L576.935 126.546L567.001 127.301C558.75 127.928 556.458 127.858 553.483 126.89C551.511 126.247 541.556 124.662 531.36 123.364C504.781 119.983 497.792 117.728 482.24 107.521C477.998 104.736 474.318 102.458 474.061 102.458C473.805 102.458 471.019 104.81 467.869 107.684C459.881 114.974 455.977 117.994 455.181 117.501C454.806 117.269 454.499 117.449 454.499 117.899C454.5 118.385 452.848 118.678 450.444 118.616L446.389 118.514L449.958 118.012C454.308 117.399 457.744 115.183 466.372 107.425L472.997 101.466L467.509 98.0756L462.021 94.6858L459.436 97.3541C456.416 100.471 454.351 101.304 452.326 100.218C449.961 98.9507 447.818 102.741 446.449 110.611C445.8 114.337 445.441 117.662 445.649 118C445.857 118.338 445.715 118.807 445.332 119.045C444.949 119.282 444.393 121.103 444.096 123.092C443.799 125.081 443.19 127.611 442.745 128.715C442.299 129.818 441.828 131.536 441.698 132.534C441.11 137.032 436.487 151.173 435.752 150.718C435.314 150.446 435.174 150.578 435.441 151.012C436.04 151.983 433.683 158.206 432.716 158.206C432.33 158.206 432.22 158.538 432.47 158.944C432.721 159.349 431.351 163.058 429.428 167.186C427.503 171.314 425.93 174.814 425.93 174.965C425.93 175.116 467.13 175.231 517.487 175.221L609.044 175.203L608.827 164.194L608.611 153.185L603.34 150.453C596.066 146.684 589.533 141.13 584.736 134.634C580.616 129.056 576.072 124.075 575.566 124.583C575.413 124.737 572.65 123.846 569.428 122.603C565.862 121.227 559.414 119.709 552.947 118.721C547.104 117.829 541.957 116.873 541.508 116.595C541.06 116.317 539.81 116.002 538.729 115.895C536.271 115.651 518.205 108.391 519.216 108.053C519.624 107.917 522.523 108.824 525.658 110.07C535.611 114.025 541.901 115.707 552.215 117.173C564.102 118.863 573.554 121.682 577.896 124.834C579.623 126.088 582.716 129.486 584.768 132.386C586.82 135.287 589.026 138.201 589.671 138.862C593.201 142.486 599.975 147.533 604.009 149.546L608.611 151.842L608.823 141.427L609.037 131.013L606.313 128.44C604.815 127.025 602.851 124.165 601.949 122.085C601.046 120.005 599.462 117.172 598.429 115.788C597.397 114.404 596.688 113.272 596.854 113.272C597.021 113.272 594.988 111 592.336 108.224C588.32 104.018 586.183 102.551 579.519 99.4261C565.857 93.0187 560.443 91.6325 538.375 88.8908C529.01 87.7268 524.445 86.3682 532.897 87.2607C540.692 88.0837 554.726 88.1552 566.417 87.4314C574.936 86.9049 577.401 86.9586 576.968 87.6616C576.629 88.2113 574.492 88.5748 571.644 88.5684C564.793 88.552 554.913 89.366 554.913 89.9459C554.913 90.2191 556.042 90.4287 557.423 90.413C560.457 90.3775 567.273 92.4045 567.273 93.3428C567.273 93.7121 567.575 93.8281 567.943 93.5997C569.141 92.8578 583.495 99.0445 583.496 100.302C583.496 100.675 583.843 100.764 584.268 100.501C584.693 100.237 585.041 100.411 585.041 100.887C585.041 101.364 585.346 101.564 585.719 101.332C586.752 100.693 593.006 106.544 597.048 111.929C600.364 116.349 604.827 124.109 604.053 124.109C603.872 124.109 604.639 125.154 605.758 126.431C606.876 127.708 608.061 128.753 608.392 128.753C608.722 128.753 608.991 122.52 608.99 114.901L608.987 101.05L605.603 97.2804C600.398 91.4806 590.57 87.4592 582.545 87.8463C578.339 88.0484 576.945 87.3279 580.171 86.6174C583.717 85.8363 593.582 87.5956 597.784 89.7586C599.909 90.8521 603.298 93.3535 605.317 95.318L608.986 98.8893L608.986 95.3521C608.985 92.5148 608.46 91.1268 606.331 88.3324C602.967 83.9196 599.157 82.0762 592.568 81.675C589.384 81.4813 587.35 81.0156 587.342 80.4776C587.335 79.9937 586.993 80.12 586.582 80.7587C585.916 81.7908 585.83 81.7909 585.809 80.7589C585.791 79.8763 585.637 79.833 585.166 80.5763C584.427 81.7439 560.858 82.059 525.944 81.3691C500.795 80.8716 500.544 80.8283 485.003 74.2432C480.329 72.263 474.944 70.2907 473.037 69.8606C467.073 68.517 426.035 43.435 426.483 41.4074C426.589 40.9266 426.37 40.6201 425.996 40.727C425.12 40.9772 420.496 37.6035 420.496 36.714C420.496 36.3408 416.055 31.5612 410.627 26.092C405.199 20.622 399.084 13.7973 397.038 10.9248L393.318 5.7022L382.185 5.70439C376.063 5.70559 371.053 5.89084 371.053 6.11612ZM396.307 8.09689C397.781 10.6258 404.758 18.3476 416.443 30.3836L423.496 37.6486L427.017 37.25C429.112 37.0135 430.538 37.1649 430.538 37.6255C430.538 38.0668 431.023 37.9963 431.665 37.462C432.407 36.844 433.659 36.73 435.334 37.1268C436.732 37.4579 438.136 37.6628 438.455 37.5814C438.774 37.5008 439.035 37.7826 439.035 38.2084C439.035 38.6342 437.732 39.0099 436.138 39.0427C434.545 39.0755 431.851 39.5274 430.152 40.0464L427.062 40.9892L430.319 43.3676C432.111 44.6748 433.328 46.0216 433.024 46.3592C432.719 46.6976 432.847 46.7588 433.307 46.497C433.767 46.2345 435.464 46.9185 437.077 48.0167C441.183 50.8122 450.433 56.012 451.298 56.0119C451.693 56.0118 452.267 52.0053 452.571 47.1079L453.124 38.2048L449.537 30.9647C447.371 26.5918 444.248 21.8398 441.653 18.9666C439.289 16.3504 437.703 14.2094 438.128 14.2093C439.984 14.2089 447.715 24.1686 450.989 30.7771C454.838 38.5436 455.036 40.0369 453.629 50.5388C453.047 54.8766 453.025 57.1782 453.56 57.7138C454.095 58.2502 455.857 57.9789 459.055 56.8689C464.212 55.0796 465.301 54.9075 465.302 55.8822C465.302 56.2383 463.168 57.1244 460.561 57.851L455.822 59.1727L459.983 61.8296C462.272 63.29 464.573 64.4942 465.096 64.5049C466.471 64.5333 467.127 61.0765 466.109 59.1707C465.352 57.7533 465.5 57.4436 467.252 56.7759C468.359 56.3538 469.709 56.0083 470.253 56.0082C470.797 56.008 471.871 55.3111 472.64 54.4593C473.408 53.6076 474.505 52.9106 475.076 52.9105C475.648 52.9104 476.115 52.6951 476.115 52.4319C476.115 51.6825 471.663 46.7922 471.307 47.1491C471.131 47.3249 469.838 46.28 468.432 44.8272L465.877 42.1854L467.494 39.5622C468.383 38.1198 469.817 36.2986 470.68 35.515C471.543 34.7322 472.249 33.6226 472.249 33.0497C472.249 32.4769 472.634 32.0084 473.104 32.0083C473.575 32.0082 473.782 32.444 473.565 32.9759C473.348 33.5086 472.944 34.5058 472.668 35.1926C472.268 36.1859 472.838 36.5496 475.449 36.968C480.168 37.7226 484.192 42.1292 485.375 47.8346C486.447 53.0035 486.779 66.1295 485.939 70.0988C485.37 72.7846 485.486 73.0478 487.75 74.2202C489.079 74.9089 490.391 75.2493 490.663 74.9752C492.312 73.3236 493.471 65.1729 493.087 57.9391C492.716 50.9229 492.358 49.4776 489.271 42.5122C487.397 38.2848 484.871 33.6929 483.657 32.3082C481.118 29.4102 476.324 26.9554 471.862 26.2689C468.854 25.8049 468.823 25.8228 470.703 26.938C471.765 27.5672 473.243 28.0948 473.986 28.1102C475.931 28.1493 475.654 29.1635 473.214 30.9469C469.115 33.9445 466.794 34.0596 470.125 31.1008C471.579 29.8084 471.627 29.6319 470.417 30.02C469.281 30.3849 469.055 30.1689 469.358 29.006C469.702 27.6852 469.153 27.4732 464.199 27.0089C454.678 26.1166 455.614 25.0566 465.682 25.331C472.082 25.5063 475.877 25.9793 477.943 26.8599C479.588 27.5617 481.061 28.1359 481.216 28.1359C481.571 28.1358 486.32 18.7031 488.008 14.6446C489.271 11.6096 489.271 11.6073 487.711 13.0228C485.52 15.0105 485.767 13.8345 488.459 9.44674C491.557 4.39776 489.923 4.42673 482.929 9.54305C480.027 11.6664 477.652 13.1966 477.652 12.9443C477.652 12.6919 479.304 10.9589 481.321 9.0928L484.989 5.70044L465.41 5.69655L445.831 5.69188L442.311 8.79854C440.375 10.5075 438.621 11.7357 438.414 11.5275C437.805 10.9176 439.91 8.76573 440.661 9.23086C441.038 9.46381 441.346 9.23769 441.346 8.72674C441.346 8.21656 441.955 7.3362 442.698 6.77014C443.831 5.90749 440.077 5.73791 419.48 5.72183L394.911 5.70189L396.307 8.09689ZM491.17 7.81194C490.185 12.8698 487.265 20.7073 484.9 24.6429L482.346 28.8951L484.187 30.7396C486.353 32.9092 489.091 38.1459 492.326 46.3011C494.266 51.1943 494.65 53.2334 494.628 58.5395C494.604 64.3737 493.268 72.4532 491.984 74.5375C491.274 75.6889 495.53 77.392 501.669 78.4119C504.399 78.865 514.28 79.3911 523.627 79.5797C532.973 79.7683 546.008 80.1396 552.594 80.4046C559.179 80.6697 569.466 80.5415 575.453 80.1199C593.636 78.8405 601.47 80.5026 606.535 86.7167L608.933 89.6573L608.95 47.6586L608.968 5.65981L550.276 5.67135L491.585 5.68289L491.17 7.81194ZM-23.2822 90.1687C-23.2731 136.367 -23.176 155.266 -23.0669 132.167C-22.9579 109.068 -22.9654 71.2688 -23.0835 48.1699C-23.2015 25.0702 -23.2913 43.97 -23.2822 90.1687ZM612.447 90.0437C612.456 136.242 612.553 155.141 612.662 132.042C612.771 108.943 612.764 71.1438 612.646 48.0449C612.527 24.9452 612.438 43.8451 612.447 90.0437ZM280.775 8.71959C286.788 16.9277 300.314 33.5906 300.963 33.5905C301.421 33.5904 301.586 33.7994 301.331 34.0557C301.075 34.3112 303.346 37.8812 306.375 41.9899C313.181 51.2175 322.637 65.4116 326.951 72.8745C330.077 78.2823 331.415 79.9651 330.334 77.1318C329.822 75.7864 326.553 69.9227 323.215 64.3594C322.258 62.7632 321.14 61.4567 320.732 61.4567C320.324 61.4568 320.18 61.1479 320.413 60.7709C321.417 59.1411 282.75 7.50685 280.388 7.32461C280.018 7.29604 280.192 7.92386 280.775 8.71959ZM382.782 12.4783C385.345 14.9257 389.204 19.1929 391.355 21.9602C396.844 29.0195 401.144 33.4438 410.222 41.3711C421.167 50.9292 436.126 62.9824 437.041 62.9822C438.012 62.982 438.592 63.4991 424.361 51.6927C409.854 39.6587 399.844 30.0865 392.052 20.7988C385.588 13.0932 384.797 12.2611 381.57 9.75651C377.444 6.55458 378.084 7.99364 382.782 12.4783ZM198.031 25.6437C191.805 32.4313 189.936 34.9756 188.907 38.064C187.833 41.2863 189.023 41.3604 190.347 38.1535C191.51 35.3399 196.105 29.2316 200.595 24.53C202.316 22.7289 203.527 21.0596 203.289 20.8204C203.051 20.5812 200.684 22.7517 198.031 25.6437ZM136.23 22.4671C136.23 23.136 139.049 25.4153 144.728 29.3369C150.077 33.0295 155.544 35.6389 155.544 34.4977C155.544 34.1176 154.469 33.3607 153.156 32.816C151.842 32.2712 148.626 30.4394 146.01 28.7445C143.393 27.0503 141.196 25.7997 141.129 25.9654C141.061 26.1318 140.253 25.309 139.334 24.1387C137.806 22.1919 136.23 21.343 136.23 22.4671ZM428.992 35.1137C427.019 35.5306 428.062 35.6906 432.855 35.7082C437.204 35.7236 438.768 35.522 437.489 35.112C435.137 34.3576 432.57 34.3581 428.992 35.1137ZM469.579 39.2274L467.658 41.6865L472.852 46.9553C477.847 52.0228 477.987 52.2674 476.502 53.3345C475.652 53.9447 473.995 55.3184 472.82 56.3878C471.645 57.4563 470.018 58.3307 469.206 58.3309C468.048 58.3311 467.737 58.8739 467.764 60.8472C467.784 62.2306 467.672 64.0391 467.517 64.8644C467.226 66.4144 468.704 67.1782 477.797 70.1794C480.902 71.2046 481.465 71.2161 481.83 70.2653C482.754 67.849 482.319 54.6843 481.179 50.5868C480.528 48.2451 479.99 45.0308 479.985 43.4438C479.974 40.2975 478.401 38.7503 473.901 37.4575C471.743 36.8379 471.305 37.0175 469.579 39.2274ZM190.258 42.4672C187.743 45.977 186.332 46.7809 187.926 43.7938C188.929 41.9147 188.972 41.3542 188.115 41.3544C187.759 41.3544 186.478 43.5324 185.267 46.1935C182.293 52.7296 182.265 52.831 184.009 50.8388C186.103 48.4462 186.713 48.6543 185.349 51.2968C183.331 55.2099 181.112 61.6344 180.604 65.0339C180.146 68.0989 180.228 68.3179 181.685 67.9352C182.552 67.7082 183.595 66.5986 184.003 65.4706C185.903 60.2151 185.902 60.2182 184.254 62.2461C181.462 65.6832 181.677 63.373 184.833 56.031C186.533 52.0777 187.709 48.4637 187.446 48.0015C187.184 47.5394 187.255 47.4202 187.603 47.7367C188.247 48.3219 193.745 39.897 193.124 39.2755C192.938 39.089 191.648 40.5253 190.258 42.4672ZM480.748 42.9892C480.748 43.9205 481.487 47.3167 482.39 50.537C483.698 55.2058 483.951 57.7264 483.632 62.9731C483.412 66.5923 482.985 70.1629 482.683 70.9085C482.301 71.85 482.496 72.2633 483.319 72.2632C485.17 72.2628 485.778 64.6781 484.709 54.9462C483.874 47.3588 482.304 41.2965 481.173 41.2968C480.939 41.2968 480.748 42.0586 480.748 42.9892ZM387.452 44C383.352 47.459 379.447 54.1796 376.385 63.0491C374.734 67.8307 373.383 72.0502 373.383 72.4249C373.383 72.7996 376.076 71.291 379.369 69.0716C390.915 61.2904 398.871 55.1133 398.87 53.9304C398.87 52.9038 399.061 52.8852 400.222 53.7985C401.446 54.7598 401.474 54.7327 400.521 53.5143C399.941 52.7743 399.221 52.3208 398.921 52.5067C398.62 52.6933 397.743 51.0878 396.972 48.9397C396.007 46.2519 394.819 44.5761 393.164 43.5646C390.131 41.7126 390.166 41.7095 387.452 44ZM457.19 49.5952C456.34 49.8005 455.297 50.3341 454.873 50.7809C454.341 51.3407 454.541 51.4382 455.515 51.0927C456.293 50.817 459.595 50.5562 462.853 50.513C467 50.4588 468.197 50.2495 466.845 49.8155C464.713 49.1315 459.595 49.0148 457.19 49.5952ZM432.144 53.3974C439.171 60.9984 468.082 79.2871 472.957 79.2141C474.324 79.1938 456.994 69.8057 455.456 69.7332C454.925 69.7086 454.49 69.4245 454.49 69.1025C454.49 68.7804 451.969 66.8416 448.889 64.7938C445.809 62.7467 440.584 58.8885 437.28 56.2213C430.913 51.0798 429.06 50.0613 432.144 53.3974ZM463.908 52.9027C459.658 53.9122 454.487 56.0933 454.487 56.8768C454.488 57.3227 455.075 57.2994 455.974 56.8161C456.792 56.3778 460.702 55.1724 464.664 54.1373C469.486 52.8783 470.973 52.2633 469.163 52.2769C467.676 52.2872 465.311 52.5695 463.908 52.9027ZM166.761 66.242C162.699 70.1353 159.556 73.5012 159.776 73.7218C159.996 73.9424 159.571 74.5494 158.83 75.0706C157.129 76.267 152.151 83.1682 152.995 83.1611C153.34 83.1579 154.491 81.8764 155.553 80.3124C156.614 78.7491 161.485 73.3506 166.375 68.316C171.266 63.2822 175.016 59.1629 174.707 59.1629C174.399 59.163 170.823 62.3486 166.761 66.242ZM273.734 59.4361C273.734 59.5964 274.343 60.2063 275.086 60.7906C276.311 61.7527 276.338 61.7256 275.378 60.4979C274.368 59.2084 273.734 58.799 273.734 59.4361ZM374.926 60.6719C374.926 62.1173 375.132 62.3232 375.853 61.6007C376.573 60.8783 376.573 60.4649 375.852 59.7427C375.131 59.0206 374.925 59.2265 374.926 60.6719ZM201.236 61.9563C199.006 63.07 197.339 64.1387 197.531 64.3315C197.723 64.5234 199.913 63.6288 202.398 62.3432C204.883 61.0576 206.551 59.9889 206.103 59.9681C205.655 59.948 203.465 60.8426 201.236 61.9563ZM206.917 61.9273C204.368 63.0063 201.453 64.2277 200.438 64.6413C199.423 65.0557 198.776 65.5784 199 65.8036C199.225 66.0281 202.662 64.805 206.639 63.0863C210.616 61.3669 213.347 59.962 212.71 59.9637C212.073 59.9654 209.466 60.8492 206.917 61.9273ZM403.141 62.1806C402.89 62.5879 402.21 62.739 401.629 62.5154C401.048 62.2925 400.346 62.4777 400.069 62.9275C399.754 63.4378 400.049 63.5593 400.853 63.2502C401.927 62.8366 402.008 63.0046 401.339 64.2589C399.896 66.9618 392.728 73.1651 391.719 72.5839C391.193 72.2813 391.021 72.3185 391.336 72.6668C391.651 73.0151 391.521 73.7676 391.049 74.339C389.825 75.818 390.689 75.6366 394.844 73.5409C396.848 72.531 400.747 70.906 403.508 69.93C406.269 68.9548 408.859 67.865 409.261 67.5088C409.7 67.1209 408.942 65.774 407.371 64.1508C404.616 61.3032 403.89 60.9658 403.141 62.1806ZM391.921 66.8163C391.921 67.2173 392.265 67.7576 392.685 68.0176C393.122 68.2885 393.252 67.978 392.988 67.2891C392.474 65.9483 391.92 65.703 391.921 66.8163ZM393.959 67.2486C394.204 67.8873 394.703 68.4097 395.07 68.4097C395.435 68.4096 395.534 67.887 395.29 67.2484C395.045 66.6097 394.545 66.0873 394.179 66.0873C393.814 66.0874 393.714 66.61 393.959 67.2486ZM154.006 70.0704C152.453 71.4062 150.725 72.2472 149.945 72.0461C149.148 71.8411 148.119 72.3678 147.453 73.3209C145.942 75.4842 146.565 75.9254 148.935 74.3688C151.833 72.4653 152.391 72.8988 149.788 75.0321C148.531 76.0628 147.74 77.1452 148.032 77.4371C148.324 77.7296 149.052 77.5615 149.65 77.0644C151.676 75.3786 151.729 78.2956 149.736 81.7906C148.698 83.6125 147.844 85.713 147.839 86.4577C147.827 88.1415 149.635 88.2147 151.251 86.5956C151.918 85.9258 152.464 85.5619 152.464 85.7864C152.464 86.0109 153.898 85.687 155.651 85.0673C159.653 83.6513 159.626 83.6482 158.696 85.3895C156.792 88.9573 155.264 103.259 156.64 104.637C156.864 104.862 158.256 104.47 159.733 103.767C161.211 103.064 162.7 102.549 163.044 102.623C164.148 102.861 169.461 100.201 169.461 99.4108C169.46 98.3525 168.568 98.4943 166.803 99.8332C165.978 100.458 164.657 100.97 163.868 100.97C163.078 100.97 161.407 101.503 160.153 102.152C158.058 103.238 157.875 103.227 157.874 102.009C157.874 101.28 158.518 99.9649 159.305 99.0853C161.413 96.7322 170.405 79.2922 169.511 79.2924C169.091 79.2925 166.664 83.2126 164.118 88.0029C161.573 92.7939 158.932 97.41 158.251 98.2618C157.084 99.7198 157.04 99.5835 157.509 95.9394C157.782 93.8104 158.688 90.0245 159.522 87.5261C160.355 85.0285 160.865 82.8111 160.654 82.6006C160.443 82.3893 158.645 82.7728 156.657 83.4514C154.67 84.1308 152.763 84.5136 152.42 84.3015C152.078 84.0895 151.58 84.2699 151.313 84.7028C151.046 85.1356 150.493 85.4895 150.085 85.4896C149.677 85.4896 150.045 84.11 150.903 82.4229C151.761 80.7366 152.566 78.6802 152.692 77.8534C152.818 77.0266 153.368 75.8087 153.916 75.1467C154.464 74.4854 154.674 73.5587 154.383 73.0873C154.093 72.6159 154.358 71.6427 154.972 70.9241C156.201 69.4862 157.322 67.6644 156.948 67.714C156.816 67.7311 155.492 68.792 154.006 70.0704ZM404.281 70.8341C401.519 72.1298 396.411 74.355 392.928 75.7779C386.222 78.5174 377.714 84.3223 378.511 85.6142C378.825 86.1228 379.15 86.1196 379.469 85.6047C379.734 85.1758 380.646 84.7026 381.496 84.5538C382.346 84.4042 383.215 84.0835 383.427 83.8404C384.233 82.9182 410.633 73.8405 411.303 74.2561C411.689 74.4952 412.006 74.3458 412.006 73.9231C412.006 73.5012 412.73 72.925 413.617 72.643L415.227 72.1302L413.481 70.2679C411.266 67.9056 410.407 67.9584 404.281 70.8341ZM172.948 72.5224C169.894 77.5473 169.419 78.5182 170.017 78.5181C170.352 78.518 171.663 76.8634 172.93 74.8402C175.791 70.2728 175.915 70.0003 175.119 70.0059C174.765 70.009 173.789 71.1411 172.948 72.5224ZM237.333 74.4405C236.373 75.6685 236.4 75.6956 237.625 74.7331C238.368 74.1484 238.976 73.5383 238.976 73.378C238.976 72.7409 238.342 73.1505 237.333 74.4405ZM413.551 76.997C411.215 77.8281 409.129 78.4905 408.917 78.4688C408.705 78.4472 408.314 80.4423 408.05 82.9019C407.409 88.8554 406.48 90.9598 402.655 95.1209C397.024 101.245 388.028 102.477 380.569 98.1461C378.783 97.1083 376.792 95.5023 376.144 94.5765C375.497 93.6507 374.869 93.047 374.749 93.2336C374.628 93.4209 373.404 95.0345 372.028 96.8193C369.23 100.45 369.062 100.93 370.595 100.93C371.182 100.93 371.845 101.626 372.068 102.478C372.453 103.952 373.116 104.025 385.869 104.01C401.332 103.992 407.746 102.929 414.229 99.3123C422.469 94.716 426.75 89.0413 427.618 81.5642C427.983 78.4209 426.42 78.5947 425.763 81.7704C423.799 91.2544 415.623 98.3993 403.439 101.28C398.415 102.468 393.606 102.857 394.454 102.006C394.711 101.748 397.463 101.056 400.57 100.467C411.954 98.3094 420.611 92.3381 423.901 84.3736C425.765 79.859 425.508 77.9252 422.859 76.5531C419.992 75.068 418.816 75.124 413.551 76.997ZM250.049 78.2322C250.049 78.994 250.309 79.0357 251.079 78.3953C251.645 77.9238 252.109 77.4646 252.109 77.3748C252.109 77.285 251.645 77.2115 251.079 77.2116C250.512 77.2117 250.049 77.6709 250.049 78.2322ZM144.353 82.6727L141.263 85.6624L143.833 84.2211C146.714 82.6056 148.105 81.1948 147.708 80.2907C147.562 79.9571 146.052 81.0288 144.353 82.6727ZM431.838 80.5267C431.548 80.8171 433.659 81.8216 436.529 82.7585C439.399 83.6955 442.356 84.7168 443.099 85.0294C443.843 85.342 444.451 85.297 444.451 84.93C444.451 84.5631 442.453 83.5098 440.009 82.589C433.86 80.2732 432.447 79.9165 431.838 80.5267ZM516.144 80.5272C516.701 80.7508 517.368 80.7228 517.624 80.4657C517.88 80.2086 517.425 80.026 516.61 80.0595C515.711 80.0968 515.527 80.2803 516.144 80.5272ZM168.865 85.6794C165.572 90.908 161.725 98.2239 161.754 99.2033C161.763 99.5369 162.953 97.9047 164.399 95.5773C165.844 93.2491 166.858 91.0719 166.652 90.7383C166.446 90.4046 166.641 90.1313 167.085 90.1312C167.528 90.1311 168.944 88.0406 170.23 85.4856C171.517 82.9306 172.422 80.8401 172.241 80.8402C172.06 80.8402 170.541 83.0183 168.865 85.6794ZM177.39 86.4736C176.065 88.6973 173.652 93.304 172.028 96.7107C170.404 100.117 168.776 103.123 168.412 103.389C168.047 103.657 167.569 105.479 167.348 107.441C167.025 110.318 167.2 111.103 168.257 111.51C168.978 111.787 169.96 111.619 170.442 111.136C171.093 110.483 170.981 110.259 170.003 110.259C167.379 110.26 168.626 105.756 174.444 94.2298C177.608 87.9599 180.109 82.74 179.999 82.6301C179.889 82.5202 178.715 84.2499 177.39 86.4736ZM398.385 84.4274C397.272 84.6459 396.58 85.5286 396.259 87.142C395.397 91.4636 390.459 93.1678 387.688 90.1003C386.288 88.5514 384.9 88.5695 380.501 90.1953C378.995 90.7515 378.859 91.0875 379.585 92.446C381.749 96.4961 388.966 98.2304 395.094 96.173C398.225 95.1218 402.74 91.8965 402.74 90.7112C402.74 90.2475 403.348 89.3687 404.091 88.7577C404.834 88.1468 405.05 87.8417 404.572 88.0795C404.061 88.3319 403.509 87.5532 403.239 86.2016C402.772 83.8691 402.231 83.671 398.385 84.4274ZM178.53 89.5135C175.377 94.9473 171.006 103.953 171.008 105.014C171.009 105.557 172.089 103.91 173.407 101.355C174.725 98.8004 176.999 94.491 178.46 91.778C181.453 86.2243 181.509 84.3802 178.53 89.5135ZM517.899 86.4756C518.79 87.2635 527.877 87.7424 527.876 87.0023C527.876 86.5162 525.807 86.1899 522.726 86.1905C519.895 86.191 517.722 86.3192 517.899 86.4756ZM449.843 87.8902C449.835 88.0272 449.35 91.0907 448.766 94.6969C447.578 102.032 448.045 101.979 451.974 94.3332C453.067 92.204 454.103 90.8738 454.276 91.3769C454.447 91.8801 454.024 93.386 453.335 94.7231C450.891 99.4623 455.044 100.715 458.808 96.3725C460.158 94.8154 460.36 94.1287 459.66 93.4754C458.598 92.4847 449.866 87.5162 449.843 87.8902ZM358.649 89.513C359.211 90.2576 360.255 90.8674 360.967 90.8673C361.68 90.8672 362.661 91.2657 363.147 91.7525C363.811 92.4174 363.927 92.2378 363.612 91.0317C363.333 89.9634 362.787 89.5818 361.983 89.8909C361.092 90.234 360.948 90.0668 361.435 89.2569C361.975 88.358 361.882 88.3309 360.925 89.1069C360.001 89.8564 359.531 89.8565 358.69 89.1073C357.791 88.3062 357.784 88.3689 358.649 89.513ZM371.342 89.6769C370.454 90.3003 369.452 90.5622 369.116 90.258C368.779 89.9538 368.743 90.1226 369.036 90.6335C369.339 91.1622 368.918 91.9109 368.06 92.3709C367.231 92.8162 366.003 94.2843 365.332 95.633C364.084 98.1416 364.175 99.1433 365.573 98.2767C366.349 97.7958 373.566 88.5423 373.165 88.5424C373.051 88.5424 372.231 89.0528 371.342 89.6769ZM223.595 91.9766C224.136 92.4936 257.285 95.6728 259.203 95.3914C260.188 95.2465 253.696 94.3435 244.774 93.3853C229.33 91.7254 222.885 91.297 223.595 91.9766ZM178.818 100.932C177.411 105.267 176.432 108.986 176.644 109.197C177.173 109.728 182.015 94.9769 181.661 93.9117C181.504 93.4388 180.224 96.5984 178.818 100.932ZM304.905 98.1098C306.672 100.81 308.213 102.949 308.331 102.862C308.86 102.475 306.777 98.3115 304.839 95.8772C301.396 91.5541 301.433 92.8028 304.905 98.1098ZM344.807 95.0758C344.807 97.1954 372.903 139.075 380.183 147.807C380.912 148.682 381.592 149.641 381.694 149.94C381.795 150.239 382.976 152.658 384.317 155.317C385.659 157.975 387.577 162.415 388.581 165.182C390.091 169.345 390.327 169.679 389.952 167.117C388.886 159.841 383.595 150.204 371.891 134.219C368.618 129.748 361.474 119.299 356.016 110.997C345.615 95.1786 344.806 94.0306 344.807 95.0758ZM541.633 95.5325C554.696 97.2301 567.601 103.087 581.629 113.687C585.207 116.39 588.134 118.274 588.134 117.872C588.134 117.09 580.044 110.551 576.701 108.631C575.589 107.992 573.988 106.858 573.143 106.11C570.35 103.638 557.481 97.7962 551.388 96.2359C548.093 95.3927 543.455 94.7464 541.079 94.8011L536.761 94.9002L541.633 95.5325ZM396.561 97.008C396.561 97.409 396.905 97.9493 397.326 98.2094C397.763 98.4802 397.893 98.1698 397.629 97.4808C397.115 96.14 396.561 95.8947 396.561 97.008ZM301.55 97.4679C301.55 98.4426 306.347 104.91 306.761 104.494C306.996 104.259 306.209 102.652 305.013 100.922C302.874 97.83 301.55 96.5095 301.55 97.4679ZM309.011 100.555C309.297 101.832 309.511 103.661 309.486 104.619C309.435 106.525 310.422 106.972 311.051 105.327C311.269 104.759 310.782 102.93 309.969 101.263C308.683 98.6263 308.559 98.5341 309.011 100.555ZM150.945 102.134C150.448 107.23 150.883 116.033 151.733 118.09C153.322 121.931 161.248 126.617 165.894 126.463C166.796 126.433 165.721 125.79 163.505 125.032C158.883 123.455 154.672 120.765 153.188 118.443C152.599 117.521 151.955 113.234 151.669 108.327C151.396 103.644 151.07 100.857 150.945 102.134ZM377.4 101.842C376.667 102.136 377.827 102.391 380.034 102.422C382.203 102.451 386.114 102.699 388.724 102.971C391.901 103.304 393.473 103.193 393.473 102.637C393.472 101.688 379.497 100.997 377.4 101.842ZM259.452 103.092C259.027 103.405 258.625 104.308 258.559 105.099C258.472 106.141 258.671 106.303 259.285 105.687C259.751 105.22 260.209 104.312 260.303 103.669C260.499 102.332 260.491 102.327 259.452 103.092ZM261.383 102.832C261.383 103.045 262.079 103.592 262.928 104.047C263.778 104.503 264.473 104.701 264.473 104.488C264.473 104.276 263.778 103.729 262.928 103.273C262.078 102.817 261.383 102.619 261.383 102.832ZM290.736 102.881C290.736 103.094 291.38 103.913 292.167 104.701C293.56 106.096 293.624 106.094 294.561 104.589C295.382 103.27 295.346 103.111 294.314 103.508C293.648 103.764 292.898 103.641 292.647 103.233C292.173 102.466 290.736 102.2 290.736 102.881ZM218.898 103.839C218.899 105.368 223.706 111.734 227.763 115.579C237.026 124.354 244.956 125.546 259.455 120.338C269.733 116.647 269.415 116.324 258.769 119.642C241.865 124.909 232.798 121.931 222.249 107.648C220.406 105.153 218.898 103.438 218.898 103.839ZM253.991 103.962C254.558 104.881 252.529 106.514 251.727 105.785C251.379 105.47 251.344 105.647 251.65 106.179C252.342 107.382 254.502 107.463 254.239 106.275C254.132 105.796 254.48 105.244 255.011 105.049C255.552 104.85 256 105.318 256.031 106.114C256.08 107.395 256.145 107.382 256.698 105.984C257.07 105.042 256.974 104.213 256.451 103.867C255.241 103.068 253.482 103.136 253.991 103.962ZM244.917 105.575C243.294 105.89 241.435 106.681 240.785 107.333C239.724 108.397 239.734 108.718 240.884 110.476C244.956 116.702 258.736 116.476 264.091 110.096C266.98 106.654 266.676 105.299 263.163 105.96C261.592 106.256 259.46 107.166 258.424 107.983C255.708 110.125 253.087 109.846 250.57 107.147C249.379 105.869 248.284 104.865 248.135 104.914C247.987 104.962 246.539 105.26 244.917 105.575ZM294.599 106.364C294.599 106.79 294.926 107.138 295.326 107.138C295.727 107.138 296.268 106.789 296.531 106.363C296.793 105.938 296.466 105.589 295.804 105.589C295.142 105.589 294.599 105.938 294.599 106.364ZM170.236 113.356C170.236 113.782 170.584 114.13 171.008 114.13C171.433 114.13 171.781 113.781 171.781 113.355C171.781 112.93 171.433 112.581 171.008 112.581C170.583 112.581 170.236 112.93 170.236 113.356ZM346.361 145.093C346.362 146.529 346.926 151.097 347.616 155.243C349.049 163.848 348.887 164.994 345.529 170.079C344.186 172.111 343.294 173.982 343.548 174.236C343.8 174.49 345.211 173.777 346.68 172.653C348.15 171.529 349.527 170.609 349.74 170.609C349.954 170.609 351.013 170.271 352.095 169.859C353.405 169.36 353.91 168.715 353.608 167.928C353.359 167.278 352.791 166.972 352.345 167.249C351.856 167.551 351.765 167.376 352.115 166.808C352.435 166.289 352.156 165.267 351.49 164.531C350.767 163.73 349.642 159.186 348.682 153.198C347.03 142.894 346.36 140.554 346.361 145.093ZM326.282 169.73C326.283 170.399 329.624 172.936 330.505 172.935C331.772 172.935 330.594 171.259 328.6 170.226C327.325 169.566 326.282 169.342 326.282 169.73ZM39.5105 176.67C71.9057 176.775 124.915 176.765 157.31 176.647C189.705 176.528 163.2 176.442 98.41 176.455C33.6205 176.467 7.11612 176.564 39.5105 176.67ZM251.163 176.628C267.414 176.741 294.005 176.736 310.255 176.617C326.506 176.497 313.21 176.404 280.709 176.41C248.208 176.417 234.912 176.515 251.163 176.628ZM353.554 176.606C358.145 176.742 365.445 176.74 369.776 176.601C374.108 176.462 370.352 176.351 361.43 176.353C352.508 176.356 348.965 176.47 353.554 176.606ZM396.384 176.566C397.339 176.75 398.904 176.749 399.86 176.565C400.815 176.38 400.034 176.229 398.122 176.229C396.21 176.23 395.428 176.381 396.384 176.566ZM410.288 176.583C412.093 176.746 415.049 176.745 416.854 176.582C418.659 176.419 417.182 176.285 413.571 176.286C409.96 176.287 408.483 176.421 410.288 176.583ZM431.721 176.792C431.456 177.221 431.696 177.746 432.255 177.959C432.812 178.172 472.027 178.247 519.397 178.126L605.526 177.906L518.625 177.545L431.724 177.183L518.625 176.769L605.526 176.355L518.863 176.184C461.314 176.07 432.039 176.274 431.721 176.792ZM39.5108 178.218C71.906 178.323 124.916 178.313 157.31 178.195C189.705 178.076 163.2 177.99 98.4103 178.003C33.6208 178.016 7.11643 178.112 39.5108 178.218ZM251.163 178.177C267.414 178.29 294.006 178.284 310.256 178.165C326.507 178.045 313.21 177.952 280.709 177.959C248.208 177.965 234.912 178.063 251.163 178.177ZM353.127 178.153C357.482 178.29 364.607 178.289 368.962 178.15C373.317 178.012 369.754 177.899 361.044 177.901C352.335 177.903 348.772 178.017 353.127 178.153ZM395.419 177.959C397.185 178.576 401.847 178.744 401.499 178.179C401.291 177.842 399.664 177.595 397.883 177.628C396.103 177.662 394.994 177.812 395.419 177.959ZM410.288 178.131C412.094 178.294 415.049 178.294 416.854 178.13C418.659 177.967 417.182 177.834 413.571 177.834C409.96 177.835 408.483 177.969 410.288 178.131Z" fill="#FA1B7A"></path> <path fill-rule="evenodd" clip-rule="evenodd" d="M285.117 5.55006C278.851 5.66896 273.723 5.927 273.723 6.12364C273.723 6.32028 277.125 10.9267 281.282 16.3598C290.861 28.8786 294.829 34.3659 294.302 34.366C294.073 34.366 294.653 35.2012 295.588 36.2222C297.674 38.4986 302.647 46.6744 302.21 47.1111C302.037 47.2861 299.861 44.4028 297.377 40.7035C294.893 37.005 288.121 27.6226 282.327 19.8534L271.792 5.72764L263.035 5.72859L254.278 5.72953L256.637 8.94265C257.934 10.7098 258.808 12.4601 258.579 12.8317C258.348 13.2041 258.572 13.4131 259.073 13.2961C259.574 13.1791 263.426 19.8416 267.632 28.1012C271.839 36.3616 276.506 44.6172 278.004 46.4485C279.501 48.2792 285.047 52.7598 290.327 56.4058C295.608 60.0519 300.466 63.8034 301.122 64.7423C301.779 65.6812 302.316 66.2052 302.316 65.9064C302.316 65.6076 305.01 67.5402 308.303 70.2003C311.597 72.8605 315.681 75.8751 317.381 76.899C319.081 77.9229 322.637 80.4406 325.284 82.4947C327.93 84.548 330.284 86.2283 330.515 86.2283C330.905 86.2282 327.639 82.1567 319.432 72.41C317.587 70.2186 316.413 68.4251 316.824 68.425C317.925 68.4248 328.899 81.4729 335.337 90.4357C338.414 94.7201 342.521 101.535 344.462 105.58C346.404 109.624 349.241 115.372 350.766 118.352C354.697 126.031 366.082 143.185 370.288 147.767C375.167 153.081 378.304 157.927 377.603 159.065C377.25 159.637 377.347 159.804 377.851 159.492C378.697 158.968 381.29 165.819 382.497 171.764L383.126 174.86L392.851 175.075L402.576 175.289L403.073 172.63C403.794 168.774 402.243 154.101 400.417 147.504C398.336 139.981 395.104 133.682 389.23 125.699C386.568 122.081 382.615 116.485 380.447 113.264C377.173 108.401 375.491 106.764 370.52 103.61C367.228 101.521 362.355 98.138 359.691 96.0924C357.027 94.0476 354.848 92.615 354.848 92.9092C354.848 93.6284 361.315 106.228 364.2 111.13C365.47 113.287 366.343 115.221 366.139 115.425C365.227 116.34 359.355 105.376 348.222 81.9668C345.089 75.3793 339.36 67.4219 332.897 60.6802C323.746 51.1341 315.405 36.9499 311.733 24.6854C310.841 21.705 309.211 16.249 308.112 12.5603L306.114 5.85405L301.312 5.5941C298.671 5.4514 291.383 5.43115 285.117 5.55006ZM305.236 24.0999C302.254 18.7556 296.896 7.27104 296.911 6.25688C296.93 5.01123 301.013 12.3767 304.723 20.3483C307.99 27.3663 308.292 29.5773 305.236 24.0999ZM300.963 33.5905C300.314 33.5906 286.788 16.9277 280.775 8.71959C280.192 7.92386 280.018 7.29604 280.388 7.32461C282.75 7.50685 321.417 59.1411 320.413 60.7709C320.18 61.1479 320.324 61.4568 320.732 61.4567C321.14 61.4567 322.258 62.7632 323.215 64.3594C326.553 69.9227 329.822 75.7864 330.334 77.1318C331.415 79.9651 330.077 78.2823 326.951 72.8745C322.637 65.4116 313.181 51.2175 306.375 41.9899C303.346 37.8812 301.075 34.3112 301.331 34.0557C301.586 33.7994 301.421 33.5904 300.963 33.5905ZM380.183 147.807C372.903 139.075 344.807 97.1954 344.807 95.0758C344.806 94.0306 345.615 95.1786 356.016 110.997C361.474 119.299 368.618 129.748 371.891 134.219C383.595 150.204 388.886 159.841 389.952 167.117C390.327 169.679 390.091 169.345 388.581 165.182C387.577 162.415 385.659 157.975 384.317 155.317C382.976 152.658 381.795 150.239 381.694 149.94C381.592 149.641 380.912 148.682 380.183 147.807Z" fill="#FA1B7A"></path> <path d="M244.917 105.575C243.294 105.89 241.435 106.681 240.785 107.333C239.724 108.397 239.734 108.718 240.884 110.476C244.956 116.702 258.736 116.476 264.091 110.096C266.98 106.654 266.676 105.299 263.163 105.96C261.592 106.256 259.46 107.166 258.424 107.983C255.708 110.125 253.087 109.846 250.57 107.147C249.379 105.869 248.284 104.865 248.135 104.914C247.987 104.962 246.539 105.26 244.917 105.575Z" fill="#FA1B7A"></path> <path d="M398.385 84.4274C397.272 84.6459 396.58 85.5286 396.259 87.142C395.397 91.4636 390.459 93.1678 387.688 90.1003C386.288 88.5514 384.9 88.5695 380.501 90.1953C378.995 90.7515 378.859 91.0875 379.585 92.446C381.749 96.4961 388.966 98.2304 395.094 96.173C398.225 95.1218 402.74 91.8965 402.74 90.7112C402.74 90.2475 403.348 89.3687 404.091 88.7577C404.834 88.1468 405.05 87.8417 404.572 88.0795C404.061 88.3319 403.509 87.5532 403.239 86.2016C402.772 83.8691 402.231 83.671 398.385 84.4274Z" fill="#FA1B7A"></path> <path d="M2.69141 2.05957L2.7262 179.06" stroke="#FA1B7A" stroke-width="4"></path> </g> <rect x="1.1915" y="1.55996" width="612" height="178" stroke="#FA1B7A"></rect> <defs> <clipPath id="clip0_1431_174"> <rect x="0.691406" y="1.06006" width="613" height="179" fill="white"></rect> </clipPath> </defs> </svg> 