<?xml version="1.0" encoding="UTF-8"?> <svg xmlns="http://www.w3.org/2000/svg" width="437" height="113" viewBox="0 0 437 113" fill="none"> <path d="M14.04 12.24V27.72C17.64 27.48 22.8 27.24 26.88 27.24C34.44 27.24 68.04 27.24 75.12 27.24C79.2 27.24 83.88 27.48 87.96 27.72V12.24C83.88 12.72 79.08 13.08 75.12 13.08C68.04 13.08 34.44 13.08 26.88 13.08C22.8 13.08 17.88 12.72 14.04 12.24ZM0 42.84V58.56C3.36 58.32 8.04 58.2 11.52 58.2C19.08 58.2 83.04 58.2 90.12 58.2C93.48 58.2 98.04 58.32 101.16 58.44V42.84C97.92 43.44 92.64 43.56 90.12 43.56C83.04 43.56 19.08 43.56 11.52 43.56C7.8 43.56 3.6 43.32 0 42.84ZM61.44 51.24L44.76 51.36C44.76 64.2 43.08 75.48 37.08 84.6C32.4 91.68 23.88 98.52 15.36 101.88L29.52 112.08C40.08 106.56 49.44 97.32 53.52 88.92C58.68 78.96 61.44 66.96 61.44 51.24Z" fill="#201B19"></path> <path d="M117.84 48.6V67.56C122.4 67.2 130.44 66.84 137.16 66.84C151.32 66.84 190.8 66.84 201.72 66.84C206.76 66.84 212.88 67.44 215.76 67.56V48.6C212.52 48.84 207.24 49.44 201.6 49.44C190.92 49.44 151.32 49.44 137.16 49.44C130.92 49.44 122.28 48.96 117.84 48.6Z" fill="#201B19"></path> <path d="M307 3.12L297.04 7.2C300.16 12 303.76 18.12 306.16 23.16L316.12 18.96C313.96 14.52 310 7.68 307 3.12ZM323.68 0L313.72 4.08C317.08 8.52 320.8 15.24 323.32 20.16L333.28 15.96C331 11.64 326.8 4.44 323.68 0ZM319.36 25.68L307.48 18.12C304.36 18.96 300.52 19.08 298.12 19.08C291.4 19.08 251.56 19.08 242.56 19.08C238.6 19.08 231.88 18.48 228.28 18V35.04C231.4 34.8 237.16 34.44 242.56 34.44C251.56 34.44 291.28 34.44 298.48 34.44C296.92 44.76 292.36 58.44 284.32 68.4C274.72 80.52 261.16 90.96 237.4 96.48L250.48 110.88C271.84 104.04 287.8 92.16 298.72 77.76C308.68 64.44 313.96 45.72 316.72 33.96C317.32 31.44 318.28 27.96 319.36 25.68Z" fill="#201B19"></path> <path d="M380.16 101.52L390.24 109.8C391.44 108.96 392.88 107.64 395.4 106.32C408.96 99.48 426.12 86.52 436.08 73.56L426.96 60.24C418.8 71.88 407.04 81.36 397.2 85.56C397.2 78.24 397.2 32.52 397.2 22.92C397.2 17.52 398.04 12.72 398.04 12.48H380.28C380.28 12.72 381.12 17.4 381.12 22.8C381.12 32.52 381.12 86.4 381.12 92.76C381.12 96 380.76 99.24 380.16 101.52ZM324.6 99.84L339.24 109.56C349.56 100.44 357 88.56 360.72 75.12C363.84 63 364.2 37.68 364.2 23.4C364.2 18.48 365.04 13.08 365.04 12.6H347.4C348.12 15.6 348.6 18.72 348.6 23.64C348.6 38.04 348.48 60.84 345 71.04C341.76 81.36 335.28 92.4 324.6 99.84Z" fill="#201B19"></path> </svg> 