<?xml version="1.0" encoding="UTF-8"?> <svg xmlns="http://www.w3.org/2000/svg" width="112" height="70" viewBox="0 0 112 70" fill="none"> <path d="M8.6101 49.5628H3.10349V5.41189H0.132812V0.428232H11.5808V5.41189H8.6101V49.5628Z" fill="#201B19"></path> <path d="M20.5222 49.5628H14.9432V0.428232H20.5222V21.4859H22.9857V0.428232H28.5648V49.5628H22.9857V26.5398H20.5222V49.5628Z" fill="#201B19"></path> <path d="M38.4238 5.48208V21.4859H42.1915V26.5398H38.4238V44.509H43.2783V49.5628H32.8447V0.428232H43.2783V5.48208H38.4238Z" fill="#201B19"></path> <path d="M60.4984 6.67535V43.3157C60.4984 43.9241 60.5467 44.3452 60.6433 44.5792C60.7882 44.7664 61.078 44.8599 61.5127 44.8599H61.875C62.3098 44.8599 62.5996 44.7664 62.7445 44.5792C62.8894 44.3452 62.9619 43.9241 62.9619 43.3157V28.1542H68.1062V43.9475C68.1062 46.2872 67.7439 47.8782 67.0194 48.7205C66.2948 49.516 64.8457 49.9138 62.672 49.9138H60.4259C58.2522 49.9138 56.779 49.516 56.0061 48.7205C55.2816 47.8782 54.9193 46.2872 54.9193 43.9475V6.04362C54.9193 3.70387 55.2816 2.13625 56.0061 1.34073C56.779 0.498424 58.2522 0.0772705 60.4259 0.0772705H62.672C64.8457 0.0772705 66.2948 0.498424 67.0194 1.34073C67.7439 2.13625 68.1062 3.70387 68.1062 6.04362V19.7311H62.9619V6.67535C62.9619 6.06701 62.8894 5.66926 62.7445 5.48208C62.5996 5.2481 62.3098 5.13112 61.875 5.13112H61.5127C61.078 5.13112 60.7882 5.2481 60.6433 5.48208C60.5467 5.66926 60.4984 6.06701 60.4984 6.67535Z" fill="#201B19"></path> <path d="M77.8339 0.428232V43.3157C77.8339 43.9241 77.9063 44.3452 78.0513 44.5792C78.1962 44.7664 78.486 44.8599 78.9207 44.8599H79.2105C79.6453 44.8599 79.9351 44.7664 80.08 44.5792C80.2249 44.3452 80.2974 43.9241 80.2974 43.3157V0.428232H85.5142V43.9475C85.5142 46.2872 85.1277 47.8782 84.3549 48.7205C83.6303 49.516 82.1812 49.9138 80.0075 49.9138H77.7614C75.5878 49.9138 74.1145 49.516 73.3417 48.7205C72.6171 47.8782 72.2548 46.2872 72.2548 43.9475V0.428232H77.8339Z" fill="#201B19"></path> <path d="M89.7336 49.5628V0.428232H95.3126V44.509H99.4426V49.5628H89.7336Z" fill="#201B19"></path> <path d="M108.661 49.5628H103.154V5.41189H100.184V0.428232H111.632V5.41189H108.661V49.5628Z" fill="#201B19"></path> <path d="M0.411195 64.9282C0.411195 66.4064 1.30994 67.4471 2.94188 67.4471C4.46738 67.4471 5.49621 66.4774 5.49621 64.94V58.7553H4.3373V64.8928C4.3373 65.7797 3.91158 66.3709 2.94188 66.3709C1.99583 66.3709 1.53463 65.7678 1.53463 64.9282V64.5025H0.411195V64.9282Z" fill="#201B19"></path> <path d="M8.92915 67.4471C9.86337 67.4471 10.6557 67.0332 10.9513 66.3709L11.0696 67.3052H12.0156V63.6747C12.0156 62.1137 11.0459 61.3569 9.61503 61.3569C8.12501 61.3569 7.13165 62.1492 7.13165 63.3554H8.10135C8.10135 62.6577 8.63351 62.2438 9.56773 62.2438C10.3482 62.2438 10.9277 62.5868 10.9277 63.5565V63.722L9.10653 63.8639C7.74659 63.9704 6.95427 64.6326 6.95427 65.6969C6.95427 66.7494 7.68746 67.4471 8.92915 67.4471ZM9.24844 66.5838C8.52708 66.5838 8.0777 66.2764 8.0777 65.6614C8.0777 65.0938 8.47977 64.7154 9.4613 64.6208L10.9395 64.5025V64.81C10.9395 65.8979 10.3009 66.5838 9.24844 66.5838Z" fill="#201B19"></path> <path d="M13.5551 69.895H14.6667V66.3591C15.0451 67.0687 15.8138 67.4589 16.7362 67.4589C18.4509 67.4589 19.4206 66.1344 19.4206 64.3724C19.4206 62.5986 18.3918 61.3569 16.7362 61.3569C15.8138 61.3569 15.0333 61.7708 14.643 62.5631L14.5603 61.5224H13.5551V69.895ZM14.6785 64.4197C14.6785 63.2135 15.3644 62.3739 16.4997 62.3739C17.6349 62.3739 18.309 63.2253 18.309 64.4197C18.309 65.6023 17.6349 66.4537 16.4997 66.4537C15.3644 66.4537 14.6785 65.6023 14.6785 64.4197Z" fill="#201B19"></path> <path d="M22.3369 67.4471C23.2711 67.4471 24.0634 67.0332 24.3591 66.3709L24.4773 67.3052H25.4234V63.6747C25.4234 62.1137 24.4537 61.3569 23.0228 61.3569C21.5328 61.3569 20.5394 62.1492 20.5394 63.3554H21.5091C21.5091 62.6577 22.0413 62.2438 22.9755 62.2438C23.756 62.2438 24.3354 62.5868 24.3354 63.5565V63.722L22.5143 63.8639C21.1543 63.9704 20.362 64.6326 20.362 65.6969C20.362 66.7494 21.0952 67.4471 22.3369 67.4471ZM22.6562 66.5838C21.9348 66.5838 21.4855 66.2764 21.4855 65.6614C21.4855 65.0938 21.8875 64.7154 22.8691 64.6208L24.3473 64.5025V64.81C24.3473 65.8979 23.7087 66.5838 22.6562 66.5838Z" fill="#201B19"></path> <path d="M28.0745 67.3052V64.2423C28.0745 63.1189 28.6776 62.3739 29.7182 62.3739C30.5697 62.3739 31.1136 62.8469 31.1136 64.0177V67.3052H32.2252V63.7693C32.2252 62.2911 31.5275 61.3569 30.002 61.3569C29.1861 61.3569 28.4529 61.7471 28.0863 62.4094L27.968 61.5224H26.9628V67.3052H28.0745Z" fill="#201B19"></path> <path d="M36.2601 67.4471C37.691 67.4471 38.6607 66.7494 38.9445 65.5077H37.9038C37.7146 66.1699 37.147 66.5247 36.2837 66.5247C35.184 66.5247 34.5454 65.8506 34.4626 64.6326L38.9327 64.6208V64.2069C38.9327 62.4921 37.8565 61.3569 36.2128 61.3569C34.5335 61.3569 33.3865 62.6104 33.3865 64.4197C33.3865 66.2172 34.5572 67.4471 36.2601 67.4471ZM36.2128 62.2911C37.1943 62.2911 37.8211 62.9297 37.8211 63.8876H34.4862C34.6282 62.8706 35.2431 62.2911 36.2128 62.2911Z" fill="#201B19"></path> <path d="M39.7012 65.6259C39.7012 66.7257 40.5645 67.4471 41.9245 67.4471C43.2962 67.4471 44.2423 66.7494 44.2423 65.6496C44.2423 64.7863 43.7574 64.3369 42.7759 64.1004L41.7589 63.8521C41.1913 63.7102 40.9075 63.45 40.9075 63.0598C40.9075 62.5276 41.2977 62.2202 41.9954 62.2202C42.6695 62.2202 43.0597 62.5868 43.0834 63.1662H44.1477C44.124 62.0664 43.2962 61.3569 42.0309 61.3569C40.7537 61.3569 39.855 62.031 39.855 63.0953C39.855 63.9467 40.3398 64.4552 41.3687 64.7035L42.3857 64.94C42.9888 65.0938 43.178 65.3303 43.178 65.7205C43.178 66.2527 42.7286 66.572 41.9481 66.572C41.2149 66.572 40.7656 66.2172 40.7656 65.6259H39.7012Z" fill="#201B19"></path> <path d="M47.9702 67.4471C49.4011 67.4471 50.3708 66.7494 50.6546 65.5077H49.614C49.4248 66.1699 48.8571 66.5247 47.9939 66.5247C46.8941 66.5247 46.2555 65.8506 46.1727 64.6326L50.6428 64.6208V64.2069C50.6428 62.4921 49.5667 61.3569 47.9229 61.3569C46.2437 61.3569 45.0966 62.6104 45.0966 64.4197C45.0966 66.2172 46.2673 67.4471 47.9702 67.4471ZM47.9229 62.2911C48.9044 62.2911 49.5312 62.9297 49.5312 63.8876H46.1964C46.3383 62.8706 46.9532 62.2911 47.9229 62.2911Z" fill="#201B19"></path> <path d="M56.4661 67.3052V63.9231H58.6538L60.2503 67.3052H61.5393L59.8009 63.6984C60.8652 63.3554 61.4565 62.504 61.4565 61.3214C61.4565 59.725 60.3685 58.7553 58.5356 58.7553H55.3072V67.3052H56.4661ZM56.4661 59.7959H58.5356C59.5999 59.7959 60.2385 60.3399 60.2385 61.3332C60.2385 62.3148 59.6235 62.8942 58.5474 62.8942H56.4661V59.7959Z" fill="#201B19"></path> <path d="M64.9349 67.4471C66.3658 67.4471 67.3355 66.7494 67.6193 65.5077H66.5787C66.3894 66.1699 65.8218 66.5247 64.9585 66.5247C63.8588 66.5247 63.2202 65.8506 63.1374 64.6326L67.6075 64.6208V64.2069C67.6075 62.4921 66.5314 61.3569 64.8876 61.3569C63.2084 61.3569 62.0613 62.6104 62.0613 64.4197C62.0613 66.2172 63.232 67.4471 64.9349 67.4471ZM64.8876 62.2911C65.8691 62.2911 66.4959 62.9297 66.4959 63.8876H63.1611C63.303 62.8706 63.9179 62.2911 64.8876 62.2911Z" fill="#201B19"></path> <path d="M68.3761 65.6259C68.3761 66.7257 69.2393 67.4471 70.5993 67.4471C71.971 67.4471 72.9171 66.7494 72.9171 65.6496C72.9171 64.7863 72.4322 64.3369 71.4507 64.1004L70.4337 63.8521C69.8661 63.7102 69.5823 63.45 69.5823 63.0598C69.5823 62.5276 69.9725 62.2202 70.6702 62.2202C71.3443 62.2202 71.7345 62.5868 71.7582 63.1662H72.8225C72.7988 62.0664 71.971 61.3569 70.7057 61.3569C69.4285 61.3569 68.5298 62.031 68.5298 63.0953C68.5298 63.9467 69.0146 64.4552 70.0435 64.7035L71.0605 64.94C71.6636 65.0938 71.8528 65.3303 71.8528 65.7205C71.8528 66.2527 71.4034 66.572 70.6229 66.572C69.8897 66.572 69.4404 66.2172 69.4404 65.6259H68.3761Z" fill="#201B19"></path> <path d="M75.7817 67.3052V62.4567H76.917V61.5224H75.7817V59.7131H74.6701V61.5224H73.5349V62.4567H74.6701V67.3052H75.7817Z" fill="#201B19"></path> <path d="M79.5364 67.4471C80.4706 67.4471 81.2629 67.0332 81.5586 66.3709L81.6768 67.3052H82.6229V63.6747C82.6229 62.1137 81.6532 61.3569 80.2223 61.3569C78.7322 61.3569 77.7389 62.1492 77.7389 63.3554H78.7086C78.7086 62.6577 79.2407 62.2438 80.175 62.2438C80.9555 62.2438 81.5349 62.5868 81.5349 63.5565V63.722L79.7138 63.8639C78.3538 63.9704 77.5615 64.6326 77.5615 65.6969C77.5615 66.7494 78.2947 67.4471 79.5364 67.4471ZM79.8557 66.5838C79.1343 66.5838 78.6849 66.2764 78.6849 65.6614C78.6849 65.0938 79.087 64.7154 80.0685 64.6208L81.5467 64.5025V64.81C81.5467 65.8979 80.9082 66.5838 79.8557 66.5838Z" fill="#201B19"></path> <path d="M88.1594 61.5224V64.5735C88.1594 65.8151 87.6036 66.4656 86.5866 66.4656C85.7351 66.4656 85.203 65.9925 85.203 64.7508V61.5224H84.0914V65.1174C84.0914 66.5365 84.8482 67.4471 86.1963 67.4471C87.0478 67.4471 87.8164 67.0332 88.1476 66.4301L88.2658 67.3052H89.2592V61.5224H88.1594Z" fill="#201B19"></path> <path d="M94.1832 61.4751C93.9585 61.4278 93.7929 61.4042 93.5919 61.4042C92.7996 61.4042 92.2201 61.8063 91.9836 62.4094L91.9126 61.5343H90.872V67.3052H91.9836V64.2423C91.9836 63.1307 92.634 62.4921 93.6865 62.4921H94.1832V61.4751Z" fill="#201B19"></path> <path d="M96.6858 67.4471C97.6201 67.4471 98.4124 67.0332 98.708 66.3709L98.8263 67.3052H99.7723V63.6747C99.7723 62.1137 98.8026 61.3569 97.3717 61.3569C95.8817 61.3569 94.8883 62.1492 94.8883 63.3554H95.858C95.858 62.6577 96.3902 62.2438 97.3244 62.2438C98.1049 62.2438 98.6844 62.5868 98.6844 63.5565V63.722L96.8632 63.8639C95.5033 63.9704 94.711 64.6326 94.711 65.6969C94.711 66.7494 95.4441 67.4471 96.6858 67.4471ZM97.0051 66.5838C96.2838 66.5838 95.8344 66.2764 95.8344 65.6614C95.8344 65.0938 96.2365 64.7154 97.218 64.6208L98.6962 64.5025V64.81C98.6962 65.8979 98.0576 66.5838 97.0051 66.5838Z" fill="#201B19"></path> <path d="M102.423 67.3052V64.2423C102.423 63.1189 103.026 62.3739 104.067 62.3739C104.919 62.3739 105.463 62.8469 105.463 64.0177V67.3052H106.574V63.7693C106.574 62.2911 105.876 61.3569 104.351 61.3569C103.535 61.3569 102.802 61.7471 102.435 62.4094L102.317 61.5224H101.312V67.3052H102.423Z" fill="#201B19"></path> <path d="M109.746 67.3052V62.4567H110.881V61.5224H109.746V59.7131H108.634V61.5224H107.499V62.4567H108.634V67.3052H109.746Z" fill="#201B19"></path> </svg> 