<?xml version="1.0" encoding="UTF-8"?> <svg xmlns="http://www.w3.org/2000/svg" width="390" height="170" viewBox="0 0 390 170" fill="none"> <path d="M40.4 114L37.52 88.16C37.0933 84.2667 36.64 80.08 36.16 75.6C36.2667 80.9333 36.32 85.12 36.32 88.16V114H31.12V58H38.56L40.64 75.76C40.8 77.04 40.9333 78.4 41.04 79.84C41.2 81.2267 41.3333 82.7733 41.44 84.48C41.6 86.1867 41.7333 87.52 41.84 88.48C41.7333 82.6133 41.68 78.3733 41.68 75.76V58H46.96V114H40.4ZM53.0869 107.6V64.4C53.0869 61.7333 53.4869 59.9467 54.2869 59.04C55.1402 58.08 56.7669 57.6 59.1669 57.6H61.9669C64.3669 57.6 65.9669 58.08 66.7669 59.04C67.6202 59.9467 68.0469 61.7333 68.0469 64.4V107.6C68.0469 110.267 67.6202 112.08 66.7669 113.04C65.9669 113.947 64.3669 114.4 61.9669 114.4H59.1669C56.7669 114.4 55.1402 113.947 54.2869 113.04C53.4869 112.08 53.0869 110.267 53.0869 107.6ZM61.9669 106.88V65.12C61.9669 64.4267 61.8869 63.9733 61.7269 63.76C61.5669 63.4933 61.2469 63.36 60.7669 63.36H60.3669C59.8869 63.36 59.5669 63.4933 59.4069 63.76C59.3002 63.9733 59.2469 64.4267 59.2469 65.12V106.88C59.2469 107.573 59.3002 108.053 59.4069 108.32C59.5669 108.533 59.8869 108.64 60.3669 108.64H60.7669C61.2469 108.64 61.5669 108.533 61.7269 108.32C61.8869 108.053 61.9669 107.573 61.9669 106.88ZM74.1181 107.6V64.4C74.1181 61.7333 74.5181 59.9467 75.3181 59.04C76.1715 58.08 77.7981 57.6 80.1981 57.6H82.9981C85.3981 57.6 86.9981 58.08 87.7981 59.04C88.6515 59.9467 89.0781 61.7333 89.0781 64.4V107.6C89.0781 110.267 88.6515 112.08 87.7981 113.04C86.9981 113.947 85.3981 114.4 82.9981 114.4H80.1981C77.7981 114.4 76.1715 113.947 75.3181 113.04C74.5181 112.08 74.1181 110.267 74.1181 107.6ZM82.9981 106.88V65.12C82.9981 64.4267 82.9181 63.9733 82.7581 63.76C82.5981 63.4933 82.2781 63.36 81.7981 63.36H81.3981C80.9181 63.36 80.5981 63.4933 80.4381 63.76C80.3315 63.9733 80.2781 64.4267 80.2781 65.12V106.88C80.2781 107.573 80.3315 108.053 80.4381 108.32C80.5981 108.533 80.9181 108.64 81.3981 108.64H81.7981C82.2781 108.64 82.5981 108.533 82.7581 108.32C82.9181 108.053 82.9981 107.573 82.9981 106.88ZM95.2294 114V58H104.109C106.563 58 108.189 58.48 108.989 59.44C109.843 60.3467 110.269 62.1333 110.269 64.8V107.2C110.269 109.867 109.843 111.68 108.989 112.64C108.189 113.547 106.563 114 104.109 114H95.2294ZM101.389 108.24H102.909C103.389 108.24 103.709 108.133 103.869 107.92C104.029 107.653 104.109 107.173 104.109 106.48V65.52C104.109 64.8267 104.029 64.3733 103.869 64.16C103.709 63.8933 103.389 63.76 102.909 63.76H101.389V108.24ZM116.417 114V58H122.577V108.24H127.137V114H116.417ZM138.608 63.76V82H142.768V87.76H138.608V108.24H143.968V114H132.448V58H143.968V63.76H138.608ZM157.891 106.88V96.08C157.891 94.2667 157.705 92.8 157.331 91.68C156.958 90.5067 156.078 88.9333 154.691 86.96C152.558 83.8133 151.145 81.36 150.451 79.6C149.811 77.7867 149.491 75.3067 149.491 72.16V64.4C149.491 61.7333 149.891 59.9467 150.691 59.04C151.545 58.08 153.171 57.6 155.571 57.6H157.891C160.345 57.6 161.971 58.08 162.771 59.04C163.625 59.9467 164.051 61.7333 164.051 64.4V77.68H158.291V65.12C158.291 64.4267 158.211 63.9733 158.051 63.76C157.891 63.4933 157.571 63.36 157.091 63.36H156.771C156.291 63.36 155.971 63.4933 155.811 63.76C155.705 63.9733 155.651 64.4267 155.651 65.12V72.96C155.651 74.88 155.811 76.4267 156.131 77.6C156.505 78.72 157.385 80.24 158.771 82.16C160.905 85.3067 162.318 87.7867 163.011 89.6C163.705 91.36 164.051 93.7867 164.051 96.88V107.6C164.051 110.267 163.625 112.08 162.771 113.04C161.971 113.947 160.345 114.4 157.891 114.4H155.571C153.171 114.4 151.545 113.947 150.691 113.04C149.891 112.08 149.491 110.267 149.491 107.6V91.52H155.251V106.88C155.251 107.573 155.331 108.053 155.491 108.32C155.651 108.533 155.971 108.64 156.451 108.64H156.691C157.171 108.64 157.491 108.533 157.651 108.32C157.811 108.053 157.891 107.573 157.891 106.88Z" fill="#201B19"></path> <rect x="1" y="1" width="388" height="168" stroke="#201B19" stroke-width="2"></rect> </svg> 