<?xml version="1.0" encoding="UTF-8"?> <svg xmlns="http://www.w3.org/2000/svg" width="390" height="170" viewBox="0 0 390 170" fill="none"> <path d="M46.16 92.32V108.64C46.16 111.093 46.4 112.88 46.88 114H40.56C40.1867 113.253 40 111.68 40 109.28V90.56C40 89.28 39.52 88.64 38.56 88.64H37.28V114H31.12V58H40C42.4533 58 44.08 58.48 44.88 59.44C45.7333 60.3467 46.16 62.1333 46.16 64.8V79.28C46.16 81.3067 45.92 82.8267 45.44 83.84C44.96 84.8 44.1067 85.44 42.88 85.76C44.1067 86.08 44.96 86.7467 45.44 87.76C45.92 88.72 46.16 90.24 46.16 92.32ZM40 81.12V65.52C40 64.8267 39.92 64.3733 39.76 64.16C39.6 63.8933 39.28 63.76 38.8 63.76H37.28V82.88H38.8C39.28 82.88 39.6 82.7733 39.76 82.56C39.92 82.2933 40 81.8133 40 81.12ZM61.3475 114L60.8675 106.4H57.3475L56.9475 114H51.4275L55.2675 58H63.6675L67.5075 114H61.3475ZM57.8275 99.04L57.7475 100.64H60.5475L60.4675 99.04C59.7208 83.52 59.2675 73.1467 59.1075 67.92C58.8942 75.92 58.4675 86.2933 57.8275 99.04ZM87.5881 87.68L85.5881 114H81.1881L79.1081 87.68C78.9481 85.8667 78.6281 81.1467 78.1481 73.52C78.2548 80.1333 78.3081 84.8533 78.3081 87.68V114H72.9481V58H81.5081L83.1881 80.16C83.3481 82.1867 83.4815 85.4133 83.5881 89.84C83.5881 89.7333 83.6415 88.4 83.7481 85.84C83.8548 83.28 83.9615 81.3867 84.0681 80.16L85.8281 58H94.3881V114H88.3881V87.68C88.3881 84.9067 88.4415 80.2133 88.5481 73.6C88.0148 81.44 87.6948 86.1333 87.5881 87.68ZM106.78 63.76V82H110.94V87.76H106.78V108.24H112.14V114H100.62V58H112.14V63.76H106.78ZM127.103 114L124.223 88.16C123.796 84.2667 123.343 80.08 122.863 75.6C122.97 80.9333 123.023 85.12 123.023 88.16V114H117.823V58H125.263L127.343 75.76C127.503 77.04 127.636 78.4 127.743 79.84C127.903 81.2267 128.036 82.7733 128.143 84.48C128.303 86.1867 128.436 87.52 128.543 88.48C128.436 82.6133 128.383 78.3733 128.383 75.76V58H133.663V114H127.103Z" fill="#201B19"></path> <rect x="1" y="1" width="388" height="168" stroke="#201B19" stroke-width="2"></rect> </svg> 