<?xml version="1.0" encoding="UTF-8"?> <svg xmlns="http://www.w3.org/2000/svg" width="390" height="170" viewBox="0 0 390 170" fill="none"> <path d="M39.36 106.88V96.08C39.36 94.2667 39.1733 92.8 38.8 91.68C38.4267 90.5067 37.5467 88.9333 36.16 86.96C34.0267 83.8133 32.6133 81.36 31.92 79.6C31.28 77.7867 30.96 75.3067 30.96 72.16V64.4C30.96 61.7333 31.36 59.9467 32.16 59.04C33.0133 58.08 34.64 57.6 37.04 57.6H39.36C41.8133 57.6 43.44 58.08 44.24 59.04C45.0933 59.9467 45.52 61.7333 45.52 64.4V77.68H39.76V65.12C39.76 64.4267 39.68 63.9733 39.52 63.76C39.36 63.4933 39.04 63.36 38.56 63.36H38.24C37.76 63.36 37.44 63.4933 37.28 63.76C37.1733 63.9733 37.12 64.4267 37.12 65.12V72.96C37.12 74.88 37.28 76.4267 37.6 77.6C37.9733 78.72 38.8533 80.24 40.24 82.16C42.3733 85.3067 43.7867 87.7867 44.48 89.6C45.1733 91.36 45.52 93.7867 45.52 96.88V107.6C45.52 110.267 45.0933 112.08 44.24 113.04C43.44 113.947 41.8133 114.4 39.36 114.4H37.04C34.64 114.4 33.0133 113.947 32.16 113.04C31.36 112.08 30.96 110.267 30.96 107.6V91.52H36.72V106.88C36.72 107.573 36.8 108.053 36.96 108.32C37.12 108.533 37.44 108.64 37.92 108.64H38.16C38.64 108.64 38.96 108.533 39.12 108.32C39.28 108.053 39.36 107.573 39.36 106.88ZM59.8463 114H53.7663V63.68H50.4863V58H63.1263V63.68H59.8463V114ZM75.8944 114L75.4144 106.4H71.8944L71.4944 114H65.9744L69.8144 58H78.2144L82.0544 114H75.8944ZM72.3744 99.04L72.2944 100.64H75.0944L75.0144 99.04C74.2677 83.52 73.8144 73.1467 73.6544 67.92C73.441 75.92 73.0144 86.2933 72.3744 99.04ZM102.535 92.32V108.64C102.535 111.093 102.775 112.88 103.255 114H96.935C96.5617 113.253 96.375 111.68 96.375 109.28V90.56C96.375 89.28 95.895 88.64 94.935 88.64H93.655V114H87.495V58H96.375C98.8283 58 100.455 58.48 101.255 59.44C102.108 60.3467 102.535 62.1333 102.535 64.8V79.28C102.535 81.3067 102.295 82.8267 101.815 83.84C101.335 84.8 100.482 85.44 99.255 85.76C100.482 86.08 101.335 86.7467 101.815 87.76C102.295 88.72 102.535 90.24 102.535 92.32ZM96.375 81.12V65.52C96.375 64.8267 96.295 64.3733 96.135 64.16C95.975 63.8933 95.655 63.76 95.175 63.76H93.655V82.88H95.175C95.655 82.88 95.975 82.7733 96.135 82.56C96.295 82.2933 96.375 81.8133 96.375 81.12ZM117.003 114H110.923V63.68H107.643V58H120.283V63.68H117.003V114ZM131.655 63.76V82H135.815V87.76H131.655V108.24H137.015V114H125.495V58H137.015V63.76H131.655ZM157.738 92.32V108.64C157.738 111.093 157.978 112.88 158.458 114H152.138C151.765 113.253 151.578 111.68 151.578 109.28V90.56C151.578 89.28 151.098 88.64 150.138 88.64H148.858V114H142.698V58H151.578C154.031 58 155.658 58.48 156.458 59.44C157.311 60.3467 157.738 62.1333 157.738 64.8V79.28C157.738 81.3067 157.498 82.8267 157.018 83.84C156.538 84.8 155.685 85.44 154.458 85.76C155.685 86.08 156.538 86.7467 157.018 87.76C157.498 88.72 157.738 90.24 157.738 92.32ZM151.578 81.12V65.52C151.578 64.8267 151.498 64.3733 151.338 64.16C151.178 63.8933 150.858 63.76 150.378 63.76H148.858V82.88H150.378C150.858 82.88 151.178 82.7733 151.338 82.56C151.498 82.2933 151.578 81.8133 151.578 81.12ZM172.126 106.88V96.08C172.126 94.2667 171.939 92.8 171.566 91.68C171.192 90.5067 170.312 88.9333 168.926 86.96C166.792 83.8133 165.379 81.36 164.686 79.6C164.046 77.7867 163.726 75.3067 163.726 72.16V64.4C163.726 61.7333 164.126 59.9467 164.926 59.04C165.779 58.08 167.406 57.6 169.806 57.6H172.126C174.579 57.6 176.206 58.08 177.006 59.04C177.859 59.9467 178.286 61.7333 178.286 64.4V77.68H172.526V65.12C172.526 64.4267 172.446 63.9733 172.286 63.76C172.126 63.4933 171.806 63.36 171.326 63.36H171.006C170.526 63.36 170.206 63.4933 170.046 63.76C169.939 63.9733 169.886 64.4267 169.886 65.12V72.96C169.886 74.88 170.046 76.4267 170.366 77.6C170.739 78.72 171.619 80.24 173.006 82.16C175.139 85.3067 176.552 87.7867 177.246 89.6C177.939 91.36 178.286 93.7867 178.286 96.88V107.6C178.286 110.267 177.859 112.08 177.006 113.04C176.206 113.947 174.579 114.4 172.126 114.4H169.806C167.406 114.4 165.779 113.947 164.926 113.04C164.126 112.08 163.726 110.267 163.726 107.6V91.52H169.486V106.88C169.486 107.573 169.566 108.053 169.726 108.32C169.886 108.533 170.206 108.64 170.686 108.64H170.926C171.406 108.64 171.726 108.533 171.886 108.32C172.046 108.053 172.126 107.573 172.126 106.88Z" fill="#201B19"></path> <rect x="1" y="1" width="388" height="168" stroke="#201B19" stroke-width="2"></rect> </svg> 