<?xml version="1.0" encoding="UTF-8"?> <svg xmlns="http://www.w3.org/2000/svg" width="735" height="158" viewBox="0 0 735 158" fill="none"> <path d="M5.88786 47.3933C4.10365 47.3933 2.6763 46.8585 1.60578 45.7888C0.535259 44.7192 0 43.2929 0 41.5101V10.1687C0 8.52857 0.535259 7.20931 1.60578 6.21095C2.74767 5.14127 4.06797 4.60645 5.5667 4.60645H21.7316C22.9448 4.60645 23.8012 4.92735 24.3008 5.56914C24.8718 6.13964 25.1572 6.88841 25.1572 7.81546C25.1572 8.6712 24.8361 9.41997 24.1937 10.0618C23.6228 10.7036 22.802 11.0245 21.7316 11.0245H10.277C8.42142 11.0245 7.49364 11.9515 7.49364 13.8056V19.6888C7.49364 21.5429 8.35005 22.47 10.0629 22.47H20.661C21.8743 22.47 22.7307 22.7908 23.2303 23.4327C23.8012 24.0744 24.0867 24.8232 24.0867 25.679C24.0867 26.4634 23.7655 27.2122 23.1233 27.9253C22.5523 28.5671 21.7316 28.888 20.661 28.888H10.0629C8.35005 28.888 7.49364 29.7794 7.49364 31.5622V38.0872C7.49364 39.9413 8.38574 40.8683 10.1699 40.8683H22.802C24.0153 40.8683 24.8718 41.2249 25.3713 41.938C25.9423 42.5798 26.2277 43.3285 26.2277 44.1843C26.2277 45.04 25.9066 45.7888 25.2643 46.4306C24.6933 47.0724 23.8726 47.3933 22.802 47.3933H5.88786Z" fill="#201B19"></path> <path d="M53.2201 48.463C52.0068 48.463 50.8292 48.1421 49.6873 47.5003C48.6169 46.9298 47.8675 46.0384 47.4393 44.8262L34.5931 8.99214C34.4503 8.42165 34.3789 7.95813 34.3789 7.60157C34.3789 6.5319 34.7358 5.67616 35.4494 5.03436C36.1632 4.39256 36.9838 4.07166 37.9117 4.07166C38.5539 4.07166 39.1963 4.21428 39.8386 4.49953C40.5523 4.78477 41.0875 5.3196 41.4443 6.10403L52.2566 37.6593C52.4707 38.2299 52.8276 38.5151 53.3271 38.5151C53.8267 38.5151 54.1836 38.2299 54.3977 37.6593L65.8522 6.10403C66.209 5.3196 66.7087 4.78477 67.3509 4.49953C68.0647 4.21428 68.7426 4.07166 69.385 4.07166C70.3127 4.07166 71.1335 4.39256 71.8471 5.03436C72.5608 5.67616 72.9176 6.5319 72.9176 7.60157C72.9176 7.95813 72.8463 8.42165 72.7036 8.99214L59.0009 44.8262C58.5013 46.0384 57.7163 46.9298 56.6457 47.5003C55.5753 48.1421 54.4334 48.463 53.2201 48.463Z" fill="#201B19"></path> <path d="M101.323 48.4629C97.1838 48.4629 93.4014 47.5002 89.9757 45.5748C86.621 43.5781 83.945 40.9039 81.9467 37.5523C79.9484 34.1293 78.9492 30.2785 78.9492 25.9998C78.9492 21.5072 79.9484 17.5851 81.9467 14.2335C83.945 10.8818 86.621 8.27895 89.9757 6.42486C93.4014 4.49945 97.1838 3.53674 101.323 3.53674C105.462 3.53674 109.174 4.49945 112.456 6.42486C115.811 8.27895 118.451 10.8818 120.379 14.2335C122.377 17.5851 123.376 21.5072 123.376 25.9998C123.376 30.2785 122.377 34.1293 120.379 37.5523C118.451 40.9039 115.811 43.5781 112.456 45.5748C109.174 47.5002 105.462 48.4629 101.323 48.4629ZM101.323 41.9379C104.178 41.9379 106.675 41.2248 108.817 39.7986C111.029 38.3011 112.742 36.34 113.955 33.9154C115.168 31.4909 115.775 28.8523 115.775 25.9998C115.775 21.4359 114.419 17.6564 111.707 14.6613C108.995 11.6662 105.534 10.1687 101.323 10.1687C97.0413 10.1687 93.5439 11.6662 90.8319 14.6613C88.12 17.6564 86.7644 21.4359 86.7644 25.9998C86.7644 28.8523 87.3709 31.4909 88.5839 33.9154C89.7969 36.34 91.5102 38.3011 93.7228 39.7986C95.9345 41.2248 98.4685 41.9379 101.323 41.9379Z" fill="#201B19"></path> <path d="M138.972 47.3934C137.187 47.3934 135.76 46.8586 134.689 45.7889C133.619 44.7192 133.084 43.293 133.084 41.5102V7.60157C133.084 6.38928 133.476 5.49788 134.262 4.9274C135.118 4.3569 136.009 4.07166 136.937 4.07166C137.865 4.07166 138.686 4.3569 139.4 4.9274C140.185 5.49788 140.577 6.38928 140.577 7.60157V37.9803C140.577 39.0499 140.791 39.7987 141.22 40.2266C141.648 40.5831 142.361 40.7614 143.361 40.7614H154.387C155.529 40.7614 156.35 41.1179 156.849 41.8311C157.42 42.5442 157.705 43.293 157.705 44.0774C157.705 44.9331 157.42 45.7175 156.849 46.4306C156.35 47.0725 155.529 47.3934 154.387 47.3934H138.972Z" fill="#201B19"></path> <path d="M196.941 7.60157C196.941 6.46059 197.333 5.60485 198.118 5.03436C198.904 4.39256 199.76 4.07166 200.688 4.07166C201.616 4.07166 202.436 4.3569 203.15 4.9274C203.935 5.49788 204.328 6.38928 204.328 7.60157V31.0273C204.328 35.2348 203.435 38.622 201.651 41.1893C199.867 43.7565 197.584 45.6106 194.8 46.7515C192.016 47.8925 189.091 48.463 186.022 48.463C182.596 48.463 179.491 47.8925 176.708 46.7515C173.996 45.6106 171.855 43.7565 170.285 41.1893C168.715 38.5508 167.93 35.1278 167.93 30.9204V7.60157C167.93 6.38928 168.322 5.53354 169.107 5.03436C169.893 4.46387 170.749 4.17862 171.677 4.17862C172.605 4.17862 173.425 4.46387 174.139 5.03436C174.923 5.53354 175.317 6.38928 175.317 7.60157V30.9204C175.317 34.6999 176.245 37.4811 178.099 39.2639C180.027 40.9753 182.667 41.8311 186.022 41.8311C189.019 41.8311 191.589 40.9753 193.729 39.2639C195.87 37.4811 196.941 34.7356 196.941 31.0273V7.60157Z" fill="#201B19"></path> <path d="M229.005 48.463C227.863 48.463 226.935 48.1421 226.222 47.5003C225.58 46.8585 225.258 46.0383 225.258 45.04V13.9126C225.258 12.1298 224.331 11.2384 222.476 11.2384H215.731C213.519 11.2384 212.412 10.1331 212.412 7.92242C212.412 5.71177 213.519 4.60645 215.731 4.60645H242.173C243.172 4.60645 243.993 4.92735 244.635 5.56914C245.277 6.13964 245.599 6.92407 245.599 7.92242C245.599 8.92079 245.277 9.74086 244.635 10.3827C243.993 10.9532 243.172 11.2384 242.173 11.2384H235.535C233.68 11.2384 232.752 12.1298 232.752 13.9126V45.04C232.752 46.0383 232.396 46.8585 231.682 47.5003C231.039 48.1421 230.148 48.463 229.005 48.463Z" fill="#201B19"></path> <path d="M258.009 48.463C257.081 48.463 256.225 48.1421 255.439 47.5003C254.655 46.9298 254.262 46.0741 254.262 44.9331V7.60157C254.262 6.38928 254.655 5.49788 255.439 4.9274C256.225 4.3569 257.081 4.07166 258.009 4.07166C259.008 4.07166 259.865 4.3569 260.578 4.9274C261.363 5.49788 261.756 6.38928 261.756 7.60157V44.9331C261.756 46.0741 261.363 46.9298 260.578 47.5003C259.865 48.1421 259.008 48.463 258.009 48.463Z" fill="#201B19"></path> <path d="M294.379 48.4629C290.24 48.4629 286.457 47.5002 283.032 45.5748C279.678 43.5781 277.001 40.9039 275.003 37.5523C273.005 34.1293 272.006 30.2785 272.006 25.9998C272.006 21.5072 273.005 17.5851 275.003 14.2335C277.001 10.8818 279.678 8.27895 283.032 6.42486C286.457 4.49945 290.24 3.53674 294.379 3.53674C298.518 3.53674 302.23 4.49945 305.513 6.42486C308.867 8.27895 311.508 10.8818 313.435 14.2335C315.433 17.5851 316.432 21.5072 316.432 25.9998C316.432 30.2785 315.433 34.1293 313.435 37.5523C311.508 40.9039 308.867 43.5781 305.513 45.5748C302.23 47.5002 298.518 48.4629 294.379 48.4629ZM294.379 41.9379C297.235 41.9379 299.732 41.2248 301.873 39.7986C304.086 38.3011 305.798 36.34 307.011 33.9154C308.225 31.4909 308.832 28.8523 308.832 25.9998C308.832 21.4359 307.475 17.6564 304.763 14.6613C302.051 11.6662 298.59 10.1687 294.379 10.1687C290.097 10.1687 286.6 11.6662 283.888 14.6613C281.176 17.6564 279.82 21.4359 279.82 25.9998C279.82 28.8523 280.427 31.4909 281.64 33.9154C282.854 36.34 284.566 38.3011 286.779 39.7986C288.991 41.2248 291.525 41.9379 294.379 41.9379Z" fill="#201B19"></path> <path d="M329.884 48.463C328.956 48.463 328.1 48.1777 327.314 47.6073C326.529 47.0368 326.137 46.181 326.137 45.0401V8.99214C326.137 7.35198 326.636 6.13969 327.636 5.35526C328.706 4.49953 329.847 4.07166 331.061 4.07166C332.916 4.07166 334.273 4.78477 335.129 6.211L352.793 33.9155C353.149 34.486 353.542 34.7712 353.97 34.7712C354.612 34.7712 354.934 34.272 354.934 33.2736L354.505 7.4946C354.505 6.35362 354.898 5.49788 355.683 4.9274C356.468 4.3569 357.324 4.07166 358.252 4.07166C359.18 4.07166 360.036 4.3569 360.821 4.9274C361.607 5.49788 361.999 6.35362 361.999 7.4946V43.7565C361.999 45.3253 361.535 46.502 360.607 47.2864C359.679 48.0708 358.609 48.463 357.396 48.463C356.54 48.463 355.683 48.2491 354.826 47.8212C354.042 47.4646 353.364 46.8586 352.793 46.0028L335.45 19.0471C335.093 18.4766 334.701 18.1913 334.273 18.1913C333.63 18.1913 333.309 18.6905 333.309 19.6888L333.63 45.0401C333.63 46.181 333.238 47.0368 332.452 47.6073C331.739 48.1777 330.882 48.463 329.884 48.463Z" fill="#201B19"></path> <path d="M362.729 130.03L370.743 113.842L382.508 113.786L398.457 152.861H384.797L375.322 129.64L362.729 155.038L350.135 129.64L340.66 152.861H327L342.95 113.786L354.714 113.842L362.729 130.03Z" fill="#201B19"></path> <path d="M424.267 154.536C422.345 154.573 420.345 154.406 418.266 154.034C416.186 153.699 414.147 153.159 412.147 152.415C410.173 151.633 408.291 150.666 406.501 149.512C404.737 148.358 403.185 147 401.842 145.437C400.5 143.837 399.434 142.032 398.644 140.022C397.881 138.013 397.5 135.78 397.5 133.324C397.5 130.868 397.881 128.635 398.644 126.625C399.408 124.579 400.461 122.774 401.803 121.211C403.145 119.61 404.698 118.234 406.462 117.08C408.251 115.926 410.133 114.977 412.107 114.233C414.108 113.489 416.147 112.949 418.226 112.614C420.306 112.242 422.319 112.075 424.267 112.112C426.214 112.075 428.228 112.242 430.307 112.614C432.412 112.949 434.452 113.489 436.426 114.233C438.426 114.977 440.308 115.926 442.071 117.08C443.861 118.234 445.427 119.61 446.769 121.211C448.112 122.774 449.164 124.579 449.927 126.625C450.717 128.635 451.112 130.868 451.112 133.324C451.112 135.78 450.717 138.013 449.927 140.022C449.164 142.032 448.098 143.837 446.73 145.437C445.388 147 443.822 148.358 442.032 149.512C440.268 150.666 438.387 151.633 436.387 152.415C434.412 153.159 432.373 153.699 430.267 154.034C428.188 154.406 426.188 154.573 424.267 154.536ZM411.515 133.324C411.515 134.999 411.844 136.468 412.502 137.734C413.186 138.962 414.108 139.985 415.265 140.804C416.45 141.585 417.805 142.181 419.332 142.59C420.884 143 422.53 143.204 424.267 143.204C426.004 143.204 427.648 143 429.201 142.59C430.754 142.181 432.109 141.585 433.268 140.804C434.452 139.985 435.387 138.962 436.07 137.734C436.755 136.468 437.097 134.999 437.097 133.324C437.097 131.649 436.755 130.198 436.07 128.97C435.387 127.705 434.452 126.681 433.268 125.9C432.109 125.081 430.754 124.467 429.201 124.058C427.648 123.648 426.004 123.444 424.267 123.444C422.53 123.444 420.884 123.648 419.332 124.058C417.805 124.467 416.45 125.081 415.265 125.9C414.108 126.681 413.186 127.705 412.502 128.97C411.844 130.198 411.515 131.649 411.515 133.324Z" fill="#201B19"></path> <path d="M486.542 113.786C490.598 113.786 494.004 114.363 496.767 115.517C499.555 116.67 501.809 118.457 503.521 120.876C505.257 123.257 506.509 126.309 507.269 130.03C508.028 133.752 508.412 138.199 508.412 143.372V152.861H496.567V143.372C496.567 139.799 496.283 136.822 495.699 134.44C495.123 132.058 494.23 130.179 493.019 128.802C491.809 127.388 490.265 126.402 488.395 125.844C486.558 125.248 484.354 124.951 481.808 124.951H467.119V152.861H455.275V113.786H486.542Z" fill="#201B19"></path> <path d="M538.548 154.536C536.628 154.573 534.624 154.406 532.546 154.034C530.467 153.699 528.43 153.159 526.427 152.415C524.457 151.633 522.57 150.666 520.784 149.512C519.023 148.358 517.47 147 516.126 145.437C514.782 143.837 513.713 142.032 512.929 140.022C512.161 138.013 511.785 135.78 511.785 133.324C511.785 130.868 512.161 128.635 512.929 126.625C513.688 124.579 514.74 122.774 516.084 121.211C517.428 119.61 518.981 118.234 520.742 117.08C522.537 115.926 524.415 114.977 526.385 114.233C528.389 113.489 530.425 112.949 532.504 112.614C534.591 112.242 536.603 112.075 538.548 112.112C540.493 112.075 542.513 112.242 544.591 112.614C546.695 112.949 548.732 113.489 550.71 114.233C552.705 114.977 554.592 115.926 556.353 117.08C558.14 118.234 559.709 119.61 561.053 121.211C562.397 122.774 563.449 124.579 564.208 126.625C565.001 128.635 565.394 130.868 565.394 133.324C565.394 135.78 565.001 138.013 564.208 140.022C563.449 142.032 562.38 143.837 561.011 145.437C559.667 147 558.106 148.358 556.311 149.512C554.55 150.666 552.672 151.633 550.668 152.415C548.69 153.159 546.653 153.699 544.55 154.034C542.471 154.406 540.468 154.573 538.548 154.536ZM525.793 133.324C525.793 134.999 526.126 136.468 526.786 137.734C527.47 138.962 528.389 139.985 529.549 140.804C530.734 141.585 532.087 142.181 533.614 142.59C535.167 143 536.811 143.204 538.548 143.204C540.284 143.204 541.928 143 543.481 142.59C545.034 142.181 546.394 141.585 547.546 140.804C548.732 139.985 549.667 138.962 550.351 137.734C551.036 136.468 551.378 134.999 551.378 133.324C551.378 131.649 551.036 130.198 550.351 128.97C549.667 127.705 548.732 126.681 547.546 125.9C546.394 125.081 545.034 124.467 543.481 124.058C541.928 123.648 540.284 123.444 538.548 123.444C536.811 123.444 535.167 123.648 533.614 124.058C532.087 124.467 530.734 125.081 529.549 125.9C528.389 126.681 527.47 127.705 526.786 128.97C526.126 130.198 525.793 131.649 525.793 133.324Z" fill="#201B19"></path> <path d="M582.029 133.324C582.029 135.259 582.38 136.878 583.098 138.18C583.807 139.446 584.767 140.469 585.978 141.25C587.213 141.995 588.632 142.534 590.243 142.869C591.846 143.167 593.541 143.316 595.336 143.316C597.389 143.316 599.476 143.148 601.613 142.813C603.742 142.478 605.753 142.088 607.648 141.641C609.543 141.157 611.246 140.655 612.74 140.134C614.243 139.613 615.378 139.166 616.138 138.794V149.679C615.161 150.387 613.942 151.038 612.465 151.633C611.021 152.229 609.385 152.75 607.573 153.196C605.778 153.643 603.858 153.996 601.805 154.257C599.751 154.517 597.664 154.648 595.527 154.648C593.349 154.648 591.145 154.499 588.933 154.201C586.754 153.903 584.651 153.419 582.622 152.75C580.619 152.043 578.74 151.149 576.979 150.07C575.234 148.954 573.715 147.614 572.396 146.051C571.077 144.451 570.025 142.609 569.241 140.525C568.473 138.403 568.064 136.003 568.014 133.324C568.089 130.644 568.515 128.263 569.274 126.179C570.042 124.057 571.077 122.215 572.396 120.652C573.715 119.052 575.234 117.712 576.979 116.633C578.74 115.517 580.619 114.624 582.622 113.954C584.651 113.247 586.754 112.744 588.933 112.447C591.145 112.149 593.349 112 595.527 112C597.664 112 599.751 112.13 601.805 112.391C603.858 112.651 605.778 113.005 607.573 113.451C609.385 113.898 611.021 114.419 612.465 115.014C613.942 115.61 615.161 116.261 616.138 116.968V127.853C615.378 127.481 614.243 127.035 612.74 126.514C611.246 125.993 609.543 125.509 607.648 125.062C605.753 124.578 603.742 124.169 601.613 123.834C599.476 123.499 597.389 123.332 595.336 123.332C593.541 123.332 591.846 123.499 590.243 123.834C588.632 124.132 587.213 124.671 585.978 125.453C584.767 126.197 583.807 127.221 583.098 128.523C582.38 129.788 582.029 131.389 582.029 133.324Z" fill="#201B19"></path> <path d="M620.277 113.786H632.123V141.697H664.887V152.861H620.277V113.786Z" fill="#201B19"></path> <path d="M681.257 141.697H716V152.861H669.412V113.786H714.03V124.951H681.257V127.742H708.496V138.906H681.257V141.697Z" fill="#201B19"></path> <path d="M463.52 48.5564C463.307 49.5707 462.32 50.0779 460.56 50.0779C459.12 50.0779 458.08 49.7576 457.44 49.1169C457.173 48.2093 456.8 47.1149 456.32 45.8336C455.84 44.4989 455.28 42.9773 454.64 41.2689C454.32 39.1868 454 37.7186 453.68 36.8644C453.413 36.0102 453.067 35.3695 452.64 34.9424C451.84 34.9958 450.693 35.1026 449.2 35.2627C447.707 35.3695 446.133 35.5297 444.48 35.7432C442.827 35.9034 441.28 36.1436 439.84 36.464C438.4 36.7309 437.36 37.0245 436.72 37.3449C436.453 38.6796 436.133 40.1477 435.76 41.7494C435.387 43.351 434.933 45.0594 434.4 46.8746C434.24 47.4085 433.867 47.7822 433.28 47.9958C432.693 48.2627 431.973 48.3962 431.12 48.3962C430.267 48.3962 429.52 48.236 428.88 47.9157C428.293 47.6488 428 47.2217 428 46.6344C428 45.5666 428.64 42.39 429.92 37.1046C429.867 36.8911 429.84 36.5707 429.84 36.1436C429.84 35.4496 429.92 34.5954 430.08 33.581C430.293 32.5132 430.507 31.4989 430.72 30.5379C430.933 29.5769 431.12 28.7494 431.28 28.0553C431.493 27.3613 431.6 26.9876 431.6 26.9342L434.16 19.8069C434.267 19.1128 434.533 18.1785 434.96 17.004C435.44 15.8295 435.947 14.6282 436.48 13.4003C437.013 12.1724 437.52 11.0245 438 9.9568C438.48 8.83565 438.8 7.98144 438.96 7.39417C439.44 5.63236 440.72 4.75146 442.8 4.75146C444.507 4.75146 445.6 5.39212 446.08 6.67343C446.08 6.67343 446.24 6.96707 446.56 7.55433C446.88 8.1416 447.307 8.88904 447.84 9.79663C448.373 10.7042 448.933 11.7186 449.52 12.8397C450.16 13.9075 450.747 14.9486 451.28 15.9629C451.813 16.9239 452.267 17.8048 452.64 18.6056C453.013 19.3531 453.227 19.8603 453.28 20.1272C453.707 21.1416 454.24 22.3161 454.88 23.6508C455.52 24.9321 456.293 26.3736 457.2 27.9753C457.733 28.6693 458.213 29.6036 458.64 30.7781C459.12 31.8993 459.547 33.0471 459.92 34.2217C460.293 35.3962 460.613 36.464 460.88 37.425C461.147 38.3859 461.387 39.0266 461.6 39.3469C461.6 39.7206 461.707 40.3079 461.92 41.1087C462.187 41.8562 462.427 42.657 462.64 43.5112C462.907 44.3654 463.147 45.1662 463.36 45.9137C463.573 46.6611 463.68 47.195 463.68 47.5153C463.68 47.7822 463.627 48.1293 463.52 48.5564ZM449.52 28.3757C449.093 27.0944 448.693 25.9999 448.32 25.0923C448 24.1847 447.6 23.2771 447.12 22.3695C446.693 21.4619 446.187 20.4475 445.6 19.3264C445.013 18.1518 444.267 16.657 443.36 14.8418C442.133 17.0841 441.253 19.6734 440.72 22.6098C439.6 24.7987 438.8 27.121 438.32 29.5769C439.973 29.0964 441.307 28.8562 442.32 28.8562C442.693 28.8562 442.96 28.8829 443.12 28.9362C444.027 28.7227 445.12 28.6159 446.4 28.6159C447.68 28.6159 448.72 28.5358 449.52 28.3757Z" fill="#201B19"></path> <path d="M504.731 44.9527C504.731 45.9137 504.304 46.8213 503.451 47.6755C502.597 48.4763 501.744 48.8767 500.891 48.8767C500.464 48.8767 500.117 48.7432 499.851 48.4763C499.797 48.4763 499.557 48.2093 499.131 47.6755C498.704 47.1416 498.197 46.4742 497.611 45.6734C497.024 44.8726 496.384 44.0184 495.691 43.1108C494.997 42.2032 494.357 41.349 493.771 40.5482C493.184 39.7473 492.704 39.1067 492.331 38.6262C492.011 38.0923 491.877 37.8521 491.931 37.9054C491.824 37.5851 491.557 37.0779 491.131 36.3839C490.704 35.6898 490.224 34.9691 489.691 34.2217C489.211 33.4208 488.757 32.7001 488.331 32.0594C487.904 31.3654 487.664 30.9383 487.611 30.7781C487.504 30.7781 487.211 30.8315 486.731 30.9383C486.251 30.9917 485.717 31.0718 485.131 31.1785C484.544 31.2319 483.931 31.312 483.291 31.4188C482.704 31.4722 482.251 31.4989 481.931 31.4989H481.531C481.371 33.1539 481.237 34.5153 481.131 35.5831C481.024 36.6508 480.971 37.4516 480.971 37.9855V40.4681C480.971 43.351 480.731 46.4742 480.251 49.8377C479.611 50.7987 478.677 51.2792 477.451 51.2792C476.384 51.2792 475.451 50.9855 474.651 50.3983C473.904 49.8644 473.531 48.9034 473.531 47.5153C473.531 47.0882 473.531 46.581 473.531 45.9937C473.584 45.3531 473.611 44.7124 473.611 44.0718C473.664 43.4311 473.691 42.8705 473.691 42.39C473.744 41.8562 473.771 41.5091 473.771 41.349V40.9486L474.331 28.8562C474.384 28.1621 474.384 27.3079 474.331 26.2935C474.331 25.2792 474.384 24.1046 474.491 22.7699L475.131 17.965C475.451 16.31 475.611 14.8952 475.611 13.7206C475.611 13.3469 475.584 12.9999 475.531 12.6796C475.531 12.3059 475.504 11.9321 475.451 11.5584C475.451 11.5584 475.531 10.6241 475.691 8.75559C475.744 7.47427 475.984 6.43321 476.411 5.63238C476.837 4.83156 477.851 4.43115 479.451 4.43115C480.571 4.43115 481.691 4.61801 482.811 4.99173C483.877 4.88495 484.811 4.83156 485.611 4.83156C486.464 4.83156 487.184 4.83156 487.771 4.83156C488.304 4.83156 488.784 4.85826 489.211 4.91165C489.637 4.91165 490.064 4.96503 490.491 5.07181C490.917 5.12519 491.397 5.23197 491.931 5.39214C492.464 5.49891 493.104 5.65908 493.851 5.87263L497.371 8.27509C499.344 9.82335 500.651 11.3716 501.291 12.9198C501.984 14.4681 502.331 16.0964 502.331 17.8048C502.331 18.9794 502.277 19.9937 502.171 20.8479C502.117 21.6488 501.851 22.4496 501.371 23.2504C500.891 24.0512 500.144 24.8787 499.131 25.733C498.117 26.5872 496.677 27.6549 494.811 28.9362C496.037 30.4845 497.424 32.7802 498.971 35.8233C499.931 36.5707 501.851 39.6139 504.731 44.9527ZM494.891 19.4065C494.944 19.1929 494.971 18.8993 494.971 18.5256C494.971 17.9917 494.917 17.4578 494.811 16.9239C494.704 16.3367 494.464 15.7761 494.091 15.2422C493.717 14.6549 493.157 14.0944 492.411 13.5605C491.717 12.9732 490.731 12.4126 489.451 11.8787C488.331 11.4516 487.397 11.2381 486.651 11.2381C486.437 11.2915 486.144 11.3449 485.771 11.3983C485.451 11.505 485.051 11.6118 484.571 11.7186C484.091 11.772 483.557 11.8521 482.971 11.9588C483.024 12.2792 483.051 12.5995 483.051 12.9198C483.051 13.1868 482.997 13.7206 482.891 14.5215C482.837 15.3223 482.731 16.4701 482.571 17.965C482.411 19.4599 482.224 21.542 482.011 24.2114C482.224 24.2648 482.437 24.2915 482.651 24.2915C482.864 24.2915 483.077 24.2915 483.291 24.2915C484.304 24.2915 485.424 24.158 486.651 23.8911C487.931 23.5707 489.131 23.197 490.251 22.7699C491.371 22.2894 492.357 21.7555 493.211 21.1683C494.064 20.581 494.624 19.9937 494.891 19.4065Z" fill="#201B19"></path> <path d="M543.586 14.5214C542.84 14.8417 542.014 15.0019 541.107 15.0019C540.841 15.0019 540.44 14.9752 539.906 14.9218C539.426 14.8684 538.894 14.815 538.307 14.7616C537.721 14.6548 537.134 14.5747 536.547 14.5214C536.014 14.4146 535.613 14.3612 535.346 14.3612C533.64 14.3612 531.986 14.6014 530.386 15.0819C530.706 17.1107 530.973 19.086 531.186 21.008C531.4 22.93 531.586 24.7452 531.746 26.4536C531.906 28.1086 532.013 29.6302 532.066 31.0183C532.12 32.353 532.146 33.5008 532.146 34.4618C532.146 36.8643 532.12 38.9464 532.066 40.7082C532.066 42.4166 531.934 43.8581 531.667 45.0327C531.401 46.1538 530.973 46.9813 530.386 47.5152C529.8 48.0491 528.946 48.316 527.826 48.316C526.76 48.316 525.961 48.0491 525.427 47.5152C524.947 46.9279 524.6 46.2606 524.386 45.5131C524.226 44.7123 524.146 43.8848 524.146 43.0306C524.2 42.1764 524.227 41.4557 524.227 40.8684C524.227 39.854 524.306 38.9464 524.466 38.1456C524.626 37.2914 524.706 36.4906 524.706 35.7431C524.706 35.3694 524.6 34.0347 524.386 31.739C524.173 29.3899 524.066 26.4536 524.066 22.93C524.066 21.7554 523.934 20.6076 523.667 19.4865C523.454 18.3119 523.213 17.1908 522.946 16.123L518.227 16.4433C516.307 16.6035 514.974 16.8971 514.227 17.3242C513.107 17.3242 512.146 17.0039 511.346 16.3633C510.546 15.7226 510.146 14.8951 510.146 13.8807C510.146 12.8663 510.6 11.7452 511.506 10.5173C511.773 10.4639 512.974 10.277 515.107 9.95667C517.241 9.58295 520.307 9.02238 524.307 8.27494L528.307 7.79445C529.587 7.63429 530.814 7.5542 531.987 7.5542H533.186L542.626 8.19486C543.746 8.83552 544.307 10.0368 544.307 11.7986C544.307 12.7596 544.066 13.6672 543.586 14.5214Z" fill="#201B19"></path> <path d="M585.691 37.0245C585.531 37.6652 585.131 38.4393 584.491 39.3469C583.904 40.2545 583.157 41.1888 582.251 42.1498C581.344 43.0574 580.357 43.8849 579.291 44.6323C578.277 45.3798 577.291 45.9137 576.331 46.234C573.557 47.4619 570.437 48.0759 566.971 48.0759C565.851 48.0759 564.864 48.0492 564.011 47.9958C563.211 47.9424 562.411 47.7822 561.611 47.5153C560.811 47.2484 560.011 46.8213 559.211 46.234C558.411 45.6467 557.504 44.7925 556.491 43.6714C555.371 42.4968 554.491 41.349 553.851 40.2278C553.211 39.0533 552.731 37.9321 552.411 36.8644C552.091 35.7966 551.877 34.7822 551.771 33.8213C551.664 32.8069 551.611 31.8993 551.611 31.0985C551.611 29.3367 551.824 27.2545 552.251 24.8521C552.677 22.4496 553.824 19.5132 555.691 16.043C556.384 14.7617 556.917 13.7473 557.291 12.9999C557.664 12.2525 557.877 11.7453 557.931 11.4783L562.891 8.43523C564.597 7.42085 566.224 6.62003 567.771 6.03276C569.317 5.39211 571.024 5.07178 572.891 5.07178C573.424 5.07178 574.224 5.07178 575.291 5.07178C576.357 5.07178 577.397 5.20525 578.411 5.47219C579.477 5.68574 580.411 6.11285 581.211 6.7535C582.011 7.34077 582.411 8.22168 582.411 9.39621C582.411 11.3716 581.237 12.5194 578.891 12.8397C578.944 12.8397 578.784 12.813 578.411 12.7597C578.037 12.7063 577.531 12.6529 576.891 12.5995C576.251 12.5461 575.531 12.4927 574.731 12.4393C573.931 12.3859 573.131 12.3592 572.331 12.3592C570.944 12.3592 569.531 12.7597 568.091 13.5605C566.704 14.3079 564.997 15.6159 562.971 17.4845C561.904 19.7268 561.104 21.4886 560.571 22.7699C560.091 23.9978 559.851 24.8254 559.851 25.2525C559.264 26.3202 558.971 27.8952 558.971 29.9773C558.971 33.8213 559.664 36.5974 561.051 38.3059C562.437 39.9609 564.331 40.7884 566.731 40.7884C568.277 40.7884 570.677 40.3613 573.931 39.5071C575.904 38.3325 577.611 36.464 579.051 33.9013C579.957 32.9937 580.891 32.5399 581.851 32.5399C582.864 32.5399 583.771 32.9404 584.571 33.7412C585.371 34.542 585.771 35.4496 585.771 36.464C585.771 36.5707 585.744 36.6775 585.691 36.7843C585.691 36.8377 585.691 36.9178 585.691 37.0245Z" fill="#201B19"></path> <path d="M620.002 37.9855C621.548 38.3059 622.322 39.5071 622.322 41.5892C622.322 42.7104 622.055 43.5913 621.522 44.2319C620.988 44.8726 620.295 45.1929 619.442 45.1929C619.175 45.1929 618.668 45.1662 617.922 45.1128C617.175 45.0061 616.375 44.926 615.522 44.8726C614.668 44.7658 613.842 44.6857 613.042 44.6323C612.242 44.5256 611.682 44.4722 611.362 44.4722C611.042 44.4722 610.748 44.4722 610.482 44.4722C610.215 44.4722 609.948 44.4989 609.682 44.5523C608.775 44.4989 607.708 44.3921 606.482 44.2319C605.308 44.0184 604.135 43.8048 602.962 43.5913C601.842 43.3243 600.828 43.0574 599.922 42.7905C599.068 42.5235 598.562 42.2833 598.402 42.0697C597.868 40.4681 597.602 38.3325 597.602 35.6631C597.602 35.236 597.602 34.8089 597.602 34.3818C597.602 33.9013 597.628 33.4208 597.682 32.9404L598.162 27.2545C598.215 26.8274 598.242 26.427 598.242 26.0533C598.242 25.6262 598.242 25.2525 598.242 24.9321C598.242 24.505 598.242 24.158 598.242 23.8911C598.242 23.5707 598.188 23.2771 598.082 23.0102C598.455 20.9814 598.722 19.2997 598.882 17.965C599.042 16.5769 599.122 15.5091 599.122 14.7617V14.121C599.122 13.3736 599.442 10.9978 600.082 6.99378C600.882 5.28536 602.108 4.43115 603.762 4.43115C604.775 4.43115 605.628 4.83156 606.322 5.63238C607.015 6.37982 607.362 7.42088 607.362 8.75559C607.148 9.50302 606.935 10.4373 606.722 11.5584C606.562 12.6796 606.402 14.0143 606.242 15.5625V16.2032C606.242 16.6837 606.188 17.4311 606.082 18.4455C606.028 19.4065 605.948 20.4208 605.842 21.4886C605.735 22.503 605.628 23.4373 605.522 24.2915C605.468 25.0923 605.442 25.5461 605.442 25.6529C605.442 26.2401 605.468 26.6139 605.522 26.774C605.308 29.0163 605.148 30.8849 605.042 32.3798C604.935 33.8746 604.882 35.0225 604.882 35.8233C604.882 36.3572 604.908 36.7042 604.962 36.8644C607.735 37.1847 609.575 37.3449 610.482 37.3449C610.908 37.3449 611.335 37.3449 611.762 37.3449C612.242 37.2915 612.722 37.2648 613.202 37.2648C615.228 37.2648 617.495 37.505 620.002 37.9855Z" fill="#201B19"></path> <path d="M665.143 21.4085C664.716 25.1457 664.343 28.4024 664.023 31.1785C663.703 33.9547 663.09 36.197 662.183 37.9054C661.223 39.6673 660.183 41.1087 659.063 42.2299C657.943 43.351 656.796 44.2319 655.623 44.8726C654.45 45.5132 653.276 45.967 652.103 46.234C650.983 46.4475 649.916 46.5543 648.903 46.5543C647.303 46.5543 645.89 46.3941 644.663 46.0738C643.436 45.7001 642.29 45.1128 641.223 44.312C640.21 43.4578 639.25 42.3367 638.343 40.9486C637.436 39.5071 636.503 37.6919 635.543 35.503C634.583 31.659 633.996 28.3223 633.783 25.4927C633.57 22.6631 633.463 19.9137 633.463 17.2443C633.463 16.3367 633.436 15.3223 633.383 14.2011C633.383 13.0266 633.463 11.9321 633.623 10.9178C633.836 9.84997 634.21 8.96907 634.743 8.27502C635.33 7.52759 636.183 7.15387 637.303 7.15387C639.383 7.15387 640.743 8.27502 641.383 10.5174C641.223 11.4783 641.143 13.1334 641.143 15.4824C641.143 16.2299 641.143 17.004 641.143 17.8048C641.143 18.6056 641.17 19.4866 641.223 20.4475C641.276 22.85 641.303 24.5584 641.303 25.5728C641.303 26.5338 641.33 27.2545 641.383 27.735C641.436 28.1621 641.516 28.5892 641.623 29.0163C641.73 29.39 641.916 30.1909 642.183 31.4188C642.716 33.0204 643.17 34.2751 643.543 35.1827C643.916 36.0369 644.316 36.7309 644.743 37.2648C645.17 37.7453 645.703 38.119 646.343 38.3859C647.036 38.5995 647.916 38.8397 648.983 39.1067C650.53 38.733 651.81 38.1724 652.823 37.425C653.89 36.6775 654.716 35.7432 655.303 34.6221C655.943 33.4475 656.396 32.0861 656.663 30.5379C656.93 28.9896 657.116 27.2545 657.223 25.3325C657.223 23.9445 657.25 22.6098 657.303 21.3284C657.41 20.0471 657.516 18.8726 657.623 17.8048C657.57 16.7371 657.543 15.8028 657.543 15.002C657.543 14.1477 657.543 13.427 657.543 12.8397C657.543 12.1991 657.516 11.6385 657.463 11.158V12.0389C657.463 10.0636 657.676 8.30172 658.103 6.75346C659.223 6.11281 660.316 5.79248 661.383 5.79248C662.343 5.79248 663.09 6.00603 663.623 6.43314C664.156 6.80685 664.556 7.31404 664.823 7.9547C665.09 8.54196 665.25 9.23601 665.303 10.0369C665.356 10.7843 665.383 11.5317 665.383 12.2792C665.383 12.5995 665.356 13.08 665.303 13.7206C665.25 14.3079 665.196 14.9753 665.143 15.7227C665.143 16.4167 665.116 17.0841 665.063 17.7247C665.01 18.3654 664.983 18.8459 664.983 19.1662C664.983 19.5933 664.983 19.9937 664.983 20.3675C665.036 20.6878 665.09 21.0348 665.143 21.4085Z" fill="#201B19"></path> <path d="M713.633 33.5811V34.1417C713.633 36.0103 712.913 38.0657 711.473 40.308C710.033 42.4969 707.58 44.6057 704.113 46.6345C702.78 47.4353 701.553 48.0493 700.433 48.4764C699.313 48.9569 698.166 49.3573 696.993 49.6776C695.873 50.0513 694.673 50.3984 693.393 50.7187C692.113 51.039 690.673 51.4661 689.073 52H684.993C683.713 51.8932 682.753 51.653 682.113 51.2793C681.473 50.9589 681.02 50.5051 680.753 49.9179C680.486 49.384 680.353 48.7166 680.353 47.9158C680.353 47.115 680.353 46.1807 680.353 45.1129C680.353 44.7926 680.353 44.4723 680.353 44.1519C680.353 43.8316 680.38 43.4846 680.433 43.1109C680.38 42.8439 680.353 42.5503 680.353 42.23C680.353 41.9096 680.353 41.5359 680.353 41.1088C680.353 37.4784 680.46 34.6489 680.673 32.6201C680.94 30.5914 681.073 29.0164 681.073 27.8953C681.073 27.2546 681.046 26.5606 680.993 25.8131C680.993 25.0657 680.993 24.2382 680.993 23.3306C681.1 21.8891 681.233 20.2608 681.393 18.4456C681.553 16.6304 681.686 14.6016 681.793 12.3593C681.74 11.9322 681.606 11.3717 681.393 10.6776C681.18 9.93018 680.94 9.20945 680.673 8.5154C680.46 7.76797 680.246 7.12731 680.033 6.59343C679.873 6.00616 679.793 5.71253 679.793 5.71253C679.793 4.85831 680.326 4.0308 681.393 3.22998C682.513 2.42916 684.06 1.97536 686.033 1.86858C688.753 0.640659 691.286 0.0266958 693.633 0.0266958C693.846 0.0266958 694.166 0.0266958 694.593 0.0266958C695.02 -0.0266948 695.553 -1.03563e-06 696.193 0.106777C696.833 0.213552 697.58 0.453798 698.433 0.827516C699.34 1.14784 700.326 1.68172 701.393 2.42916L704.673 5.07187L705.873 7.6345C706.353 8.75565 706.593 9.8768 706.593 10.9979C706.593 13.5606 705.633 15.9897 703.713 18.2854C707.34 19.8337 709.553 21.0883 710.353 22.0493C710.78 22.6365 711.206 23.4107 711.633 24.3717C712.06 25.3326 712.406 26.5339 712.673 27.9754L713.633 33.5811ZM698.913 9.71663C698.86 9.55647 698.7 9.31622 698.433 8.99589C698.22 8.62218 697.9 8.27515 697.473 7.95483C697.046 7.58111 696.54 7.28748 695.953 7.07392C695.366 6.80698 694.7 6.67351 693.953 6.67351C691.66 6.67351 689.98 7.12731 688.913 8.03491C688.806 8.40862 688.753 8.83573 688.753 9.31622C688.753 9.79671 688.753 10.3573 688.753 10.9979C688.753 11.6386 688.7 12.4127 688.593 13.3203C688.54 14.1745 688.38 15.1889 688.113 16.3635C687.793 17.6448 687.633 18.4456 687.633 18.7659C690.993 18.1786 693.74 17.191 695.873 15.8029C698.006 14.4148 699.073 12.8932 699.073 11.2382C699.073 10.9713 699.046 10.731 698.993 10.5175C698.993 10.2505 698.966 9.98357 698.913 9.71663ZM705.953 35.423C706.166 34.7823 706.273 34.0349 706.273 33.1807C706.273 31.5791 706.006 30.191 705.473 29.0164C704.94 27.7885 704.22 26.8008 703.313 26.0534C702.46 25.306 701.446 24.7454 700.273 24.3717C699.1 23.9979 697.873 23.8111 696.593 23.8111C696.06 23.8111 695.366 23.9179 694.513 24.1314C693.713 24.345 692.86 24.5852 691.953 24.8522C691.1 25.1191 690.3 25.386 689.553 25.653C688.86 25.8665 688.38 26 688.113 26.0534V27.8953C688.113 29.3368 688.086 30.6181 688.033 31.7392C687.98 32.807 687.926 33.9548 687.873 35.1828C687.82 36.3573 687.766 37.692 687.713 39.1869C687.66 40.6817 687.606 42.5236 687.553 44.7125H687.953C689.18 44.7125 690.726 44.3922 692.593 43.7515L698.593 41.5893C699.233 41.3758 699.953 41.0287 700.753 40.5483C701.553 40.0144 702.3 39.4538 702.993 38.8665C703.686 38.2259 704.3 37.6119 704.833 37.0246C705.42 36.4374 705.793 35.9035 705.953 35.423Z" fill="#201B19"></path> <path d="M11.5517 157.283V114.943H2V110.164H26.8789V114.943H17.3272V157.283H11.5517Z" fill="#201B19"></path> <path d="M36.6719 136.08V157.283H30.8965V110.164H36.6719V131.368H49.4076V110.164H55.183V157.283H49.4076V136.08H36.6719Z" fill="#201B19"></path> <path d="M79.5621 131.031V135.743H66.9005V152.504H82.4498V157.283H61.125V110.164H82.4498V114.943H66.9005V131.031H79.5621Z" fill="#201B19"></path> <path d="M104.414 157.283H99.2305V110.164H106.561L118.556 144.224V110.164H123.665V157.283H117.667L104.414 119.184V157.283Z" fill="#201B19"></path> <path d="M148.035 131.031V135.743H135.373V152.504H150.922V157.283H129.598V110.164H150.922V114.943H135.373V131.031H148.035Z" fill="#201B19"></path> <path d="M170.052 157.283H162.13L155.021 110.164H160.649L166.721 150.283L172.496 110.231H178.197L183.899 150.35L189.748 110.164H194.783L187.749 157.283H180.123L175.162 125.309L170.052 157.283Z" fill="#201B19"></path> <path d="M210.332 109.693C214.284 109.693 217.2 110.77 219.069 112.924C220.948 115.033 221.883 117.882 221.883 121.472V122.751H216.404V121.203C216.404 119.049 215.941 117.389 214.997 116.222C214.062 115.055 212.553 114.472 210.48 114.472C208.407 114.472 206.907 115.055 205.963 116.222C205.028 117.389 204.556 119.027 204.556 121.136C204.556 122.886 204.982 124.412 205.815 125.713C206.704 127.015 207.796 128.226 209.073 129.348C210.36 130.425 211.739 131.502 213.22 132.579C214.756 133.611 216.163 134.756 217.44 136.012C218.727 137.269 219.791 138.705 220.624 140.32C221.513 141.891 221.957 143.775 221.957 145.974C221.957 149.564 220.994 152.436 219.069 154.59C217.2 156.7 214.256 157.754 210.258 157.754C206.259 157.754 203.325 156.7 201.447 154.59C199.577 152.436 198.633 149.564 198.633 145.974V143.282H204.038V146.244C204.038 148.398 204.538 150.058 205.519 151.225C206.509 152.392 208.036 152.975 210.11 152.975C212.183 152.975 213.719 152.392 214.701 151.225C215.691 150.058 216.181 148.398 216.181 146.244C216.181 144.493 215.737 142.99 214.849 141.734C214.016 140.432 212.951 139.243 211.665 138.166C210.387 137.044 208.999 135.967 207.518 134.935C206.037 133.858 204.658 132.691 203.372 131.435C202.094 130.178 201.002 128.765 200.114 127.194C199.281 125.578 198.855 123.671 198.855 121.472C198.855 117.838 199.799 114.965 201.669 112.856C203.548 110.747 206.435 109.693 210.332 109.693Z" fill="#201B19"></path> <path d="M232.481 146.177C232.481 148.331 232.944 150.013 233.888 151.225C234.869 152.392 236.424 152.975 238.552 152.975C240.626 152.975 242.125 152.392 243.069 151.225C244.05 150.013 244.55 148.331 244.55 146.177V110.164H249.955V145.907C249.955 149.497 249.011 152.392 247.142 154.591C245.263 156.745 242.329 157.822 238.33 157.822C234.378 157.822 231.463 156.745 229.593 154.591C227.714 152.392 226.779 149.497 226.779 145.907V110.164H232.481V146.177Z" fill="#201B19"></path> <path d="M260.74 157.283H255.557V110.164H262.896L274.882 144.224V110.164H280.001V157.283H274.003L260.74 119.184V157.283Z" fill="#201B19"></path> </svg> 