<?xml version="1.0" encoding="UTF-8"?> <svg xmlns="http://www.w3.org/2000/svg" width="390" height="170" viewBox="0 0 390 170" fill="none"> <path d="M31.12 114V58H40C42.4533 58 44.08 58.48 44.88 59.44C45.7333 60.3467 46.16 62.1333 46.16 64.8V107.2C46.16 109.867 45.7333 111.68 44.88 112.64C44.08 113.547 42.4533 114 40 114H31.12ZM37.28 108.24H38.8C39.28 108.24 39.6 108.133 39.76 107.92C39.92 107.653 40 107.173 40 106.48V65.52C40 64.8267 39.92 64.3733 39.76 64.16C39.6 63.8933 39.28 63.76 38.8 63.76H37.28V108.24ZM58.4675 63.76V82H62.6275V87.76H58.4675V108.24H63.8275V114H52.3075V58H63.8275V63.76H58.4675ZM77.7506 106.88V96.08C77.7506 94.2667 77.564 92.8 77.1906 91.68C76.8173 90.5067 75.9373 88.9333 74.5506 86.96C72.4173 83.8133 71.004 81.36 70.3106 79.6C69.6706 77.7867 69.3506 75.3067 69.3506 72.16V64.4C69.3506 61.7333 69.7506 59.9467 70.5506 59.04C71.404 58.08 73.0306 57.6 75.4306 57.6H77.7506C80.204 57.6 81.8306 58.08 82.6306 59.04C83.484 59.9467 83.9106 61.7333 83.9106 64.4V77.68H78.1506V65.12C78.1506 64.4267 78.0706 63.9733 77.9106 63.76C77.7506 63.4933 77.4306 63.36 76.9506 63.36H76.6306C76.1506 63.36 75.8306 63.4933 75.6706 63.76C75.564 63.9733 75.5106 64.4267 75.5106 65.12V72.96C75.5106 74.88 75.6706 76.4267 75.9906 77.6C76.364 78.72 77.244 80.24 78.6306 82.16C80.764 85.3067 82.1773 87.7867 82.8706 89.6C83.564 91.36 83.9106 93.7867 83.9106 96.88V107.6C83.9106 110.267 83.484 112.08 82.6306 113.04C81.8306 113.947 80.204 114.4 77.7506 114.4H75.4306C73.0306 114.4 71.404 113.947 70.5506 113.04C69.7506 112.08 69.3506 110.267 69.3506 107.6V91.52H75.1106V106.88C75.1106 107.573 75.1906 108.053 75.3506 108.32C75.5106 108.533 75.8306 108.64 76.3106 108.64H76.5506C77.0306 108.64 77.3506 108.533 77.5106 108.32C77.6706 108.053 77.7506 107.573 77.7506 106.88ZM98.235 106.88V96.08C98.235 94.2667 98.0483 92.8 97.675 91.68C97.3017 90.5067 96.4217 88.9333 95.035 86.96C92.9017 83.8133 91.4883 81.36 90.795 79.6C90.155 77.7867 89.835 75.3067 89.835 72.16V64.4C89.835 61.7333 90.235 59.9467 91.035 59.04C91.8883 58.08 93.515 57.6 95.915 57.6H98.235C100.688 57.6 102.315 58.08 103.115 59.04C103.968 59.9467 104.395 61.7333 104.395 64.4V77.68H98.635V65.12C98.635 64.4267 98.555 63.9733 98.395 63.76C98.235 63.4933 97.915 63.36 97.435 63.36H97.115C96.635 63.36 96.315 63.4933 96.155 63.76C96.0483 63.9733 95.995 64.4267 95.995 65.12V72.96C95.995 74.88 96.155 76.4267 96.475 77.6C96.8483 78.72 97.7283 80.24 99.115 82.16C101.248 85.3067 102.662 87.7867 103.355 89.6C104.048 91.36 104.395 93.7867 104.395 96.88V107.6C104.395 110.267 103.968 112.08 103.115 113.04C102.315 113.947 100.688 114.4 98.235 114.4H95.915C93.515 114.4 91.8883 113.947 91.035 113.04C90.235 112.08 89.835 110.267 89.835 107.6V91.52H95.595V106.88C95.595 107.573 95.675 108.053 95.835 108.32C95.995 108.533 96.315 108.64 96.795 108.64H97.035C97.515 108.64 97.835 108.533 97.995 108.32C98.155 108.053 98.235 107.573 98.235 106.88ZM116.639 63.76V82H120.799V87.76H116.639V108.24H121.999V114H110.479V58H121.999V63.76H116.639ZM142.723 92.32V108.64C142.723 111.093 142.963 112.88 143.443 114H137.122C136.749 113.253 136.562 111.68 136.562 109.28V90.56C136.562 89.28 136.083 88.64 135.123 88.64H133.843V114H127.683V58H136.562C139.016 58 140.643 58.48 141.443 59.44C142.296 60.3467 142.723 62.1333 142.723 64.8V79.28C142.723 81.3067 142.483 82.8267 142.003 83.84C141.523 84.8 140.669 85.44 139.443 85.76C140.669 86.08 141.523 86.7467 142.003 87.76C142.483 88.72 142.723 90.24 142.723 92.32ZM136.562 81.12V65.52C136.562 64.8267 136.483 64.3733 136.323 64.16C136.163 63.8933 135.843 63.76 135.363 63.76H133.843V82.88H135.363C135.843 82.88 136.163 82.7733 136.323 82.56C136.483 82.2933 136.562 81.8133 136.562 81.12ZM157.19 114H151.11V63.68H147.83V58H160.47V63.68H157.19V114ZM173.923 106.88V96.08C173.923 94.2667 173.736 92.8 173.363 91.68C172.989 90.5067 172.109 88.9333 170.723 86.96C168.589 83.8133 167.176 81.36 166.483 79.6C165.843 77.7867 165.523 75.3067 165.523 72.16V64.4C165.523 61.7333 165.923 59.9467 166.723 59.04C167.576 58.08 169.203 57.6 171.603 57.6H173.923C176.376 57.6 178.003 58.08 178.803 59.04C179.656 59.9467 180.083 61.7333 180.083 64.4V77.68H174.323V65.12C174.323 64.4267 174.243 63.9733 174.083 63.76C173.923 63.4933 173.603 63.36 173.123 63.36H172.803C172.323 63.36 172.003 63.4933 171.843 63.76C171.736 63.9733 171.683 64.4267 171.683 65.12V72.96C171.683 74.88 171.843 76.4267 172.163 77.6C172.536 78.72 173.416 80.24 174.803 82.16C176.936 85.3067 178.349 87.7867 179.043 89.6C179.736 91.36 180.083 93.7867 180.083 96.88V107.6C180.083 110.267 179.656 112.08 178.803 113.04C178.003 113.947 176.376 114.4 173.923 114.4H171.603C169.203 114.4 167.576 113.947 166.723 113.04C165.923 112.08 165.523 110.267 165.523 107.6V91.52H171.283V106.88C171.283 107.573 171.363 108.053 171.523 108.32C171.683 108.533 172.003 108.64 172.483 108.64H172.723C173.203 108.64 173.523 108.533 173.683 108.32C173.843 108.053 173.923 107.573 173.923 106.88Z" fill="#201B19"></path> <rect x="1" y="1" width="388" height="168" stroke="#201B19" stroke-width="2"></rect> </svg> 