<?xml version="1.0" encoding="UTF-8"?> <svg xmlns="http://www.w3.org/2000/svg" width="512" height="512" viewBox="0 0 512 512" fill="none"> <g clip-path="url(#clip0_1470_48)"> <path fill-rule="evenodd" clip-rule="evenodd" d="M-0.551712 90.5128L-0.732539 191.392L-3.57891 193.649C-6.36672 195.858 -6.48166 195.883 -9.08644 194.793C-11.0616 193.967 -12.1202 193.88 -13.1949 194.455C-14.1972 194.992 -15.0779 194.997 -16.0582 194.472C-16.8371 194.055 -18.1549 193.713 -18.9865 193.713H-20.499V273.709C-20.499 317.706 -20.3775 353.567 -20.2289 353.399C-20.0795 353.231 -18.7493 348.807 -17.272 343.567C-14.9864 335.463 -13.2645 329.47 -11.1663 322.317C-10.9298 321.511 -9.8017 316.564 -8.66036 311.325L-6.58415 301.799L-6.92018 307.661C-7.34333 315.053 -10.4664 327.582 -15.8685 343.567L-20.0788 356.025L-20.3109 400.541C-20.4383 425.025 -20.3519 445.058 -20.1183 445.058C-19.8848 445.058 -18.6915 444.539 -17.466 443.904C-16.2412 443.271 -15.1006 442.889 -14.9329 443.057C-14.7645 443.225 -15.9483 443.959 -17.5633 444.688L-20.499 446.013V450.907V455.8L-15.5574 456.944C-11.2183 457.947 -1.63887 461.017 -0.793303 461.674C-0.625654 461.805 -0.650545 462.074 -0.84821 462.272C-1.04661 462.47 -5.28542 461.316 -10.2688 459.708C-15.2521 458.098 -19.5927 456.782 -19.9141 456.782C-20.2362 456.782 -20.499 471.429 -20.499 489.331V521.88L-3.11184 521.957C13.5908 522.03 14.312 521.975 15.1963 520.551C15.7037 519.736 15.8135 519.069 15.4408 519.069C15.0682 519.069 14.6165 519.481 14.4364 519.985C14.257 520.489 13.8617 520.671 13.5594 520.389C12.9539 519.827 8.05476 505.249 8.0533 504.007C8.0533 503.582 9.20561 501.974 10.6149 500.434C12.0242 498.894 13.1772 497.51 13.1772 497.359C13.1772 496.427 10.9678 497.371 9.50796 498.927C8.55698 499.94 7.4991 500.488 7.15722 500.146C6.46978 499.458 6.4566 499.391 4.805 487.926C1.31659 463.717 -0.000446796 451.638 -0.000446796 443.862C-0.000446796 436.978 0.113759 436.412 1.82978 434.799C2.83641 433.852 3.64976 432.723 3.63659 432.29C3.62414 431.856 2.80054 432.427 1.80636 433.558C0.0529962 435.553 -0.000446796 435.565 -0.000446796 433.964C-0.000446796 433.056 0.905883 431.326 2.01281 430.118L4.02606 427.922L2.01281 429.179C0.115956 430.363 -0.000446796 430.363 -0.000446796 429.184C-0.000446796 428.496 0.715539 427.168 1.59112 426.236C3.13876 424.588 2.55089 423.745 0.962255 425.335C0.391955 425.906 0.168667 425.092 0.168667 422.441C0.168667 419.758 0.544962 418.411 1.54793 417.502C2.30711 416.815 2.92792 415.922 2.92792 415.519C2.92792 415.116 2.26904 415.384 1.46374 416.113C0.301175 417.166 -0.000446796 417.219 -0.000446796 416.373C-0.000446796 415.787 0.394883 414.911 0.878064 414.428C1.56111 413.744 1.56111 413.548 0.878064 413.548C0.378045 413.548 -0.000446796 412.54 -0.000446796 411.211C-0.000446796 409.311 0.78948 408.131 4.20908 404.921C8.27439 401.105 13.1794 397.124 19.1584 392.787C22.7713 390.167 39.7229 381.12 46.4874 378.202C74.2703 366.219 96.6086 359.834 120.063 357.171C156.711 353.01 173.826 353.261 218.529 358.614C222.153 359.048 227.753 360.017 230.975 360.767C234.196 361.518 239.302 362.679 242.322 363.347C258.616 366.953 283.952 376.05 293.568 381.746C294.575 382.343 296.987 383.724 298.928 384.817C304.966 388.214 329.46 404.578 331.611 406.652C332.544 407.551 332.41 407.686 330.585 407.686C329.431 407.686 325.16 407.048 321.094 406.268C317.028 405.488 311.23 404.497 308.21 404.065C305.19 403.632 300.343 402.729 297.439 402.057C292.493 400.913 291.874 400.914 287.684 402.081C285.223 402.765 281.011 404.597 278.323 406.15C275.635 407.704 268.988 411.546 263.553 414.688C257.656 418.097 251.455 421.067 248.179 422.051C231.533 427.052 228.677 428.764 226.956 434.771C226.037 437.981 228.477 444.52 231.402 446.685C232.576 447.554 233.537 448.476 233.537 448.734C233.537 449.534 226.957 452.238 218.377 454.963C211.609 457.112 209.897 457.955 208.603 459.774C206.419 462.843 206.157 466.544 207.695 472.537C208.953 477.434 209.16 477.742 212.306 479.329C214.117 480.243 217.492 482.551 219.804 484.458C223.866 487.808 224.009 488.046 224.015 491.48C224.019 494.52 224.369 495.383 226.436 497.452C227.77 498.788 230.31 500.285 232.109 500.796C234.188 501.388 236.559 502.899 238.662 504.973C241.841 508.111 241.958 508.383 242.021 512.785C242.065 515.832 242.542 518.117 243.46 519.673C244.668 521.719 245.218 522 248.014 522C249.947 522 251.016 521.713 250.741 521.267C250.492 520.864 249.854 520.534 249.323 520.534C248.792 520.534 248.016 520.123 247.599 519.618C247.004 518.9 248.048 518.694 252.451 518.667C255.566 518.646 258.823 518.212 259.772 517.691C262.269 516.319 261.28 515.952 257.121 516.709C255.111 517.074 252.478 517.228 251.27 517.051L249.073 516.728V511.215V505.702L252.287 506.143C254.198 506.405 255.5 506.292 255.5 505.865C255.5 505.469 255.025 505.146 254.445 505.146C253.864 505.146 253.154 504.764 252.866 504.297C252.196 503.212 295.241 503.924 300.157 505.079C311.636 507.777 317.64 509.009 325.388 510.259C330.206 511.035 334.282 511.536 334.447 511.371C335.364 510.454 333.612 508.81 331.716 508.81C329.415 508.81 327.547 508.457 313.701 505.399C301.362 502.674 293.545 502.074 267.25 501.832C252.55 501.697 242.624 501.29 239.796 500.707C234.954 499.708 229.876 497.472 229.876 496.338C229.876 495.941 232.087 495.615 234.818 495.61C240.676 495.598 243.054 495.064 243.054 493.761C243.054 493.023 242.471 492.968 240.473 493.52C239.055 493.912 236.336 494.133 234.434 494.011L230.975 493.788L230.756 488.775L230.538 483.762L234.967 484.012C238.043 484.185 239.396 483.996 239.395 483.39C239.394 482.91 238.159 482.403 236.648 482.261C233.437 481.961 234.383 481.465 240.492 480.249C242.908 479.768 247.685 478.748 251.107 477.983C255.989 476.891 258.355 476.724 262.088 477.209C264.706 477.549 278.872 477.739 293.568 477.634C318.12 477.456 328.395 477.818 337.677 479.186C341.571 479.759 342.427 478.719 339.141 477.407C334.323 475.48 326.496 475.001 306.38 475.398C295.106 475.621 279.622 475.5 271.972 475.13C259.194 474.511 257.526 474.577 251.473 475.942C235.64 479.513 227.754 480.188 219.932 478.643C214.838 477.636 212.614 476.356 211.201 473.622C209.727 470.77 208.999 462.525 210.047 460.564C211.209 458.392 212.306 458.577 212.306 460.946C212.306 463.309 215.18 474.462 216.03 475.399C216.789 476.233 227.14 471.785 228.856 469.886C230.663 467.888 229.587 467.362 227.174 469.064C224.598 470.88 219.197 473.636 218.213 473.636C217.462 473.636 215.706 468.227 214.822 463.194L214.339 460.446H219.973C224.152 460.446 225.528 460.21 225.305 459.53C225.115 458.954 222.987 458.478 219.569 458.248L214.136 457.882L218.529 456.546C220.945 455.811 225.392 454.211 228.412 452.988C232.12 451.487 236.517 450.444 241.956 449.773C253.535 448.344 265.983 446.409 275.052 444.628C278.038 444.042 284.713 443.591 290.426 443.589C300.881 443.586 321.402 441.976 329.075 440.556C333.464 439.744 340.214 437.386 341.435 436.238C341.79 435.904 341.865 435.069 341.602 434.382C341.175 433.266 340.99 433.251 339.858 434.233C337.953 435.887 329.646 438.467 324.68 438.949C319.75 439.426 306.802 437.298 298.526 434.652C294.001 433.204 293.495 433.172 292.303 434.247C291.59 434.891 287.547 436.307 283.319 437.394C279.091 438.481 274.366 440.013 272.819 440.798C269.464 442.501 252.501 446.032 240.077 447.613C237.199 447.979 236.459 447.785 234.769 446.217C233.688 445.215 232.806 444.132 232.806 443.811C232.807 443.489 234.62 443.183 236.835 443.131C239.05 443.078 241.273 442.709 241.775 442.31C242.277 441.911 243.924 441.187 245.433 440.7C247.024 440.187 248.179 439.343 248.179 438.694C248.179 437.919 247.783 437.732 246.898 438.088C246.193 438.371 243.381 439.286 240.649 440.12C236.748 441.311 235.492 441.445 234.792 440.744C233.692 439.641 233.684 432.16 234.783 431.06C235.224 430.618 237.183 430.148 239.137 430.015C241.09 429.881 242.935 429.749 243.237 429.721C243.539 429.693 243.786 429.34 243.786 428.937C243.786 428.534 242.056 428.18 239.943 428.152L236.099 428.101L239.394 426.623C241.206 425.811 245.053 424.535 247.944 423.787C251.546 422.856 256.268 420.639 262.952 416.744C268.316 413.618 274.68 410.016 277.096 408.74C279.512 407.465 282.857 405.699 284.529 404.818C287.591 403.204 289.704 403.133 297.229 404.393C298.638 404.629 305.886 405.792 313.335 406.977C320.784 408.162 328.71 409.465 330.949 409.874C333.188 410.283 335.691 410.617 336.512 410.617C337.332 410.617 341.925 411.894 346.717 413.455C351.509 415.016 358.23 416.682 361.653 417.156C365.076 417.631 369.358 418.331 371.17 418.711C372.982 419.091 376.403 419.619 378.772 419.885C382.291 420.28 383.018 420.18 382.739 419.339C382.552 418.774 380.943 418.079 379.164 417.795C377.384 417.511 373.787 416.943 371.17 416.533C362.985 415.25 355.176 413.704 354.372 413.207C352.987 412.349 353.556 411.289 355.829 410.495C357.055 410.067 357.921 409.343 357.751 408.885C357.582 408.427 356.99 408.208 356.437 408.398C355.883 408.589 352.21 408.696 348.273 408.636C341.582 408.534 340.754 408.348 335.543 405.77C328.254 402.166 322.609 397.525 321.203 393.983C318.152 386.297 319.391 377.642 323.541 377.642C325.639 377.642 328.013 380.081 331.849 386.182C333.354 388.575 334.539 389.483 337.397 390.433C341.604 391.832 346.979 392.266 346.871 391.198C346.831 390.795 345.116 390.12 343.061 389.698C341.006 389.276 338.604 388.535 337.724 388.049C336.159 387.186 330.729 379.773 331.267 379.234C331.809 378.69 336.617 380.663 340.028 382.828C343.76 385.198 344.989 385.126 343.433 382.63C342.499 381.134 342.552 381.108 345.291 381.723C346.841 382.072 351.926 382.384 356.592 382.419C367.248 382.497 370.971 383.721 374.022 388.148C375.178 389.826 376.758 391.768 377.532 392.466C378.873 393.673 384.776 405.517 389.137 415.747C390.254 418.366 391.959 421.772 392.927 423.314C396.493 428.997 399.641 438.304 401.894 449.821C402.347 452.14 402.486 452.331 402.559 450.737C402.673 448.215 402.99 448.233 407.043 450.986C408.855 452.216 411.216 453.401 412.291 453.617C414.738 454.11 414.829 454.487 415.835 468.507C416.283 474.754 416.791 480.294 416.963 480.819C417.135 481.344 416.801 482.499 416.22 483.386C415.64 484.273 413.848 488.79 412.238 493.424C409.918 500.104 403.854 515.632 401.436 521.084C401.212 521.588 401.496 522 402.066 522C402.65 522 403.617 520.479 404.278 518.519C404.925 516.605 406.941 511.194 408.758 506.495C410.576 501.796 413.111 494.771 414.392 490.882C415.674 486.995 416.873 483.964 417.057 484.149C417.241 484.333 417.43 486.749 417.479 489.517C417.554 493.907 417.173 495.465 414.501 501.703C412.815 505.638 411.435 509.166 411.435 509.545C411.435 509.924 410.582 512.139 409.541 514.468C406.18 521.979 406.174 522 407.793 522C408.588 522 409.229 521.588 409.217 521.084C409.183 519.645 417.594 498.573 418.207 498.561C419.865 498.53 418.434 504.62 415.096 511.811C411.326 519.931 410.768 522.001 412.35 521.999C412.854 521.997 414.46 518.947 415.919 515.22C417.378 511.493 418.861 508.52 419.213 508.614C420.517 508.96 420.332 514.726 418.942 517.101C416.824 520.715 416.473 522 417.602 522C418.149 522 418.805 521.176 419.057 520.168C419.652 517.795 420.952 517.798 420.952 520.174V522.011L466.159 521.823L511.366 521.634L511.542 488.658C511.639 470.522 511.474 456.047 511.176 456.493C510.783 457.08 509.828 457.054 507.705 456.401L504.777 455.499L508.071 455.591L511.366 455.683L511.539 324.149C511.637 250.24 511.437 193.05 511.082 193.609C510.69 194.226 506.874 195.122 501.025 195.97C482.374 198.676 460.506 205.739 456.783 210.26C456.202 210.966 454.08 212.608 452.066 213.91C450.053 215.213 446.763 217.799 444.755 219.657C442.748 221.515 440.606 223.223 439.996 223.45C439.387 223.678 436.104 226.972 432.7 230.772C427.359 236.733 426.193 237.68 424.195 237.68C422.35 237.68 421.486 237.121 419.949 234.932C418.887 233.421 416.87 230.701 415.468 228.887C414.065 227.073 412.951 225.095 412.993 224.49C413.034 223.886 413.03 223 412.984 222.521C412.852 221.156 403.808 217.031 400.01 216.602C396.032 216.153 396.07 214.886 399.668 227.788C400.905 232.221 401.912 236.178 401.906 236.581C401.901 236.984 400.817 236.037 399.498 234.476L397.099 231.639L393.103 233.655C390.904 234.763 388.203 236.308 387.098 237.088C385.994 237.868 384.841 238.341 384.536 238.141C383.636 237.549 377.916 225.983 375.972 220.826C374.492 216.901 374.252 215.257 374.605 211.483C374.891 208.43 375.352 206.904 375.987 206.904C376.512 206.904 377.126 207.205 377.353 207.573C378.256 209.034 383.562 209.244 386.944 207.951C390.85 206.457 391.267 205.777 394.989 194.805L397.72 186.752L397.796 170.997C397.871 155.645 397.822 155.093 395.869 149.38C394.454 145.24 393.723 141.281 393.381 135.904L392.898 128.288L395.462 128.77C397.849 129.218 420.374 135.298 423.415 136.315C424.571 136.702 424.702 136.503 424.268 135.015C423.987 134.049 422.736 131.61 421.487 129.595C420.238 127.58 416.922 122.139 414.118 117.504C411.314 112.869 408.273 108.177 407.358 107.076C406.445 105.975 404.328 102.678 402.656 99.7481C397.991 91.5761 395.348 87.3303 390.664 80.4869C388.3 77.0318 386.543 74.0267 386.762 73.8083C386.98 73.5899 391.715 72.6358 397.283 71.6891C402.852 70.7416 408.562 69.4871 409.971 68.9001C411.38 68.3139 415.062 67.2755 418.152 66.5941C421.699 65.8114 423.933 64.9328 424.209 64.2125C424.853 62.5322 422.984 60.1375 419.762 58.5144C418.202 57.7289 410.172 52.9885 401.918 47.9799C393.664 42.9714 385.495 38.0163 383.766 36.9699C376.587 32.6237 375.776 34.6851 391.459 17.4192C399.117 8.98857 406.24 1.30095 407.288 0.335877C408.336 -0.629931 409.02 -1.70126 408.807 -2.04567C408.236 -2.97117 400.211 -2.78284 386.178 -1.51367C367.301 0.192985 356.528 0.599678 356.528 -0.394707C356.528 -0.853429 357.557 -3.05251 358.813 -5.28163C360.07 -7.51002 360.894 -9.5391 360.643 -9.78898C360.083 -10.3496 360.395 -10.7584 356.226 -3.98094C354.314 -0.871749 352.912 1.93554 353.11 2.25723C353.487 2.86764 373.183 1.76773 388.374 0.288979C393.206 -0.181467 398.971 -0.462856 401.186 -0.336817L405.212 -0.107456L403.016 2.13266C396.197 9.0875 379.935 27.111 377.546 30.3624L375.283 33.4423L377.288 35.0426C380.075 37.2666 405.745 52.647 415.279 57.8043C419.608 60.1463 423.149 62.3219 423.149 62.6392C423.149 62.9565 420.761 63.9055 417.841 64.7474C414.922 65.5901 410.329 66.9267 407.634 67.7181C404.939 68.5095 401.151 69.3442 399.215 69.5736C392.313 70.3913 384.966 72.2482 384.573 73.2748C384.355 73.842 385.122 75.6666 386.276 77.3293C392.567 86.3909 398.617 96.0849 413.118 120.335C415.615 124.511 418.274 128.896 419.027 130.079C419.78 131.261 420.218 132.406 420.001 132.623C419.785 132.84 416.863 132.18 413.508 131.156C410.153 130.132 403.987 128.465 399.805 127.452C395.623 126.438 392.044 125.451 391.852 125.259C391.659 125.066 390.861 122.516 390.077 119.591C388.486 113.654 379.842 95.8328 373.492 85.4002C369.095 78.1749 361.503 67.3019 355.43 59.5337C350.887 53.722 338.137 41.5336 330.984 36.1653C323.731 30.7214 323.831 30.8409 323.245 26.9256C322.96 25.0277 322.427 22.6835 322.059 21.7155C321.074 19.123 319.94 20.3269 320.7 23.1591C321.536 26.2778 324.765 42.4833 326.561 52.5715C328.16 61.5532 329.3 79.4119 328.273 79.376C327.909 79.3635 326.715 77.9624 325.621 76.2617C324.526 74.5616 321.154 69.7084 318.126 65.4766C315.099 61.2447 307.502 50.1981 301.246 40.9284C294.989 31.6587 287.884 21.5507 285.456 18.4656C283.012 15.3594 281.026 12.0904 281.005 11.1378C280.934 7.90332 280.275 5.38841 279.498 5.38841C278.667 5.38841 279.014 12.6166 280.362 23.3416C280.768 26.5658 281.438 33.4906 281.852 38.73C282.266 43.9694 282.919 50.8942 283.304 54.1184C285.479 72.3713 286.316 81.0409 285.939 81.4175C285.408 81.9495 286.041 82.9109 279.304 71.3388C261.799 41.2728 258.578 35.9594 254.202 29.9366C252.445 27.5184 248.368 21.9127 245.143 17.4793C241.917 13.046 238.159 8.20596 236.793 6.72427C234.478 4.2123 234.138 4.07746 231.786 4.72671C230.399 5.11069 226.519 6.04132 223.165 6.79535C216.476 8.29829 211.01 10.4622 197.218 17.066C185.083 22.8763 175.594 29.5636 170.45 35.9308C166.802 40.4455 166.082 41.966 163.001 51.6702C161.125 57.5786 159.793 62.9404 160.041 63.586C160.288 64.2316 160.097 66.9817 159.616 69.6981C156.054 89.8042 155.027 95.7976 153.367 106.146C152.333 112.594 151.166 119.849 150.776 122.267C149.807 128.268 149.251 138.616 149.252 150.648C149.253 161.16 148.356 164.504 147.477 157.268C147.195 154.945 146.562 152.22 146.071 151.212C145.252 149.53 143.739 143.609 139.893 127.03C139.098 123.605 137.899 118.493 137.23 115.672C136.124 111.015 135.113 105.297 131.363 82.5138C130.683 78.3831 129.896 75.0027 129.614 75.0027C129.332 75.0027 129.229 76.0748 129.385 77.3843C129.851 81.2959 131.74 93.2783 132.879 99.5509C134.483 108.385 134.303 110.293 131.296 116.24C128.734 121.307 124.848 130.183 119.684 142.759C117.338 148.474 115.67 150.536 115.67 147.725C115.67 146.949 116.143 135.462 116.722 122.2C118.582 79.5453 118.792 71.3388 118.018 71.3388C116.74 71.3388 116.402 73.4712 116.402 81.5333V89.41L101.296 90.2908C92.9884 90.7759 86.0094 90.9906 85.7876 90.7685C85.5657 90.5465 89.645 85.9593 94.8531 80.5748C107.583 67.4148 115.67 58.4726 115.67 57.5588C115.67 56.404 105.105 46.8236 97.7338 41.2933C94.11 38.5747 89.8316 35.1416 88.2262 33.665C86.363 31.951 85.196 31.3121 85.0006 31.899C84.8322 32.4046 85.9428 33.8189 87.4684 35.0419C88.9949 36.2642 92.6524 39.4906 95.5976 42.2107C98.5421 44.9315 101.462 47.157 102.086 47.157C102.71 47.157 105.692 49.5078 108.714 52.3803L114.207 57.6035L111.562 60.6241C110.106 62.2853 106.868 65.788 104.366 68.4077C92.618 80.7074 81.9939 92.547 81.9939 93.3399C81.9939 93.9356 82.8702 94.0844 84.7392 93.8059C90.7585 92.9075 114.471 91.069 115.406 91.428C116.61 91.8904 116.706 98.5507 115.718 113.107C115.349 118.548 114.82 130.832 114.544 140.404C114.016 158.737 114.433 161.235 116.809 153.96C117.5 151.844 120.271 145.167 122.966 139.121C125.661 133.076 128.463 126.481 129.192 124.466C130.996 119.48 131.897 118.394 132.615 120.337C132.919 121.16 133.527 131.974 133.964 144.367C134.403 156.761 134.915 167.055 135.102 167.242C135.61 167.751 138.777 164.586 142.186 160.163C144.264 157.467 145.366 156.545 145.715 157.208C145.995 157.74 146.971 161.141 147.884 164.769C148.798 168.396 149.707 171.646 149.903 171.992C150.969 173.862 151.442 169.426 151.254 159.293C151.059 148.695 151.118 148.09 152.125 150.479C152.719 151.89 153.458 155.724 153.767 158.999C154.762 169.532 155.719 172.744 158.968 176.438C161.314 179.105 162.135 180.814 162.955 184.74C164.297 191.162 164.255 198.917 162.851 203.972C160.643 211.926 162.03 234.099 165.327 243.543C166.102 245.759 168.094 250.504 169.754 254.087C171.415 257.67 172.773 260.946 172.773 261.368C172.773 261.79 174.034 263.639 175.575 265.479C177.116 267.319 179.535 270.637 180.951 272.854C185.212 279.525 192.833 285.717 199.641 288.039C202.347 288.962 202.766 289.361 202.362 290.633C202.022 291.706 202.367 292.5 203.562 293.403L205.239 294.669L202.331 300.432L199.424 306.196L191.04 306.61C181.901 307.062 181.033 307.347 167.069 314.456C159.895 318.109 147.041 327.262 142.809 331.73C140.624 334.039 140.405 334.596 141.118 336.043C141.567 336.957 142.479 339.673 143.146 342.08C143.812 344.486 144.985 347.688 145.753 349.195C147.413 352.452 147.446 352.727 146.175 352.727C145.639 352.727 144.826 351.325 144.369 349.613C143.911 347.9 141.88 341.552 139.855 335.507C135.101 321.315 135.118 319.718 140.005 321.399C142.746 322.342 147.572 319.948 151.475 315.711C153.934 313.04 154.347 312.183 153.836 310.801C152.48 307.134 154.307 295.591 156.547 293.671C157.584 292.783 157.795 291.427 157.716 286.201C157.55 275.424 154.163 268.337 147.737 265.319C140.843 262.081 138.672 261.685 129.338 261.964L120.497 262.229L118.92 256.733C118.052 253.71 115.451 245.796 113.14 239.146C110.829 232.496 107.055 221.284 104.754 214.231C102.453 207.178 100.187 200.702 99.7185 199.84C98.8957 198.325 92.6231 193.713 91.3859 193.713C90.082 193.713 90.8712 195.25 92.4913 195.867C94.5653 196.656 97.5428 200.078 98.6629 202.959C99.1146 204.121 100.853 209.523 102.525 214.964C104.199 220.405 106.343 227.33 107.292 230.353C108.241 233.375 109.707 238.651 110.551 242.077C111.394 245.503 113.043 251.274 114.213 254.901C123.632 284.074 123.83 284.8 123.335 288.404C123.07 290.33 122.609 291.906 122.309 291.906C122.011 291.906 120.354 287.043 118.629 281.098C116.904 275.153 114.027 266.002 112.235 260.763C110.444 255.524 108 247.775 106.804 243.543C102.643 228.814 94.2652 204.214 91.7446 199.324C89.5381 195.043 90.0278 198.221 92.648 205.188C97.4798 218.035 101.117 229.176 105.764 245.375C106.69 248.599 108.501 254.04 109.789 257.466C111.077 260.891 113.387 268.311 114.923 273.953C116.457 279.596 118.585 286.85 119.65 290.074C120.715 293.299 124.075 303.686 127.116 313.157C130.157 322.628 133.626 333.015 134.827 336.24C136.027 339.464 137.718 344.08 138.585 346.499C140.828 352.751 141.02 349.292 138.808 342.468C137.828 339.446 135.516 332.579 133.669 327.21C129.985 316.496 129.758 315.448 131.418 316.828C132.026 317.333 133.224 320.094 134.079 322.963C136.091 329.715 140.006 341.664 142.001 347.146C143.783 352.04 143.567 353.46 141.041 353.46C139.614 353.46 138.959 352.727 137.607 349.613C135.68 345.173 132.716 336.181 129.215 324.149C127.865 319.514 125.113 311.105 123.097 305.463C119.38 295.057 114.452 280.081 104.288 248.306C97.157 226.011 88.7965 201.551 86.7554 197.011C84.5218 192.043 84.6265 189.314 86.9596 191.649C87.9136 192.604 88.9831 192.024 88.3016 190.92C87.6866 189.924 82.685 187.648 82.193 188.141C81.7032 188.631 83.931 195.611 87.8308 205.804C89.3726 209.835 91.9452 217.089 93.5477 221.926C95.1503 226.762 97.6072 234.017 99.0069 238.047C100.407 242.077 103.964 252.794 106.911 261.862C112.734 279.784 121.418 305.993 123.665 312.424C124.439 314.641 126.219 320.247 127.621 324.882C130.737 335.187 135.735 349.814 136.858 351.913C137.61 353.321 137.485 353.472 135.462 353.591C130.094 353.907 130.274 354.001 128.889 350.163C128.162 348.147 126.512 343.861 125.223 340.636C121.321 330.875 114.243 308.699 113.411 303.631C112.291 296.806 110.113 290.463 107.471 286.331C105.192 282.768 97.8846 263.791 90.4283 242.077C88.2833 235.83 83.9961 223.959 80.9023 215.697C73.1172 194.909 72.4767 193.126 72.4767 192.226C72.4767 191.791 74.2886 190.632 76.5032 189.652C81.201 187.572 81.6395 186.852 77.7843 187.546C74.028 188.222 71.0125 190.087 71.0125 191.734C71.0125 193.54 74.4028 203.655 76.0976 206.904C76.8333 208.314 77.9974 211.447 78.6841 213.865C79.3715 216.283 81.5136 222.384 83.4456 227.421C85.3769 232.459 88.9451 242.517 91.3749 249.771C93.804 257.026 96.0222 263.551 96.3026 264.272C96.7741 265.48 96.6218 265.469 94.3457 264.131C92.8186 263.233 89.7694 262.49 86.352 262.183C81.3057 261.73 80.4982 261.853 77.0449 263.606C72.0037 266.162 68.6786 269.186 66.6053 273.097C65.3622 275.443 63.7823 276.963 60.8159 278.667C58.5728 279.957 54.2849 282.557 51.2885 284.447C46.0533 287.749 45.7868 288.056 44.4654 292.276C42.8189 297.536 40.9989 306.204 40.9974 308.789C40.9967 310.635 40.1643 312.475 36.2659 319.243C35.1502 321.18 33.6004 325.253 32.8222 328.296C31.6816 332.75 30.254 335.562 25.4917 342.728C22.2383 347.623 18.8355 352.452 17.9292 353.46C16.0163 355.587 10.7371 368.747 7.34756 379.84C6.05469 384.072 4.71349 388.359 4.36648 389.366C4.0202 390.374 2.97844 394.001 2.05088 397.427L0.365599 403.656L-0.00264326 196.645C-0.236181 65.0933 -0.436042 26.4061 -0.551712 90.5128ZM119.743 -4.68735C120.503 2.03373 120.741 5.99735 120.974 15.8306C121.151 23.2668 121.079 23.7109 119.697 23.7607C118.891 23.7893 110.985 23.9608 102.126 24.141C93.2681 24.3213 85.5877 24.6254 85.0591 24.8159C84.5298 25.0072 84.3241 25.5304 84.6008 25.9789C84.9625 26.5636 90.112 26.6596 102.767 26.3159C122.656 25.7759 124.754 25.5429 124.14 23.9425C123.654 22.6755 123.3 19.1603 122.232 5.02202C121.306 -7.23816 120.875 -10 119.886 -10C119.394 -10 119.345 -8.19737 119.743 -4.68735ZM145.686 -9.64608C145.686 -9.45116 147.416 -8.41941 149.529 -7.35394C151.643 -6.28774 154.29 -4.76722 155.412 -3.97508C157.915 -2.20761 159.257 -2.62969 159.806 -5.35711C160.036 -6.50025 160.449 -8.01198 160.721 -8.71765C161.069 -9.61897 160.86 -10 160.017 -10C159.357 -10 158.612 -9.42332 158.361 -8.71765C157.298 -5.73449 156.628 -5.53444 153.468 -7.25428C151.805 -8.16 150.335 -9.14779 150.201 -9.45043C149.936 -10.0455 145.686 -10.2294 145.686 -9.64608ZM235.367 26.2764C229.511 27.5903 208.198 35.2999 201.325 38.5893C182.922 47.3974 161.054 64.6588 161.063 70.3686C161.065 71.5066 160.418 75.9004 159.626 80.1322C158.833 84.364 157.506 92.1132 156.677 97.3526C155.848 102.592 154.822 108.818 154.398 111.188C153.975 113.557 153.849 117.104 154.119 119.069C154.527 122.036 154.909 122.716 156.377 123.084C158.861 123.709 159.474 126.646 157.552 128.719C155.056 131.414 155.137 135.824 157.732 138.421C160.591 141.283 161.998 140.744 166.083 135.227C172.546 126.501 175.44 124.164 197.298 110.024C213.38 99.6198 241.039 89.4803 265.749 84.9312C281.261 82.0748 282.587 81.759 282.587 80.9207C282.587 80.3073 278.44 73.0037 270.905 60.3471C268.386 56.1153 264.973 50.3446 263.321 47.5234C261.67 44.7022 257.746 38.5197 254.601 33.7837L248.882 25.1735L244.321 25.2314C241.812 25.2637 237.783 25.7341 235.367 26.2764ZM218.066 43.3099C217.237 45.2239 216.284 47.4919 215.949 48.3485C215.441 49.647 214.508 49.9885 210.346 50.3996C204.127 51.0136 202.055 51.7853 196.716 55.4755C191.876 58.82 186.352 66.4189 183.747 73.3144C181.84 78.3618 179.18 92.4107 179.501 95.739C179.671 97.4977 180.125 98.1418 181.313 98.3111C182.994 98.5514 197.256 92.0927 200.959 89.4151C202.167 88.5409 204.356 87.216 205.823 86.4708C209.926 84.3845 213.675 80.9998 215.151 78.046C219.013 70.3232 216.701 63.2782 210.305 63.2782C209.151 63.2782 207.835 62.9067 207.381 62.4524C205.306 60.3749 199.51 64.2308 197.285 69.1691C196.049 71.9148 196.019 72.4138 196.989 74.1439C198.473 76.7907 201.334 78.2746 203.774 77.6613C205.876 77.1329 208.646 74.7756 208.646 73.5145C208.646 72.279 206.359 71.7756 204.898 72.6886C202.964 73.8977 201.484 73.7394 200.681 72.2357C199.924 70.8207 200.837 68.4736 202.541 67.4551C203.08 67.1326 203.521 66.2262 203.521 65.4399C203.521 63.6622 203.561 63.6637 206.957 65.6026C212.993 69.0489 213.488 70.5994 210.561 76.8926C208.127 82.1224 205.758 83.7961 200.787 83.7961C193.335 83.7961 189.611 80.2399 189.611 73.1224C189.611 68.4275 191.206 65.2025 195.631 60.9465C200.164 56.5872 203.829 54.7618 209.378 54.103C214.773 53.4626 218.163 52.3693 218.163 51.2708C218.163 50.774 219.319 48.4467 220.732 46.0981C222.717 42.7977 223.113 41.6003 222.473 40.8287C220.966 39.0121 219.594 39.7845 218.066 43.3099ZM212.918 67.6515C213.952 69.3552 214.186 70.5899 213.798 72.3039C213.119 75.3083 211.079 79.3196 209.165 81.4146C208.336 82.321 208.004 83.0633 208.425 83.0633C210.005 83.0633 215.028 76.7006 215.52 74.0772C216.056 71.2172 214.241 66.2203 212.456 65.6407C211.841 65.4407 212.002 66.1449 212.918 67.6515ZM187.594 67.8581C186.419 69.3281 185.81 71.9822 186.419 72.9707C186.729 73.4719 186.896 74.8906 186.79 76.1224C186.641 77.8584 187.279 79.1386 189.63 81.8117C191.299 83.7097 193.01 85.2617 193.433 85.2617C193.855 85.2617 193.336 84.5802 192.279 83.7478C189.66 81.6857 187.858 75.3721 188.518 70.5672C189.033 66.8227 188.85 66.287 187.594 67.8581ZM266.115 78.2907C253.379 80.9295 245.049 83.3521 230.242 88.7219C215.434 94.0924 197.894 103.301 185.645 112.134C183.196 113.9 179.545 116.434 177.532 117.764C173.137 120.67 164.629 129.694 162.954 133.226C162.293 134.62 161.432 135.96 161.04 136.203C160.122 136.77 160.117 138.022 161.033 138.022C161.42 138.022 163.039 136.126 164.629 133.809C172.601 122.194 187.74 110.934 212.187 98.4378C223.882 92.4598 249.287 83.8093 263.787 80.8687C271.472 79.31 278.927 77.2978 278.927 76.7827C278.927 76.0968 273.775 76.7035 266.115 78.2907ZM184.982 80.1322C184.777 80.7368 184.423 83.3748 184.195 85.9945C183.967 88.6142 183.572 91.4991 183.316 92.4063C183.058 93.323 183.176 94.0551 183.58 94.0551C184.206 94.0551 192.196 89.5133 193.019 88.6904C193.177 88.5314 192.055 87.1178 190.524 85.5489C188.994 83.98 187.204 81.8726 186.548 80.865C185.629 79.4537 185.269 79.2858 184.982 80.1322ZM200.456 87.2277C200.984 87.4395 201.616 87.4131 201.859 87.1699C202.102 86.9266 201.67 86.7536 200.898 86.7851C200.045 86.8203 199.872 86.994 200.456 87.2277ZM291.006 90.1999C290.201 90.3919 289.196 90.8294 288.772 91.1723C288.348 91.5152 287.305 91.6127 286.453 91.39C283.928 90.729 266.939 101.994 258.555 109.888C254.656 113.558 251.001 117.432 250.431 118.498C249.366 120.49 247.443 121.149 247.451 119.519C247.454 119.016 247.912 117.728 248.469 116.659C249.027 115.589 249.893 113.472 250.393 111.953C251.582 108.349 256.717 98.8365 258.09 97.6963C265.909 91.2009 231.306 102.107 213.763 111.668C209.136 114.188 203.21 117.626 200.593 119.308C197.976 120.989 194.599 123.112 193.089 124.024C191.579 124.937 190.343 125.807 190.343 125.957C190.343 126.106 191.893 126.915 193.787 127.754C197.469 129.384 202.285 132.829 210.406 139.643C213.185 141.976 216.107 143.884 216.898 143.884C219.042 143.884 223.742 148.991 224.668 152.328C225.87 156.664 225.679 159.564 223.604 168.446C222.57 172.872 221.558 177.812 221.355 179.424C220.927 182.819 223.729 193.208 226.603 198.885C228.109 201.859 228.234 202.507 227.3 202.507C225.994 202.507 224.149 198.552 220.916 188.828L218.684 182.11L220.744 173.44C221.877 168.671 222.938 162.007 223.102 158.631L223.4 152.493L219.134 148.365C214.357 143.74 207.268 139.921 201.268 138.737C199.085 138.307 195.893 137.64 194.177 137.256C192.459 136.871 187.999 136.556 184.266 136.556H177.477L174.068 140.037C170.429 143.752 166.064 151.797 164.661 157.373C163.993 160.03 164.026 162.806 164.812 170.098C165.885 180.044 165.807 199.708 164.678 203.972C164.304 205.383 163.782 209.588 163.519 213.315C163.006 220.581 163.702 221.992 165.797 217.936C167.262 215.101 176.238 205.73 176.877 206.369C177.149 206.643 176.09 208.366 174.524 210.199C172.957 212.032 170.125 215.707 168.229 218.368C164.153 224.09 163.424 227.464 164.735 234.565C165.642 239.485 169.83 251.583 170.63 251.596C170.861 251.6 172.031 249.03 173.231 245.885C175.468 240.017 181.492 228.956 182.473 228.912C183.531 228.864 182.995 230.244 179.613 236.263C175.648 243.32 172.811 250.899 172.789 254.49C172.762 258.805 187.192 278.716 190.346 278.716C190.783 278.716 191.078 275.706 191.081 271.205C191.089 259.95 191.798 253.802 193.09 253.802C193.832 253.802 193.991 254.195 193.609 255.084C193.306 255.789 192.901 261.573 192.71 267.936C192.393 278.494 192.483 279.637 193.733 281.021C195.456 282.928 199.618 285.075 203.273 285.941C204.819 286.307 206.609 286.826 207.251 287.093C208.201 287.488 208.797 286.307 210.444 280.766C214.59 266.822 218.267 248.861 217.529 246.159C217.426 245.784 217.035 243.849 216.658 241.859C216.281 239.869 214.551 235.89 212.814 233.015C209.107 226.88 208.482 225.411 209.351 224.874C210.434 224.203 212.248 226.604 215.356 232.823C216.994 236.099 218.431 238.888 218.55 239.021C218.67 239.154 221.153 237.259 224.067 234.809C229.253 230.45 241.886 223.408 250.375 220.142C252.59 219.291 261.896 216.304 271.055 213.508C280.214 210.711 288.382 208.061 289.206 207.62C290.573 206.888 290.653 206.422 290.122 202.281C289.315 195.97 289.397 188.396 290.276 188.098C290.728 187.945 291.079 190.677 291.187 195.189C291.464 206.769 295.26 215.38 304.508 225.405C308.356 229.577 308.867 230.427 307.773 230.848C306.806 231.219 305.609 230.361 303.061 227.468C300.295 224.327 299.556 223.826 299.17 224.833C298.908 225.517 298.65 231.242 298.597 237.557C298.544 243.872 298.298 251.512 298.048 254.534C297.47 261.545 298.19 267.182 300.218 271.517C301.985 275.293 301.722 277.251 299.448 277.251C298.044 277.251 297.961 277.698 297.961 285.311C297.961 293.88 298.086 294.13 301.509 292.375C302.578 291.827 305.428 290.474 307.844 289.369C314.163 286.479 320.258 281.91 326.33 275.51C329.247 272.437 331.799 269.923 332.001 269.923C332.204 269.923 332.369 270.778 332.369 271.824C332.369 273.454 333.134 272.805 337.763 267.244C340.729 263.68 343.042 260.633 342.902 260.473C342.763 260.313 341.351 261.042 339.764 262.092C336.4 264.321 333.448 265.214 332.817 264.194C332.444 263.589 344.62 257.092 348.658 255.741C349.363 255.506 349.94 254.875 349.94 254.34C349.94 252.925 354.861 248.397 359.045 245.964C361.615 244.468 362.825 243.233 363.235 241.687C363.552 240.491 365.434 236.38 367.415 232.551C369.398 228.722 371.274 224.435 371.585 223.025C372.356 219.532 372.07 204.913 371.169 201.768C370.767 200.366 370.438 198.805 370.438 198.298C370.438 196.579 371.721 197.368 372.675 199.673C374.475 204.024 384.715 207.005 388.572 204.301C390.739 202.782 391.39 201.435 393.529 194.046C395.977 185.591 396.768 179.569 396.747 169.532C396.727 159.818 395.972 154.96 394.292 153.731C393.642 153.255 392.329 150.568 391.375 147.761C389.35 141.803 386.243 136.556 384.74 136.556C382.84 136.556 378.638 141.707 376.814 146.269L375.026 150.743L378.889 154.703C381.014 156.882 384.017 160.697 385.563 163.182C387.948 167.013 388.371 168.312 388.357 171.73C388.341 175.248 387.945 176.338 385.245 180.304C381.969 185.117 381.618 186.291 383.03 187.705C384.991 189.667 381.875 188.506 378.473 186.005C375.123 183.545 374.966 183.271 375.015 179.983C375.054 177.453 375.705 175.481 377.468 172.55C379.795 168.684 379.834 168.49 378.714 166.298C378.078 165.054 376.532 162.592 375.279 160.828L373 157.621L372.634 161.87C372.433 164.208 371.924 166.233 371.502 166.372C371.08 166.51 369.656 163.98 368.336 160.75C367.016 157.519 365.665 154.876 365.333 154.876C365 154.876 364.448 157.57 364.106 160.864C363.726 164.523 363.127 166.968 362.568 167.153C361.958 167.355 361.654 166.641 361.658 165.013C361.676 155.511 351.875 118.46 346.472 107.612C344.046 102.739 342.925 101.566 338.592 99.3648C329.569 94.7813 316.639 91.5218 304.463 90.7627C300.686 90.5275 296.442 90.2263 295.033 90.0929C293.623 89.9603 291.811 90.0079 291.006 90.1999ZM269.958 92.3909C264.652 93.4044 264.082 93.7004 261.173 96.9532C257.828 100.694 252.571 109.141 252.571 110.775C252.571 111.325 255.334 109.186 258.711 106.024C262.088 102.862 267.771 98.5529 271.339 96.4483C280.703 90.9276 280.359 91.2024 277.828 91.2588C276.621 91.2859 273.079 91.7952 269.958 92.3909ZM330.233 105.278C330.161 107.781 331.341 110.176 332.648 110.176C333.951 110.176 336.03 107.776 336.03 106.271C336.03 104.616 335.421 104.731 333.841 106.685L332.515 108.325L331.404 105.769L330.292 103.215L330.233 105.278ZM347.011 104.571C347.011 104.732 347.867 106.802 348.913 109.169C352.925 118.246 358.082 135.276 360.203 146.449C362.553 158.826 362.443 158.444 363.149 156.708C363.478 155.902 363.769 154.006 363.798 152.494C363.826 150.983 364.182 149.747 364.588 149.747C364.994 149.747 366.383 151.89 367.674 154.51C368.964 157.129 370.197 159.273 370.413 159.272C370.628 159.272 370.804 154.282 370.804 148.183C370.804 142.084 371.014 134.097 371.269 130.436L371.733 123.777L366.574 118.992C359.034 111.998 347.011 103.136 347.011 104.571ZM294.687 109.492C283.91 111.296 274.915 117.64 268.51 127.958C266.176 131.715 264.624 132.886 261.954 132.904C261.021 132.91 259.764 133.24 259.16 133.636C258.184 134.278 258.184 134.439 259.16 135.089C260.466 135.959 263.097 135.512 269.043 133.408C274.765 131.384 277.544 129.972 275.815 129.966C273.508 129.958 274.46 128.567 279.11 125.154C289.146 117.788 299.529 112.68 306.33 111.763C309.768 111.299 309.879 111.215 308.656 109.993C307.242 108.579 301.398 108.369 294.687 109.492ZM134.694 114.094C134.499 114.29 134.568 119.837 134.847 126.419C135.127 133.002 135.575 143.93 135.842 150.704C136.392 164.642 136.234 164.473 141.722 156.989C144.639 153.011 144.688 152.497 142.793 145.716C142.004 142.895 139.94 134.546 138.205 127.163C136.47 119.779 134.89 113.899 134.694 114.094ZM309.885 127.355C302.564 131.289 297.229 134.9 297.229 135.919C297.229 136.335 298.299 136.027 299.608 135.232C300.917 134.439 305.282 131.908 309.308 129.607C317.263 125.065 318.616 124.093 316.959 124.112C316.375 124.118 313.191 125.578 309.885 127.355ZM319.558 127.922C314.382 130.791 312.044 132.577 312.66 133.194C313.084 133.619 324.704 126.879 324.972 126.053C325.359 124.861 324.623 125.115 319.558 127.922ZM154.979 126.033C154.394 126.618 155.055 127.763 155.978 127.763C156.358 127.763 156.667 127.268 156.667 126.664C156.667 125.531 155.803 125.208 154.979 126.033ZM299.059 129.956C296.241 131.961 292.055 134.843 289.758 136.362C287.461 137.879 285.567 139.534 285.548 140.037C285.53 140.541 285.685 140.953 285.893 140.953C286.57 140.953 299.549 131.503 303.726 127.97C307.254 124.985 304.249 126.265 299.059 129.956ZM183.884 130.66C181.87 132.254 180.061 133.821 179.863 134.141C179.664 134.462 183.178 134.781 187.668 134.85C192.98 134.931 196.954 135.379 199.038 136.132C203.088 137.596 203.951 137.592 202.728 136.116C200.634 133.592 190.703 127.763 188.495 127.763C187.974 127.763 185.898 129.067 183.884 130.66ZM288.734 133.495C280.83 139.78 278.423 142.159 279.19 142.927C279.465 143.202 281.083 142.107 282.785 140.493C284.488 138.879 288.023 135.786 290.64 133.62C293.257 131.453 295.706 129.42 296.082 129.1C296.458 128.782 296.588 128.343 296.372 128.127C296.156 127.91 292.719 130.326 288.734 133.495ZM373.366 129.229C373.366 130.597 373.562 130.792 374.245 130.108C374.928 129.424 374.928 129.033 374.245 128.349C373.562 127.666 373.366 127.861 373.366 129.229ZM279.659 130.858C278.652 131.297 276.181 132.391 274.168 133.29C272.155 134.189 269.437 135.153 268.128 135.432C265.651 135.961 265.009 137.051 266.775 137.729C267.775 138.114 283.319 131.208 283.319 130.379C283.319 129.752 281.714 129.962 279.659 130.858ZM376.112 131.486C373.927 132.759 372.847 135.945 372.406 142.419C371.924 149.482 372.765 153.591 373.677 148.635C374.464 144.36 376.487 140.268 379.556 136.74C381.66 134.321 382.785 133.62 384.588 133.601L386.91 133.576L385.182 132.136C383.29 130.558 378.315 130.202 376.112 131.486ZM320.656 141.441C312.695 142.694 298.693 146.735 298.693 147.778C298.693 148.148 299.434 148.22 300.34 147.937C301.247 147.654 305.77 146.461 310.391 145.287C319.286 143.027 326.681 142.637 339.141 143.773C346.028 144.4 346.942 143.151 340.561 141.832C336.604 141.014 324.835 140.783 320.656 141.441ZM393.546 150.694C393.821 151.417 394.23 151.823 394.456 151.598C394.681 151.373 394.457 150.781 393.956 150.284C393.233 149.566 393.149 149.65 393.546 150.694ZM189.611 155.171C185.233 156.686 184.518 157.251 180.664 162.246C176.905 167.118 174.945 171.218 175.913 172.186C176.106 172.379 178.032 170.783 180.192 168.641C183.446 165.413 185.127 164.407 189.977 162.783C198.892 159.798 205.102 159.057 210.842 160.292C213.459 160.855 215.754 161.17 215.941 160.992C216.794 160.179 214.339 157.972 210.158 155.792C206.115 153.685 204.944 153.417 199.98 153.468C196.191 153.506 192.825 154.059 189.611 155.171ZM308.047 159.658C306.962 160.79 308.403 161.471 311.878 161.471C321.176 161.471 340.896 167.316 352.899 173.629C357.77 176.191 360.767 176.536 357.625 174.174C351.932 169.891 336.51 163.623 325.557 161.138C319.632 159.794 308.795 158.878 308.047 159.658ZM380.479 163.682C380.884 165.235 381.793 165.576 382.495 164.439C382.731 164.056 382.289 163.403 381.512 162.986C380.304 162.339 380.154 162.44 380.479 163.682ZM381.856 167.048C381.524 167.913 381.715 168.109 382.569 167.781C383.211 167.535 383.892 167.333 384.085 167.333C384.277 167.333 384.231 167.004 383.982 166.601C383.31 165.513 382.368 165.712 381.856 167.048ZM382.377 169.674C380.766 170.453 379.483 172.463 380.597 172.463C380.924 172.463 382.149 171.639 383.319 170.632C385.529 168.729 385.142 168.336 382.377 169.674ZM384.048 171.666C379.635 175.338 377.028 177.837 377.312 178.121C377.772 178.582 384.889 173.035 385.412 171.808C386.027 170.364 385.658 170.326 384.048 171.666ZM161.876 172.829C161.91 174.038 162.202 175.852 162.524 176.859C163.033 178.449 163.118 178.303 163.172 175.76C163.206 174.148 162.914 172.335 162.524 171.73C161.984 170.892 161.829 171.155 161.876 172.829ZM202.789 174.455C199.097 176.53 198.343 176.771 199.425 175.529C202 172.574 198.975 173.717 191.937 178.358C188.242 180.794 185.219 182.937 185.219 183.121C185.219 184.14 187.754 183.082 192.237 180.191C195.796 177.897 197.784 177.05 198.934 177.337C200.482 177.723 204.531 175.805 208.28 172.908C211.084 170.741 207.703 171.694 202.789 174.455ZM187.518 176.898C180.561 181.383 174.617 186.368 176.212 186.379C176.694 186.383 179.164 184.82 181.703 182.905C184.241 180.99 188.373 178.105 190.886 176.493C195.021 173.84 196.418 172.448 194.919 172.472C194.617 172.476 191.286 174.468 187.518 176.898ZM180.782 178.161C172.327 184.568 169.514 187.031 170.044 187.563C170.476 187.994 179.458 181.256 185.504 175.965C189.563 172.412 186.471 173.851 180.782 178.161ZM384.684 174.71C384.418 175.14 384.377 175.667 384.592 175.883C385.117 176.407 386.544 175.483 386.544 174.618C386.544 173.681 385.281 173.744 384.684 174.71ZM380.321 181.256C379.235 182.458 379.194 182.722 380.094 182.722C380.698 182.722 381.789 182.062 382.518 181.256C383.604 180.054 383.645 179.791 382.745 179.791C382.141 179.791 381.05 180.45 380.321 181.256ZM245.007 183.211C244.229 183.989 244.442 189.317 245.25 189.317C245.653 189.317 245.982 188.647 245.982 187.829C245.982 185.737 247.378 185.435 251.049 186.732C257.5 189.01 259.096 187.332 253.295 184.371C250.18 182.781 246.018 182.198 245.007 183.211ZM314.25 186.2C312.883 186.66 313.146 187.851 314.616 187.853C316.69 187.857 336.17 196.856 342.006 200.506C344.96 202.354 349.945 206.238 353.082 209.139C359.226 214.817 361.119 215.443 357.212 210.506C353.205 205.442 344.704 198.699 337.427 194.813C327.764 189.651 316.471 185.455 314.25 186.2ZM275.224 188.197C272.767 189.534 271.243 192.76 272.406 194.162C273.762 195.797 275.184 195.349 276.738 192.798C278.172 190.445 278.71 187.091 277.645 187.148C277.343 187.164 276.254 187.636 275.224 188.197ZM229.639 188.375C229.116 189.223 229.83 195.912 230.445 195.912C230.647 195.912 231.243 195.334 231.767 194.629C232.647 193.447 232.893 193.547 234.929 195.912C236.915 198.218 237.141 198.315 237.167 196.879C237.204 194.946 230.357 187.212 229.639 188.375ZM274.229 191.254C273.975 191.916 273.918 192.608 274.102 192.792C274.684 193.375 275.998 192.205 275.998 191.106C275.998 189.668 274.798 189.769 274.229 191.254ZM-20.1454 273.587C-20.1454 317.719 -20.0576 335.772 -19.95 313.707C-19.8423 291.64 -19.8423 255.532 -19.95 233.467C-20.0576 211.401 -20.1454 229.455 -20.1454 273.587ZM-3.14112 197.377C-3.39955 198.367 -4.1397 198.843 -5.42232 198.843C-8.15888 198.843 -7.87776 200.546 -4.02695 207.31L-0.732539 213.097V205.664C-0.732539 198.302 -1.0898 195.912 -2.1894 195.912C-2.50201 195.912 -2.93028 196.571 -3.14112 197.377ZM310.819 207.773C310.139 209.393 310.034 210.603 310.499 211.473C311.371 213.104 312.032 213.098 314.079 211.438C315.984 209.894 315.599 207.384 313.265 206.133C312.029 205.471 311.691 205.697 310.819 207.773ZM288.584 210.384C286.488 212.169 286.133 213.03 285.493 217.895C285.095 220.918 284.089 228.502 283.258 234.749C282.427 240.996 281.515 253.197 281.231 261.862C280.756 276.338 280.663 277.141 280.081 271.755C279.195 263.556 280.706 239.172 282.982 224.947C284.005 218.548 284.679 213.149 284.478 212.949C284.278 212.749 283.624 212.773 283.025 213.003C281.873 213.446 281.619 214.571 280.438 224.49C280.031 227.916 279.325 233.807 278.87 237.58C278.416 241.354 277.998 250.175 277.944 257.182C277.89 264.19 277.617 269.923 277.338 269.923C275.436 269.923 277.419 231.405 280.103 216.207C280.593 213.431 280.586 213.422 278.48 213.924C275.909 214.537 273.848 216.236 273.007 218.437C272.296 220.298 269.989 233.882 268.619 244.275C268.114 248.104 267.417 251.732 267.07 252.336C266.37 253.555 266.873 245.815 267.95 238.78C268.322 236.361 268.957 232.075 269.363 229.253C271.116 217.092 271.112 217.163 269.915 217.163C267.94 217.163 266.604 223.017 264.648 240.245C264.053 245.485 263.564 253.316 263.56 257.649C263.556 262.407 263.263 265.526 262.821 265.526C261.31 265.526 262.357 244.762 264.703 228.206C265.944 219.444 265.821 217.53 264.126 219.227C263.649 219.703 262.495 220.094 261.561 220.094C260.49 220.094 259.605 220.705 259.17 221.742C258.047 224.424 256.845 241.886 256.443 261.347C256.096 278.124 256.168 279.629 257.384 280.975C258.654 282.379 258.651 282.483 257.284 283.847C255.068 286.059 253.75 284.738 254.642 281.203C255.038 279.634 255.364 271.755 255.366 263.694C255.368 255.634 255.782 243.562 256.284 236.867C256.787 230.173 256.992 224.155 256.738 223.494C256.255 222.233 252.245 221.823 250.604 222.868C247.091 225.104 243.638 255.834 243.835 283.113C243.883 289.763 243.644 295.204 243.305 295.204C242.966 295.204 242.599 288.624 242.489 280.583C242.302 266.795 243.335 250.685 245.266 237.314C247.009 225.238 247.059 224.035 245.772 225.099C243.101 227.306 240.899 241.854 239.449 266.862C238.864 276.955 238.466 279.604 237.675 278.655C237.137 278.011 238.707 255.011 240.187 241.845C241.039 234.261 241.568 227.888 241.361 227.682C241.156 227.476 240.075 227.785 238.96 228.37C237.17 229.309 236.688 230.406 234.835 237.771C231.757 250.002 229.856 262.977 228.406 281.647C227.694 290.805 225.898 299.653 222.234 312.058C219.77 320.399 217.194 336.662 218.181 337.65C219.429 338.899 220.49 336.952 220.807 332.832C221.52 323.547 224.773 306.873 227.149 300.333C227.734 298.721 228.44 294.929 228.718 291.906C229.098 287.782 229.599 286.045 230.726 284.945L232.227 283.479L231.052 285.824C229.312 289.296 229.54 291.518 231.741 292.521C234.111 293.602 234.269 293.59 234.269 292.334C234.269 291.763 233.882 291.167 233.41 291.009C232.275 290.631 232.522 270.452 233.84 256C234.372 250.156 234.652 244.963 234.46 244.459C234.269 243.955 234.477 243.543 234.923 243.543C235.913 243.543 235.934 245.984 235.041 257.609C233.439 278.471 233.442 278.59 235.593 279.626C236.648 280.133 238.006 281.433 238.612 282.515C239.618 284.311 239.572 284.921 238.08 289.557C237.182 292.348 236.132 297.728 235.747 301.513C235.118 307.699 233.401 319.738 231.423 331.843C231.028 334.261 230.31 341.139 229.826 347.127C228.893 358.689 229.011 359.283 232.256 359.311C233.411 359.321 233.538 358.37 233.553 349.613C233.567 340.865 234.907 325.998 237.235 308.76C238.425 299.944 238.593 299.234 239.487 299.234C239.952 299.234 240.11 299.932 239.865 300.907C239.477 302.455 239.011 306.049 237.184 321.584C235.498 335.921 234.942 344.124 235.147 351.619C235.338 358.602 235.537 359.704 236.648 359.917C237.816 360.141 237.929 359.311 237.929 350.582C237.929 344.209 238.194 341.003 238.72 341.003C239.274 341.003 239.353 344.001 238.982 351.001L238.453 360.999L240.386 360.629C241.45 360.425 242.897 360.697 243.602 361.233C245.206 362.451 248.478 362.599 247.75 361.42C247.467 360.962 246.948 354.284 246.596 346.581C246.245 338.878 245.894 331.422 245.818 330.011C245.741 328.6 246.744 323.489 248.045 318.653C249.404 313.603 250.602 307.044 250.859 303.245L251.306 296.629L249.286 295.708C247.296 294.8 247.286 294.764 248.638 293.269C249.906 291.865 249.991 290.568 249.759 275.891C249.521 260.724 250.158 248.875 251.926 235.603C253.156 226.377 254.022 229.481 252.915 239.146C250.648 258.947 250.064 288.975 251.947 288.975C252.962 288.975 252.66 301.638 251.469 308.952C250.863 312.675 249.545 318.687 248.54 322.312C246.501 329.673 246.342 330.99 247.54 330.591C249.475 329.945 253.677 314.089 254.779 303.276C255.23 298.849 255.7 295.125 255.825 295.001C257.203 293.621 255.458 312.862 253.721 318.192C252.139 323.049 251.548 337 252.5 347.004C253.464 357.127 253.757 358.125 255.601 357.55C256.35 357.315 257.623 356.921 258.428 356.672C259.554 356.324 259.892 356.558 259.892 357.682C259.892 359.775 258.056 361.037 255.827 360.477C252.645 359.678 251.683 356.031 251.12 342.651C250.844 336.101 250.426 330.55 250.19 330.314C249.954 330.078 249.323 330.656 248.787 331.597C247.147 334.477 247.559 355.466 249.36 360.765C250.177 363.172 250.526 363.381 255.849 364.675C258.943 365.428 261.644 365.873 261.851 365.666C262.058 365.459 262.725 362.051 263.334 358.093C264.248 352.146 264.343 346.821 263.875 327.446C263.093 294.997 263.426 283.113 265.119 283.113C265.538 283.113 265.629 283.802 265.333 284.736C265.05 285.629 264.94 294.12 265.089 303.605C265.62 337.321 265.379 355.81 264.34 361.088C263.411 365.807 263.434 366.216 264.686 367.133C266.626 368.552 267.772 368.346 268.381 366.467C269.048 364.411 269.008 326.347 268.338 324.232C268.002 323.171 268.162 322.683 268.846 322.683C270.07 322.683 270.07 322.69 270.315 348.617C270.478 365.893 270.677 369.147 271.606 369.652C272.21 369.98 275.669 371.441 279.293 372.898C282.917 374.355 286.304 375.729 286.819 375.949C287.568 376.269 287.672 374.295 287.335 366.188C287.103 360.598 286.722 354.541 286.488 352.727C286.255 350.914 286.127 347.204 286.205 344.483C286.376 338.472 285.174 337.924 284.496 343.702C284.227 345.993 283.635 348.315 283.182 348.863C282.568 349.603 282.574 350.076 283.204 350.706C284.383 351.887 284.264 352.495 282.77 352.925C282.066 353.128 280.911 353.532 280.204 353.824C278.125 354.679 276.469 349.817 277.101 344.712C278.02 337.287 280.769 333.191 284.246 334.064C286.563 334.646 288.774 339.237 288.166 342.206C287.931 343.358 287.727 345.784 287.712 347.598C287.667 353.519 289.016 375.047 289.508 376.261C289.773 376.911 290.838 377.831 291.877 378.304L293.765 379.165L293.24 376.022C291.453 365.333 290.515 321.835 292.05 320.885C292.458 320.632 292.893 329.895 293.139 344.107C293.366 357.11 293.743 370.412 293.977 373.667C294.383 379.302 294.511 379.649 296.643 380.909L298.881 382.233L298.378 374.258C298.102 369.872 297.694 365.212 297.47 363.902C297.153 362.033 297.32 361.521 298.246 361.521C299.694 361.521 299.746 360.515 298.406 358.381C296.866 355.926 296.169 329.593 296.439 284.015L296.497 274.292L298.327 274.751C299.334 275.004 300.157 274.989 300.157 274.717C300.157 273.933 298.607 271.139 297.409 269.764C296.147 268.314 296.12 262.374 297.258 237.014L297.962 221.324L296.237 218.328C295.288 216.679 293.925 213.765 293.208 211.85C292.492 209.935 291.691 208.369 291.428 208.369C291.166 208.369 289.885 209.276 288.584 210.384ZM341.643 211.789C340.824 212.608 341.099 216.814 342.033 217.749C343.525 219.242 344.842 218.731 345.882 216.257C347.095 213.368 346.232 211.3 343.813 211.3C342.888 211.3 341.911 211.52 341.643 211.789ZM342.731 214.552C342.871 215.224 343.314 215.757 343.717 215.736C344.803 215.678 344.604 214.039 343.463 213.658C342.848 213.453 342.574 213.788 342.731 214.552ZM287.382 217.346C287.185 218.253 286.437 224.271 285.72 230.719C284.127 245.051 283.933 290.196 285.433 297.165C285.925 299.452 286.461 305.387 286.622 310.355C286.883 318.352 287.067 319.407 288.229 319.573C291.041 319.974 291.544 318.717 292.014 310.125C292.487 301.496 292.195 295.808 290.658 283.704C290.161 279.797 289.872 272.483 290.015 267.45C290.194 261.125 290.048 258.681 289.542 259.532C288.509 261.269 288.748 282.363 289.875 288.904C291.683 299.396 290.943 317.554 288.707 317.554C287.785 317.554 287.69 316.647 288.109 311.836C288.406 308.433 288.279 304.503 287.797 302.126C285.048 288.599 284.684 257.767 286.99 233.701C287.803 225.209 288.65 217.684 288.871 216.979C289.093 216.274 288.929 215.697 288.507 215.697C288.085 215.697 287.578 216.439 287.382 217.346ZM316.589 218.978C315.978 220.442 315.407 222.858 315.322 224.347C315.181 226.781 315.348 227.055 316.973 227.055C319.359 227.055 320.725 224.345 320.48 220.1C320.226 215.705 318.199 215.121 316.589 218.978ZM291.369 227.605C291.368 233.347 291.194 242.334 290.985 247.573C290.691 254.923 290.789 256.681 291.418 255.267C292.595 252.62 293.335 217.163 292.213 217.163C291.619 217.163 291.371 220.228 291.369 227.605ZM317.058 221.696C316.213 224.121 316.919 225.809 318.396 224.896C319.352 224.305 319.473 219.361 318.531 219.361C318.168 219.361 317.505 220.412 317.058 221.696ZM372.798 229.053C372.008 230.841 370.33 233.361 369.07 234.651C366.638 237.141 366.18 238.413 367.713 238.413C369.683 238.413 371.74 236.131 373.688 231.787C375.045 228.759 375.468 227.033 374.973 226.538C374.479 226.043 373.763 226.87 372.798 229.053ZM374.562 232.734C374 234.044 372.447 236.6 371.109 238.413C369.772 240.227 365.335 246.657 361.25 252.702C353.528 264.129 344.567 276.939 341.949 280.291C339.882 282.938 339.32 284.579 340.48 284.579C341 284.579 342.152 285.261 343.037 286.094L344.649 287.609L346.653 285.603C348.508 283.746 348.625 283.283 348.219 279.393C347.785 275.235 347.813 275.155 350.73 272.235C352.353 270.611 355.153 268.569 356.952 267.697C360.504 265.975 360.058 265.874 364.997 269.52C365.659 270.007 366.368 269.687 367.372 268.446C368.8 266.68 368.8 266.669 366.931 262.856L365.06 259.036L367.054 256.419C368.151 254.979 369.33 253.802 369.674 253.802C370.018 253.802 371.678 252.649 373.364 251.24C376.872 248.305 378.979 248.345 382.275 251.411C387.617 256.381 386.79 247.788 380.936 237.497C378.701 233.567 376.582 230.353 376.228 230.353C375.872 230.353 375.124 231.424 374.562 232.734ZM231.158 232.61C229.065 233.83 227.883 236.976 227.326 242.81C227.037 245.833 226.501 249.937 226.134 251.931C225.767 253.925 224.952 259.531 224.324 264.388C223.695 269.246 222.895 275.364 222.547 277.983C222.2 280.603 221.385 286.868 220.737 291.906C219.211 303.769 216.032 323.595 215.583 324.044C214.93 324.698 215.234 321.852 217.748 303.762C220.222 285.959 222.232 270.867 223.28 262.229C223.573 259.81 224.331 254.37 224.964 250.138C226.645 238.897 226.881 236.215 226.19 236.215C225.349 236.215 224.895 237.052 224.474 239.369C223.944 242.301 223.373 242.859 221.413 242.367C219.409 241.863 219.186 242.531 220.692 244.522C221.255 245.264 221.583 246.906 221.425 248.186C221.269 249.461 220.779 253.802 220.339 257.832C219.899 261.862 219.094 267.798 218.55 271.022C218.004 274.246 216.973 281.252 216.258 286.591C215.056 295.565 214.314 298.62 213.547 297.747C213.38 297.558 214.663 288.169 216.396 276.884C219.72 255.255 220.027 252.336 218.976 252.336C218.618 252.336 217.439 257.035 216.357 262.778C215.274 268.521 213.179 276.97 211.7 281.553C209.48 288.432 208.693 290.024 207.182 290.677C204.646 291.775 204.669 291.741 205.7 292.984C206.455 293.894 206.313 294.865 204.919 298.315C202.867 303.395 197.252 312.754 192.923 318.311C190.024 322.031 189.852 322.483 190.838 323.807C191.876 325.201 191.991 325.153 194.366 322.349C195.715 320.755 197.774 317.622 198.941 315.388C200.108 313.153 202.442 308.94 204.128 306.025C205.813 303.11 207.87 298.912 208.698 296.696C210.097 292.956 211.244 291.332 211.973 292.061C212.139 292.227 211.95 294.321 211.554 296.715C210.223 304.741 209.951 308.492 210.786 307.295C211.207 306.69 211.557 305.473 211.563 304.59C211.574 303.024 212.773 301.656 213.499 302.381C213.698 302.582 213.367 305.17 212.764 308.134C212.16 311.098 211.296 316.326 210.844 319.752C210.086 325.501 206.143 343.803 204.102 351.055C203.623 352.756 203.391 354.307 203.586 354.503C203.782 354.698 205.277 355.072 206.91 355.334L209.877 355.809L210.703 350.42C211.158 347.458 211.928 342.313 212.416 338.988C213.038 334.747 213.606 332.942 214.318 332.942C214.94 332.942 215.188 333.438 214.957 334.225C214.75 334.929 214.41 336.661 214.202 338.072C213.994 339.482 213.273 343.886 212.598 347.859C211.2 356.1 211.281 356.278 216.516 356.502C218.227 356.575 220.121 356.663 220.725 356.697C221.632 356.747 221.859 355.211 222.037 347.817C222.203 340.913 222.052 339.043 221.372 339.608C220.878 340.019 220.263 343.383 219.972 347.267C219.678 351.188 219.126 354.193 218.7 354.193C218.207 354.193 218.109 352.082 218.417 348.069C218.79 343.211 218.645 341.459 217.712 339.588C216.783 337.723 216.642 336.053 217.037 331.605C217.698 324.174 219.826 313.951 222.554 305.102C225.659 295.029 226.256 291.966 226.975 282.38C228.012 268.571 229.935 253.911 231.734 246.107C234.239 235.237 234.648 231.814 233.437 231.84C232.888 231.853 231.862 232.198 231.158 232.61ZM411.435 236.156C408.336 236.619 404.846 238.03 404.846 238.82C404.846 239.015 405.752 238.972 406.86 238.725C407.967 238.478 410.782 238.102 413.113 237.889C415.794 237.643 417.252 237.196 417.079 236.674C416.735 235.639 415.592 235.534 411.435 236.156ZM360.396 246.543C358.333 247.865 341.012 268.792 332.552 280.182C327.581 286.875 321.324 294.932 317.227 299.915C315.096 302.506 313.467 304.74 313.605 304.879C314.73 306.004 317.226 303.177 328.871 287.595C330.191 285.827 332.13 283.354 333.179 282.099C334.228 280.843 340.543 272.891 347.212 264.427C353.881 255.963 360.266 248.131 361.4 247.023C363.852 244.626 363.584 244.499 360.396 246.543ZM202.57 249.135C201.785 249.921 201.96 252.922 202.821 253.455C203.998 254.183 205.814 252.28 205.57 250.576C205.351 249.048 203.531 248.174 202.57 249.135ZM357.118 254.079C355.384 256.246 352.648 259.756 351.038 261.878C349.427 263.999 344.144 270.716 339.296 276.805C322.72 297.626 318.988 302.869 319.933 304.008C321.396 305.773 323.583 306.058 325.101 304.682C326.592 303.332 326.98 299.642 325.823 297.812C324.748 296.11 326.633 293.441 332.947 287.724C337.196 283.876 341.32 278.88 348.133 269.327C357.384 256.354 361.446 250.138 360.669 250.138C360.449 250.138 358.851 251.911 357.118 254.079ZM309.089 252.483C307.852 253.721 307.997 256.376 309.364 257.512C310.589 258.529 310.767 258.393 312.72 254.959C313.358 253.836 313.251 253.354 312.189 252.577C310.554 251.381 310.201 251.37 309.089 252.483ZM345.532 260.048C345.023 260.662 344.748 261.307 344.921 261.48C345.095 261.653 345.638 261.151 346.13 260.364C347.193 258.66 346.838 258.473 345.532 260.048ZM77.5874 266.441C74.4233 268.075 71.5747 270.39 68.516 273.813C64.2201 278.622 54.9511 285.966 49.9209 288.547C48.2759 289.391 47.0423 290.856 46.0774 293.108C44.0268 297.897 44.2618 299.282 47.5365 301.707C51.1801 304.404 58.4183 311.849 55.2725 309.664C54.0645 308.825 51.1149 306.466 48.7181 304.422C45.6587 301.812 44.1315 300.936 43.5934 301.482C42.8181 302.268 46.3725 306.133 49.4634 307.863C50.2357 308.296 50.6911 308.827 50.4758 309.043C50.2599 309.259 48.6376 308.477 46.8703 307.306C45.1023 306.135 43.4302 305.316 43.1534 305.488C42.8767 305.658 42.4931 307.437 42.3006 309.439C42.0465 312.087 41.1248 314.35 38.9176 317.74C35.1165 323.58 32.6574 332.32 33.2622 337.844C33.6106 341.031 33.287 342.635 31.2643 347.737C29.937 351.086 28.0724 356.361 27.1221 359.46C25.42 365.008 25.4134 365.152 26.6777 368.986C27.7429 372.214 28.7649 373.541 32.6655 376.757L37.3685 380.636L42.294 378.098C46.4903 375.935 50.4649 374.168 59.8481 370.293C60.7537 369.919 61.4953 369.329 61.4953 368.982C61.4953 367.856 47.77 355.281 42.4938 351.572C39.6702 349.588 37.3545 347.566 37.348 347.078C37.3179 344.809 53.5704 357.376 60.4352 364.93L64.1337 368.999L69.5864 367.137C78.6292 364.047 89.3463 360.788 90.462 360.788C92.5206 360.788 91.4327 358.973 85.8373 353.074C82.7172 349.784 77.6928 344.178 74.6729 340.617C65.6265 329.949 56.0324 321.04 49.8762 317.592C49.2269 317.228 48.9392 316.687 49.2371 316.389C49.9407 315.685 58.881 321.867 64.4368 326.9C66.8256 329.064 72.3024 334.854 76.6071 339.766C80.9111 344.678 86.6932 351.098 89.4561 354.033C94.4768 359.366 94.4811 359.368 97.2045 358.661C100.212 357.88 105.739 357.024 118.922 355.299C123.731 354.67 127.815 354.005 127.997 353.823C128.18 353.64 125.184 350.268 121.339 346.331C114.372 339.195 109.584 333.674 102.975 325.156C99.9008 321.195 99.1314 320.621 96.4168 320.266C93.9321 319.943 92.8493 319.271 90.779 316.77C89.3697 315.067 85.5379 310.837 82.264 307.37C76.0998 300.842 74.9775 299.132 72.4884 292.471C71.6758 290.299 69.8587 286.605 68.4494 284.263C65.614 279.549 64.9171 276.551 67.3886 279.695C69.0527 281.813 75.405 294.895 75.405 296.204C75.405 296.661 78.288 300.13 81.8108 303.913C85.3344 307.696 89.4751 312.313 91.0132 314.173C93.6517 317.363 94.0148 317.554 97.4483 317.554C101.785 317.554 105.514 315.799 109.081 312.079C111.527 309.529 111.643 309.168 111.636 304.138C111.626 298.182 109.499 292.748 104.014 284.662C100.406 279.345 99.4726 277.189 98.9008 272.854C98.4725 269.608 98.3817 269.514 93.058 266.809C86.2898 263.369 83.6601 263.307 77.5874 266.441ZM129.331 264.84C125.772 265.155 122.665 265.608 122.428 265.845C122.191 266.082 122.55 268.033 123.226 270.179C123.902 272.326 124.455 274.775 124.455 275.623C124.455 277.609 125.687 278.356 127.067 277.21C127.663 276.714 128.28 276.439 128.437 276.596C128.594 276.755 127.763 279.657 126.589 283.047C124.148 290.096 123.968 293.505 125.649 300.898C126.887 306.351 130.786 312.76 134.176 314.919C136.902 316.655 142.957 318.396 144.723 317.952C146.6 317.48 151.543 313.383 151.543 312.299C151.543 311.33 147.704 306.571 142.099 300.591L137.415 295.593L138.439 291.793C139.003 289.703 139.885 287.853 140.399 287.683C141.087 287.455 141.006 288.199 140.096 290.475L138.856 293.578L142.653 296.852C144.741 298.652 147.348 301.657 148.447 303.527C150.254 306.604 150.469 306.759 150.696 305.148C150.845 304.091 149.677 300.897 147.819 297.28C146.099 293.931 144.917 290.966 145.192 290.691C146.067 289.815 149.266 293.477 150.538 296.814C151.215 298.586 152.016 299.772 152.319 299.451C153.351 298.358 155.935 288.83 155.926 286.15C155.9 277.977 150.863 268.544 144.9 265.498C141.908 263.97 140.019 263.891 129.331 264.84ZM205.43 269.617C204.765 271.35 204.804 271.388 207.26 271.388C209.033 271.388 209.436 271.133 209.09 270.229C208.846 269.592 208.646 268.932 208.646 268.764C208.646 267.876 205.808 268.629 205.43 269.617ZM265.895 270.802C264.641 272.058 264.745 277.251 266.026 277.251C266.58 277.251 267.444 276.756 267.945 276.152C268.447 275.547 269.475 275.052 270.231 275.052C271.754 275.052 272.01 273.513 270.848 271.34C270.001 269.756 267.24 269.456 265.895 270.802ZM266.481 273.22C266.481 273.825 266.775 274.32 267.135 274.32C267.494 274.32 267.978 273.825 268.21 273.22C268.466 272.551 268.211 272.121 267.556 272.121C266.965 272.121 266.481 272.616 266.481 273.22ZM327.178 278.899C326.282 280.21 324.53 282.434 323.285 283.844L321.022 286.408L323.469 284.211C326.703 281.307 330.491 276.518 329.552 276.518C329.143 276.518 328.075 277.589 327.178 278.899ZM270.056 283.205C268.348 285.035 268.092 285.705 268.783 286.538C270.034 288.047 272.333 287.444 274.029 285.162C275.249 283.52 275.341 282.987 274.562 282.047C273.218 280.427 272.468 280.62 270.056 283.205ZM326.925 283.631C326.529 284.675 326.612 284.759 327.335 284.041C327.836 283.544 328.061 282.952 327.835 282.727C327.61 282.502 327.201 282.908 326.925 283.631ZM453.588 285.908C452.887 290.666 454.216 309.574 456.095 321.584C456.851 326.42 457.621 331.367 457.805 332.576C459.046 340.733 461.261 352.277 461.657 352.649C462.284 353.239 461.376 344.719 460.048 337.564C459.464 334.417 458.335 325.578 457.54 317.92C456.744 310.263 455.941 303.593 455.756 303.099C455.572 302.605 455.369 298.978 455.307 295.038C455.244 291.099 454.96 286.557 454.677 284.945L454.161 282.014L453.588 285.908ZM271.21 283.895C270.944 284.324 270.903 284.852 271.117 285.067C271.642 285.592 273.07 284.667 273.07 283.802C273.07 282.866 271.806 282.928 271.21 283.895ZM324.261 287.326L322.486 289.342L324.499 287.565C325.606 286.588 326.513 285.681 326.513 285.55C326.513 284.975 325.92 285.443 324.261 287.326ZM236.267 286.487C235.973 286.781 235.754 287.873 235.779 288.914L235.826 290.807L236.533 289.038C237.294 287.132 237.137 285.617 236.267 286.487ZM280.076 287.73C279.745 288.456 279.638 292.742 279.84 297.256C280.2 305.325 280.173 305.498 278.285 307.559C276.437 309.576 276.418 309.687 277.764 310.49C281.621 312.791 281.855 313.444 281.855 321.95C281.855 326.836 282.143 330.011 282.587 330.011C283.556 330.011 283.51 319.362 282.511 312.791C282.082 309.969 281.495 302.88 281.205 297.036C280.881 290.495 280.447 286.918 280.076 287.73ZM313.926 289.543C311.682 291.045 307.983 294.488 305.707 297.196C303.431 299.903 300.974 302.541 300.247 303.058C297.424 305.064 296.596 309.493 299.044 309.493C299.553 309.493 302.675 306.214 305.98 302.206C309.285 298.199 312.21 294.819 312.479 294.695C313.35 294.297 318.633 287.439 318.315 287.121C318.146 286.951 316.171 288.042 313.926 289.543ZM94.6224 288.33C92.9752 288.806 92.2431 289.462 92.2431 290.462C92.2431 292.13 93.1187 292.287 95.1928 290.99C96.4329 290.215 97.1848 290.356 100.081 291.906C101.963 292.914 103.618 294.105 103.757 294.555C103.898 295.004 102.155 296.28 99.8847 297.393C97.0164 298.797 94.8399 300.601 92.7505 303.303C91.0967 305.443 89.5044 307.046 89.2123 306.865C88.9202 306.684 88.3206 304.811 87.8806 302.702C86.9875 298.428 85.6851 295.675 85.6653 298.022C85.6492 300.034 87.7474 306.873 88.8404 308.37C89.7108 309.561 90.1574 309.261 93.9994 304.907C96.5625 302.004 99.4001 299.625 101.264 298.818C107.814 295.982 107.93 294.624 102.008 290.098C98.3759 287.322 98.2295 287.287 94.6224 288.33ZM317.687 294.747C315.495 297.495 310.45 303.602 306.476 308.317C302.501 313.032 299.426 317.066 299.641 317.281C300.905 318.547 305.264 313.479 320.234 293.332C323.927 288.361 321.869 289.506 317.687 294.747ZM310.612 299.063C306.55 303.792 302.045 308.878 300.6 310.366C298.83 312.19 298.128 313.472 298.446 314.302C298.872 315.412 299.034 315.387 300.087 314.05C300.73 313.232 305.161 307.731 309.934 301.824C314.708 295.916 318.474 290.944 318.305 290.774C318.135 290.605 314.674 294.335 310.612 299.063ZM230.067 296.729C230.266 297.77 229.851 300.985 229.144 303.874C225.51 318.748 222.563 345.344 223.616 353.777C224.077 357.468 224.294 357.857 225.903 357.857C227.533 357.857 227.682 357.569 227.695 354.376C227.715 349.584 230.154 329.48 232.06 318.401C232.5 315.843 233.337 310.125 233.921 305.694C235.108 296.683 234.713 294.837 231.595 294.837C229.958 294.837 229.754 295.09 230.067 296.729ZM299.974 295.789C298.867 296.228 297.961 297.017 297.961 297.544C297.961 299.001 299.549 298.647 301.988 296.647C304.288 294.759 303.465 294.409 299.974 295.789ZM299.236 300.059C298.535 300.451 297.961 301.324 297.961 301.998C297.961 303.028 298.218 302.966 299.567 301.616C301.365 299.817 301.184 298.967 299.236 300.059ZM207.269 303.631C205.631 306.549 205.63 306.562 207.135 306.562C207.966 306.562 208.658 306.479 208.674 306.379C209.296 302.256 209.442 300.7 209.207 300.7C209.046 300.7 208.175 302.019 207.269 303.631ZM244.884 311.153C240.596 312.577 240.393 313.095 239.851 323.977C239.576 329.512 239.148 334.997 238.9 336.166C238.605 337.555 238.714 338.126 239.215 337.816C239.636 337.555 240.399 333.811 240.91 329.496C241.679 323.003 242.124 321.385 243.491 320.117C245.215 318.517 248.393 311.156 247.559 310.691C247.296 310.544 246.092 310.752 244.884 311.153ZM111.278 311.691C111.278 312.094 111.607 312.424 112.01 312.424C112.412 312.424 112.742 312.094 112.742 311.691C112.742 311.288 112.412 310.959 112.01 310.959C111.607 310.959 111.278 311.288 111.278 311.691ZM421.014 315.474C420.852 326.431 430.602 355.111 440.902 373.978C446.112 383.521 451.801 393.278 454.146 396.693C461.949 408.056 482.295 432.998 483.103 432.19C483.294 431.998 482.3 430.61 480.893 429.107C474.57 422.35 467.429 412.947 459.619 401.091C448.021 383.486 442.485 374.032 435.59 360.055C432.312 353.409 426.084 332.996 422.176 316.088L421.075 311.325L421.014 315.474ZM208.813 313.578C208.051 315.003 204.985 325.927 204.985 327.218C204.985 327.545 205.605 327.813 206.363 327.813C207.527 327.813 207.934 326.735 208.991 320.864C210.299 313.591 210.234 310.92 208.813 313.578ZM109.139 314.817C106.553 316.137 106.16 317.894 108.588 317.285C112.049 316.415 114.206 315.4 114.206 314.641C114.206 313.614 111.297 313.714 109.139 314.817ZM242.81 314.379C242.057 315.132 242.233 318.286 243.028 318.286C243.799 318.286 245.25 315.924 245.25 314.671C245.25 313.808 243.579 313.608 242.81 314.379ZM109.502 318.513C104.033 320.538 102.907 322.421 108.111 320.841C110.054 320.25 112.384 319.765 113.291 319.76C114.447 319.754 114.938 319.315 114.938 318.286C114.938 316.509 114.915 316.51 109.502 318.513ZM332.656 318.707C331.599 322.924 335.095 325.742 337.747 322.808C339.268 321.126 339.289 319.455 337.808 317.972C335.948 316.111 333.21 316.501 332.656 318.707ZM302.823 319.638C301.832 320.734 301.707 321.728 302.162 324.89C302.924 330.191 304.459 330.607 304.302 325.471C304.237 323.333 304.453 320.842 304.782 319.935C305.51 317.929 304.506 317.776 302.823 319.638ZM307.534 321.401C307.503 322.913 307.149 324.149 306.746 324.149C306.343 324.149 306.014 325.776 306.014 327.764C306.014 330.729 305.753 331.461 304.556 331.841C302.378 332.533 301.751 331.797 301.266 327.979C300.228 319.82 300.153 319.576 298.971 320.558C298.022 321.347 297.942 323.885 298.387 339.114C298.67 348.818 299.21 356.958 299.586 357.202C300.292 357.661 305.344 356.897 307.737 355.969C308.995 355.482 309.064 354.736 308.667 345.841C308.431 340.56 308.021 333.466 307.754 330.076C307.319 324.544 307.393 323.959 308.472 324.374C309.881 324.915 309.89 324.632 308.576 321.218L307.589 318.653L307.534 321.401ZM388.008 321.218C387.577 322.024 387.39 322.683 387.591 322.683C387.792 322.683 388.309 322.024 388.74 321.218C389.172 320.412 389.359 319.752 389.158 319.752C388.956 319.752 388.44 320.412 388.008 321.218ZM113.888 321.183C113.11 321.466 112.796 321.898 113.191 322.142C113.947 322.609 116.244 321.525 115.649 320.983C115.459 320.81 114.667 320.9 113.888 321.183ZM254.971 321.401C251.716 325.611 254.717 329.201 258.301 325.384C260.2 323.36 260.228 323.124 258.742 321.636C257.356 320.249 255.93 320.159 254.971 321.401ZM109.452 322.675C109.196 323.09 109.49 323.213 110.141 322.963C111.409 322.476 111.641 321.95 110.589 321.95C110.209 321.95 109.698 322.276 109.452 322.675ZM114.019 323.848C113.782 324.085 112.208 324.589 110.521 324.969C108.254 325.479 107.158 325.414 106.318 324.72C105.315 323.892 105.284 323.976 106.058 325.431C106.542 326.338 107.337 327.066 107.826 327.049C110.37 326.96 116.715 325.043 116.966 324.287C117.259 323.409 114.82 323.045 114.019 323.848ZM112.925 327.6C109.906 328.652 109.133 329.504 110.455 330.322C111.551 331 118.716 328.534 118.402 327.587C117.99 326.35 116.505 326.353 112.925 327.6ZM204.253 330.425C204.253 331.797 204.589 332.252 205.474 332.08C207.275 331.73 207.39 330.494 205.72 329.45C204.395 328.622 204.253 328.715 204.253 330.425ZM310.011 329.326C309.344 330.407 310.294 335.164 311.576 337.156C312.691 338.89 315.084 339.459 314.659 337.888C313.591 333.952 311.503 328.545 311.048 328.545C310.743 328.545 310.276 328.896 310.011 329.326ZM115.062 331.29C113.319 331.893 112.168 332.661 112.505 332.998C113.418 333.912 119.331 332.201 119.331 331.021C119.331 329.844 119.233 329.85 115.062 331.29ZM171.594 331.462C169.15 332.45 168.906 334.268 170.945 336.309C172.454 337.819 173.02 337.991 174.269 337.322C176.473 336.141 177.62 333.274 176.452 331.865C175.429 330.631 173.951 330.509 171.594 331.462ZM273.409 349.829C273.39 363.175 273.607 368.459 274.134 367.562C275.134 365.863 275.165 332.548 274.168 331.55C273.68 331.062 273.427 337.155 273.409 349.829ZM116.951 334.159C115.844 334.743 114.938 335.552 114.938 335.957C114.938 336.361 115.185 336.575 115.487 336.432C118.806 334.854 120.063 334.063 120.063 333.551C120.063 332.746 119.377 332.88 116.951 334.159ZM192.095 334.101C192.34 334.739 192.54 335.398 192.54 335.567C192.54 335.736 193.034 335.873 193.638 335.873C194.248 335.873 194.736 335.222 194.736 334.408C194.736 333.406 194.248 332.942 193.194 332.942C192.088 332.942 191.777 333.27 192.095 334.101ZM120.38 341.083C120.101 341.533 121.251 343.249 122.957 344.93L126.036 347.964L124.813 345.033C124.14 343.421 123.42 341.69 123.212 341.186C122.744 340.052 121.054 339.989 120.38 341.083ZM301.958 344.117C302.751 350.564 303.127 351.854 304.353 352.324C305.951 352.938 306.548 351.737 306.649 347.703C306.767 342.941 305.562 340.27 303.294 340.27C301.539 340.27 301.498 340.386 301.958 344.117ZM378.857 342.468C378.233 343.677 377.886 344.667 378.088 344.667C378.289 344.667 378.965 343.677 379.589 342.468C380.214 341.259 380.56 340.27 380.359 340.27C380.157 340.27 379.482 341.259 378.857 342.468ZM310.773 343.94C311.447 347.928 317.708 363.873 320.649 369.09C321.908 371.323 322.837 373.749 322.712 374.48C322.524 375.586 322.917 375.773 325.048 375.592C326.458 375.473 329.052 375.885 330.814 376.508C335.388 378.127 335.687 377.939 332.707 375.32C331.254 374.042 329.461 371.652 328.725 370.007C322.982 357.188 319.884 350.2 318.072 345.978C316.055 341.278 314.687 339.418 316.226 343.469C316.736 344.812 316.709 345.959 316.139 347.212C315.232 349.205 316.078 350.871 318.365 351.598C319.952 352.102 321.697 357.958 321.121 360.841C320.734 362.779 320.982 363.229 323.152 364.51C325.656 365.988 327.674 369.448 327.051 371.193C326.843 371.775 326.173 371.221 325.33 369.769C324.571 368.462 323.406 367.39 322.742 367.387C321.457 367.383 318.353 362.76 318.341 360.835C318.337 360.205 318.559 358.968 318.835 358.088C319.222 356.855 318.741 355.891 316.737 353.886C314.211 351.357 313.58 349.604 313.159 343.94C313.024 342.12 312.576 341.307 311.612 341.124C310.402 340.894 310.311 341.2 310.773 343.94ZM280.437 346.828C280.405 348.564 280.627 349.12 281.145 348.602C281.645 348.101 281.66 347.248 281.192 346.074C280.526 344.407 280.481 344.453 280.437 346.828ZM374.99 347.799C372.156 350.727 367.959 359.205 366.439 365.076C364.978 370.721 364.072 380.975 365.089 380.345C365.498 380.092 366.038 377.911 366.29 375.498C366.903 369.635 369.529 358.755 370.992 356.025C371.639 354.816 373.473 352.087 375.066 349.96C378.405 345.506 378.363 344.316 374.99 347.799ZM281.123 360.421C281.123 363.978 280.867 365.185 280.114 365.185C279.56 365.185 278.696 365.679 278.195 366.284C276.963 367.769 278.569 369.794 280.494 369.182C281.631 368.821 281.855 369.144 281.855 371.144C281.855 372.605 282.115 373.267 282.522 372.842C283.351 371.977 282.619 355.658 281.751 355.658C281.405 355.658 281.123 357.802 281.123 360.421ZM-20.1557 401.457C-20.1557 425.639 -20.0627 435.425 -19.95 423.205C-19.8372 410.984 -19.8379 391.199 -19.9507 379.238C-20.0634 367.277 -20.1557 377.275 -20.1557 401.457ZM508.94 364.898C508.009 368.481 506.325 373.721 505.196 376.543C503.024 381.976 500.74 389.574 496.605 405.121C494.845 411.74 493.851 417.524 493.347 424.075C492.949 429.26 492.771 433.651 492.952 433.832C493.133 434.013 493.654 431.75 494.11 428.801C496.889 410.808 500.011 396.646 503.529 386.069C507.371 374.514 511.073 361.326 510.865 359.932C510.738 359.08 509.872 361.315 508.94 364.898ZM139.243 367.529C138.156 368.618 138.11 370.07 139.143 370.709C140.083 371.291 142.757 369.017 142.757 367.636C142.757 366.413 140.429 366.342 139.243 367.529ZM30.0153 378.334C30.0153 378.715 30.7862 379.922 31.7284 381.019C33.8998 383.546 34.9591 382.205 32.8807 379.56C31.3631 377.629 30.0153 377.052 30.0153 378.334ZM24.8724 380.254C24.0312 382.47 23.9185 387.178 24.7077 387.145C25.01 387.133 26.4815 386.369 27.9779 385.447L30.6984 383.772L28.8667 381.073C26.7026 377.887 25.8395 377.709 24.8724 380.254ZM180.658 394.908C179.804 395.764 180.968 397.427 182.422 397.427C183.396 397.427 183.782 397.014 183.617 396.153C183.367 394.855 181.497 394.069 180.658 394.908ZM57.8268 402.74C57.0288 404.05 56.375 405.579 56.3736 406.14C56.3699 407.523 58.5757 409.099 60.5545 409.128C63.5686 409.171 64.8409 403.825 62.3526 401.571C60.4125 399.814 59.4593 400.06 57.8268 402.74ZM145.416 404.775C143.996 406.463 143.694 407.381 144.149 408.622C145.173 411.411 147.404 411.02 149.744 407.641C151.785 404.692 151.808 404.563 150.459 403.576C148.42 402.083 147.493 402.303 145.416 404.775ZM58.5362 404.425C57.7587 405.364 57.8063 405.773 58.8129 406.78C59.9088 407.877 60.1438 407.887 61.1563 406.874C62.3921 405.637 61.9023 403.289 60.4081 403.289C59.8971 403.289 59.0545 403.801 58.5362 404.425ZM146.967 405.043C145.386 406.624 145.302 408.419 146.807 408.419C148.091 408.419 148.851 406.893 148.493 405.033C148.261 403.827 148.181 403.828 146.967 405.043ZM346.645 411.35C348.668 412.22 349.94 412.22 349.94 411.35C349.94 410.947 348.869 410.641 347.56 410.668C345.566 410.712 345.418 410.822 346.645 411.35ZM1.06768 420.192C0.279944 421.468 1.17676 421.738 2.18119 420.527C2.75881 419.831 2.81445 419.41 2.32834 419.41C1.9008 419.41 1.33269 419.762 1.06768 420.192ZM230.321 431.561C229.676 433.244 229.797 437.202 230.528 438.358C231.42 439.766 231.815 438.672 232.011 434.249C232.174 430.569 231.259 429.114 230.321 431.561ZM420.637 433.251C420.416 433.609 421.747 434.129 423.594 434.406C429.615 435.31 446.931 442.478 452.066 446.193C455.628 448.769 461.918 451.929 462.442 451.405C463.048 450.798 463.897 451.384 453.165 445.003C443.6 439.314 437.228 436.466 428.654 434.044C423.015 432.451 421.239 432.275 420.637 433.251ZM414.73 435.139C413.522 435.692 413.047 436.172 413.675 436.205C414.302 436.237 415.455 435.78 416.237 435.189C418.002 433.852 417.568 433.838 414.73 435.139ZM486.167 436.997C487.235 439.24 487.573 439.656 487.573 438.725C487.573 438.332 487.06 437.37 486.434 436.588C485.36 435.247 485.346 435.27 486.167 436.997ZM4.02606 436.997C3.77715 437.4 3.90307 437.73 4.30572 437.73C4.70837 437.73 5.24133 437.4 5.49024 436.997C5.73915 436.594 5.61323 436.264 5.21058 436.264C4.80793 436.264 4.27497 436.594 4.02606 436.997ZM292.836 437.73C294.256 438.648 295.033 438.648 295.033 437.73C295.033 437.327 294.292 437.002 293.385 437.008C292.054 437.018 291.948 437.156 292.836 437.73ZM-5.12509 439.196C-5.72907 439.586 -5.89379 439.906 -5.49114 439.906C-5.08849 439.906 -4.26488 439.586 -3.66091 439.196C-3.05693 438.805 -2.89221 438.486 -3.29486 438.486C-3.69751 438.486 -4.52112 438.805 -5.12509 439.196ZM401.509 440.731C401.236 441.173 401.543 442.065 402.19 442.713C403.272 443.797 403.453 443.776 404.409 442.468C404.98 441.685 405.294 440.793 405.104 440.486C404.585 439.645 402.073 439.817 401.509 440.731ZM489.066 443.687C489.022 444.384 492.757 452.386 493.127 452.386C493.304 452.386 492.993 451.291 492.434 449.953C491.156 446.893 489.105 443.076 489.066 443.687ZM409.975 444.793C409.97 445.866 412.658 449.205 413.137 448.722C413.336 448.52 412.708 447.366 411.739 446.157C410.771 444.948 409.977 444.335 409.975 444.793ZM-20.253 450.92C-20.253 453.943 -20.1235 455.18 -19.9661 453.668C-19.8079 452.157 -19.8079 449.684 -19.9661 448.172C-20.1235 446.661 -20.253 447.897 -20.253 450.92ZM509.536 447.256C508.876 447.683 508.785 447.971 509.309 447.978C509.789 447.984 510.385 447.659 510.634 447.256C511.195 446.346 510.942 446.346 509.536 447.256ZM479.52 451.653C479.52 452.058 481.404 452.381 483.729 452.375C486.717 452.367 487.62 452.157 486.841 451.653C485.39 450.715 479.52 450.715 479.52 451.653ZM470.918 452.189C468.939 452.368 467.806 452.828 467.806 453.456C467.806 454.273 468.397 454.265 471.284 453.403C477.178 451.644 477.173 451.626 470.918 452.189ZM341.887 453.751C341.887 454.433 345.554 455.633 356.627 458.573C364.33 460.618 365.313 460.759 365.313 459.815C365.313 459.178 362.157 458.134 350.436 454.901C343.474 452.98 341.887 452.766 341.887 453.751ZM-20.1623 489.391C-20.1623 507.528 -20.0671 514.842 -19.9507 505.646C-19.8343 496.449 -19.8343 481.61 -19.9507 472.671C-20.0671 463.731 -20.1623 471.255 -20.1623 489.391ZM341.887 462.86C341.887 463.83 347.088 465.174 353.966 465.983C359.518 466.635 356.551 465.092 350.322 464.087C347.494 463.631 344.609 462.955 343.91 462.585C342.218 461.689 341.887 461.735 341.887 462.86ZM405.281 474.503C405.002 478.204 404.458 482.738 404.071 484.579C403.685 486.42 403.235 488.915 403.073 490.124C402.07 497.585 399.926 507.231 397.799 513.85C395.845 519.928 395.637 522 396.979 522C399.731 522 408.866 475.676 407.325 469.534C406.476 466.147 405.784 467.829 405.281 474.503ZM99.5641 469.24C99.5641 469.643 99.8935 469.972 100.296 469.972C100.699 469.972 101.028 469.643 101.028 469.24C101.028 468.837 100.699 468.507 100.296 468.507C99.8935 468.507 99.5641 468.837 99.5641 469.24ZM227.368 483.103C226.327 484.254 226.189 485.257 226.608 488.609C227.3 494.158 228.106 494.342 227.794 488.88C227.514 483.977 227.919 483.263 231.456 482.426L233.903 481.847L231.271 481.772C229.534 481.723 228.207 482.175 227.368 483.103ZM338.958 497.342C338.958 497.957 339.535 498.427 340.239 498.386C340.944 498.346 342.921 498.56 344.632 498.862C346.619 499.214 347.743 499.142 347.743 498.665C347.743 497.819 346.541 497.404 342.07 496.708C339.557 496.317 338.958 496.439 338.958 497.342ZM14.9847 499.32C14.2893 500.447 15.2417 501.174 16.1817 500.233C16.7074 499.707 16.7198 499.298 16.2198 498.988C15.8098 498.735 15.2542 498.884 14.9847 499.32ZM245.843 504.821C244.987 506.136 244.313 513.018 244.836 515.105C245.772 518.841 246.785 515.756 246.564 509.839C246.446 506.653 246.121 504.396 245.843 504.821Z" fill="#201B19"></path> </g> <rect x="1" y="1" width="510" height="510" stroke="#201B19" stroke-width="2"></rect> <defs> <clipPath id="clip0_1470_48"> <rect x="1" y="1" width="510" height="510" fill="white"></rect> </clipPath> </defs> </svg> 