<?xml version="1.0" encoding="UTF-8"?> <svg xmlns="http://www.w3.org/2000/svg" width="1660" height="52" viewBox="0 0 1660 52" fill="none"> <path d="M6.81492 50.7619C4.74979 50.7619 3.09769 50.1429 1.85862 48.9048C0.619538 47.6667 0 46.0159 0 43.9524V7.67619C0 5.77778 0.619538 4.25079 1.85862 3.09524C3.1803 1.85714 4.70849 1.2381 6.4432 1.2381H25.1533C26.5575 1.2381 27.5488 1.60953 28.127 2.35238C28.7879 3.0127 29.1183 3.87937 29.1183 4.95238C29.1183 5.94286 28.7466 6.80953 28.0031 7.55238C27.3423 8.29524 26.3923 8.66667 25.1533 8.66667H11.8951C9.7474 8.66667 8.67354 9.73968 8.67354 11.8857V18.6952C8.67354 20.8413 9.6648 21.9143 11.6473 21.9143H23.9142C25.3185 21.9143 26.3097 22.2857 26.888 23.0286C27.5488 23.7714 27.8792 24.6381 27.8792 25.6286C27.8792 26.5365 27.5075 27.4032 26.7641 28.2286C26.1032 28.9714 25.1533 29.3429 23.9142 29.3429H11.6473C9.6648 29.3429 8.67354 30.3746 8.67354 32.4381V39.9905C8.67354 42.1365 9.7061 43.2095 11.7712 43.2095H26.3923C27.7966 43.2095 28.7879 43.6222 29.3661 44.4476C30.027 45.1905 30.3574 46.0571 30.3574 47.0476C30.3574 48.0381 29.9857 48.9048 29.2422 49.6476C28.5814 50.3905 27.6314 50.7619 26.3923 50.7619H6.81492Z" fill="#201B19"></path> <path d="M61.6002 52C60.1959 52 58.8329 51.6286 57.5112 50.8857C56.2722 50.2254 55.4048 49.1936 54.9092 47.7905L40.0403 6.31428C39.875 5.65397 39.7924 5.11746 39.7924 4.70476C39.7924 3.46667 40.2055 2.47619 41.0315 1.73333C41.8576 0.990476 42.8075 0.619047 43.8814 0.619047C44.6248 0.619047 45.3683 0.784127 46.1117 1.11429C46.9378 1.44445 47.5573 2.06349 47.9703 2.97143L60.485 39.4952C60.7328 40.1556 61.1459 40.4857 61.7241 40.4857C62.3023 40.4857 62.7154 40.1556 62.9632 39.4952L76.2213 2.97143C76.6343 2.06349 77.2126 1.44445 77.956 1.11429C78.7821 0.784127 79.5668 0.619047 80.3103 0.619047C81.3841 0.619047 82.3341 0.990476 83.1601 1.73333C83.9862 2.47619 84.3992 3.46667 84.3992 4.70476C84.3992 5.11746 84.3166 5.65397 84.1514 6.31428L68.2912 47.7905C67.713 49.1936 66.8043 50.2254 65.5652 50.8857C64.3262 51.6286 63.0045 52 61.6002 52Z" fill="#201B19"></path> <path d="M117.277 52C112.486 52 108.108 50.8857 104.143 48.6571C100.26 46.346 97.1627 43.2508 94.8497 39.3714C92.5368 35.4095 91.3803 30.9524 91.3803 26C91.3803 20.8 92.5368 16.2603 94.8497 12.381C97.1627 8.50159 100.26 5.48889 104.143 3.34286C108.108 1.11429 112.486 0 117.277 0C122.068 0 126.364 1.11429 130.163 3.34286C134.046 5.48889 137.102 8.50159 139.333 12.381C141.646 16.2603 142.802 20.8 142.802 26C142.802 30.9524 141.646 35.4095 139.333 39.3714C137.102 43.2508 134.046 46.346 130.163 48.6571C126.364 50.8857 122.068 52 117.277 52ZM117.277 44.4476C120.581 44.4476 123.472 43.6222 125.951 41.9714C128.511 40.2381 130.494 37.9683 131.898 35.1619C133.302 32.3556 134.005 29.3016 134.005 26C134.005 20.7175 132.435 16.3429 129.296 12.8762C126.157 9.40952 122.151 7.67619 117.277 7.67619C112.321 7.67619 108.273 9.40952 105.134 12.8762C101.995 16.3429 100.426 20.7175 100.426 26C100.426 29.3016 101.128 32.3556 102.532 35.1619C103.936 37.9683 105.919 40.2381 108.48 41.9714C111.04 43.6222 113.973 44.4476 117.277 44.4476Z" fill="#201B19"></path> <path d="M160.853 50.7619C158.787 50.7619 157.135 50.1429 155.896 48.9048C154.657 47.6667 154.038 46.0159 154.038 43.9524V4.70476C154.038 3.30159 154.492 2.26984 155.401 1.60953C156.392 0.949206 157.424 0.619047 158.498 0.619047C159.572 0.619047 160.522 0.949206 161.348 1.60953C162.257 2.26984 162.711 3.30159 162.711 4.70476V39.8667C162.711 41.1048 162.959 41.9714 163.455 42.4667C163.95 42.8794 164.776 43.0857 165.933 43.0857H178.695C180.017 43.0857 180.967 43.4984 181.545 44.3238C182.206 45.1492 182.536 46.0159 182.536 46.9238C182.536 47.9143 182.206 48.8222 181.545 49.6476C180.967 50.3905 180.017 50.7619 178.695 50.7619H160.853Z" fill="#201B19"></path> <path d="M227.951 4.70476C227.951 3.38413 228.405 2.39365 229.314 1.73333C230.223 0.990476 231.214 0.619047 232.288 0.619047C233.362 0.619047 234.312 0.949206 235.138 1.60953C236.046 2.26984 236.501 3.30159 236.501 4.70476V31.819C236.501 36.6889 235.468 40.6095 233.403 43.581C231.338 46.5524 228.695 48.6984 225.473 50.019C222.251 51.3397 218.865 52 215.313 52C211.347 52 207.754 51.3397 204.533 50.019C201.394 48.6984 198.915 46.5524 197.098 43.581C195.281 40.527 194.372 36.5651 194.372 31.6952V4.70476C194.372 3.30159 194.826 2.31111 195.735 1.73333C196.644 1.07302 197.635 0.742859 198.709 0.742859C199.783 0.742859 200.733 1.07302 201.559 1.73333C202.467 2.31111 202.922 3.30159 202.922 4.70476V31.6952C202.922 36.0698 203.996 39.2889 206.143 41.3524C208.374 43.3333 211.43 44.3238 215.313 44.3238C218.782 44.3238 221.756 43.3333 224.234 41.3524C226.712 39.2889 227.951 36.1111 227.951 31.819V4.70476Z" fill="#201B19"></path> <path d="M265.064 52C263.742 52 262.668 51.6286 261.842 50.8857C261.099 50.1429 260.727 49.1936 260.727 48.0381V12.0095C260.727 9.94603 259.653 8.91428 257.506 8.91428H249.699C247.139 8.91428 245.858 7.63492 245.858 5.07619C245.858 2.51746 247.139 1.2381 249.699 1.2381H280.305C281.461 1.2381 282.411 1.60953 283.155 2.35238C283.898 3.0127 284.27 3.92064 284.27 5.07619C284.27 6.23175 283.898 7.18095 283.155 7.92381C282.411 8.58413 281.461 8.91428 280.305 8.91428H272.622C270.475 8.91428 269.401 9.94603 269.401 12.0095V48.0381C269.401 49.1936 268.988 50.1429 268.162 50.8857C267.418 51.6286 266.386 52 265.064 52Z" fill="#201B19"></path> <path d="M298.632 52C297.558 52 296.567 51.6286 295.658 50.8857C294.75 50.2254 294.295 49.2349 294.295 47.9143V4.70476C294.295 3.30159 294.75 2.26984 295.658 1.60953C296.567 0.949206 297.558 0.619047 298.632 0.619047C299.789 0.619047 300.78 0.949206 301.606 1.60953C302.514 2.26984 302.969 3.30159 302.969 4.70476V47.9143C302.969 49.2349 302.514 50.2254 301.606 50.8857C300.78 51.6286 299.789 52 298.632 52Z" fill="#201B19"></path> <path d="M340.73 52C335.939 52 331.561 50.8857 327.596 48.6571C323.714 46.346 320.616 43.2508 318.303 39.3714C315.99 35.4095 314.834 30.9524 314.834 26C314.834 20.8 315.99 16.2603 318.303 12.381C320.616 8.50159 323.714 5.48889 327.596 3.34286C331.561 1.11429 335.939 0 340.73 0C345.521 0 349.817 1.11429 353.617 3.34286C357.499 5.48889 360.556 8.50159 362.786 12.381C365.099 16.2603 366.255 20.8 366.255 26C366.255 30.9524 365.099 35.4095 362.786 39.3714C360.556 43.2508 357.499 46.346 353.617 48.6571C349.817 50.8857 345.521 52 340.73 52ZM340.73 44.4476C344.035 44.4476 346.926 43.6222 349.404 41.9714C351.965 40.2381 353.947 37.9683 355.351 35.1619C356.756 32.3556 357.458 29.3016 357.458 26C357.458 20.7175 355.888 16.3429 352.749 12.8762C349.61 9.40952 345.604 7.67619 340.73 7.67619C335.774 7.67619 331.726 9.40952 328.587 12.8762C325.448 16.3429 323.879 20.7175 323.879 26C323.879 29.3016 324.581 32.3556 325.985 35.1619C327.39 37.9683 329.372 40.2381 331.933 41.9714C334.494 43.6222 337.426 44.4476 340.73 44.4476Z" fill="#201B19"></path> <path d="M381.828 52C380.754 52 379.763 51.6698 378.854 51.0095C377.945 50.3492 377.491 49.3587 377.491 48.0381V6.31428C377.491 4.41587 378.069 3.0127 379.226 2.10476C380.465 1.11429 381.786 0.619047 383.191 0.619047C385.338 0.619047 386.908 1.44444 387.899 3.09524L408.344 35.1619C408.757 35.8222 409.211 36.1524 409.707 36.1524C410.45 36.1524 410.822 35.5746 410.822 34.419L410.326 4.58095C410.326 3.26032 410.781 2.26984 411.689 1.60953C412.598 0.949206 413.589 0.619047 414.663 0.619047C415.737 0.619047 416.728 0.949206 417.637 1.60953C418.546 2.26984 419 3.26032 419 4.58095V46.5524C419 48.3682 418.463 49.7302 417.389 50.6381C416.315 51.546 415.076 52 413.672 52C412.681 52 411.689 51.7524 410.698 51.2571C409.79 50.8444 409.005 50.1429 408.344 49.1524L388.271 17.9524C387.858 17.2921 387.404 16.9619 386.908 16.9619C386.164 16.9619 385.793 17.5397 385.793 18.6952L386.164 48.0381C386.164 49.3587 385.71 50.3492 384.801 51.0095C383.975 51.6698 382.984 52 381.828 52Z" fill="#201B19"></path> <path d="M869.061 21.7847L878.661 2.22568L892.755 2.15824L911.861 49.3697H895.498L884.147 21.3126L869.061 52L853.974 21.3126L842.624 49.3697H826.26L845.367 2.15824L859.46 2.22568L869.061 21.7847Z" fill="#201B19"></path> <path d="M942.78 51.393C940.478 51.438 938.082 51.2356 935.591 50.786C933.1 50.3813 930.657 49.7294 928.261 48.8301C925.896 47.8859 923.642 46.7168 921.498 45.323C919.385 43.9291 917.525 42.2879 915.917 40.3995C914.309 38.4661 913.032 36.2853 912.086 33.8573C911.172 31.4293 910.715 28.7315 910.715 25.7639C910.715 22.7964 911.172 20.0986 912.086 17.6706C913.001 15.1976 914.262 13.0169 915.87 11.1284C917.478 9.19499 919.338 7.53135 921.451 6.13748C923.594 4.74362 925.849 3.59706 928.213 2.6978C930.61 1.79853 933.053 1.14657 935.544 0.741896C938.035 0.292264 940.447 0.0899294 942.78 0.134892C945.113 0.0899294 947.525 0.292264 950.016 0.741896C952.538 1.14657 954.981 1.79853 957.346 2.6978C959.742 3.59706 961.996 4.74362 964.109 6.13748C966.253 7.53135 968.129 9.19499 969.737 11.1284C971.345 13.0169 972.606 15.1976 973.52 17.6706C974.466 20.0986 974.939 22.7964 974.939 25.7639C974.939 28.7315 974.466 31.4293 973.52 33.8573C972.606 36.2853 971.329 38.4661 969.69 40.3995C968.082 42.2879 966.206 43.9291 964.062 45.323C961.949 46.7168 959.695 47.8859 957.299 48.8301C954.934 49.7294 952.491 50.3813 949.968 50.786C947.477 51.2356 945.081 51.438 942.78 51.393ZM927.504 25.7639C927.504 27.7873 927.898 29.5633 928.686 31.0921C929.506 32.5759 930.61 33.8124 931.997 34.8016C933.416 35.7458 935.039 36.4652 936.868 36.9598C938.728 37.4544 940.699 37.7017 942.78 37.7017C944.861 37.7017 946.831 37.4544 948.691 36.9598C950.552 36.4652 952.175 35.7458 953.563 34.8016C954.981 33.8124 956.101 32.5759 956.92 31.0921C957.74 29.5633 958.15 27.7873 958.15 25.7639C958.15 23.7406 957.74 21.987 956.92 20.5032C956.101 18.9745 954.981 17.738 953.563 16.7938C952.175 15.8046 950.552 15.0627 948.691 14.5681C946.831 14.0735 944.861 13.8262 942.78 13.8262C940.699 13.8262 938.728 14.0735 936.868 14.5681C935.039 15.0627 933.416 15.8046 931.997 16.7938C930.61 17.738 929.506 18.9745 928.686 20.5032C927.898 21.987 927.504 23.7406 927.504 25.7639Z" fill="#201B19"></path> <path d="M1017.38 2.15824C1022.24 2.15824 1026.32 2.85517 1029.63 4.24903C1032.97 5.64289 1035.67 7.80113 1037.72 10.7237C1039.8 13.6014 1041.3 17.2884 1042.21 21.7847C1043.12 26.281 1043.58 31.6541 1043.58 37.904V49.3697H1029.39V37.904C1029.39 33.5875 1029.05 29.9905 1028.35 27.1128C1027.66 24.2352 1026.59 21.9645 1025.14 20.3009C1023.69 18.5923 1021.84 17.4008 1019.6 16.7263C1017.4 16.0069 1014.76 15.6472 1011.71 15.6472H994.113V49.3697H979.925V2.15824H1017.38Z" fill="#201B19"></path> <path d="M1079.68 51.393C1077.38 51.438 1074.98 51.2356 1072.49 50.786C1070 50.3813 1067.56 49.7294 1065.16 48.8301C1062.8 47.8859 1060.54 46.7168 1058.4 45.323C1056.29 43.9291 1054.43 42.2879 1052.82 40.3995C1051.21 38.4661 1049.93 36.2853 1048.99 33.8573C1048.07 31.4293 1047.62 28.7315 1047.62 25.7639C1047.62 22.7964 1048.07 20.0986 1048.99 17.6706C1049.9 15.1976 1051.16 13.0169 1052.77 11.1284C1054.38 9.19499 1056.24 7.53135 1058.35 6.13748C1060.5 4.74362 1062.75 3.59706 1065.11 2.6978C1067.51 1.79853 1069.95 1.14657 1072.44 0.741896C1074.94 0.292264 1077.35 0.0899294 1079.68 0.134892C1082.01 0.0899294 1084.43 0.292264 1086.92 0.741896C1089.44 1.14657 1091.88 1.79853 1094.25 2.6978C1096.64 3.59706 1098.9 4.74362 1101.01 6.13748C1103.15 7.53135 1105.03 9.19499 1106.64 11.1284C1108.25 13.0169 1109.51 15.1976 1110.42 17.6706C1111.37 20.0986 1111.84 22.7964 1111.84 25.7639C1111.84 28.7315 1111.37 31.4293 1110.42 33.8573C1109.51 36.2853 1108.23 38.4661 1106.59 40.3995C1104.98 42.2879 1103.11 43.9291 1100.96 45.323C1098.85 46.7168 1096.6 47.8859 1094.2 48.8301C1091.83 49.7294 1089.39 50.3813 1086.87 50.786C1084.38 51.2356 1081.98 51.438 1079.68 51.393ZM1064.4 25.7639C1064.4 27.7873 1064.8 29.5633 1065.59 31.0921C1066.41 32.5759 1067.51 33.8124 1068.9 34.8016C1070.32 35.7458 1071.94 36.4652 1073.77 36.9598C1075.63 37.4544 1077.6 37.7017 1079.68 37.7017C1081.76 37.7017 1083.73 37.4544 1085.59 36.9598C1087.45 36.4652 1089.08 35.7458 1090.46 34.8016C1091.88 33.8124 1093 32.5759 1093.82 31.0921C1094.64 29.5633 1095.05 27.7873 1095.05 25.7639C1095.05 23.7406 1094.64 21.987 1093.82 20.5032C1093 18.9745 1091.88 17.738 1090.46 16.7938C1089.08 15.8046 1087.45 15.0627 1085.59 14.5681C1083.73 14.0735 1081.76 13.8262 1079.68 13.8262C1077.6 13.8262 1075.63 14.0735 1073.77 14.5681C1071.94 15.0627 1070.32 15.8046 1068.9 16.7938C1067.51 17.738 1066.41 18.9745 1065.59 20.5032C1064.8 21.987 1064.4 23.7406 1064.4 25.7639Z" fill="#201B19"></path> <path d="M1131.77 25.7639C1131.77 28.102 1132.19 30.0579 1133.05 31.6316C1133.9 33.1604 1135.05 34.3969 1136.5 35.3411C1137.98 36.2404 1139.68 36.8923 1141.61 37.297C1143.53 37.6567 1145.56 37.8366 1147.71 37.8366C1150.17 37.8366 1152.67 37.6342 1155.23 37.2296C1157.78 36.8249 1160.19 36.3528 1162.46 35.8132C1164.73 35.2287 1166.77 34.6217 1168.56 33.9922C1170.36 33.3627 1171.72 32.8232 1172.63 32.3735V45.5253C1171.46 46.3796 1170 47.1665 1168.23 47.8859C1166.5 48.6053 1164.54 49.2348 1162.37 49.7743C1160.22 50.3139 1157.92 50.741 1155.46 51.0558C1153 51.3705 1150.5 51.5279 1147.94 51.5279C1145.33 51.5279 1142.69 51.348 1140.04 50.9883C1137.43 50.6286 1134.91 50.0441 1132.48 49.2348C1130.08 48.3805 1127.83 47.3013 1125.72 45.9974C1123.63 44.6485 1121.81 43.0298 1120.23 41.1414C1118.65 39.208 1117.39 36.9823 1116.45 34.4643C1115.53 31.9014 1115.04 29.0013 1114.98 25.7639C1115.07 22.5266 1115.58 19.6489 1116.49 17.131C1117.41 14.5681 1118.65 12.3424 1120.23 10.454C1121.81 8.52054 1123.63 6.90186 1125.72 5.59792C1127.83 4.24903 1130.08 3.16991 1132.48 2.36057C1134.91 1.50627 1137.43 0.899267 1140.04 0.53956C1142.69 0.179853 1145.33 0 1147.94 0C1150.5 0 1153 0.157372 1155.46 0.472116C1157.92 0.786857 1160.22 1.21401 1162.37 1.75357C1164.54 2.29313 1166.5 2.92261 1168.23 3.64202C1170 4.36144 1171.46 5.14829 1172.63 6.0026V19.1543C1171.72 18.7047 1170.36 18.1652 1168.56 17.5357C1166.77 16.9062 1164.73 16.3217 1162.46 15.7821C1160.19 15.1976 1157.78 14.703 1155.23 14.2983C1152.67 13.8936 1150.17 13.6913 1147.71 13.6913C1145.56 13.6913 1143.53 13.8936 1141.61 14.2983C1139.68 14.658 1137.98 15.31 1136.5 16.2542C1135.05 17.1535 1133.9 18.39 1133.05 19.9637C1132.19 21.4924 1131.77 23.4259 1131.77 25.7639Z" fill="#201B19"></path> <path d="M1177.59 2.15824H1191.78V35.8807H1231.03V49.3697H1177.59V2.15824Z" fill="#201B19"></path> <path d="M1250.64 35.8807H1292.26V49.3697H1236.45V2.15824H1289.9V15.6472H1250.64V19.0195H1283.27V32.5084H1250.64V35.8807Z" fill="#201B19"></path> <path d="M506.52 48.5565C506.307 49.5708 505.32 50.078 503.56 50.078C502.12 50.078 501.08 49.7577 500.44 49.117C500.173 48.2094 499.8 47.115 499.32 45.8337C498.84 44.499 498.28 42.9774 497.64 41.269C497.32 39.1869 497 37.7187 496.68 36.8645C496.413 36.0103 496.067 35.3696 495.64 34.9425C494.84 34.9959 493.693 35.1027 492.2 35.2628C490.707 35.3696 489.133 35.5298 487.48 35.7433C485.827 35.9035 484.28 36.1437 482.84 36.4641C481.4 36.731 480.36 37.0246 479.72 37.345C479.453 38.6797 479.133 40.1478 478.76 41.7495C478.387 43.3511 477.933 45.0595 477.4 46.8747C477.24 47.4086 476.867 47.7823 476.28 47.9959C475.693 48.2628 474.973 48.3963 474.12 48.3963C473.267 48.3963 472.52 48.2361 471.88 47.9158C471.293 47.6489 471 47.2218 471 46.6345C471 45.5667 471.64 42.3901 472.92 37.1047C472.867 36.8912 472.84 36.5708 472.84 36.1437C472.84 35.4497 472.92 34.5955 473.08 33.5811C473.293 32.5133 473.507 31.499 473.72 30.538C473.933 29.577 474.12 28.7495 474.28 28.0554C474.493 27.3614 474.6 26.9877 474.6 26.9343L477.16 19.807C477.267 19.1129 477.533 18.1786 477.96 17.0041C478.44 15.8296 478.947 14.6283 479.48 13.4004C480.013 12.1725 480.52 11.0246 481 9.95688C481.48 8.83573 481.8 7.98152 481.96 7.39425C482.44 5.63244 483.72 4.75154 485.8 4.75154C487.507 4.75154 488.6 5.3922 489.08 6.67351C489.08 6.67351 489.24 6.96715 489.56 7.55441C489.88 8.14168 490.307 8.88912 490.84 9.79671C491.373 10.7043 491.933 11.7187 492.52 12.8398C493.16 13.9076 493.747 14.9487 494.28 15.963C494.813 16.924 495.267 17.8049 495.64 18.6057C496.013 19.3532 496.227 19.8604 496.28 20.1273C496.707 21.1417 497.24 22.3162 497.88 23.6509C498.52 24.9322 499.293 26.3737 500.2 27.9754C500.733 28.6694 501.213 29.6037 501.64 30.7782C502.12 31.8994 502.547 33.0472 502.92 34.2218C503.293 35.3963 503.613 36.4641 503.88 37.4251C504.147 38.386 504.387 39.0267 504.6 39.347C504.6 39.7207 504.707 40.308 504.92 41.1088C505.187 41.8563 505.427 42.6571 505.64 43.5113C505.907 44.3655 506.147 45.1663 506.36 45.9138C506.573 46.6612 506.68 47.1951 506.68 47.5154C506.68 47.7823 506.627 48.1294 506.52 48.5565ZM492.52 28.3758C492.093 27.0945 491.693 26 491.32 25.0924C491 24.1848 490.6 23.2772 490.12 22.3696C489.693 21.462 489.187 20.4476 488.6 19.3265C488.013 18.1519 487.267 16.6571 486.36 14.8419C485.133 17.0842 484.253 19.6735 483.72 22.6099C482.6 24.7988 481.8 27.1211 481.32 29.577C482.973 29.0965 484.307 28.8563 485.32 28.8563C485.693 28.8563 485.96 28.883 486.12 28.9363C487.027 28.7228 488.12 28.616 489.4 28.616C490.68 28.616 491.72 28.5359 492.52 28.3758Z" fill="#201B19"></path> <path d="M547.731 44.9528C547.731 45.9138 547.304 46.8214 546.451 47.6756C545.597 48.4764 544.744 48.8768 543.891 48.8768C543.464 48.8768 543.117 48.7433 542.851 48.4764C542.797 48.4764 542.557 48.2094 542.131 47.6756C541.704 47.1417 541.197 46.4743 540.611 45.6735C540.024 44.8727 539.384 44.0185 538.691 43.1109C537.997 42.2033 537.357 41.3491 536.771 40.5483C536.184 39.7474 535.704 39.1068 535.331 38.6263C535.011 38.0924 534.877 37.8522 534.931 37.9055C534.824 37.5852 534.557 37.078 534.131 36.384C533.704 35.6899 533.224 34.9692 532.691 34.2218C532.211 33.4209 531.757 32.7002 531.331 32.0595C530.904 31.3655 530.664 30.9384 530.611 30.7782C530.504 30.7782 530.211 30.8316 529.731 30.9384C529.251 30.9918 528.717 31.0719 528.131 31.1786C527.544 31.232 526.931 31.3121 526.291 31.4189C525.704 31.4723 525.251 31.499 524.931 31.499H524.531C524.371 33.154 524.237 34.5154 524.131 35.5832C524.024 36.6509 523.971 37.4517 523.971 37.9856V40.4682C523.971 43.3511 523.731 46.4743 523.251 49.8378C522.611 50.7988 521.677 51.2793 520.451 51.2793C519.384 51.2793 518.451 50.9856 517.651 50.3984C516.904 49.8645 516.531 48.9035 516.531 47.5154C516.531 47.0883 516.531 46.5811 516.531 45.9938C516.584 45.3532 516.611 44.7125 516.611 44.0719C516.664 43.4312 516.691 42.8706 516.691 42.3901C516.744 41.8563 516.771 41.5092 516.771 41.3491V40.9487L517.331 28.8563C517.384 28.1622 517.384 27.308 517.331 26.2936C517.331 25.2793 517.384 24.1047 517.491 22.77L518.131 17.9651C518.451 16.3101 518.611 14.8953 518.611 13.7207C518.611 13.347 518.584 13 518.531 12.6797C518.531 12.306 518.504 11.9322 518.451 11.5585C518.451 11.5585 518.531 10.6242 518.691 8.75565C518.744 7.47433 518.984 6.43327 519.411 5.63244C519.837 4.83162 520.851 4.43121 522.451 4.43121C523.571 4.43121 524.691 4.61807 525.811 4.99179C526.877 4.88501 527.811 4.83162 528.611 4.83162C529.464 4.83162 530.184 4.83162 530.771 4.83162C531.304 4.83162 531.784 4.85832 532.211 4.91171C532.637 4.91171 533.064 4.96509 533.491 5.07187C533.917 5.12525 534.397 5.23203 534.931 5.3922C535.464 5.49897 536.104 5.65914 536.851 5.87269L540.371 8.27515C542.344 9.82341 543.651 11.3717 544.291 12.9199C544.984 14.4682 545.331 16.0965 545.331 17.8049C545.331 18.9795 545.277 19.9938 545.171 20.848C545.117 21.6489 544.851 22.4497 544.371 23.2505C543.891 24.0513 543.144 24.8788 542.131 25.7331C541.117 26.5873 539.677 27.655 537.811 28.9363C539.037 30.4846 540.424 32.7803 541.971 35.8234C542.931 36.5708 544.851 39.614 547.731 44.9528ZM537.891 19.4066C537.944 19.193 537.971 18.8994 537.971 18.5257C537.971 17.9918 537.917 17.4579 537.811 16.924C537.704 16.3368 537.464 15.7762 537.091 15.2423C536.717 14.655 536.157 14.0945 535.411 13.5606C534.717 12.9733 533.731 12.4127 532.451 11.8788C531.331 11.4517 530.397 11.2382 529.651 11.2382C529.437 11.2916 529.144 11.345 528.771 11.3984C528.451 11.5051 528.051 11.6119 527.571 11.7187C527.091 11.7721 526.557 11.8522 525.971 11.9589C526.024 12.2793 526.051 12.5996 526.051 12.9199C526.051 13.1869 525.997 13.7207 525.891 14.5216C525.837 15.3224 525.731 16.4702 525.571 17.9651C525.411 19.46 525.224 21.5421 525.011 24.2115C525.224 24.2649 525.437 24.2916 525.651 24.2916C525.864 24.2916 526.077 24.2916 526.291 24.2916C527.304 24.2916 528.424 24.1581 529.651 23.8912C530.931 23.5708 532.131 23.1971 533.251 22.77C534.371 22.2895 535.357 21.7556 536.211 21.1684C537.064 20.5811 537.624 19.9938 537.891 19.4066Z" fill="#201B19"></path> <path d="M586.586 14.5216C585.84 14.8419 585.013 15.0021 584.106 15.0021C583.84 15.0021 583.44 14.9754 582.906 14.922C582.426 14.8686 581.893 14.8152 581.306 14.7618C580.72 14.655 580.133 14.5749 579.546 14.5216C579.013 14.4148 578.613 14.3614 578.346 14.3614C576.64 14.3614 574.986 14.6016 573.386 15.0821C573.706 17.1109 573.973 19.0862 574.186 21.0082C574.4 22.9302 574.586 24.7454 574.746 26.4538C574.906 28.1088 575.013 29.6304 575.066 31.0185C575.12 32.3532 575.146 33.501 575.146 34.462C575.146 36.8645 575.12 38.9466 575.066 40.7084C575.066 42.4168 574.933 43.8583 574.666 45.0329C574.4 46.154 573.973 46.9815 573.386 47.5154C572.8 48.0493 571.946 48.3162 570.826 48.3162C569.76 48.3162 568.96 48.0493 568.426 47.5154C567.946 46.9281 567.6 46.2608 567.386 45.5133C567.226 44.7125 567.146 43.885 567.146 43.0308C567.2 42.1766 567.226 41.4559 567.226 40.8686C567.226 39.8542 567.306 38.9466 567.466 38.1458C567.626 37.2916 567.706 36.4908 567.706 35.7433C567.706 35.3696 567.6 34.0349 567.386 31.7392C567.173 29.3901 567.066 26.4538 567.066 22.9302C567.066 21.7556 566.933 20.6078 566.666 19.4867C566.453 18.3121 566.213 17.191 565.946 16.1232L561.226 16.4435C559.306 16.6037 557.973 16.8973 557.226 17.3244C556.106 17.3244 555.146 17.0041 554.346 16.3635C553.546 15.7228 553.146 14.8953 553.146 13.8809C553.146 12.8665 553.6 11.7454 554.506 10.5175C554.773 10.4641 555.973 10.2772 558.106 9.95688C560.24 9.58316 563.306 9.02259 567.306 8.27515L571.306 7.79466C572.586 7.6345 573.813 7.55441 574.986 7.55441H576.186L585.626 8.19507C586.746 8.83573 587.306 10.037 587.306 11.7988C587.306 12.7598 587.066 13.6674 586.586 14.5216Z" fill="#201B19"></path> <path d="M628.691 37.0246C628.531 37.6653 628.131 38.4394 627.491 39.347C626.904 40.2546 626.157 41.1889 625.251 42.1499C624.344 43.0575 623.357 43.885 622.291 44.6324C621.277 45.3799 620.291 45.9138 619.331 46.2341C616.557 47.462 613.437 48.076 609.971 48.076C608.851 48.076 607.864 48.0493 607.011 47.9959C606.211 47.9425 605.411 47.7823 604.611 47.5154C603.811 47.2485 603.011 46.8214 602.211 46.2341C601.411 45.6468 600.504 44.7926 599.491 43.6715C598.371 42.4969 597.491 41.3491 596.851 40.2279C596.211 39.0534 595.731 37.9322 595.411 36.8645C595.091 35.7967 594.877 34.7823 594.771 33.8214C594.664 32.807 594.611 31.8994 594.611 31.0986C594.611 29.3368 594.824 27.2546 595.251 24.8522C595.677 22.4497 596.824 19.5133 598.691 16.0431C599.384 14.7618 599.917 13.7474 600.291 13C600.664 12.2526 600.877 11.7454 600.931 11.4784L605.891 8.43532C607.597 7.42094 609.224 6.62012 610.771 6.03285C612.317 5.3922 614.024 5.07187 615.891 5.07187C616.424 5.07187 617.224 5.07187 618.291 5.07187C619.357 5.07187 620.397 5.20534 621.411 5.47228C622.477 5.68583 623.411 6.11294 624.211 6.75359C625.011 7.34086 625.411 8.22177 625.411 9.3963C625.411 11.3717 624.237 12.5195 621.891 12.8398C621.944 12.8398 621.784 12.8131 621.411 12.7598C621.037 12.7064 620.531 12.653 619.891 12.5996C619.251 12.5462 618.531 12.4928 617.731 12.4394C616.931 12.386 616.131 12.3593 615.331 12.3593C613.944 12.3593 612.531 12.7598 611.091 13.5606C609.704 14.308 607.997 15.616 605.971 17.4846C604.904 19.7269 604.104 21.4887 603.571 22.77C603.091 23.9979 602.851 24.8255 602.851 25.2526C602.264 26.3203 601.971 27.8953 601.971 29.9774C601.971 33.8214 602.664 36.5975 604.051 38.306C605.437 39.961 607.331 40.7885 609.731 40.7885C611.277 40.7885 613.677 40.3614 616.931 39.5072C618.904 38.3326 620.611 36.4641 622.051 33.9014C622.957 32.9938 623.891 32.54 624.851 32.54C625.864 32.54 626.771 32.9405 627.571 33.7413C628.371 34.5421 628.771 35.4497 628.771 36.4641C628.771 36.5708 628.744 36.6776 628.691 36.7844C628.691 36.8378 628.691 36.9179 628.691 37.0246Z" fill="#201B19"></path> <path d="M663.001 37.9856C664.547 38.306 665.321 39.5072 665.321 41.5893C665.321 42.7105 665.054 43.5914 664.521 44.232C663.987 44.8727 663.294 45.193 662.441 45.193C662.174 45.193 661.667 45.1663 660.921 45.1129C660.174 45.0062 659.374 44.9261 658.521 44.8727C657.667 44.7659 656.841 44.6858 656.041 44.6324C655.241 44.5257 654.681 44.4723 654.361 44.4723C654.041 44.4723 653.747 44.4723 653.481 44.4723C653.214 44.4723 652.947 44.499 652.681 44.5524C651.774 44.499 650.707 44.3922 649.481 44.232C648.307 44.0185 647.134 43.8049 645.961 43.5914C644.841 43.3244 643.827 43.0575 642.921 42.7906C642.067 42.5236 641.561 42.2834 641.401 42.0698C640.867 40.4682 640.601 38.3326 640.601 35.6632C640.601 35.2361 640.601 34.809 640.601 34.3819C640.601 33.9014 640.627 33.4209 640.681 32.9405L641.161 27.2546C641.214 26.8275 641.241 26.4271 641.241 26.0534C641.241 25.6263 641.241 25.2526 641.241 24.9322C641.241 24.5051 641.241 24.1581 641.241 23.8912C641.241 23.5708 641.187 23.2772 641.081 23.0103C641.454 20.9815 641.721 19.2998 641.881 17.9651C642.041 16.577 642.121 15.5092 642.121 14.7618V14.1211C642.121 13.3737 642.441 10.9979 643.081 6.99384C643.881 5.28542 645.107 4.43121 646.761 4.43121C647.774 4.43121 648.627 4.83162 649.321 5.63244C650.014 6.37988 650.361 7.42094 650.361 8.75565C650.147 9.50308 649.934 10.4374 649.721 11.5585C649.561 12.6797 649.401 14.0144 649.241 15.5626V16.2033C649.241 16.6838 649.187 17.4312 649.081 18.4456C649.027 19.4066 648.947 20.4209 648.841 21.4887C648.734 22.5031 648.627 23.4374 648.521 24.2916C648.467 25.0924 648.441 25.5462 648.441 25.653C648.441 26.2402 648.467 26.614 648.521 26.7741C648.307 29.0164 648.147 30.885 648.041 32.3799C647.934 33.8747 647.881 35.0226 647.881 35.8234C647.881 36.3573 647.907 36.7043 647.961 36.8645C650.734 37.1848 652.574 37.345 653.481 37.345C653.907 37.345 654.334 37.345 654.761 37.345C655.241 37.2916 655.721 37.2649 656.201 37.2649C658.227 37.2649 660.494 37.5051 663.001 37.9856Z" fill="#201B19"></path> <path d="M708.142 21.4086C707.715 25.1458 707.342 28.4025 707.022 31.1786C706.702 33.9548 706.089 36.1971 705.182 37.9055C704.222 39.6674 703.182 41.1088 702.062 42.23C700.942 43.3511 699.795 44.232 698.622 44.8727C697.449 45.5133 696.275 45.9671 695.102 46.2341C693.982 46.4476 692.915 46.5544 691.902 46.5544C690.302 46.5544 688.889 46.3942 687.662 46.0739C686.435 45.7002 685.289 45.1129 684.222 44.3121C683.209 43.4579 682.249 42.3368 681.342 40.9487C680.435 39.5072 679.502 37.692 678.542 35.5031C677.582 31.6591 676.995 28.3224 676.782 25.4928C676.569 22.6632 676.462 19.9138 676.462 17.2444C676.462 16.3368 676.435 15.3224 676.382 14.2012C676.382 13.0267 676.462 11.9322 676.622 10.9179C676.835 9.8501 677.209 8.9692 677.742 8.27515C678.329 7.52772 679.182 7.154 680.302 7.154C682.382 7.154 683.742 8.27515 684.382 10.5175C684.222 11.4784 684.142 13.1335 684.142 15.4825C684.142 16.23 684.142 17.0041 684.142 17.8049C684.142 18.6057 684.169 19.4867 684.222 20.4476C684.275 22.8501 684.302 24.5585 684.302 25.5729C684.302 26.5339 684.329 27.2546 684.382 27.7351C684.435 28.1622 684.515 28.5893 684.622 29.0164C684.729 29.3901 684.915 30.191 685.182 31.4189C685.715 33.0205 686.169 34.2752 686.542 35.1828C686.915 36.037 687.315 36.731 687.742 37.2649C688.169 37.7454 688.702 38.1191 689.342 38.386C690.035 38.5996 690.915 38.8398 691.982 39.1068C693.529 38.7331 694.809 38.1725 695.822 37.4251C696.889 36.6776 697.715 35.7433 698.302 34.6222C698.942 33.4476 699.395 32.0862 699.662 30.538C699.929 28.9897 700.115 27.2546 700.222 25.3326C700.222 23.9446 700.249 22.6099 700.302 21.3285C700.409 20.0472 700.515 18.8727 700.622 17.8049C700.569 16.7372 700.542 15.8029 700.542 15.0021C700.542 14.1478 700.542 13.4271 700.542 12.8398C700.542 12.1992 700.515 11.6386 700.462 11.1581V12.039C700.462 10.0637 700.675 8.30185 701.102 6.75359C702.222 6.11294 703.315 5.79261 704.382 5.79261C705.342 5.79261 706.089 6.00616 706.622 6.43327C707.155 6.80698 707.555 7.31417 707.822 7.95483C708.089 8.54209 708.249 9.23614 708.302 10.037C708.355 10.7844 708.382 11.5318 708.382 12.2793C708.382 12.5996 708.355 13.0801 708.302 13.7207C708.249 14.308 708.195 14.9754 708.142 15.7228C708.142 16.4168 708.115 17.0842 708.062 17.7248C708.009 18.3655 707.982 18.846 707.982 19.1663C707.982 19.5934 707.982 19.9938 707.982 20.3676C708.035 20.6879 708.089 21.0349 708.142 21.4086Z" fill="#201B19"></path> <path d="M756.632 33.5811V34.1417C756.632 36.0103 755.912 38.0657 754.472 40.308C753.032 42.4969 750.579 44.6057 747.112 46.6345C745.779 47.4353 744.552 48.0493 743.432 48.4764C742.312 48.9569 741.165 49.3573 739.992 49.6776C738.872 50.0513 737.672 50.3984 736.392 50.7187C735.112 51.039 733.672 51.4661 732.072 52H727.992C726.712 51.8932 725.752 51.653 725.112 51.2793C724.472 50.9589 724.019 50.5051 723.752 49.9179C723.485 49.384 723.352 48.7166 723.352 47.9158C723.352 47.115 723.352 46.1807 723.352 45.1129C723.352 44.7926 723.352 44.4723 723.352 44.1519C723.352 43.8316 723.379 43.4846 723.432 43.1109C723.379 42.8439 723.352 42.5503 723.352 42.23C723.352 41.9096 723.352 41.5359 723.352 41.1088C723.352 37.4784 723.459 34.6489 723.672 32.6201C723.939 30.5914 724.072 29.0164 724.072 27.8953C724.072 27.2546 724.045 26.5606 723.992 25.8131C723.992 25.0657 723.992 24.2382 723.992 23.3306C724.099 21.8891 724.232 20.2608 724.392 18.4456C724.552 16.6304 724.685 14.6016 724.792 12.3593C724.739 11.9322 724.605 11.3717 724.392 10.6776C724.179 9.93018 723.939 9.20945 723.672 8.5154C723.459 7.76797 723.245 7.12731 723.032 6.59343C722.872 6.00616 722.792 5.71253 722.792 5.71253C722.792 4.85831 723.325 4.0308 724.392 3.22998C725.512 2.42916 727.059 1.97536 729.032 1.86858C731.752 0.640659 734.285 0.0266958 736.632 0.0266958C736.845 0.0266958 737.165 0.0266958 737.592 0.0266958C738.019 -0.0266948 738.552 -1.05907e-06 739.192 0.106777C739.832 0.213552 740.579 0.453798 741.432 0.827516C742.339 1.14784 743.325 1.68172 744.392 2.42916L747.672 5.07187L748.872 7.6345C749.352 8.75565 749.592 9.8768 749.592 10.9979C749.592 13.5606 748.632 15.9897 746.712 18.2854C750.339 19.8337 752.552 21.0883 753.352 22.0493C753.779 22.6365 754.205 23.4107 754.632 24.3717C755.059 25.3326 755.405 26.5339 755.672 27.9754L756.632 33.5811ZM741.912 9.71663C741.859 9.55647 741.699 9.31622 741.432 8.99589C741.219 8.62218 740.899 8.27515 740.472 7.95483C740.045 7.58111 739.539 7.28748 738.952 7.07392C738.365 6.80698 737.699 6.67351 736.952 6.67351C734.659 6.67351 732.979 7.12731 731.912 8.03491C731.805 8.40862 731.752 8.83573 731.752 9.31622C731.752 9.79671 731.752 10.3573 731.752 10.9979C731.752 11.6386 731.699 12.4127 731.592 13.3203C731.539 14.1745 731.379 15.1889 731.112 16.3635C730.792 17.6448 730.632 18.4456 730.632 18.7659C733.992 18.1786 736.739 17.191 738.872 15.8029C741.005 14.4148 742.072 12.8932 742.072 11.2382C742.072 10.9713 742.045 10.731 741.992 10.5175C741.992 10.2505 741.965 9.98357 741.912 9.71663ZM748.952 35.423C749.165 34.7823 749.272 34.0349 749.272 33.1807C749.272 31.5791 749.005 30.191 748.472 29.0164C747.939 27.7885 747.219 26.8008 746.312 26.0534C745.459 25.306 744.445 24.7454 743.272 24.3717C742.099 23.9979 740.872 23.8111 739.592 23.8111C739.059 23.8111 738.365 23.9179 737.512 24.1314C736.712 24.345 735.859 24.5852 734.952 24.8522C734.099 25.1191 733.299 25.386 732.552 25.653C731.859 25.8665 731.379 26 731.112 26.0534V27.8953C731.112 29.3368 731.085 30.6181 731.032 31.7392C730.979 32.807 730.925 33.9548 730.872 35.1828C730.819 36.3573 730.765 37.692 730.712 39.1869C730.659 40.6817 730.605 42.5236 730.552 44.7125H730.952C732.179 44.7125 733.725 44.3922 735.592 43.7515L741.592 41.5893C742.232 41.3758 742.952 41.0287 743.752 40.5483C744.552 40.0144 745.299 39.4538 745.992 38.8665C746.685 38.2259 747.299 37.6119 747.832 37.0246C748.419 36.4374 748.792 35.9035 748.952 35.423Z" fill="#201B19"></path> <path d="M1369.32 51.4182V5.67273H1359V0.509089H1385.88V5.67273H1375.56V51.4182H1369.32Z" fill="#201B19"></path> <path d="M1396.46 28.5091V51.4182H1390.22V0.509089H1396.46V23.4182H1410.22V0.509089H1416.46V51.4182H1410.22V28.5091H1396.46Z" fill="#201B19"></path> <path d="M1442.8 23.0545V28.1455H1429.12V46.2545H1445.92V51.4182H1422.88V0.509089H1445.92V5.67273H1429.12V23.0545H1442.8Z" fill="#201B19"></path> <path d="M1469.65 51.4182H1464.05V0.509089H1471.97L1484.93 37.3091V0.509089H1490.45V51.4182H1483.97L1469.65 10.2545V51.4182Z" fill="#201B19"></path> <path d="M1516.78 23.0545V28.1455H1503.1V46.2545H1519.9V51.4182H1496.86V0.509089H1519.9V5.67273H1503.1V23.0545H1516.78Z" fill="#201B19"></path> <path d="M1540.57 51.4182H1532.01L1524.33 0.509089H1530.41L1536.97 43.8545L1543.21 0.581815H1549.37L1555.53 43.9273L1561.85 0.509089H1567.29L1559.69 51.4182H1551.45L1546.09 16.8727L1540.57 51.4182Z" fill="#201B19"></path> <path d="M1584.09 0C1588.36 0 1591.51 1.16364 1593.53 3.49091C1595.56 5.76969 1596.57 8.84848 1596.57 12.7273V14.1091H1590.65V12.4364C1590.65 10.1091 1590.15 8.31515 1589.13 7.05455C1588.12 5.79394 1586.49 5.16363 1584.25 5.16363C1582.01 5.16363 1580.39 5.79394 1579.37 7.05455C1578.36 8.31515 1577.85 10.0848 1577.85 12.3636C1577.85 14.2545 1578.31 15.903 1579.21 17.3091C1580.17 18.7152 1581.35 20.0242 1582.73 21.2364C1584.12 22.4 1585.61 23.5636 1587.21 24.7273C1588.87 25.8424 1590.39 27.0788 1591.77 28.4364C1593.16 29.7939 1594.31 31.3455 1595.21 33.0909C1596.17 34.7879 1596.65 36.8242 1596.65 39.2C1596.65 43.0788 1595.61 46.1818 1593.53 48.5091C1591.51 50.7879 1588.33 51.9273 1584.01 51.9273C1579.69 51.9273 1576.52 50.7879 1574.49 48.5091C1572.47 46.1818 1571.45 43.0788 1571.45 39.2V36.2909H1577.29V39.4909C1577.29 41.8182 1577.83 43.6121 1578.89 44.8727C1579.96 46.1333 1581.61 46.7636 1583.85 46.7636C1586.09 46.7636 1587.75 46.1333 1588.81 44.8727C1589.88 43.6121 1590.41 41.8182 1590.41 39.4909C1590.41 37.6 1589.93 35.9758 1588.97 34.6182C1588.07 33.2121 1586.92 31.9273 1585.53 30.7636C1584.15 29.5515 1582.65 28.3879 1581.05 27.2727C1579.45 26.1091 1577.96 24.8485 1576.57 23.4909C1575.19 22.1333 1574.01 20.6061 1573.05 18.9091C1572.15 17.1636 1571.69 15.103 1571.69 12.7273C1571.69 8.8 1572.71 5.69697 1574.73 3.41818C1576.76 1.13939 1579.88 0 1584.09 0Z" fill="#201B19"></path> <path d="M1608.02 39.4182C1608.02 41.7455 1608.52 43.5636 1609.54 44.8727C1610.6 46.1333 1612.28 46.7636 1614.58 46.7636C1616.82 46.7636 1618.44 46.1333 1619.46 44.8727C1620.52 43.5636 1621.06 41.7455 1621.06 39.4182V0.509089H1626.9V39.1273C1626.9 43.0061 1625.88 46.1333 1623.86 48.5091C1621.83 50.8364 1618.66 52 1614.34 52C1610.07 52 1606.92 50.8364 1604.9 48.5091C1602.87 46.1333 1601.86 43.0061 1601.86 39.1273V0.509089H1608.02V39.4182Z" fill="#201B19"></path> <path d="M1638.55 51.4182H1632.95V0.509089H1640.88L1653.83 37.3091V0.509089H1659.36V51.4182H1652.88L1638.55 10.2545V51.4182Z" fill="#201B19"></path> </svg> 