<?xml version="1.0" encoding="UTF-8"?> <svg xmlns="http://www.w3.org/2000/svg" width="199" height="216" viewBox="0 0 199 216" fill="none"> <path fill-rule="evenodd" clip-rule="evenodd" d="M33.7989 0.86174C31.727 1.1068 30.8156 4.32824 32.2448 6.35429C33.3307 7.89357 34.2078 10.6585 34.2078 12.5417C34.2078 15.0148 33.4543 17.2069 31.5708 20.2153C29.5299 23.474 28.9118 25.2342 28.6561 28.5144C28.3034 33.0321 29.5305 37.3017 32.4116 41.5817C33.8139 43.6653 33.7463 43.6975 28.6301 43.3896C26.1119 43.2383 21.9191 43.1143 19.3131 43.1143C14.679 43.1143 14.5565 43.1331 13.727 43.9712C12.424 45.2869 12.4496 47.9396 13.7773 49.1817C14.9668 50.2944 16.2934 50.5858 21.3873 50.8531C23.7683 50.9781 26.016 51.122 26.3823 51.1724C26.7486 51.2232 28.4506 51.2837 30.1646 51.3072L33.2811 51.3503L33.0516 52.2727C32.9254 52.7803 32.2488 54.0624 31.5475 55.1223C30.8465 56.1823 30.018 57.7232 29.7064 58.5465C29.0394 60.31 29.2964 60.2394 21.5685 60.7894C16.1039 61.1783 14.4789 61.6563 13.4173 63.1862C12.5765 64.3981 12.7573 66.1676 13.8582 67.4988L14.8203 68.6626H17.9375C19.6517 68.6626 22.7776 68.5302 24.8838 68.3681L28.7133 68.074L29.3194 70.217C29.6527 71.3959 30.4399 73.1924 31.069 74.2093C33.34 77.8805 34.007 79.609 34.0896 82.0395C34.1865 84.8807 33.6894 86.5686 31.9684 89.2441C31.2282 90.3952 30.1962 92.3617 29.675 93.6142C28.8052 95.7058 28.73 96.2208 28.7519 99.9257C28.7723 103.386 28.8961 104.283 29.6207 106.233C30.0853 107.484 30.3331 108.59 30.1712 108.691C30.0094 108.792 29.1655 108.77 28.2961 108.641C27.0543 108.457 26.4476 108.126 25.4666 107.094C24.7799 106.371 24.2125 105.597 24.2058 105.374C24.1992 105.151 23.8475 104.541 23.4243 104.018C21.7786 101.988 18.6244 102.703 17.2528 105.417C16.416 107.073 14.8585 108.412 13.4689 108.671C12.8788 108.781 11.384 108.632 10.1469 108.34C8.15225 107.87 7.78962 107.866 6.94513 108.307C6.42132 108.581 5.73269 109.357 5.415 110.033C4.87455 111.183 4.87221 111.389 5.37871 113.211C6.26781 116.41 5.35006 118.83 2.73934 120.167C1.16192 120.974 0.26848 121.963 0.0493657 123.142C-0.226025 124.624 0.681076 126.46 2.01574 127.124C3.53655 127.88 4.41198 128.673 5.20452 130.012C5.97975 131.323 6.08265 132.525 5.54053 133.94C4.93847 135.512 4.89919 136.76 5.42 137.777C6.10665 139.116 7.68237 139.88 9.19353 139.605C13.8489 138.756 15.2645 139.115 16.7909 141.535C18.4303 144.134 19.2189 144.803 20.6391 144.803C22.4293 144.803 23.0237 144.397 24.2415 142.342C25.433 140.331 26.9897 139.089 28.3177 139.089C28.9817 139.089 29.2128 139.257 29.2128 139.741C29.2128 140.1 29.8322 141.575 30.5895 143.019C31.3464 144.462 32.4213 146.522 32.9777 147.596C34.1562 149.869 34.4809 152.428 33.8908 154.799C33.4016 156.764 32.6231 158.534 31.8545 159.426C31.0849 160.321 30.1549 162.076 29.3617 164.133C28.8459 165.47 28.7147 166.637 28.7203 169.847C28.7266 173.52 28.8136 174.092 29.6903 176.234C30.9021 179.196 31.7913 180.577 32.9221 181.251C34.2684 182.054 35.4632 181.91 36.5475 180.816C38.0586 179.29 38.0989 178.442 36.7766 176.007C35.1995 173.102 34.7996 171.237 35.1769 168.547C35.5209 166.096 36.1386 164.552 37.7509 162.116C39.3264 159.736 40.2488 156.841 40.4519 153.642C40.685 149.966 40.1086 147.209 38.4639 144.131C35.2964 138.203 35.5378 138.859 36.1013 137.72C36.4236 137.068 36.5308 136.303 36.3953 135.622C35.4795 131.015 35.8692 129.391 38.2261 127.995C40.6241 126.575 41.5338 125.514 41.5338 124.138C41.5338 123.468 41.2964 122.456 41.006 121.889C40.6331 121.161 40.4576 119.759 40.4083 117.115C40.3287 112.848 39.9021 111.34 37.7939 107.874C35.5039 104.109 35.09 102.905 35.1196 100.094C35.1506 97.1261 35.7286 95.333 37.5784 92.4672C41.5814 86.2647 41.5811 79.2937 37.5768 72.5886C36.8395 71.3536 36.01 69.7941 35.7333 69.1225L35.2308 67.9015L36.3011 67.6827C36.8898 67.5623 38.9447 67.3885 40.8678 67.2968C42.7909 67.205 44.8315 67.0557 45.4026 66.965C46.4266 66.8023 46.4442 66.8235 46.6613 68.4764C46.7915 69.467 47.5072 71.361 48.4103 73.1057C52.1156 80.2632 51.9797 79.9008 51.9281 82.4869C51.8721 85.2734 51.1365 87.4121 49.2561 90.253C45.3553 96.1469 45.4339 103.801 49.4605 110.179C51.4156 113.275 51.8418 114.505 51.8475 117.07C51.8548 120.175 51.4139 121.666 49.7116 124.297C47.0356 128.433 45.9281 132.844 46.5252 136.988C47.0067 140.328 47.3537 141.328 49.062 144.299C51.4306 148.418 51.5218 148.634 51.7919 150.737C52.0916 153.071 51.7216 155.931 50.9577 157.182C50.656 157.677 49.9361 158.838 49.358 159.763C45.4845 165.959 45.335 173.193 48.9564 179.185C50.5894 181.887 52.8282 182.533 54.5465 180.799C55.7969 179.536 55.8628 177.825 54.7193 176.296C52.1705 172.889 52.3503 166.791 55.1172 162.788C56.2341 161.172 57.7216 157.644 58.1645 155.561C58.8102 152.522 58.0053 146.87 56.5901 144.502C53.4279 139.213 52.8608 137.738 52.8578 134.794C52.8551 132.54 53.7106 130.088 55.5947 126.946C57.7639 123.329 58.335 121.373 58.331 117.574C58.327 113.745 57.688 111.357 55.8611 108.343C53.679 104.744 53.1688 103.509 52.9681 101.34C52.7017 98.4614 53.5068 95.5041 55.3467 92.6014C57.4619 89.2636 58.2524 86.6079 58.306 82.6611C58.36 78.7098 57.7569 76.6216 55.4399 72.7325C53.9274 70.1942 52.5884 66.9714 52.9111 66.646C53.1838 66.3707 60.7053 65.7595 62.5128 65.8657C63.8611 65.9451 64.349 66.1064 64.3626 66.4775C64.4402 68.6236 65.4103 71.1102 67.5887 74.7495C70.6327 79.8346 70.5341 84.036 67.257 88.8868C66.4875 90.026 65.4619 92.1439 64.9777 93.5931C64.1891 95.9546 64.1155 96.5768 64.2687 99.5895C64.4648 103.441 65.0399 105.242 67.3646 109.281C69.274 112.599 69.8388 114.186 69.8388 116.236C69.8388 118.284 68.715 121.974 67.7206 123.189C66.7719 124.349 65.3739 127.042 64.7885 128.836C64.5248 129.644 64.3546 131.722 64.3613 134.046C64.371 137.426 64.4842 138.198 65.2604 140.184C65.7489 141.435 66.5837 143.099 67.1155 143.882C70.6124 149.036 70.6903 153.412 67.3766 158.586C65.6793 161.237 65.366 161.911 64.698 164.353C63.3546 169.262 64.5258 175.045 67.8578 179.952C70.636 184.044 70.3503 189.691 67.1568 193.81C65.9384 195.382 64.4565 199.635 64.2747 202.082C63.8268 208.105 66.5734 215.001 69.652 215.584C72.6826 216.158 74.5814 212.568 72.5061 210.187C71.5498 209.09 70.7759 206.145 70.7985 203.69C70.8232 201.047 71.4099 199.155 72.9454 196.767C75.016 193.547 75.908 191.004 76.0885 187.807C76.3636 182.941 75.7386 180.751 72.4385 175.012C70.7442 172.065 70.2897 169.17 71.0446 166.135C71.3476 164.918 71.9504 163.394 72.3846 162.748C75.024 158.822 76.1558 155.392 76.1618 151.304C76.1668 147.807 75.4392 145.424 73.0719 141.188C70.7915 137.108 70.3226 135.249 70.8368 132.326C71.2307 130.084 71.927 128.479 73.9307 125.191C76.964 120.212 76.9021 112.962 73.7795 107.489C71.0066 102.63 70.8378 102.167 70.8378 99.4275C70.8378 96.2521 71.4206 94.2002 72.969 91.921C73.621 90.9619 74.5621 89.1937 75.0606 87.9919C75.8851 86.0045 75.9667 85.427 75.961 81.6048C75.9537 76.7416 75.5974 75.5301 72.8398 70.9905C71.7712 69.2317 71.0949 67.6924 70.9627 66.7192L70.7562 65.1981L73.3776 64.9215C74.8195 64.7695 77.348 64.6414 78.996 64.6367L81.993 64.6287L82.2148 66.6456C82.4938 69.1813 83.5421 72.0336 84.8794 73.8973C86.3017 75.8793 87.1371 77.9 87.5161 80.2753C87.9427 82.9498 87.291 85.1947 84.935 89.1685C82.673 92.9833 82.0562 95.0665 82.1029 98.7343C82.1605 103.286 82.5534 104.642 85.1018 109.086C88.7059 115.371 88.5754 118.222 84.3676 125.131C82.4242 128.322 81.6686 132.267 82.1918 136.488C82.4918 138.908 82.7176 139.444 86.5604 146.858C87.3919 148.461 87.5361 149.117 87.5251 151.234C87.5098 154.247 87.0369 155.693 85.0559 158.784C82.8874 162.168 82.0722 164.8 82.0459 168.503C82.0186 172.336 82.8664 175.245 85.1102 179.014C87.2367 182.585 87.4892 183.378 87.4805 186.453C87.4725 189.237 86.985 190.68 85.0299 193.706C81.0836 199.815 80.9657 207.279 84.7206 213.305C86.3623 215.94 88.4512 216.494 90.1775 214.751C91.4289 213.488 91.4775 211.879 90.3166 210.153C87.8411 206.47 87.939 200.854 90.5431 197.162C91.6876 195.539 93.2097 192.148 93.6749 190.185C94.6276 186.165 93.612 180.391 91.3363 176.89C89.336 173.812 88.7269 172.296 88.5627 169.99C88.3569 167.096 89.0889 164.572 91.1391 161.107C93.0862 157.817 93.7649 155.788 94.0036 152.544C94.2447 149.261 93.4998 145.989 91.8201 142.954C89.1775 138.18 88.6873 136.962 88.5474 134.82C88.3842 132.318 89.3443 128.762 90.6627 126.987C92.1545 124.978 93.0736 122.851 93.6493 120.076C94.628 115.356 93.7542 111.051 90.8231 106.154C89.0033 103.113 88.5185 101.705 88.5055 99.4214C88.4898 96.7046 89.2321 94.3464 90.9637 91.6144C95.246 84.8576 95.0579 77.2156 90.4475 70.6796C89.3869 69.1759 88.4958 66.5357 88.4905 64.8808C88.4871 63.8511 88.5587 63.7852 89.7356 63.7355C90.4225 63.7066 91.3589 63.644 91.8168 63.5963C92.2747 63.5489 94.2394 63.4128 96.1831 63.2944L99.7166 63.079L99.8957 65.3665C100.146 68.5644 101.193 71.6276 102.964 74.3481C106.278 79.4373 106.315 83.8074 103.085 88.5462C102.436 89.4979 101.478 91.3132 100.956 92.5802C100.089 94.6852 100.008 95.2298 100.019 98.9172C100.034 103.59 100.488 105.133 103.155 109.566C105.553 113.551 106.054 116.857 104.776 120.263C104.395 121.28 103.745 122.566 103.331 123.121C102.153 124.703 100.866 127.506 100.275 129.779C99.1878 133.956 100.177 139.883 102.545 143.385C105.11 147.179 105.974 150.968 105.02 154.239C104.727 155.243 103.749 157.311 102.846 158.835C100.736 162.398 100.131 164.183 99.9124 167.494C99.6054 172.142 100.016 173.51 103.982 181.039C106.207 185.262 105.851 189.306 102.855 193.846C101.287 196.221 100.56 197.933 100.139 200.232C99.4095 204.228 99.8684 207.677 101.653 211.608C103.021 214.623 104.136 215.738 105.768 215.722C107.231 215.709 108.235 214.917 108.804 213.326C109.207 212.201 109.167 212.01 108.149 210.214C106.532 207.361 106.091 205.314 106.486 202.503C106.849 199.919 107.653 197.836 108.95 196.119C109.422 195.495 110.212 194.017 110.705 192.836C111.521 190.879 111.601 190.303 111.604 186.319C111.608 182.184 111.555 181.832 110.619 179.764C110.075 178.562 108.956 176.448 108.132 175.065L106.635 172.551V169.014C106.635 165.192 106.892 164.361 109.15 160.866C110.771 158.358 111.533 155.771 111.717 152.149C111.856 149.434 111.762 148.505 111.139 146.435C110.41 144.012 109.393 141.94 107.944 139.929C106.849 138.41 106.393 136.598 106.433 133.936C106.478 130.93 106.827 129.844 108.829 126.482C111.223 122.462 111.92 119.918 111.717 115.935C111.516 112.012 110.659 109.288 108.651 106.195C106.907 103.507 106.473 102.046 106.471 98.8456C106.469 96.2834 107.302 93.4828 108.449 92.194C109.364 91.1666 111.07 87.3021 111.498 85.2872C112.051 82.6859 111.706 77.8432 110.793 75.3858C110.382 74.2765 109.534 72.6428 108.911 71.7553C107.41 69.6176 106.537 67.3042 106.467 65.2758C106.37 62.4718 106.384 62.4295 107.385 62.4695C108.327 62.5071 113.217 62.217 116.459 61.931C117.466 61.8422 120.613 61.618 123.452 61.4328C126.291 61.2472 130.636 60.9443 133.109 60.7594C137.49 60.4317 142.606 60.0619 151.757 59.4114C154.229 59.2356 156.927 59.1647 157.751 59.2538C158.575 59.3428 160.823 59.4911 162.746 59.5835C166.618 59.7691 168.409 59.8767 179.562 60.593C190.809 61.3151 194.137 61.5091 194.877 61.4859C196.044 61.4489 197.956 60.3843 198.325 59.5661C198.932 58.2217 199.153 55.5469 198.723 54.7374C198.421 54.1676 198.422 53.8856 198.725 53.5165C199.364 52.7396 198.809 49.4025 197.886 48.471C196.986 47.5634 194.697 46.8655 193.437 47.1149C192.34 47.3321 190.183 47.5385 184.391 47.9809C179.459 48.3577 174.308 48.7685 166.409 49.415C158.86 50.0328 144.159 49.9165 137.271 49.184C136.539 49.106 133.467 48.9477 130.445 48.8321C127.423 48.7164 123.677 48.5366 122.12 48.432C118.363 48.1799 117.083 48.1177 114.211 48.0475L111.797 47.9886V46.3535C111.797 42.7926 110.233 38.0641 108.394 36.0609C105.245 32.6338 100.983 36.5063 103.607 40.4099C104.645 41.9549 105.47 44.5974 105.47 46.3804V47.6757L103.888 47.4958C102.21 47.3049 97.4831 47.0275 95.3966 46.998C94.3003 46.9822 94.1478 46.8803 94.1478 46.1616C94.1478 44.5396 93.1218 40.468 92.2883 38.7835C90.7199 35.6125 88.8068 34.1804 87.0433 34.8571C84.8002 35.718 84.2051 37.9804 85.6433 40.1799C86.6893 41.7797 87.4878 44.0686 87.4878 45.4671V46.5589L82.9091 46.4013C76.1935 46.17 76.4918 46.3105 75.7985 43.0561C74.5258 37.0845 71.8005 33.846 69.0309 35.0145C67.8002 35.5335 67.5834 35.793 67.1725 37.2402C66.9431 38.047 67.0809 38.5979 67.9011 40.149C68.8488 41.9421 70.014 45.2422 69.7782 45.4664C69.6237 45.6133 58.5232 45.0892 58.4143 44.9299C58.364 44.8556 57.9717 43.6605 57.5431 42.2739C57.1146 40.8872 56.039 38.6107 55.1535 37.215C53.2711 34.2477 52.681 31.9967 52.9894 28.9585C53.2354 26.5351 53.5272 25.7687 55.341 22.7788C57.4918 19.234 58.2478 16.7286 58.2824 13.0278C58.349 5.90989 54.7496 -0.376011 51.3537 0.927289C49.1692 1.76568 48.5904 4.05292 50.0124 6.22756C51.3064 8.20688 51.9114 10.3109 51.9194 12.8597C51.9274 15.5345 51.3979 17.0221 49.2351 20.3991C47.2025 23.5725 46.4329 26.2921 46.4772 30.1438C46.5275 34.486 47.0889 36.3167 49.6923 40.6263C50.5604 42.0638 51.1265 43.1802 51.3387 43.8737L51.5708 44.6334L47.3014 44.4566C40.7646 44.186 40.2414 44.0824 40.006 43.0097C39.7193 41.7051 38.3091 38.6874 37.2405 37.0923C34.2521 32.6324 34.3983 27.2464 37.6367 22.4938C39.4449 19.8398 40.2558 17.3434 40.4509 13.8262C40.6441 10.3469 40.2501 8.16788 38.8788 5.12797C37.2777 1.57944 36.0993 0.589449 33.7989 0.86174ZM33.4772 2.6908C32.5848 3.40514 32.6191 4.05225 33.6407 5.79794C35.1086 8.30638 35.5402 9.82786 35.5362 12.4819C35.5318 15.4871 34.8708 17.7159 33.2824 20.0845C31.678 22.477 31.0713 23.8041 30.3847 26.4245C29.2821 30.6339 30.4206 36.0129 33.3367 40.3672C34.1822 41.6298 34.8738 42.9334 34.8738 43.2645C34.8738 43.7648 35.1832 43.8733 36.7053 43.909C38.0543 43.9402 38.5368 43.8303 38.5368 43.4911C38.5368 42.487 37.4596 40.0445 36.0873 37.9374C34.1765 35.003 33.8119 33.7498 33.7972 30.0672C33.7829 26.5365 34.2332 25.0936 36.3144 21.9956C37.8725 19.6767 39.2028 15.3957 39.2028 12.702C39.2028 8.25865 36.5265 2.27059 34.5408 2.27059C34.2445 2.27059 33.7659 2.45985 33.4772 2.6908ZM51.2757 2.54658C50.5268 3.02696 50.7026 4.50506 51.7479 6.51363C54.4136 11.6351 53.9411 16.0774 50.1356 21.6782C48.3916 24.2448 47.7809 26.8262 47.967 30.8444C48.1082 33.8964 48.2747 34.6928 49.1951 36.7272C49.7809 38.0214 50.4715 39.3214 50.7299 39.6162C51.4918 40.4848 53.1882 44.0202 52.9944 44.3362C52.8968 44.4963 53.0127 44.6347 53.2524 44.6442C53.4922 44.6536 54.3477 44.746 55.1539 44.8495L56.6194 45.0375L56.4126 43.515C56.2131 42.0439 55.3157 40.1635 53.4729 37.3538C52.0896 35.2451 51.4156 32.3201 51.6077 29.2607C51.7815 26.4921 52.1079 25.6278 55.005 20.2627C56.5751 17.3552 56.9607 15.6112 56.8655 11.8512C56.7949 9.05132 56.1319 6.82929 54.5837 4.20352C53.6537 2.62625 53.2827 2.2716 52.5671 2.27564C52.0849 2.27866 51.5038 2.40035 51.2757 2.54658ZM87.4046 36.3006C86.6543 36.5585 86.4888 36.8149 86.4888 37.7212C86.4888 38.3297 86.8641 39.5052 87.3226 40.3335C88.2367 41.9844 89.1435 44.7225 89.1492 45.8483C89.1532 46.6389 90.1998 47.006 91.6503 46.7263C92.3979 46.5821 92.4828 46.404 92.4828 44.984C92.4828 43.0178 91.7173 40.7006 90.2414 38.1993C88.964 36.035 88.6973 35.8562 87.4046 36.3006ZM69.03 36.7511C68.2734 37.5148 68.3799 38.3293 69.4832 40.2182C70.0203 41.1376 70.6513 42.722 70.8854 43.7385C71.2694 45.4062 71.4103 45.6052 72.3233 45.7703C74.3187 46.1317 74.6783 45.888 74.5651 44.2532C74.4325 42.3361 73.6473 40.1846 72.2787 37.9878C71.0976 36.0919 70.0706 35.7009 69.03 36.7511ZM104.552 36.6112C103.892 37.2775 104.063 38.3162 105.17 40.3799C106.307 42.4988 107.26 46.0527 106.953 47.0282C106.777 47.5866 106.957 47.6525 108.659 47.6525H110.561L110.365 45.2153C110.135 42.3744 109.739 41.1656 108.132 38.408C107.16 36.739 106.785 36.3739 105.962 36.2919C105.415 36.2374 104.78 36.381 104.552 36.6112ZM15.1053 44.9877C14.048 45.8271 13.9458 47.2198 14.8682 48.2196C15.5868 48.9981 16.5132 49.1171 26.2158 49.6768C29.421 49.8617 33.1672 50.0876 34.5408 50.1791C35.9145 50.2705 40.7096 50.5704 45.1968 50.8453C49.684 51.1203 54.5541 51.4215 56.0193 51.5146C57.4845 51.6078 60.1069 51.7661 61.8468 51.8666C63.5867 51.9668 67.1082 52.1944 69.6723 52.3725C72.2364 52.5507 77.1065 52.8479 80.4948 53.0331C83.8831 53.2183 88.7532 53.5215 91.3173 53.7068C93.8814 53.892 98.0772 54.1206 100.641 54.2147C103.205 54.3088 105.528 54.4477 105.803 54.5233C106.078 54.5993 108.026 54.7505 110.132 54.8598C112.238 54.969 116.209 55.2091 118.956 55.3929C123.61 55.7046 142.471 56.8552 149.259 57.2415C150.908 57.3353 154.429 57.5578 157.085 57.7357C163.863 58.1895 172.307 58.7109 176.232 58.9179C178.064 59.0144 180.312 59.1633 181.227 59.2491C184.495 59.555 191.257 59.9224 193.623 59.9224C195.619 59.9224 196.147 59.8027 196.724 59.2198C198.176 57.7528 197.811 54.7532 196.1 54.089C195.613 53.8994 193.49 53.6587 191.384 53.5541C189.278 53.4493 183.473 53.139 178.484 52.8643C173.496 52.5897 166.228 52.2159 162.334 52.034C158.439 51.8518 154.204 51.6212 152.922 51.5214C151.64 51.4215 149.168 51.2709 147.428 51.1865C140.412 50.8467 130.298 50.3182 124.95 50.012C121.837 49.8338 115.993 49.5279 111.963 49.3323C107.934 49.137 103.663 48.9094 102.473 48.8267C101.282 48.7443 97.0116 48.5221 92.9823 48.3329C88.953 48.1439 83.6333 47.8481 81.1608 47.6757C78.6883 47.5029 75.991 47.3536 75.1668 47.3439C74.3426 47.3338 70.8961 47.1724 67.5078 46.9849C64.1195 46.7976 59.8488 46.5653 58.0173 46.4688C56.1858 46.3724 53.7133 46.2241 52.5228 46.1391C51.3323 46.054 47.9607 45.889 45.0303 45.772C42.0999 45.655 39.4319 45.5081 39.1012 45.4452C38.7709 45.3824 36.2235 45.2412 33.4402 45.1319C30.6574 45.0223 26.2075 44.7917 23.5518 44.6189C16.6081 44.1671 16.1113 44.1887 15.1053 44.9877ZM190.385 48.8764C188.944 48.9706 185.304 49.2664 176.399 50.0133C174.109 50.2053 171.375 50.3956 170.322 50.4359C169.269 50.4766 168.408 50.603 168.407 50.7169C168.407 50.9015 172.778 51.1849 181.051 51.5358C187.481 51.8084 195.895 52.4451 196.589 52.7117C197.507 53.064 197.677 52.6683 197.361 50.9227C196.964 48.7305 196.171 48.4979 190.385 48.8764ZM34.8738 52.1628C34.8738 52.3998 34.4379 53.2015 33.9055 53.9437C32.359 56.0985 30.9464 59.0722 30.3191 61.4929C29.8146 63.4393 29.7879 64.1369 30.1166 66.767C30.5215 70.0056 31.2341 71.9681 32.994 74.6917C35.67 78.8332 36.2808 82.807 34.8489 86.7622C34.4366 87.9008 33.9594 89.0165 33.7886 89.2418C32.8765 90.4439 31.1402 93.6522 30.667 95.01C30.0426 96.8014 29.8165 101.657 30.2751 103.426C30.9094 105.874 31.9674 108.106 32.4116 107.933C33.2138 107.622 35.1875 108.535 35.9008 109.546C36.4652 110.346 36.5631 110.827 36.391 111.959C35.7426 116.222 35.7716 116.883 36.6687 118.251C37.1416 118.972 37.8266 119.724 38.1909 119.92C38.761 120.228 38.8842 120.154 39.0736 119.392C39.71 116.833 37.9857 109.94 36.2228 107.994C35.8878 107.624 35.1985 106.489 34.6917 105.472C32.9454 101.969 33.4975 95.7411 35.8345 92.5809C37.1835 90.7569 38.1339 88.6357 38.7193 86.143C39.4179 83.168 39.3157 80.7792 38.3594 77.7366C37.6011 75.325 37.1352 74.4063 35.2072 71.52C34.2198 70.0415 33.7819 68.1059 33.7666 65.1531C33.7496 61.933 34.1902 60.2465 35.5881 58.1811C36.1109 57.4082 36.5388 56.6841 36.5388 56.5725C36.5388 56.4606 36.8009 55.9651 37.1213 55.4716C37.6394 54.6732 38.5185 52.5087 38.5318 51.9984C38.5345 51.8928 37.7127 51.7893 36.7053 51.7688C35.4176 51.7426 34.8738 51.8592 34.8738 52.1628ZM39.8655 52.5746C39.8612 53.4382 38.4146 56.4945 37.333 57.9263C36.8262 58.5969 36.5671 59.2272 36.7373 59.3755C37.1379 59.7247 47.332 58.8208 47.4655 58.4245C47.5228 58.2544 48.301 56.8993 49.1951 55.4131C50.0892 53.9273 50.7166 52.6542 50.5894 52.5843C50.4622 52.5144 49.4592 52.4438 48.3603 52.4273C47.2614 52.4109 44.9011 52.2969 43.1156 52.1739C40.0949 51.9658 39.8685 51.9937 39.8655 52.5746ZM51.2701 54.6759C47.8229 59.6104 46.9204 64.9756 48.6654 70.1656C49.1296 71.5469 49.7845 73.0596 50.1212 73.5272C52.7669 77.2048 53.8791 81.2919 53.2075 84.8673C52.8189 86.9367 52.1419 88.6646 51.4442 89.3689C50.7569 90.0627 49.0303 93.5161 48.3869 95.4833C48.0962 96.3721 47.8662 98.177 47.8725 99.5172C47.8935 103.871 48.7356 106.441 51.5454 110.725C52.7825 112.612 53.6477 116.195 53.4356 118.555C53.2754 120.34 51.984 123.725 50.9887 124.97C50.2681 125.871 48.9281 128.622 48.341 130.407C47.8818 131.803 47.8052 132.858 47.9574 135.703C48.1565 139.43 48.69 141.177 50.4093 143.734C53.2118 147.904 54.1245 152.461 52.8755 156.049C52.4925 157.15 51.6121 158.965 50.9198 160.083C48.4472 164.073 48.0929 165.12 47.9254 168.922C47.7542 172.804 48.0127 174.087 49.6001 177.243C50.9877 180.001 51.5288 180.532 52.6597 180.246C54.2584 179.841 54.3626 178.687 53.0326 176.121C52.3939 174.889 51.7862 173.276 51.6817 172.537C51.5771 171.797 51.4276 171 51.3493 170.766C51.2711 170.531 51.4376 169.113 51.7193 167.614C52.2035 165.038 52.5238 164.315 55.0982 160.001C56.7496 157.233 57.4133 151.87 56.5218 148.5C56.0706 146.795 54.1395 142.753 53.1998 141.547C51.999 140.006 51.4093 137.291 51.623 134.288C51.8598 130.96 52.4685 129.097 54.1089 126.679C55.633 124.432 56.1042 123.193 56.7386 119.759C57.1345 117.617 57.1598 116.679 56.8625 115.147C56.4109 112.822 54.7306 108.605 53.8808 107.666C50.9953 104.479 50.7096 97.0737 53.3197 93.1335C56.1588 88.8471 57.328 84.87 56.8498 81.1225C56.4086 77.662 55.7402 75.7429 54.1052 73.2398C52.3733 70.5878 51.9747 69.5971 51.6567 67.1499C51.1645 63.3657 51.6583 61.0139 53.5971 57.9054C54.9987 55.6585 55.5155 54.5619 55.6177 53.6204C55.6746 53.0926 55.4266 52.9682 54.1422 52.8805C52.6067 52.7756 52.5908 52.7853 51.2701 54.6759ZM56.4775 55.5711L55.2707 58.0735H56.6067C57.3417 58.0735 59.6257 57.8963 61.6823 57.6799L65.4216 57.2865L66.2884 55.5788L67.1552 53.8715L66.4156 53.6731C66.009 53.5642 63.8781 53.3837 61.6803 53.2718L57.6843 53.0687L56.4775 55.5711ZM68.0423 55.4834C66.6197 57.5733 65.942 59.7308 65.6627 63.0584C65.3393 66.9142 65.8808 68.59 69.9577 76.3506C71.0509 78.4321 71.1708 78.9166 71.1708 81.2566C71.1708 84.3594 70.3613 87.0107 68.7216 89.2794C64.628 94.9438 64.6151 102.343 68.6883 108.692C70.4569 111.45 71.1781 113.65 71.1508 116.207C71.1145 119.656 70.7003 121.065 68.8831 123.925C67.9261 125.431 66.7599 127.833 66.292 129.263C65.5641 131.487 65.4682 132.249 65.6274 134.55C65.8665 138.006 66.5558 140.273 68.0473 142.508C70.5711 146.291 71.3443 148.862 71.0979 152.654C70.977 154.517 70.7026 155.507 69.8777 157.061C69.2923 158.164 68.612 159.299 68.366 159.583C68.1195 159.866 67.4232 161.233 66.8182 162.62C65.7785 165.003 65.7199 165.346 65.7529 168.867C65.7829 172.062 65.9094 172.885 66.6423 174.643C67.1125 175.771 67.8895 177.271 68.369 177.976C70.3034 180.825 71.7306 185.509 71.2857 187.55C70.7612 189.955 69.9517 192.191 69.1758 193.379C66.2627 197.837 65.5051 200.204 65.6833 204.285C65.8248 207.528 66.351 209.391 67.8162 211.837C69.2707 214.266 69.8162 214.66 70.9783 214.126C72.1492 213.587 72.0866 212.617 70.6913 209.678C70.0613 208.35 69.4419 206.426 69.3153 205.402C69.002 202.871 69.9121 198.946 71.366 196.558C73.1818 193.575 74.0566 191.772 74.2954 190.521C74.8085 187.833 74.8968 184.787 74.5111 183.073C74.1142 181.307 72.3426 177.449 71.1069 175.659C70.7609 175.158 70.1735 173.872 69.8015 172.802C68.5564 169.22 69.4862 164.064 72.0013 160.606C73.9181 157.969 74.6703 155.272 74.6257 151.19C74.5917 148.053 74.4738 147.39 73.5664 145.229C73.0046 143.892 72.1781 142.303 71.7296 141.7C70.1445 139.565 69.4555 137.743 69.3243 135.336C69.1685 132.477 69.9594 128.718 71.0289 127.232C73.3083 124.067 74.4735 120.968 74.7269 117.396C74.976 113.887 73.8681 109.949 71.7942 106.972C69.9593 104.339 69.4392 102.581 69.4092 98.9128C69.3826 95.6268 69.9937 93.7332 72.0896 90.6079C73.4755 88.5406 74.8338 84.5644 74.8338 82.5743C74.8338 78.172 74.0279 75.5657 71.4508 71.636C70.964 70.8937 70.2341 69.1645 69.8291 67.7936C68.9457 64.8045 69.0692 61.6002 70.1498 59.4615C70.5281 58.7129 70.8378 57.8859 70.8378 57.6237C70.8378 57.3618 71.0726 56.9507 71.3593 56.7104C71.9064 56.2518 72.9623 54.3885 72.7772 54.2086C72.7179 54.1508 71.8961 54.0204 70.9513 53.9189L69.2331 53.7336L68.0423 55.4834ZM74.1808 55.1045C73.8088 55.7207 73.5038 56.3413 73.5032 56.4841C73.5018 56.7527 78.0756 56.555 80.9943 56.1604C81.9101 56.0364 82.9121 55.9701 83.2211 56.0135C83.5301 56.0565 83.9474 55.7812 84.1485 55.4017C84.4812 54.7741 84.4156 54.7075 83.4202 54.6618C80.4798 54.5277 79.8148 54.4809 77.4262 54.2416L74.8571 53.9844L74.1808 55.1045ZM85.2018 56.6354C84.6183 57.6607 83.9986 59.122 83.8248 59.8831C83.3876 61.7935 83.4119 67.2521 83.8628 68.3947C84.7023 70.5233 85.6716 72.472 86.8381 74.3774C88.6919 77.4052 89.2824 79.5553 89.0256 82.3434C88.7909 84.8952 87.6117 88.1973 86.5088 89.3924C83.9424 92.1734 82.6433 99.2977 83.9753 103.287C84.7492 105.605 85.6383 107.521 86.613 108.971C88.2094 111.346 88.8244 113.042 88.9507 115.419C89.1145 118.505 88.4412 121.34 87.0486 123.43C82.2151 130.684 82.1958 137.62 86.9903 144.299C89.4688 147.752 89.676 153.511 87.4645 157.487C86.8711 158.554 86.1998 159.653 85.9733 159.931C85.7466 160.208 85.0809 161.569 84.4941 162.956C83.4562 165.409 83.4312 165.583 83.577 169.343C83.7379 173.488 84.2101 175.048 86.1828 177.951C87.6943 180.175 88.7446 182.915 88.9966 185.293C89.2873 188.033 88.3376 191.397 86.4771 194.219C84.1788 197.705 83.7249 199.047 83.5574 202.854C83.4389 205.542 83.5341 206.749 83.977 208.171C84.627 210.257 86.2567 213.44 86.9893 214.053C87.6873 214.638 89.1079 214.184 89.5341 213.239C89.8351 212.573 89.7033 212.073 88.7156 210.139C88.0679 208.871 87.4235 207.153 87.2837 206.321C86.7422 203.101 87.4309 199.474 89.1025 196.74C90.8275 193.921 91.5308 192.501 92.0026 190.889C92.5354 189.068 92.6966 185.26 92.3313 183.126C92.0689 181.591 89.8361 176.69 88.941 175.684C87.8318 174.437 87.1205 171.677 87.1864 168.876C87.263 165.607 87.9673 163.358 89.7452 160.704C91.7429 157.72 93.0422 152.89 92.641 149.939C92.3479 147.785 90.8671 143.453 90.1385 142.618C89.8158 142.248 88.9957 140.887 88.316 139.593L87.0805 137.24L87.2494 133.71C87.4312 129.914 87.7815 128.842 89.9873 125.338C91.5078 122.922 92.5587 119.627 92.613 117.106C92.6899 113.523 91.2264 108.921 89.1808 106.313C87.7162 104.446 86.972 101.063 87.2304 97.4451C87.3889 95.2251 88.4981 92.3765 89.7988 90.8493C90.7182 89.7702 92.1914 85.9669 92.4835 83.9196C92.8358 81.4465 92.3709 77.468 91.4975 75.4864C91.1145 74.6174 90.2777 73.1047 89.6377 72.1247C87.1295 68.2844 86.5118 64.6041 87.6743 60.4266C88.0086 59.2249 88.7013 57.5716 89.2131 56.753C89.7252 55.9345 90.1085 55.2366 90.0649 55.2027C90.0209 55.1687 89.1475 55.0578 88.1238 54.9563L86.262 54.7714L85.2018 56.6354ZM102.593 57.5326C102.133 58.4772 101.623 60.1577 101.459 61.267C101.102 63.6787 101.58 68.6508 102.303 70.0503C102.577 70.5814 102.802 71.1216 102.804 71.2511C102.805 71.3805 103.292 72.2125 103.887 73.1C105.482 75.481 106.423 77.7097 106.782 79.9627C107.197 82.5642 106.301 86.3239 104.677 88.7947C101.923 92.9836 101.144 95.5223 101.332 99.6887C101.487 103.13 101.91 104.414 104.274 108.628C106.26 112.167 107.132 114.789 106.932 116.617C106.548 120.113 105.784 122.144 103.606 125.457C101.532 128.612 100.645 133.878 101.586 137.455C102.127 139.512 103.957 143.565 104.671 144.285C104.915 144.531 105.494 145.599 105.958 146.659C107.584 150.37 106.889 155.691 104.312 159.257C100.385 164.692 100.296 172.824 104.104 178.251C106.367 181.476 106.635 182.332 106.635 186.319C106.635 189.572 106.537 190.21 105.826 191.615C105.382 192.494 104.778 193.477 104.484 193.8C103.532 194.847 102.243 197.695 101.671 200.015C100.718 203.875 101.417 208.534 103.506 212.25C104.678 214.335 105.985 214.784 107.171 213.509L107.88 212.748L106.622 210.478C105.577 208.589 105.323 207.745 105.116 205.458C104.813 202.099 105.349 199.146 106.612 197.22C109.194 193.282 110.469 189.724 110.459 186.488C110.448 183.042 108.774 178.221 106.78 175.898C105.688 174.626 105.05 172.018 105.055 168.839C105.06 165.391 105.531 163.872 107.526 160.874C108.227 159.821 108.8 158.837 108.801 158.688C108.802 158.54 109.173 157.51 109.626 156.401C111.401 152.05 110.307 145.81 106.947 141.127C105.675 139.354 104.967 136.6 104.996 133.542C105.019 131.142 105.15 130.599 106.219 128.499C106.877 127.205 108.062 124.86 108.851 123.289L110.286 120.432L110.263 116.566C110.238 112.327 109.787 110.681 107.861 107.8C105.168 103.772 104.279 99.5391 105.321 95.7082C105.646 94.5148 106.164 93.1604 106.472 92.6982C109.198 88.6148 110.468 84.996 110.46 81.3362C110.453 78.3992 109.719 76.1409 107.423 72.0064C105.029 67.6941 104.564 65.7276 105.117 62.2638C105.343 60.8495 105.903 58.9384 106.362 58.017C106.82 57.0956 107.144 56.2969 107.082 56.2424C107.019 56.1876 106.172 56.069 105.198 55.9789L103.428 55.8148L102.593 57.5326ZM96.7186 56.306C95.4765 56.3708 94.5424 56.5577 94.6426 56.7211C94.7429 56.8848 94.6826 57.107 94.5091 57.2153C94.3356 57.3235 94.0999 57.2583 93.9846 57.0704C93.8698 56.8825 93.1125 56.7288 92.3023 56.7288C90.8601 56.7288 90.8105 56.7658 89.9397 58.4937C89.4509 59.4642 88.9397 60.75 88.8038 61.3511C88.5844 62.3223 88.6363 62.4429 89.271 62.4386C90.0342 62.4328 90.8931 62.0029 90.8461 61.6496C90.7625 61.0176 90.8854 60.9931 91.309 61.5575C91.7409 62.133 92.1052 62.1643 95.7912 61.9407L99.8028 61.6973L100.159 60.3056C100.354 59.5402 100.59 58.65 100.683 58.3276C100.805 57.9011 100.71 57.7965 100.33 57.9434C100.043 58.0547 99.8088 57.978 99.8088 57.7733C99.8088 57.5686 100.092 57.4012 100.439 57.4012C100.961 57.4012 101.474 56.8048 101.474 56.197C101.474 56.1197 100.912 56.0861 100.225 56.1224C99.6445 56.1531 98.4267 56.2167 97.3137 56.2749C97.1103 56.2855 96.9104 56.2959 96.7186 56.306ZM109.356 56.9245C109.529 57.3813 109.454 57.4687 109.029 57.304C108.395 57.0583 107.641 58.1764 107.929 58.9351C108.029 59.198 107.819 59.5647 107.455 59.761C106.387 60.3386 106.646 61.099 107.912 61.099C108.522 61.099 109.103 61.0173 109.202 60.9171C109.301 60.8173 111.182 60.6754 113.383 60.6018C115.584 60.5282 118.187 60.3802 119.169 60.2727C121.635 60.0031 124.41 59.7896 125.7 59.7704C126.498 59.7587 126.784 59.6 126.792 59.166C126.802 58.6349 126.842 58.6298 127.209 59.1122C127.559 59.5735 128.117 59.6104 131.277 59.3828C139.812 58.768 140.482 58.6813 140.055 58.25C139.967 58.1619 138.481 58.0231 136.752 57.9414C132.188 57.7256 127.392 57.3827 126.556 57.2122C126.157 57.1309 125.595 57.3023 125.307 57.5931C124.855 58.0496 124.72 58.0567 124.311 57.6439C123.664 56.9914 119.84 56.6038 119.215 57.1275C118.884 57.4045 118.671 57.4166 118.515 57.1679C118.387 56.9632 116.327 56.707 113.71 56.5702C109.416 56.3456 109.144 56.3678 109.356 56.9245ZM81.1608 57.6462C80.8861 57.7518 80.5488 58.0046 80.4116 58.208C80.2364 58.4671 80.0756 58.4426 79.8734 58.1263C79.645 57.7689 78.8241 57.7246 75.9317 57.9138L72.279 58.1528L71.7516 59.2057C71.4615 59.7849 71.1305 61.065 71.016 62.051C70.8122 63.8041 70.8242 63.838 71.5714 63.5987C71.9913 63.4639 73.1082 63.3791 74.0526 63.4104C75.3047 63.4518 75.9294 63.3065 76.3576 62.8742C76.7785 62.4497 76.984 62.3999 77.0826 62.6988C77.1731 62.9727 77.9493 63.1159 79.3453 63.1159C81.1751 63.1159 81.5234 63.0161 81.8511 62.3976C82.0606 62.0022 82.1505 61.1702 82.0503 60.5487C81.9504 59.9268 81.985 59.4181 82.1272 59.4181C82.3539 59.4181 83.1588 57.9629 83.1588 57.5535C83.1588 57.3457 81.7759 57.4099 81.1608 57.6462ZM114.794 57.7373C114.794 57.9222 114.944 58.0735 115.127 58.0735C115.31 58.0735 115.46 57.9222 115.46 57.7373C115.46 57.5524 115.31 57.4012 115.127 57.4012C114.944 57.4012 114.794 57.5524 114.794 57.7373ZM96.1458 58.4097C96.1458 58.5946 96.2957 58.7458 96.4788 58.7458C96.6619 58.7458 96.8118 58.5946 96.8118 58.4097C96.8118 58.2248 96.6619 58.0735 96.4788 58.0735C96.2957 58.0735 96.1458 58.2248 96.1458 58.4097ZM110.964 58.4097C110.851 58.5946 110.992 58.7458 111.278 58.7458C111.563 58.7458 111.797 58.5946 111.797 58.4097C111.797 58.2248 111.656 58.0735 111.483 58.0735C111.311 58.0735 111.078 58.2248 110.964 58.4097ZM120.639 58.3811C120.532 58.5562 120.586 58.7878 120.76 58.8961C120.933 59.0043 121.162 58.9495 121.27 58.7744C121.377 58.5993 121.323 58.3676 121.149 58.2594C120.976 58.1512 120.746 58.206 120.639 58.3811ZM130.445 58.3898C130.445 58.564 130.595 58.7996 130.778 58.9139C130.961 59.0282 131.111 58.8857 131.111 58.5976C131.111 58.3095 130.961 58.0735 130.778 58.0735C130.595 58.0735 130.445 58.2157 130.445 58.3898ZM76.0269 58.7008C75.8834 58.9351 75.8561 59.2175 75.966 59.3284C76.2641 59.6293 76.589 59.1869 76.4279 58.6994C76.3153 58.3579 76.2367 58.3579 76.0269 58.7008ZM141.184 58.6413C141.505 58.726 142.029 58.726 142.35 58.6413C142.67 58.5569 142.408 58.4876 141.767 58.4876C141.126 58.4876 140.863 58.5569 141.184 58.6413ZM92.3339 59.0534C92.2267 59.2286 92.281 59.4602 92.4545 59.5684C92.628 59.6767 92.8574 59.6219 92.9647 59.4467C93.0719 59.2716 93.0176 59.04 92.8441 58.9317C92.6706 58.8235 92.4412 58.8783 92.3339 59.0534ZM116.976 59.0534C116.869 59.2286 116.923 59.4602 117.097 59.5684C117.27 59.6767 117.499 59.6219 117.607 59.4467C117.714 59.2716 117.66 59.04 117.486 58.9317C117.313 58.8235 117.083 58.8783 116.976 59.0534ZM59.0776 59.3001C59.0346 59.3435 57.8794 59.4413 56.5105 59.5173L54.0213 59.6555L53.6044 60.9094C53.3753 61.5992 53.0939 62.7559 52.9794 63.48L52.7706 64.7967L54.0619 64.7947C54.7722 64.7937 56.5767 64.6966 58.0719 64.5789C60.1678 64.4142 60.7509 64.2606 60.617 63.9086C60.5218 63.6575 60.6094 63.4521 60.8122 63.4521C61.015 63.4521 61.1808 63.6951 61.1808 63.9923C61.1808 64.347 61.362 64.4623 61.7076 64.3285C61.9973 64.2162 62.6537 64.1244 63.1662 64.1244C64.0706 64.1244 64.1022 64.0636 64.2481 62.0268C64.4432 59.3028 64.1731 59.0342 61.3456 59.1398C60.1412 59.1845 59.1205 59.2568 59.0776 59.3001ZM72.1698 59.7543C72.1698 59.9392 72.3197 60.0905 72.5028 60.0905C72.686 60.0905 72.8358 59.9392 72.8358 59.7543C72.8358 59.5694 72.686 59.4181 72.5028 59.4181C72.3197 59.4181 72.1698 59.5694 72.1698 59.7543ZM98.4768 59.9026C98.4768 60.1906 98.6267 60.4266 98.8098 60.4266C98.993 60.4266 99.1428 60.2844 99.1428 60.1103C99.1428 59.9362 98.993 59.7005 98.8098 59.5862C98.6267 59.4719 98.4768 59.6145 98.4768 59.9026ZM113.129 59.9026C113.129 60.1906 113.279 60.4266 113.462 60.4266C113.645 60.4266 113.795 60.2844 113.795 60.1103C113.795 59.9362 113.645 59.7005 113.462 59.5862C113.279 59.4719 113.129 59.6145 113.129 59.9026ZM60.0186 60.0958C60.1339 60.2838 60.3673 60.3507 60.5378 60.2441C60.9997 59.956 60.9138 59.7543 60.3287 59.7543C60.0433 59.7543 59.9038 59.9079 60.0186 60.0958ZM78.1638 60.4266C78.1638 60.6115 78.3137 60.7628 78.4968 60.7628C78.68 60.7628 78.8298 60.6115 78.8298 60.4266C78.8298 60.2417 78.68 60.0905 78.4968 60.0905C78.3137 60.0905 78.1638 60.2417 78.1638 60.4266ZM43.077 60.6616C42.9487 60.791 41.7919 60.8603 40.5062 60.8156C38.5931 60.7494 38.1865 60.8246 38.2694 61.2307C38.3247 61.5037 38.2205 61.6993 38.0373 61.665C37.8542 61.6311 37.7416 61.4899 37.7876 61.3511C37.8335 61.2122 37.365 61.099 36.7469 61.099C35.7546 61.099 35.5988 61.222 35.415 62.1495C35.3004 62.7273 35.2068 63.8619 35.2068 64.6707V66.1414H36.5492C37.4353 66.1414 37.9567 65.9699 38.0833 65.6371C38.1888 65.3598 38.4925 65.1329 38.7586 65.1329C39.0373 65.1329 39.1422 65.2963 39.006 65.5185C38.8309 65.8046 39.743 65.8462 42.5445 65.6805C44.6201 65.5578 46.378 65.3971 46.4506 65.3238C46.5235 65.2506 46.4053 64.8559 46.1885 64.4465C45.9457 63.9889 45.9161 63.6222 46.1116 63.4934C46.286 63.3781 46.5122 62.6409 46.6137 61.8553L46.7986 60.4266H45.0543C44.0949 60.4266 43.2052 60.5325 43.077 60.6616ZM56.1858 60.7628C56.1858 60.9477 56.3357 61.099 56.5188 61.099C56.702 61.099 56.8518 60.9477 56.8518 60.7628C56.8518 60.5779 56.702 60.4266 56.5188 60.4266C56.3357 60.4266 56.1858 60.5779 56.1858 60.7628ZM94.4808 60.7628C94.4808 60.9477 94.6307 61.099 94.8138 61.099C94.997 61.099 95.1468 60.9477 95.1468 60.7628C95.1468 60.5779 94.997 60.4266 94.8138 60.4266C94.6307 60.4266 94.4808 60.5779 94.4808 60.7628ZM74.352 61.0704C74.2447 61.2455 74.299 61.4771 74.4725 61.5854C74.646 61.6936 74.8754 61.6388 74.9827 61.4637C75.0899 61.2885 75.0356 61.0569 74.8621 60.9487C74.6886 60.8405 74.4592 60.8952 74.352 61.0704ZM62.1798 61.7713C62.1798 61.9562 62.3297 62.1074 62.5128 62.1074C62.696 62.1074 62.8458 61.9562 62.8458 61.7713C62.8458 61.5864 62.696 61.4351 62.5128 61.4351C62.3297 61.4351 62.1798 61.5864 62.1798 61.7713ZM25.3843 62.2328C24.9261 62.5713 24.5935 62.6188 24.3144 62.3848C23.736 61.9004 16.348 62.6214 15.3883 63.2564C13.9511 64.2071 14.053 66.3357 15.5755 67.1583C16.3484 67.5758 20.4832 67.2921 21.0949 66.7794C21.361 66.5565 21.5652 66.5602 21.7063 66.7905C21.8762 67.0685 28.1536 66.9868 28.4343 66.7031C28.4676 66.6695 28.5339 65.5837 28.5811 64.2905L28.6674 61.9394L27.3584 61.8405C26.5905 61.7824 25.7743 61.9447 25.3843 62.2328ZM80.3283 62.1074C80.4415 62.2923 80.6749 62.4436 80.8474 62.4436C81.0199 62.4436 81.1608 62.2923 81.1608 62.1074C81.1608 61.9226 80.927 61.7713 80.6417 61.7713C80.3563 61.7713 80.2151 61.9226 80.3283 62.1074ZM43.8648 62.4436C43.8648 62.6285 44.0147 62.7798 44.1978 62.7798C44.381 62.7798 44.5308 62.6285 44.5308 62.4436C44.5308 62.2587 44.381 62.1074 44.1978 62.1074C44.0147 62.1074 43.8648 62.2587 43.8648 62.4436ZM58.5168 62.4436C58.5168 62.6285 58.6667 62.7798 58.8498 62.7798C59.033 62.7798 59.1828 62.6285 59.1828 62.4436C59.1828 62.2587 59.033 62.1074 58.8498 62.1074C58.6667 62.1074 58.5168 62.2587 58.5168 62.4436ZM20.5548 63.0961C20.5548 63.2702 20.7047 63.5059 20.8878 63.6202C21.071 63.7345 21.2208 63.5919 21.2208 63.3038C21.2208 63.0157 21.071 62.7798 20.8878 62.7798C20.7047 62.7798 20.5548 62.922 20.5548 63.0961ZM39.8688 63.1159C39.8688 63.3008 40.0936 63.4521 40.3683 63.4521C40.643 63.4521 40.8678 63.3008 40.8678 63.1159C40.8678 62.931 40.643 62.7798 40.3683 62.7798C40.0936 62.7798 39.8688 62.931 39.8688 63.1159ZM54.5208 63.1159C54.5208 63.3008 54.6707 63.4521 54.8538 63.4521C55.037 63.4521 55.1868 63.3008 55.1868 63.1159C55.1868 62.931 55.037 62.7798 54.8538 62.7798C54.6707 62.7798 54.5208 62.931 54.5208 63.1159ZM16.8918 63.7883C16.8918 63.9731 17.0417 64.1244 17.2248 64.1244C17.408 64.1244 17.5578 63.9731 17.5578 63.7883C17.5578 63.6034 17.408 63.4521 17.2248 63.4521C17.0417 63.4521 16.8918 63.6034 16.8918 63.7883ZM26.5488 63.7883C26.5488 63.9731 26.6987 64.1244 26.8818 64.1244C27.065 64.1244 27.2148 63.9731 27.2148 63.7883C27.2148 63.6034 27.065 63.4521 26.8818 63.4521C26.6987 63.4521 26.5488 63.6034 26.5488 63.7883ZM36.2058 63.7883C36.2058 63.9731 36.3557 64.1244 36.5388 64.1244C36.722 64.1244 36.8718 63.9731 36.8718 63.7883C36.8718 63.6034 36.722 63.4521 36.5388 63.4521C36.3557 63.4521 36.2058 63.6034 36.2058 63.7883ZM42.051 64.432C41.9437 64.6071 41.998 64.8388 42.1715 64.947C42.345 65.0552 42.5745 65.0005 42.6817 64.8253C42.7889 64.6502 42.7346 64.4186 42.5611 64.3103C42.3876 64.2021 42.1582 64.2569 42.051 64.432ZM22.5528 64.7967C22.5528 64.9816 22.6937 65.1329 22.8662 65.1329C23.0387 65.1329 23.2721 64.9816 23.3853 64.7967C23.4986 64.6119 23.3573 64.4606 23.072 64.4606C22.7866 64.4606 22.5528 64.6119 22.5528 64.7967ZM18.8898 65.4691C18.8898 65.654 19.0307 65.8052 19.2032 65.8052C19.3757 65.8052 19.6091 65.654 19.7223 65.4691C19.8356 65.2842 19.6943 65.1329 19.409 65.1329C19.1236 65.1329 18.8898 65.2842 18.8898 65.4691ZM15.0603 66.1414C14.9471 66.3263 15.0883 66.4775 15.3737 66.4775C15.6591 66.4775 15.8928 66.3263 15.8928 66.1414C15.8928 65.9565 15.752 65.8052 15.5795 65.8052C15.407 65.8052 15.1736 65.9565 15.0603 66.1414ZM24.8838 66.1414C24.8838 66.3263 25.0337 66.4775 25.2168 66.4775C25.4 66.4775 25.5498 66.3263 25.5498 66.1414C25.5498 65.9565 25.4 65.8052 25.2168 65.8052C25.0337 65.8052 24.8838 65.9565 24.8838 66.1414ZM15.9797 116.555C12.7137 118.052 10.9691 121.244 11.1985 125.306C11.3863 128.633 13.0024 130.959 16.5036 132.941C19.0513 134.384 21.6154 134.67 24.5112 133.837C27.0963 133.092 29.1902 131.8 29.2078 130.937C29.2182 130.417 28.2062 130.717 26.6414 131.699C23.4166 133.723 18.6078 133.407 15.5798 130.973C13.2412 129.093 12.0776 126.617 12.3191 124.033C12.712 119.827 15.2435 117.237 18.9598 117.239C22.3054 117.24 24.5555 119.256 24.5458 122.246C24.5402 124.086 24.0507 125.16 22.7863 126.108C21.7323 126.898 19.5458 127.004 18.7117 126.305C18.3037 125.963 18.1113 125.959 17.7936 126.285C17.4782 126.609 17.5702 126.846 18.2199 127.381C18.8892 127.933 19.4027 128.039 20.8945 127.93C22.9777 127.777 24.4459 126.748 25.3627 124.798C26.7643 121.817 25.006 117.824 21.6477 116.36C20.1459 115.706 17.6454 115.792 15.9797 116.555ZM31.1775 141.098C31.5425 142.068 32.053 143.109 32.3121 143.412C32.5711 143.715 33.3657 145.022 34.078 146.316C35.3527 148.632 35.3733 148.725 35.3733 152.199C35.3733 155.875 35.0537 157.207 33.72 159.09C31.36 162.422 29.8995 166.448 29.9108 169.59C29.9198 172.031 30.9614 176.014 32.1209 178.041C33.1922 179.914 33.415 180.089 34.737 180.095C35.5132 180.099 35.8588 179.895 36.1439 179.263C36.4725 178.535 36.3703 178.171 35.3657 176.489C34.1909 174.523 34.0124 173.902 33.7287 170.79C33.4742 168.001 34.718 163.172 35.8768 162.449C36.4512 162.091 37.9291 158.882 38.5835 156.572C38.9241 155.37 39.2028 153.486 39.2028 152.385C39.2028 149.566 37.8648 145.448 36.047 142.671C35.2185 141.406 34.5408 140.234 34.5408 140.066C34.5408 139.898 34.1099 139.761 33.5835 139.761C33.057 139.761 32.1509 139.665 31.5698 139.548L30.5135 139.334L31.1775 141.098Z" fill="#FA1B7A"></path> <path d="M15.1053 44.9877C14.048 45.8271 13.9458 47.2198 14.8682 48.2196C15.5868 48.9981 16.5132 49.1171 26.2158 49.6768C29.421 49.8617 33.1672 50.0876 34.5408 50.1791C35.9145 50.2705 40.7096 50.5704 45.1968 50.8453C49.684 51.1203 54.5541 51.4215 56.0193 51.5146C57.4845 51.6078 60.1069 51.7661 61.8468 51.8666C63.5867 51.9668 67.1082 52.1944 69.6723 52.3725C72.2364 52.5507 77.1065 52.8479 80.4948 53.0331C83.8831 53.2183 88.7532 53.5215 91.3173 53.7068C93.8814 53.892 98.0772 54.1206 100.641 54.2147C103.205 54.3088 105.528 54.4477 105.803 54.5233C106.078 54.5993 108.026 54.7505 110.132 54.8598C112.238 54.969 116.209 55.2091 118.956 55.3929C123.61 55.7046 142.471 56.8552 149.259 57.2415C150.908 57.3353 154.429 57.5578 157.085 57.7357C163.863 58.1895 172.307 58.7109 176.232 58.9179C178.064 59.0144 180.312 59.1633 181.227 59.2491C184.495 59.555 191.257 59.9224 193.623 59.9224C195.619 59.9224 196.147 59.8027 196.724 59.2198C198.176 57.7528 197.811 54.7532 196.1 54.089C195.613 53.8994 193.49 53.6587 191.384 53.5541C189.278 53.4493 183.473 53.139 178.484 52.8643C173.496 52.5897 166.228 52.2159 162.334 52.034C158.439 51.8518 154.204 51.6212 152.922 51.5214C151.64 51.4215 149.168 51.2709 147.428 51.1865C140.412 50.8467 130.298 50.3182 124.95 50.012C121.837 49.8338 115.993 49.5279 111.963 49.3323C107.934 49.137 103.663 48.9094 102.473 48.8267C101.282 48.7443 97.0116 48.5221 92.9823 48.3329C88.953 48.1439 83.6333 47.8481 81.1608 47.6757C78.6883 47.5029 75.991 47.3536 75.1668 47.3439C74.3426 47.3338 70.8961 47.1724 67.5078 46.9849C64.1195 46.7976 59.8488 46.5653 58.0173 46.4688C56.1858 46.3724 53.7133 46.2241 52.5228 46.1391C51.3323 46.054 47.9607 45.889 45.0303 45.772C42.0999 45.655 39.4319 45.5081 39.1012 45.4452C38.7709 45.3824 36.2235 45.2412 33.4402 45.1319C30.6574 45.0223 26.2075 44.7917 23.5518 44.6189C16.6081 44.1671 16.1113 44.1887 15.1053 44.9877Z" fill="#FA1B7A"></path> <path d="M190.385 48.8764C188.944 48.9706 185.304 49.2664 176.399 50.0133C174.109 50.2053 171.375 50.3956 170.322 50.4359C169.269 50.4766 168.408 50.603 168.407 50.7169C168.407 50.9015 172.778 51.1849 181.051 51.5358C187.481 51.8084 195.895 52.4451 196.589 52.7117C197.507 53.064 197.677 52.6683 197.361 50.9227C196.964 48.7305 196.171 48.4979 190.385 48.8764Z" fill="#FA1B7A"></path> <path fill-rule="evenodd" clip-rule="evenodd" d="M109.356 56.9245C109.529 57.3813 109.454 57.4687 109.029 57.304C108.395 57.0583 107.641 58.1764 107.929 58.9351C108.029 59.198 107.819 59.5647 107.455 59.761C106.387 60.3386 106.646 61.099 107.912 61.099C108.522 61.099 109.103 61.0173 109.202 60.9171C109.301 60.8173 111.182 60.6754 113.383 60.6018C115.584 60.5282 118.187 60.3802 119.169 60.2727C121.635 60.0031 124.41 59.7896 125.7 59.7704C126.498 59.7587 126.784 59.6 126.792 59.166C126.802 58.6349 126.842 58.6298 127.209 59.1122C127.559 59.5735 128.117 59.6104 131.277 59.3828C139.812 58.768 140.482 58.6813 140.055 58.25C139.967 58.1619 138.481 58.0231 136.752 57.9414C132.188 57.7256 127.392 57.3827 126.556 57.2122C126.157 57.1309 125.595 57.3023 125.307 57.5931C124.855 58.0496 124.72 58.0567 124.311 57.6439C123.664 56.9914 119.84 56.6038 119.215 57.1275C118.884 57.4045 118.671 57.4166 118.515 57.1679C118.387 56.9632 116.327 56.707 113.71 56.5702C109.416 56.3456 109.144 56.3678 109.356 56.9245ZM115.127 58.0735C114.944 58.0735 114.794 57.9222 114.794 57.7373C114.794 57.5524 114.944 57.4012 115.127 57.4012C115.31 57.4012 115.46 57.5524 115.46 57.7373C115.46 57.9222 115.31 58.0735 115.127 58.0735ZM111.278 58.7458C110.992 58.7458 110.851 58.5946 110.964 58.4097C111.078 58.2248 111.311 58.0735 111.483 58.0735C111.656 58.0735 111.797 58.2248 111.797 58.4097C111.797 58.5946 111.563 58.7458 111.278 58.7458ZM120.76 58.8961C120.586 58.7878 120.532 58.5562 120.639 58.3811C120.746 58.206 120.976 58.1512 121.149 58.2594C121.323 58.3676 121.377 58.5993 121.27 58.7744C121.162 58.9495 120.933 59.0043 120.76 58.8961ZM130.778 58.9139C130.595 58.7996 130.445 58.564 130.445 58.3898C130.445 58.2157 130.595 58.0735 130.778 58.0735C130.961 58.0735 131.111 58.3095 131.111 58.5976C131.111 58.8857 130.961 59.0282 130.778 58.9139ZM117.097 59.5684C116.923 59.4602 116.869 59.2286 116.976 59.0534C117.083 58.8783 117.313 58.8235 117.486 58.9317C117.66 59.04 117.714 59.2716 117.607 59.4467C117.499 59.6219 117.27 59.6767 117.097 59.5684ZM113.462 60.4266C113.279 60.4266 113.129 60.1906 113.129 59.9026C113.129 59.6145 113.279 59.4719 113.462 59.5862C113.645 59.7005 113.795 59.9362 113.795 60.1103C113.795 60.2844 113.645 60.4266 113.462 60.4266Z" fill="#FA1B7A"></path> <path fill-rule="evenodd" clip-rule="evenodd" d="M96.7186 56.306C95.4765 56.3708 94.5424 56.5577 94.6426 56.7211C94.7429 56.8848 94.6826 57.107 94.5091 57.2153C94.3356 57.3235 94.0999 57.2583 93.9846 57.0704C93.8698 56.8825 93.1125 56.7288 92.3023 56.7288C90.8601 56.7288 90.8105 56.7658 89.9397 58.4937C89.4509 59.4642 88.9397 60.75 88.8038 61.3511C88.5844 62.3223 88.6363 62.4429 89.271 62.4386C90.0342 62.4328 90.8931 62.0029 90.8461 61.6496C90.7625 61.0176 90.8854 60.9931 91.309 61.5575C91.7409 62.133 92.1052 62.1643 95.7912 61.9407L99.8028 61.6973L100.159 60.3056C100.354 59.5402 100.59 58.65 100.683 58.3276C100.805 57.9011 100.71 57.7965 100.33 57.9434C100.043 58.0547 99.8088 57.978 99.8088 57.7733C99.8088 57.5686 100.092 57.4012 100.439 57.4012C100.961 57.4012 101.474 56.8048 101.474 56.197C101.474 56.1197 100.912 56.0861 100.225 56.1224C99.6445 56.1531 98.4267 56.2167 97.3137 56.2749L96.7186 56.306ZM96.4788 58.7458C96.2957 58.7458 96.1458 58.5946 96.1458 58.4097C96.1458 58.2248 96.2957 58.0735 96.4788 58.0735C96.6619 58.0735 96.8118 58.2248 96.8118 58.4097C96.8118 58.5946 96.6619 58.7458 96.4788 58.7458ZM92.4545 59.5684C92.281 59.4602 92.2267 59.2286 92.3339 59.0534C92.4412 58.8783 92.6706 58.8235 92.8441 58.9317C93.0176 59.04 93.0719 59.2716 92.9647 59.4467C92.8574 59.6219 92.628 59.6767 92.4545 59.5684ZM98.8098 60.4266C98.6267 60.4266 98.4768 60.1906 98.4768 59.9026C98.4768 59.6145 98.6267 59.4719 98.8098 59.5862C98.993 59.7005 99.1428 59.9362 99.1428 60.1103C99.1428 60.2844 98.993 60.4266 98.8098 60.4266ZM94.8138 61.099C94.6307 61.099 94.4808 60.9477 94.4808 60.7628C94.4808 60.5779 94.6307 60.4266 94.8138 60.4266C94.997 60.4266 95.1468 60.5779 95.1468 60.7628C95.1468 60.9477 94.997 61.099 94.8138 61.099Z" fill="#FA1B7A"></path> <path fill-rule="evenodd" clip-rule="evenodd" d="M81.1608 57.6462C80.8861 57.7518 80.5488 58.0046 80.4116 58.208C80.2364 58.4671 80.0756 58.4426 79.8734 58.1263C79.645 57.7689 78.8241 57.7246 75.9317 57.9138L72.279 58.1528L71.7516 59.2057C71.4615 59.7849 71.1305 61.065 71.016 62.051C70.8122 63.8041 70.8242 63.838 71.5714 63.5987C71.9913 63.4639 73.1082 63.3791 74.0526 63.4104C75.3047 63.4518 75.9294 63.3065 76.3576 62.8742C76.7785 62.4497 76.984 62.3999 77.0826 62.6988C77.1731 62.9727 77.9493 63.1159 79.3453 63.1159C81.1751 63.1159 81.5234 63.0161 81.8511 62.3976C82.0606 62.0022 82.1505 61.1702 82.0503 60.5487C81.9504 59.9268 81.985 59.4181 82.1272 59.4181C82.3539 59.4181 83.1588 57.9629 83.1588 57.5535C83.1588 57.3457 81.7759 57.4099 81.1608 57.6462ZM75.966 59.3284C75.8561 59.2175 75.8834 58.9351 76.0269 58.7008C76.2367 58.3579 76.3153 58.3579 76.4279 58.6994C76.589 59.1869 76.2641 59.6293 75.966 59.3284ZM72.5028 60.0905C72.3197 60.0905 72.1698 59.9392 72.1698 59.7543C72.1698 59.5694 72.3197 59.4181 72.5028 59.4181C72.686 59.4181 72.8358 59.5694 72.8358 59.7543C72.8358 59.9392 72.686 60.0905 72.5028 60.0905ZM78.4968 60.7628C78.3137 60.7628 78.1638 60.6115 78.1638 60.4266C78.1638 60.2417 78.3137 60.0905 78.4968 60.0905C78.68 60.0905 78.8298 60.2417 78.8298 60.4266C78.8298 60.6115 78.68 60.7628 78.4968 60.7628ZM74.4725 61.5854C74.299 61.4771 74.2447 61.2455 74.352 61.0704C74.4592 60.8952 74.6886 60.8405 74.8621 60.9487C75.0356 61.0569 75.0899 61.2885 74.9827 61.4637C74.8754 61.6388 74.646 61.6936 74.4725 61.5854ZM80.8474 62.4436C80.6749 62.4436 80.4415 62.2923 80.3283 62.1074C80.2151 61.9226 80.3563 61.7713 80.6417 61.7713C80.927 61.7713 81.1608 61.9226 81.1608 62.1074C81.1608 62.2923 81.0199 62.4436 80.8474 62.4436Z" fill="#FA1B7A"></path> <path fill-rule="evenodd" clip-rule="evenodd" d="M59.0776 59.3001C59.0346 59.3435 57.8794 59.4413 56.5105 59.5173L54.0213 59.6555L53.6044 60.9094C53.3753 61.5992 53.0939 62.7559 52.9794 63.48L52.7706 64.7967L54.0619 64.7947C54.7722 64.7937 56.5767 64.6966 58.0719 64.5789C60.1678 64.4142 60.7509 64.2606 60.617 63.9086C60.5218 63.6575 60.6094 63.4521 60.8122 63.4521C61.015 63.4521 61.1808 63.6951 61.1808 63.9923C61.1808 64.347 61.362 64.4623 61.7076 64.3285C61.9973 64.2162 62.6537 64.1244 63.1662 64.1244C64.0706 64.1244 64.1022 64.0636 64.2481 62.0268C64.4432 59.3028 64.1731 59.0342 61.3456 59.1398C60.1412 59.1845 59.1205 59.2568 59.0776 59.3001ZM60.5378 60.2441C60.3673 60.3507 60.1339 60.2838 60.0186 60.0958C59.9038 59.9079 60.0433 59.7543 60.3287 59.7543C60.9138 59.7543 60.9997 59.956 60.5378 60.2441ZM56.5188 61.099C56.3357 61.099 56.1858 60.9477 56.1858 60.7628C56.1858 60.5779 56.3357 60.4266 56.5188 60.4266C56.702 60.4266 56.8518 60.5779 56.8518 60.7628C56.8518 60.9477 56.702 61.099 56.5188 61.099ZM62.5128 62.1074C62.3297 62.1074 62.1798 61.9562 62.1798 61.7713C62.1798 61.5864 62.3297 61.4351 62.5128 61.4351C62.696 61.4351 62.8458 61.5864 62.8458 61.7713C62.8458 61.9562 62.696 62.1074 62.5128 62.1074ZM58.8498 62.7798C58.6667 62.7798 58.5168 62.6285 58.5168 62.4436C58.5168 62.2587 58.6667 62.1074 58.8498 62.1074C59.033 62.1074 59.1828 62.2587 59.1828 62.4436C59.1828 62.6285 59.033 62.7798 58.8498 62.7798ZM54.8538 63.4521C54.6707 63.4521 54.5208 63.3008 54.5208 63.1159C54.5208 62.931 54.6707 62.7798 54.8538 62.7798C55.037 62.7798 55.1868 62.931 55.1868 63.1159C55.1868 63.3008 55.037 63.4521 54.8538 63.4521Z" fill="#FA1B7A"></path> <path fill-rule="evenodd" clip-rule="evenodd" d="M43.077 60.6616C42.9487 60.791 41.7919 60.8603 40.5062 60.8156C38.5931 60.7494 38.1865 60.8246 38.2694 61.2307C38.3247 61.5037 38.2205 61.6993 38.0373 61.665C37.8542 61.6311 37.7416 61.4899 37.7876 61.3511C37.8335 61.2122 37.365 61.099 36.7469 61.099C35.7546 61.099 35.5988 61.222 35.415 62.1495C35.3004 62.7273 35.2068 63.8619 35.2068 64.6707V66.1414H36.5492C37.4353 66.1414 37.9567 65.9699 38.0833 65.6371C38.1888 65.3598 38.4925 65.1329 38.7586 65.1329C39.0373 65.1329 39.1422 65.2963 39.006 65.5185C38.8309 65.8046 39.743 65.8462 42.5445 65.6805C44.6201 65.5578 46.378 65.3971 46.4506 65.3238C46.5235 65.2506 46.4053 64.8559 46.1885 64.4465C45.9457 63.9889 45.9161 63.6222 46.1116 63.4934C46.286 63.3781 46.5122 62.6409 46.6137 61.8553L46.7986 60.4266H45.0543C44.0949 60.4266 43.2052 60.5325 43.077 60.6616ZM44.1978 62.7798C44.0147 62.7798 43.8648 62.6285 43.8648 62.4436C43.8648 62.2587 44.0147 62.1074 44.1978 62.1074C44.381 62.1074 44.5308 62.2587 44.5308 62.4436C44.5308 62.6285 44.381 62.7798 44.1978 62.7798ZM40.3683 63.4521C40.0936 63.4521 39.8688 63.3008 39.8688 63.1159C39.8688 62.931 40.0936 62.7798 40.3683 62.7798C40.643 62.7798 40.8678 62.931 40.8678 63.1159C40.8678 63.3008 40.643 63.4521 40.3683 63.4521ZM36.5388 64.1244C36.3557 64.1244 36.2058 63.9731 36.2058 63.7883C36.2058 63.6034 36.3557 63.4521 36.5388 63.4521C36.722 63.4521 36.8718 63.6034 36.8718 63.7883C36.8718 63.9731 36.722 64.1244 36.5388 64.1244ZM42.1715 64.947C41.998 64.8388 41.9437 64.6071 42.051 64.432C42.1582 64.2569 42.3876 64.2021 42.5611 64.3103C42.7346 64.4186 42.7889 64.6502 42.6817 64.8253C42.5745 65.0005 42.345 65.0552 42.1715 64.947Z" fill="#FA1B7A"></path> <path fill-rule="evenodd" clip-rule="evenodd" d="M25.3843 62.2328C24.9261 62.5713 24.5935 62.6188 24.3144 62.3848C23.736 61.9004 16.348 62.6214 15.3883 63.2564C13.9511 64.2071 14.053 66.3357 15.5755 67.1583C16.3484 67.5758 20.4832 67.2921 21.0949 66.7794C21.361 66.5565 21.5652 66.5602 21.7063 66.7905C21.8762 67.0685 28.1536 66.9868 28.4343 66.7031C28.4676 66.6695 28.5339 65.5837 28.5811 64.2905L28.6674 61.9394L27.3584 61.8405C26.5905 61.7824 25.7743 61.9447 25.3843 62.2328ZM20.8878 63.6202C20.7047 63.5059 20.5548 63.2702 20.5548 63.0961C20.5548 62.922 20.7047 62.7798 20.8878 62.7798C21.071 62.7798 21.2208 63.0157 21.2208 63.3038C21.2208 63.5919 21.071 63.7345 20.8878 63.6202ZM17.2248 64.1244C17.0417 64.1244 16.8918 63.9731 16.8918 63.7883C16.8918 63.6034 17.0417 63.4521 17.2248 63.4521C17.408 63.4521 17.5578 63.6034 17.5578 63.7883C17.5578 63.9731 17.408 64.1244 17.2248 64.1244ZM26.8818 64.1244C26.6987 64.1244 26.5488 63.9731 26.5488 63.7883C26.5488 63.6034 26.6987 63.4521 26.8818 63.4521C27.065 63.4521 27.2148 63.6034 27.2148 63.7883C27.2148 63.9731 27.065 64.1244 26.8818 64.1244ZM22.8662 65.1329C22.6937 65.1329 22.5528 64.9816 22.5528 64.7967C22.5528 64.6119 22.7866 64.4606 23.072 64.4606C23.3573 64.4606 23.4986 64.6119 23.3853 64.7967C23.2721 64.9816 23.0387 65.1329 22.8662 65.1329ZM19.2032 65.8052C19.0307 65.8052 18.8898 65.654 18.8898 65.4691C18.8898 65.2842 19.1236 65.1329 19.409 65.1329C19.6943 65.1329 19.8356 65.2842 19.7223 65.4691C19.6091 65.654 19.3757 65.8052 19.2032 65.8052ZM15.3737 66.4775C15.0883 66.4775 14.9471 66.3263 15.0603 66.1414C15.1736 65.9565 15.407 65.8052 15.5795 65.8052C15.752 65.8052 15.8928 65.9565 15.8928 66.1414C15.8928 66.3263 15.6591 66.4775 15.3737 66.4775ZM25.2168 66.4775C25.0337 66.4775 24.8838 66.3263 24.8838 66.1414C24.8838 65.9565 25.0337 65.8052 25.2168 65.8052C25.4 65.8052 25.5498 65.9565 25.5498 66.1414C25.5498 66.3263 25.4 66.4775 25.2168 66.4775Z" fill="#FA1B7A"></path> <path d="M141.184 58.6413C141.505 58.726 142.029 58.726 142.35 58.6413C142.67 58.5569 142.408 58.4876 141.767 58.4876C141.126 58.4876 140.863 58.5569 141.184 58.6413Z" fill="#FA1B7A"></path> </svg> 