<?xml version="1.0" encoding="UTF-8"?> <svg xmlns="http://www.w3.org/2000/svg" width="85" height="134" viewBox="0 0 85 134" fill="none"> <path fill-rule="evenodd" clip-rule="evenodd" d="M76.6369 7.88315C68.3811 16.5831 64.3923 19.7118 53.9927 25.6444C49.5507 28.1777 46.8084 30.4949 45.3421 32.9524C40.5899 40.9141 28.3526 58.5606 21.2979 67.6241C15.651 74.8794 13.4614 78.5156 12.3661 82.4602C11.5676 85.3336 10.1443 89.8467 9.20377 92.4884C7.25668 97.9559 8.01682 99.446 11.0736 96.1534C12.2201 94.9191 20.6483 87.2227 29.804 79.0512C48.4514 62.4075 56.7653 54.8413 59.9442 51.622C61.1284 50.4221 66.0842 42.9737 70.956 35.0701C78.5963 22.6758 79.9242 19.9303 80.61 15.1022C81.0474 12.0235 82.2234 7.46814 83.2229 4.97955C84.2224 2.49003 84.8969 0.284182 84.7208 0.0770624C84.5456 -0.12998 80.9078 3.38266 76.6369 7.88315ZM78.3143 8.01617C71.6833 15.3855 60.8848 23.8837 54.8278 26.5006C50.2577 28.4741 48.7162 29.7436 46.6288 33.2485C39.6722 44.9329 26.4553 63.802 20.8191 70.0972C16.967 74.4002 15.2216 77.7578 13.0593 85.0302C11.8541 89.0838 10.4564 93.1743 9.95412 94.1192C9.04762 95.8254 36.8524 72.0156 44.5356 64.5068C46.7394 62.3528 51.5224 57.9409 55.1638 54.7032C58.8063 51.4647 62.3889 47.5133 63.1246 45.9223C63.8614 44.3304 67.6851 37.84 71.6228 31.4978C77.1285 22.6309 78.8585 19.0474 79.1118 15.9845C79.2928 13.7945 80.1944 10.0849 81.1148 7.74272C82.0353 5.40052 82.7063 3.47661 82.6052 3.46825C82.5031 3.45981 80.573 5.50616 78.3143 8.01617ZM78.0622 10.1408C77.7104 10.8735 77.5574 12.0285 77.7236 12.7086C77.8898 13.3887 78.3436 12.8033 78.7324 11.4073C79.4912 8.68266 79.1105 7.96306 78.0622 10.1408ZM75.5815 17.7542C75.0714 19.6593 73.7284 22.7339 72.5976 24.5868C70.0405 28.7797 70.5989 29.059 73.4558 25.0155C75.4971 22.1251 78.0657 14.4199 77.0171 14.3332C76.7381 14.3101 76.0915 15.85 75.5815 17.7542ZM65.723 34.8243C63.4865 38.1706 60.9668 41.8078 60.1247 42.9058C59.2826 44.0038 58.8249 44.9221 59.1067 44.9454C59.9185 45.0125 70.679 29.7905 70.211 29.2374C69.979 28.9643 67.9603 31.4781 65.723 34.8243ZM54.1667 49.9352L52.3071 52.4065L54.6467 50.5025C55.9333 49.4555 56.7699 48.3429 56.5063 48.0313C56.2418 47.7187 55.1897 48.5756 54.1667 49.9352ZM48.3657 55.6345C43.4987 59.2947 35.6258 66.819 37.3495 66.1629C38.7276 65.6388 53.1662 52.9372 52.4235 52.9022C52.2038 52.8916 50.377 54.1215 48.3657 55.6345ZM30.6862 71.5285C28.4328 73.7001 26.0602 75.958 25.4139 76.5455C22.4949 79.1982 14.0597 88.0834 13.3069 89.2983C12.3866 90.7834 14.6426 88.6952 22.3124 80.9605C25.1096 78.1401 29.4669 73.9857 31.9959 71.7292C34.525 69.4728 36.1867 67.6157 35.6882 67.6028C35.1905 67.5909 32.9396 69.3569 30.6862 71.5285ZM54.3195 110.623C54.2769 111.139 54.6634 111.596 55.1783 111.638C55.6932 111.681 56.1494 111.294 56.192 110.778C56.2346 110.263 55.8483 109.806 55.3333 109.763C54.8184 109.721 54.3622 110.108 54.3195 110.623ZM28.185 113.182C27.8241 113.672 27.9756 114.109 28.5205 114.154C29.0654 114.199 29.5467 113.814 29.5893 113.298C29.6319 112.783 29.4815 112.346 29.254 112.327C29.0265 112.308 28.546 112.693 28.185 113.182ZM29.0289 121.389C27.7494 121.906 26.2987 122.864 25.8033 123.519C23.1771 126.997 26.0715 132.83 30.6095 133.205C35.4836 133.608 46.4065 127.492 45.1668 125.054C44.8569 124.446 44.225 124.141 43.7615 124.377C42.7341 124.901 38.2551 122.501 38.3402 121.471C38.4312 120.371 31.699 120.311 29.0289 121.389ZM1.41771 122.825C-0.666311 124.955 0.838373 129.034 4.15157 130.234C6.22092 130.984 7.49346 130.86 9.31869 129.728C12.9761 127.46 12.9096 126.496 8.92213 123.977C4.56913 121.227 3.18968 121.015 1.41771 122.825Z" fill="#FA007A"></path> </svg> 