<?xml version="1.0" encoding="UTF-8"?> <svg xmlns="http://www.w3.org/2000/svg" width="1820" height="1820" viewBox="0 0 1820 1820" fill="none"> <path fill-rule="evenodd" clip-rule="evenodd" d="M80.56 437.656C89.5086 432.136 100.704 432.248 108.651 437.938C112.31 440.558 119.167 444.447 123.89 446.582C128.879 448.837 134.487 453.213 137.288 457.037C146.121 469.099 154.463 476.567 164.011 480.96C172.54 484.879 173.712 486.029 175.912 492.603C177.255 496.616 180.591 502.135 183.326 504.871C187.351 508.895 189.508 509.298 194.636 506.982C204.591 502.484 213.706 505.564 225.987 517.575L236.694 528.043L231.455 544.901C226.691 560.234 226.644 563.503 230.942 580.959C233.541 591.518 235.778 603.729 235.916 608.095C236.054 612.46 236.802 615.347 237.581 614.508C241.416 610.365 241.956 599.774 239.293 580.96C235.982 557.603 236.975 546.219 243.098 537.266C251.421 525.094 248.426 519.194 224.028 499.707C214.514 492.107 212.285 491.406 198.32 491.623C189.908 491.752 182.05 490.871 180.854 489.662C179.657 488.455 181.788 488.082 185.59 488.836C189.389 489.59 197.519 490.047 203.654 489.854C215.126 489.492 217.512 490.788 247.128 513.472L253.791 518.574L246.887 538.804L239.98 559.036L246.722 563.779C250.431 566.387 269.185 583.572 288.4 601.966C337.98 649.432 394.6 701.288 402.328 706.311C405.179 708.164 410.278 707.355 419.027 703.66C425.954 700.734 432.715 697.109 434.053 695.606C441.798 686.887 455.959 680.331 471.359 678.331C492.311 675.606 497.504 678.679 506.869 699.334C510.54 707.437 515.18 714.908 517.179 715.941C519.176 716.971 522.787 718.704 525.203 719.785C544.186 728.298 549.745 731.997 553.5 738.614C563.834 756.824 560.49 773.803 546.664 773.308C538.887 773.032 532.177 779.153 534.512 784.394C536.777 789.479 546.862 788.391 550.764 782.642C554.919 776.521 567.152 777.36 576.37 784.397C585.074 791.045 587.766 800.678 588.112 826.431L588.33 842.548L607.682 857.468C627.104 872.443 667.929 900.797 689.85 914.532C733.524 941.904 729.644 940.135 732.976 934.195C734.638 931.235 742.02 923.068 749.381 916.043C776.984 889.71 805.547 888.41 815.66 913.027C817.652 917.874 819.055 931.419 818.779 943.151C818.377 960.237 819.309 965.934 823.473 971.865C826.331 975.934 829.494 983.47 830.5 988.612L832.333 997.962L874.296 1019.56C897.378 1031.43 926.718 1046.44 939.497 1052.9C966.679 1066.65 1055.21 1107.48 1059.21 1108.12C1060.72 1108.36 1073.6 1104.78 1087.83 1100.17C1102.06 1095.56 1116.46 1091.9 1119.82 1092.03C1123.18 1092.17 1131.56 1094.89 1138.44 1098.07C1162.22 1109.08 1179.11 1113.42 1189.32 1111.13C1202.57 1108.17 1228.9 1109.35 1235.33 1113.2C1243.34 1118.01 1250.73 1128.88 1256.18 1143.9C1258.89 1151.36 1264.98 1163.25 1269.71 1170.3C1274.44 1177.36 1279.56 1186.65 1281.09 1190.93C1283.82 1198.59 1284.24 1198.86 1306.6 1206.85C1326.59 1213.99 1330.34 1214.56 1337.63 1211.57C1348.6 1207.07 1361.26 1206.99 1369.95 1211.36C1375.15 1213.99 1377.88 1213.99 1380.34 1211.35C1383.57 1207.91 1383.53 1207.85 1379.14 1209.6C1375.98 1210.86 1377.85 1208.09 1385.28 1200.5C1395.71 1189.86 1396.3 1189.58 1410.23 1188.9C1418.07 1188.52 1431.26 1186.87 1439.54 1185.24C1457.81 1181.64 1469.37 1184.79 1474.15 1194.68C1475.89 1198.28 1477.16 1208.96 1476.98 1218.41C1476.71 1232.05 1477.66 1236.61 1481.61 1240.56C1489.62 1248.57 1503 1251.43 1526.19 1250.07C1551.14 1248.61 1556.89 1250.42 1574.72 1265.33C1595.74 1282.91 1599.01 1283.92 1636.75 1284.35C1663.07 1284.65 1675.44 1286.11 1688.47 1290.47C1708.8 1297.27 1728 1299.62 1770.14 1300.44C1787.3 1300.77 1805.44 1301.75 1810.46 1302.63L1819.57 1304.22L1814.64 1306.91C1803.65 1312.93 1721.44 1347.11 1702.62 1353.49C1691.52 1357.26 1671.88 1364.08 1658.97 1368.65C1639.12 1375.68 1631.36 1376.99 1608.67 1377.15C1579.09 1377.36 1570.72 1380.26 1538.32 1401.55C1520.02 1413.58 1499.97 1419.6 1488.75 1416.45C1483.59 1415 1475.65 1409.25 1462.93 1397.74L1444.56 1381.12L1462.05 1394.29C1486.08 1412.39 1494.09 1414.39 1515.1 1407.55C1519.03 1406.27 1515.96 1405.67 1506.21 1405.81C1492.21 1406.01 1490.84 1405.53 1483.04 1397.74C1476.21 1390.91 1474.72 1387.91 1474.56 1380.72L1474.37 1372L1462.64 1367.02C1456.19 1364.29 1446.81 1359.71 1441.8 1356.85L1432.69 1351.65L1437.23 1358.24C1441.62 1364.63 1447.71 1381.21 1444.49 1378.02C1443.61 1377.14 1442.12 1373.62 1441.19 1370.18C1440.25 1366.75 1437.88 1362.28 1435.91 1360.25C1430.73 1354.91 1405.63 1345.07 1396.46 1344.8C1392.13 1344.67 1384.72 1341.91 1379.99 1338.66C1367.41 1330.04 1345 1324.54 1337.4 1328.2C1329.95 1331.8 1323.29 1330.09 1312.09 1321.69C1302.52 1314.52 1297.09 1315.29 1283.63 1325.77C1275.82 1331.85 1274.82 1331.95 1263.57 1327.88C1254.24 1324.49 1249.28 1321.07 1240.14 1311.68C1233.75 1305.13 1227.92 1300.39 1227.17 1301.13C1225.15 1303.16 1230.92 1311.77 1236.34 1314.8C1240.01 1316.86 1240.16 1317.29 1237.02 1316.74C1230.87 1315.65 1226.78 1310.6 1224.53 1301.32C1221.71 1289.7 1217.02 1285.81 1198.48 1279.66C1174.6 1271.74 1117.94 1248.29 1069.95 1226.46C1013.5 1200.79 995.363 1195.49 974.607 1198.62C965.773 1199.95 955.471 1203.24 951.71 1205.92C936.279 1216.93 923.481 1222.84 917.885 1221.53C914.736 1220.79 905.991 1216.43 898.455 1211.83C889.443 1206.34 881.349 1203.26 874.797 1202.84C861.19 1201.95 857.958 1199.58 838.176 1176.03C823.516 1158.59 819.567 1152.27 811.587 1133.53C806.431 1121.42 802.132 1107.81 802.034 1103.29L801.857 1095.07L774.06 1079.96C758.774 1071.65 727.948 1053.82 705.559 1040.35C683.171 1026.88 664.268 1015.82 663.556 1015.78C662.842 1015.73 662.261 1017.39 662.262 1019.46C662.264 1026.62 655.64 1029.73 635.687 1031.93C624.662 1033.14 608.792 1035.42 600.42 1037C581.702 1040.53 574.884 1039.46 567.219 1031.8C560.404 1024.98 560.672 1022.91 570.894 1003.44C574.591 996.399 577.841 987.093 578.11 982.763L578.605 974.889L579.245 981.864C579.845 988.391 572.402 1012.01 569.149 1013.91C568.338 1014.38 566.615 1016.93 565.317 1019.56C563.579 1023.1 564.205 1025.6 567.702 1029.1C572.988 1034.39 585.831 1039.22 588.226 1036.83C590.249 1034.81 587.505 1032.12 584.209 1032.89C582.795 1033.23 580.432 1032.29 578.958 1030.8C577.315 1029.15 579.084 1028.99 583.53 1030.39C594.309 1033.78 598.641 1033.61 628.425 1028.67C652.773 1024.63 655.882 1023.56 657.729 1018.61C659.586 1013.65 658.921 1012.33 651.229 1005.75C645.438 1000.8 638.63 997.538 630.223 995.691C612.121 991.714 606.546 988.632 594.12 975.732C587.991 969.368 580.43 963.126 577.321 961.861C574.213 960.596 572.52 960.502 573.557 961.65C574.597 962.798 574.745 964.437 573.889 965.294C572.932 966.25 571.523 964.679 570.225 961.21C564.699 946.448 554.843 953.546 546.738 978.123C536.946 1007.81 531.033 1010.24 496.717 998.61C475.277 991.346 470.102 986.289 461.978 964.647L455.996 948.713L442.788 943.684C434.864 940.667 426.691 935.768 422.364 931.441C416.261 925.338 415.27 922.84 415.924 915.221C416.348 910.267 417.986 904.06 419.56 901.426C422.219 896.987 422.012 896.57 416.699 895.63C409.166 894.302 399.103 884.045 396.886 875.436C395.913 871.66 396.294 863.325 397.735 856.916C400.101 846.389 399.805 844.892 394.681 841.475C391.562 839.395 387.022 835.707 384.595 833.28C381.561 830.246 373.155 828.093 357.696 826.387C325.328 822.816 318.646 821.365 314.233 816.953C307.487 810.207 304.029 798.357 304.501 783.611L304.956 769.423L290.999 757.37C270.06 739.285 257.427 730.885 249.297 729.646C245.276 729.033 239.753 727.193 237.022 725.56C234.295 723.926 226.85 722.358 220.482 722.076C200.25 721.183 191.144 711.136 187.044 685.19L184.411 668.511L142.603 628.27C106.044 593.078 99.9312 587.868 93.8961 586.766C90.1028 586.072 85.3109 584.712 83.2472 583.742C77.5884 581.081 26.503 522.592 26.0215 518.22C24.0129 500.014 55.9427 452.847 80.56 437.656ZM87.6474 438.545C94.7161 435.761 102.067 436.723 102.069 440.431C102.069 441.372 99.5861 442.999 96.5516 444.046C91.368 445.836 91.3616 445.915 96.455 445.36C99.4357 445.035 102.772 444.323 103.866 443.776C104.959 443.229 108.849 445.068 112.514 447.863C117.9 451.971 119.175 454.442 119.177 460.772C119.18 470.816 112.156 482.961 101.791 490.826C88.9938 500.535 85.3945 510.031 89.84 522.356C93.5569 532.655 97.7476 538.598 101.297 538.6C102.315 538.601 104.775 534.265 106.762 528.967C109.117 522.689 114.02 515.663 120.833 508.805C132.708 496.851 138.318 486.937 138.809 477.041L139.147 470.228L145.645 476.725C156.029 487.109 154.124 494.638 133.689 523.969C114.722 551.192 108.69 556.184 90.5923 559.642C78.5904 561.937 76.7452 563.356 85.2043 563.783C102.808 564.674 119.204 552.826 136.696 526.578C141.59 519.235 147.797 510.109 150.492 506.298C153.185 502.488 155.727 495.424 156.14 490.602L156.894 481.833L161.783 484.762C164.472 486.373 168.119 489.612 169.884 491.959C172.734 495.75 172.133 497.41 164.534 506.739C159.827 512.521 152.567 524.571 148.402 533.517C136.216 559.69 120.278 572.663 96.3696 575.874C89.658 576.775 85.8471 575.853 82.5155 572.521C79.9887 569.994 78.1929 566.768 78.5263 565.354C78.8803 563.855 70.571 554.22 58.5933 542.242L38.0539 521.702L43.6807 519.177C46.7755 517.787 50.997 514.961 53.0615 512.897C55.2992 510.659 58.2305 509.973 60.3245 511.2C62.9656 512.747 62.994 512.324 60.44 509.494C58.5746 507.425 57.9681 504.81 59.0949 503.683C60.2201 502.558 62.4759 497.303 64.107 492.008C65.7348 486.713 69.2437 477.403 71.9015 471.32C75.9016 462.158 75.949 461.35 72.1702 466.62C69.6611 470.122 65.5352 478.564 63.0016 485.381C60.4665 492.201 56.4963 500.477 54.1763 503.774C49.3901 510.573 39.43 514.589 34.9205 511.535C31.3683 509.13 37.2628 493.052 47.3545 477.607C56.6406 463.395 78.5997 442.11 87.6474 438.545ZM90.2737 449.166C89.6224 450.701 87.8344 452.489 86.3005 453.139C84.7666 453.792 85.3004 452.536 87.4856 450.351C89.6709 448.166 90.925 447.634 90.2737 449.166ZM130.658 458.559C134.357 462.258 135.838 466.346 135.635 472.277C135.179 485.458 132.779 490.482 119.716 505.6C113.024 513.344 106.102 523.103 104.334 527.285C102.569 531.468 100.419 534.89 99.5603 534.889C96.5494 534.888 89.1 514.919 90.4483 510.46C91.1979 507.98 97.6085 500.154 104.693 493.07C117.272 480.491 124.8 466.446 123.014 458.891C121.766 453.603 125.537 453.439 130.658 458.559ZM98.3804 507.865C103.124 507.866 106.253 513.773 103.152 516.874C101.404 518.622 99.2805 519.359 98.4329 518.511C97.5869 517.665 98.4927 516.26 100.446 515.391C103.272 514.133 103.077 513.33 99.4927 511.472C94.9215 509.104 94.538 507.862 98.3804 507.865ZM178.221 508.303C180.298 511.852 177.336 520.606 174.055 520.605C171.813 520.604 171.759 508.697 173.99 506.465C175.164 505.291 176.896 506.043 178.221 508.303ZM185.073 514.526C187.728 515.153 203.842 530.376 203.842 532.259C203.841 533.001 201.942 534.722 199.618 536.082C196.38 537.978 193.407 537.083 186.875 532.255C182.189 528.789 178.08 525.513 177.746 524.973C176.574 523.076 182.927 514.019 185.073 514.526ZM180.678 534.129C193.082 541.145 195.503 544.755 193.022 552.55C189.549 563.472 185 566.936 180.301 562.237C178.132 560.068 172.29 556.55 167.317 554.418C162.343 552.286 158.314 550.047 158.365 549.439C158.414 548.834 161.764 544.183 165.808 539.108L173.162 529.88L180.678 534.129ZM145.748 559.568C150.095 556.379 150.153 556.548 147.206 563.775C143.363 573.203 141.892 574.684 139.125 571.917C136.571 569.363 139.283 564.307 145.748 559.568ZM162.2 557.216C164.898 558.455 170.268 561.654 174.135 564.326C180.648 568.827 181.015 569.808 179.129 577.616C175.125 594.199 171.41 599.123 159.579 603.547C152.453 606.21 148.361 606.537 147.46 604.518C146.572 602.524 145.611 602.573 144.683 604.655C142.635 609.253 140.186 605.819 140.532 598.835C140.695 595.546 139.917 591.095 138.801 588.942C137.686 586.79 137.415 584.387 138.201 583.6C138.987 582.815 140.84 586.33 142.316 591.412L145.003 600.652L144.114 589.614C143.624 583.546 144.496 577.305 146.054 575.747C147.61 574.192 150.378 569.277 152.205 564.826C156.44 554.504 156.382 554.548 162.2 557.216ZM206.992 514.507C210.167 514.665 217.023 517.087 222.228 519.883C231.233 524.724 231.643 525.258 230.662 530.835C230.094 534.058 228.359 537.969 226.805 539.523C224.334 541.994 222.391 540.757 211.259 529.625C204.262 522.628 199.141 516.299 199.88 515.56C200.619 514.821 203.819 514.347 206.992 514.507ZM209.75 539.692C210.873 539.693 214.233 542.134 217.216 545.117C225.398 553.299 224.638 566.084 215.277 577.792C208.339 586.474 207.863 586.717 207.067 582.02C205.546 573.033 207.658 539.692 209.75 539.692ZM155.896 607.76C164.839 605.057 170.674 601.909 173.381 598.335C175.615 595.382 180.739 591.613 184.769 589.959C188.801 588.305 194.391 584.659 197.193 581.857L202.29 576.76L202.531 584.442C202.664 588.666 201.244 596.526 199.373 601.912C193.994 617.394 184.066 625.205 165.106 628.867C157.207 630.392 155.749 629.821 148.106 622.197C143.509 617.613 140.36 613.402 141.11 612.839C141.86 612.277 148.514 609.993 155.896 607.76ZM162.368 632.117C167.36 633.196 189.018 624.963 193.75 620.186C195.926 617.991 200.941 609.418 204.895 601.135C212.929 584.307 217.352 578.628 218.687 583.421C219.381 585.908 219.584 585.704 219.706 582.402C219.923 576.495 223.574 573.531 225.45 577.74C226.525 580.15 225.472 582.272 222.058 584.576C216.906 588.052 214.936 595.903 213.561 618.418C212.944 628.541 212.288 629.821 206.22 632.75C198.277 636.584 186.407 650.785 187.45 655.203C187.978 657.435 187.376 658.136 185.343 657.657C183.777 657.286 183.341 656.138 184.372 655.107C185.81 653.668 185.287 653.139 182.139 652.845C179.669 652.616 174.205 648.255 168.429 641.907C162.269 635.133 160.097 631.627 162.368 632.117ZM253.356 578.699C260.176 586.472 260.219 586.852 255.875 601.259C250.655 618.568 245.2 628.433 243.115 624.333C242.35 622.833 242.946 617.209 244.435 611.836C245.926 606.462 246.084 595.997 244.784 588.578C241.725 571.111 244.198 568.263 253.356 578.699ZM221.994 626.396C234.223 618.321 235.881 617.748 233.802 622.311C232.259 625.698 226.197 631.365 217.063 637.962C204.655 646.922 202.382 649.325 200.028 655.979C195.694 668.221 195.394 681.913 199.193 693.963C202.716 705.137 202.716 705.14 197.619 700.19C191.506 694.255 188.11 671.66 191.296 658.14C193.743 647.765 201.004 640.259 221.994 626.396ZM270.746 591.791C282.365 600.998 282.289 601.825 268.684 614.281C258.043 624.026 251.443 628.154 252.356 624.493C253.515 619.855 263.777 588.424 264.304 587.896C264.676 587.524 267.577 589.277 270.746 591.791ZM224.165 637.886C228.005 635.607 233.122 630.977 235.538 627.594C239.634 621.86 240.032 621.78 241.443 626.444C243.171 632.145 240.818 640.742 234.153 653.081C229.944 660.871 228.401 662.042 216.535 666.453C209.382 669.112 202.815 670.571 201.942 669.698C196.384 664.14 208.038 647.458 224.165 637.886ZM252.1 640.651C253.915 668.145 249.692 677.383 231.618 685.465C222.883 689.368 221.999 689.234 214.357 682.847C209.925 679.143 206.234 675.554 206.151 674.868C206.07 674.182 210.793 671.966 216.644 669.941C229.831 665.382 236.051 659.305 242.708 644.475C249.927 628.395 251.257 627.853 252.1 640.651ZM206.652 685.947C219.039 694.268 232.25 705.823 230.911 707.163C230.122 707.951 225.004 708.999 219.537 709.488L209.599 710.38L205.097 700.325C199 686.698 199.594 681.205 206.652 685.947ZM289.108 609.264C292.76 611.762 296.025 614.97 296.361 616.389C297.542 621.388 289.907 644.925 285.745 649.119L281.532 653.361L280.725 644.099C278.7 620.877 278.614 608.572 280.462 606.724C281.565 605.621 285.456 606.765 289.108 609.264ZM207.976 710.318C211.66 712.956 212.912 714.672 211.148 714.671C209.545 714.671 206.807 712.712 205.064 710.317C202.382 706.634 202.827 706.634 207.976 710.318ZM237.386 686.5C241.604 684.838 248.645 679.887 253.033 675.499C261.397 667.135 276.149 658.085 278.154 660.091C279.88 661.816 274.366 685.204 270.876 690.955C268.844 694.304 263.62 697.289 254.697 700.204C242.138 704.303 241.178 704.211 234.272 698.236C226.257 691.305 226.381 690.838 237.386 686.5ZM304.376 624.611C305.485 629.309 283.021 690.69 277.646 697.645C274.238 702.052 269.49 704.955 261.949 707.236C247.226 711.692 243.71 709.171 257.886 704.324C264.13 702.189 270.423 699.303 271.869 697.91C275.501 694.416 290.325 659.147 296.178 640.077C301.268 623.492 303.233 619.781 304.376 624.611ZM229.499 711.987C233.613 711.496 238.449 712.562 240.241 714.355C242.959 717.072 242.775 717.683 239.138 718.019C236.737 718.24 234.023 717.672 233.106 716.754C232.188 715.837 228.946 714.963 225.9 714.81C218.525 714.44 220.247 713.088 229.499 711.987ZM317.729 637.052C322.491 641.468 338.384 655.984 353.044 669.312C367.704 682.64 381.133 694.941 382.889 696.646C385.326 699.017 384.112 706 377.729 726.326C365.326 765.821 362.232 771.364 348.324 779.003L337.034 785.204L324.644 774.689C317.827 768.905 299.079 753.088 282.98 739.538C266.881 725.989 253.71 714.279 253.709 713.516C253.709 712.753 256.392 711.549 259.672 710.839C279.302 706.599 283.296 701.028 298.402 656.82C303.297 642.492 307.702 630.378 308.187 629.896C308.671 629.418 312.968 632.637 317.729 637.052ZM286.517 707.215C289.109 709.871 289.634 711.108 287.683 709.964C285.732 708.82 283.612 706.647 282.971 705.134C282.33 703.622 283.925 704.559 286.517 707.215ZM390.294 686.334C393.391 687.724 399.876 688.523 404.705 688.108C409.536 687.694 414.14 688.007 414.937 688.804C415.734 689.601 413.702 690.252 410.424 690.251C407.146 690.25 403.423 690.751 402.155 691.364C399.747 692.529 382.316 686.156 383.812 684.661C384.282 684.191 387.199 684.943 390.294 686.334ZM395.611 707.621C401.242 713.252 401.869 715.287 400.207 722.546C398.847 728.487 396.322 732.488 391.597 736.185C387.919 739.062 385.163 742.495 385.475 743.811C385.787 745.128 385.326 754.04 384.453 763.614C383.358 775.606 381.481 782.307 378.417 785.152C373.973 789.281 373.972 789.279 376.762 784.326L379.553 779.372L371.538 780.326L363.523 781.281L367.188 777.365C369.204 775.212 369.597 773.983 368.061 774.634C366.527 775.287 369.09 764.315 373.758 750.252C381.933 725.622 386.176 717.221 383.192 731.576C382.403 735.364 382.453 738.465 383.304 738.464C384.154 738.466 385.803 730.058 386.97 719.783L389.09 701.099L395.611 707.621ZM322.798 785.733C325.518 789.845 330.217 795.571 333.244 798.46C338.889 803.854 368.301 814.688 389.303 819.111C418.089 825.17 425.341 829.682 457.589 861.581C481.684 885.416 481.816 885.694 480.994 910.573C480.438 927.369 484.137 936.166 496.324 947.034C505.138 954.895 511.995 954.46 527.144 945.08C535.697 939.784 544.173 938.715 544.173 942.933C544.175 945.535 530.438 951.232 517.109 954.158C505.156 956.782 501.179 956.51 494.409 952.61C489.891 950.01 485.889 946.573 485.51 944.97C485.117 943.302 484.552 943.202 484.19 944.738C483.352 948.299 475.341 947.436 474.456 943.69C473.934 941.487 473.367 942.048 472.195 945.923C470.259 952.325 470.607 952.673 479.106 952.869C482.88 952.956 490.284 954.722 495.554 956.791C501.669 959.191 509.116 959.746 516.106 958.325C526.321 956.249 526.922 956.418 524.92 960.777C522.764 965.464 522.418 988.14 524.533 986.025C525.152 985.406 525.425 979.984 525.14 973.978C524.691 964.517 525.424 962.524 530.623 959.084C533.923 956.9 538 953.984 539.68 952.607C543.14 949.77 546.302 951.528 543.256 954.593C542.167 955.691 540.199 961.946 538.882 968.496C537.564 975.045 534.939 981.958 533.049 983.857C528.461 988.461 523.005 990.762 521.124 988.88C520.285 988.041 515.62 986.777 510.757 986.071C497.857 984.198 482.068 974.168 476.281 964.17C472.448 957.546 471.583 956.833 471.285 960.051C470.605 967.391 478.542 975.68 492.984 982.713C517.408 994.607 531.725 995.019 537.437 983.989C539.195 980.595 539.355 980.815 538.828 985.924C538.446 989.636 535.807 993.783 531.409 997.576C524.631 1003.43 524.431 1003.42 501.811 996.086C475.94 987.703 473.526 985.499 465.763 963.165C461.322 950.387 461.399 948.001 466.831 930.035C470.05 919.386 472.782 907.526 472.9 903.677C473.179 894.665 462.403 872.93 453.064 863.664C444.949 855.612 415.142 833.342 408.364 830.264C400.931 826.89 356.834 815.761 344.044 814.032C330.203 812.161 325.035 807.931 319.906 794.28C314.805 780.699 316.381 776.035 322.798 785.733ZM314.628 804.732C315.94 806.044 317.394 808.884 317.859 811.043C318.609 814.533 318.438 814.703 316.319 812.583C315.007 811.271 313.553 808.431 313.088 806.272C312.338 802.783 312.508 802.613 314.628 804.732ZM409.609 721.618C415.927 727.936 416.029 728.743 412.391 743.659C410.315 752.173 407.811 759.138 406.829 759.138C404.662 759.139 402.526 741.559 402.83 726.243L403.052 715.061L409.609 721.618ZM420.342 713.604C428.05 712.301 431.477 710.147 441.027 700.597C451.09 690.534 453.778 688.943 463.262 687.429C484.819 683.991 498.343 687.836 500.646 698.06C501.302 700.973 500.18 701.024 495.648 698.288C486.626 692.842 471.076 690.056 462.007 692.262C455.088 693.946 451.742 696.529 440.587 708.787C433.317 716.776 427.089 724.502 426.746 725.955C426.403 727.408 425.527 728.036 424.799 727.349C424.071 726.662 420.169 724.041 416.127 721.521C407.629 716.225 407.906 715.703 420.342 713.604ZM374.106 761.551C374.115 763.718 373.32 765.488 372.343 765.487C371.363 765.486 371.357 763.715 372.326 761.55C373.728 758.424 374.092 758.422 374.106 761.551ZM349.506 784.682C348.854 786.218 347.066 788.005 345.532 788.655C343.999 789.308 344.532 788.052 346.718 785.867C348.903 783.682 350.157 783.15 349.506 784.682ZM356.9 791.603C357.282 793.215 359.877 794.182 362.668 793.751C365.46 793.316 367.002 793.704 366.096 794.61C365.19 795.516 361.893 796.129 358.768 795.972C353.625 795.715 353.232 795.354 354.646 792.178C355.663 789.892 356.448 789.692 356.9 791.603ZM420.992 735.773C423.082 742.669 421.98 751.423 418.152 758.329C412.688 768.195 411.205 763.54 414.718 747.54C418.26 731.401 419.158 729.717 420.992 735.773ZM466.162 694.595C483.44 692.539 499.377 701.254 502.087 714.243L503.415 720.605L484.338 722.167C460.225 724.137 455.698 726.114 450.413 736.962C448.157 741.587 445.544 745.373 444.606 745.373C441.303 745.372 429.753 732.182 429.751 728.411C429.751 725.997 435.106 719.239 444.316 710.03C456.515 697.831 460.066 695.323 466.162 694.595ZM431.507 740.957C437.932 748.275 438.368 750.136 436.932 764.157C434.935 783.665 432.062 786.625 431.375 769.883C431.081 762.743 429.088 751.856 426.941 745.692C424.796 739.526 423.375 734.151 423.782 733.744C424.189 733.337 427.665 736.584 431.507 740.957ZM367.759 799.032C372.006 797.173 372.084 797.273 370.486 802.554C369.035 807.348 368.459 807.609 365.605 804.754C363.825 802.975 362.599 801.39 362.877 801.232C363.157 801.077 365.354 800.085 367.759 799.032ZM403.24 767.695C412.251 763.384 412.206 763.353 412.496 774.004C412.951 790.669 409.177 805.598 402.928 811.847C399.756 815.019 396.918 816.587 396.621 815.333C396.325 814.08 394.134 813.233 391.751 813.454C386.136 813.973 384.582 812.273 386.574 807.794C387.918 804.774 388.251 804.909 388.595 808.613C388.823 811.05 389.38 812.672 389.833 812.219C391.898 810.155 403.826 779.736 404.848 773.93C406.524 764.399 404.059 768.202 400.059 781.321C398.14 787.613 395.81 793.441 394.881 794.274C392.917 796.032 375.844 794.403 377.62 792.628C378.273 791.975 381.463 791.291 384.708 791.106C390.402 790.783 390.443 790.685 385.918 788.305C381.487 785.978 381.657 785.423 389.009 778.31C393.287 774.168 399.692 769.391 403.24 767.695ZM379.394 800C382.246 799.362 382.614 799.777 381.471 802.341C380.68 804.122 379.124 804.501 377.85 803.227C376.621 801.998 375.687 800.944 375.773 800.883C375.859 800.826 377.488 800.428 379.394 800ZM468.659 730.334C479.052 726.372 496.579 726.121 520.96 729.585C540.148 732.311 548.068 738.311 553.155 753.98C556.726 764.985 554.188 768.741 543.45 768.329C530.879 767.847 525.065 777.767 530.827 789.876C533.625 795.757 547.974 795.123 552.177 788.932C560.535 776.62 578.269 787.899 581.251 807.418C583.932 824.968 576.179 871.615 566.051 898.867C561.37 911.461 561.275 911.572 552.486 914.589C541.873 918.231 537.516 915.784 535.729 905.18C533.472 891.792 525.325 886.4 514.61 891.209C509.34 893.575 508.509 895.01 508.511 901.735C508.516 910.257 510.361 912.945 518.832 916.75C524.899 919.476 528.823 925.546 525.086 926.427C523.82 926.725 523.918 928.104 525.303 929.489C526.688 930.874 526.689 934.53 525.304 937.614C520.77 947.717 504.387 949.893 496 941.506C493.096 938.602 494.038 938.255 503.213 938.854C513.935 939.553 518.256 937.353 519.822 930.39C520.515 927.308 519.887 926.521 516.746 926.52C509.643 926.518 499.447 914.024 498.606 904.299L497.847 895.511L492.267 896.491C487.398 897.347 486.403 896.701 484.414 891.388C482.374 885.94 483.011 884.426 490.489 876.948C499.528 867.908 507.498 846.972 510.721 823.789C513.091 806.75 510.667 799.6 499.516 790.725L490.257 783.357L490.289 764.241C490.323 742.751 487.383 737.722 475.598 739.125C469.567 739.845 466.692 741.582 462.927 746.781C459.163 751.98 457.238 753.141 454.454 751.899C449.868 749.856 449.925 748.928 455.151 740.655C458.301 735.67 461.926 732.9 468.659 730.334ZM445.117 752.959C447.038 754.098 451.569 757.799 455.183 761.182C458.799 764.562 464.015 768.818 466.777 770.639C472.984 774.73 472.527 788.1 465.779 799.825C462.908 804.815 461.79 811.067 462.639 817.364C463.364 822.749 462.959 830.3 461.736 834.143C457.419 847.715 451.899 849.124 440.144 839.645C435.358 835.787 428.971 830.986 425.951 828.977C422.384 826.605 420.737 824.09 421.248 821.801C421.873 819.009 421.485 818.819 419.388 820.878C417.876 822.364 413.872 822.094 410.062 820.255C403.928 817.29 403.708 816.839 407.372 814.695C409.564 813.413 410.8 811.808 410.121 811.129C408.23 809.238 418.141 792.792 423.964 788.161C426.807 785.9 429.804 784.723 430.624 785.543C431.443 786.362 430.549 793.335 428.634 801.035C426.721 808.736 425.912 814.288 426.836 813.369C427.761 812.45 429.791 805.898 431.345 798.807C432.899 791.715 435.301 784.575 436.677 782.938C438.053 781.304 439.382 773.774 439.623 766.205C439.865 758.638 440.416 752.095 440.845 751.666C441.274 751.237 443.198 751.819 445.117 752.959ZM452.313 768.028C452.497 772.652 453.764 782.12 455.125 789.069C457.864 803.04 461.339 803.048 463.142 789.089C463.943 782.887 464.332 782.225 464.787 786.287C465.115 789.212 463.688 795.852 461.613 801.04C459.54 806.227 458.14 811.727 458.501 813.258C458.864 814.79 458.286 816.873 457.216 817.885C456.144 818.904 455.572 817.535 455.942 814.834C457.049 806.736 455.086 807.395 443.451 819.03C437.094 825.387 431.644 829.473 430.736 828.565C429.861 827.69 430.986 825.134 433.237 822.884C436.03 820.09 437.462 813.054 437.751 800.702C438.002 789.895 439.235 783.144 440.812 783.933C442.679 784.868 444.436 781.765 446.822 773.328C451.057 758.346 451.893 757.538 452.313 768.028ZM514.63 739.443C521.432 738.47 537.61 741.55 540.407 744.347C541.819 745.759 543.336 749.332 543.777 752.287C544.569 757.596 544.511 757.65 539.042 756.834C531.763 755.746 520.948 766.421 515.952 779.625C513.925 784.989 511.58 789.375 510.742 789.377C509.904 789.375 506.618 787.643 503.441 785.524C498.011 781.903 497.89 780.688 501.413 765.251C505.778 746.118 508.769 740.279 514.63 739.443ZM482.959 782.254C484.586 783.881 486.342 791.717 486.866 799.67C487.786 813.663 489.5 813.762 490.227 799.864C490.639 791.975 491.081 791.848 499.424 797.247C505.215 800.998 505.691 802.732 505.583 819.722C505.454 840.031 497.572 868.965 492.167 868.963C490.377 868.963 485.404 865.678 481.116 861.663C476.827 857.648 470.479 852.552 467.006 850.338C461.758 846.993 461.163 845.845 463.474 843.534C467.305 839.703 473.616 816.224 475.909 797.256C478.049 779.556 478.756 778.051 482.959 782.254ZM409.112 854.619C409.456 854.962 409.054 856.779 408.219 858.658C407.346 860.615 406.442 860.985 406.098 859.529C405.519 857.084 407.824 853.331 409.112 854.619ZM451.196 829.36C450.51 830.965 449.081 832.279 448.026 832.279C446.97 832.279 447.532 830.966 449.276 829.359C451.204 827.584 451.957 827.584 451.196 829.36ZM440.708 859.372C444.264 861.625 447.174 864.252 447.176 865.207C447.175 867.6 437.247 861.46 435.586 858.042C434.846 856.52 437.151 857.119 440.708 859.372ZM422.671 874.977C429.015 870.914 439.228 869.281 439.228 872.332C439.228 874.049 426.79 880.31 419.61 882.211C413.132 883.924 414.781 880.03 422.671 874.977ZM458.792 850.658C463.002 851.935 467.747 855.106 483.677 867.295C490.993 872.891 491.216 873.441 487.339 876.354C483.423 879.294 482.445 878.723 468.135 865.112C459.844 857.224 453.376 850.452 453.767 850.061C454.158 849.67 456.42 849.939 458.792 850.658ZM419.529 886.49C423.698 884.051 426.942 886.427 423.771 889.598C422.554 890.815 420.072 891.15 418.256 890.342C416.442 889.532 415.196 888.797 415.488 888.708C415.782 888.618 417.601 887.62 419.529 886.49ZM440.291 881.56C444.108 881.56 447.861 886.906 447.416 891.708C447.039 895.781 445.829 896.288 438.48 895.47C433.802 894.95 429.438 893.99 428.777 893.338C427.291 891.872 437.374 881.558 440.291 881.56ZM453.209 877.236C462.839 880.839 465.061 888.604 458.931 897.231C452.482 906.304 444.74 909.81 436.598 907.342C428.109 904.769 426.959 906.495 430.502 916.49C433.346 924.512 433.866 924.993 442.456 927.595C447.394 929.091 453.748 929.413 456.579 928.309C459.41 927.205 462.156 926.733 462.684 927.261C463.554 928.131 460.19 939.052 458.543 940.698C457.177 942.065 435.078 933.736 428.855 929.508C423.396 925.801 422.548 923.857 422.825 915.66C423.219 904.033 427.438 899.212 434.463 902.368C437.333 903.659 442.548 903.328 446.053 901.636C454.138 897.734 455.938 889.91 450.772 881.133L447.139 874.963L453.209 877.236ZM534.547 804.644C541.819 804.901 544.7 803.654 550.701 797.653C559.358 788.996 562.932 789.725 569.247 801.44C573.554 809.429 573.666 826.73 569.457 833.922C566.111 839.641 557.87 841.098 540.614 839.023L524.535 837.091L524.832 820.615C524.996 811.555 525.256 804.183 525.414 804.236C525.568 804.288 529.679 804.471 534.547 804.644ZM526.547 848.488C534.845 849.416 555.125 857.599 559.185 861.658C566.788 869.261 562.822 890.488 551.724 901.586C545.519 907.79 542.532 906.783 539.571 897.49C536.735 888.583 529.444 882.949 518.333 881.077C510.387 879.74 509.011 877.509 513.412 873.108C514.866 871.654 517.702 865.44 519.712 859.298C522.309 851.371 524.291 848.238 526.547 848.488ZM519.911 899.177C525.491 899.179 526.315 901.15 521.836 903.772C517.673 906.208 514.83 905.078 515.713 901.336C515.992 900.147 517.882 899.176 519.911 899.177ZM581.932 897.12C585.278 900.466 585.181 900.792 580.155 903.028C575.374 905.157 573.736 902.912 576.553 898.098C578.293 895.124 579.684 894.871 581.932 897.12ZM574.631 907.291C574.9 908.437 578.139 907.916 581.825 906.135C587.111 903.585 588.607 903.731 588.895 906.826C589.096 908.985 590.278 910.751 591.521 910.752C592.764 910.752 592.079 911.51 590 912.435C587.92 913.361 585.263 913.165 584.096 911.997C581.567 909.469 576.488 910.305 576.488 913.251C576.488 914.396 578.266 915.003 580.435 914.602C583.468 914.04 583.362 914.445 579.975 916.35C577.481 917.753 575.884 920.161 576.296 921.902C576.753 923.834 577.28 923.883 577.716 922.038C578.158 920.162 578.936 920.283 579.869 922.372C580.721 924.287 579.848 926.372 577.769 927.389C575.141 928.674 575.709 928.965 579.939 928.501C583.088 928.154 586.751 926.81 588.076 925.513C590.218 923.418 590.05 923.25 586.56 923.998C583.146 924.731 582.968 924.502 585.198 922.228C586.607 920.793 589.952 919.846 592.632 920.127C595.311 920.409 596.193 920.964 594.593 921.366C592.99 921.766 592.376 923.656 593.227 925.562C595.327 930.278 595.835 930.625 597.784 928.677C598.709 927.752 598.31 926.72 596.895 926.385C595.48 926.051 594.966 925.134 595.752 924.347C596.541 923.559 600.831 926.314 605.288 930.466C609.747 934.62 616.697 939.367 620.736 941.015L628.077 944.011L624.07 937.751C621.277 933.385 621.003 930.85 623.166 929.387C628.216 925.969 637.424 931.731 643.382 942.038C649.994 953.475 661.006 964.542 671.295 970.088C679.675 974.606 684.07 973.83 678.973 968.733C675.534 965.293 675.643 957.542 679.146 956.716C682.786 955.859 697.132 961.464 700.877 965.209C705.713 970.045 700.569 974.064 681.476 980.361C649.052 991.056 635.856 988.808 602.048 966.821C570.864 946.542 564.301 941.012 566.243 936.651C567.093 934.738 566.394 932.552 564.69 931.792C562.985 931.031 562.25 928.926 563.06 927.111C564.684 923.461 560.431 921.475 557.478 924.504C556.332 925.681 557.175 926.146 559.664 925.708C562.837 925.149 562.721 925.551 559.134 927.564C554.922 929.926 555.006 930.341 560.183 932.666C563.843 934.311 565.276 935.741 564.268 936.748C563.416 937.6 562.062 937.641 561.259 936.838C560.456 936.035 558.308 934.713 556.486 933.902C554.468 933.003 553.793 930.39 554.755 927.204C556.032 922.979 558.129 921.42 565.743 919.025C572.095 917.027 574.204 915.643 572.231 914.763C570.545 914.012 570.332 911.713 571.724 909.336C573.052 907.066 574.36 906.146 574.631 907.291ZM570.374 919.753C571.821 919.753 575.389 928.255 577.29 936.236C577.438 936.848 576.028 937.348 574.158 937.348C571.748 937.347 570.067 935.164 568.369 929.833C566.044 922.537 566.598 919.753 570.374 919.753ZM553.603 948.253C554.955 949.605 553.543 954.121 550.009 959.754C543.108 970.751 541.174 971.573 544.217 962.207C548.065 950.372 551.145 945.795 553.603 948.253ZM591.284 914.605C598.18 913.65 595.566 916.198 587.354 918.434C583.731 919.42 582.106 919.13 583.486 917.744C584.794 916.43 588.303 915.016 591.284 914.605ZM588.152 928.767C591.534 928.04 591.708 928.299 589.415 930.637C587.949 932.128 585.594 933.075 584.179 932.74C580.923 931.97 583.027 929.866 588.152 928.767ZM577.121 939.986C578.046 940.911 577.648 941.943 576.233 942.277C574.818 942.61 573.346 942.568 572.959 942.182C572.573 941.795 572.973 940.765 573.847 939.891C574.721 939.017 576.195 939.06 577.121 939.986ZM586.105 936.717C590.456 936.151 591.926 936.655 590.393 938.189C589.11 939.471 585.929 940.028 583.324 939.425C577.489 938.075 577.772 937.802 586.105 936.717ZM600.076 932.745C601.491 933.08 601.89 934.111 600.965 935.036C600.04 935.961 598.567 936.004 597.692 935.129C596.817 934.255 596.417 933.224 596.803 932.838C597.189 932.452 598.661 932.411 600.076 932.745ZM593.153 945.097C596.281 946.502 596.282 946.866 593.154 946.878C590.987 946.885 589.216 946.09 589.217 945.112C589.217 944.133 590.988 944.127 593.153 945.097ZM604.848 940.696C606.263 941.03 606.304 942.419 604.942 943.781C603.58 945.143 601.749 945.543 600.875 944.669C600 943.794 599.957 942.406 600.78 941.583C601.603 940.76 603.433 940.361 604.848 940.696ZM612.313 982.12C617.687 985.266 622.084 988.43 622.086 989.147C622.087 991.738 608.802 984.877 605.709 980.688C603.349 977.491 605.032 977.856 612.313 982.12ZM629.225 988.912C633.067 992.754 668.211 989.835 684.523 984.317C700.497 978.916 703.749 976.945 714.418 966.21C721 959.586 732.97 945.73 741.016 935.42C751.388 922.128 757.734 915.528 762.83 912.735C766.781 910.567 772.276 907.302 775.038 905.478C783.661 899.784 791.969 900.305 800.692 907.087C808.704 913.311 806.802 916.581 798.532 910.806C793.273 907.137 786.639 913.093 781.405 926.19C775.866 940.049 775.888 940.039 774.364 929.926L773.08 921.395L766.036 922.129C760.033 922.757 757.319 924.74 747.664 935.543C741.433 942.515 733.994 952.317 731.136 957.325C728.276 962.332 721.031 971.536 715.036 977.778C702.334 991.006 691.633 995.308 669.168 996.215C654.028 996.827 623.624 991.89 626.265 989.248C627.171 988.342 628.503 988.19 629.225 988.912ZM665.723 1000.79C676.879 1001.96 697.255 997.487 707.434 991.631C712.15 988.919 716.653 987.341 717.439 988.127C718.226 988.914 719.486 988.172 720.239 986.481C721.208 984.306 724.259 984.989 730.653 988.811C738.002 993.205 741.405 996.907 748.828 1008.57C756.378 1020.44 759.641 1023.96 767.66 1028.88C772.995 1032.15 779.663 1035.14 782.479 1035.53C787.154 1036.18 787.111 1035.74 781.987 1030.53C774.527 1022.93 773.067 1014.5 779.114 1013.94C786.346 1013.27 795.749 1018.31 803.324 1026.94C810.434 1035.03 810.458 1035.25 807.084 1060.06C805.217 1073.79 802.862 1085.22 801.854 1085.46C800.843 1085.7 797.582 1084.38 794.604 1082.53C788.56 1078.78 768.882 1067.43 719.438 1039.2C687.045 1020.7 657.513 1002.3 657.67 1000.73C657.712 1000.3 661.337 1000.33 665.723 1000.79ZM767.331 926.47C771.358 926.845 771.928 927.862 771.327 933.606C770.94 937.291 768.973 941.954 766.957 943.971C764.94 945.988 762.586 949.216 761.729 951.146C760.604 953.67 758.296 953.748 753.494 951.429C749.824 949.654 746.175 948.85 745.387 949.638C744.599 950.427 743.238 950.356 742.363 949.482C741.457 948.575 745.476 943.189 751.704 936.96C759.825 928.839 763.84 926.144 767.331 926.47ZM798.083 915.284C809.952 915.879 814.723 925.532 811.11 941.635C809.165 950.303 809.617 956.928 812.761 965.844C818.642 982.519 814.758 988.244 802.483 980.998C797.742 978.198 790.804 974.312 787.068 972.362C782.314 969.881 779.197 966.672 776.675 961.671C772.993 954.365 773.504 952.791 790.73 918.261C791.626 916.465 794.935 915.127 798.083 915.284ZM823.594 983.034C824.546 983.987 825.048 987.422 824.707 990.67C824.367 993.918 825.287 998.185 826.752 1000.15C828.216 1002.12 828.363 1009.44 827.081 1016.42C825.797 1023.41 822.771 1043.3 820.356 1060.64C817.938 1077.97 814.794 1093.32 813.365 1094.75C811.936 1096.18 811.732 1098.31 812.908 1099.49C814.087 1100.67 816.209 1105.09 817.624 1109.32C822.935 1125.2 832.058 1137.63 855.927 1161.54C877.383 1183.03 880.405 1185.42 888.539 1187.34C898.679 1189.74 918.254 1183.79 926.195 1175.9C928.916 1173.2 935.204 1170.19 940.168 1169.23C947.47 1167.81 951.595 1168.85 961.741 1174.69C971.123 1180.08 973.799 1182.39 972.348 1183.85C971.28 1184.91 968.975 1185.79 967.223 1185.79C965.474 1185.79 955.904 1191.01 945.961 1197.38C936.016 1203.76 925.918 1209.58 923.516 1210.3C919.745 1211.44 897.566 1203.22 893.528 1199.18C892.754 1198.41 886.504 1197.02 879.641 1196.09C858.782 1193.29 857.038 1192.34 843.223 1176.4C826.999 1157.68 808.312 1119.17 808.919 1105.71C809.136 1100.83 808.868 1095.81 808.319 1094.57C806.787 1091.1 811.224 1060.69 816.222 1040.4C819.109 1028.69 820.111 1015.73 819.036 1004C817.498 987.228 819.335 978.776 823.594 983.034ZM834.121 1055.71C835.552 1056.47 839.119 1058.62 842.052 1060.5C848.138 1064.4 852.062 1062.36 847.414 1057.71C841.961 1052.26 845.329 1049.27 853.261 1052.53C858.353 1054.63 869.174 1063.51 885.263 1078.81C903.86 1096.49 911.82 1102.84 919.163 1105.84C930.817 1110.6 933.509 1108.84 926.026 1101.36C922.359 1097.69 921.207 1095.05 922.65 1093.6C926.804 1089.45 933.632 1092.27 948.218 1104.17C966.385 1119 974.768 1123.16 975.281 1117.61C976.089 1108.89 992.493 1116.97 1010.47 1134.95C1020 1144.47 1027.2 1149.8 1036.27 1154C1052.04 1161.31 1056.21 1161.61 1049.57 1154.97C1042.95 1148.35 1046.16 1145.21 1056.85 1147.85C1062.84 1149.32 1069.33 1153.64 1080.25 1163.41C1093.11 1174.92 1095.68 1176.47 1097.56 1173.85C1100.2 1170.17 1113.75 1175.99 1127.1 1186.52C1138 1195.13 1160.91 1205.62 1162.38 1202.68C1162.97 1201.5 1162.62 1199.69 1161.6 1198.67C1157.88 1194.95 1162.64 1193.2 1170.72 1195.33C1178.14 1197.27 1179.76 1198.65 1186.17 1208.39C1190.11 1214.38 1195.81 1221.72 1198.84 1224.71C1205.13 1230.92 1220.55 1237.3 1227.66 1236.63C1232 1236.22 1231.91 1235.6 1226.82 1230.51C1219.78 1223.47 1220.32 1220.29 1228.5 1220.7C1233.68 1220.95 1237.97 1223.99 1252.6 1237.74C1267.95 1252.17 1270.79 1255.73 1273.23 1263.69C1274.79 1268.76 1279.23 1279.39 1283.1 1287.3L1290.13 1301.68L1280.57 1299.37C1240.24 1289.63 1124.91 1244.41 1023.01 1198.38C974.369 1176.41 869.616 1124.7 843.597 1109.82C820.208 1096.44 819.027 1094.22 824.153 1073.21C828.135 1056.88 830.033 1053.55 834.121 1055.71ZM832.671 1111.23C851.898 1120.09 923.135 1155.68 924.631 1157.18C927.486 1160.03 923.312 1166.93 915.268 1172.65C903.732 1180.85 901.354 1180.49 900.974 1170.51C900.522 1158.66 891.376 1149.86 867.067 1137.86C848.804 1128.84 826.642 1113.28 828.878 1111.04C829.467 1110.45 831.175 1110.54 832.671 1111.23ZM856.045 1136.97C865.664 1141 878.03 1147.15 883.522 1150.62C892.267 1156.15 893.886 1158.06 896.575 1166.01C898.263 1171.01 899.055 1176.22 898.332 1177.59C897.609 1178.96 892.288 1178.63 886.506 1176.87C877.288 1174.05 873.967 1171.57 859.537 1156.72C850.486 1147.4 842.062 1137.49 840.816 1134.7C838.81 1130.2 840.543 1130.46 856.045 1136.97ZM1083.75 1108.11C1093.44 1103.46 1113.25 1102.08 1125.25 1105.21C1131.11 1106.74 1141.51 1111.66 1148.35 1116.13C1158.57 1122.81 1181.43 1130.61 1183.81 1128.23C1184.14 1127.9 1180.58 1126.09 1175.9 1124.21C1153.6 1115.24 1152.82 1114.29 1170.94 1118.16C1177.84 1119.64 1190.07 1120.29 1198.13 1119.6C1211.48 1118.47 1221.46 1120.51 1221.46 1124.37C1221.46 1125.2 1216.91 1126.08 1211.34 1126.34C1205.78 1126.59 1194.45 1129.06 1186.16 1131.84C1177.88 1134.62 1169.05 1136.57 1166.54 1136.18C1164.02 1135.79 1157.02 1136.24 1150.98 1137.19C1138.41 1139.16 1125.73 1138.68 1123.02 1136.13C1122 1135.18 1115.58 1132.29 1108.75 1129.73C1101.92 1127.16 1091.11 1122.77 1084.73 1119.96C1072.26 1114.49 1072.19 1113.65 1083.75 1108.11ZM1158.52 1141.56C1166.46 1141.39 1177.56 1140.09 1183.2 1138.67C1202.08 1133.91 1212.62 1134.2 1224.99 1139.84C1231.57 1142.84 1239.53 1147.87 1242.69 1151.02C1248.82 1157.16 1264.33 1184.13 1264.44 1188.87C1264.48 1190.54 1255.93 1188.55 1243.79 1184.07C1205.81 1170.05 1144.1 1144.84 1144.1 1143.34C1144.1 1142.53 1150.59 1141.73 1158.52 1141.56ZM1259.68 1300.77L1295.99 1312.49L1288.28 1318.25C1284.05 1321.42 1279.23 1325.06 1277.59 1326.35C1275.94 1327.63 1274.32 1328.19 1273.98 1327.59C1273.64 1326.99 1269.84 1325.8 1265.53 1324.94C1259.14 1323.66 1254.49 1320.3 1240.16 1306.58C1230.51 1297.35 1222.79 1289.63 1223 1289.42C1223.21 1289.22 1239.71 1294.33 1259.68 1300.77ZM1290.97 1243.77C1293.68 1244.59 1302.14 1250.23 1309.76 1256.29C1317.69 1262.6 1328.45 1268.99 1334.88 1271.23C1345.81 1275.03 1346.04 1274.99 1342.51 1269.92C1340.51 1267.05 1339.41 1263.64 1340.06 1262.34C1342.01 1258.44 1353.46 1264.66 1365.74 1276.29C1378.64 1288.49 1382.48 1289.84 1381.44 1281.8C1380.76 1276.45 1380.83 1276.38 1386.48 1277C1395.53 1277.99 1406.41 1282.96 1412.21 1288.76C1420.26 1296.81 1436.85 1304.97 1446.78 1305.76L1455.62 1306.46L1449.5 1302.31C1440.16 1295.97 1440.69 1292.5 1451.04 1292.28C1459.23 1292.11 1461.01 1293.06 1470.82 1302.87C1477.64 1309.7 1484.64 1314.73 1489.9 1316.59C1498.72 1319.72 1503.85 1318.21 1496.81 1314.56C1490.68 1311.38 1493.98 1309.6 1505.63 1309.78C1513.18 1309.9 1519.81 1312.31 1530.82 1318.92C1552.12 1331.71 1561.71 1333.91 1557.8 1325.13C1554.2 1317.05 1567.11 1315.2 1579.2 1322.06C1583.11 1324.27 1590.69 1326.93 1596.04 1327.96L1605.78 1329.82L1609.58 1343.45L1613.38 1357.07L1599.78 1358.26C1586.31 1359.43 1560.57 1359.05 1531.93 1357.26C1510.79 1355.93 1474.28 1348.96 1433.21 1338.4C1413.73 1333.39 1393.85 1328.71 1389.04 1327.98C1380.77 1326.75 1380.11 1326.24 1377 1318.66C1370.44 1302.7 1363.92 1299.54 1336.01 1298.82C1323.54 1298.49 1302.2 1290 1294.5 1282.3C1292.36 1280.16 1289.33 1274.8 1287.75 1270.39C1285.47 1264 1285.7 1262.3 1288.89 1262C1292.09 1261.71 1292.2 1260.92 1289.42 1258.15C1285.26 1253.98 1282.5 1245.81 1284.56 1243.75C1285.37 1242.94 1288.25 1242.95 1290.97 1243.77ZM1351.88 1212.94C1359.4 1213.25 1366.63 1214.57 1367.94 1215.89C1369.25 1217.2 1372.98 1217.71 1376.22 1217.02C1381.03 1216 1383.03 1214.18 1387.03 1207.23C1393.05 1196.77 1400.46 1192.8 1411.08 1194.36L1418.7 1195.48L1419 1206.73C1419.16 1212.91 1418.17 1223.21 1416.79 1229.61C1414.44 1240.56 1416.63 1242.74 1419.73 1232.5C1420.86 1228.77 1421.68 1228.3 1423.65 1230.28C1425.02 1231.65 1425.22 1235.06 1424.09 1237.87C1422.07 1242.89 1422.09 1242.91 1425.63 1238.61C1428.27 1235.41 1428.3 1232.46 1425.74 1227.46C1421.95 1220.05 1420.72 1203 1423.76 1199.96C1424.81 1198.92 1431.11 1198.34 1437.77 1198.68C1453.21 1199.47 1459.26 1204.97 1458.86 1217.86C1458.41 1232.65 1468.4 1247.1 1484.29 1254.63C1488.71 1256.73 1501.51 1259.67 1512.74 1261.17C1529.96 1263.47 1571.25 1277.11 1571.25 1280.49C1571.25 1281.94 1538.76 1275.26 1507.86 1267.44C1493.68 1263.85 1477.27 1260 1471.4 1258.87C1465.53 1257.75 1451.92 1254.17 1441.17 1250.93C1430.41 1247.69 1414.06 1243.02 1404.82 1240.55C1395.59 1238.07 1375.88 1231.66 1361.02 1226.3C1331.52 1215.65 1329.02 1212 1351.88 1212.94ZM1300.98 1290.14C1314.72 1298.9 1321.46 1300.97 1340.01 1302.07C1357.71 1303.13 1360.67 1304.02 1366.2 1309.87L1372.45 1316.48L1364.9 1311.37C1358.88 1307.28 1353.32 1306.44 1337.3 1307.17L1317.23 1308.09L1305.45 1298.4C1293.64 1288.68 1290.97 1283.77 1300.98 1290.14ZM1304.62 1301.07C1310.9 1303.81 1312.91 1306.4 1308.76 1306.39C1306.85 1306.39 1304.22 1304.8 1302.92 1302.85C1300.65 1299.43 1300.71 1299.37 1304.62 1301.07ZM1450.32 1188.95C1455.83 1189.07 1462.06 1191.24 1466.4 1194.56C1473.14 1199.7 1473.42 1200.69 1472.17 1214.88C1471.44 1223.09 1470.34 1229.29 1469.72 1228.67C1467.84 1226.79 1463.11 1208.32 1464.23 1207.2C1464.8 1206.63 1464.29 1203.55 1463.09 1200.35C1461.14 1195.14 1459.64 1194.46 1448.85 1193.91C1434.89 1193.2 1436.25 1188.64 1450.32 1188.95ZM1321.14 1319.28C1327.98 1320.08 1336.28 1323.29 1333.31 1323.99C1331.74 1324.36 1327.27 1323.65 1323.38 1322.41C1316.03 1320.07 1314.95 1318.56 1321.14 1319.28ZM1341.11 1309.96C1346.22 1309.02 1352.92 1308.98 1355.98 1309.85C1362.55 1311.73 1368.88 1317.34 1368.11 1320.6C1367.46 1323.33 1355.67 1321.22 1352.2 1317.75C1350.86 1316.41 1349.2 1315.87 1348.51 1316.56C1347.13 1317.94 1331.72 1314.43 1331.78 1312.73C1331.8 1312.15 1335.99 1310.9 1341.11 1309.96ZM1392.92 1338.01C1396.04 1339.42 1396.05 1339.78 1392.92 1339.79C1390.75 1339.8 1388.98 1339 1388.98 1338.03C1388.98 1337.05 1390.75 1337.04 1392.92 1338.01ZM1534.11 1255.85C1548.4 1256.22 1558.78 1260.21 1569.96 1269.6L1579.7 1277.79L1555.78 1268.51C1542.63 1263.41 1530.12 1259.07 1527.97 1258.87C1519.6 1258.09 1524.65 1255.59 1534.11 1255.85ZM1481.09 1359.1C1520.37 1366.94 1550.23 1369.75 1590.28 1369.38C1609.92 1369.19 1626.9 1369.95 1628.01 1371.07C1629.12 1372.18 1620.86 1372.68 1609.65 1372.19C1586.46 1371.17 1580.27 1372.81 1550.92 1387.74C1515.62 1405.71 1501.55 1407.65 1486.77 1396.57C1478.45 1390.34 1477.91 1389.3 1477.75 1379.32L1477.58 1368.7L1465.51 1361.73C1458.87 1357.89 1453.66 1354.53 1453.92 1354.27C1454.19 1354 1466.42 1356.18 1481.09 1359.1ZM1650.82 1286.97C1664.95 1286.53 1682.54 1289.79 1682.54 1292.84C1682.54 1293.5 1673.14 1293.16 1661.66 1292.06C1629.13 1288.96 1626.49 1287.73 1650.82 1286.97ZM1610.98 1328.6C1611.64 1329.26 1613.92 1335.12 1616.05 1341.62C1621.27 1357.55 1627 1362.82 1640.01 1363.67C1651.44 1364.41 1651.82 1364.99 1643.03 1368.28C1639.72 1369.52 1633.53 1368.84 1628.51 1366.68C1620.08 1363.07 1619.61 1362.48 1615.79 1350.96C1611.49 1337.99 1609.05 1326.68 1610.98 1328.6ZM1634.08 1328.35C1642.24 1328.02 1654.99 1326.1 1662.43 1324.08C1669.86 1322.05 1676.16 1321.32 1676.43 1322.45C1676.7 1323.59 1679.33 1322.9 1682.28 1320.93C1687.46 1317.48 1707.98 1315.2 1707.98 1318.08C1707.98 1318.85 1700.59 1324.02 1691.56 1329.57C1682.53 1335.12 1675.13 1340.23 1675.14 1340.93C1675.14 1341.63 1681.41 1338.41 1689.07 1333.76C1696.73 1329.12 1703.22 1326.26 1703.5 1327.41C1703.77 1328.56 1706.61 1327.82 1709.82 1325.77C1713.03 1323.71 1716.25 1322.62 1716.97 1323.35C1717.69 1324.07 1713.12 1327.69 1706.8 1331.38C1694.78 1338.43 1674.8 1344.75 1672.33 1342.28C1671.54 1341.49 1669.8 1341.94 1668.45 1343.29C1667.11 1344.63 1658.73 1347.64 1649.84 1349.97C1635.49 1353.74 1633.14 1353.67 1629.02 1349.32C1622.05 1341.98 1616.97 1333.41 1618.18 1331.04C1618.78 1329.89 1625.93 1328.67 1634.08 1328.35ZM1670.1 1325.74C1675.89 1323.43 1671.71 1327.61 1664.53 1331.3C1660.32 1333.47 1659.9 1333.37 1662.42 1330.78C1664.14 1329.01 1667.6 1326.74 1670.1 1325.74ZM1713.47 1330.18C1716.23 1329 1718.86 1328.42 1719.33 1328.89C1720.87 1330.43 1717.68 1332.29 1712.18 1333.05C1706.01 1333.91 1706.31 1333.23 1713.47 1330.18Z" fill="#FA007A"></path> <path d="M665.723 1000.79C676.879 1001.96 697.255 997.487 707.434 991.631C712.15 988.919 716.653 987.341 717.439 988.127C718.226 988.914 719.486 988.172 720.239 986.481C721.208 984.306 724.259 984.989 730.653 988.811C738.002 993.205 741.405 996.907 748.828 1008.57C756.378 1020.44 759.641 1023.96 767.66 1028.88C772.995 1032.15 779.663 1035.14 782.479 1035.53C787.154 1036.18 787.111 1035.74 781.987 1030.53C774.527 1022.93 773.067 1014.5 779.114 1013.94C786.346 1013.27 795.749 1018.31 803.324 1026.94C810.434 1035.03 810.458 1035.25 807.084 1060.06C805.217 1073.79 802.862 1085.22 801.854 1085.46C800.843 1085.7 797.582 1084.38 794.604 1082.53C788.56 1078.78 768.882 1067.43 719.438 1039.2C687.045 1020.7 657.513 1002.3 657.67 1000.73C657.712 1000.3 661.337 1000.33 665.723 1000.79Z" fill="#FAF5E5"></path> <path fill-rule="evenodd" clip-rule="evenodd" d="M574.631 907.291C574.9 908.437 578.139 907.916 581.825 906.135C587.111 903.585 588.607 903.731 588.895 906.826C589.096 908.985 590.278 910.751 591.521 910.752C592.764 910.752 592.079 911.51 590 912.435C587.92 913.361 585.263 913.165 584.096 911.997C581.567 909.469 576.488 910.305 576.488 913.251C576.488 914.396 578.266 915.003 580.435 914.602C583.468 914.04 583.362 914.445 579.975 916.35C577.481 917.753 575.884 920.161 576.296 921.902C576.753 923.834 577.28 923.883 577.716 922.038C578.158 920.162 578.936 920.283 579.869 922.372C580.721 924.287 579.848 926.372 577.769 927.389C575.141 928.674 575.709 928.965 579.939 928.501C583.088 928.154 586.751 926.81 588.076 925.513C590.218 923.418 590.05 923.25 586.56 923.998C583.146 924.731 582.968 924.502 585.198 922.228C586.607 920.793 589.952 919.846 592.632 920.127C595.311 920.409 596.193 920.964 594.593 921.366C592.99 921.766 592.376 923.656 593.227 925.562C595.327 930.278 595.835 930.625 597.784 928.677C598.709 927.752 598.31 926.72 596.895 926.385C595.48 926.051 594.966 925.134 595.752 924.347C596.541 923.559 600.831 926.314 605.288 930.466C609.747 934.62 616.697 939.367 620.736 941.015L628.077 944.011L624.07 937.751C621.277 933.385 621.003 930.85 623.166 929.387C628.216 925.969 637.424 931.731 643.382 942.038C649.994 953.475 661.006 964.542 671.295 970.088C679.675 974.606 684.07 973.83 678.973 968.733C675.534 965.293 675.643 957.542 679.146 956.716C682.786 955.859 697.132 961.464 700.877 965.209C705.713 970.045 700.569 974.064 681.476 980.361C649.052 991.056 635.856 988.808 602.048 966.821C570.864 946.542 564.301 941.012 566.243 936.651C567.093 934.738 566.394 932.552 564.69 931.792C562.985 931.031 562.25 928.926 563.06 927.111C564.684 923.461 560.431 921.475 557.478 924.504C556.332 925.681 557.175 926.146 559.664 925.708C562.837 925.149 562.721 925.551 559.134 927.564C554.922 929.926 555.006 930.341 560.183 932.666C563.843 934.311 565.276 935.741 564.268 936.748C563.416 937.6 562.062 937.641 561.259 936.838C560.456 936.035 558.308 934.713 556.486 933.902C554.468 933.003 553.793 930.39 554.755 927.204C556.032 922.979 558.129 921.42 565.743 919.025C572.095 917.027 574.204 915.643 572.231 914.763C570.545 914.012 570.332 911.713 571.724 909.336C573.052 907.066 574.36 906.146 574.631 907.291ZM577.29 936.236C575.389 928.255 571.821 919.753 570.374 919.753C566.598 919.753 566.044 922.537 568.369 929.833C570.067 935.164 571.748 937.347 574.158 937.348C576.028 937.348 577.438 936.848 577.29 936.236ZM589.415 930.637C591.708 928.299 591.534 928.04 588.152 928.767C583.027 929.866 580.923 931.97 584.179 932.74C585.594 933.075 587.949 932.128 589.415 930.637ZM576.233 942.277C577.648 941.943 578.046 940.911 577.121 939.986C576.195 939.06 574.721 939.017 573.847 939.891C572.973 940.765 572.573 941.795 572.959 942.182C573.346 942.568 574.818 942.61 576.233 942.277ZM590.393 938.189C591.926 936.655 590.456 936.151 586.105 936.717C577.772 937.802 577.489 938.075 583.324 939.425C585.929 940.028 589.11 939.471 590.393 938.189ZM600.965 935.036C601.89 934.111 601.491 933.08 600.076 932.745C598.661 932.411 597.189 932.452 596.803 932.838C596.417 933.224 596.817 934.255 597.692 935.129C598.567 936.004 600.04 935.961 600.965 935.036ZM593.154 946.878C596.282 946.866 596.281 946.502 593.153 945.097C590.988 944.127 589.217 944.133 589.217 945.112C589.216 946.09 590.987 946.885 593.154 946.878ZM604.942 943.781C606.304 942.419 606.263 941.03 604.848 940.696C603.433 940.361 601.603 940.76 600.78 941.583C599.957 942.406 600 943.794 600.875 944.669C601.749 945.543 603.58 945.143 604.942 943.781Z" fill="#FAF5E5"></path> <path fill-rule="evenodd" clip-rule="evenodd" d="M468.659 730.334C479.052 726.372 496.579 726.121 520.96 729.585C540.148 732.311 548.068 738.311 553.155 753.98C556.726 764.985 554.188 768.741 543.45 768.329C530.879 767.847 525.065 777.767 530.827 789.876C533.625 795.757 547.974 795.123 552.177 788.932C560.535 776.62 578.269 787.899 581.251 807.418C583.932 824.968 576.179 871.615 566.051 898.867C561.37 911.461 561.275 911.572 552.486 914.589C541.873 918.231 537.516 915.784 535.729 905.18C533.472 891.792 525.325 886.4 514.61 891.209C509.34 893.575 508.509 895.01 508.511 901.735C508.516 910.257 510.361 912.945 518.832 916.75C524.899 919.476 528.823 925.546 525.086 926.427C523.82 926.725 523.918 928.104 525.303 929.489C526.688 930.874 526.689 934.53 525.304 937.614C520.77 947.717 504.387 949.893 496 941.506C493.096 938.602 494.038 938.255 503.213 938.854C513.935 939.553 518.256 937.353 519.822 930.39C520.515 927.308 519.887 926.521 516.746 926.52C509.643 926.518 499.447 914.024 498.606 904.299L497.847 895.511L492.267 896.491C487.398 897.347 486.403 896.701 484.414 891.388C482.374 885.94 483.011 884.426 490.489 876.948C499.528 867.908 507.498 846.972 510.721 823.789C513.091 806.75 510.667 799.6 499.516 790.725L490.257 783.357L490.289 764.241C490.323 742.751 487.383 737.722 475.598 739.125C469.567 739.845 466.692 741.582 462.927 746.781C459.163 751.98 457.238 753.141 454.454 751.899C449.868 749.856 449.925 748.928 455.151 740.655C458.301 735.67 461.926 732.9 468.659 730.334ZM540.407 744.347C537.61 741.55 521.432 738.47 514.63 739.443C508.769 740.279 505.778 746.118 501.413 765.251C497.89 780.688 498.011 781.903 503.441 785.524C506.618 787.643 509.904 789.375 510.742 789.377C511.58 789.375 513.925 784.989 515.952 779.625C520.948 766.421 531.763 755.746 539.042 756.834C544.511 757.65 544.569 757.596 543.777 752.287C543.336 749.332 541.819 745.759 540.407 744.347ZM550.701 797.653C544.7 803.654 541.819 804.901 534.547 804.644C529.679 804.471 525.568 804.288 525.414 804.236C525.256 804.183 524.996 811.555 524.832 820.615L524.535 837.091L540.614 839.023C557.87 841.098 566.111 839.641 569.457 833.922C573.666 826.73 573.554 809.429 569.247 801.44C562.932 789.725 559.358 788.996 550.701 797.653ZM559.185 861.658C555.125 857.599 534.845 849.416 526.547 848.488C524.291 848.238 522.309 851.371 519.712 859.298C517.702 865.44 514.866 871.654 513.412 873.108C509.011 877.509 510.387 879.74 518.333 881.077C529.444 882.949 536.735 888.583 539.571 897.49C542.532 906.783 545.519 907.79 551.724 901.586C562.822 890.488 566.788 869.261 559.185 861.658Z" fill="#FAF5E5"></path> <path d="M420.342 713.604C428.05 712.301 431.477 710.147 441.027 700.597C451.09 690.534 453.778 688.943 463.262 687.429C484.819 683.991 498.343 687.836 500.646 698.06C501.302 700.973 500.18 701.024 495.648 698.288C486.626 692.842 471.076 690.056 462.007 692.262C455.088 693.946 451.742 696.529 440.587 708.787C433.317 716.776 427.089 724.502 426.746 725.955C426.403 727.408 425.527 728.036 424.799 727.349C424.071 726.662 420.169 724.041 416.127 721.521C407.629 716.225 407.906 715.703 420.342 713.604Z" fill="#FAF5E5"></path> <path d="M482.959 782.254C484.586 783.881 486.342 791.717 486.866 799.67C487.786 813.663 489.5 813.762 490.227 799.864C490.639 791.975 491.081 791.848 499.424 797.247C505.215 800.998 505.691 802.732 505.583 819.722C505.454 840.031 497.572 868.965 492.167 868.963C490.377 868.963 485.404 865.678 481.116 861.663C476.827 857.648 470.479 852.552 467.006 850.338C461.758 846.993 461.163 845.845 463.474 843.534C467.305 839.703 473.616 816.224 475.909 797.256C478.049 779.556 478.756 778.051 482.959 782.254Z" fill="#FAF5E5"></path> <path fill-rule="evenodd" clip-rule="evenodd" d="M445.117 752.959C447.038 754.098 451.569 757.799 455.183 761.182C458.799 764.562 464.015 768.818 466.777 770.639C472.984 774.73 472.527 788.1 465.779 799.825C462.908 804.815 461.79 811.067 462.639 817.364C463.364 822.749 462.959 830.3 461.736 834.143C457.419 847.715 451.899 849.124 440.144 839.645C435.358 835.787 428.971 830.986 425.951 828.977C422.384 826.605 420.737 824.09 421.248 821.801C421.873 819.009 421.485 818.819 419.388 820.878C417.876 822.364 413.872 822.094 410.062 820.255C403.928 817.29 403.708 816.839 407.372 814.695C409.564 813.413 410.8 811.808 410.121 811.129C408.23 809.238 418.141 792.792 423.964 788.161C426.807 785.9 429.804 784.723 430.624 785.543C431.443 786.362 430.549 793.335 428.634 801.035C426.721 808.736 425.912 814.288 426.836 813.369C427.761 812.45 429.791 805.898 431.345 798.807C432.899 791.715 435.301 784.575 436.677 782.938C438.053 781.304 439.382 773.774 439.623 766.205C439.865 758.638 440.416 752.095 440.845 751.666C441.274 751.237 443.198 751.819 445.117 752.959ZM455.125 789.069C453.764 782.12 452.497 772.652 452.313 768.028C451.893 757.538 451.057 758.346 446.822 773.328C444.436 781.765 442.679 784.868 440.812 783.933C439.235 783.144 438.002 789.895 437.751 800.702C437.462 813.054 436.03 820.09 433.237 822.884C430.986 825.134 429.861 827.69 430.736 828.565C431.644 829.473 437.094 825.387 443.451 819.03C455.086 807.395 457.049 806.736 455.942 814.834C455.572 817.535 456.144 818.904 457.216 817.885C458.286 816.873 458.864 814.79 458.501 813.258C458.14 811.727 459.54 806.227 461.613 801.04C463.688 795.852 465.115 789.212 464.787 786.287C464.332 782.225 463.943 782.887 463.142 789.089C461.339 803.048 457.864 803.04 455.125 789.069ZM448.026 832.279C449.081 832.279 450.51 830.965 451.196 829.36C451.957 827.584 451.204 827.584 449.276 829.359C447.532 830.966 446.97 832.279 448.026 832.279Z" fill="#FAF5E5"></path> <path d="M403.24 767.695C412.251 763.384 412.206 763.353 412.496 774.004C412.951 790.669 409.177 805.598 402.928 811.847C399.756 815.019 396.918 816.587 396.621 815.333C396.325 814.08 394.134 813.233 391.751 813.454C386.136 813.973 384.582 812.273 386.574 807.794C387.918 804.774 388.251 804.909 388.595 808.613C388.823 811.05 389.38 812.672 389.833 812.219C391.898 810.155 403.826 779.736 404.848 773.93C406.524 764.399 404.059 768.202 400.059 781.321C398.14 787.613 395.81 793.441 394.881 794.274C392.917 796.032 375.844 794.403 377.62 792.628C378.273 791.975 381.463 791.291 384.708 791.106C390.402 790.783 390.443 790.685 385.918 788.305C381.487 785.978 381.657 785.423 389.009 778.31C393.287 774.168 399.692 769.391 403.24 767.695Z" fill="#FAF5E5"></path> <path d="M409.609 721.618C415.927 727.936 416.029 728.743 412.391 743.659C410.315 752.173 407.811 759.138 406.829 759.138C404.662 759.139 402.526 741.559 402.83 726.243L403.052 715.061L409.609 721.618Z" fill="#FAF5E5"></path> <path d="M420.992 735.773C423.082 742.669 421.98 751.423 418.152 758.329C412.688 768.195 411.205 763.54 414.718 747.54C418.26 731.401 419.158 729.717 420.992 735.773Z" fill="#FAF5E5"></path> <path d="M431.507 740.957C437.932 748.275 438.368 750.136 436.932 764.157C434.935 783.665 432.062 786.625 431.375 769.883C431.081 762.743 429.088 751.856 426.941 745.692C424.796 739.526 423.375 734.151 423.782 733.744C424.189 733.337 427.665 736.584 431.507 740.957Z" fill="#FAF5E5"></path> <path fill-rule="evenodd" clip-rule="evenodd" d="M395.611 707.621C401.242 713.252 401.869 715.287 400.207 722.546C398.847 728.487 396.322 732.488 391.597 736.185C387.919 739.062 385.163 742.495 385.475 743.811C385.787 745.128 385.326 754.04 384.453 763.614C383.358 775.606 381.481 782.307 378.417 785.152C373.973 789.281 373.972 789.279 376.762 784.326L379.553 779.372L371.538 780.326L363.523 781.281L367.188 777.365C369.204 775.212 369.597 773.983 368.061 774.634C366.527 775.287 369.09 764.315 373.758 750.252C381.933 725.622 386.176 717.221 383.192 731.576C382.403 735.364 382.453 738.465 383.304 738.464C384.154 738.466 385.803 730.058 386.97 719.783L389.09 701.099L395.611 707.621ZM372.343 765.487C373.32 765.488 374.115 763.718 374.106 761.551C374.092 758.422 373.728 758.424 372.326 761.55C371.357 763.715 371.363 765.486 372.343 765.487Z" fill="#FAF5E5"></path> <path d="M1290.97 1243.77C1293.68 1244.59 1302.14 1250.23 1309.76 1256.29C1317.69 1262.6 1328.45 1268.99 1334.88 1271.23C1345.81 1275.03 1346.04 1274.99 1342.51 1269.92C1340.51 1267.05 1339.41 1263.64 1340.06 1262.34C1342.01 1258.44 1353.46 1264.66 1365.74 1276.29C1378.64 1288.49 1382.48 1289.84 1381.44 1281.8C1380.76 1276.45 1380.83 1276.38 1386.48 1277C1395.53 1277.99 1406.41 1282.96 1412.21 1288.76C1420.26 1296.81 1436.85 1304.97 1446.78 1305.76L1455.62 1306.46L1449.5 1302.31C1440.16 1295.97 1440.69 1292.5 1451.04 1292.28C1459.23 1292.11 1461.01 1293.06 1470.82 1302.87C1477.64 1309.7 1484.64 1314.73 1489.9 1316.59C1498.72 1319.72 1503.85 1318.21 1496.81 1314.56C1490.68 1311.38 1493.98 1309.6 1505.63 1309.78C1513.18 1309.9 1519.81 1312.31 1530.82 1318.92C1552.12 1331.71 1561.71 1333.91 1557.8 1325.13C1554.2 1317.05 1567.11 1315.2 1579.2 1322.06C1583.11 1324.27 1590.69 1326.93 1596.04 1327.96L1605.78 1329.82L1609.58 1343.45L1613.38 1357.07L1599.78 1358.26C1586.31 1359.43 1560.57 1359.05 1531.93 1357.26C1510.79 1355.93 1474.28 1348.96 1433.21 1338.4C1413.73 1333.39 1393.85 1328.71 1389.04 1327.98C1380.77 1326.75 1380.11 1326.24 1377 1318.66C1370.44 1302.7 1363.92 1299.54 1336.01 1298.82C1323.54 1298.49 1302.2 1290 1294.5 1282.3C1292.36 1280.16 1289.33 1274.8 1287.75 1270.39C1285.47 1264 1285.7 1262.3 1288.89 1262C1292.09 1261.71 1292.2 1260.92 1289.42 1258.15C1285.26 1253.98 1282.5 1245.81 1284.56 1243.75C1285.37 1242.94 1288.25 1242.95 1290.97 1243.77Z" fill="#FAF5E5"></path> <path d="M834.121 1055.71C835.552 1056.47 839.119 1058.62 842.052 1060.5C848.138 1064.4 852.062 1062.36 847.414 1057.71C841.961 1052.26 845.329 1049.27 853.261 1052.53C858.353 1054.63 869.174 1063.51 885.263 1078.81C903.86 1096.49 911.82 1102.84 919.163 1105.84C930.817 1110.6 933.509 1108.84 926.026 1101.36C922.359 1097.69 921.207 1095.05 922.65 1093.6C926.804 1089.45 933.632 1092.27 948.218 1104.17C966.385 1119 974.768 1123.16 975.281 1117.61C976.089 1108.89 992.493 1116.97 1010.47 1134.95C1020 1144.47 1027.2 1149.8 1036.27 1154C1052.04 1161.31 1056.21 1161.61 1049.57 1154.97C1042.95 1148.35 1046.16 1145.21 1056.85 1147.85C1062.84 1149.32 1069.33 1153.64 1080.25 1163.41C1093.11 1174.92 1095.68 1176.47 1097.56 1173.85C1100.2 1170.17 1113.75 1175.99 1127.1 1186.52C1138 1195.13 1160.91 1205.62 1162.38 1202.68C1162.97 1201.5 1162.62 1199.69 1161.6 1198.67C1157.88 1194.95 1162.64 1193.2 1170.72 1195.33C1178.14 1197.27 1179.76 1198.65 1186.17 1208.39C1190.11 1214.38 1195.81 1221.72 1198.84 1224.71C1205.13 1230.92 1220.55 1237.3 1227.66 1236.63C1232 1236.22 1231.91 1235.6 1226.82 1230.51C1219.78 1223.47 1220.32 1220.29 1228.5 1220.7C1233.68 1220.95 1237.97 1223.99 1252.6 1237.74C1267.95 1252.17 1270.79 1255.73 1273.23 1263.69C1274.79 1268.76 1279.23 1279.39 1283.1 1287.3L1290.13 1301.68L1280.57 1299.37C1240.24 1289.63 1124.91 1244.41 1023.01 1198.38C974.369 1176.41 869.616 1124.7 843.597 1109.82C820.208 1096.44 819.027 1094.22 824.153 1073.21C828.135 1056.88 830.033 1053.55 834.121 1055.71Z" fill="#FAF5E5"></path> <path fill-rule="evenodd" clip-rule="evenodd" d="M1634.08 1328.35C1642.24 1328.02 1654.99 1326.1 1662.43 1324.08C1669.86 1322.05 1676.16 1321.32 1676.43 1322.45C1676.7 1323.59 1679.33 1322.9 1682.28 1320.93C1687.46 1317.48 1707.98 1315.2 1707.98 1318.08C1707.98 1318.85 1700.59 1324.02 1691.56 1329.57C1682.53 1335.12 1675.13 1340.23 1675.14 1340.93C1675.14 1341.63 1681.41 1338.41 1689.07 1333.76C1696.73 1329.12 1703.22 1326.26 1703.5 1327.41C1703.77 1328.56 1706.61 1327.82 1709.82 1325.77C1713.03 1323.71 1716.25 1322.62 1716.97 1323.35C1717.69 1324.07 1713.12 1327.69 1706.8 1331.38C1694.78 1338.43 1674.8 1344.75 1672.33 1342.28C1671.54 1341.49 1669.8 1341.94 1668.45 1343.29C1667.11 1344.63 1658.73 1347.64 1649.84 1349.97C1635.49 1353.74 1633.14 1353.67 1629.02 1349.32C1622.05 1341.98 1616.97 1333.41 1618.18 1331.04C1618.78 1329.89 1625.93 1328.67 1634.08 1328.35ZM1664.53 1331.3C1671.71 1327.61 1675.89 1323.43 1670.1 1325.74C1667.6 1326.74 1664.14 1329.01 1662.42 1330.78C1659.9 1333.37 1660.32 1333.47 1664.53 1331.3Z" fill="#FAF5E5"></path> <path d="M1341.11 1309.96C1346.22 1309.02 1352.92 1308.98 1355.98 1309.85C1362.55 1311.73 1368.88 1317.34 1368.11 1320.6C1367.46 1323.33 1355.67 1321.22 1352.2 1317.75C1350.86 1316.41 1349.2 1315.87 1348.51 1316.56C1347.13 1317.94 1331.72 1314.43 1331.78 1312.73C1331.8 1312.15 1335.99 1310.9 1341.11 1309.96Z" fill="#FAF5E5"></path> <path d="M1300.98 1290.14C1314.72 1298.9 1321.46 1300.97 1340.01 1302.07C1357.71 1303.13 1360.67 1304.02 1366.2 1309.87L1372.45 1316.48L1364.9 1311.37C1358.88 1307.28 1353.32 1306.44 1337.3 1307.17L1317.23 1308.09L1305.45 1298.4C1293.64 1288.68 1290.97 1283.77 1300.98 1290.14Z" fill="#FAF5E5"></path> <path d="M1304.62 1301.07C1310.9 1303.81 1312.91 1306.4 1308.76 1306.39C1306.85 1306.39 1304.22 1304.8 1302.92 1302.85C1300.65 1299.43 1300.71 1299.37 1304.62 1301.07Z" fill="#FAF5E5"></path> <path fill-rule="evenodd" clip-rule="evenodd" d="M317.729 637.052C322.491 641.468 338.384 655.984 353.044 669.312C367.704 682.64 381.133 694.941 382.889 696.646C385.326 699.017 384.112 706 377.729 726.326C365.326 765.821 362.232 771.364 348.324 779.003L337.034 785.204L324.644 774.689C317.827 768.905 299.079 753.088 282.98 739.538C266.881 725.989 253.71 714.279 253.709 713.516C253.709 712.753 256.392 711.549 259.672 710.839C279.302 706.599 283.296 701.028 298.402 656.82C303.297 642.492 307.702 630.378 308.187 629.896C308.671 629.418 312.968 632.637 317.729 637.052ZM287.683 709.964C289.634 711.108 289.109 709.871 286.517 707.215C283.925 704.559 282.33 703.622 282.971 705.134C283.612 706.647 285.732 708.82 287.683 709.964Z" fill="#FAF5E5"></path> <path d="M367.759 799.032C372.006 797.173 372.084 797.273 370.486 802.554C369.035 807.348 368.459 807.609 365.605 804.754C363.825 802.975 362.599 801.39 362.877 801.232C363.157 801.077 365.354 800.085 367.759 799.032Z" fill="#FAF5E5"></path> <path d="M356.9 791.603C357.282 793.215 359.877 794.182 362.668 793.751C365.46 793.316 367.002 793.704 366.096 794.61C365.19 795.516 361.893 796.129 358.768 795.972C353.625 795.715 353.232 795.354 354.646 792.178C355.663 789.892 356.448 789.692 356.9 791.603Z" fill="#FAF5E5"></path> <path d="M379.394 800C382.246 799.362 382.614 799.777 381.471 802.341C380.68 804.122 379.124 804.501 377.85 803.227C376.621 801.998 375.687 800.944 375.773 800.883C375.859 800.826 377.488 800.428 379.394 800Z" fill="#FAF5E5"></path> <path d="M458.792 850.658C463.002 851.935 467.747 855.106 483.677 867.295C490.993 872.891 491.216 873.441 487.339 876.354C483.423 879.294 482.445 878.723 468.135 865.112C459.844 857.224 453.376 850.452 453.767 850.061C454.158 849.67 456.42 849.939 458.792 850.658Z" fill="#FAF5E5"></path> <path d="M453.209 877.236C462.839 880.839 465.061 888.604 458.931 897.231C452.482 906.304 444.74 909.81 436.598 907.342C428.109 904.769 426.959 906.495 430.502 916.49C433.346 924.512 433.866 924.993 442.456 927.595C447.394 929.091 453.748 929.413 456.579 928.309C459.41 927.205 462.156 926.733 462.684 927.261C463.554 928.131 460.19 939.052 458.543 940.698C457.177 942.065 435.078 933.736 428.855 929.508C423.396 925.801 422.548 923.857 422.825 915.66C423.219 904.033 427.438 899.212 434.463 902.368C437.333 903.659 442.548 903.328 446.053 901.636C454.138 897.734 455.938 889.91 450.772 881.133L447.139 874.963L453.209 877.236Z" fill="#FAF5E5"></path> <path d="M422.671 874.977C429.015 870.914 439.228 869.281 439.228 872.332C439.228 874.049 426.79 880.31 419.61 882.211C413.132 883.924 414.781 880.03 422.671 874.977Z" fill="#FAF5E5"></path> <path d="M419.529 886.49C423.698 884.051 426.942 886.427 423.771 889.598C422.554 890.815 420.072 891.15 418.256 890.342C416.442 889.532 415.196 888.797 415.488 888.708C415.782 888.618 417.601 887.62 419.529 886.49Z" fill="#FAF5E5"></path> <path d="M581.932 897.12C585.278 900.466 585.181 900.792 580.155 903.028C575.374 905.157 573.736 902.912 576.553 898.098C578.293 895.124 579.684 894.871 581.932 897.12Z" fill="#FAF5E5"></path> <path d="M591.284 914.605C598.18 913.65 595.566 916.198 587.354 918.434C583.731 919.42 582.106 919.13 583.486 917.744C584.794 916.43 588.303 915.016 591.284 914.605Z" fill="#FAF5E5"></path> </svg> 