<?xml version="1.0" encoding="UTF-8"?> <svg xmlns="http://www.w3.org/2000/svg" width="1820" height="1820" viewBox="0 0 1820 1820" fill="none"> <path fill-rule="evenodd" clip-rule="evenodd" d="M1739.01 437.656C1730.06 432.136 1718.87 432.248 1710.92 437.938C1707.26 440.558 1700.41 444.447 1695.68 446.582C1690.69 448.837 1685.09 453.213 1682.29 457.037C1673.45 469.099 1665.11 476.567 1655.56 480.96C1647.03 484.879 1645.86 486.029 1643.66 492.603C1642.32 496.616 1638.98 502.135 1636.25 504.871C1632.22 508.895 1630.06 509.298 1624.94 506.982C1614.98 502.484 1605.87 505.564 1593.59 517.575L1582.88 528.043L1588.12 544.901C1592.88 560.234 1592.93 563.503 1588.63 580.959C1586.03 591.518 1583.79 603.729 1583.66 608.095C1583.52 612.46 1582.77 615.347 1581.99 614.508C1578.16 610.365 1577.62 599.774 1580.28 580.96C1583.59 557.603 1582.6 546.219 1576.48 537.266C1568.15 525.094 1571.15 519.194 1595.55 499.707C1605.06 492.107 1607.29 491.406 1621.25 491.623C1629.67 491.752 1637.52 490.871 1638.72 489.662C1639.92 488.455 1637.79 488.082 1633.98 488.836C1630.18 489.59 1622.05 490.047 1615.92 489.854C1604.45 489.492 1602.06 490.788 1572.44 513.472L1565.78 518.574L1572.69 538.804L1579.59 559.036L1572.85 563.779C1569.14 566.387 1550.39 583.572 1531.17 601.966C1481.59 649.432 1424.97 701.288 1417.25 706.311C1414.39 708.164 1409.29 707.355 1400.55 703.66C1393.62 700.734 1386.86 697.109 1385.52 695.606C1377.77 686.887 1363.61 680.331 1348.21 678.331C1327.26 675.606 1322.07 678.679 1312.7 699.334C1309.03 707.437 1304.39 714.908 1302.39 715.941C1300.4 716.971 1296.79 718.704 1294.37 719.785C1275.39 728.298 1269.83 731.997 1266.07 738.614C1255.74 756.824 1259.08 773.803 1272.91 773.308C1280.69 773.032 1287.4 779.153 1285.06 784.394C1282.8 789.479 1272.71 788.391 1268.81 782.642C1264.65 776.521 1252.42 777.36 1243.2 784.397C1234.5 791.045 1231.81 800.678 1231.46 826.431L1231.24 842.548L1211.89 857.468C1192.47 872.443 1151.64 900.797 1129.72 914.532C1086.05 941.904 1089.93 940.135 1086.6 934.195C1084.94 931.235 1077.55 923.068 1070.19 916.043C1042.59 889.71 1014.03 888.41 1003.91 913.027C1001.92 917.874 1000.52 931.419 1000.79 943.151C1001.2 960.237 1000.26 965.934 996.1 971.865C993.242 975.934 990.08 983.47 989.073 988.612L987.241 997.962L945.277 1019.56C922.195 1031.43 892.855 1046.44 880.077 1052.9C852.894 1066.65 764.364 1107.48 760.364 1108.12C758.856 1108.36 745.978 1104.78 731.745 1100.17C717.513 1095.56 703.118 1091.9 699.756 1092.03C696.393 1092.17 688.014 1094.89 681.136 1098.07C657.355 1109.08 640.463 1113.42 630.249 1111.13C617.006 1108.17 590.675 1109.35 584.248 1113.2C576.232 1118.01 568.844 1128.88 563.39 1143.9C560.679 1151.36 554.591 1163.25 549.861 1170.3C545.133 1177.36 540.013 1186.65 538.483 1190.93C535.75 1198.59 535.33 1198.86 512.97 1206.85C492.986 1213.99 489.229 1214.56 481.944 1211.57C470.972 1207.07 458.311 1206.99 449.626 1211.36C444.419 1213.99 441.697 1213.99 439.231 1211.35C436 1207.91 436.04 1207.85 440.437 1209.6C443.595 1210.86 441.726 1208.09 434.298 1200.5C423.865 1189.86 423.277 1189.58 409.346 1188.9C401.499 1188.52 388.309 1186.87 380.035 1185.24C361.762 1181.64 350.205 1184.79 345.425 1194.68C343.683 1198.28 342.411 1208.96 342.596 1218.41C342.864 1232.05 341.91 1236.61 337.963 1240.56C329.948 1248.57 316.57 1251.43 293.385 1250.07C268.436 1248.61 262.686 1250.42 244.852 1265.33C223.837 1282.91 220.56 1283.92 182.824 1284.35C156.507 1284.65 144.137 1286.11 131.103 1290.47C110.777 1297.27 91.5692 1299.62 49.4296 1300.44C32.2698 1300.77 14.1289 1301.75 9.11454 1302.63L5.48262e-05 1304.22L4.92914 1306.91C15.9188 1312.93 98.1315 1347.11 116.957 1353.49C128.055 1357.26 147.696 1364.08 160.605 1368.65C180.456 1375.68 188.208 1376.99 210.903 1377.15C240.482 1377.36 248.853 1380.26 281.249 1401.55C299.556 1413.58 319.604 1419.6 330.828 1416.45C335.986 1415 343.927 1409.25 356.644 1397.74L375.01 1381.12L357.519 1394.29C333.494 1412.39 325.487 1414.39 304.473 1407.55C300.547 1406.27 303.615 1405.67 313.363 1405.81C327.366 1406.01 328.735 1405.53 336.533 1397.74C343.36 1390.91 344.855 1387.91 345.012 1380.72L345.202 1372L356.933 1367.02C363.383 1364.29 372.763 1359.71 377.774 1356.85L386.885 1351.65L382.346 1358.24C377.95 1364.63 371.861 1381.21 375.086 1378.02C375.964 1377.14 377.45 1373.62 378.387 1370.18C379.324 1366.75 381.698 1362.28 383.66 1360.25C388.844 1354.91 413.948 1345.07 423.118 1344.8C427.442 1344.67 434.852 1341.91 439.583 1338.66C452.162 1330.04 474.576 1324.54 482.171 1328.2C489.621 1331.8 496.285 1330.09 507.483 1321.69C517.051 1314.52 522.482 1315.29 535.946 1325.77C543.753 1331.85 544.751 1331.95 556 1327.88C565.333 1324.49 570.289 1321.07 579.438 1311.68C585.82 1305.13 591.652 1300.39 592.399 1301.13C594.424 1303.16 588.652 1311.77 583.238 1314.8C579.564 1316.86 579.411 1317.29 582.557 1316.74C588.699 1315.65 592.791 1310.6 595.043 1301.32C597.863 1289.7 602.55 1285.81 621.094 1279.66C644.976 1271.74 701.631 1248.29 749.624 1226.46C806.076 1200.79 824.21 1195.49 844.967 1198.62C853.8 1199.95 864.103 1203.24 867.863 1205.92C883.295 1216.93 896.092 1222.84 901.688 1221.53C904.838 1220.79 913.583 1216.43 921.118 1211.83C930.13 1206.34 938.224 1203.26 944.776 1202.84C958.383 1201.95 961.615 1199.58 981.398 1176.03C996.057 1158.59 1000.01 1152.27 1007.99 1133.53C1013.14 1121.42 1017.44 1107.81 1017.54 1103.29L1017.72 1095.07L1045.51 1079.96C1060.8 1071.65 1091.63 1053.82 1114.01 1040.35C1136.4 1026.88 1155.3 1015.82 1156.02 1015.78C1156.73 1015.73 1157.31 1017.39 1157.31 1019.46C1157.31 1026.62 1163.93 1029.73 1183.89 1031.93C1194.91 1033.14 1210.78 1035.42 1219.15 1037C1237.87 1040.53 1244.69 1039.46 1252.35 1031.8C1259.17 1024.98 1258.9 1022.91 1248.68 1003.44C1244.98 996.399 1241.73 987.093 1241.46 982.763L1240.97 974.889L1240.33 981.864C1239.73 988.391 1247.17 1012.01 1250.42 1013.91C1251.24 1014.38 1252.96 1016.93 1254.26 1019.56C1255.99 1023.1 1255.37 1025.6 1251.87 1029.1C1246.59 1034.39 1233.74 1039.22 1231.35 1036.83C1229.32 1034.81 1232.07 1032.12 1235.36 1032.89C1236.78 1033.23 1239.14 1032.29 1240.62 1030.8C1242.26 1029.15 1240.49 1028.99 1236.04 1030.39C1225.26 1033.78 1220.93 1033.61 1191.15 1028.67C1166.8 1024.63 1163.69 1023.56 1161.84 1018.61C1159.99 1013.65 1160.65 1012.33 1168.34 1005.75C1174.14 1000.8 1180.94 997.538 1189.35 995.691C1207.45 991.714 1213.03 988.632 1225.45 975.732C1231.58 969.368 1239.14 963.126 1242.25 961.861C1245.36 960.596 1247.05 960.502 1246.02 961.65C1244.98 962.798 1244.83 964.437 1245.68 965.294C1246.64 966.25 1248.05 964.679 1249.35 961.21C1254.87 946.448 1264.73 953.546 1272.84 978.123C1282.63 1007.81 1288.54 1010.24 1322.86 998.61C1344.3 991.346 1349.47 986.289 1357.6 964.647L1363.58 948.713L1376.78 943.684C1384.71 940.667 1392.88 935.768 1397.21 931.441C1403.31 925.338 1404.3 922.84 1403.65 915.221C1403.22 910.267 1401.59 904.06 1400.01 901.426C1397.35 896.987 1397.56 896.57 1402.87 895.63C1410.41 894.302 1420.47 884.045 1422.69 875.436C1423.66 871.66 1423.28 863.325 1421.84 856.916C1419.47 846.389 1419.77 844.892 1424.89 841.475C1428.01 839.395 1432.55 835.707 1434.98 833.28C1438.01 830.246 1446.42 828.093 1461.88 826.387C1494.25 822.816 1500.93 821.365 1505.34 816.953C1512.09 810.207 1515.54 798.357 1515.07 783.611L1514.62 769.423L1528.57 757.37C1549.51 739.285 1562.15 730.885 1570.28 729.646C1574.3 729.033 1579.82 727.193 1582.55 725.56C1585.28 723.926 1592.72 722.358 1599.09 722.076C1619.32 721.183 1628.43 711.136 1632.53 685.19L1635.16 668.511L1676.97 628.27C1713.53 593.078 1719.64 587.868 1725.68 586.766C1729.47 586.072 1734.26 584.712 1736.33 583.742C1741.98 581.081 1793.07 522.592 1793.55 518.22C1795.56 500.014 1763.63 452.847 1739.01 437.656ZM1731.93 438.545C1724.86 435.761 1717.51 436.723 1717.5 440.431C1717.5 441.372 1719.99 442.999 1723.02 444.046C1728.21 445.836 1728.21 445.915 1723.12 445.36C1720.14 445.035 1716.8 444.323 1715.71 443.776C1714.61 443.229 1710.72 445.068 1707.06 447.863C1701.67 451.971 1700.4 454.442 1700.4 460.772C1700.39 470.816 1707.42 482.961 1717.78 490.826C1730.58 500.535 1734.18 510.031 1729.73 522.356C1726.02 532.655 1721.83 538.598 1718.28 538.6C1717.26 538.601 1714.8 534.265 1712.81 528.967C1710.46 522.689 1705.55 515.663 1698.74 508.805C1686.87 496.851 1681.26 486.937 1680.76 477.041L1680.43 470.228L1673.93 476.725C1663.54 487.109 1665.45 494.638 1685.88 523.969C1704.85 551.192 1710.88 556.184 1728.98 559.642C1740.98 561.937 1742.83 563.356 1734.37 563.783C1716.77 564.674 1700.37 552.826 1682.88 526.578C1677.98 519.235 1671.78 510.109 1669.08 506.298C1666.39 502.488 1663.85 495.424 1663.43 490.602L1662.68 481.833L1657.79 484.762C1655.1 486.373 1651.45 489.612 1649.69 491.959C1646.84 495.75 1647.44 497.41 1655.04 506.739C1659.75 512.521 1667.01 524.571 1671.17 533.517C1683.36 559.69 1699.29 572.663 1723.2 575.874C1729.92 576.775 1733.73 575.853 1737.06 572.521C1739.58 569.994 1741.38 566.768 1741.05 565.354C1740.69 563.855 1749 554.22 1760.98 542.242L1781.52 521.702L1775.89 519.177C1772.8 517.787 1768.58 514.961 1766.51 512.897C1764.27 510.659 1761.34 509.973 1759.25 511.2C1756.61 512.747 1756.58 512.324 1759.13 509.494C1761 507.425 1761.61 504.81 1760.48 503.683C1759.35 502.558 1757.1 497.303 1755.47 492.008C1753.84 486.713 1750.33 477.403 1747.67 471.32C1743.67 462.158 1743.62 461.35 1747.4 466.62C1749.91 470.122 1754.04 478.564 1756.57 485.381C1759.11 492.201 1763.08 500.477 1765.4 503.774C1770.18 510.573 1780.14 514.589 1784.65 511.535C1788.2 509.13 1782.31 493.052 1772.22 477.607C1762.93 463.395 1740.97 442.11 1731.93 438.545ZM1729.3 449.166C1729.95 450.701 1731.74 452.489 1733.27 453.139C1734.81 453.792 1734.27 452.536 1732.09 450.351C1729.9 448.166 1728.65 447.634 1729.3 449.166ZM1688.92 458.559C1685.22 462.258 1683.74 466.346 1683.94 472.277C1684.39 485.458 1686.79 490.482 1699.86 505.6C1706.55 513.344 1713.47 523.103 1715.24 527.285C1717 531.468 1719.15 534.89 1720.01 534.889C1723.02 534.888 1730.47 514.919 1729.12 510.46C1728.38 507.98 1721.96 500.154 1714.88 493.07C1702.3 480.491 1694.77 466.446 1696.56 458.891C1697.81 453.603 1694.04 453.439 1688.92 458.559ZM1721.19 507.865C1716.45 507.866 1713.32 513.773 1716.42 516.874C1718.17 518.622 1720.29 519.359 1721.14 518.511C1721.99 517.665 1721.08 516.26 1719.13 515.391C1716.3 514.133 1716.5 513.33 1720.08 511.472C1724.65 509.104 1725.04 507.862 1721.19 507.865ZM1641.35 508.303C1639.28 511.852 1642.24 520.606 1645.52 520.605C1647.76 520.604 1647.81 508.697 1645.58 506.465C1644.41 505.291 1642.68 506.043 1641.35 508.303ZM1634.5 514.526C1631.85 515.153 1615.73 530.376 1615.73 532.259C1615.73 533.001 1617.63 534.722 1619.96 536.082C1623.19 537.978 1626.17 537.083 1632.7 532.255C1637.38 528.789 1641.49 525.513 1641.83 524.973C1643 523.076 1636.65 514.019 1634.5 514.526ZM1638.89 534.129C1626.49 541.145 1624.07 544.755 1626.55 552.55C1630.02 563.472 1634.57 566.936 1639.27 562.237C1641.44 560.068 1647.28 556.55 1652.26 554.418C1657.23 552.286 1661.26 550.047 1661.21 549.439C1661.16 548.834 1657.81 544.183 1653.77 539.108L1646.41 529.88L1638.89 534.129ZM1673.82 559.568C1669.48 556.379 1669.42 556.548 1672.37 563.775C1676.21 573.203 1677.68 574.684 1680.45 571.917C1683 569.363 1680.29 564.307 1673.82 559.568ZM1657.37 557.216C1654.67 558.455 1649.31 561.654 1645.44 564.326C1638.93 568.827 1638.56 569.808 1640.44 577.616C1644.45 594.199 1648.16 599.123 1659.99 603.547C1667.12 606.21 1671.21 606.537 1672.11 604.518C1673 602.524 1673.96 602.573 1674.89 604.655C1676.94 609.253 1679.39 605.819 1679.04 598.835C1678.88 595.546 1679.66 591.095 1680.77 588.942C1681.89 586.79 1682.16 584.387 1681.37 583.6C1680.59 582.815 1678.73 586.33 1677.26 591.412L1674.57 600.652L1675.46 589.614C1675.95 583.546 1675.08 577.305 1673.52 575.747C1671.96 574.192 1669.2 569.277 1667.37 564.826C1663.13 554.504 1663.19 554.548 1657.37 557.216ZM1612.58 514.507C1609.41 514.665 1602.55 517.087 1597.34 519.883C1588.34 524.724 1587.93 525.258 1588.91 530.835C1589.48 534.058 1591.21 537.969 1592.77 539.523C1595.24 541.994 1597.18 540.757 1608.31 529.625C1615.31 522.628 1620.43 516.299 1619.69 515.56C1618.95 514.821 1615.75 514.347 1612.58 514.507ZM1609.82 539.692C1608.7 539.693 1605.34 542.134 1602.36 545.117C1594.18 553.299 1594.93 566.084 1604.3 577.792C1611.23 586.474 1611.71 586.717 1612.51 582.02C1614.03 573.033 1611.92 539.692 1609.82 539.692ZM1663.68 607.76C1654.73 605.057 1648.9 601.909 1646.19 598.335C1643.96 595.382 1638.83 591.613 1634.8 589.959C1630.77 588.305 1625.18 584.659 1622.38 581.857L1617.28 576.76L1617.04 584.442C1616.91 588.666 1618.33 596.526 1620.2 601.912C1625.58 617.394 1635.51 625.205 1654.47 628.867C1662.37 630.392 1663.82 629.821 1671.47 622.197C1676.06 617.613 1679.21 613.402 1678.46 612.839C1677.71 612.277 1671.06 609.993 1663.68 607.76ZM1657.21 632.117C1652.21 633.196 1630.56 624.963 1625.82 620.186C1623.65 617.991 1618.63 609.418 1614.68 601.135C1606.64 584.307 1602.22 578.628 1600.89 583.421C1600.19 585.908 1599.99 585.704 1599.87 582.402C1599.65 576.495 1596 573.531 1594.12 577.74C1593.05 580.15 1594.1 582.272 1597.52 584.576C1602.67 588.052 1604.64 595.903 1606.01 618.418C1606.63 628.541 1607.28 629.821 1613.35 632.75C1621.3 636.584 1633.17 650.785 1632.12 655.203C1631.59 657.435 1632.2 658.136 1634.23 657.657C1635.8 657.286 1636.23 656.138 1635.2 655.107C1633.76 653.668 1634.29 653.139 1637.43 652.845C1639.9 652.616 1645.37 648.255 1651.14 641.907C1657.3 635.133 1659.48 631.627 1657.21 632.117ZM1566.22 578.699C1559.4 586.472 1559.35 586.852 1563.7 601.259C1568.92 618.568 1574.37 628.433 1576.46 624.333C1577.22 622.833 1576.63 617.209 1575.14 611.836C1573.65 606.462 1573.49 595.997 1574.79 588.578C1577.85 571.111 1575.38 568.263 1566.22 578.699ZM1597.58 626.396C1585.35 618.321 1583.69 617.748 1585.77 622.311C1587.31 625.698 1593.38 631.365 1602.51 637.962C1614.92 646.922 1617.19 649.325 1619.54 655.979C1623.88 668.221 1624.18 681.913 1620.38 693.963C1616.86 705.137 1616.86 705.14 1621.95 700.19C1628.07 694.255 1631.46 671.66 1628.28 658.14C1625.83 647.765 1618.57 640.259 1597.58 626.396ZM1548.83 591.791C1537.21 600.998 1537.28 601.825 1550.89 614.281C1561.53 624.026 1568.13 628.154 1567.22 624.493C1566.06 619.855 1555.8 588.424 1555.27 587.896C1554.9 587.524 1552 589.277 1548.83 591.791ZM1595.41 637.886C1591.57 635.607 1586.45 630.977 1584.04 627.594C1579.94 621.86 1579.54 621.78 1578.13 626.444C1576.4 632.145 1578.76 640.742 1585.42 653.081C1589.63 660.871 1591.17 662.042 1603.04 666.453C1610.19 669.112 1616.76 670.571 1617.63 669.698C1623.19 664.14 1611.54 647.458 1595.41 637.886ZM1567.47 640.651C1565.66 668.145 1569.88 677.383 1587.96 685.465C1596.69 689.368 1597.57 689.234 1605.22 682.847C1609.65 679.143 1613.34 675.554 1613.42 674.868C1613.5 674.182 1608.78 671.966 1602.93 669.941C1589.74 665.382 1583.52 659.305 1576.87 644.475C1569.65 628.395 1568.32 627.853 1567.47 640.651ZM1612.92 685.947C1600.53 694.268 1587.32 705.823 1588.66 707.163C1589.45 707.951 1594.57 708.999 1600.04 709.488L1609.97 710.38L1614.48 700.325C1620.57 686.698 1619.98 681.205 1612.92 685.947ZM1530.47 609.264C1526.81 611.762 1523.55 614.97 1523.21 616.389C1522.03 621.388 1529.67 644.925 1533.83 649.119L1538.04 653.361L1538.85 644.099C1540.87 620.877 1540.96 608.572 1539.11 606.724C1538.01 605.621 1534.12 606.765 1530.47 609.264ZM1611.6 710.318C1607.91 712.956 1606.66 714.672 1608.43 714.671C1610.03 714.671 1612.77 712.712 1614.51 710.317C1617.19 706.634 1616.75 706.634 1611.6 710.318ZM1582.19 686.5C1577.97 684.838 1570.93 679.887 1566.54 675.499C1558.18 667.135 1543.42 658.085 1541.42 660.091C1539.69 661.816 1545.21 685.204 1548.7 690.955C1550.73 694.304 1555.95 697.289 1564.88 700.204C1577.44 704.303 1578.4 704.211 1585.3 698.236C1593.32 691.305 1593.19 690.838 1582.19 686.5ZM1515.2 624.611C1514.09 629.309 1536.55 690.69 1541.93 697.645C1545.34 702.052 1550.08 704.955 1557.62 707.236C1572.35 711.692 1575.86 709.171 1561.69 704.324C1555.44 702.189 1549.15 699.303 1547.7 697.91C1544.07 694.416 1529.25 659.147 1523.4 640.077C1518.31 623.492 1516.34 619.781 1515.2 624.611ZM1590.07 711.987C1585.96 711.496 1581.12 712.562 1579.33 714.355C1576.61 717.072 1576.8 717.683 1580.44 718.019C1582.84 718.24 1585.55 717.672 1586.47 716.754C1587.39 715.837 1590.63 714.963 1593.67 714.81C1601.05 714.44 1599.33 713.088 1590.07 711.987ZM1501.84 637.052C1497.08 641.468 1481.19 655.984 1466.53 669.312C1451.87 682.64 1438.44 694.941 1436.68 696.646C1434.25 699.017 1435.46 706 1441.84 726.326C1454.25 765.821 1457.34 771.364 1471.25 779.003L1482.54 785.204L1494.93 774.689C1501.75 768.905 1520.49 753.088 1536.59 739.538C1552.69 725.989 1565.86 714.279 1565.86 713.516C1565.86 712.753 1563.18 711.549 1559.9 710.839C1540.27 706.599 1536.28 701.028 1521.17 656.82C1516.28 642.492 1511.87 630.378 1511.39 629.896C1510.9 629.418 1506.61 632.637 1501.84 637.052ZM1533.06 707.215C1530.46 709.871 1529.94 711.108 1531.89 709.964C1533.84 708.82 1535.96 706.647 1536.6 705.134C1537.24 703.622 1535.65 704.559 1533.06 707.215ZM1429.28 686.334C1426.18 687.724 1419.7 688.523 1414.87 688.108C1410.04 687.694 1405.43 688.007 1404.64 688.804C1403.84 689.601 1405.87 690.252 1409.15 690.251C1412.43 690.25 1416.15 690.751 1417.42 691.364C1419.83 692.529 1437.26 686.156 1435.76 684.661C1435.29 684.191 1432.37 684.943 1429.28 686.334ZM1423.96 707.621C1418.33 713.252 1417.7 715.287 1419.37 722.546C1420.73 728.487 1423.25 732.488 1427.98 736.185C1431.65 739.062 1434.41 742.495 1434.1 743.811C1433.79 745.128 1434.25 754.04 1435.12 763.614C1436.22 775.606 1438.09 782.307 1441.16 785.152C1445.6 789.281 1445.6 789.279 1442.81 784.326L1440.02 779.372L1448.04 780.326L1456.05 781.281L1452.39 777.365C1450.37 775.212 1449.98 773.983 1451.51 774.634C1453.05 775.287 1450.48 764.315 1445.82 750.252C1437.64 725.622 1433.4 717.221 1436.38 731.576C1437.17 735.364 1437.12 738.465 1436.27 738.464C1435.42 738.466 1433.77 730.058 1432.6 719.783L1430.48 701.099L1423.96 707.621ZM1496.78 785.733C1494.06 789.845 1489.36 795.571 1486.33 798.46C1480.68 803.854 1451.27 814.688 1430.27 819.111C1401.48 825.17 1394.23 829.682 1361.98 861.581C1337.89 885.416 1337.76 885.694 1338.58 910.573C1339.14 927.369 1335.44 936.166 1323.25 947.034C1314.43 954.895 1307.58 954.46 1292.43 945.08C1283.88 939.784 1275.4 938.715 1275.4 942.933C1275.4 945.535 1289.14 951.232 1302.46 954.158C1314.42 956.782 1318.39 956.51 1325.16 952.61C1329.68 950.01 1333.68 946.573 1334.06 944.97C1334.46 943.302 1335.02 943.202 1335.38 944.738C1336.22 948.299 1344.23 947.436 1345.12 943.69C1345.64 941.487 1346.21 942.048 1347.38 945.923C1349.31 952.325 1348.97 952.673 1340.47 952.869C1336.69 952.956 1329.29 954.722 1324.02 956.791C1317.9 959.191 1310.46 959.746 1303.47 958.325C1293.25 956.249 1292.65 956.418 1294.65 960.777C1296.81 965.464 1297.16 988.14 1295.04 986.025C1294.42 985.406 1294.15 979.984 1294.43 973.978C1294.88 964.517 1294.15 962.524 1288.95 959.084C1285.65 956.9 1281.57 953.984 1279.89 952.607C1276.43 949.77 1273.27 951.528 1276.32 954.593C1277.41 955.691 1279.37 961.946 1280.69 968.496C1282.01 975.045 1284.63 981.958 1286.52 983.857C1291.11 988.461 1296.57 990.762 1298.45 988.88C1299.29 988.041 1303.95 986.777 1308.82 986.071C1321.72 984.198 1337.51 974.168 1343.29 964.17C1347.13 957.546 1347.99 956.833 1348.29 960.051C1348.97 967.391 1341.03 975.68 1326.59 982.713C1302.17 994.607 1287.85 995.019 1282.14 983.989C1280.38 980.595 1280.22 980.815 1280.74 985.924C1281.13 989.636 1283.77 993.783 1288.16 997.576C1294.94 1003.43 1295.14 1003.42 1317.76 996.086C1343.63 987.703 1346.05 985.499 1353.81 963.165C1358.25 950.387 1358.17 948.001 1352.74 930.035C1349.52 919.386 1346.79 907.526 1346.67 903.677C1346.39 894.665 1357.17 872.93 1366.51 863.664C1374.62 855.612 1404.43 833.342 1411.21 830.264C1418.64 826.89 1462.74 815.761 1475.53 814.032C1489.37 812.161 1494.54 807.931 1499.67 794.28C1504.77 780.699 1503.19 776.035 1496.78 785.733ZM1504.95 804.732C1503.63 806.044 1502.18 808.884 1501.71 811.043C1500.96 814.533 1501.13 814.703 1503.25 812.583C1504.57 811.271 1506.02 808.431 1506.49 806.272C1507.24 802.783 1507.07 802.613 1504.95 804.732ZM1409.96 721.618C1403.65 727.936 1403.54 728.743 1407.18 743.659C1409.26 752.173 1411.76 759.138 1412.74 759.138C1414.91 759.139 1417.05 741.559 1416.74 726.243L1416.52 715.061L1409.96 721.618ZM1399.23 713.604C1391.52 712.301 1388.1 710.147 1378.55 700.597C1368.48 690.534 1365.8 688.943 1356.31 687.429C1334.75 683.991 1321.23 687.836 1318.93 698.06C1318.27 700.973 1319.39 701.024 1323.93 698.288C1332.95 692.842 1348.5 690.056 1357.57 692.262C1364.49 693.946 1367.83 696.529 1378.99 708.787C1386.26 716.776 1392.48 724.502 1392.83 725.955C1393.17 727.408 1394.05 728.036 1394.77 727.349C1395.5 726.662 1399.4 724.041 1403.45 721.521C1411.94 716.225 1411.67 715.703 1399.23 713.604ZM1445.47 761.551C1445.46 763.718 1446.25 765.488 1447.23 765.487C1448.21 765.486 1448.22 763.715 1447.25 761.55C1445.84 758.424 1445.48 758.422 1445.47 761.551ZM1470.07 784.682C1470.72 786.218 1472.51 788.005 1474.04 788.655C1475.57 789.308 1475.04 788.052 1472.86 785.867C1470.67 783.682 1469.42 783.15 1470.07 784.682ZM1462.67 791.603C1462.29 793.215 1459.7 794.182 1456.9 793.751C1454.11 793.316 1452.57 793.704 1453.48 794.61C1454.38 795.516 1457.68 796.129 1460.81 795.972C1465.95 795.715 1466.34 795.354 1464.93 792.178C1463.91 789.892 1463.13 789.692 1462.67 791.603ZM1398.58 735.773C1396.49 742.669 1397.59 751.423 1401.42 758.329C1406.89 768.195 1408.37 763.54 1404.86 747.54C1401.31 731.401 1400.42 729.717 1398.58 735.773ZM1353.41 694.595C1336.13 692.539 1320.2 701.254 1317.49 714.243L1316.16 720.605L1335.24 722.167C1359.35 724.137 1363.87 726.114 1369.16 736.962C1371.42 741.587 1374.03 745.373 1374.97 745.373C1378.27 745.372 1389.82 732.182 1389.82 728.411C1389.82 725.997 1384.47 719.239 1375.26 710.03C1363.06 697.831 1359.51 695.323 1353.41 694.595ZM1388.07 740.957C1381.64 748.275 1381.21 750.136 1382.64 764.157C1384.64 783.665 1387.51 786.625 1388.2 769.883C1388.49 762.743 1390.49 751.856 1392.63 745.692C1394.78 739.526 1396.2 734.151 1395.79 733.744C1395.38 733.337 1391.91 736.584 1388.07 740.957ZM1451.81 799.032C1447.57 797.173 1447.49 797.273 1449.09 802.554C1450.54 807.348 1451.11 807.609 1453.97 804.754C1455.75 802.975 1456.97 801.39 1456.7 801.232C1456.42 801.077 1454.22 800.085 1451.81 799.032ZM1416.33 767.695C1407.32 763.384 1407.37 763.353 1407.08 774.004C1406.62 790.669 1410.4 805.598 1416.65 811.847C1419.82 815.019 1422.65 816.587 1422.95 815.333C1423.25 814.08 1425.44 813.233 1427.82 813.454C1433.44 813.973 1434.99 812.273 1433 807.794C1431.65 804.774 1431.32 804.909 1430.98 808.613C1430.75 811.05 1430.19 812.672 1429.74 812.219C1427.68 810.155 1415.75 779.736 1414.73 773.93C1413.05 764.399 1415.51 768.202 1419.51 781.321C1421.43 787.613 1423.76 793.441 1424.69 794.274C1426.66 796.032 1443.73 794.403 1441.95 792.628C1441.3 791.975 1438.11 791.291 1434.87 791.106C1429.17 790.783 1429.13 790.685 1433.65 788.305C1438.09 785.978 1437.92 785.423 1430.56 778.31C1426.29 774.168 1419.88 769.391 1416.33 767.695ZM1440.18 800C1437.33 799.362 1436.96 799.777 1438.1 802.341C1438.89 804.122 1440.45 804.501 1441.72 803.227C1442.95 801.998 1443.89 800.944 1443.8 800.883C1443.71 800.826 1442.08 800.428 1440.18 800ZM1350.91 730.334C1340.52 726.372 1322.99 726.121 1298.61 729.585C1279.43 732.311 1271.51 738.311 1266.42 753.98C1262.85 764.985 1265.38 768.741 1276.12 768.329C1288.69 767.847 1294.51 777.767 1288.75 789.876C1285.95 795.757 1271.6 795.123 1267.4 788.932C1259.04 776.62 1241.3 787.899 1238.32 807.418C1235.64 824.968 1243.39 871.615 1253.52 898.867C1258.2 911.461 1258.3 911.572 1267.09 914.589C1277.7 918.231 1282.06 915.784 1283.84 905.18C1286.1 891.792 1294.25 886.4 1304.96 891.209C1310.23 893.575 1311.06 895.01 1311.06 901.735C1311.06 910.257 1309.21 912.945 1300.74 916.75C1294.67 919.476 1290.75 925.546 1294.49 926.427C1295.75 926.725 1295.66 928.104 1294.27 929.489C1292.89 930.874 1292.88 934.53 1294.27 937.614C1298.8 947.717 1315.19 949.893 1323.57 941.506C1326.48 938.602 1325.53 938.255 1316.36 938.854C1305.64 939.553 1301.32 937.353 1299.75 930.39C1299.06 927.308 1299.69 926.521 1302.83 926.52C1309.93 926.518 1320.13 914.024 1320.97 904.299L1321.73 895.511L1327.31 896.491C1332.17 897.347 1333.17 896.701 1335.16 891.388C1337.2 885.94 1336.56 884.426 1329.08 876.948C1320.04 867.908 1312.08 846.972 1308.85 823.789C1306.48 806.75 1308.91 799.6 1320.06 790.725L1329.32 783.357L1329.28 764.241C1329.25 742.751 1332.19 737.722 1343.98 739.125C1350.01 739.845 1352.88 741.582 1356.65 746.781C1360.41 751.98 1362.34 753.141 1365.12 751.899C1369.71 749.856 1369.65 748.928 1364.42 740.655C1361.27 735.67 1357.65 732.9 1350.91 730.334ZM1374.46 752.959C1372.54 754.098 1368 757.799 1364.39 761.182C1360.77 764.562 1355.56 768.818 1352.8 770.639C1346.59 774.73 1347.05 788.1 1353.79 799.825C1356.66 804.815 1357.78 811.067 1356.93 817.364C1356.21 822.749 1356.61 830.3 1357.84 834.143C1362.15 847.715 1367.67 849.124 1379.43 839.645C1384.22 835.787 1390.6 830.986 1393.62 828.977C1397.19 826.605 1398.84 824.09 1398.33 821.801C1397.7 819.009 1398.09 818.819 1400.19 820.878C1401.7 822.364 1405.7 822.094 1409.51 820.255C1415.65 817.29 1415.86 816.839 1412.2 814.695C1410.01 813.413 1408.77 811.808 1409.45 811.129C1411.34 809.238 1401.43 792.792 1395.61 788.161C1392.77 785.9 1389.77 784.723 1388.95 785.543C1388.13 786.362 1389.02 793.335 1390.94 801.035C1392.85 808.736 1393.66 814.288 1392.74 813.369C1391.81 812.45 1389.78 805.898 1388.23 798.807C1386.67 791.715 1384.27 784.575 1382.9 782.938C1381.52 781.304 1380.19 773.774 1379.95 766.205C1379.71 758.638 1379.16 752.095 1378.73 751.666C1378.3 751.237 1376.37 751.819 1374.46 752.959ZM1367.26 768.028C1367.08 772.652 1365.81 782.12 1364.45 789.069C1361.71 803.04 1358.23 803.048 1356.43 789.089C1355.63 782.887 1355.24 782.225 1354.79 786.287C1354.46 789.212 1355.89 795.852 1357.96 801.04C1360.03 806.227 1361.43 811.727 1361.07 813.258C1360.71 814.79 1361.29 816.873 1362.36 817.885C1363.43 818.904 1364 817.535 1363.63 814.834C1362.52 806.736 1364.49 807.395 1376.12 819.03C1382.48 825.387 1387.93 829.473 1388.84 828.565C1389.71 827.69 1388.59 825.134 1386.34 822.884C1383.54 820.09 1382.11 813.054 1381.82 800.702C1381.57 789.895 1380.34 783.144 1378.76 783.933C1376.89 784.868 1375.14 781.765 1372.75 773.328C1368.52 758.346 1367.68 757.538 1367.26 768.028ZM1304.94 739.443C1298.14 738.47 1281.96 741.55 1279.17 744.347C1277.75 745.759 1276.24 749.332 1275.8 752.287C1275 757.596 1275.06 757.65 1280.53 756.834C1287.81 755.746 1298.63 766.421 1303.62 779.625C1305.65 784.989 1307.99 789.375 1308.83 789.377C1309.67 789.375 1312.96 787.643 1316.13 785.524C1321.56 781.903 1321.68 780.688 1318.16 765.251C1313.79 746.118 1310.8 740.279 1304.94 739.443ZM1336.61 782.254C1334.99 783.881 1333.23 791.717 1332.71 799.67C1331.79 813.663 1330.07 813.762 1329.35 799.864C1328.93 791.975 1328.49 791.848 1320.15 797.247C1314.36 800.998 1313.88 802.732 1313.99 819.722C1314.12 840.031 1322 868.965 1327.41 868.963C1329.2 868.963 1334.17 865.678 1338.46 861.663C1342.75 857.648 1349.09 852.552 1352.57 850.338C1357.82 846.993 1358.41 845.845 1356.1 843.534C1352.27 839.703 1345.96 816.224 1343.66 797.256C1341.52 779.556 1340.82 778.051 1336.61 782.254ZM1410.46 854.619C1410.12 854.962 1410.52 856.779 1411.35 858.658C1412.23 860.615 1413.13 860.985 1413.48 859.529C1414.05 857.084 1411.75 853.331 1410.46 854.619ZM1368.38 829.36C1369.06 830.965 1370.49 832.279 1371.55 832.279C1372.6 832.279 1372.04 830.966 1370.3 829.359C1368.37 827.584 1367.62 827.584 1368.38 829.36ZM1378.86 859.372C1375.31 861.625 1372.4 864.252 1372.4 865.207C1372.4 867.6 1382.33 861.46 1383.99 858.042C1384.73 856.52 1382.42 857.119 1378.86 859.372ZM1396.9 874.977C1390.56 870.914 1380.34 869.281 1380.35 872.332C1380.35 874.049 1392.78 880.31 1399.96 882.211C1406.44 883.924 1404.79 880.03 1396.9 874.977ZM1360.78 850.658C1356.57 851.935 1351.83 855.106 1335.9 867.295C1328.58 872.891 1328.36 873.441 1332.23 876.354C1336.15 879.294 1337.13 878.723 1351.44 865.112C1359.73 857.224 1366.2 850.452 1365.81 850.061C1365.42 849.67 1363.15 849.939 1360.78 850.658ZM1400.04 886.49C1395.88 884.051 1392.63 886.427 1395.8 889.598C1397.02 890.815 1399.5 891.15 1401.32 890.342C1403.13 889.532 1404.38 888.797 1404.09 888.708C1403.79 888.618 1401.97 887.62 1400.04 886.49ZM1379.28 881.56C1375.47 881.56 1371.71 886.906 1372.16 891.708C1372.53 895.781 1373.74 896.288 1381.09 895.47C1385.77 894.95 1390.13 893.99 1390.8 893.338C1392.28 891.872 1382.2 881.558 1379.28 881.56ZM1366.36 877.236C1356.73 880.839 1354.51 888.604 1360.64 897.231C1367.09 906.304 1374.83 909.81 1382.98 907.342C1391.46 904.769 1392.61 906.495 1389.07 916.49C1386.23 924.512 1385.71 924.993 1377.12 927.595C1372.18 929.091 1365.82 929.413 1362.99 928.309C1360.16 927.205 1357.42 926.733 1356.89 927.261C1356.02 928.131 1359.38 939.052 1361.03 940.698C1362.4 942.065 1384.5 933.736 1390.72 929.508C1396.18 925.801 1397.03 923.857 1396.75 915.66C1396.35 904.033 1392.13 899.212 1385.11 902.368C1382.24 903.659 1377.02 903.328 1373.52 901.636C1365.44 897.734 1363.64 889.91 1368.8 881.133L1372.43 874.963L1366.36 877.236ZM1285.03 804.644C1277.75 804.901 1274.87 803.654 1268.87 797.653C1260.22 788.996 1256.64 789.725 1250.33 801.44C1246.02 809.429 1245.91 826.73 1250.12 833.922C1253.46 839.641 1261.7 841.098 1278.96 839.023L1295.04 837.091L1294.74 820.615C1294.58 811.555 1294.32 804.183 1294.16 804.236C1294.01 804.288 1289.89 804.471 1285.03 804.644ZM1293.03 848.488C1284.73 849.416 1264.45 857.599 1260.39 861.658C1252.79 869.261 1256.75 890.488 1267.85 901.586C1274.05 907.79 1277.04 906.783 1280 897.49C1282.84 888.583 1290.13 882.949 1301.24 881.077C1309.19 879.74 1310.56 877.509 1306.16 873.108C1304.71 871.654 1301.87 865.44 1299.86 859.298C1297.26 851.371 1295.28 848.238 1293.03 848.488ZM1299.66 899.177C1294.08 899.179 1293.26 901.15 1297.74 903.772C1301.9 906.208 1304.74 905.078 1303.86 901.336C1303.58 900.147 1301.69 899.176 1299.66 899.177ZM1237.64 897.12C1234.3 900.466 1234.39 900.792 1239.42 903.028C1244.2 905.157 1245.84 902.912 1243.02 898.098C1241.28 895.124 1239.89 894.871 1237.64 897.12ZM1244.94 907.291C1244.67 908.437 1241.43 907.916 1237.75 906.135C1232.46 903.585 1230.97 903.731 1230.68 906.826C1230.48 908.985 1229.3 910.751 1228.05 910.752C1226.81 910.752 1227.49 911.51 1229.57 912.435C1231.65 913.361 1234.31 913.165 1235.48 911.997C1238.01 909.469 1243.08 910.305 1243.09 913.251C1243.09 914.396 1241.31 915.003 1239.14 914.602C1236.1 914.04 1236.21 914.445 1239.6 916.35C1242.09 917.753 1243.69 920.161 1243.28 921.902C1242.82 923.834 1242.29 923.883 1241.86 922.038C1241.42 920.162 1240.64 920.283 1239.7 922.372C1238.85 924.287 1239.73 926.372 1241.8 927.389C1244.43 928.674 1243.86 928.965 1239.63 928.501C1236.49 928.154 1232.82 926.81 1231.5 925.513C1229.35 923.418 1229.52 923.25 1233.01 923.998C1236.43 924.731 1236.61 924.502 1234.38 922.228C1232.97 920.793 1229.62 919.846 1226.94 920.127C1224.26 920.409 1223.38 920.964 1224.98 921.366C1226.58 921.766 1227.2 923.656 1226.35 925.562C1224.25 930.278 1223.74 930.625 1221.79 928.677C1220.86 927.752 1221.26 926.72 1222.68 926.385C1224.09 926.051 1224.61 925.134 1223.82 924.347C1223.03 923.559 1218.74 926.314 1214.29 930.466C1209.83 934.62 1202.88 939.367 1198.84 941.015L1191.5 944.011L1195.5 937.751C1198.3 933.385 1198.57 930.85 1196.41 929.387C1191.36 925.969 1182.15 931.731 1176.19 942.038C1169.58 953.475 1158.57 964.542 1148.28 970.088C1139.9 974.606 1135.5 973.83 1140.6 968.733C1144.04 965.293 1143.93 957.542 1140.43 956.716C1136.79 955.859 1122.44 961.464 1118.7 965.209C1113.86 970.045 1119 974.064 1138.1 980.361C1170.52 991.056 1183.72 988.808 1217.53 966.821C1248.71 946.542 1255.27 941.012 1253.33 936.651C1252.48 934.738 1253.18 932.552 1254.88 931.792C1256.59 931.031 1257.32 928.926 1256.51 927.111C1254.89 923.461 1259.14 921.475 1262.1 924.504C1263.24 925.681 1262.4 926.146 1259.91 925.708C1256.74 925.149 1256.85 925.551 1260.44 927.564C1264.65 929.926 1264.57 930.341 1259.39 932.666C1255.73 934.311 1254.3 935.741 1255.31 936.748C1256.16 937.6 1257.51 937.641 1258.31 936.838C1259.12 936.035 1261.27 934.713 1263.09 933.902C1265.11 933.003 1265.78 930.39 1264.82 927.204C1263.54 922.979 1261.44 921.42 1253.83 919.025C1247.48 917.027 1245.37 915.643 1247.34 914.763C1249.03 914.012 1249.24 911.713 1247.85 909.336C1246.52 907.066 1245.21 906.146 1244.94 907.291ZM1249.2 919.753C1247.75 919.753 1244.18 928.255 1242.28 936.236C1242.14 936.848 1243.55 937.348 1245.42 937.348C1247.83 937.347 1249.51 935.164 1251.2 929.833C1253.53 922.537 1252.97 919.753 1249.2 919.753ZM1265.97 948.253C1264.62 949.605 1266.03 954.121 1269.56 959.754C1276.47 970.751 1278.4 971.573 1275.36 962.207C1271.51 950.372 1268.43 945.795 1265.97 948.253ZM1228.29 914.605C1221.39 913.65 1224.01 916.198 1232.22 918.434C1235.84 919.42 1237.47 919.13 1236.09 917.744C1234.78 916.43 1231.27 915.016 1228.29 914.605ZM1231.42 928.767C1228.04 928.04 1227.87 928.299 1230.16 930.637C1231.62 932.128 1233.98 933.075 1235.39 932.74C1238.65 931.97 1236.55 929.866 1231.42 928.767ZM1242.45 939.986C1241.53 940.911 1241.93 941.943 1243.34 942.277C1244.76 942.61 1246.23 942.568 1246.61 942.182C1247 941.795 1246.6 940.765 1245.73 939.891C1244.85 939.017 1243.38 939.06 1242.45 939.986ZM1233.47 936.717C1229.12 936.151 1227.65 936.655 1229.18 938.189C1230.46 939.471 1233.64 940.028 1236.25 939.425C1242.08 938.075 1241.8 937.802 1233.47 936.717ZM1219.5 932.745C1218.08 933.08 1217.68 934.111 1218.61 935.036C1219.53 935.961 1221.01 936.004 1221.88 935.129C1222.76 934.255 1223.16 933.224 1222.77 932.838C1222.38 932.452 1220.91 932.411 1219.5 932.745ZM1226.42 945.097C1223.29 946.502 1223.29 946.866 1226.42 946.878C1228.59 946.885 1230.36 946.09 1230.36 945.112C1230.36 944.133 1228.59 944.127 1226.42 945.097ZM1214.73 940.696C1213.31 941.03 1213.27 942.419 1214.63 943.781C1215.99 945.143 1217.82 945.543 1218.7 944.669C1219.57 943.794 1219.62 942.406 1218.79 941.583C1217.97 940.76 1216.14 940.361 1214.73 940.696ZM1207.26 982.12C1201.89 985.266 1197.49 988.43 1197.49 989.147C1197.49 991.738 1210.77 984.877 1213.86 980.688C1216.22 977.491 1214.54 977.856 1207.26 982.12ZM1190.35 988.912C1186.51 992.754 1151.36 989.835 1135.05 984.317C1119.08 978.916 1115.82 976.945 1105.16 966.21C1098.57 959.586 1086.6 945.73 1078.56 935.42C1068.19 922.128 1061.84 915.528 1056.74 912.735C1052.79 910.567 1047.3 907.302 1044.54 905.478C1035.91 899.784 1027.6 900.305 1018.88 907.087C1010.87 913.311 1012.77 916.581 1021.04 910.806C1026.3 907.137 1032.93 913.093 1038.17 926.19C1043.71 940.049 1043.69 940.039 1045.21 929.926L1046.49 921.395L1053.54 922.129C1059.54 922.757 1062.25 924.74 1071.91 935.543C1078.14 942.515 1085.58 952.317 1088.44 957.325C1091.3 962.332 1098.54 971.536 1104.54 977.778C1117.24 991.006 1127.94 995.308 1150.4 996.215C1165.55 996.827 1195.95 991.89 1193.31 989.248C1192.4 988.342 1191.07 988.19 1190.35 988.912ZM1153.85 1000.79C1142.69 1001.96 1122.32 997.487 1112.14 991.631C1107.42 988.919 1102.92 987.341 1102.13 988.127C1101.35 988.914 1100.09 988.172 1099.33 986.481C1098.36 984.306 1095.31 984.989 1088.92 988.811C1081.57 993.205 1078.17 996.907 1070.75 1008.57C1063.2 1020.44 1059.93 1023.96 1051.91 1028.88C1046.58 1032.15 1039.91 1035.14 1037.09 1035.53C1032.42 1036.18 1032.46 1035.74 1037.59 1030.53C1045.05 1022.93 1046.51 1014.5 1040.46 1013.94C1033.23 1013.27 1023.82 1018.31 1016.25 1026.94C1009.14 1035.03 1009.12 1035.25 1012.49 1060.06C1014.36 1073.79 1016.71 1085.22 1017.72 1085.46C1018.73 1085.7 1021.99 1084.38 1024.97 1082.53C1031.01 1078.78 1050.69 1067.43 1100.13 1039.2C1132.53 1020.7 1162.06 1002.3 1161.9 1000.73C1161.86 1000.3 1158.24 1000.33 1153.85 1000.79ZM1052.24 926.47C1048.22 926.845 1047.65 927.862 1048.25 933.606C1048.63 937.291 1050.6 941.954 1052.62 943.971C1054.63 945.988 1056.99 949.216 1057.84 951.146C1058.97 953.67 1061.28 953.748 1066.08 951.429C1069.75 949.654 1073.4 948.85 1074.19 949.638C1074.97 950.427 1076.34 950.356 1077.21 949.482C1078.12 948.575 1074.1 943.189 1067.87 936.96C1059.75 928.839 1055.73 926.144 1052.24 926.47ZM1021.49 915.284C1009.62 915.879 1004.85 925.532 1008.46 941.635C1010.41 950.303 1009.96 956.928 1006.81 965.844C1000.93 982.519 1004.82 988.244 1017.09 980.998C1021.83 978.198 1028.77 974.312 1032.51 972.362C1037.26 969.881 1040.38 966.672 1042.9 961.671C1046.58 954.365 1046.07 952.791 1028.84 918.261C1027.95 916.465 1024.64 915.127 1021.49 915.284ZM995.979 983.034C995.027 983.987 994.525 987.422 994.866 990.67C995.207 993.918 994.286 998.185 992.822 1000.15C991.357 1002.12 991.21 1009.44 992.492 1016.42C993.776 1023.41 996.802 1043.3 999.218 1060.64C1001.64 1077.97 1004.78 1093.32 1006.21 1094.75C1007.64 1096.18 1007.84 1098.31 1006.66 1099.49C1005.49 1100.67 1003.36 1105.09 1001.95 1109.32C996.638 1125.2 987.516 1137.63 963.646 1161.54C942.191 1183.03 939.168 1185.42 931.034 1187.34C920.894 1189.74 901.32 1183.79 893.378 1175.9C890.657 1173.2 884.369 1170.19 879.405 1169.23C872.104 1167.81 867.978 1168.85 857.832 1174.69C848.451 1180.08 845.774 1182.39 847.225 1183.85C848.293 1184.91 850.598 1185.79 852.35 1185.79C854.099 1185.79 863.669 1191.01 873.613 1197.38C883.558 1203.76 893.656 1209.58 896.057 1210.3C899.828 1211.44 922.008 1203.22 926.045 1199.18C926.82 1198.41 933.069 1197.02 939.932 1196.09C960.791 1193.29 962.535 1192.34 976.35 1176.4C992.574 1157.68 1011.26 1119.17 1010.65 1105.71C1010.44 1100.83 1010.71 1095.81 1011.25 1094.57C1012.79 1091.1 1008.35 1060.69 1003.35 1040.4C1000.46 1028.69 999.462 1015.73 1000.54 1004C1002.07 987.228 1000.24 978.776 995.979 983.034ZM985.452 1055.71C984.021 1056.47 980.454 1058.62 977.521 1060.5C971.436 1064.4 967.511 1062.36 972.159 1057.71C977.612 1052.26 974.245 1049.27 966.312 1052.53C961.22 1054.63 950.399 1063.51 934.311 1078.81C915.713 1096.49 907.753 1102.84 900.411 1105.84C888.756 1110.6 886.064 1108.84 893.547 1101.36C897.215 1097.69 898.366 1095.05 896.923 1093.6C892.769 1089.45 885.942 1092.27 871.355 1104.17C853.188 1119 844.805 1123.16 844.292 1117.61C843.484 1108.89 827.08 1116.97 809.103 1134.95C799.577 1144.47 792.369 1149.8 783.306 1154C767.529 1161.31 763.367 1161.61 770.008 1154.97C776.628 1148.35 773.414 1145.21 762.722 1147.85C756.729 1149.32 750.239 1153.64 739.323 1163.41C726.458 1174.92 723.889 1176.47 722.014 1173.85C719.374 1170.17 705.82 1175.99 692.469 1186.52C681.569 1195.13 658.661 1205.62 657.189 1202.68C656.598 1201.5 656.95 1199.69 657.97 1198.67C661.692 1194.95 656.93 1193.2 648.849 1195.33C641.437 1197.27 639.808 1198.65 633.402 1208.39C629.465 1214.38 623.766 1221.72 620.738 1224.71C614.442 1230.92 599.027 1237.3 591.909 1236.63C587.577 1236.22 587.663 1235.6 592.758 1230.51C599.798 1223.47 599.254 1220.29 591.074 1220.7C585.898 1220.95 581.602 1223.99 566.976 1237.74C551.623 1252.17 548.786 1255.73 546.341 1263.69C544.782 1268.76 540.342 1279.39 536.473 1287.3L529.44 1301.68L539.003 1299.37C579.338 1289.63 694.664 1244.41 796.564 1198.38C845.204 1176.41 949.957 1124.7 975.976 1109.82C999.366 1096.44 1000.55 1094.22 995.421 1073.21C991.439 1056.88 989.54 1053.55 985.452 1055.71ZM986.902 1111.23C967.675 1120.09 896.438 1155.68 894.942 1157.18C892.088 1160.03 896.262 1166.93 904.306 1172.65C915.841 1180.85 918.22 1180.49 918.6 1170.51C919.052 1158.66 928.197 1149.86 952.506 1137.86C970.769 1128.84 992.931 1113.28 990.695 1111.04C990.106 1110.45 988.398 1110.54 986.902 1111.23ZM963.528 1136.97C953.909 1141 941.544 1147.15 936.052 1150.62C927.306 1156.15 925.687 1158.06 922.998 1166.01C921.31 1171.01 920.518 1176.22 921.241 1177.59C921.964 1178.96 927.285 1178.63 933.068 1176.87C942.286 1174.05 945.606 1171.57 960.036 1156.72C969.088 1147.4 977.511 1137.49 978.757 1134.7C980.763 1130.2 979.03 1130.46 963.528 1136.97ZM735.822 1108.11C726.134 1103.46 706.32 1102.08 694.326 1105.21C688.464 1106.74 678.065 1111.66 671.219 1116.13C661.007 1122.81 638.146 1130.61 635.768 1128.23C635.434 1127.9 638.99 1126.09 643.67 1124.21C665.971 1115.24 666.757 1114.29 648.636 1118.16C641.737 1119.64 629.499 1120.29 621.443 1119.6C608.095 1118.47 598.114 1120.51 598.113 1124.37C598.111 1125.2 602.666 1126.08 608.231 1126.34C613.795 1126.59 625.128 1129.06 633.409 1131.84C641.693 1134.62 650.525 1136.57 653.037 1136.18C655.549 1135.79 662.55 1136.24 668.595 1137.19C681.16 1139.16 693.84 1138.68 696.556 1136.13C697.575 1135.18 703.996 1132.29 710.823 1129.73C717.65 1127.16 728.458 1122.77 734.841 1119.96C747.314 1114.49 747.382 1113.65 735.822 1108.11ZM661.049 1141.56C653.115 1141.39 642.012 1140.09 636.377 1138.67C617.492 1133.91 606.952 1134.2 594.585 1139.84C588.005 1142.84 580.04 1147.87 576.887 1151.02C570.755 1157.16 555.248 1184.13 555.133 1188.87C555.092 1190.54 563.645 1188.55 575.779 1184.07C613.763 1170.05 675.473 1144.84 675.474 1143.34C675.476 1142.53 668.982 1141.73 661.049 1141.56ZM559.892 1300.77L523.587 1312.49L531.29 1318.25C535.526 1321.42 540.339 1325.06 541.987 1326.35C543.635 1327.63 545.258 1328.19 545.594 1327.59C545.931 1326.99 549.731 1325.8 554.039 1324.94C560.437 1323.66 565.085 1320.3 579.414 1306.58C589.063 1297.35 596.786 1289.63 596.577 1289.42C596.368 1289.22 579.86 1294.33 559.892 1300.77ZM528.607 1243.77C525.894 1244.59 517.436 1250.23 509.81 1256.29C501.883 1262.6 491.126 1268.99 484.689 1271.23C473.761 1275.03 473.537 1274.99 477.063 1269.92C479.061 1267.05 480.165 1263.64 479.515 1262.34C477.566 1258.44 466.116 1264.66 453.829 1276.29C440.937 1288.49 437.097 1289.84 438.13 1281.8C438.817 1276.45 438.744 1276.38 433.092 1277C424.044 1277.99 413.166 1282.96 407.368 1288.76C399.318 1296.81 382.718 1304.97 372.797 1305.76L363.956 1306.46L370.07 1302.31C379.418 1295.97 378.883 1292.5 368.531 1292.28C360.344 1292.11 358.564 1293.06 348.754 1302.87C341.929 1309.7 334.929 1314.73 329.676 1316.59C320.854 1319.72 315.721 1318.21 322.763 1314.56C328.889 1311.38 325.59 1309.6 313.943 1309.78C306.398 1309.9 299.763 1312.31 288.751 1318.92C267.454 1331.71 257.86 1333.91 261.774 1325.13C265.376 1317.05 252.463 1315.2 240.372 1322.06C236.466 1324.27 228.888 1326.93 223.53 1327.96L213.791 1329.82L209.993 1343.45L206.195 1357.07L219.79 1358.26C233.264 1359.43 259.001 1359.05 287.645 1357.26C308.781 1355.93 345.289 1348.96 386.361 1338.4C405.842 1333.39 425.72 1328.71 430.533 1327.98C438.806 1326.75 439.463 1326.24 442.576 1318.66C449.132 1302.7 455.654 1299.54 483.559 1298.82C496.034 1298.49 517.375 1290 525.076 1282.3C527.213 1280.16 530.247 1274.8 531.822 1270.39C534.1 1264 533.869 1262.3 530.678 1262C527.485 1261.71 527.378 1260.92 530.152 1258.15C534.318 1253.98 537.077 1245.81 535.016 1243.75C534.204 1242.94 531.32 1242.95 528.607 1243.77ZM467.698 1212.94C460.175 1213.25 452.946 1214.57 451.634 1215.89C450.324 1217.2 446.598 1217.71 443.351 1217.02C438.546 1216 436.543 1214.18 432.544 1207.23C426.522 1196.77 419.11 1192.8 408.495 1194.36L400.869 1195.48L400.571 1206.73C400.409 1212.91 401.404 1223.21 402.779 1229.61C405.136 1240.56 402.939 1242.74 399.842 1232.5C398.713 1228.77 397.894 1228.3 395.922 1230.28C394.551 1231.65 394.353 1235.06 395.483 1237.87C397.505 1242.89 397.483 1242.91 393.943 1238.61C391.302 1235.41 391.271 1232.46 393.829 1227.46C397.625 1220.05 398.854 1203 395.814 1199.96C394.768 1198.92 388.462 1198.34 381.799 1198.68C366.361 1199.47 360.315 1204.97 360.71 1217.86C361.162 1232.65 351.172 1247.1 335.28 1254.63C330.863 1256.73 318.062 1259.67 306.833 1261.17C289.612 1263.47 248.32 1277.11 248.321 1280.49C248.32 1281.94 280.809 1275.26 311.711 1267.44C325.895 1263.85 342.304 1260 348.176 1258.87C354.048 1257.75 367.651 1254.17 378.405 1250.93C389.159 1247.69 405.512 1243.02 414.749 1240.55C423.987 1238.07 443.695 1231.66 458.55 1226.3C488.051 1215.65 490.551 1212 467.698 1212.94ZM518.594 1290.14C504.856 1298.9 498.116 1300.97 479.56 1302.07C461.865 1303.13 458.901 1304.02 453.368 1309.87L447.128 1316.48L454.67 1311.37C460.692 1307.28 466.25 1306.44 482.277 1307.17L502.346 1308.09L514.124 1298.4C525.937 1288.68 528.598 1283.77 518.594 1290.14ZM514.948 1301.07C508.673 1303.81 506.661 1306.4 510.813 1306.39C512.724 1306.39 515.353 1304.8 516.649 1302.85C518.923 1299.43 518.863 1299.37 514.948 1301.07ZM369.252 1188.95C363.746 1189.07 357.513 1191.24 353.175 1194.56C346.433 1199.7 346.155 1200.69 347.408 1214.88C348.132 1223.09 349.23 1229.29 349.849 1228.67C351.73 1226.79 356.462 1208.32 355.348 1207.2C354.775 1206.63 355.287 1203.55 356.485 1200.35C358.434 1195.14 359.93 1194.46 370.723 1193.91C384.68 1193.2 383.328 1188.64 369.252 1188.95ZM498.436 1319.28C491.591 1320.08 483.293 1323.29 486.265 1323.99C487.831 1324.36 492.3 1323.65 496.195 1322.41C503.542 1320.07 504.621 1318.56 498.436 1319.28ZM478.466 1309.96C473.353 1309.02 466.657 1308.98 463.589 1309.85C457.026 1311.73 450.695 1317.34 451.465 1320.6C452.11 1323.33 463.902 1321.22 467.373 1317.75C468.715 1316.41 470.375 1315.87 471.06 1316.56C472.448 1317.94 487.85 1314.43 487.797 1312.73C487.778 1312.15 483.58 1310.9 478.466 1309.96ZM426.657 1338.01C423.529 1339.42 423.528 1339.78 426.656 1339.79C428.823 1339.8 430.594 1339 430.593 1338.03C430.593 1337.05 428.822 1337.04 426.657 1338.01ZM285.468 1255.85C271.176 1256.22 260.797 1260.21 249.617 1269.6L239.875 1277.79L263.79 1268.51C276.943 1263.41 289.457 1259.07 291.599 1258.87C299.975 1258.09 294.919 1255.59 285.468 1255.85ZM338.485 1359.1C299.204 1366.94 269.342 1369.75 229.291 1369.38C209.652 1369.19 192.674 1369.95 191.563 1371.07C190.451 1372.18 198.715 1372.68 209.926 1372.19C233.117 1371.17 239.307 1372.81 268.651 1387.74C303.952 1405.71 318.021 1407.65 332.802 1396.57C341.125 1390.34 341.667 1389.3 341.828 1379.32L341.995 1368.7L354.066 1361.73C360.705 1357.89 365.917 1354.53 365.65 1354.27C365.382 1354 353.157 1356.18 338.485 1359.1ZM168.751 1286.97C154.626 1286.53 137.036 1289.79 137.033 1292.84C137.035 1293.5 146.429 1293.16 157.91 1292.06C190.447 1288.96 193.081 1287.73 168.751 1286.97ZM208.597 1328.6C207.938 1329.26 205.653 1335.12 203.524 1341.62C198.306 1357.55 192.577 1362.82 179.561 1363.67C168.131 1364.41 167.75 1364.99 176.545 1368.28C179.852 1369.52 186.044 1368.84 191.065 1366.68C199.49 1363.07 199.966 1362.48 203.785 1350.96C208.087 1337.99 210.522 1326.68 208.597 1328.6ZM185.489 1328.35C177.337 1328.02 164.583 1326.1 157.148 1324.08C149.714 1322.05 143.412 1321.32 143.146 1322.45C142.877 1323.59 140.243 1322.9 137.288 1320.93C132.11 1317.48 111.592 1315.2 111.59 1318.08C111.591 1318.85 118.982 1324.02 128.015 1329.57C137.047 1335.12 144.44 1340.23 144.438 1340.93C144.438 1341.63 138.167 1338.41 130.504 1333.76C122.84 1329.12 116.348 1326.26 116.076 1327.41C115.804 1328.56 112.959 1327.82 109.751 1325.77C106.542 1323.71 103.328 1322.62 102.604 1323.35C101.882 1324.07 106.458 1327.69 112.77 1331.38C124.797 1338.43 144.777 1344.75 147.238 1342.28C148.03 1341.49 149.777 1341.94 151.12 1343.29C152.465 1344.63 160.84 1347.64 169.734 1349.97C184.081 1353.74 186.43 1353.67 190.552 1349.32C197.524 1341.98 202.604 1333.41 201.39 1331.04C200.798 1329.89 193.641 1328.67 185.489 1328.35ZM149.477 1325.74C143.687 1323.43 147.865 1327.61 155.04 1331.3C159.258 1333.47 159.672 1333.37 157.154 1330.78C155.431 1329.01 151.978 1326.74 149.477 1325.74ZM106.106 1330.18C103.347 1329 100.711 1328.42 100.245 1328.89C98.7025 1330.43 101.897 1332.29 107.39 1333.05C113.567 1333.91 113.264 1333.23 106.106 1330.18Z" fill="#FA007A"></path> <path d="M1153.85 1000.79C1142.69 1001.96 1122.32 997.487 1112.14 991.631C1107.42 988.919 1102.92 987.341 1102.13 988.127C1101.35 988.914 1100.09 988.172 1099.33 986.481C1098.36 984.306 1095.31 984.989 1088.92 988.811C1081.57 993.205 1078.17 996.907 1070.75 1008.57C1063.2 1020.44 1059.93 1023.96 1051.91 1028.88C1046.58 1032.15 1039.91 1035.14 1037.09 1035.53C1032.42 1036.18 1032.46 1035.74 1037.59 1030.53C1045.05 1022.93 1046.51 1014.5 1040.46 1013.94C1033.23 1013.27 1023.82 1018.31 1016.25 1026.94C1009.14 1035.03 1009.12 1035.25 1012.49 1060.06C1014.36 1073.79 1016.71 1085.22 1017.72 1085.46C1018.73 1085.7 1021.99 1084.38 1024.97 1082.53C1031.01 1078.78 1050.69 1067.43 1100.13 1039.2C1132.53 1020.7 1162.06 1002.3 1161.9 1000.73C1161.86 1000.3 1158.24 1000.33 1153.85 1000.79Z" fill="#FAF5E5"></path> <path fill-rule="evenodd" clip-rule="evenodd" d="M1244.94 907.291C1244.67 908.437 1241.43 907.916 1237.75 906.135C1232.46 903.585 1230.97 903.731 1230.68 906.826C1230.48 908.985 1229.3 910.751 1228.05 910.752C1226.81 910.752 1227.49 911.51 1229.57 912.435C1231.65 913.361 1234.31 913.165 1235.48 911.997C1238.01 909.469 1243.08 910.305 1243.09 913.251C1243.09 914.396 1241.31 915.003 1239.14 914.602C1236.1 914.04 1236.21 914.445 1239.6 916.35C1242.09 917.753 1243.69 920.161 1243.28 921.902C1242.82 923.834 1242.29 923.883 1241.86 922.038C1241.42 920.162 1240.64 920.283 1239.7 922.372C1238.85 924.287 1239.73 926.372 1241.8 927.389C1244.43 928.674 1243.86 928.965 1239.63 928.501C1236.49 928.154 1232.82 926.81 1231.5 925.513C1229.35 923.418 1229.52 923.25 1233.01 923.998C1236.43 924.731 1236.61 924.502 1234.38 922.228C1232.97 920.793 1229.62 919.846 1226.94 920.127C1224.26 920.409 1223.38 920.964 1224.98 921.366C1226.58 921.766 1227.2 923.656 1226.35 925.562C1224.25 930.278 1223.74 930.625 1221.79 928.677C1220.86 927.752 1221.26 926.72 1222.68 926.385C1224.09 926.051 1224.61 925.134 1223.82 924.347C1223.03 923.559 1218.74 926.314 1214.29 930.466C1209.83 934.62 1202.88 939.367 1198.84 941.015L1191.5 944.011L1195.5 937.751C1198.3 933.385 1198.57 930.85 1196.41 929.387C1191.36 925.969 1182.15 931.731 1176.19 942.038C1169.58 953.475 1158.57 964.542 1148.28 970.088C1139.9 974.606 1135.5 973.83 1140.6 968.733C1144.04 965.293 1143.93 957.542 1140.43 956.716C1136.79 955.859 1122.44 961.464 1118.7 965.209C1113.86 970.045 1119 974.064 1138.1 980.361C1170.52 991.056 1183.72 988.808 1217.53 966.821C1248.71 946.542 1255.27 941.012 1253.33 936.651C1252.48 934.738 1253.18 932.552 1254.88 931.792C1256.59 931.031 1257.32 928.926 1256.51 927.111C1254.89 923.461 1259.14 921.475 1262.1 924.504C1263.24 925.681 1262.4 926.146 1259.91 925.708C1256.74 925.149 1256.85 925.551 1260.44 927.564C1264.65 929.926 1264.57 930.341 1259.39 932.666C1255.73 934.311 1254.3 935.741 1255.31 936.748C1256.16 937.6 1257.51 937.641 1258.31 936.838C1259.12 936.035 1261.27 934.713 1263.09 933.902C1265.11 933.003 1265.78 930.39 1264.82 927.204C1263.54 922.979 1261.44 921.42 1253.83 919.025C1247.48 917.027 1245.37 915.643 1247.34 914.763C1249.03 914.012 1249.24 911.713 1247.85 909.336C1246.52 907.066 1245.21 906.146 1244.94 907.291ZM1242.28 936.236C1244.18 928.255 1247.75 919.753 1249.2 919.753C1252.97 919.753 1253.53 922.537 1251.2 929.833C1249.51 935.164 1247.83 937.347 1245.42 937.348C1243.55 937.348 1242.14 936.848 1242.28 936.236ZM1230.16 930.637C1227.87 928.299 1228.04 928.04 1231.42 928.767C1236.55 929.866 1238.65 931.97 1235.39 932.74C1233.98 933.075 1231.62 932.128 1230.16 930.637ZM1243.34 942.277C1241.93 941.943 1241.53 940.911 1242.45 939.986C1243.38 939.06 1244.85 939.017 1245.73 939.891C1246.6 940.765 1247 941.795 1246.61 942.182C1246.23 942.568 1244.76 942.61 1243.34 942.277ZM1229.18 938.189C1227.65 936.655 1229.12 936.151 1233.47 936.717C1241.8 937.802 1242.08 938.075 1236.25 939.425C1233.64 940.028 1230.46 939.471 1229.18 938.189ZM1218.61 935.036C1217.68 934.111 1218.08 933.08 1219.5 932.745C1220.91 932.411 1222.38 932.452 1222.77 932.838C1223.16 933.224 1222.76 934.255 1221.88 935.129C1221.01 936.004 1219.53 935.961 1218.61 935.036ZM1226.42 946.878C1223.29 946.866 1223.29 946.502 1226.42 945.097C1228.59 944.127 1230.36 944.133 1230.36 945.112C1230.36 946.09 1228.59 946.885 1226.42 946.878ZM1214.63 943.781C1213.27 942.419 1213.31 941.03 1214.73 940.696C1216.14 940.361 1217.97 940.76 1218.79 941.583C1219.62 942.406 1219.57 943.794 1218.7 944.669C1217.82 945.543 1215.99 945.143 1214.63 943.781Z" fill="#FAF5E5"></path> <path fill-rule="evenodd" clip-rule="evenodd" d="M1350.91 730.334C1340.52 726.372 1322.99 726.121 1298.61 729.585C1279.43 732.311 1271.51 738.311 1266.42 753.98C1262.85 764.985 1265.38 768.741 1276.12 768.329C1288.69 767.847 1294.51 777.767 1288.75 789.876C1285.95 795.757 1271.6 795.123 1267.4 788.932C1259.04 776.62 1241.3 787.899 1238.32 807.418C1235.64 824.968 1243.39 871.615 1253.52 898.867C1258.2 911.461 1258.3 911.572 1267.09 914.589C1277.7 918.231 1282.06 915.784 1283.84 905.18C1286.1 891.792 1294.25 886.4 1304.96 891.209C1310.23 893.575 1311.06 895.01 1311.06 901.735C1311.06 910.257 1309.21 912.945 1300.74 916.75C1294.67 919.476 1290.75 925.546 1294.49 926.427C1295.75 926.725 1295.66 928.104 1294.27 929.489C1292.89 930.874 1292.88 934.53 1294.27 937.614C1298.8 947.717 1315.19 949.893 1323.57 941.506C1326.48 938.602 1325.53 938.255 1316.36 938.854C1305.64 939.553 1301.32 937.353 1299.75 930.39C1299.06 927.308 1299.69 926.521 1302.83 926.52C1309.93 926.518 1320.13 914.024 1320.97 904.299L1321.73 895.511L1327.31 896.491C1332.17 897.347 1333.17 896.701 1335.16 891.388C1337.2 885.94 1336.56 884.426 1329.08 876.948C1320.04 867.908 1312.08 846.972 1308.85 823.789C1306.48 806.75 1308.91 799.6 1320.06 790.725L1329.32 783.357L1329.28 764.241C1329.25 742.751 1332.19 737.722 1343.98 739.125C1350.01 739.845 1352.88 741.582 1356.65 746.781C1360.41 751.98 1362.34 753.141 1365.12 751.899C1369.71 749.856 1369.65 748.928 1364.42 740.655C1361.27 735.67 1357.65 732.9 1350.91 730.334ZM1279.17 744.347C1281.96 741.55 1298.14 738.47 1304.94 739.443C1310.8 740.279 1313.79 746.118 1318.16 765.251C1321.68 780.688 1321.56 781.903 1316.13 785.524C1312.96 787.643 1309.67 789.375 1308.83 789.377C1307.99 789.375 1305.65 784.989 1303.62 779.625C1298.63 766.421 1287.81 755.746 1280.53 756.834C1275.06 757.65 1275 757.596 1275.8 752.287C1276.24 749.332 1277.75 745.759 1279.17 744.347ZM1268.87 797.653C1274.87 803.654 1277.75 804.901 1285.03 804.644C1289.89 804.471 1294.01 804.288 1294.16 804.236C1294.32 804.183 1294.58 811.555 1294.74 820.615L1295.04 837.091L1278.96 839.023C1261.7 841.098 1253.46 839.641 1250.12 833.922C1245.91 826.73 1246.02 809.429 1250.33 801.44C1256.64 789.725 1260.22 788.996 1268.87 797.653ZM1260.39 861.658C1264.45 857.599 1284.73 849.416 1293.03 848.488C1295.28 848.238 1297.26 851.371 1299.86 859.298C1301.87 865.44 1304.71 871.654 1306.16 873.108C1310.56 877.509 1309.19 879.74 1301.24 881.077C1290.13 882.949 1282.84 888.583 1280 897.49C1277.04 906.783 1274.05 907.79 1267.85 901.586C1256.75 890.488 1252.79 869.261 1260.39 861.658Z" fill="#FAF5E5"></path> <path d="M1399.23 713.604C1391.52 712.301 1388.1 710.147 1378.55 700.597C1368.48 690.534 1365.8 688.943 1356.31 687.429C1334.75 683.991 1321.23 687.836 1318.93 698.06C1318.27 700.973 1319.39 701.024 1323.93 698.288C1332.95 692.842 1348.5 690.056 1357.57 692.262C1364.49 693.946 1367.83 696.529 1378.99 708.787C1386.26 716.776 1392.48 724.502 1392.83 725.955C1393.17 727.408 1394.05 728.036 1394.77 727.349C1395.5 726.662 1399.4 724.041 1403.45 721.521C1411.94 716.225 1411.67 715.703 1399.23 713.604Z" fill="#FAF5E5"></path> <path d="M1336.61 782.254C1334.99 783.881 1333.23 791.717 1332.71 799.67C1331.79 813.663 1330.07 813.762 1329.35 799.864C1328.93 791.975 1328.49 791.848 1320.15 797.247C1314.36 800.998 1313.88 802.732 1313.99 819.722C1314.12 840.031 1322 868.965 1327.41 868.963C1329.2 868.963 1334.17 865.678 1338.46 861.663C1342.75 857.648 1349.09 852.552 1352.57 850.338C1357.82 846.993 1358.41 845.845 1356.1 843.534C1352.27 839.703 1345.96 816.224 1343.66 797.256C1341.52 779.556 1340.82 778.051 1336.61 782.254Z" fill="#FAF5E5"></path> <path fill-rule="evenodd" clip-rule="evenodd" d="M1374.46 752.959C1372.54 754.098 1368 757.799 1364.39 761.182C1360.77 764.562 1355.56 768.818 1352.8 770.639C1346.59 774.73 1347.05 788.1 1353.79 799.825C1356.66 804.815 1357.78 811.067 1356.93 817.364C1356.21 822.749 1356.61 830.3 1357.84 834.143C1362.15 847.715 1367.67 849.124 1379.43 839.645C1384.22 835.787 1390.6 830.986 1393.62 828.977C1397.19 826.605 1398.84 824.09 1398.33 821.801C1397.7 819.009 1398.09 818.819 1400.19 820.878C1401.7 822.364 1405.7 822.094 1409.51 820.255C1415.65 817.29 1415.86 816.839 1412.2 814.695C1410.01 813.413 1408.77 811.808 1409.45 811.129C1411.34 809.238 1401.43 792.792 1395.61 788.161C1392.77 785.9 1389.77 784.723 1388.95 785.543C1388.13 786.362 1389.02 793.335 1390.94 801.035C1392.85 808.736 1393.66 814.288 1392.74 813.369C1391.81 812.45 1389.78 805.898 1388.23 798.807C1386.67 791.715 1384.27 784.575 1382.9 782.938C1381.52 781.304 1380.19 773.774 1379.95 766.205C1379.71 758.638 1379.16 752.095 1378.73 751.666C1378.3 751.237 1376.37 751.819 1374.46 752.959ZM1364.45 789.069C1365.81 782.12 1367.08 772.652 1367.26 768.028C1367.68 757.538 1368.52 758.346 1372.75 773.328C1375.14 781.765 1376.89 784.868 1378.76 783.933C1380.34 783.144 1381.57 789.895 1381.82 800.702C1382.11 813.054 1383.54 820.09 1386.34 822.884C1388.59 825.134 1389.71 827.69 1388.84 828.565C1387.93 829.473 1382.48 825.387 1376.12 819.03C1364.49 807.395 1362.52 806.736 1363.63 814.834C1364 817.535 1363.43 818.904 1362.36 817.885C1361.29 816.873 1360.71 814.79 1361.07 813.258C1361.43 811.727 1360.03 806.227 1357.96 801.04C1355.89 795.852 1354.46 789.212 1354.79 786.287C1355.24 782.225 1355.63 782.887 1356.43 789.089C1358.23 803.048 1361.71 803.04 1364.45 789.069ZM1371.55 832.279C1370.49 832.279 1369.06 830.965 1368.38 829.36C1367.62 827.584 1368.37 827.584 1370.3 829.359C1372.04 830.966 1372.6 832.279 1371.55 832.279Z" fill="#FAF5E5"></path> <path d="M1416.33 767.695C1407.32 763.384 1407.37 763.353 1407.08 774.004C1406.62 790.669 1410.4 805.598 1416.65 811.847C1419.82 815.019 1422.65 816.587 1422.95 815.333C1423.25 814.08 1425.44 813.233 1427.82 813.454C1433.44 813.973 1434.99 812.273 1433 807.794C1431.65 804.774 1431.32 804.909 1430.98 808.613C1430.75 811.05 1430.19 812.672 1429.74 812.219C1427.68 810.155 1415.75 779.736 1414.73 773.93C1413.05 764.399 1415.51 768.202 1419.51 781.321C1421.43 787.613 1423.76 793.441 1424.69 794.274C1426.66 796.032 1443.73 794.403 1441.95 792.628C1441.3 791.975 1438.11 791.291 1434.87 791.106C1429.17 790.783 1429.13 790.685 1433.65 788.305C1438.09 785.978 1437.92 785.423 1430.56 778.31C1426.29 774.168 1419.88 769.391 1416.33 767.695Z" fill="#FAF5E5"></path> <path d="M1409.96 721.618C1403.65 727.936 1403.54 728.743 1407.18 743.659C1409.26 752.173 1411.76 759.138 1412.74 759.138C1414.91 759.139 1417.05 741.559 1416.74 726.243L1416.52 715.061L1409.96 721.618Z" fill="#FAF5E5"></path> <path d="M1398.58 735.773C1396.49 742.669 1397.59 751.423 1401.42 758.329C1406.89 768.195 1408.37 763.54 1404.86 747.54C1401.31 731.401 1400.42 729.717 1398.58 735.773Z" fill="#FAF5E5"></path> <path d="M1388.07 740.957C1381.64 748.275 1381.21 750.136 1382.64 764.157C1384.64 783.665 1387.51 786.625 1388.2 769.883C1388.49 762.743 1390.49 751.856 1392.63 745.692C1394.78 739.526 1396.2 734.151 1395.79 733.744C1395.38 733.337 1391.91 736.584 1388.07 740.957Z" fill="#FAF5E5"></path> <path fill-rule="evenodd" clip-rule="evenodd" d="M1423.96 707.621C1418.33 713.252 1417.7 715.287 1419.37 722.546C1420.73 728.487 1423.25 732.488 1427.98 736.185C1431.65 739.062 1434.41 742.495 1434.1 743.811C1433.79 745.128 1434.25 754.04 1435.12 763.614C1436.22 775.606 1438.09 782.307 1441.16 785.152C1445.6 789.281 1445.6 789.279 1442.81 784.326L1440.02 779.372L1448.04 780.326L1456.05 781.281L1452.39 777.365C1450.37 775.212 1449.98 773.983 1451.51 774.634C1453.05 775.287 1450.48 764.315 1445.82 750.252C1437.64 725.622 1433.4 717.221 1436.38 731.576C1437.17 735.364 1437.12 738.465 1436.27 738.464C1435.42 738.466 1433.77 730.058 1432.6 719.783L1430.48 701.099L1423.96 707.621ZM1447.23 765.487C1446.25 765.488 1445.46 763.718 1445.47 761.551C1445.48 758.422 1445.84 758.424 1447.25 761.55C1448.22 763.715 1448.21 765.486 1447.23 765.487Z" fill="#FAF5E5"></path> <path d="M528.607 1243.77C525.894 1244.59 517.436 1250.23 509.81 1256.29C501.883 1262.6 491.126 1268.99 484.689 1271.23C473.761 1275.03 473.537 1274.99 477.063 1269.92C479.061 1267.05 480.165 1263.64 479.515 1262.34C477.566 1258.44 466.116 1264.66 453.829 1276.29C440.937 1288.49 437.097 1289.84 438.13 1281.8C438.817 1276.45 438.744 1276.38 433.092 1277C424.044 1277.99 413.166 1282.96 407.368 1288.76C399.318 1296.81 382.718 1304.97 372.797 1305.76L363.956 1306.46L370.07 1302.31C379.418 1295.97 378.883 1292.5 368.531 1292.28C360.344 1292.11 358.564 1293.06 348.754 1302.87C341.929 1309.7 334.929 1314.73 329.676 1316.59C320.854 1319.72 315.721 1318.21 322.763 1314.56C328.889 1311.38 325.59 1309.6 313.943 1309.78C306.398 1309.9 299.763 1312.31 288.751 1318.92C267.454 1331.71 257.86 1333.91 261.774 1325.13C265.376 1317.05 252.463 1315.2 240.372 1322.06C236.466 1324.27 228.888 1326.93 223.53 1327.96L213.791 1329.82L209.993 1343.45L206.195 1357.07L219.79 1358.26C233.264 1359.43 259.001 1359.05 287.645 1357.26C308.781 1355.93 345.289 1348.96 386.361 1338.4C405.842 1333.39 425.72 1328.71 430.533 1327.98C438.806 1326.75 439.463 1326.24 442.576 1318.66C449.132 1302.7 455.654 1299.54 483.559 1298.82C496.034 1298.49 517.375 1290 525.076 1282.3C527.213 1280.16 530.247 1274.8 531.822 1270.39C534.1 1264 533.869 1262.3 530.678 1262C527.485 1261.71 527.378 1260.92 530.152 1258.15C534.318 1253.98 537.077 1245.81 535.016 1243.75C534.204 1242.94 531.32 1242.95 528.607 1243.77Z" fill="#FAF5E5"></path> <path d="M985.452 1055.71C984.021 1056.47 980.454 1058.62 977.521 1060.5C971.436 1064.4 967.511 1062.36 972.159 1057.71C977.612 1052.26 974.245 1049.27 966.312 1052.53C961.22 1054.63 950.399 1063.51 934.311 1078.81C915.713 1096.49 907.753 1102.84 900.411 1105.84C888.756 1110.6 886.064 1108.84 893.547 1101.36C897.215 1097.69 898.366 1095.05 896.923 1093.6C892.769 1089.45 885.942 1092.27 871.355 1104.17C853.188 1119 844.805 1123.16 844.292 1117.61C843.484 1108.89 827.08 1116.97 809.103 1134.95C799.577 1144.47 792.369 1149.8 783.306 1154C767.529 1161.31 763.367 1161.61 770.008 1154.97C776.628 1148.35 773.414 1145.21 762.722 1147.85C756.729 1149.32 750.239 1153.64 739.323 1163.41C726.458 1174.92 723.889 1176.47 722.014 1173.85C719.374 1170.17 705.82 1175.99 692.469 1186.52C681.569 1195.13 658.661 1205.62 657.189 1202.68C656.598 1201.5 656.95 1199.69 657.97 1198.67C661.692 1194.95 656.93 1193.2 648.849 1195.33C641.437 1197.27 639.808 1198.65 633.402 1208.39C629.465 1214.38 623.766 1221.72 620.738 1224.71C614.442 1230.92 599.027 1237.3 591.909 1236.63C587.577 1236.22 587.663 1235.6 592.758 1230.51C599.798 1223.47 599.254 1220.29 591.074 1220.7C585.898 1220.95 581.602 1223.99 566.976 1237.74C551.623 1252.17 548.786 1255.73 546.341 1263.69C544.782 1268.76 540.342 1279.39 536.473 1287.3L529.44 1301.68L539.003 1299.37C579.338 1289.63 694.664 1244.41 796.564 1198.38C845.204 1176.41 949.957 1124.7 975.976 1109.82C999.366 1096.44 1000.55 1094.22 995.421 1073.21C991.439 1056.88 989.54 1053.55 985.452 1055.71Z" fill="#FAF5E5"></path> <path fill-rule="evenodd" clip-rule="evenodd" d="M185.489 1328.35C177.337 1328.02 164.583 1326.1 157.148 1324.08C149.714 1322.05 143.412 1321.32 143.146 1322.45C142.877 1323.59 140.243 1322.9 137.288 1320.93C132.11 1317.48 111.592 1315.2 111.59 1318.08C111.591 1318.85 118.982 1324.02 128.015 1329.57C137.047 1335.12 144.44 1340.23 144.438 1340.93C144.438 1341.63 138.167 1338.41 130.504 1333.76C122.84 1329.12 116.348 1326.26 116.076 1327.41C115.804 1328.56 112.959 1327.82 109.751 1325.77C106.542 1323.71 103.328 1322.62 102.604 1323.35C101.882 1324.07 106.458 1327.69 112.77 1331.38C124.797 1338.43 144.777 1344.75 147.238 1342.28C148.03 1341.49 149.777 1341.94 151.12 1343.29C152.465 1344.63 160.84 1347.64 169.734 1349.97C184.081 1353.74 186.43 1353.67 190.552 1349.32C197.524 1341.98 202.604 1333.41 201.39 1331.04C200.798 1329.89 193.641 1328.67 185.489 1328.35ZM155.04 1331.3C147.865 1327.61 143.687 1323.43 149.477 1325.74C151.978 1326.74 155.431 1329.01 157.154 1330.78C159.672 1333.37 159.258 1333.47 155.04 1331.3Z" fill="#FAF5E5"></path> <path d="M478.466 1309.96C473.353 1309.02 466.657 1308.98 463.589 1309.85C457.026 1311.73 450.695 1317.34 451.465 1320.6C452.11 1323.33 463.902 1321.22 467.373 1317.75C468.715 1316.41 470.375 1315.87 471.06 1316.56C472.448 1317.94 487.85 1314.43 487.797 1312.73C487.778 1312.15 483.58 1310.9 478.466 1309.96Z" fill="#FAF5E5"></path> <path d="M518.594 1290.14C504.856 1298.9 498.116 1300.97 479.56 1302.07C461.865 1303.13 458.901 1304.02 453.368 1309.87L447.128 1316.48L454.67 1311.37C460.692 1307.28 466.25 1306.44 482.277 1307.17L502.346 1308.09L514.124 1298.4C525.937 1288.68 528.598 1283.77 518.594 1290.14Z" fill="#FAF5E5"></path> <path d="M514.948 1301.07C508.673 1303.81 506.661 1306.4 510.813 1306.39C512.724 1306.39 515.353 1304.8 516.649 1302.85C518.923 1299.43 518.863 1299.37 514.948 1301.07Z" fill="#FAF5E5"></path> <path fill-rule="evenodd" clip-rule="evenodd" d="M1501.84 637.052C1497.08 641.468 1481.19 655.984 1466.53 669.312C1451.87 682.64 1438.44 694.941 1436.68 696.646C1434.25 699.017 1435.46 706 1441.84 726.326C1454.25 765.821 1457.34 771.364 1471.25 779.003L1482.54 785.204L1494.93 774.689C1501.75 768.905 1520.49 753.088 1536.59 739.538C1552.69 725.989 1565.86 714.279 1565.86 713.516C1565.86 712.753 1563.18 711.549 1559.9 710.839C1540.27 706.599 1536.28 701.028 1521.17 656.82C1516.28 642.492 1511.87 630.378 1511.39 629.896C1510.9 629.418 1506.61 632.637 1501.84 637.052ZM1531.89 709.964C1529.94 711.108 1530.46 709.871 1533.06 707.215C1535.65 704.559 1537.24 703.622 1536.6 705.134C1535.96 706.647 1533.84 708.82 1531.89 709.964Z" fill="#FAF5E5"></path> <path d="M1451.81 799.032C1447.57 797.173 1447.49 797.273 1449.09 802.554C1450.54 807.348 1451.11 807.609 1453.97 804.754C1455.75 802.975 1456.97 801.39 1456.7 801.232C1456.42 801.077 1454.22 800.085 1451.81 799.032Z" fill="#FAF5E5"></path> <path d="M1462.67 791.603C1462.29 793.215 1459.7 794.182 1456.9 793.751C1454.11 793.316 1452.57 793.704 1453.48 794.61C1454.38 795.516 1457.68 796.129 1460.81 795.972C1465.95 795.715 1466.34 795.354 1464.93 792.178C1463.91 789.892 1463.13 789.692 1462.67 791.603Z" fill="#FAF5E5"></path> <path d="M1440.18 800C1437.33 799.362 1436.96 799.777 1438.1 802.341C1438.89 804.122 1440.45 804.501 1441.72 803.227C1442.95 801.998 1443.89 800.944 1443.8 800.883C1443.71 800.826 1442.08 800.428 1440.18 800Z" fill="#FAF5E5"></path> <path d="M1360.78 850.658C1356.57 851.935 1351.83 855.106 1335.9 867.295C1328.58 872.891 1328.36 873.441 1332.23 876.354C1336.15 879.294 1337.13 878.723 1351.44 865.112C1359.73 857.224 1366.2 850.452 1365.81 850.061C1365.42 849.67 1363.15 849.939 1360.78 850.658Z" fill="#FAF5E5"></path> <path d="M1366.36 877.236C1356.73 880.839 1354.51 888.604 1360.64 897.231C1367.09 906.304 1374.83 909.81 1382.98 907.342C1391.46 904.769 1392.61 906.495 1389.07 916.49C1386.23 924.512 1385.71 924.993 1377.12 927.595C1372.18 929.091 1365.82 929.413 1362.99 928.309C1360.16 927.205 1357.42 926.733 1356.89 927.261C1356.02 928.131 1359.38 939.052 1361.03 940.698C1362.4 942.065 1384.5 933.736 1390.72 929.508C1396.18 925.801 1397.03 923.857 1396.75 915.66C1396.35 904.033 1392.13 899.212 1385.11 902.368C1382.24 903.659 1377.02 903.328 1373.52 901.636C1365.44 897.734 1363.64 889.91 1368.8 881.133L1372.43 874.963L1366.36 877.236Z" fill="#FAF5E5"></path> <path d="M1396.9 874.977C1390.56 870.914 1380.34 869.281 1380.35 872.332C1380.35 874.049 1392.78 880.31 1399.96 882.211C1406.44 883.924 1404.79 880.03 1396.9 874.977Z" fill="#FAF5E5"></path> <path d="M1400.04 886.49C1395.88 884.051 1392.63 886.427 1395.8 889.598C1397.02 890.815 1399.5 891.15 1401.32 890.342C1403.13 889.532 1404.38 888.797 1404.09 888.708C1403.79 888.618 1401.97 887.62 1400.04 886.49Z" fill="#FAF5E5"></path> <path d="M1237.64 897.12C1234.3 900.466 1234.39 900.792 1239.42 903.028C1244.2 905.157 1245.84 902.912 1243.02 898.098C1241.28 895.124 1239.89 894.871 1237.64 897.12Z" fill="#FAF5E5"></path> <path d="M1228.29 914.605C1221.39 913.65 1224.01 916.198 1232.22 918.434C1235.84 919.42 1237.47 919.13 1236.09 917.744C1234.78 916.43 1231.27 915.016 1228.29 914.605Z" fill="#FAF5E5"></path> </svg> 