<?xml version="1.0" encoding="UTF-8"?> <svg xmlns="http://www.w3.org/2000/svg" width="187" height="220" viewBox="0 0 187 220" fill="none"> <path d="M37.1688 86.539C36.5612 87.0281 35.9684 86.8799 35.3756 86.4798C34.3974 85.8277 33.4045 85.1756 32.4116 84.5383C31.8188 84.1678 31.1963 83.8566 30.396 83.412C29.5513 85.3238 28.7658 87.0577 27.9507 88.8658C30.4849 90.244 33.0044 91.2074 35.0792 92.9561C34.5605 94.0528 33.9084 93.875 33.2267 93.5489C31.6705 92.8376 30.1144 92.1262 28.5583 91.4148C28.3508 91.3259 28.1137 91.2666 27.8173 91.1629C27.4616 91.7112 27.1208 92.2596 26.7799 92.7931C26.3946 93.4156 26.3057 94.038 26.4983 94.8086C26.7206 95.7571 26.6465 96.7945 26.691 97.7875C26.7206 98.5433 26.691 99.2991 26.691 100.233C29.0474 100.485 31.3149 100.692 33.5675 100.974C35.7905 101.255 38.058 101.478 39.9846 102.782C39.6438 103.879 38.962 103.745 38.3248 103.656C37.2133 103.508 36.1018 103.271 34.9902 103.182C32.3967 102.975 29.8032 102.826 27.2097 102.678C26.8688 102.663 26.528 102.767 25.9648 102.841C25.6684 104.368 25.3424 105.909 25.0608 107.45C24.8978 108.325 24.957 109.243 24.6755 110.073C23.6825 113.037 22.4228 115.898 20.5999 118.476C20.1702 119.099 19.6366 119.692 19.029 120.151C16.1243 122.404 14.331 125.501 13.012 128.776C12.1377 130.955 10.8039 132.748 9.61824 134.69C9.08472 135.579 8.66976 136.542 8.16587 137.535C8.89206 137.831 8.95134 138.483 8.61048 139.373C7.79537 139.476 7.03955 139.832 6.84689 141.003C6.93581 141.225 7.09883 141.596 7.30631 142.085C6.92099 142.603 6.52084 143.152 5.92804 143.937C5.35006 142.989 4.90545 142.277 4.44603 141.536C4.77207 140.988 5.03883 140.543 5.35006 140.025C5.09811 139.714 4.86099 139.402 4.59423 139.076C4.69797 138.943 4.78689 138.795 4.92027 138.676C6.53566 137.031 7.97321 135.253 8.90688 133.133C9.05508 132.793 8.9217 132.318 8.9217 131.726C9.82573 130.303 11.3967 129.043 12.0636 127.087C11.6782 126.776 11.367 126.538 11.0262 126.257C11.4115 125.056 12.4044 124.434 13.4122 123.826C13.7234 124.078 14.005 124.315 14.5237 124.76C14.4348 123.96 14.3903 123.471 14.3607 123.115C16.1391 121.188 17.8582 119.351 19.5625 117.483C19.7997 117.231 19.9627 116.891 20.0961 116.565C21.2076 113.719 22.8674 111.081 23.5047 108.058C23.727 107.02 23.9048 105.983 24.0678 104.931C24.2012 104.071 24.2457 103.182 24.3494 102.115C23.2379 101.967 22.0968 101.685 20.9704 101.7C17.2506 101.73 13.5307 101.848 9.82572 101.996C7.95839 102.07 6.09106 102.293 4.20891 102.278C10.9076 100.648 17.7248 100.544 24.7644 100.603C24.9422 98.9286 25.1052 97.3873 25.2683 95.846C24.6755 95.6089 24.2753 95.4311 23.727 95.2236C24.7644 93.5934 25.7573 92.0521 26.854 90.333C18.2139 87.2949 9.64788 85.1459 0.874386 83.7677C9.60342 84.1382 18.0212 86.0648 26.276 89.0881C27.0615 87.2504 27.7432 85.6646 28.4546 83.99C28.7213 83.9011 29.0474 83.7973 29.492 83.6639C29.0029 83.1008 28.6028 82.5524 29.2993 81.9744C28.2026 81.3668 27.5209 81.8707 26.6465 82.5524C26.7206 81.8559 26.7651 81.3965 26.8392 80.774C24.2012 78.8622 21.0297 77.8693 18.0657 76.5206C15.1313 75.1868 12.0636 74.1642 9.0699 72.949C15.9909 73.5418 21.8596 77.1875 27.9952 79.7218C29.9662 78.2991 31.8484 75.8093 32.1596 74.2976C31.3692 74.3569 30.3516 74.7867 29.1067 75.587C29.2401 75.2906 29.2845 74.9201 29.492 74.6978C30.6628 73.4529 31.9077 72.2673 33.0636 71.0076C33.5972 70.4296 33.9973 69.733 34.6346 68.8587C32.2337 68.503 30.1885 68.1176 28.1137 67.925C22.4228 67.4063 16.806 66.443 11.2188 65.287C8.50674 64.7238 5.77984 64.2644 3.18632 63.2863C2.47496 63.0195 1.73395 62.8121 1.08187 62.4267C0.681725 62.1896 0.459423 61.6709 0 61.0929C0.607624 60.5594 1.08187 60.1444 1.57093 59.7146C1.97107 59.848 2.29712 59.9666 2.62316 60.0852C2.7269 60.0259 2.8751 59.9814 2.90474 59.9073C3.12704 59.2256 3.60128 58.8403 4.28301 58.6921C5.88358 58.3512 7.48415 57.9511 9.09954 57.6398C11.4708 57.1804 13.842 56.7062 16.228 56.3949C19.77 55.9207 23.3417 55.4909 26.8985 55.1649C31.1815 54.7647 35.4645 54.498 39.9402 54.1571C40.0439 53.5791 40.2366 52.8529 40.3107 52.1119C40.5033 50.1853 40.6515 48.2439 40.7849 46.3025C40.9479 44.1091 41.4518 42.0046 42.1928 39.9446C42.3707 39.4408 42.8894 39.0258 43.334 38.6849C43.9268 38.2107 44.6085 37.855 45.2458 37.44C45.8089 36.2989 43.9416 34.4612 46.2091 33.987C46.135 28.7406 46.5203 23.687 48.0319 18.7223C48.6692 16.603 48.8174 14.3207 49.2768 12.1421C49.5288 10.9417 49.9437 9.77092 50.3142 8.58531C50.5217 7.93322 50.8626 7.41452 51.5739 7.48862C51.737 4.86546 53.2783 2.89439 54.3601 0.789937C55.3531 0.597276 55.605 1.23454 55.857 1.82734C56.3905 3.08705 57.1463 4.1541 58.1392 5.14705C59.5 7.25488 60.3787 8.58531 61.5 12.0829C63 15.2549 63.5782 18.0257 65.2233 21.6418C65.6382 21.4492 66.0235 21.3454 66.2903 21.1083C66.8238 20.6489 67.3573 20.1598 67.7871 19.6115C69.3136 17.6256 71.3884 17.2254 73.73 17.2699C74.634 17.2847 75.538 16.8994 76.4569 16.766C80.562 16.188 84.682 16.0398 88.8168 16.1139C91.766 16.1584 94.7301 16.025 97.6793 16.1287C101.206 16.2621 104.748 16.5733 108.276 16.8401C108.928 16.8846 109.713 16.9142 109.832 18.0257C110.113 17.7145 110.306 17.4774 110.632 17.1069C111.684 17.344 112.825 17.6108 113.967 17.8479C114.663 17.9961 115.034 18.3221 115.345 19.0187C115.641 19.6856 116.338 20.1894 116.916 20.7082C117.627 21.3454 118.383 21.9234 119.154 22.5607C119.717 22.2494 120.25 21.953 120.828 21.627C121.377 20.7823 120.739 19.3743 122.029 18.7964C121.48 17.7145 122.458 17.0179 122.755 16.1584C123.229 14.7949 124 13.5204 124.518 12.157C124.993 10.8972 125.319 9.59308 125.689 8.36301C128.179 6.48085 129.039 3.42791 131.217 1.10116C131.602 1.75324 132.032 2.24231 132.225 2.82029C132.936 4.92474 133.514 7.08848 134.255 9.17811C134.433 9.66718 135.011 10.0229 135.485 10.5267C135.485 11.2826 135.441 12.1718 135.485 13.0462C135.53 13.8613 136.004 14.8246 135.708 15.447C135.307 16.2621 135.782 17.0476 135.293 17.7589C135.737 18.085 136.108 18.3666 136.478 18.6482C136.404 18.6926 136.33 18.7519 136.241 18.7964C136.612 19.4781 136.997 20.1598 137.323 20.8712C137.575 21.4047 137.871 21.953 137.916 22.5162C138.02 23.7907 137.916 25.0801 137.99 26.3546C138.064 27.644 137.99 29.0222 138.42 30.1782C138.924 31.5268 138.805 32.7865 138.746 33.4831C139.25 35.2615 139.59 36.4619 139.931 37.6772C139.857 37.692 139.783 37.7216 139.724 37.7364C139.783 37.8402 139.813 37.9884 139.902 38.0328C142.258 39.2926 142.525 41.6786 142.881 43.9016C143.325 46.6878 143.473 49.5184 143.77 52.4973C144.244 52.5417 144.748 52.6306 145.267 52.6306C148.809 52.6455 152.365 52.6306 155.907 52.6751C161.287 52.764 166.608 53.3865 171.869 54.4832C174.077 54.9426 176.27 55.565 178.434 56.2319C179.545 56.5728 180.568 57.1804 181.591 57.6547C181.576 58.618 180.998 58.8995 180.39 59.1663C176.878 60.7224 173.188 61.7598 169.438 62.5601C167.2 63.0492 164.948 63.479 162.739 64.0866C158.975 65.1092 155.137 65.7464 151.254 66.1614C150.439 66.2503 149.624 66.3985 148.809 66.5615C147.297 66.8579 146.808 68.1028 147.771 69.2884C148.32 69.9553 148.972 70.5778 149.683 71.0668C150.335 71.5115 150.661 72.0302 150.794 72.8897C150.38 73.1417 149.979 73.3936 149.564 73.6307C150.335 75.0535 151.046 76.3873 151.787 77.6914C152.484 78.9215 153.136 80.1071 153.329 81.5743C153.447 82.4635 154.233 83.2786 154.707 84.1234C160.324 80.5665 173.795 75.8834 177.782 76.1946C175.781 76.8319 174.062 77.3654 172.358 77.9434C166.845 79.8403 161.45 82.0189 156.278 84.7162C155.463 85.1459 154.855 85.9462 154.07 86.6576C155.152 88.762 156.767 90.5849 156.871 93.2081C157.73 93.1488 158.501 93.1784 159.227 93.0154C161.45 92.4967 163.644 91.8002 165.881 91.3704C168.816 90.8072 171.795 90.4812 174.729 89.9625C177.337 89.5179 179.931 89.177 182.584 89.1622C183.562 89.1622 184.54 88.9695 185.533 88.9399C186.022 88.9251 186.526 89.0881 187 89.2659C182.124 90.4367 177.1 90.3923 172.224 91.6075C167.408 92.7931 162.473 93.5786 157.419 94.5715C157.419 95.4607 157.33 96.1573 157.434 96.839C157.76 98.8545 158.145 100.87 158.531 103.019H164.192C164.473 103.375 164.696 103.686 165.037 104.116C165.318 103.701 165.511 103.389 165.792 102.96C166.163 103.152 166.548 103.345 166.83 103.478C168.593 102.619 170.461 103.123 172.239 103.182C174.121 103.241 176.003 103.493 177.886 103.716C179.738 103.938 181.591 104.234 183.428 104.783C181.887 104.783 180.331 104.827 178.79 104.783C176.389 104.694 173.988 104.486 171.602 104.442C167.6 104.397 163.599 104.442 159.598 104.457C159.316 104.457 159.02 104.516 158.649 104.56C158.456 105.198 158.279 105.805 158.086 106.502C159.375 107.243 159.286 108.577 159.435 109.762C159.553 110.696 159.761 111.526 160.161 112.415C160.65 113.512 160.635 114.816 160.902 116.016C161.376 118.195 161.895 120.373 162.413 122.552C162.473 122.833 162.591 123.115 162.769 123.337C164.473 125.442 166.267 127.442 168.43 129.088C169.497 129.903 170.12 130.97 170.238 132.363C170.268 132.793 170.609 133.193 170.816 133.608C171.543 135.09 172.284 136.557 172.995 138.039C173.099 138.246 173.069 138.572 173.217 138.691C174.862 139.995 175.514 141.907 176.463 143.759C176.167 144.174 175.826 144.634 175.559 145.004C173.899 142.515 172.298 140.114 170.624 137.594C171.039 136.779 170.713 135.949 170.09 135.164C169.053 133.874 168.06 132.555 167.037 131.251C166.889 131.059 166.593 130.91 166.578 130.733C166.474 129.147 165.17 128.495 164.177 127.65C162.28 126.02 161.346 123.752 160.205 121.648C159.687 120.685 159.924 119.336 159.494 118.299C158.397 115.661 158.59 112.83 158.086 110.059C156.174 109.08 157.552 106.902 156.293 105.346C153.862 105.568 151.224 105.79 148.601 106.057C147.134 106.205 145.667 106.472 144.2 106.561C143.562 106.605 142.895 106.339 142.317 106.22C142.14 105.005 142.836 104.679 143.518 104.501C144.778 104.175 146.052 103.864 147.327 103.716C150.202 103.404 153.077 103.197 155.952 102.945C156.115 102.93 156.278 102.841 156.678 102.723C156.13 100.529 157.049 98.0691 155.196 96.0535C153.759 96.0091 152.662 96.8835 151.461 97.4466C150.824 97.743 150.217 98.1283 149.55 98.3506C148.734 98.6174 148.616 98.5137 147.816 97.5504C148.349 96.2758 149.49 95.6386 150.676 95.1199C151.862 94.6012 153.077 94.1862 154.381 93.6823C154.188 93.134 154.025 92.6597 153.833 92.1262C154.055 91.7409 154.277 91.3556 154.544 90.8665C153.936 89.7995 153.329 88.7324 152.691 87.6061C150.617 88.3619 149.061 89.6068 147.475 90.8072C145.652 92.1707 144.14 93.9639 141.858 94.6901C141.413 94.8383 141.087 95.4311 140.658 95.5052C139.828 95.6386 139.19 95.2384 138.909 94.2899C142.94 90.1848 147.786 87.2949 152.825 84.479C152.41 83.4565 152.099 82.5228 151.669 81.6484C150.72 79.6921 149.727 77.7803 148.734 75.8389C148.631 75.6463 148.527 75.424 148.349 75.2906C147.134 74.3421 146.689 73.1861 147.371 71.7634C146.526 70.7556 145.726 69.822 144.896 68.829C144.392 68.7253 143.77 68.6067 143.014 68.4585C142.451 68.9031 141.769 69.4514 141.132 69.9702C140.272 69.8368 139.324 69.7034 138.39 69.5552C138.138 70.0294 137.975 70.3258 137.738 70.7408C136.849 70.6963 135.871 70.8149 134.981 70.5778C133.855 70.2814 132.892 70.3851 132.403 70.7556C130.713 70.889 129.498 70.9631 128.283 71.1113C125.645 71.4225 123.022 71.8375 120.398 72.1191C116.827 72.5044 113.24 72.8304 109.654 73.1268C108.127 73.2454 106.586 73.1861 105.045 73.2306C101.859 73.3195 98.6722 73.5122 95.4859 73.527C92.7145 73.527 89.9284 73.1861 87.1718 73.275C82.0885 73.4232 77.0201 73.2158 71.9516 73.1861C68.6022 73.1713 65.2677 72.7712 61.9184 72.5489C61.622 72.534 61.3256 72.5044 61.0292 72.5192C57.6946 72.6971 54.4342 72.1635 51.1442 71.7486C49.6473 71.5707 48.1209 71.5707 46.1498 71.4818C45.6311 71.4077 44.6678 71.1409 43.6897 71.1261C41.8371 71.0965 40.0143 70.9779 38.2359 70.3555C37.5838 70.1184 36.8724 70.1184 36.161 69.9998C35.7461 70.4889 35.42 70.889 35.0644 71.3188C35.2422 71.7634 35.42 72.1932 35.5238 72.4599C35.0347 73.3047 34.6494 74.0012 34.2492 74.6978L34.2344 74.6385C33.1822 75.8982 32.1448 77.1579 31.3 78.1657V81.1742C31.8632 81.4557 32.6042 81.7966 33.2859 82.2116C34.4419 82.9229 35.5831 83.6343 36.6649 84.4494C36.9761 84.6717 37.0354 85.2349 37.1984 85.635C37.1392 85.961 37.0799 86.2723 37.0206 86.5983L37.1688 86.539ZM142.584 54.9426C142.273 51.4895 141.977 48.2884 141.68 45.0872C138.499 45.601 136.592 45.5565 135.96 44.9538C137.916 44.7019 139.679 44.4648 141.636 44.2128C141.473 43.042 141.369 41.9454 141.176 40.8635C141.028 40.0187 140.643 39.3963 139.739 39.011C137.516 38.0773 135.382 36.951 133.485 35.4245C132.655 34.7724 131.78 34.1648 130.906 33.572C129.335 32.5198 127.586 31.6898 126.193 30.445C122.592 27.2438 118.561 24.4725 115.626 20.5599C114.93 19.6411 113.996 19.152 112.944 18.989C110.202 18.5592 107.461 17.9961 104.689 17.8923C99.3836 17.6997 94.078 17.759 88.7576 17.7441C86.3567 17.7441 83.9707 17.759 81.5698 17.7441C81.1252 17.7441 80.6954 17.507 80.4879 17.4477C78.4872 17.922 76.7088 18.5592 75.1231 18.0257C73.9819 18.3518 73.1075 18.7815 72.2183 18.8408C70.4251 18.9446 69.0617 19.6856 68.0391 21.1379C66.9868 22.6496 65.7271 23.9538 64.2451 25.0801C63.4893 25.6432 62.8076 26.3101 62.0962 26.9326C59.1618 29.4965 56.2126 32.0455 52.7447 33.898C52.2705 34.15 51.7962 34.4167 51.4109 34.7576C49.3657 36.6101 47.0538 37.9884 44.5048 38.9813C43.6155 39.3222 43.1709 39.915 43.0227 40.7746C42.8153 41.9898 42.6078 43.2199 42.504 44.45C42.2521 47.1472 42.0743 49.8593 41.852 52.5714C41.7927 53.2679 41.6741 53.9496 41.5704 54.6758C44.564 56.1875 47.7059 56.6617 50.8329 56.9878C50.9811 57.6398 51.0701 58.0993 51.2034 58.5439C51.2183 58.6031 51.3813 58.618 51.5443 58.6772C51.7221 58.203 51.9 57.7288 52.1075 57.1804C52.6855 57.2101 53.219 57.2397 53.7377 57.2842C56.7313 57.5806 59.725 57.9659 62.7335 58.1882C65.6827 58.4105 68.6319 58.5142 71.5959 58.5883C76.2494 58.7069 80.9029 58.7958 85.5416 58.8106C90.0321 58.8254 94.5078 58.7662 98.9982 58.6772C102.896 58.6031 106.779 58.4253 110.662 58.2919C113.27 58.203 115.893 58.5142 118.605 57.9214C118.516 58.4846 118.457 58.8403 118.413 59.1663C119.85 59.8332 119.984 58.5142 120.443 58.0103C124.207 57.5806 127.838 57.2249 131.425 56.721C135.085 56.2171 138.716 55.565 142.584 54.9278V54.9426ZM21.1186 65.7909C21.4002 65.7168 21.7855 65.5093 22.1264 65.5389C24.305 65.7168 26.4835 65.8057 28.6324 66.1762C32.2485 66.8135 35.8498 67.2581 39.5252 67.3174C42.3558 67.3618 45.1717 67.7027 48.0023 67.7916C49.2175 67.8361 50.4328 67.6138 51.7221 67.4952C52.1223 67.6286 52.641 67.8953 53.1745 67.9398C56.4201 68.1473 59.6509 68.3251 62.8965 68.4733C66.3792 68.6364 69.8619 68.7549 73.3447 68.9179C74.5154 68.9772 75.7011 69.1699 76.8718 69.1402C82.296 68.992 87.7202 68.7846 93.1443 68.6067C95.3377 68.5326 97.5162 68.5326 99.7096 68.4437C107.268 68.1473 114.841 67.8657 122.399 67.4952C126.401 67.3025 130.417 67.021 134.403 66.606C139.101 66.1169 143.785 65.5389 148.453 64.7979C154.514 63.8198 160.546 62.7231 166.563 61.5227C169.616 60.9003 172.595 59.9073 175.618 59.107C176.952 58.7513 178.301 58.4846 179.634 58.1734C179.634 58.04 179.605 57.9066 179.59 57.788C168.223 53.8014 156.382 53.7866 144.585 53.5495C144.466 53.8014 144.363 53.9496 144.303 54.1275C144.244 54.3498 144.214 54.5869 144.185 54.824C143.918 57.2101 143.844 57.3583 141.473 57.7288C136.686 58.4698 131.914 59.2552 127.112 59.8036C122.132 60.3667 117.123 60.7817 112.114 61.0781C107.875 61.33 103.607 61.3893 99.3539 61.419C91.3664 61.4782 83.3937 61.4782 75.4062 61.4782H75.4047C73.8189 61.4782 72.2332 61.3893 70.6326 61.33C67.4018 61.2263 64.1562 61.2559 60.9402 60.9892C57.0574 60.6631 53.1893 60.1444 49.3213 59.6109C47.2761 59.3293 45.2606 58.8551 43.245 58.4105C41.7038 58.0696 40.3403 57.4324 39.7771 55.8021C38.6656 55.8021 37.6727 55.8466 36.6649 55.8021C34.9754 55.728 33.3304 56.0393 31.6557 56.2171C27.6691 56.6172 23.6825 57.047 19.6959 57.5213C17.5322 57.788 15.3981 58.3067 13.2343 58.5142C9.92947 58.8254 6.74314 59.6109 3.542 60.4112C2.93438 60.5594 2.29712 60.6928 1.91179 61.33C6.83206 62.486 7.67681 62.7972 8.26961 63.7309C8.58084 63.5679 8.9217 63.227 9.20328 63.2863C12.849 63.9384 16.4948 64.6349 20.1405 65.3463C20.4517 65.4056 20.7333 65.613 21.1038 65.7909H21.1186ZM50.5217 32.6531C50.8478 32.4012 51.1145 32.1937 51.3368 32.0307C51.2627 31.2897 51.1886 30.6673 51.1145 29.9114C51.7814 30.4005 51.6036 31.4527 52.389 31.4527C53.3375 30.4598 54.1675 29.5706 55.1308 28.548C55.605 28.3405 56.2571 28.0589 56.8944 27.7922C57.0426 27.2883 57.1759 26.8288 57.3093 26.3546C57.6354 26.4139 57.9614 26.488 58.4505 26.5769C58.9692 25.6877 59.5027 24.7837 60.1251 23.7314C60.6438 23.8204 61.3256 23.9241 62.2296 24.0723C62.6742 23.5833 63.2077 22.9904 63.5782 22.5607C62.6001 18.8556 61.3107 15.5211 60.1103 12.1718C58.8506 8.67423 56.6128 5.91769 54.7306 2.67209C54.3898 3.69468 54.2267 4.50978 53.8711 5.25079C52.8485 7.41452 51.322 9.38559 51.2331 11.9198C51.2331 11.9791 51.2034 12.0384 51.1738 12.0829C50.4624 12.8831 50.4031 13.8909 50.3142 14.8987C50.2401 15.6545 50.0771 16.4103 49.9437 17.1661C49.5288 19.4929 48.936 21.79 48.7137 24.1316C48.5062 26.4732 47.6318 28.7406 47.9727 31.1415C48.0023 31.3045 47.9134 31.4972 47.8541 31.6454C47.4095 32.6087 47.8541 33.3942 48.106 34.2389C48.2246 34.2537 48.358 34.2834 48.4765 34.2982C48.8619 33.5424 49.262 32.7717 49.677 31.9418C49.8993 32.1196 50.1364 32.3271 50.5514 32.668L50.5217 32.6531ZM130.876 3.57612C130.521 4.0059 130.195 4.24302 130.091 4.55424C129.468 6.59942 127.512 7.94804 127.171 10.1414C127.127 10.4378 126.727 10.6749 126.534 10.9713C125.897 11.9495 125.052 12.8683 124.726 13.9354C123.94 16.5141 122.696 18.9742 122.547 21.7307C122.547 21.8493 122.577 21.953 122.607 22.1012H123.244C123.274 22.6348 123.303 23.1683 123.348 23.85C124.059 23.6129 124.518 23.4647 124.963 23.3165C125.111 24.1761 125.23 24.9171 125.348 25.6432C127.216 25.6729 127.72 27.0808 128.238 28.0145C129.646 28.9037 130.787 29.6299 131.914 30.356C131.78 30.7265 131.662 31.0674 131.439 31.7491C132.343 31.2156 132.936 30.8599 133.603 30.4598C133.781 31.349 133.944 32.09 134.196 33.3052C134.893 32.5346 135.263 32.1048 135.737 31.5861C136.241 32.9347 136.715 34.1796 137.293 35.7357C137.412 30.7117 136.79 26.1027 135.604 21.5677C135.441 20.9453 135.307 20.3228 135.204 19.6856C135.041 18.6926 134.952 17.6997 134.759 16.7215C134.196 13.9502 133.603 11.1936 132.981 8.43711C132.61 6.77726 132.18 5.11741 130.876 3.60576V3.57612Z" fill="#FA1B7A"></path> <path d="M21.1186 65.7909C21.4002 65.7168 21.7855 65.5093 22.1264 65.5389C24.305 65.7168 26.4835 65.8057 28.6324 66.1762C32.2485 66.8135 35.8498 67.2581 39.5252 67.3174C42.3558 67.3618 45.1717 67.7027 48.0023 67.7916C49.2175 67.8361 50.4328 67.6138 51.7221 67.4952C52.1223 67.6286 52.641 67.8953 53.1745 67.9398C56.4201 68.1473 59.6509 68.3251 62.8965 68.4733C66.3792 68.6364 69.8619 68.7549 73.3447 68.9179C74.5154 68.9772 75.7011 69.1699 76.8718 69.1402C82.296 68.992 87.7202 68.7846 93.1443 68.6067C95.3377 68.5326 97.5162 68.5326 99.7096 68.4437C107.268 68.1473 114.841 67.8657 122.399 67.4952C126.401 67.3025 130.417 67.021 134.403 66.606C139.101 66.1169 143.785 65.5389 148.453 64.7979C154.514 63.8198 160.546 62.7231 166.563 61.5227C169.616 60.9003 172.595 59.9073 175.618 59.107C176.952 58.7513 178.301 58.4846 179.634 58.1734C179.634 58.04 179.605 57.9066 179.59 57.788C168.223 53.8014 156.382 53.7866 144.585 53.5495C144.466 53.8014 144.363 53.9496 144.303 54.1275C144.244 54.3498 144.214 54.5869 144.185 54.824C143.918 57.2101 143.844 57.3583 141.473 57.7288C136.686 58.4698 131.914 59.2552 127.112 59.8036C122.132 60.3667 117.123 60.7817 112.114 61.0781C107.875 61.33 103.607 61.3893 99.3539 61.419C91.3664 61.4782 83.3937 61.4782 75.4062 61.4782H75.4047C73.8189 61.4782 72.2332 61.3893 70.6326 61.33C67.4018 61.2263 64.1562 61.2559 60.9402 60.9892C57.0574 60.6631 53.1893 60.1444 49.3213 59.6109C47.2761 59.3293 45.2606 58.8551 43.245 58.4105C41.7038 58.0696 40.3403 57.4324 39.7771 55.8021C38.6656 55.8021 37.6727 55.8466 36.6649 55.8021C34.9754 55.728 33.3304 56.0393 31.6557 56.2171C27.6691 56.6172 23.6825 57.047 19.6959 57.5213C17.5322 57.788 15.3981 58.3067 13.2343 58.5142C9.92947 58.8254 6.74314 59.6109 3.542 60.4112C2.93438 60.5594 2.29712 60.6928 1.91179 61.33C6.83206 62.486 7.67681 62.7972 8.26961 63.7309C8.58084 63.5679 8.9217 63.227 9.20328 63.2863C12.849 63.9384 16.4948 64.6349 20.1405 65.3463C20.4517 65.4056 20.7333 65.613 21.1038 65.7909H21.1186Z" fill="#FA1B7A"></path> <path fill-rule="evenodd" clip-rule="evenodd" d="M90.8932 148.932L89.6335 149.184H82.4013C81.8594 148.865 81.3485 148.557 80.8575 148.262C79.6832 147.555 78.6228 146.917 77.5255 146.353C75.3914 145.241 73.2425 144.174 71.0343 143.211C70.0313 142.781 68.9788 142.45 67.9305 142.121C67.4609 141.973 66.9921 141.826 66.529 141.67C65.6546 141.373 64.7654 141.062 63.8762 140.751C63.7101 140.701 63.5487 140.647 63.3581 140.582C63.2084 140.532 63.0408 140.475 62.8388 140.41C63.1055 141.877 63.7428 142.574 65.047 142.796C66.2622 143.004 67.4923 143.315 68.6186 143.804C71.968 145.286 75.2877 146.842 78.5925 148.413C79.9115 149.05 80.9786 149.969 81.8233 151.318H79.7189C78.9186 151.303 78.311 151.629 78.0738 152.4C77.8219 153.215 77.8219 154.104 78.6074 154.652C79.1261 155.008 79.7633 155.26 80.371 155.393C80.9198 155.505 81.4896 155.54 82.0564 155.575C82.3161 155.591 82.575 155.607 82.8311 155.63C82.4606 155.808 82.1197 155.808 81.764 155.808C81.6257 155.808 81.4874 155.805 81.3491 155.802C81.0724 155.795 80.7958 155.788 80.5192 155.808C79.3928 155.912 78.4147 156.638 78.2665 157.512C78.1035 158.52 78.5333 159.232 79.4669 159.647C79.5423 159.675 79.5877 159.751 79.6413 159.841C79.672 159.892 79.7053 159.948 79.7485 160.002C79.3632 160.076 79.0668 160.136 78.7852 160.195C78.6849 160.221 78.5826 160.246 78.4799 160.271C78.2943 160.315 78.1069 160.36 77.9256 160.417C76.9031 160.758 76.4881 161.366 76.577 162.403C76.6511 163.352 77.1254 163.855 78.1479 164.019C78.4209 164.061 78.6987 164.084 79.0464 164.113C79.3029 164.134 79.5974 164.159 79.956 164.196C79.4606 164.263 78.975 164.295 78.5028 164.325C76.8845 164.43 75.4238 164.524 74.2651 166.004C74.3848 165.525 74.4874 165.12 74.582 164.745C74.663 164.424 74.7382 164.127 74.8134 163.826C74.7838 163.811 74.7541 163.8 74.7245 163.789C74.6949 163.778 74.6652 163.767 74.6356 163.752C74.0428 164.508 73.45 165.263 72.8275 166.064C72.7219 165.885 72.643 165.746 72.5688 165.616C72.5077 165.509 72.4499 165.407 72.3829 165.293C72.0023 165.625 71.6409 165.957 71.2565 166.31C71.0572 166.493 70.8517 166.681 70.6342 166.879C70.5382 166.527 70.4551 166.235 70.3687 165.932C70.2951 165.673 70.2189 165.406 70.1303 165.086C69.5819 165.856 69.1966 166.39 68.6186 167.19V165.886C67.9073 166.301 67.2255 166.701 66.3956 167.19C66.3503 167.02 66.3115 166.876 66.2784 166.753C66.2248 166.555 66.186 166.411 66.1585 166.301C64.9729 167.575 64.0392 168.524 62.6461 169.309C62.9425 168.598 63.1352 168.139 63.4019 167.531C63.085 167.666 62.8727 167.905 62.6729 168.131C62.3682 168.475 62.0926 168.786 61.5198 168.642C61.6404 168.359 61.7609 168.085 61.8799 167.815C62.0095 167.521 62.1372 167.232 62.2608 166.938C62.2163 166.908 62.1719 166.883 62.1274 166.857C62.083 166.831 62.0385 166.805 61.994 166.775C61.6556 167.239 61.3172 167.701 60.9721 168.172C60.3802 168.98 59.7688 169.815 59.1041 170.732V169.309H58.0963C58.2092 168.837 58.3121 168.394 58.4112 167.967C58.5203 167.498 58.6249 167.048 58.7336 166.597C58.6151 166.538 58.4965 166.464 58.3779 166.39C58.0519 168.583 56.4365 169.561 54.7915 170.554C54.598 170.425 54.389 170.296 54.1983 170.179C54.126 170.134 54.0564 170.091 53.9912 170.05C54.0268 169.751 54.0625 169.475 54.1015 169.174C54.1435 168.85 54.1893 168.496 54.2431 168.05C53.889 168.523 53.6076 169.011 53.3343 169.485C52.7272 170.538 52.1601 171.522 50.9234 172.125C50.8493 171.31 50.8049 170.717 50.7604 170.11C50.1824 171.384 49.5748 172.481 47.9446 172.792C48.0039 172.17 48.0483 171.681 48.0928 171.073C47.3837 171.439 46.716 171.771 46.0279 172.114C45.7955 172.229 45.5608 172.346 45.3214 172.466C45.2853 172.249 45.2436 172.049 45.1998 171.838C45.1718 171.703 45.1429 171.564 45.1139 171.414L44.9509 171.384C44.799 171.495 44.6508 171.606 44.5044 171.716C44.0654 172.045 43.643 172.362 43.1873 172.629C42.7872 172.851 42.2685 173.133 41.8832 173.059C40.5642 172.807 39.4823 173.266 38.519 174.052C35.9909 175.898 38.18 175.734 37.9542 175.432C38.0246 175.418 38.0919 175.392 38.1538 175.368C38.3672 175.286 38.5155 175.229 38.4998 175.755C38.4998 175.834 38.5523 175.81 38.6316 175.774C38.7297 175.729 38.8687 175.665 38.9998 175.755C43.5347 178.778 45.2918 179.58 50.2565 181.817C51.4273 182.336 52.85 182.544 53.9764 181.684C53.9764 181.684 55.0434 182.395 53.3243 182.944L53.2946 183.344C53.675 183.467 54.0603 183.581 54.4457 183.695C55.2163 183.922 55.987 184.149 56.7181 184.455C57.2108 184.661 57.6624 184.711 58.0963 184.658C58.3265 185.246 62.8995 195.402 66.834 204.141C69.7403 210.595 72.2983 216.276 72.4998 216.755C73.1074 218.193 77.7403 219.592 79.2964 219.577C80.0303 219.568 80.6344 219.61 81.2659 219.654C81.6546 219.681 82.0537 219.708 82.4998 219.725C83.9496 219.771 85.3851 219.75 86.823 219.729C88.1778 219.709 89.5349 219.689 90.9081 219.725C92.7902 219.785 94.6723 219.785 96.5545 219.755C97.6822 219.743 98.7998 219.68 99.924 219.616C100.159 219.603 100.394 219.59 100.63 219.577C100.84 219.565 101.219 219.569 101.715 219.574C103.707 219.593 107.588 219.631 109.952 218.755C114 217.255 121.304 185.747 121.304 185.747C122.202 185.459 123.041 185.189 123.898 184.945C124.163 184.868 124.435 184.81 124.71 184.751C125.56 184.568 126.441 184.379 127.247 183.64C126.461 183.388 125.869 183.196 124.891 182.87C125.197 182.87 125.458 182.852 125.686 182.837C126.087 182.81 126.384 182.79 126.639 182.885C128.047 183.374 129.292 182.914 130.567 182.366C135.798 180.113 140.792 177.446 145.609 174.422C145.908 174.237 146.185 174.023 146.461 173.81C146.582 173.717 146.702 173.623 146.824 173.533C146.809 173.496 146.791 173.459 146.772 173.422C146.754 173.385 146.735 173.348 146.721 173.311C146.324 173.408 145.927 173.509 145.539 173.608C145.157 173.705 144.783 173.801 144.423 173.889C143.786 173.563 143.193 173.251 142.615 172.94L142.512 173.148C142.632 173.314 142.747 173.487 142.863 173.661C142.932 173.766 143.003 173.872 143.075 173.978C141.489 174.837 140.644 174.852 140.022 174.022C140.051 173.726 140.081 173.4 140.111 173.059C139.851 172.992 139.611 172.929 139.37 172.866C139.129 172.803 138.888 172.74 138.629 172.673C138.86 173.146 139.06 173.574 139.277 174.04C139.394 174.291 139.517 174.552 139.651 174.837H137.843C137.369 174.333 136.939 173.874 136.524 173.429C135.961 173.874 135.502 174.23 135.027 174.585C134.836 174.494 134.649 174.405 134.464 174.316C134.074 174.13 133.69 173.946 133.279 173.755C133.338 174.096 133.368 174.289 133.442 174.778C133.152 174.545 132.888 174.333 132.642 174.136C132.121 173.719 131.681 173.367 131.248 173.014C131.159 173.103 131.085 173.177 130.996 173.251L130.999 173.259C131.28 173.968 131.561 174.677 131.915 175.578C130.196 175.46 129.04 174.674 127.662 173.681C127.76 174.082 127.831 174.388 127.898 174.675C127.952 174.907 128.002 175.125 128.062 175.371C127.965 175.361 127.872 175.351 127.782 175.341C127.345 175.296 126.973 175.257 126.58 175.208C126.765 173.476 125.961 173.75 125.232 173.997C125.025 174.068 124.824 174.136 124.653 174.155C124.38 173.938 124.133 173.743 123.94 173.591C123.778 173.463 123.654 173.365 123.586 173.311H120.815C120.775 173.335 120.666 173.415 120.534 173.512C120.422 173.594 120.294 173.688 120.178 173.77C118.429 173.637 117.095 172.896 115.88 171.799C115.976 172.051 116.076 172.299 116.176 172.547C116.276 172.796 116.376 173.044 116.473 173.296C116.399 173.385 116.31 173.474 116.221 173.563C115.982 173.435 115.743 173.31 115.503 173.185C114.879 172.859 114.257 172.534 113.657 172.17C113.213 171.91 112.782 171.629 112.351 171.347C111.845 171.017 111.339 170.687 110.811 170.391C110.651 170.301 110.424 170.339 110.192 170.378C110.081 170.397 109.969 170.416 109.863 170.421C109.891 170.661 109.907 170.849 109.922 171.029C109.932 171.137 109.941 171.243 109.952 171.354C108.398 170.992 107.433 169.967 106.412 168.881C106.138 168.589 105.86 168.294 105.565 168.005C105.531 168.3 105.506 168.534 105.484 168.748C105.457 168.997 105.434 169.217 105.402 169.472C104.798 169.073 104.239 168.712 103.674 168.347C103.38 168.157 103.084 167.966 102.779 167.768C104.602 166.642 104.646 165.145 103.046 164.137C102.527 163.811 101.89 163.618 101.282 163.485C100.776 163.371 100.256 163.323 99.7312 163.273C99.5028 163.252 99.2735 163.23 99.0443 163.203C99.4444 162.996 99.8297 162.966 100.23 162.937C101.119 162.877 101.667 162.448 101.801 161.544C101.949 160.536 101.534 159.75 100.6 159.439C100.12 159.282 99.6205 159.177 99.1228 159.073C98.8679 159.019 98.6135 158.966 98.3625 158.906C100.689 157.364 100.66 156.357 98.2144 154.608C100.586 153.274 100.778 152.755 99.726 150.414C99.8769 150.167 100.025 149.916 100.172 149.665C101.142 148.016 102.121 146.351 104.128 145.656C104.417 145.557 104.707 145.456 104.997 145.355C106.86 144.708 108.738 144.056 110.648 143.582C111.01 143.492 111.371 143.411 111.732 143.33C113.044 143.035 114.342 142.744 115.539 142.07C115.824 141.899 116.191 141.851 116.522 141.808L116.562 141.803C117.423 141.689 118.287 141.58 119.152 141.471C121.441 141.181 123.737 140.89 126.017 140.514C126.178 140.488 126.341 140.463 126.505 140.439C127.83 140.24 129.199 140.034 130.122 138.913C130.42 138.972 130.708 139.025 130.989 139.077C131.631 139.195 132.236 139.307 132.834 139.462C133.449 139.631 133.898 139.35 134.345 139.07C134.641 138.885 134.937 138.7 135.279 138.647C135.47 138.616 135.667 138.6 135.866 138.583C135.962 138.575 136.058 138.567 136.154 138.558C136.984 138.479 137.815 138.396 138.646 138.313C140.336 138.144 142.028 137.975 143.727 137.846L143.757 137.844C144.724 137.771 145.614 137.703 146.113 136.809C146.568 136.864 147.01 136.922 147.443 136.979C148.292 137.092 149.107 137.2 149.922 137.268C150.624 137.327 151.332 137.348 152.038 137.369C152.569 137.384 153.099 137.399 153.627 137.431C154.59 137.491 155.331 137.239 155.42 136.097C155.794 136.195 156.146 136.292 156.485 136.386C157.128 136.563 157.723 136.727 158.325 136.853C158.509 136.889 158.695 136.949 158.885 137.009C159.549 137.222 160.253 137.446 161.037 136.72C158.318 135.008 155.37 134.55 152.413 134.089C151.76 133.988 151.107 133.886 150.455 133.771C150.331 134.065 150.227 134.315 150.144 134.516C150.068 134.7 150.009 134.843 149.966 134.941C149.198 134.986 148.445 135.027 147.702 135.068C146.222 135.149 144.782 135.228 143.342 135.327C143.06 135.342 142.778 135.49 142.526 135.638C140.644 136.764 139.103 136.616 137.221 135.105C137.487 135.087 137.733 135.065 138.002 135.041C138.198 135.023 138.406 135.005 138.644 134.986C135.828 132.718 131.367 131.296 129.588 132.081C130.329 132.748 131.115 133.163 132.049 133.356C132.83 133.504 133.611 133.738 134.382 133.968C134.459 133.992 134.536 134.015 134.613 134.037C134.694 134.058 134.748 134.163 134.802 134.27C134.827 134.318 134.852 134.367 134.879 134.408C134.584 134.457 134.307 134.497 134.04 134.536C133.825 134.567 133.617 134.597 133.412 134.63C133.397 134.719 133.382 134.823 133.368 134.927C134.346 135.46 135.324 136.009 136.421 136.631C134.761 137.491 131.93 137.92 130.033 137.668L125.987 137.09C125.305 136.987 124.668 137.001 124.357 137.906C124.518 138.075 124.684 138.262 124.859 138.457C124.974 138.586 125.093 138.719 125.217 138.854C124.422 139.019 123.619 139.091 122.823 139.163C121.258 139.303 119.72 139.442 118.325 140.277C117.658 139.714 117.021 139.788 116.206 140.099C114.294 140.825 112.308 141.403 110.337 141.966C110.139 142.024 109.939 142.075 109.742 142.125C108.875 142.346 108.066 142.553 107.788 143.241C107.624 143.265 107.461 143.288 107.299 143.312C104.351 143.735 101.699 144.116 100.111 146.827C100.129 147.002 100.147 147.173 100.166 147.355C100.194 147.62 100.224 147.906 100.26 148.25C99.9039 147.998 99.7112 147.865 99.5185 147.731L99.5173 147.733C99.2658 148.088 99.0142 148.443 98.7479 148.828C97.6584 148.792 96.5787 148.873 95.5098 148.953C93.9469 149.071 92.407 149.187 90.8932 148.932ZM60.1608 183.522C60.1608 186.038 73.4998 212.755 73.4998 212.755C73.9998 215.225 86.7688 216.064 94.3415 213.255C101.08 210.755 112.354 182.14 110.811 180.255C107.166 177.64 102.66 173.622 102.334 173.326C100.334 171.532 98.9109 169.309 97.5623 166.923C96.6286 166.79 95.6949 166.657 94.7613 166.538C93.8498 166.419 92.9421 166.308 92.0344 166.197C91.1266 166.086 90.2189 165.975 89.3075 165.856C89.19 165.837 89.0854 165.726 88.9638 165.598C88.9014 165.533 88.8345 165.462 88.7591 165.397C88.9149 165.215 89.0622 165.047 89.2134 164.875C89.4073 164.655 89.6078 164.427 89.841 164.152C89.0139 164.168 88.2107 164.127 87.422 164.086C86.0627 164.015 84.7463 163.947 83.4239 164.182C83.9871 164.48 84.6078 164.66 85.2348 164.842C86.5709 165.23 87.9355 165.627 88.8332 167.19C88.5308 167.252 88.2549 167.317 87.9952 167.378C87.5042 167.494 87.0709 167.596 86.625 167.635C84.9207 167.783 83.2164 167.916 81.4973 167.99C80.119 168.05 79.1853 168.672 78.4592 169.828C78.1617 170.301 74.6059 172.825 70.6995 175.598C66.0433 178.903 60.889 182.561 60.1608 183.522ZM88.9036 152.024C86.551 152.77 86.5376 152.774 83.9574 151.822L83.9426 151.836C83.7351 151.407 83.5276 150.992 83.2905 150.517C83.3547 150.488 83.4124 150.455 83.4662 150.424C83.5737 150.363 83.666 150.31 83.7648 150.31C85.62 150.25 87.4685 150.204 89.3193 150.158C90.2333 150.135 91.1479 150.112 92.064 150.088C92.5097 150.072 92.9536 150.056 93.3965 150.039C94.2494 150.006 95.0982 149.974 95.9469 149.954C96.6286 149.939 97.3103 149.999 98.0069 150.354C97.9404 150.37 97.8738 150.39 97.8079 150.411C97.683 150.45 97.5602 150.488 97.4437 150.488C94.4945 150.295 91.738 151.125 88.9814 151.999L88.9036 152.024ZM90.7138 163.853C92.5968 163.53 94.3195 163.235 96.0414 162.941L96.0654 162.937C95.9896 162.922 95.9139 162.907 95.8381 162.892C93.8854 162.506 91.9519 162.123 89.8262 162.551C90.1664 163.054 90.4181 163.424 90.7138 163.853ZM84.3427 160.047C85.9729 159.75 87.5883 159.528 89.5594 159.884C89.4499 159.948 89.3434 160.011 89.2393 160.072C88.5545 160.476 87.9698 160.821 87.2623 161.232C87.0121 161.163 86.7517 161.091 86.4843 161.017C85.7852 160.823 85.0379 160.617 84.2983 160.402L84.3427 160.047ZM90.1374 154.252C91.575 155.215 93.4423 155.141 94.7909 154.252H90.1374ZM95.4089 158.719C95.3957 158.823 95.3837 158.918 95.3837 159.024C95.0407 158.989 94.6911 159.035 94.3415 159.081C93.5281 159.188 92.7155 159.295 91.9899 158.372L95.4134 158.683C95.4119 158.695 95.4104 158.707 95.4089 158.719ZM87.1586 155.749C86.3484 156.411 85.6321 156.366 85.0097 155.616C85.3532 155.636 85.6662 155.656 85.9791 155.676C86.3546 155.7 86.7301 155.725 87.1586 155.749Z" fill="#FA1B7A"></path> <path d="M81.2871 88.3472C81.4057 87.3987 82.0874 87.1912 82.7839 86.9689C88.1933 85.2942 93.7064 85.3387 99.2491 86.0649C100.568 86.2427 101.902 86.6132 102.806 87.8136C102.065 89.4438 100.464 89.7995 99.1157 90.4072C97.8856 90.9555 96.5222 91.2074 95.2625 91.6817C93.0098 92.5264 90.7423 92.4079 88.4897 91.8743C86.8891 91.489 85.3182 90.9407 83.7621 90.3923C82.695 90.007 81.7614 89.3994 81.3019 88.3472H81.2871Z" fill="#FA1B7A"></path> <path d="M91.5003 118.358C92.0487 119.307 92.4044 119.9 92.7749 120.522H94.3903C94.9386 121.352 92.8638 121.752 94.6867 122.701C95.4721 122.79 96.7467 122.923 98.362 123.116C98.5399 123.234 99.029 123.56 99.5477 123.901C101.059 123.412 102.556 122.864 104.083 122.478C105.594 122.093 107.15 121.797 108.929 122.004C108.484 123.116 107.447 122.938 106.884 123.442C107.328 123.812 107.773 124.183 108.292 124.612C110.366 124.583 112.441 124.85 114.412 126.421C113.982 126.687 113.597 127.102 113.39 127.028C110.574 126.035 107.669 126.435 104.794 126.406C104.69 126.406 104.587 126.302 104.335 126.169C104.542 125.813 104.735 125.457 104.972 125.042C104.824 124.983 104.661 124.879 104.527 124.894C103.519 125.116 102.615 125.798 101.371 125.368L102.971 124.361L102.838 124.049C101.222 124.716 99.6069 125.383 97.9915 126.05C97.5766 125.353 97.2061 124.701 96.7467 123.916C96.0205 125.042 95.2498 124.775 94.5681 124.316C93.9457 124.568 93.4121 124.968 92.8638 124.983C90.2703 125.072 87.6768 125.057 85.0832 125.087C85.1277 124.968 85.1573 124.85 85.2018 124.746C84.1496 124.138 83.127 123.486 82.0451 122.953C80.9336 122.404 79.8369 121.886 78.9922 120.389C81.3782 120.893 83.0529 122.286 85.3352 122.834C84.9202 122.226 84.6238 121.797 84.2533 121.263C86.0021 120.715 86.5949 122.271 87.8101 122.893C88.9661 121.471 90.1369 120.048 91.5003 118.358ZM91.4707 124.198C92.8786 123.827 93.1898 123.516 92.8934 122.567C92.597 121.634 92.0635 120.774 91.6041 119.811C89.9887 120.744 89.2477 121.96 89.2922 123.812C89.7219 123.96 90.1517 124.123 90.5815 124.272C90.8038 123.56 90.9816 123.027 91.2336 122.241C91.3373 123.086 91.4114 123.62 91.4855 124.183L91.4707 124.198Z" fill="#FA1B7A"></path> <path d="M91.4707 124.198C92.8786 123.827 93.1898 123.516 92.8934 122.567C92.597 121.634 92.0635 120.774 91.6041 119.811C89.9887 120.744 89.2477 121.96 89.2922 123.812C89.7219 123.96 90.1517 124.123 90.5815 124.272C90.8038 123.56 90.9816 123.027 91.2336 122.241C91.3373 123.086 91.4114 123.62 91.4855 124.183L91.4707 124.198Z" fill="#FA1B7A"></path> <path d="M33.2127 136.364C31.6863 136.364 30.2191 136.32 28.7371 136.379C27.9812 136.409 27.2254 136.542 26.4844 136.72C25.5359 136.957 24.7356 136.868 24.291 136.157C22.7646 136.364 21.3567 136.572 19.9487 136.72C19.8746 136.72 19.7561 136.364 19.6523 136.157C23.4315 134.23 27.4033 132.511 31.1972 133.4V134.541C31.8196 134.541 32.3532 134.571 32.8719 134.541C34.4428 134.423 35.91 134.69 37.2586 135.534C38.6665 136.424 40.0744 136.231 41.7343 135.253C41.0822 135.208 40.6969 135.179 40.3116 135.149C40.2671 135.031 40.2226 134.912 40.1782 134.808C40.7858 134.423 41.3638 133.964 42.0011 133.652C42.8458 133.237 43.7498 132.956 44.6242 132.585C45.5431 132.2 46.3433 131.696 47.1436 131.059C48.7146 129.799 50.6708 129.206 52.6863 128.939C52.8197 128.925 52.9976 129.073 53.3829 129.266C53.0568 129.592 52.8642 129.962 52.5678 130.051C51.4266 130.362 50.2707 130.585 49.1147 130.851C48.5664 130.985 48.0328 131.163 47.5141 131.592C48.0773 131.726 48.6553 131.859 49.2184 131.992L49.2777 132.333C48.0773 132.793 46.7879 133.134 45.6913 133.771C44.6242 134.393 43.7202 135.327 42.6531 136.201C43.7795 136.557 44.7724 136.868 46.0173 137.254C44.6983 137.98 43.5127 137.772 42.3716 137.757C40.3116 137.728 38.2516 137.58 36.1916 137.506C35.0652 137.461 33.9389 137.506 33.1979 136.35L33.2127 136.364Z" fill="#FA1B7A"></path> <path d="M126.933 74.1496C130.801 74.1199 132.994 76.0169 134.773 78.892C136.744 82.0635 135.855 85.9167 133.958 88.1101C132.52 89.7551 130.608 90.6888 128.519 91.2371C124.191 92.3783 120.679 90.1404 119.049 86.6577C116.87 82.0042 119.301 77.9731 122.117 76.1206C123.702 75.0832 125.229 73.9421 126.933 74.1347V74.1496ZM127.6 75.6019C123.821 75.676 119.716 78.7141 119.701 82.7156C119.701 85.976 121.79 90.2294 126.577 90.1849C130.727 90.1404 134.358 86.7615 134.432 83.0564C134.506 79.3366 131.053 75.6167 127.585 75.6019H127.6Z" fill="#FA1B7A"></path> <path d="M48.8783 82.9973C48.9079 78.2994 53.0724 73.5717 58.0519 73.8978C62.5424 74.1942 66.8254 77.9437 66.6772 83.3678C66.5586 87.7398 62.4238 91.8597 58.0519 91.5782C52.7019 91.2373 48.7449 88.7327 48.8783 82.9825V82.9973ZM52.3017 77.4101C51.6941 78.655 51.2495 79.485 50.8642 80.3297C49.6489 82.9973 50.0935 86.0354 52.0201 87.8731C55.1472 90.852 61.6532 91.6671 64.3653 85.9465C65.7287 83.0862 65.4323 80.1963 63.3427 77.7214C61.5495 75.6169 58.1408 74.6833 55.4436 75.7058C54.258 76.1504 53.1909 76.9211 52.3017 77.4101Z" fill="#FA1B7A"></path> <path d="M84.0602 84.1226C83.3785 84.6709 82.6819 85.2044 82.1188 85.6639C81.0665 85.5453 80.1181 85.4416 79.1992 85.3378C80.37 84.5524 81.6149 83.7521 82.8301 82.9073C84.0306 82.0774 85.2162 81.2178 86.5203 80.2842C86.8019 80.9214 86.9946 81.366 87.2317 81.8847C88.0765 81.7662 88.8916 81.6328 89.7067 81.5291C90.2847 81.455 90.8923 81.3216 91.4703 81.366C93.8118 81.5587 96.1534 81.8699 98.4653 81.04C98.7173 80.9511 99.0433 81.0696 99.3842 81.0993C99.651 81.5587 99.9177 82.0033 100.259 82.5813C102.511 83.2778 105.164 83.4705 106.602 85.9603C104.897 84.6857 102.956 84.582 100.955 84.419C99.0137 84.256 97.1167 83.6039 95.1901 83.3371C94.1823 83.2037 93.1005 83.3371 92.0779 83.5446C91.1887 83.7224 90.3588 83.9892 89.7215 83.4557C88.1357 83.9596 86.713 84.419 85.2162 84.8932C84.8605 84.6413 84.49 84.3893 84.0899 84.1226H84.0602Z" fill="#FA1B7A"></path> <path d="M60.125 125.679C61.9479 125.027 63.8745 125.071 65.8604 124.967C65.9493 124.597 66.0382 124.226 66.1716 123.663C67.372 123.604 68.5725 123.53 69.7877 123.47C69.8173 123.396 69.847 123.307 69.8766 123.233C68.7651 122.833 67.6536 122.448 66.4384 122.003C67.0312 121.292 67.7277 121.425 68.3057 121.499C70.6473 121.781 73.0037 121.988 75.1822 123.041C76.3234 123.589 77.346 123.559 78.0277 122.403C79.6875 122.24 80.9324 123.026 82.3107 123.737C81.7475 124.167 81.2436 124.552 80.7842 124.908C79.9543 124.686 79.1985 124.463 78.0425 124.152C78.5612 124.819 78.8131 125.115 79.1688 125.575C77.509 125.649 76.3234 124.626 74.8117 124.3C74.8562 124.567 74.9006 124.701 74.9155 124.834C74.9155 124.997 74.9155 125.16 74.9155 125.501C73.8336 125.397 72.7962 125.308 71.9959 125.219C71.1511 125.605 70.4991 126.138 69.847 126.168C66.631 126.257 63.4151 126.212 60.1991 126.212L60.125 125.708V125.679Z" fill="#FA1B7A"></path> <path d="M128.951 126.879C127.898 127.19 127.039 127.442 126.09 127.724C126.565 127.931 127.054 128.153 127.676 128.42V130.332C127.824 130.51 128.047 130.762 128.239 130.984C127.928 131.592 124.534 130.984 123.289 130.139C123.541 129.235 124.534 129.665 125.171 129.072C123.63 128.198 121.792 128.998 120.34 128.153C120.459 127.783 120.548 127.516 120.666 127.161C118.828 126.909 116.961 127.65 115.168 127.161C115.138 126.983 115.123 126.805 115.094 126.642C115.538 126.494 115.983 126.227 116.442 126.197C119.673 125.945 122.904 125.412 126.15 125.782C127.039 125.886 128.032 125.856 128.951 126.864V126.879Z" fill="#FA1B7A"></path> <path d="M62.2873 139.773C62.0946 140.336 61.9316 140.751 61.7389 141.299C60.331 140.958 58.9527 140.825 57.7523 140.276C56.5074 139.728 55.2922 139.55 53.988 139.535C53.5138 139.535 52.921 139.61 52.6097 139.358C50.698 137.92 48.6972 138.557 46.7113 138.987C46.2816 139.076 46.2816 139.076 45.4961 138.528C45.9852 137.787 46.7113 137.312 47.5265 137.268C49.9866 137.135 52.4319 136.557 54.9069 137.046C55.2477 137.12 55.7071 137.12 55.8998 137.357C57.0558 138.706 58.7601 138.631 60.2273 139.12C60.8349 139.328 61.4573 139.506 62.2873 139.773Z" fill="#FA1B7A"></path> <path d="M34.5 85.7535C34.5 85.7535 35.4399 84.0809 35.4992 83.7549C35.4992 83.7549 38.4426 85.4127 38.9168 85.7535C40.4285 86.865 41.9401 87.9914 43.3925 89.1621C43.8816 89.5623 44.2521 90.1254 44.6226 90.6442C45.0079 91.2073 44.9931 91.7408 44.1631 92.2299C43.8075 91.9928 43.3777 91.7408 42.9627 91.4444C41.3325 90.3033 39.6875 89.1621 38.0573 88.021C34.5 86.2549 34.5 85.7535 34.5 85.7535Z" fill="#FA1B7A"></path> <path d="M53.9016 129.873C53.8423 129.221 53.8127 128.895 53.7831 128.45H50.7598C50.9821 127.606 51.5156 127.546 52.0195 127.443C57.0879 126.464 61.5784 126.405 63.5643 127.443C62.6455 127.665 62.023 127.902 61.371 127.961C60.6151 128.035 59.8445 127.917 59.0738 127.961C58.2143 128.006 57.4288 128.05 56.673 128.761C56.0357 129.339 54.9835 129.473 53.8868 129.873H53.9016Z" fill="#FA1B7A"></path> <path d="M89.7656 113.304C91.0253 112.622 92.3591 112.696 93.6337 112.741C93.9894 112.741 94.345 113.319 94.7304 113.675C92.9816 114.86 91.0253 114.712 89.7656 113.304Z" fill="#FA1B7A"></path> <path d="M34.3674 74.5797V74.6389C35.6123 73.6756 36.8424 72.7123 38.0724 71.749L38.2947 72.0306C37.1684 73.3644 35.6716 74.2684 34.0117 75.5874C34.2192 74.9946 34.2933 74.7871 34.3526 74.5797H34.3674Z" fill="#FA1B7A"></path> <path d="M143.727 69.9697C145.505 70.3402 145.712 70.5181 146.424 72.2817C145.712 71.6592 145.312 71.3035 144.912 70.9627C144.527 70.6366 144.127 70.3106 143.727 69.9845V69.9697Z" fill="#FA1B7A"></path> <path d="M149.061 78.2397C148.617 77.6321 148.187 77.0393 147.742 76.4316C148.794 76.6095 149.18 77.2467 149.061 78.2397Z" fill="#FA1B7A"></path> <path d="M52.464 36.7139C55.2206 36.2545 58.0957 36.2693 60.541 34.4464H56.3914C56.3765 34.2982 56.3617 34.15 56.3321 34.0167C56.8656 33.9277 57.3991 33.8092 57.9475 33.7647C59.5332 33.6462 61.1338 33.6017 62.7195 33.4535C63.2679 33.3942 63.7718 33.1126 64.2905 32.5791C63.0308 32.342 61.7859 32.1049 60.5262 31.8677C60.5262 31.7492 60.5262 31.6158 60.541 31.4972C62.5713 30.86 64.8981 31.8233 66.8544 30.445C65.8021 30.1931 64.7647 29.9411 63.4457 29.6299C64.9277 28.548 66.5876 29.6299 67.8177 28.4739C66.721 28.3998 65.6095 28.3257 64.5128 28.2516C64.5128 28.0886 64.498 27.9256 64.4831 27.7626C65.1945 27.644 65.9059 27.5106 66.6172 27.3921C67.3138 27.2735 67.9955 27.1698 68.7958 27.0512C69.1663 26.2065 69.5664 25.4358 69.8777 24.6059C70.1148 23.9834 70.3815 23.5388 71.3004 23.8352C71.3004 24.6059 71.4189 25.4358 71.2707 26.2065C70.841 28.5184 70.3223 30.8303 69.8036 33.1274C69.6109 34.0018 69.0625 34.5502 68.203 34.8466C63.5791 36.4471 58.8219 37.2326 53.946 37.2919C53.457 37.2919 52.9531 37.1733 52.4492 37.0992C52.4492 36.951 52.4492 36.8177 52.4492 36.6695L52.464 36.7139Z" fill="#FA1B7A"></path> <path d="M113.212 23.5392C114.353 24.2506 113.805 25.5844 114.546 26.3254C114.22 26.6811 113.982 26.933 113.671 27.2591C113.879 27.5407 114.071 27.8074 114.338 28.1483C115.109 26.4143 116.472 26.933 117.717 26.9627C117.762 27.0812 117.791 27.2146 117.836 27.3332C117.243 27.5258 116.65 27.7185 115.716 28.0149C117.332 28.8597 119.051 27.9112 120.74 29.0671C119.392 29.2746 118.399 29.4228 117.198 29.6007C117.628 30.149 117.939 30.5343 118.176 30.8307C119.703 31.0975 121.096 30.4602 122.474 31.1716C121.526 31.3791 120.592 31.5865 119.614 31.794C120.281 32.3868 120.281 32.372 122.119 32.3127C123.037 32.2831 123.971 32.3127 125.246 32.3127C124.164 33.4242 122.919 32.7573 121.748 33.5873C123.882 34.0615 125.735 32.95 127.691 33.7058C126.713 34.5209 125.587 34.2838 124.282 34.6691C127.143 35.9881 129.988 36.0919 132.922 36.8032C131.426 37.4998 130.121 37.0996 128.891 36.9662C126.372 36.7143 123.853 36.3142 121.363 35.8547C119.91 35.588 118.473 35.2175 117.095 34.7136C114.931 33.9133 113.627 32.372 113.33 30.0008C113.138 28.4891 112.782 26.9923 112.545 25.4807C112.441 24.8138 112.234 24.0431 113.227 23.5244L113.212 23.5392Z" fill="#FA1B7A"></path> <path d="M114.635 55.4615C114.694 54.4685 114.753 53.5052 114.842 52.1566C113.968 50.4226 115.109 48.1551 114.739 45.9766H105.432V52.779C106.38 52.779 107.166 52.7938 107.966 52.779C109.729 52.7197 111.508 52.6456 113.271 52.5864C113.968 52.5567 114.427 52.779 114.264 53.6682C112.812 54.4092 111.226 53.9498 109.744 54.1425C108.292 54.3203 106.825 54.3499 105.313 54.4389C105.031 54.8983 104.765 55.3281 104.498 55.7727C103.149 54.7501 103.046 54.0091 104.202 52.9569C103.312 52.5419 103.135 51.7268 103.342 50.9265C103.683 49.5631 103.461 48.2441 103.401 46.8954C103.342 45.2949 103.594 44.8058 105.195 44.628C107.358 44.3908 109.552 44.3612 111.73 44.3019C113.138 44.2723 114.546 44.3316 115.969 44.376C116.191 44.376 116.398 44.539 116.68 44.6428C116.71 47.3993 117.065 50.141 116.295 52.8531C116.117 53.4607 116.25 54.1425 116.161 54.7946C116.072 55.4763 115.761 55.9061 114.665 55.4615H114.635Z" fill="#FA1B7A"></path> <path d="M77.2853 41.8565C69.4603 42.5086 61.6205 42.4789 53.7807 42.1381C51.365 42.0343 48.9789 41.649 46.5781 41.3526C46.4003 41.3378 46.252 41.071 45.8223 40.6709C46.4743 40.5078 46.8745 40.3004 47.2598 40.33C52.0912 40.5227 56.9225 40.7598 61.7539 40.9376C66.6 41.1006 71.4314 41.2044 76.2776 41.3378C76.6184 41.3378 76.9445 41.4267 77.2853 41.4563C77.2853 41.5897 77.2853 41.7231 77.2853 41.8565Z" fill="#FA1B7A"></path> <path fill-rule="evenodd" clip-rule="evenodd" d="M86.5226 124.15C86.5442 124.186 86.5657 124.222 86.587 124.258L86.5226 124.15Z" fill="#FA1B7A"></path> <path fill-rule="evenodd" clip-rule="evenodd" d="M99.1534 123.109C99.1229 123.08 99.0927 123.05 99.0627 123.021L99.1534 123.109Z" fill="#FA1B7A"></path> <path fill-rule="evenodd" clip-rule="evenodd" d="M92.0037 115.733L92.9477 114.353C93.0711 114.261 93.1972 114.173 93.3249 114.087C93.6672 113.857 94.0212 113.646 94.366 113.44C95.3358 112.862 96.233 112.326 96.5937 111.543C97.8355 108.935 97.1136 106.105 96.0611 103.491C95.1991 101.355 93.9282 98.9071 91.6586 98.7549C91.3505 99.1002 90.9869 99.7163 90.6106 100.354C90.1269 101.173 89.6224 102.028 89.1886 102.387C88.6499 102.847 88.0407 103.22 87.4294 103.595C87.1541 103.763 86.8784 103.932 86.6085 104.109C83.9805 105.876 83.4286 108.872 85.5278 111.264C86.4543 112.335 89.7087 112.512 91.5447 114.353L92.0037 115.733ZM95.4075 110.747C96.3991 106.922 95.5123 103.873 92.4221 101.476C92.1873 101.648 91.9552 101.818 91.7256 101.986L91.7229 101.988C90.5628 102.838 89.4675 103.64 88.4288 104.463C85.1612 107.013 85.3804 109.37 89.2927 111.646C89.3342 111.221 89.3448 110.786 89.3555 110.348C89.4 108.524 89.4458 106.646 91.726 105.258C91.6776 105.451 91.6332 105.629 91.5918 105.795L91.5907 105.8C91.377 106.657 91.2456 107.184 91.069 107.716C90.595 109.123 90.3792 110.504 91.7033 111.509C92.9668 112.429 94.1186 111.686 95.3804 110.737L95.4075 110.747Z" fill="#FA1B7A"></path> <path d="M103.114 121.968C102.916 121.842 102.718 121.714 102.519 121.585C102.213 121.386 101.905 121.186 101.593 120.995C100.227 120.317 99.4315 120.553 97.8141 121.819C98.2183 122.2 98.6133 122.584 99.0627 123.021L99.1534 123.109C99.3948 123.344 99.6525 123.595 99.9361 123.869C99.1289 123.84 98.5385 123.828 97.9937 123.816C97.7641 123.811 97.5426 123.806 97.3164 123.8L97.3463 123.817C97.1093 125.828 98.2902 126.644 99.7578 127.027C101.113 127.406 102.482 127.684 103.906 127.973C104.406 128.075 104.912 128.178 105.428 128.287C105.666 125.612 104.99 123.491 103.114 121.968Z" fill="#FAF5E5"></path> <path d="M96.9552 121.308C98.076 120.357 99.0506 119.722 100.293 120.283C100.741 120.492 101.171 120.736 101.593 120.995C101.774 121.085 101.966 121.191 102.171 121.314C102.514 121.518 102.828 121.736 103.114 121.968C103.165 122 103.215 122.032 103.266 122.064C102.022 120.17 100.75 119.263 99.4331 119.268C97.8671 119.565 96.9552 121.308 96.9552 121.308Z" fill="#FA1B7A"></path> <path d="M88.4517 123.942C89.207 122.064 88.2811 120.966 86.9654 120.21C85.7572 119.488 84.5089 118.86 83.2108 118.206C82.7549 117.976 82.2929 117.744 81.8243 117.503C80.7523 120.405 81.0446 122.918 83.1401 125.088C84.5532 126.552 85.3329 126.649 87.4771 125.747C87.1868 125.273 86.9061 124.799 86.587 124.258L86.5226 124.15L86.5213 124.147C86.3503 123.858 86.1676 123.549 85.9664 123.21C86.7377 123.45 87.3041 123.618 87.8266 123.773L87.8294 123.774L87.8308 123.774C88.0495 123.839 88.2607 123.902 88.4761 123.966L88.4517 123.942Z" fill="#FAF5E5"></path> <path d="M95.4075 110.747C96.3991 106.922 95.5123 103.873 92.4221 101.476C92.1873 101.648 91.9552 101.818 91.7256 101.986L91.7229 101.988C90.5628 102.838 89.4675 103.64 88.4288 104.463C85.1612 107.013 85.3804 109.37 89.2927 111.646C89.3342 111.221 89.3448 110.786 89.3555 110.348C89.4 108.524 89.4458 106.646 91.726 105.258C91.6776 105.451 91.6332 105.629 91.5918 105.795L91.5907 105.8C91.377 106.657 91.2456 107.184 91.069 107.716C90.595 109.123 90.3792 110.504 91.7033 111.509C92.9668 112.429 94.1186 111.686 95.3804 110.737L95.4075 110.747Z" fill="#FAF5E5"></path> <path fill-rule="evenodd" clip-rule="evenodd" d="M91.5447 114.353L92.0037 115.733L92.9477 114.353C93.0711 114.261 93.1972 114.173 93.3249 114.087C93.3481 113.956 93.3717 113.831 93.396 113.714C93.2363 111.91 92.468 113.072 91.9621 113.837C91.7678 114.131 91.6123 114.366 91.5447 114.353ZM96.5144 121.562C96.7797 121.406 96.9552 121.308 96.9552 121.308C98.076 120.357 99.0506 119.722 100.293 120.283C100.741 120.492 101.171 120.736 101.593 120.995C100.227 120.317 99.4315 120.553 97.8141 121.819C98.2183 122.2 98.6133 122.584 99.0627 123.021L99.1534 123.109C99.3948 123.344 99.6525 123.595 99.9361 123.869C99.1289 123.84 98.5385 123.828 97.9937 123.816C97.7641 123.811 97.5426 123.806 97.3164 123.8L97.3463 123.817C97.1093 125.828 98.2902 126.644 99.7578 127.027C101.113 127.406 102.482 127.684 103.906 127.973C104.406 128.075 104.912 128.178 105.428 128.287C105.666 125.612 104.99 123.491 103.114 121.968C103.165 122 103.215 122.032 103.266 122.064C102.022 120.17 100.75 119.263 99.4331 119.268C99.7011 119.218 99.9882 119.209 100.293 119.259C103.145 119.72 104.968 121.385 106.147 124.147C106.953 126 107.298 128.136 106.692 129.995C105.512 129.69 104.34 129.48 103.176 129.272C102.089 129.078 101.009 128.886 99.9361 128.617C98.1544 128.192 94.4625 125.323 94.007 123.552C93.8999 123.157 95.6664 122.062 96.5144 121.562ZM103.114 121.968C102.916 121.842 102.718 121.714 102.519 121.585C102.213 121.386 101.905 121.186 101.593 120.995C101.774 121.085 101.966 121.191 102.171 121.314C102.514 121.518 102.828 121.736 103.114 121.968Z" fill="#FA1B7A"></path> <path fill-rule="evenodd" clip-rule="evenodd" d="M82.9939 142.455C84.3096 143.552 86.8679 143.064 88.0131 141.698C88.2892 141.341 88.522 140.94 88.7548 140.539C88.8713 140.338 88.9877 140.137 89.1095 139.942C88.8262 142.143 89.3126 144.265 89.8011 146.396C90.3628 148.847 90.3522 149.755 90.3522 149.755H91.5461C91.5461 149.755 91.3755 147.942 90.9126 145.259C90.3522 141.869 90.6689 141.357 93.6415 140.406C94.0411 140.662 94.4171 140.96 94.7799 141.247C95.523 141.836 96.2104 142.381 96.9308 142.43C99.3429 142.625 101.341 141.211 103.071 139.601C104.484 138.284 106.019 136.552 105.458 134.723C105.096 134.584 104.505 134.483 103.894 134.378C103.108 134.243 102.288 134.102 101.877 133.869C101.356 133.583 100.882 133.216 100.406 132.848C100.191 132.682 99.9766 132.516 99.7572 132.357C97.5886 130.82 95.079 131.284 93.8364 133.649C93.276 134.698 92.9593 136.04 93.008 137.21C93.0567 138.43 92.6912 139.113 91.5461 139.576C92.4819 137.976 92.4193 136.282 92.3569 134.594C92.3413 134.173 92.3258 133.752 92.3258 133.332C92.3014 131.113 92.2039 128.869 92.0821 126.649C92.009 125.113 93.8397 123.095 94.007 123.552C93.8999 123.157 95.6664 122.062 96.5144 121.562C96.7802 121.404 96.9552 121.308 96.9552 121.308C96.9552 121.308 97.8671 119.565 99.4331 119.268C98.2733 119.273 97.0779 119.986 95.8344 121.357C95.284 121.956 94.5187 122.351 93.5955 122.827C93.1289 123.068 92.622 123.33 92.0821 123.649C92.4082 122.082 92.6291 119.988 92.8349 118.037C92.9934 116.534 93.143 115.116 93.3249 114.087C93.1972 114.173 93.0711 114.261 92.9477 114.353L92.0037 115.733L91.5447 114.353C91.5447 114.353 91.7166 121.308 91.1319 123.918C91.1236 123.956 91.1156 123.995 91.1076 124.033C90.9738 124.679 90.8437 125.307 89.6943 124.893C89.7015 124.749 89.7109 124.598 89.7204 124.444C89.7432 124.076 89.7674 123.686 89.7674 123.308C89.7918 121.478 89.0121 120.137 87.404 119.259C85.6568 118.278 83.9096 117.278 82.1298 116.259L81.3614 115.82C80.2893 117.454 79.7533 119.308 80.0457 121.308C80.4599 124.283 82.336 126.162 84.9674 127.357C86.8923 128.235 88.2568 127.332 89.4263 125.625C89.5797 125.847 89.739 126.039 89.8814 126.21C90.1461 126.529 90.3522 126.777 90.3522 127.015C90.3372 128.083 90.3475 129.152 90.3576 130.214C90.3806 132.619 90.4033 134.992 90.1329 137.259H87.1116C87.0141 135.113 85.4548 131.771 83.2862 132.43C81.8635 132.849 80.4867 133.383 79.0374 133.945C78.377 134.201 77.7016 134.463 77 134.723C78.3157 137.869 80.4599 140.333 82.9939 142.455ZM103.558 136.137C102.608 139.284 100.488 140.893 97.1988 141.259V141.235C96.078 140.528 95.1521 139.845 95.4932 138.576C95.8831 137.235 97.0283 136.991 98.2709 136.942C98.7399 136.922 99.1918 136.867 99.9266 136.778C100.07 136.761 100.224 136.743 100.391 136.723C98.6225 135.346 97.1394 135.872 95.6988 136.384C95.3528 136.506 95.0093 136.628 94.6648 136.723C95.274 132.967 97.0526 132.088 100.025 133.893C100.98 134.463 101.936 135.084 102.948 135.741L102.951 135.743C103.151 135.873 103.353 136.005 103.558 136.137ZM86.9654 120.21C88.2811 120.966 89.207 122.064 88.4517 123.942L88.4761 123.966C88.2607 123.902 88.0495 123.839 87.8308 123.774L87.8294 123.774L87.8266 123.773C87.3041 123.618 86.7377 123.45 85.9664 123.21C86.1676 123.549 86.3503 123.858 86.5213 124.147L86.5226 124.15L86.587 124.258C86.9061 124.799 87.1868 125.273 87.4771 125.747C85.3329 126.649 84.5532 126.552 83.1401 125.088C81.0446 122.918 80.7523 120.405 81.8243 117.503C82.2929 117.744 82.7549 117.976 83.2108 118.206C84.5089 118.86 85.7572 119.488 86.9654 120.21ZM81.3614 139.237C82.4076 140.337 85.2778 141.954 86.9208 140.774L85.7757 139.56C85.6 139.261 85.403 139.058 85.1849 138.834C84.9229 138.564 84.6304 138.263 84.3075 137.726C84.9241 137.915 85.3919 138.263 85.8251 138.585C86.1919 138.858 86.534 139.113 86.9208 139.237L86.8741 139.031C86.4647 137.226 85.9688 135.039 84.2005 134.596C82.9073 134.272 82.5249 134.404 81.2891 134.832C80.7704 135.012 80.1013 135.244 79.1515 135.516C79.9017 137.769 80.0117 137.88 81.0396 138.912C81.138 139.011 81.2448 139.118 81.3614 139.237Z" fill="#FA1B7A"></path> <path d="M72.7241 47.5776C70.8716 50.2749 70.5159 53.7724 67.952 55.9658C67.8187 56.0844 67.5371 56.0251 67.0332 56.0695C67.4778 54.6764 67.7742 53.4464 68.2485 52.2756C69.2118 49.8747 70.2788 47.5183 71.2718 45.1323C71.5682 44.4358 71.7312 43.6207 72.9909 43.843C73.0502 44.4506 73.1243 45.0582 73.1984 45.7696C75.2435 47.4591 78.1186 47.5628 80.3417 49.0596C77.5851 49.6969 75.2139 48.452 72.7093 47.5776H72.7241Z" fill="#FA1B7A"></path> <path d="M90.5063 44.7023V46.7771C92.7886 48.0961 95.7378 47.5033 98.1534 49.4003C95.1894 49.7263 92.6552 49.0001 90.032 48.4963C88.1202 50.8971 87.0532 53.9056 84.7413 56.2027C83.941 55.0616 84.3559 54.1427 84.8154 53.2831C85.5267 51.9345 86.3715 50.6452 87.1125 49.3114C87.809 48.022 88.4611 46.703 89.0687 45.3692C89.3503 44.7468 89.6171 44.3318 90.5211 44.7171L90.5063 44.7023Z" fill="#FA1B7A"></path> <path d="M110.645 31.5707C109.134 31.6893 107.607 31.8523 106.096 31.9116C98.4187 32.208 90.7419 32.4896 83.0651 32.7711C80.0566 32.8749 77.0481 33.0083 74.0396 33.0676C73.2542 33.0824 72.4687 32.8897 71.7129 32.5785C84.6953 32.0598 97.6481 30.9779 110.63 31.2299C110.63 31.3484 110.63 31.4522 110.645 31.5707Z" fill="#FA1B7A"></path> <path d="M57.1301 38.759C58.1082 38.8627 59.1011 39.0406 60.0793 39.0406C62.0948 39.0406 64.0955 38.9665 66.111 38.9072C67.1781 38.8776 68.2303 38.7738 69.2974 38.759C77.5818 38.6404 85.8514 38.5219 94.1358 38.4033C94.536 38.4033 94.9361 38.4033 95.3363 38.4033V38.7886C93.6616 38.9072 91.9721 39.0999 90.2826 39.1295C86.1478 39.2036 82.013 39.1591 77.8782 39.2332C73.5655 39.3222 69.2529 39.4111 64.9551 39.6778C62.7024 39.8112 60.4794 39.9001 58.2564 39.4852C57.8711 39.4111 57.5006 39.2777 57.1152 39.1591C57.1152 39.0258 57.1301 38.8776 57.1449 38.7442L57.1301 38.759Z" fill="#FA1B7A"></path> <path d="M108.054 21.5681C97.1167 21.5237 86.1943 21.7311 75.2719 22.4573C74.9903 22.4721 74.7087 22.4129 74.3086 22.3684C77.2282 20.7085 103.875 20.3232 108.054 21.5681Z" fill="#FA1B7A"></path> <path d="M73.8047 28.6222C84.1788 28.5185 94.5232 27.3922 105.179 27.822C102.482 28.7556 75.7313 29.4966 73.8047 28.6222Z" fill="#FA1B7A"></path> <path d="M105.532 36.0773C94.8464 36.6405 84.176 37.2778 73.4758 36.8776C73.2239 36.8776 72.9868 36.6553 72.7793 36.3885C83.7165 36.4775 94.6241 35.4993 105.532 36.0773Z" fill="#FA1B7A"></path> <path d="M42.1621 53.5205C44.311 53.8465 46.1191 54.0392 47.8827 54.3949C49.6018 54.7358 51.3506 54.7654 53.0845 55.1952C54.8037 55.625 56.7006 55.21 58.5087 55.4027C60.1834 55.5805 61.9173 55.6101 63.5475 56.2178C57.0415 56.5883 50.6244 56.1881 44.2517 54.884C43.5997 54.7506 42.8438 54.7061 42.1769 53.5205H42.1621Z" fill="#FA1B7A"></path> <path d="M74.0715 25.4655C84.2232 25.1839 94.3898 25.1543 104.542 25.3766C101.726 25.6285 98.9544 26.2065 96.0941 25.7471C94.9678 25.5693 93.7674 25.9694 92.5966 25.9842C88.5803 26.0435 84.5641 26.0731 80.5478 26.088C78.725 26.088 76.8873 26.088 75.0644 26.0583C74.7235 26.0583 74.3975 25.9249 74.0566 25.8508C74.0566 25.7175 74.0566 25.5841 74.0566 25.4507L74.0715 25.4655Z" fill="#FA1B7A"></path> <path d="M119.139 41.2344C119.302 41.1159 119.48 40.8788 119.643 40.8788C126.045 40.5824 132.432 40.3156 138.835 40.0488L138.968 40.3897C138.686 40.5824 138.405 40.9084 138.108 40.9529C136.938 41.1307 135.767 41.2641 134.596 41.3085C130.002 41.4716 125.408 41.5753 120.813 41.6939C120.295 41.6939 119.791 41.6346 119.272 41.6049L119.153 41.2344H119.139Z" fill="#FA1B7A"></path> <path d="M61.902 52.72C60.1533 52.7793 58.3897 53.0016 56.6409 52.883C52.6395 52.6162 48.6529 52.2013 44.6663 51.8159C43.8956 51.7418 43.0805 51.5788 42.6211 50.6748C49.1419 51.238 55.5146 51.7715 61.8872 52.3198V52.72H61.902Z" fill="#FA1B7A"></path> <path d="M119.998 55.2981C127.052 54.6312 134.107 53.9643 141.576 53.2529C140.954 53.6827 140.672 53.9495 140.346 54.068C139.798 54.2607 139.205 54.4089 138.627 54.4534C133.988 54.8239 129.364 55.2092 124.726 55.5056C123.155 55.6093 121.584 55.5204 120.013 55.5204C120.013 55.4463 120.013 55.3722 119.998 55.2833V55.2981Z" fill="#FA1B7A"></path> <path d="M122.34 52.2013C123.703 51.6826 140.406 49.9042 141.517 50.1561C140.85 50.8527 140.065 51.0602 139.279 51.1491C137.115 51.401 134.937 51.6233 132.773 51.7715C129.705 51.979 126.638 52.1272 123.57 52.2754C123.229 52.2902 122.888 52.231 122.34 52.2013Z" fill="#FA1B7A"></path> <path d="M43.5996 48.392C44.8149 48.0066 57.0711 48.5105 58.2715 48.9551C56.9229 49.6072 48.0308 49.7851 45.052 49.2219C44.4888 49.1181 43.9108 49.0144 43.5996 48.392Z" fill="#FA1B7A"></path> <path d="M141.475 46.8799C139.741 48.2285 130.908 49.3104 126.418 48.8361C131.635 47.6209 136.585 47.5468 141.475 46.8799Z" fill="#FA1B7A"></path> <path d="M43.5723 45.9624C46.8771 45.7401 50.1672 46.0069 53.813 46.5404C51.338 47.311 45.2766 46.985 43.5723 45.9624Z" fill="#FA1B7A"></path> <path d="M43.7773 43.072C45.1853 42.4496 49.1126 42.8646 50.4464 43.6204C48.09 44.1539 45.9114 43.9464 43.7773 43.072Z" fill="#FA1B7A"></path> <path d="M134.82 43.2642C136.628 42.4787 138.525 42.6565 140.6 42.4639C140.422 42.8492 140.378 43.1604 140.244 43.1901C138.451 43.6939 136.643 43.768 134.82 43.2642Z" fill="#FA1B7A"></path> <path d="M107.27 41.7089C109.463 41.205 111.686 41.205 113.909 41.3236C112.842 42.0794 110.737 42.1832 107.27 41.7089Z" fill="#FA1B7A"></path> <path d="M118.323 41.3229C117.152 41.9305 115.966 42.138 114.484 41.4563C115.937 40.7301 117.122 40.7597 118.323 41.3229Z" fill="#FA1B7A"></path> <path d="M135.485 45.31C134.329 46.0214 133.128 45.9325 131.928 45.5027C133.099 45.147 134.24 44.6431 135.485 45.31Z" fill="#FA1B7A"></path> <path d="M103.206 38.1367C102.065 38.7295 100.879 38.9963 99.6934 38.1367H103.206Z" fill="#FA1B7A"></path> <path d="M108.215 38.1074H113.12V38.389H108.215V38.1074Z" fill="#FA1B7A"></path> <path d="M173.837 57.7731C173.348 58.0547 172.874 58.3511 172.37 58.5882C170.058 59.7145 167.583 60.2777 165.078 60.7519C161.077 61.5077 157.06 62.2784 153.044 62.9601C148.139 63.79 143.189 64.0864 138.224 64.2346C137.053 64.2643 135.883 64.2939 134.712 64.2791C134.149 64.2791 133.6 64.205 133.037 64.1605C133.037 64.0272 133.037 63.9086 133.037 63.7752C134.638 63.627 136.238 63.3899 137.839 63.3454C147.798 63.0194 157.579 61.3003 167.301 59.2551C169.08 58.8846 170.784 58.1436 172.533 57.5804C172.903 57.4619 173.274 57.4026 173.644 57.2988C173.718 57.447 173.792 57.6101 173.852 57.7583L173.837 57.7731Z" fill="#FA1B7A"></path> <path d="M49.3798 66.2358C48.8908 66.2951 48.4017 66.4285 47.9274 66.4137C44.5188 66.3692 41.0954 66.2062 37.6868 66.2358C29.9062 66.3099 22.348 64.6501 14.7156 63.4941C12.9372 63.2273 11.2181 62.4419 9.49893 61.8639C9.14324 61.7453 8.84684 61.4489 8.58008 60.945C8.87648 60.945 9.1877 60.8709 9.43965 60.945C10.7735 61.4045 12.048 62.0269 13.4114 62.3826C14.8193 62.7531 16.2865 62.9458 17.7389 63.1236C23.4743 63.835 29.1948 64.6501 34.945 65.1836C39.228 65.5689 43.5555 65.5689 47.8533 65.7468C48.3572 65.7616 48.8463 65.8357 49.3502 65.8801C49.3502 65.9839 49.3502 66.1024 49.3502 66.2062L49.3798 66.2358Z" fill="#FA1B7A"></path> <path d="M156.129 59.8335C157.626 59.5964 159.123 59.3741 160.619 59.1073C162.116 58.8406 163.613 58.5442 165.095 58.0551C163.746 57.3586 162.161 58.4256 160.886 57.4327C163.243 56.8843 165.599 56.3508 168.207 55.7432C167.837 57.1511 166.518 56.7954 165.895 57.655C166.696 58.1885 167.437 57.8328 168.163 57.6105C168.919 57.3882 169.66 57.1363 170.742 56.7806C168.993 58.7813 162.472 60.1596 156.129 59.8187V59.8335Z" fill="#FA1B7A"></path> <path d="M11.8691 60.5303C16.5671 61.7307 21.3985 62.0567 26.3928 62.7978C23.4436 63.7462 13.944 62.2494 11.8691 60.5303Z" fill="#FA1B7A"></path> <path d="M21.8597 60.5154C18.6437 61.2712 15.324 60.7377 13.9902 59.3002C15.3981 59.0038 16.5541 59.6855 17.7694 59.8782C18.9846 60.0708 20.2147 60.2487 21.8597 60.5006V60.5154Z" fill="#FA1B7A"></path> <path d="M129.452 82.9375C129.407 84.5528 128.459 85.5162 126.947 85.4865C125.406 85.4569 124.517 84.5677 124.531 83.0708C124.546 81.5295 125.569 80.5811 127.14 80.6255C128.533 80.6552 129.496 81.6185 129.452 82.9523V82.9375Z" fill="#FA1B7A"></path> <path d="M56.4632 80.4625C58.9826 79.9735 60.1386 81.4407 60.2275 82.7448C60.3016 83.8563 59.6347 84.8493 58.4491 85.3235C57.4117 85.7237 56.1816 85.4124 55.5888 84.5825C54.8923 83.6192 54.8923 82.6559 55.5888 81.6481C55.8556 81.2628 56.152 80.8923 56.4632 80.4477V80.4625Z" fill="#FA1B7A"></path> <path d="M144 174.485C144.551 174.485 146.629 174.222 146.444 173.39C146.367 173.041 144.933 173.325 145.621 173.15C146.193 173.005 146.813 172.884 147.365 172.677C147.97 172.45 147.294 172.585 147.294 172.437C147.294 172.239 148.437 171.69 148.565 171.594C148.969 171.289 149.791 170.737 150.043 170.284C150.145 170.1 149.563 170.167 149.492 170.174C148.841 170.239 150.656 169.424 150.814 169.35C151.491 169.037 152.147 168.711 152.844 168.443C153.086 168.35 151.815 168.485 152.066 168.417C152.904 168.188 153.729 167.828 154.53 167.49C154.721 167.409 156.164 166.808 155.911 166.789C155.172 166.735 154.38 166.752 153.674 166.99C152.688 167.323 154.133 166.851 154.361 166.757C155.446 166.308 156.472 165.723 157.538 165.233C158.205 164.927 157.56 164.916 157.175 164.916C156.676 164.916 155.193 165.121 155.684 165.032C156.878 164.815 158.098 164.123 159.159 163.567C159.766 163.249 160.738 162.847 161.188 162.296C161.343 162.108 158.971 162.287 158.731 162.361C158.334 162.483 157.298 163.105 156.864 162.996C156.604 162.931 157.279 162.656 157.499 162.504C158.121 162.073 158.745 161.65 159.392 161.259C159.982 160.902 160.605 160.497 161.253 160.254C161.499 160.161 161.456 159.67 161.623 159.456C161.739 159.307 161.916 159.3 162.09 159.262C162.778 159.109 163.425 158.89 164.074 158.613C165.054 158.195 166.021 157.701 167.03 157.356C167.09 157.335 167.271 157.276 167.212 157.297C166.692 157.484 166.202 157.714 165.714 157.971C165.334 158.172 164.781 158.593 164.333 158.62C163.891 158.646 164.966 157.999 165.318 157.732C166.245 157.028 167.413 156.415 168.236 155.592C168.845 154.983 166.631 156.249 165.915 156.727C165.628 156.918 164.622 157.638 165.474 156.915C166.803 155.786 168.159 154.671 169.455 153.504C169.805 153.189 170.285 152.678 169.513 153.161C168.896 153.547 167.089 154.774 167.717 154.405C168.889 153.718 169.922 152.724 170.998 151.896C171.093 151.824 172.429 150.94 171.815 151.222C171.6 151.321 170.127 152.223 170.492 151.857C171.35 151 172.427 150.376 173.138 149.374C173.425 148.969 173.009 149.052 172.71 149.043C172.177 149.028 173.541 147.368 173.682 147.163C174.063 146.613 175.174 144.841 175.5 144.255" stroke="#FA1B7A" stroke-linecap="square"></path> <path d="M40 175.755C39.4052 175.755 37.1624 175.469 37.3619 174.568C37.4457 174.19 38.9936 174.497 38.2506 174.308C37.6335 174.151 36.964 174.02 36.3683 173.795C35.7153 173.549 36.4452 173.697 36.4452 173.535C36.4452 173.322 35.2111 172.726 35.0737 172.622C34.6376 172.292 33.7498 171.694 33.4783 171.203C33.3677 171.004 33.9956 171.076 34.073 171.084C34.775 171.154 32.8162 170.271 32.6455 170.192C31.9152 169.852 31.2071 169.499 30.4553 169.209C30.1939 169.108 31.5652 169.254 31.295 169.18C30.3901 168.933 29.4997 168.542 28.6359 168.176C28.4291 168.088 26.8719 167.438 27.1454 167.417C27.9429 167.358 28.7978 167.377 29.5596 167.635C30.6233 167.996 29.0637 167.484 28.8179 167.382C27.6472 166.896 26.5399 166.262 25.389 165.732C24.6694 165.4 25.3654 165.387 25.7809 165.387C26.319 165.387 27.9198 165.61 27.3904 165.514C26.1018 165.279 24.7845 164.528 23.6396 163.926C22.9842 163.582 21.9355 163.146 21.4494 162.55C21.2829 162.345 23.8427 162.54 24.1015 162.62C24.5298 162.752 25.6483 163.426 26.1168 163.308C26.3974 163.238 25.6688 162.94 25.431 162.774C24.7603 162.308 24.0864 161.85 23.3877 161.426C22.7514 161.04 22.0787 160.6 21.3794 160.337C21.1136 160.237 21.1602 159.705 20.9806 159.473C20.8549 159.311 20.6645 159.304 20.4767 159.262C19.7341 159.097 19.0353 158.86 18.3355 158.56C17.2775 158.107 16.2335 157.572 15.1446 157.197C15.0797 157.175 14.8841 157.111 14.9486 157.134C15.5091 157.337 16.0385 157.585 16.5651 157.865C16.9754 158.082 17.5717 158.538 18.0556 158.567C18.5321 158.595 17.372 157.895 16.9919 157.605C15.9922 156.842 14.7311 156.178 13.843 155.287C13.1858 154.627 15.5748 155.998 16.3482 156.516C16.6579 156.723 17.7432 157.503 16.824 156.72C15.3896 155.496 13.9261 154.288 12.5275 153.025C12.1493 152.683 11.6313 152.13 12.4645 152.653C13.1312 153.071 15.081 154.4 14.4028 154.001C13.1381 153.257 12.023 152.179 10.8621 151.283C10.76 151.204 9.31815 150.246 9.98036 150.552C10.2125 150.66 11.8024 151.637 11.4079 151.241C10.4824 150.312 9.32038 149.636 8.55285 148.551C8.2424 148.111 8.69213 148.202 9.01469 148.192C9.58968 148.176 8.11796 146.378 7.96506 146.155C7.55472 145.559 6.35475 143.64 6.00336 143.005C5.9219 142.857 7.34727 144.654 7.41924 144.687C7.57364 144.758 6.36255 141.808 6.5 141.755" stroke="#FA1B7A" stroke-linecap="square"></path> </svg> 