<?xml version="1.0" encoding="UTF-8"?> <svg xmlns="http://www.w3.org/2000/svg" width="242" height="237" viewBox="0 0 242 237" fill="none"> <path d="M183.072 146.546C188.461 167.264 185.492 195.765 175.319 220.972C173.261 226.071 170.522 231.617 169.234 233.295C167.692 235.306 168.236 233.414 170.831 227.748C175.003 218.639 175.955 214.615 172.385 221.185C171.1 223.548 171.697 220.448 173.892 213.351C176.817 203.894 180.126 189.434 177.931 195.699C173.632 207.967 171.959 212.14 171.3 212.229C170.867 212.287 171.42 209.722 172.532 206.53C175.162 198.971 177.206 188.075 177.714 178.914C178.151 171.03 176.268 148.822 175.087 147.921C174.692 147.62 173.214 148.352 171.804 149.548C169.183 151.768 163.943 152.44 160.068 151.052C156.18 149.659 157.579 148.609 161.84 149.723C168.187 151.38 170.699 149.478 174.054 140.469C175.594 136.331 177.041 132.702 177.269 132.404C178.011 131.43 181.096 138.948 183.072 146.546Z" fill="#FA1B7A"></path> <path d="M165.543 194.759C168.077 217.058 168.071 221.403 165.493 229.57C163.569 235.663 161.801 238.935 163.043 234.103C166.661 220.021 166.91 215.173 164.757 200.483C162.341 183.995 160.706 180.315 151.083 169.7C145.194 163.204 134.99 156.293 127.92 154.011C121.617 151.977 122.602 151.29 129.466 152.933C136.075 154.515 149.967 163.587 154.081 169.008C158.758 175.173 156.753 169.941 151.517 162.321L146.688 155.293L152.176 159.989C161.216 167.723 162.995 172.348 165.543 194.759Z" fill="#FA1B7A"></path> <path d="M152.999 157.892C161.236 164.532 164.052 168.81 166.04 177.706C166.581 180.122 166.847 182.329 166.632 182.611C166.418 182.892 165.991 181.614 165.683 179.771C164.638 173.505 158.76 164.148 151.848 157.747L145.296 151.68L152.999 157.892Z" fill="#FA1B7A"></path> <path d="M227.29 70.9432C235.192 75.1682 237.867 77.2214 240.773 81.2862C242.411 83.5766 240.711 83.5438 238.462 81.2409C237.204 79.9536 236.14 79.2453 236.099 79.6681C236.058 80.0916 232.375 79.7796 227.916 78.9761C222.745 78.0437 215.9 78.056 209.019 79.0103C203.085 79.8337 200.068 79.9378 202.312 79.2416C209.203 77.105 218.096 76.6087 226.847 77.8694C236.838 79.3097 236.471 78.5271 225.948 75.951C221.733 74.9186 215.97 73.0316 213.14 71.7576C205.523 68.3271 190.233 65.4462 179.302 65.3828C172.71 65.3437 171.146 65.0825 174.344 64.5564C176.913 64.134 182.192 63.9416 186.072 64.1289C189.953 64.3163 193.219 64.3505 193.329 64.2054C193.676 63.7509 189.757 62.7476 186.391 62.4298C183.369 62.1439 183.315 62.0876 185.521 61.5251C186.816 61.1953 187.612 60.7241 187.29 60.4782C186.455 59.8418 172.92 58.7728 166.335 58.8246C163.276 58.8479 161.853 58.5936 163.173 58.258C167.606 57.1334 182.63 57.2889 190.735 58.5441C201.889 60.2706 216.773 65.3196 227.29 70.9432Z" fill="#FA1B7A"></path> <path d="M190.871 68.1637C200.848 68.8498 212.754 71.6002 215.8 73.9225C217.294 75.0614 201.07 78.3182 190.171 79.0668C178.412 79.8742 166.777 87.8958 159.907 99.9311C157.274 104.545 157.111 105.259 159.011 103.877C160.286 102.949 162.574 100.651 164.096 98.7703C166.152 96.2285 166.823 95.8526 166.71 97.3076C166.589 98.8577 166.907 98.8126 168.239 97.0873C169.164 95.8891 172.811 92.761 176.343 90.136C179.875 87.5104 183.667 84.5469 184.768 83.5508C186.716 81.7896 196.733 79.5781 196.908 80.8711C196.956 81.2263 195.007 82.0638 192.578 82.7316C190.148 83.3996 184.686 86.2736 180.441 89.1178C166.228 98.639 153.88 117.895 156.454 126.524C157.308 129.391 157.107 130.01 155.009 130.968C153.667 131.58 152.11 133.155 151.545 134.469C150.981 135.783 149.389 137.535 148.006 138.364C145.788 139.692 145.85 139.387 148.52 135.782C152.35 130.614 153.67 125.56 153.515 116.66C153.31 104.973 146.282 95.0652 137.11 93.5312C135.087 93.193 132.661 92.5414 131.718 92.0835C130.775 91.6248 128.017 91.1637 125.588 91.0591C114.265 90.567 108.363 92.2605 104.715 97.0459C103.358 98.8263 102.465 99.298 102.127 98.4143C101.801 97.5634 102.877 95.8045 105.044 93.6467C107.085 91.6158 108.131 89.9628 107.621 89.5743C107.149 89.2145 106.314 89.5106 105.764 90.2317C104.451 91.9544 102.932 90.7538 103.887 88.7477C104.465 87.5343 103.125 85.9512 97.834 81.5985C90.098 75.2361 87.0103 69.9865 85.8233 61.1759C85.1332 56.0571 85.907 47.1783 86.8725 49.1459C87.1202 49.6513 88.6355 52.4623 90.2413 55.392C92.3305 59.2087 92.8811 61.6463 92.1813 63.9889C91.6002 65.9313 91.9732 68.7159 93.0994 70.8516L94.9954 74.4449L92.2288 71.7289L89.4622 69.0129L91.4285 72.7786C92.7044 75.2219 95.726 78.3286 100.032 81.6238C105.947 86.1518 107.655 86.8956 115.743 88.4707C120.733 89.4433 128.123 89.9708 132.166 89.643C136.207 89.3146 141.408 89.7059 143.724 90.512C149.359 92.4712 153.408 90.5137 154.78 85.1663C156.134 79.8873 155.189 76.2097 151.372 71.9052C149.578 69.8823 148.871 68.7393 149.802 69.3659C150.734 69.9923 157.963 69.8137 165.868 68.9685C173.773 68.1248 185.024 67.7623 190.871 68.1637Z" fill="#FA1B7A"></path> <path d="M157.468 131.033L157.118 134.222C156.729 137.776 155.652 139.983 155.421 137.696C155.343 136.915 155.771 135.095 156.373 133.654L157.468 131.033Z" fill="#FA1B7A"></path> <path d="M127.446 148.04C133.069 147.857 140.553 149.234 142.659 150.84C143.231 151.276 140.384 151.003 136.33 150.231C131.789 149.368 125.847 149.393 120.857 150.294C115.675 151.232 111.422 151.224 109.055 150.273C104.759 148.547 99.3656 150.508 97.6941 154.403C97.1045 155.776 96.937 158.92 97.3246 161.388C97.9283 165.25 98.7192 166.404 102.996 169.665C105.729 171.749 109.153 173.827 110.604 174.284C112.599 174.912 112.933 175.327 111.972 175.982C111.255 176.469 108.941 175.727 106.684 174.287C103.034 171.959 101.454 171.899 89.3253 173.624C71.1624 176.208 57.5208 175.246 40.0374 170.149C36.2881 169.055 33.8264 168.653 34.5671 169.255C36.1277 170.523 47.9654 173.857 56.4923 175.43C59.7252 176.026 62.4112 176.817 62.4612 177.189C62.5545 177.88 53.0775 177.253 46.4926 176.132L42.823 175.506L45.5268 177.623C49.6213 180.829 56.6364 182.711 66.4326 183.233C72.5739 183.561 73.7068 183.82 70.1438 184.085C62.2569 184.672 40.6742 181.847 33.2165 179.253C24.3813 176.179 15.2862 171.195 7.27011 165.035L0.733447 160.013L6.30979 161.763C18.2951 165.523 30.6081 166.629 41.4882 164.925C53.9671 162.969 54.6543 162.878 63.171 162.047C74.7793 160.916 79.6422 157.938 88.2616 146.683C96.5916 135.807 98.1779 130.436 96.8378 117.633C95.7428 107.172 96.7892 108.361 98.7762 119.836C101.239 134.062 103.004 137.765 109.77 142.898C115.95 147.585 118.512 148.33 127.446 148.04Z" fill="#FA1B7A"></path> <path d="M123.725 144.624C125.378 144.948 128.521 145.313 130.709 145.434L134.688 145.654L130.653 146.413C123.684 147.725 117.462 146.059 111.143 141.186C107.386 138.288 104.995 135.639 104.027 133.298C103.225 131.359 103.149 130.642 103.86 131.704C104.57 132.766 107.005 135.284 109.269 137.299L113.386 140.963L110.82 137.078L108.254 133.192L112.724 136.394C115.182 138.155 118.965 140.126 121.132 140.773C129.643 143.317 129.692 143.353 125.12 143.7C121.161 144 121.022 144.093 123.725 144.624Z" fill="#FA1B7A"></path> <path d="M104.561 177.938C106.349 177.307 107.976 176.917 108.178 177.071C108.811 177.553 104.207 179.37 102.723 179.224C101.946 179.149 102.773 178.57 104.561 177.938Z" fill="#FA1B7A"></path> <path d="M120.736 100.874C133.402 98.0422 145.68 109.472 144.509 123.006C144.229 126.252 143.233 129.912 142.296 131.139C139.575 134.704 133.339 137.07 128.717 136.292C121.731 135.117 113.229 127.186 112.55 121.213C112.311 119.11 112.346 119.064 112.864 120.8C114.032 124.714 119.062 130.44 123.448 132.85C141.581 142.817 146.627 117.417 128.779 106.01C124.417 103.223 122.781 102.777 119.475 103.478C114.667 104.499 111.796 108.889 111.666 115.417C111.609 118.292 111.406 118.811 110.999 117.128C109.279 110.009 113.825 102.418 120.736 100.874Z" fill="#FA1B7A"></path> <path d="M140.367 99.5335C143.144 101.543 145.868 103.92 146.42 104.815C148.124 107.573 146.807 106.699 140.95 101.183L135.319 95.8806L140.367 99.5335Z" fill="#FA1B7A"></path> <path d="M143.289 87.7436C144.645 88.7778 146.681 89.5534 147.814 89.4658C149.564 89.3311 149.525 89.4037 147.548 89.9542C146.27 90.3099 144.272 89.8758 143.109 88.9888C141.821 88.0066 138.244 87.6433 133.965 88.0611C127.416 88.6992 120.5 87.9879 113.718 85.9786C111.842 85.4215 111.282 84.9785 112.077 84.6746C112.805 84.3962 111.795 83.0736 109.523 81.3291C107.458 79.742 105.468 77.6129 105.102 76.5972C104.631 75.2869 105.909 75.8659 109.501 78.5898C116.57 83.9497 126.82 87.1735 134.509 86.4538C138.74 86.0575 141.635 86.4828 143.289 87.7436Z" fill="#FA1B7A"></path> <path d="M144.785 67.7148C144.301 66.9049 144.666 66.8556 145.716 67.59C146.666 68.2548 147.024 68.8542 146.513 68.9232C146.002 68.9921 145.223 68.4485 144.785 67.7148Z" fill="#FA1B7A"></path> <path d="M95.4327 113.952C96.7989 121.551 96.1289 130.408 93.6895 137.001C92.3485 140.625 92.308 140.691 92.1479 139.509C92.0714 138.942 92.4505 136.483 92.9883 134.045L93.9677 129.611L91.6675 133.386L89.3673 137.161L90.3821 133.542C91.8815 128.196 91.3569 127.347 89.3317 131.842C87.2558 136.448 82.4017 142.824 79.1265 145.247C77.7188 146.289 79.1221 143.871 82.7429 139.021C89.4813 129.99 91.4075 124.942 92.0071 114.737C92.5954 104.738 93.7295 104.477 95.4327 113.952Z" fill="#FA1B7A"></path> <path d="M68.1016 153.096C68.0619 152.808 69.9144 151.233 72.2177 149.599C74.5201 147.964 75.9502 147.276 75.3955 148.071C74.236 149.731 68.207 153.884 68.1016 153.096Z" fill="#FA1B7A"></path> <path d="M58.3496 158.999C58.7379 159.628 60.4406 160.257 62.132 160.395C63.8242 160.534 62.8931 160.829 60.0637 161.05C57.235 161.271 54.4053 161.502 53.7751 161.562C53.1457 161.622 48.2851 162.402 42.9739 163.293C37.6636 164.186 35.914 164.343 39.0877 163.645C42.262 162.945 47.735 161.357 51.2508 160.114C54.7666 158.871 57.9613 158.37 58.3496 158.999Z" fill="#FA1B7A"></path> <path d="M96.5529 93.9562C96.9565 93.9018 97.5094 94.4366 97.7796 95.1444C98.5176 97.0698 97.8628 97.3666 96.7732 95.6016C96.2484 94.7509 96.1494 94.0106 96.5529 93.9562Z" fill="#FA1B7A"></path> <path d="M79.4359 92.1341C80.7446 90.4175 90.5403 88.9699 92.1302 90.2581C92.7641 90.7718 91.8274 90.9671 90.0462 90.6912C84.523 89.836 79.488 93.2423 74.4692 101.23L70.1236 108.144L68.9229 105.555C61.1483 88.8018 58.2584 68.2029 61.3392 51.4996C63.9279 37.463 75.6774 7.89228 81.5031 0.753273C82.5133 -0.484728 80.5514 4.46148 77.1433 11.7451C73.7352 19.0287 70.3046 27.047 69.5209 29.5633C67.8433 34.9488 66.0158 44.51 66.6955 44.3399C67.1574 44.2235 72.0698 36.2666 78.2098 25.6881C79.8925 22.7902 81.5244 18.5143 81.8371 16.1861C82.5327 11.0084 83.7656 10.381 83.3651 15.4093C83.2072 17.402 83.2025 22.1087 83.3562 25.8663C83.5101 29.6254 83.2817 32.7476 82.8488 32.8059C82.4153 32.8652 81.9661 30.4758 81.8518 27.4987L81.642 22.0854L79.8725 25.5737C72.8689 39.3788 70.0175 70.2618 74.3057 85.8871C76.0305 92.1721 77.7812 94.3044 79.4359 92.1341Z" fill="#FA1B7A"></path> <path d="M77.0207 76.6101C76.9438 78.8319 77.2164 82.7327 77.627 85.2778C78.0366 87.8222 78.2775 90.0279 78.1629 90.1782C76.4869 92.3764 73.3698 75.897 73.3192 64.5736C73.278 55.2808 76.2365 37.5941 78.0373 36.3687C78.7039 35.915 78.711 38.8477 78.054 42.8855C77.3969 46.9234 76.9504 52.1625 77.0623 54.5283L77.2658 58.8297L78.4728 54.5671C79.1363 52.223 79.8154 50.4078 79.9815 50.5344C80.1466 50.6604 80.0133 53.8246 79.6855 57.5648C79.3576 61.3049 79.5854 69.0442 80.1925 74.7631C81.2987 85.1733 80.9475 85.6575 78.4787 77.1288L77.1599 72.5699L77.0207 76.6101Z" fill="#FA1B7A"></path> </svg> 