<?xml version="1.0" encoding="UTF-8"?> <svg xmlns="http://www.w3.org/2000/svg" width="282" height="360" viewBox="0 0 282 360" fill="none"> <path d="M141.177 51.7993C141.31 51.0116 148.466 42.9827 157.077 33.9567C165.691 24.9296 173.195 17.6144 173.757 17.7002C174.317 17.7857 175.027 20.7204 175.332 24.2198C175.638 27.7195 176.12 32.6151 176.404 35.0972C181.154 76.6872 181.105 76.4635 185.7 77.2378C188.937 77.7833 188.89 77.9686 187.282 71.0449C185.383 62.8801 187.012 64.4751 189.148 72.8747L190.971 80.041L187.603 81.6468C185.75 82.5298 182.542 85.7072 180.472 88.7092L176.712 94.1662L178.224 89.257C179.531 85.0184 179.457 84.7404 177.68 87.2236C175.236 90.6376 175.132 98.8824 177.474 103.259C179.112 106.318 179.136 106.321 178.725 103.358C178.495 101.696 179.719 103.562 181.445 107.505C189.421 125.72 204.734 133.28 215.191 124.165L218.646 121.154L225.226 125.834C228.845 128.406 231.281 130.476 230.64 130.431C230.001 130.389 227.686 129.006 225.499 127.362C221.538 124.384 217.427 124.016 216.991 126.602C216.739 128.097 258.665 150.368 264.331 151.749C266.278 152.223 270.232 154.124 273.12 155.974C276.007 157.825 279.265 159.158 280.358 158.936C282.498 158.503 282.492 161.128 280.344 164.771C278.773 167.433 248.522 176.63 246.676 175.006C245.979 174.393 245.695 174.597 246.045 175.457C246.666 176.986 243.18 176.983 231.919 175.444C226.628 174.72 226.474 174.83 226.686 179.183L226.906 183.668L222.446 178.182C208.282 160.766 194.738 159.611 189.669 175.388C188.326 179.569 187.391 181.522 187.593 179.73C188.075 175.428 186.522 175.356 178.297 179.305C171.275 182.677 158.7 183.968 161.255 181.055C161.972 180.238 163.66 179.755 165.007 179.982C170.016 180.826 179.611 174.869 184.353 167.974C189.881 159.932 191.679 151.397 190.273 139.876C189.053 129.863 183.084 116.003 178.229 111.906C174.277 108.571 172.681 100.966 174.128 92.3793C175.119 86.4927 179.906 79.2125 182.5 79.6495C183.735 79.8576 183.83 79.4368 182.856 78.0674C182.127 77.0416 180.682 76.5487 179.646 76.9716C176.347 78.3161 170.433 88.465 169.362 94.6171L168.328 100.559L159.984 96.3302C151.179 91.8692 144.648 91.0933 136.719 93.5639C130.745 95.427 131.252 95.9198 138.697 95.4862C145.979 95.0607 157.686 99.9561 162.823 105.572C165.712 108.731 165.676 108.738 157.119 106.652C148.662 104.59 148.387 104.636 141.941 109.228C137.644 112.29 134.705 115.737 133.429 119.209C130.515 127.138 131.714 139.437 136.241 148.036C138.388 152.119 139.339 155.032 138.351 154.51C137.364 153.99 134.924 150.467 132.926 146.682C129.176 139.573 127.523 139.222 130.654 146.2C135.686 157.41 141.365 163.183 152.479 168.387L158.625 171.265L151.751 170.24C142.844 168.909 137.121 165.188 130.173 156.21C123.923 148.132 121.001 140.013 118.663 124.222C116.618 110.408 115.257 106.254 110.152 98.2413C105.484 90.9126 96.9286 83.9634 87.4432 79.7979C83.3956 78.0197 79.7396 74.8881 76.8616 70.7338C73.0504 65.2346 72.7483 64.0195 74.5932 61.6319C75.7638 60.1161 78.5099 58.0912 80.6932 57.1327C82.8782 56.173 84.4307 55.058 84.1436 54.654C83.3088 53.4776 75.0531 56.5321 71.5219 59.3247C69.7421 60.7304 67.8168 61.8017 67.2422 61.7049C66.6676 61.6081 59.7682 54.9512 51.911 46.9126C44.0537 38.8741 35.6261 30.3809 33.1836 28.041C26.2892 21.4335 30.8469 27.33 54.4784 55.5957C72.1653 76.7501 76.4752 81.0999 81.9806 83.3481C95.1203 88.7135 104.727 98.0074 108.1 108.617C109.089 111.73 110.421 121.197 111.06 129.656C112.332 146.508 115.952 157.183 123.253 165.611C125.699 168.435 126.95 170.619 126.03 170.464C125.11 170.309 121.816 167.102 118.711 163.339C109.895 152.654 108.1 151.632 104.393 155.187C102.678 156.832 99.5277 159.794 97.3928 161.768L93.5104 165.359L95.7866 172.22C97.0384 175.994 100.17 181.749 102.745 185.01C105.702 188.752 106.596 190.796 105.173 190.556C102.091 190.037 92.1211 180.182 91.4844 177.025C91.2003 175.615 90.5319 174.772 89.9995 175.15C89.4684 175.53 90.4627 178.558 92.2104 181.882C94.7539 186.719 94.8694 187.52 92.7874 185.901C89.5318 183.366 85.6018 177.295 84.0226 172.359L82.8159 168.588L80.3113 171.734C77.5257 175.235 76.2202 181.111 75.6726 192.617C75.3621 199.14 75.8072 200.547 78.5671 201.756C80.3607 202.542 85.0341 202.696 88.953 202.098C92.872 201.5 96.2287 201.221 96.4136 201.48C96.5968 201.739 82.2026 208.594 64.4255 216.715C46.6471 224.834 32.0052 230.85 31.8856 230.082C31.6881 228.814 40.3162 214.497 65.2896 174.66C70.2213 166.792 74.3137 160.013 74.3843 159.594C74.4549 159.175 72.6513 158.519 70.3757 158.135C66.3276 157.453 65.731 158.222 42.8072 193.696C29.92 213.638 16.2128 234.906 12.3458 240.958C8.47751 247.011 5.13337 251.71 4.91443 251.401C4.69381 251.092 18.375 228.247 35.3148 200.634L66.1157 150.429L76.5836 151.387C94.2176 153.002 102.835 148.169 104.976 135.462C106.521 126.291 103.878 116.953 97.4292 108.788C91.0332 100.691 83.1166 95.4358 75.2606 94.0723C68.3538 92.8732 72.7722 98.7388 15.5566 14.805C3.8049 -2.43688 4.23866 -2.99081 21.14 7.68699C25.5351 10.4636 30.6017 13.2088 32.399 13.789C34.1966 14.3677 36.0138 15.3895 36.4373 16.0599C36.8607 16.7303 35.9961 16.5964 34.5154 15.7641C32.8826 14.8457 32.3006 14.8539 33.0379 15.7866C34.4325 17.5502 101.679 58.6901 103.842 59.1018C104.628 59.2518 106.811 62.4378 108.694 66.181C116.102 80.9056 129.983 89.1345 139.039 84.1669C142.838 82.0834 143.683 80.6545 144.705 74.5914C145.451 70.1625 145.134 64.9836 143.868 60.9091L141.829 54.354L144.605 57.7724C146.13 59.6524 148.128 63.9727 149.044 67.3729C151.083 74.9447 152.117 70.9523 150.296 62.5394C149.301 57.9485 148.006 56.0823 144.959 54.8548C142.746 53.961 141.044 52.5869 141.177 51.7993Z" fill="#FA1B7A"></path> <path d="M180.097 43.8343C179.303 41.6718 178.762 39.2569 178.895 38.4679C179.028 37.6788 179.786 38.8024 180.58 40.9649C181.374 43.1274 181.915 45.5423 181.782 46.3314C181.649 47.1204 180.89 45.9968 180.097 43.8343Z" fill="#FA1B7A"></path> <path d="M50.6547 24.9296C49.8666 24.7968 48.3599 23.8996 47.3065 22.9358C46.2532 21.9719 46.0362 21.292 46.8243 21.4248C47.6124 21.5576 49.1191 22.4548 50.1725 23.4186C51.2258 24.3825 51.4428 25.0624 50.6547 24.9296Z" fill="#FA1B7A"></path> <path d="M62.3438 29.8957C64.6778 32.0314 62.4152 31.6502 58.7615 29.2921C57.0084 28.1601 56.84 27.6729 58.2659 27.86C59.4556 28.0148 61.2905 28.9318 62.3438 29.8957Z" fill="#FA1B7A"></path> <path d="M184.127 59.2677C183.082 56.2515 182.337 53.1381 182.47 52.349C182.603 51.5599 183.566 53.3821 184.611 56.3983C185.656 59.4146 186.402 62.528 186.269 63.3171C186.136 64.1061 185.172 62.284 184.127 59.2677Z" fill="#FA1B7A"></path> <path d="M79.6603 40.8205C77.779 39.9606 75.3732 38.4958 74.3143 37.565C72.9769 36.3894 73.433 36.3497 75.8097 37.4362C77.691 38.2962 80.0968 39.7609 81.1557 40.6918C82.4931 41.8673 82.037 41.907 79.6603 40.8205Z" fill="#FA1B7A"></path> <path d="M95.8889 49.4566C94.0075 48.5966 91.6018 47.1319 90.5429 46.201C89.2054 45.0255 89.6615 44.9858 92.0382 46.0723C93.9195 46.9323 96.3253 48.397 97.3842 49.3279C98.7216 50.5034 98.2655 50.5431 95.8889 49.4566Z" fill="#FA1B7A"></path> <path d="M104.816 56.7592C104.465 56.9523 103.248 55.7352 102.114 54.0553C100.979 52.3768 100.615 51.0983 101.307 51.2149C102.752 51.4583 105.774 56.2345 104.816 56.7592Z" fill="#FA1B7A"></path> <path d="M135.393 132.243C133.718 125.119 136.338 117.74 141.704 114.456C147.744 110.762 155.256 112.364 162.514 118.894C174.132 129.347 177.52 144.726 170.319 154.324C166.702 159.145 159.046 160.208 152.306 156.827C146.998 154.164 139.369 145.976 137.776 141.232C137.2 139.513 138.876 141.132 141.504 144.83C151.36 158.698 165.782 159.405 168.018 146.131C169.28 138.639 166 130.874 159.142 125.127C152.4 119.478 147.767 118.566 141.952 121.744C137.972 123.918 137.448 124.9 137.07 130.881L136.647 137.58L135.393 132.243Z" fill="#FA1B7A"></path> <path d="M179.232 158.657C182.749 154.104 183.642 138.041 180.955 127.659C177.897 115.839 180.611 118.445 184.04 130.619C187.087 141.437 186.169 151.035 181.36 158.667C179.686 161.323 178.011 163.069 177.64 162.545C177.268 162.022 177.985 160.272 179.232 158.657Z" fill="#FA1B7A"></path> <path d="M253.38 144.164C252.639 144.693 233.48 132.921 232.497 131.333C231.737 130.107 232.797 130.687 244.952 138.141C249.942 141.201 253.735 143.911 253.38 144.164Z" fill="#FA1B7A"></path> <path d="M259.691 148.676C258.903 148.543 257.397 147.646 256.343 146.682C255.29 145.718 255.073 145.038 255.861 145.171C256.649 145.304 258.156 146.201 259.209 147.165C260.263 148.129 260.48 148.809 259.691 148.676Z" fill="#FA1B7A"></path> <path d="M238.639 179.087C237.615 178.9 237.888 178.366 239.32 177.749C242.373 176.43 242.869 176.514 241.469 178.111C240.849 178.818 239.576 179.257 238.639 179.087Z" fill="#FA1B7A"></path> <path d="M188.632 187.191C187.982 188.257 187.7 187.86 187.913 186.177C188.106 184.654 188.587 183.865 188.982 184.421C189.378 184.978 189.221 186.224 188.632 187.191Z" fill="#FA1B7A"></path> <path d="M113.436 194.815C119.381 186.351 123.632 182.875 129.627 181.579C134.576 180.51 152.721 183.44 163.082 186.983C167.542 188.507 174.513 192.012 178.572 194.769C186.584 200.211 187.339 202.903 179.459 197.928C170.48 192.26 170.896 194.281 180.117 201.139C185.159 204.889 190.56 209.105 192.118 210.508C196.507 214.461 196.561 213.879 192.606 205.14C190.58 200.659 189.075 196.256 189.262 195.355C189.451 194.453 190.464 196.327 191.515 199.517C193.525 205.612 199.642 215.113 206.232 222.373C209.605 226.089 210.809 230.759 214.936 256.119C217.57 272.307 219.452 285.747 219.118 285.986C218.784 286.223 216.165 279.094 213.298 270.143C210.433 261.191 207.881 254.014 207.628 254.195C207.377 254.374 209.139 264.079 211.545 275.763C213.951 287.445 217.756 306.8 219.998 318.773C222.57 332.494 225.28 342.363 227.328 345.462C230.475 350.224 233.277 360.396 231.075 359.054C229.58 358.142 202.666 316.573 202.853 315.464C202.936 314.973 203.729 315.192 204.613 315.951C205.707 316.888 205.723 316.446 204.666 314.571C202.844 311.346 201.55 310.73 202.546 313.562C203.806 317.141 194.847 304.06 177.706 277.286C165.058 257.53 160.916 249.871 161.364 247.057C162.547 239.623 159.547 214.172 156.515 205.926C154.815 201.3 151.244 194.757 148.579 191.384C144.416 186.111 142.756 185.085 136.767 184.076C124.655 182.035 117.558 188.174 108.933 208.157C105.994 214.965 102.323 221.585 100.775 222.868C99.2281 224.15 93.1293 227.304 87.2257 229.877C81.3221 232.45 76.4403 234.852 76.3789 235.217C76.1456 236.601 107.106 226.314 108.107 224.674C108.862 223.436 109.088 223.564 108.908 225.131C108.741 226.59 90.8511 232.761 54.8785 243.771C25.2995 252.824 0.912589 259.968 0.683632 259.648C0.456351 259.326 0.905212 257.651 1.68124 255.922C2.4587 254.194 3.3977 253.528 3.76979 254.442C4.14591 255.367 9.47557 251.898 15.7727 246.631C26.0995 237.992 30.6674 235.633 67.5166 219.902L107.935 202.648L113.436 194.815Z" fill="#FA1B7A"></path> <path d="M107.941 220.134C107.341 221.469 107.154 220.62 107.524 218.248C107.895 215.876 108.384 214.784 108.613 215.821C108.842 216.858 108.54 218.799 107.941 220.134Z" fill="#FA1B7A"></path> <path d="M221.397 301.615C220.832 300.303 220.479 298.584 220.612 297.794C220.745 297.005 221.316 297.433 221.88 298.746C222.444 300.058 222.797 301.777 222.664 302.566C222.531 303.356 221.961 302.927 221.397 301.615Z" fill="#FA1B7A"></path> <path d="M222.812 310.706C222.248 309.394 221.984 307.358 222.228 306.181C222.518 304.771 222.923 305.09 223.416 307.119C224.444 311.349 224.063 313.614 222.812 310.706Z" fill="#FA1B7A"></path> <path d="M227.515 339.259C226.845 334.833 226.134 330.355 225.937 329.307C225.74 328.26 225.911 327.458 226.316 327.526C227.288 327.69 230.239 346.233 229.39 346.838C229.03 347.096 228.186 343.684 227.515 339.259Z" fill="#FA1B7A"></path> </svg> 