<?xml version="1.0" encoding="UTF-8"?> <svg xmlns="http://www.w3.org/2000/svg" width="148" height="118" viewBox="0 0 148 118" fill="none"> <path fill-rule="evenodd" clip-rule="evenodd" d="M80.0803 35.0683C78.4256 35.2768 76.4263 35.7543 75.5853 36.1415C75.2856 36.2796 74.3662 36.6482 73.5422 36.9607C70.949 37.9441 66.2672 41.2573 64.2079 43.5662C63.5732 44.2778 62.4315 45.6484 61.6706 46.6121L60.287 48.3643L56.0859 48.394C52.3461 48.4204 51.6152 48.5043 49.4329 49.1579C46.5384 50.0245 44.7222 50.8817 41.9413 52.6937C39.7069 54.1496 39.1416 54.6236 36.7631 57.0353C34.875 58.9498 34.2375 59.8037 32.4913 62.7577L31.1807 64.9747L29.4099 64.9845C26.9113 64.9979 24.6202 65.4116 21.7097 66.3747C17.1049 67.8988 12.9535 70.7487 9.05241 75.0641C6.28843 78.1216 3.60617 83.4358 3.11336 86.8312C2.72489 89.5079 2.68375 90.9535 2.95863 92.2446C3.3362 94.0172 4.77676 96.9167 5.70926 97.7807C7.37484 99.3236 8.28064 100.044 8.55552 100.044C8.71842 100.044 9.29268 100.34 9.83153 100.703C10.8122 101.362 13.4526 102.363 15.244 102.753C15.7684 102.868 17.0556 103.148 18.1044 103.376C22.1477 104.256 32.1619 104.482 37.4463 103.813C42.2796 103.201 41.8299 103.169 42.2322 104.151C42.4308 104.636 43.2418 105.66 44.0348 106.427C48.311 110.566 55.695 112.456 67.5282 112.442C78.2213 112.43 85.4129 110.743 89.7248 107.236C91.4852 105.804 91.6481 105.609 92.5809 103.819C93.81 101.46 94.2941 98.6514 93.8645 96.3707L93.7057 95.5286L97.8579 95.3352C102.147 95.1352 108.237 94.1852 110.183 93.4127C113.333 92.1618 115.769 90.7556 117.062 89.4408C118.68 87.7957 120.093 85.2119 120.351 83.4298C120.562 81.9697 120.179 82.0848 125.166 81.9848C126.814 81.9516 128.714 81.819 129.389 81.6898C130.063 81.5604 131.779 81.2624 133.202 81.027C139.832 79.9315 144.473 77.2334 146.776 73.1364C147.885 71.1639 148.258 66.5549 147.526 63.8571C145.897 57.8556 143.085 53.5949 137.683 48.9459C136.007 47.5031 135.913 47.4445 132.208 45.5336C127.608 43.1604 123.23 42.4445 117.68 43.1572C114.66 43.5452 110.207 45.2375 107.683 46.9565C107.056 47.3833 106.443 47.7279 106.32 47.7223C106.197 47.7166 105.667 47.1541 105.143 46.4719C103.522 44.3641 98.2905 39.3735 97.7013 39.3735C97.6201 39.3735 96.8402 38.9146 95.9681 38.354C94.2936 37.2773 92.6893 36.6104 89.3426 35.6001C87.1559 34.94 82.9941 34.7011 80.0803 35.0683ZM79.7057 36.289C75.7855 37.0562 73.1292 38.1771 69.4133 40.6325C67.4489 41.9303 63.8333 45.4915 62.4372 47.5033L61.5671 48.7572L62.6565 49.1886C63.2558 49.4259 63.8794 49.62 64.042 49.62C65.0364 49.62 69.5308 52.2356 72.7532 54.6894C73.8979 55.5611 76.2383 58.0284 77.3253 59.509C78.6623 61.3308 78.7558 61.3556 80.3957 60.3271C83.7694 58.2115 86.3601 57.2553 90.9915 56.4162C92.4122 56.1589 94.9817 56.1937 97.3109 56.5019C97.8729 56.5764 98.3325 56.5265 98.3325 56.3914C98.3325 55.984 101.878 51.7497 103.59 50.1122L105.19 48.5816L104.029 47.0112C100.843 42.7028 95.7922 38.9618 90.8314 37.2358C87.4833 36.0712 82.8393 35.6758 79.7057 36.289ZM77.8102 39.0141C77.4966 39.3242 77.6116 39.6432 78.0371 39.6432C78.2619 39.6432 78.4457 39.4611 78.4457 39.2387C78.4457 38.8175 78.1235 38.7037 77.8102 39.0141ZM80.0803 39.3735C80.0803 39.5218 80.2029 39.6432 80.3527 39.6432C80.5025 39.6432 80.6251 39.5218 80.6251 39.3735C80.6251 39.2252 80.5025 39.1039 80.3527 39.1039C80.2029 39.1039 80.0803 39.2252 80.0803 39.3735ZM82.2596 39.3735C82.2596 39.5218 82.3822 39.6432 82.5321 39.6432C82.6819 39.6432 82.8045 39.5218 82.8045 39.3735C82.8045 39.2252 82.6819 39.1039 82.5321 39.1039C82.3822 39.1039 82.2596 39.2252 82.2596 39.3735ZM84.1666 39.6432C84.1666 39.7915 84.3505 39.9128 84.5752 39.9128C84.8 39.9128 84.9838 39.7915 84.9838 39.6432C84.9838 39.4948 84.8 39.3735 84.5752 39.3735C84.3505 39.3735 84.1666 39.4948 84.1666 39.6432ZM86.346 39.778C86.346 40.0004 86.4685 40.1824 86.6184 40.1824C86.7682 40.1824 86.8908 40.0004 86.8908 39.778C86.8908 39.5555 86.7682 39.3735 86.6184 39.3735C86.4685 39.3735 86.346 39.5555 86.346 39.778ZM88.5253 39.9128C88.5253 40.0611 88.7092 40.1824 88.934 40.1824C89.1587 40.1824 89.3426 40.0611 89.3426 39.9128C89.3426 39.7645 89.1587 39.6432 88.934 39.6432C88.7092 39.6432 88.5253 39.7645 88.5253 39.9128ZM90.7047 39.9128C90.7047 40.0611 90.8273 40.1824 90.9771 40.1824C91.1269 40.1824 91.2495 40.0611 91.2495 39.9128C91.2495 39.7645 91.1269 39.6432 90.9771 39.6432C90.8273 39.6432 90.7047 39.7645 90.7047 39.9128ZM73.5422 41.261C73.5422 41.4093 73.6647 41.5307 73.8146 41.5307C73.9644 41.5307 74.087 41.4093 74.087 41.261C74.087 41.1127 73.9644 40.9914 73.8146 40.9914C73.6647 40.9914 73.5422 41.1127 73.5422 41.261ZM75.4491 41.3958C75.4491 41.6431 75.581 41.8017 75.742 41.7485C75.903 41.6954 76.0348 41.5369 76.0348 41.3958C76.0348 41.2548 75.903 41.0963 75.742 41.0432C75.581 40.99 75.4491 41.1486 75.4491 41.3958ZM77.6285 41.5307C77.6285 41.679 77.8124 41.8003 78.0371 41.8003C78.2619 41.8003 78.4457 41.679 78.4457 41.5307C78.4457 41.3824 78.2619 41.261 78.0371 41.261C77.8124 41.261 77.6285 41.3824 77.6285 41.5307ZM79.8078 41.5307C79.8078 41.679 79.9304 41.8003 80.0803 41.8003C80.2301 41.8003 80.3527 41.679 80.3527 41.5307C80.3527 41.3824 80.2301 41.261 80.0803 41.261C79.9304 41.261 79.8078 41.3824 79.8078 41.5307ZM81.9872 41.8003C81.9872 41.9486 82.1098 42.07 82.2596 42.07C82.4095 42.07 82.5321 41.9486 82.5321 41.8003C82.5321 41.652 82.4095 41.5307 82.2596 41.5307C82.1098 41.5307 81.9872 41.652 81.9872 41.8003ZM84.1666 41.8003C84.1666 41.9486 84.2892 42.07 84.439 42.07C84.5888 42.07 84.7114 41.9486 84.7114 41.8003C84.7114 41.652 84.5888 41.5307 84.439 41.5307C84.2892 41.5307 84.1666 41.652 84.1666 41.8003ZM86.346 42.07C86.346 42.2183 86.4685 42.3396 86.6184 42.3396C86.7682 42.3396 86.8908 42.2183 86.8908 42.07C86.8908 41.9217 86.7682 41.8003 86.6184 41.8003C86.4685 41.8003 86.346 41.9217 86.346 42.07ZM88.5253 42.07C88.5253 42.2183 88.6479 42.3396 88.7977 42.3396C88.9476 42.3396 89.0702 42.2183 89.0702 42.07C89.0702 41.9217 88.9476 41.8003 88.7977 41.8003C88.6479 41.8003 88.5253 41.9217 88.5253 42.07ZM90.7047 42.0541C90.7047 42.1937 90.8273 42.3828 90.9771 42.4744C91.1269 42.5661 91.2495 42.4518 91.2495 42.2207C91.2495 41.9896 91.1269 41.8003 90.9771 41.8003C90.8273 41.8003 90.7047 41.9144 90.7047 42.0541ZM71.0904 43.4182C71.0904 43.5665 71.213 43.6878 71.3628 43.6878C71.5126 43.6878 71.6352 43.5665 71.6352 43.4182C71.6352 43.2699 71.5126 43.1485 71.3628 43.1485C71.213 43.1485 71.0904 43.2699 71.0904 43.4182ZM73.2697 43.553C73.2697 43.7755 73.3923 43.9575 73.5422 43.9575C73.692 43.9575 73.8146 43.7755 73.8146 43.553C73.8146 43.3306 73.692 43.1485 73.5422 43.1485C73.3923 43.1485 73.2697 43.3306 73.2697 43.553ZM75.4491 43.6878C75.4491 43.8361 75.5717 43.9575 75.7215 43.9575C75.8714 43.9575 75.9939 43.8361 75.9939 43.6878C75.9939 43.5395 75.8714 43.4182 75.7215 43.4182C75.5717 43.4182 75.4491 43.5395 75.4491 43.6878ZM77.6285 43.6878C77.6285 43.8361 77.7511 43.9575 77.9009 43.9575C78.0507 43.9575 78.1733 43.8361 78.1733 43.6878C78.1733 43.5395 78.0507 43.4182 77.9009 43.4182C77.7511 43.4182 77.6285 43.5395 77.6285 43.6878ZM79.8078 43.9575C79.8078 44.1058 79.9304 44.2271 80.0803 44.2271C80.2301 44.2271 80.3527 44.1058 80.3527 43.9575C80.3527 43.8092 80.2301 43.6878 80.0803 43.6878C79.9304 43.6878 79.8078 43.8092 79.8078 43.9575ZM81.7148 43.9575C81.7148 44.1058 81.8374 44.2271 81.9872 44.2271C82.137 44.2271 82.2596 44.1058 82.2596 43.9575C82.2596 43.8092 82.137 43.6878 81.9872 43.6878C81.8374 43.6878 81.7148 43.8092 81.7148 43.9575ZM117.266 44.3269C111.153 45.653 106.126 48.72 101.685 53.8319C100.345 55.3746 99.5513 56.5788 99.7466 56.7724C99.7997 56.8247 100.821 57.254 102.016 57.7261C105.104 58.946 106.946 59.9192 108.811 61.3165C110.025 62.2265 110.524 62.4611 110.786 62.2457C110.979 62.0874 111.136 61.8633 111.136 61.7482C111.136 61.4411 112.804 59.0404 114.026 57.587C115.217 56.1711 117.953 54.2833 120.32 53.2449C123.649 51.7834 128.496 51.9897 131.977 53.7408C134.262 54.89 134.804 55.2775 136.595 57.0399C138.226 58.6451 138.54 59.038 139.609 60.8103C140.705 62.6294 140.821 62.9424 141.204 65.1247C141.788 68.4497 141.069 70.6681 138.828 72.4518C136.09 74.6318 132.096 75.5999 125.983 75.5651C123.886 75.5532 121.578 75.4729 120.856 75.3869C119.587 75.2353 119.549 75.251 119.74 75.8399C120.177 77.1862 120.386 78.3999 120.392 79.6181L120.399 80.899H122.908C128.034 80.899 134.945 79.7753 138.642 78.3406C145.614 75.6352 148.19 70.1417 145.969 62.7186C145.395 60.8015 143.808 57.6239 142.439 55.6518C138.992 50.6852 132.435 46.1117 126.625 44.6213C124.372 44.0438 119.306 43.8841 117.266 44.3269ZM68.911 45.5754C68.911 45.7237 69.0336 45.845 69.1834 45.845C69.3332 45.845 69.4558 45.7237 69.4558 45.5754C69.4558 45.4271 69.3332 45.3057 69.1834 45.3057C69.0336 45.3057 68.911 45.4271 68.911 45.5754ZM70.8179 45.7102C70.8179 45.9326 71.0018 46.1147 71.2266 46.1147C71.4513 46.1147 71.6352 45.9326 71.6352 45.7102C71.6352 45.4877 71.4513 45.3057 71.2266 45.3057C71.0018 45.3057 70.8179 45.4877 70.8179 45.7102ZM73.2697 45.845C73.2697 45.9933 73.3923 46.1147 73.5422 46.1147C73.692 46.1147 73.8146 45.9933 73.8146 45.845C73.8146 45.6967 73.692 45.5754 73.5422 45.5754C73.3923 45.5754 73.2697 45.6967 73.2697 45.845ZM114.678 45.845C114.678 45.9933 114.862 46.1147 115.086 46.1147C115.311 46.1147 115.495 45.9933 115.495 45.845C115.495 45.6967 115.311 45.5754 115.086 45.5754C114.862 45.5754 114.678 45.6967 114.678 45.845ZM116.857 45.845C116.857 45.9933 116.972 46.1147 117.113 46.1147C117.255 46.1147 117.446 45.9933 117.538 45.845C117.631 45.6967 117.515 45.5754 117.282 45.5754C117.048 45.5754 116.857 45.6967 116.857 45.845ZM119.036 45.9798C119.036 46.2023 119.159 46.3843 119.309 46.3843C119.459 46.3843 119.581 46.2023 119.581 45.9798C119.581 45.7574 119.459 45.5754 119.309 45.5754C119.159 45.5754 119.036 45.7574 119.036 45.9798ZM121.216 46.1147C121.216 46.263 121.338 46.3843 121.488 46.3843C121.638 46.3843 121.761 46.263 121.761 46.1147C121.761 45.9663 121.638 45.845 121.488 45.845C121.338 45.845 121.216 45.9663 121.216 46.1147ZM123.395 46.2336C123.395 46.4646 123.518 46.6539 123.668 46.6539C123.817 46.6539 123.94 46.5399 123.94 46.4002C123.94 46.2605 123.817 46.0715 123.668 45.9798C123.518 45.8881 123.395 46.0025 123.395 46.2336ZM125.575 46.3843C125.575 46.5326 125.697 46.6539 125.847 46.6539C125.997 46.6539 126.119 46.5326 126.119 46.3843C126.119 46.236 125.997 46.1147 125.847 46.1147C125.697 46.1147 125.575 46.236 125.575 46.3843ZM127.754 46.535C127.754 46.7661 127.877 46.8804 128.026 46.7888C128.176 46.6971 128.299 46.5081 128.299 46.3684C128.299 46.2287 128.176 46.1147 128.026 46.1147C127.877 46.1147 127.754 46.3039 127.754 46.535ZM66.4592 47.7325C66.4592 47.8808 66.5744 48.0022 66.7155 48.0022C66.8567 48.0022 67.0476 47.8808 67.1403 47.7325C67.2329 47.5842 67.1174 47.4629 66.8839 47.4629C66.6504 47.4629 66.4592 47.5842 66.4592 47.7325ZM68.6386 47.8673C68.6386 48.0898 68.7612 48.2718 68.911 48.2718C69.0608 48.2718 69.1834 48.0898 69.1834 47.8673C69.1834 47.6449 69.0608 47.4629 68.911 47.4629C68.7612 47.4629 68.6386 47.6449 68.6386 47.8673ZM110.319 47.8673C110.319 48.0898 110.442 48.2718 110.591 48.2718C110.741 48.2718 110.864 48.0898 110.864 47.8673C110.864 47.6449 110.741 47.4629 110.591 47.4629C110.442 47.4629 110.319 47.6449 110.319 47.8673ZM112.498 47.8673C112.498 48.0898 112.621 48.2718 112.771 48.2718C112.921 48.2718 113.043 48.0898 113.043 47.8673C113.043 47.6449 112.921 47.4629 112.771 47.4629C112.621 47.4629 112.498 47.6449 112.498 47.8673ZM114.678 48.0022C114.678 48.1505 114.8 48.2718 114.95 48.2718C115.1 48.2718 115.223 48.1505 115.223 48.0022C115.223 47.8539 115.1 47.7325 114.95 47.7325C114.8 47.7325 114.678 47.8539 114.678 48.0022ZM116.857 48.0022C116.857 48.1505 116.98 48.2718 117.13 48.2718C117.279 48.2718 117.402 48.1505 117.402 48.0022C117.402 47.8539 117.279 47.7325 117.13 47.7325C116.98 47.7325 116.857 47.8539 116.857 48.0022ZM118.764 48.2718C118.764 48.4201 118.948 48.5415 119.173 48.5415C119.397 48.5415 119.581 48.4201 119.581 48.2718C119.581 48.1235 119.397 48.0022 119.173 48.0022C118.948 48.0022 118.764 48.1235 118.764 48.2718ZM121.094 48.2489C121.006 48.3894 121.051 48.5752 121.193 48.662C121.335 48.7488 121.522 48.7049 121.61 48.5644C121.698 48.4239 121.653 48.2381 121.511 48.1513C121.37 48.0645 121.182 48.1084 121.094 48.2489ZM123.395 48.5415C123.395 48.6898 123.518 48.8111 123.668 48.8111C123.817 48.8111 123.94 48.6898 123.94 48.5415C123.94 48.3932 123.817 48.2718 123.668 48.2718C123.518 48.2718 123.395 48.3932 123.395 48.5415ZM125.45 48.5229C125.364 48.6609 125.418 48.8499 125.57 48.9432C125.723 49.0363 125.847 48.9233 125.847 48.6922C125.847 48.2184 125.684 48.1489 125.45 48.5229ZM127.62 48.8154C127.715 48.9662 127.906 49.0198 128.045 48.9343C128.423 48.7032 128.353 48.5415 127.874 48.5415C127.641 48.5415 127.527 48.6647 127.62 48.8154ZM51.464 49.8692C46.4589 50.978 41.7138 53.6642 37.9389 57.5255C35.9319 59.5786 33.9433 62.2198 32.9789 64.1135L32.3954 65.2595H33.0781C33.8188 65.2595 37.7408 66.4953 39.8458 67.3921C40.5664 67.6993 42.4395 68.8153 44.0087 69.8723C46.6978 71.6841 48.8428 73.7558 51.6351 77.2374L52.475 78.285L53.4059 77.6546C55.3341 76.3487 55.7468 76.1257 57.6055 75.3852C61.2519 73.9327 62.7112 73.5859 65.8441 73.4282L68.9064 73.2739L69.9266 71.4913C71.0765 69.4824 71.2146 69.2592 72.2149 67.7923C72.9976 66.6444 76.1171 63.4254 77.1215 62.7289C77.7412 62.2991 77.744 62.2777 77.2743 61.4165C76.5279 60.0472 73.3858 56.7449 71.0637 54.8895C68.5528 52.8825 64.6359 50.9046 61.703 50.162C58.5149 49.355 54.3256 49.2353 51.464 49.8692ZM66.3758 49.7923C66.1582 50.0078 66.4042 50.429 66.7477 50.429C66.8888 50.429 67.004 50.247 67.004 50.0245C67.004 49.6076 66.6826 49.4887 66.3758 49.7923ZM108.14 50.0404C108.14 50.2715 108.262 50.3858 108.412 50.2942C108.562 50.2025 108.684 50.0135 108.684 49.8738C108.684 49.7341 108.562 49.62 108.412 49.62C108.262 49.62 108.14 49.8093 108.14 50.0404ZM110.221 49.8072C109.914 50.1108 110.034 50.429 110.455 50.429C110.68 50.429 110.864 50.3149 110.864 50.1753C110.864 49.8352 110.438 49.5917 110.221 49.8072ZM112.362 50.1593C112.455 50.3076 112.646 50.429 112.787 50.429C112.928 50.429 113.043 50.3076 113.043 50.1593C113.043 50.011 112.852 49.8897 112.619 49.8897C112.385 49.8897 112.27 50.011 112.362 50.1593ZM114.542 50.1593C114.449 50.3076 114.572 50.429 114.814 50.429C115.056 50.429 115.179 50.3076 115.086 50.1593C114.994 50.011 114.871 49.8897 114.814 49.8897C114.757 49.8897 114.634 50.011 114.542 50.1593ZM116.585 50.429C116.585 50.5773 116.707 50.6986 116.857 50.6986C117.007 50.6986 117.13 50.5773 117.13 50.429C117.13 50.2807 117.007 50.1593 116.857 50.1593C116.707 50.1593 116.585 50.2807 116.585 50.429ZM118.764 50.5638C118.764 50.7863 118.887 50.9683 119.036 50.9683C119.186 50.9683 119.309 50.7863 119.309 50.5638C119.309 50.3413 119.186 50.1593 119.036 50.1593C118.887 50.1593 118.764 50.3413 118.764 50.5638ZM105.688 52.0309C105.688 52.1706 105.81 52.3596 105.96 52.4513C106.11 52.543 106.233 52.4287 106.233 52.1976C106.233 51.9665 106.11 51.7772 105.96 51.7772C105.81 51.7772 105.688 51.8913 105.688 52.0309ZM107.867 52.1817C107.867 52.4041 107.99 52.5861 108.14 52.5861C108.289 52.5861 108.412 52.4041 108.412 52.1817C108.412 51.9592 108.289 51.7772 108.14 51.7772C107.99 51.7772 107.867 51.9592 107.867 52.1817ZM61.5556 52.3165C61.5556 52.4648 61.6708 52.5861 61.812 52.5861C61.9531 52.5861 62.1441 52.4648 62.2367 52.3165C62.3293 52.1682 62.2138 52.0469 61.9803 52.0469C61.7469 52.0469 61.5556 52.1682 61.5556 52.3165ZM110.047 52.3165C110.047 52.4648 110.169 52.5861 110.319 52.5861C110.469 52.5861 110.591 52.4648 110.591 52.3165C110.591 52.1682 110.469 52.0469 110.319 52.0469C110.169 52.0469 110.047 52.1682 110.047 52.3165ZM55.1537 52.5861C55.0611 52.7345 55.1837 52.8558 55.4261 52.8558C55.6686 52.8558 55.7912 52.7345 55.6986 52.5861C55.6059 52.4378 55.4834 52.3165 55.4261 52.3165C55.3689 52.3165 55.2463 52.4378 55.1537 52.5861ZM57.1969 52.5861C57.1969 52.7345 57.3808 52.8558 57.6055 52.8558C57.8303 52.8558 58.0141 52.7345 58.0141 52.5861C58.0141 52.4378 57.8303 52.3165 57.6055 52.3165C57.3808 52.3165 57.1969 52.4378 57.1969 52.5861ZM59.6487 52.5861C59.6487 52.7345 59.7713 52.8558 59.9211 52.8558C60.0709 52.8558 60.1935 52.7345 60.1935 52.5861C60.1935 52.4378 60.0709 52.3165 59.9211 52.3165C59.7713 52.3165 59.6487 52.4378 59.6487 52.5861ZM50.9312 52.8558C50.9312 53.0041 51.0538 53.1254 51.2036 53.1254C51.3534 53.1254 51.476 53.0041 51.476 52.8558C51.476 52.7075 51.3534 52.5861 51.2036 52.5861C51.0538 52.5861 50.9312 52.7075 50.9312 52.8558ZM53.1106 52.8558C53.1106 53.0041 53.2332 53.1254 53.383 53.1254C53.5328 53.1254 53.6554 53.0041 53.6554 52.8558C53.6554 52.7075 53.5328 52.5861 53.383 52.5861C53.2332 52.5861 53.1106 52.7075 53.1106 52.8558ZM48.7518 53.1254C48.7518 53.2737 48.8744 53.3951 49.0242 53.3951C49.1741 53.3951 49.2967 53.2737 49.2967 53.1254C49.2967 52.9771 49.1741 52.8558 49.0242 52.8558C48.8744 52.8558 48.7518 52.9771 48.7518 53.1254ZM103.508 54.1881C103.508 54.3278 103.631 54.5168 103.781 54.6085C103.931 54.7002 104.053 54.5858 104.053 54.3548C104.053 54.1237 103.931 53.9344 103.781 53.9344C103.631 53.9344 103.508 54.0484 103.508 54.1881ZM105.604 54.1067C105.387 54.3221 105.633 54.7433 105.976 54.7433C106.117 54.7433 106.233 54.5613 106.233 54.3388C106.233 53.922 105.911 53.8031 105.604 54.1067ZM61.828 54.4737C61.828 54.622 61.9506 54.7433 62.1005 54.7433C62.2503 54.7433 62.3729 54.622 62.3729 54.4737C62.3729 54.3254 62.2503 54.204 62.1005 54.204C61.9506 54.204 61.828 54.3254 61.828 54.4737ZM57.6281 54.7072C57.5107 54.8951 57.4884 55.1216 57.5783 55.2106C57.8221 55.4519 58.088 55.0971 57.9561 54.7061C57.864 54.4321 57.7997 54.4321 57.6281 54.7072ZM59.6487 54.7433C59.6487 54.8916 59.7713 55.013 59.9211 55.013C60.0709 55.013 60.1935 54.8916 60.1935 54.7433C60.1935 54.595 60.0709 54.4737 59.9211 54.4737C59.7713 54.4737 59.6487 54.595 59.6487 54.7433ZM53.1106 54.997C53.1106 55.1367 53.2332 55.3257 53.383 55.4174C53.5328 55.5091 53.6554 55.3948 53.6554 55.1637C53.6554 54.9326 53.5328 54.7433 53.383 54.7433C53.2332 54.7433 53.1106 54.8574 53.1106 54.997ZM55.2899 55.013C55.2899 55.1613 55.4125 55.2826 55.5624 55.2826C55.7122 55.2826 55.8348 55.1613 55.8348 55.013C55.8348 54.8647 55.7122 54.7433 55.5624 54.7433C55.4125 54.7433 55.2899 54.8647 55.2899 55.013ZM48.888 55.2826C48.9807 55.4309 49.1716 55.5522 49.3127 55.5522C49.4539 55.5522 49.5691 55.4309 49.5691 55.2826C49.5691 55.1343 49.3778 55.013 49.1444 55.013C48.9109 55.013 48.7954 55.1343 48.888 55.2826ZM51.0674 55.2826C51.16 55.4309 51.2897 55.5522 51.3559 55.5522C51.4221 55.5522 51.476 55.4309 51.476 55.2826C51.476 55.1343 51.3461 55.013 51.1875 55.013C51.029 55.013 50.9748 55.1343 51.0674 55.2826ZM122.919 55.4296C118.887 56.5041 115.351 59.6932 113.847 63.6114C113.235 65.2061 113.283 65.3736 114.815 66.9947C115.226 67.4299 115.762 68.1056 116.006 68.4963C117.584 71.0267 118.305 71.9904 118.711 72.1107C121.408 72.9102 129.351 72.942 132.29 72.1651C134.073 71.6935 136.369 70.462 137.04 69.6172C138.391 67.9174 138.256 64.7321 136.72 62.0704C133.678 56.7969 128.014 54.0716 122.919 55.4296ZM44.6655 55.703C44.6655 55.9341 44.7881 56.0484 44.9379 55.9567C45.0878 55.865 45.2103 55.676 45.2103 55.5363C45.2103 55.3967 45.0878 55.2826 44.9379 55.2826C44.7881 55.2826 44.6655 55.4719 44.6655 55.703ZM46.5725 55.5522C46.5725 55.7006 46.7563 55.8219 46.9811 55.8219C47.2058 55.8219 47.3897 55.7006 47.3897 55.5522C47.3897 55.4039 47.2058 55.2826 46.9811 55.2826C46.7563 55.2826 46.5725 55.4039 46.5725 55.5522ZM101.329 56.3612C101.329 56.5095 101.452 56.6308 101.602 56.6308C101.751 56.6308 101.874 56.5095 101.874 56.3612C101.874 56.2129 101.751 56.0915 101.602 56.0915C101.452 56.0915 101.329 56.2129 101.329 56.3612ZM103.236 56.496C103.236 56.7433 103.368 56.9018 103.529 56.8487C103.69 56.7956 103.822 56.637 103.822 56.496C103.822 56.355 103.69 56.1964 103.529 56.1433C103.368 56.0902 103.236 56.2487 103.236 56.496ZM49.0242 57.5905C49.0242 57.8216 49.1468 57.9359 49.2967 57.8442C49.4465 57.7526 49.5691 57.5635 49.5691 57.4239C49.5691 57.2842 49.4465 57.1701 49.2967 57.1701C49.1468 57.1701 49.0242 57.3594 49.0242 57.5905ZM51.0674 57.4398C50.9748 57.5881 51.0903 57.7094 51.3237 57.7094C51.5572 57.7094 51.7485 57.5881 51.7485 57.4398C51.7485 57.2915 51.6332 57.1701 51.4921 57.1701C51.351 57.1701 51.16 57.2915 51.0674 57.4398ZM53.1106 57.4398C53.1106 57.5881 53.2332 57.7094 53.383 57.7094C53.5328 57.7094 53.6554 57.5881 53.6554 57.4398C53.6554 57.2915 53.5328 57.1701 53.383 57.1701C53.2332 57.1701 53.1106 57.2915 53.1106 57.4398ZM122.556 57.8019C119.089 59.2135 116.857 61.948 116.857 64.783C116.857 68.1835 120.714 70.6524 126.026 70.6524C128.653 70.6524 131.589 70.0716 132.875 69.298C135.921 67.4647 135.33 62.8653 131.629 59.6007C128.896 57.1893 125.644 56.5446 122.556 57.8019ZM44.6655 57.8442C44.6655 58.0667 44.7881 58.2487 44.9379 58.2487C45.0878 58.2487 45.2103 58.0667 45.2103 57.8442C45.2103 57.6218 45.0878 57.4398 44.9379 57.4398C44.7881 57.4398 44.6655 57.6218 44.6655 57.8442ZM46.8449 57.7094C46.8449 57.8577 46.9675 57.9791 47.1173 57.9791C47.2671 57.9791 47.3897 57.8577 47.3897 57.7094C47.3897 57.5611 47.2671 57.4398 47.1173 57.4398C46.9675 57.4398 46.8449 57.5611 46.8449 57.7094ZM89.615 57.8413C84.9408 58.7416 80.2083 61.2852 76.2465 65.0268C73.5866 67.5386 69.7746 73.2329 70.6063 73.4516C76.098 74.8969 77.331 75.3488 79.8523 76.8413L82.5329 78.4282L82.7135 77.7152C82.9331 76.8494 84.2407 74.1033 85.0492 72.8096C85.7297 71.7208 88.2186 69.3748 90.0947 68.0538C91.5587 67.0227 94.7079 65.9371 97.0559 65.6537C102.577 64.9877 109.427 69.0483 112.406 74.7518C113.911 77.6338 114.269 79.7195 113.732 82.4785C113.551 83.4075 112.287 85.3376 111.484 85.9109C110.591 86.5483 108.131 87.711 106.766 88.14C104.561 88.8333 98.5338 89.1846 94.1781 88.874C92.7173 88.7696 91.522 88.7688 91.522 88.8718C91.522 88.9751 91.7508 89.4378 92.0308 89.9003C92.3106 90.3627 92.759 91.5643 93.0271 92.5703L93.5147 94.3993L96.4005 94.2518C102.702 93.9299 106.314 93.3809 109.798 92.2163C114.257 90.7254 116.782 88.8179 118.279 85.8084C119.125 84.1075 119.173 83.8537 119.173 81.0397C119.173 76.2451 118.109 73.7895 113.143 67.1195C107.921 60.1052 98.0565 56.2156 89.615 57.8413ZM42.4861 57.9791C42.4861 58.1274 42.6087 58.2487 42.7586 58.2487C42.9084 58.2487 43.031 58.1274 43.031 57.9791C43.031 57.8308 42.9084 57.7094 42.7586 57.7094C42.6087 57.7094 42.4861 57.8308 42.4861 57.9791ZM98.6049 58.788C98.6049 58.9363 98.7275 59.0576 98.8773 59.0576C99.0272 59.0576 99.1497 58.9363 99.1497 58.788C99.1497 58.6397 99.0272 58.5184 98.8773 58.5184C98.7275 58.5184 98.6049 58.6397 98.6049 58.788ZM94.2462 59.0576C94.2462 59.2059 94.3688 59.3273 94.5186 59.3273C94.6684 59.3273 94.791 59.2059 94.791 59.0576C94.791 58.9093 94.6684 58.788 94.5186 58.788C94.3688 58.788 94.2462 58.9093 94.2462 59.0576ZM96.4255 59.0576C96.4255 59.2059 96.5481 59.3273 96.698 59.3273C96.8478 59.3273 96.9704 59.2059 96.9704 59.0576C96.9704 58.9093 96.8478 58.788 96.698 58.788C96.5481 58.788 96.4255 58.9093 96.4255 59.0576ZM87.9805 59.3273C87.9805 59.4756 88.1031 59.5969 88.2529 59.5969C88.4027 59.5969 88.5253 59.4756 88.5253 59.3273C88.5253 59.179 88.4027 59.0576 88.2529 59.0576C88.1031 59.0576 87.9805 59.179 87.9805 59.3273ZM89.8874 59.3273C89.8874 59.4756 90.0027 59.5969 90.1438 59.5969C90.2849 59.5969 90.4759 59.4756 90.5685 59.3273C90.6611 59.179 90.5456 59.0576 90.3121 59.0576C90.0787 59.0576 89.8874 59.179 89.8874 59.3273ZM92.0668 59.3273C92.0668 59.4756 92.1894 59.5969 92.3392 59.5969C92.489 59.5969 92.6116 59.4756 92.6116 59.3273C92.6116 59.179 92.489 59.0576 92.3392 59.0576C92.1894 59.0576 92.0668 59.179 92.0668 59.3273ZM85.5287 59.5969C85.5287 59.7452 85.7126 59.8666 85.9373 59.8666C86.1621 59.8666 86.346 59.7452 86.346 59.5969C86.346 59.4486 86.1621 59.3273 85.9373 59.3273C85.7126 59.3273 85.5287 59.4486 85.5287 59.5969ZM44.8281 59.8245C44.7339 59.9755 44.7895 60.1802 44.9515 60.2794C45.3705 60.5356 45.6408 60.1848 45.291 59.8385C45.0954 59.6449 44.9431 59.6403 44.8281 59.8245ZM42.5384 60.1565C42.5921 60.3158 42.7523 60.4463 42.8948 60.4463C43.0372 60.4463 43.1974 60.3158 43.2511 60.1565C43.3048 59.9971 43.1446 59.8666 42.8948 59.8666C42.645 59.8666 42.4848 59.9971 42.5384 60.1565ZM40.5792 60.4059C40.5792 60.5542 40.7018 60.6755 40.8516 60.6755C41.0014 60.6755 41.124 60.5542 41.124 60.4059C41.124 60.2576 41.0014 60.1362 40.8516 60.1362C40.7018 60.1362 40.5792 60.2576 40.5792 60.4059ZM98.8773 61.0959C98.8773 61.327 98.9999 61.4413 99.1497 61.3496C99.2996 61.258 99.4222 61.0689 99.4222 60.9292C99.4222 60.7896 99.2996 60.6755 99.1497 60.6755C98.9999 60.6755 98.8773 60.8648 98.8773 61.0959ZM96.4255 61.2148C96.4255 61.3631 96.5481 61.4845 96.698 61.4845C96.8478 61.4845 96.9704 61.3631 96.9704 61.2148C96.9704 61.0665 96.8478 60.9452 96.698 60.9452C96.5481 60.9452 96.4255 61.0665 96.4255 61.2148ZM90.0381 61.4615C89.9504 61.602 89.9948 61.7878 90.1367 61.8746C90.2786 61.9615 90.4663 61.9175 90.5541 61.777C90.6418 61.6365 90.5974 61.4507 90.4554 61.3639C90.3135 61.2771 90.1258 61.321 90.0381 61.4615ZM92.0668 61.4845C92.0668 61.6328 92.2507 61.7541 92.4754 61.7541C92.7002 61.7541 92.8841 61.6328 92.8841 61.4845C92.8841 61.3361 92.7002 61.2148 92.4754 61.2148C92.2507 61.2148 92.0668 61.3361 92.0668 61.4845ZM94.5186 61.4845C94.5186 61.6328 94.6412 61.7541 94.791 61.7541C94.9408 61.7541 95.0634 61.6328 95.0634 61.4845C95.0634 61.3361 94.9408 61.2148 94.791 61.2148C94.6412 61.2148 94.5186 61.3361 94.5186 61.4845ZM85.8011 61.7541C85.8011 61.9024 85.9237 62.0237 86.0735 62.0237C86.2234 62.0237 86.346 61.9024 86.346 61.7541C86.346 61.6058 86.2234 61.4845 86.0735 61.4845C85.9237 61.4845 85.8011 61.6058 85.8011 61.7541ZM87.9805 61.7541C87.9805 61.9024 88.1031 62.0237 88.2529 62.0237C88.4027 62.0237 88.5253 61.9024 88.5253 61.7541C88.5253 61.6058 88.4027 61.4845 88.2529 61.4845C88.1031 61.4845 87.9805 61.6058 87.9805 61.7541ZM81.593 62.0008C81.5053 62.1413 81.5497 62.3271 81.6916 62.4139C81.8336 62.5008 82.0213 62.4568 82.109 62.3163C82.1967 62.1758 82.1523 61.99 82.0104 61.9032C81.8684 61.8164 81.6807 61.8603 81.593 62.0008ZM83.6217 62.0237C83.6217 62.1721 83.7443 62.2934 83.8942 62.2934C84.044 62.2934 84.1666 62.1721 84.1666 62.0237C84.1666 61.8754 84.044 61.7541 83.8942 61.7541C83.7443 61.7541 83.6217 61.8754 83.6217 62.0237ZM40.5792 62.6979C40.5792 62.9203 40.7018 63.1023 40.8516 63.1023C41.0014 63.1023 41.124 62.9203 41.124 62.6979C41.124 62.4754 41.0014 62.2934 40.8516 62.2934C40.7018 62.2934 40.5792 62.4754 40.5792 62.6979ZM38.3998 62.8327C38.3998 62.981 38.5911 63.1023 38.8245 63.1023C39.058 63.1023 39.1735 62.981 39.0809 62.8327C38.9882 62.6844 38.7973 62.563 38.6562 62.563C38.515 62.563 38.3998 62.6844 38.3998 62.8327ZM87.9805 63.9113C87.9805 64.0596 88.1031 64.1809 88.2529 64.1809C88.4027 64.1809 88.5253 64.0596 88.5253 63.9113C88.5253 63.763 88.4027 63.6416 88.2529 63.6416C88.1031 63.6416 87.9805 63.763 87.9805 63.9113ZM90.1599 63.9113C90.1599 64.0596 90.2824 64.1809 90.4323 64.1809C90.5821 64.1809 90.7047 64.0596 90.7047 63.9113C90.7047 63.763 90.5821 63.6416 90.4323 63.6416C90.2824 63.6416 90.1599 63.763 90.1599 63.9113ZM83.6217 64.1809C83.6217 64.3292 83.8056 64.4506 84.0304 64.4506C84.2551 64.4506 84.439 64.3292 84.439 64.1809C84.439 64.0326 84.2551 63.9113 84.0304 63.9113C83.8056 63.9113 83.6217 64.0326 83.6217 64.1809ZM85.94 64.1852C86.0343 64.336 86.2253 64.3896 86.3647 64.3041C86.7426 64.0731 86.6723 63.9113 86.1937 63.9113C85.9602 63.9113 85.8461 64.0345 85.94 64.1852ZM79.5354 64.6013C79.5354 64.8324 79.658 64.9467 79.8078 64.855C79.9577 64.7634 80.0803 64.5743 80.0803 64.4346C80.0803 64.295 79.9577 64.1809 79.8078 64.1809C79.658 64.1809 79.5354 64.3702 79.5354 64.6013ZM81.4424 64.4506C81.4424 64.5989 81.6263 64.7202 81.851 64.7202C82.0758 64.7202 82.2596 64.5989 82.2596 64.4506C82.2596 64.3023 82.0758 64.1809 81.851 64.1809C81.6263 64.1809 81.4424 64.3023 81.4424 64.4506ZM38.3998 64.9899C38.3998 65.1382 38.5837 65.2595 38.8084 65.2595C39.0332 65.2595 39.2171 65.1382 39.2171 64.9899C39.2171 64.8415 39.0332 64.7202 38.8084 64.7202C38.5837 64.7202 38.3998 64.8415 38.3998 64.9899ZM36.4929 65.2595C36.4929 65.4078 36.6155 65.5291 36.7653 65.5291C36.9151 65.5291 37.0377 65.4078 37.0377 65.2595C37.0377 65.1112 36.9151 64.9899 36.7653 64.9899C36.6155 64.9899 36.4929 65.1112 36.4929 65.2595ZM26.0046 66.4621C22.9571 67.0332 21.7769 67.4037 19.6027 68.4713C16.7903 69.8521 16.4266 70.0713 14.5629 71.5088C8.13163 76.4692 3.92762 83.7685 4.03441 89.7881C4.16572 97.1686 9.41201 101.118 21.0864 102.624C23.9026 102.987 25.9333 103.05 31.1659 102.934C34.7701 102.854 38.4984 102.641 39.4514 102.461L41.1842 102.133L40.9606 101.156C40.6394 99.751 40.7255 96.2488 41.1295 94.3012C41.5071 92.4797 42.9337 89.1401 44.2947 86.8918C45.3673 85.12 47.2429 82.8897 49.5026 80.6991C50.5956 79.6397 51.1668 78.8904 51.0448 78.6768C49.3672 75.7412 44.9674 71.5835 41.3055 69.4743C36.7784 66.8663 30.4715 65.6249 26.0046 66.4621ZM79.5354 66.7426C79.5354 66.965 79.658 67.147 79.8078 67.147C79.9577 67.147 80.0803 66.965 80.0803 66.7426C80.0803 66.5201 79.9577 66.3381 79.8078 66.3381C79.658 66.3381 79.5354 66.5201 79.5354 66.7426ZM81.7148 66.6077C81.7148 66.756 81.8374 66.8774 81.9872 66.8774C82.137 66.8774 82.2596 66.756 82.2596 66.6077C82.2596 66.4594 82.137 66.3381 81.9872 66.3381C81.8374 66.3381 81.7148 66.4594 81.7148 66.6077ZM77.3561 66.8774C77.3561 67.0257 77.5473 67.147 77.7808 67.147C78.0142 67.147 78.1297 67.0257 78.0371 66.8774C77.9445 66.7291 77.7535 66.6077 77.6124 66.6077C77.4713 66.6077 77.3561 66.7291 77.3561 66.8774ZM95.1242 68.8954C93.57 69.3295 91.4244 70.5831 89.7539 72.0335C87.6607 73.8512 85.8011 77.5863 85.8011 79.9738C85.8011 80.9596 85.9978 81.3544 87.1945 82.7719C88.7909 84.6629 89.4227 85.0439 91.9878 85.6614C94.5358 86.2746 101.539 86.2655 104.19 85.6455C106.984 84.9916 108.749 84.056 109.671 82.7393C112.127 79.2309 108.88 72.6632 103.239 69.7286C101.548 68.8493 101.031 68.715 98.9392 68.6117C97.3305 68.5322 96.097 68.6239 95.1242 68.8954ZM77.4184 69.0852C77.5868 69.5852 78.1733 69.6679 78.1733 69.1917C78.1733 68.9569 77.9794 68.7649 77.7421 68.7649C77.5048 68.7649 77.3591 68.9089 77.4184 69.0852ZM75.4491 69.3042C75.4491 69.4525 75.5717 69.5738 75.7215 69.5738C75.8714 69.5738 75.9939 69.4525 75.9939 69.3042C75.9939 69.1559 75.8714 69.0345 75.7215 69.0345C75.5717 69.0345 75.4491 69.1559 75.4491 69.3042ZM96.8162 70.375C92.7806 70.9787 88.5253 75.5225 88.5253 79.228C88.5253 81.63 90.4936 83.3233 94.0729 84.0012C99.5077 85.0305 105.419 83.9745 107.07 81.6796C108.035 80.3394 107.991 78.0305 106.964 76.0453C104.937 72.126 100.75 69.7866 96.8162 70.375ZM32.4065 70.7872C32.4065 71.0097 32.5291 71.1917 32.679 71.1917C32.8288 71.1917 32.9514 71.0097 32.9514 70.7872C32.9514 70.5648 32.8288 70.3828 32.679 70.3828C32.5291 70.3828 32.4065 70.5648 32.4065 70.7872ZM34.3135 70.6524C34.3135 70.8007 34.5047 70.9221 34.7382 70.9221C34.9717 70.9221 35.0872 70.8007 34.9945 70.6524C34.9019 70.5041 34.711 70.3828 34.5698 70.3828C34.4287 70.3828 34.3135 70.5041 34.3135 70.6524ZM26.0273 70.8859C25.9098 71.0739 25.8875 71.3004 25.9774 71.3894C26.2212 71.6307 26.4871 71.2758 26.3552 70.8848C26.2632 70.6109 26.1989 70.6109 26.0273 70.8859ZM27.9233 70.9035C27.7372 71.2014 28.1669 71.5234 28.4186 71.2742C28.6774 71.0178 28.6292 70.6524 28.3363 70.6524C28.1952 70.6524 28.0094 70.7654 27.9233 70.9035ZM29.9548 70.9221C29.9548 71.0704 30.146 71.1917 30.3795 71.1917C30.6129 71.1917 30.7284 71.0704 30.6358 70.9221C30.5432 70.7738 30.3522 70.6524 30.2111 70.6524C30.07 70.6524 29.9548 70.7738 29.9548 70.9221ZM23.6891 71.1917C23.6891 71.34 23.8116 71.4614 23.9615 71.4614C24.1113 71.4614 24.2339 71.34 24.2339 71.1917C24.2339 71.0434 24.1113 70.9221 23.9615 70.9221C23.8116 70.9221 23.6891 71.0434 23.6891 71.1917ZM21.5097 71.4614C21.5097 71.6097 21.6323 71.731 21.7821 71.731C21.9319 71.731 22.0545 71.6097 22.0545 71.4614C22.0545 71.3131 21.9319 71.1917 21.7821 71.1917C21.6323 71.1917 21.5097 71.3131 21.5097 71.4614ZM75.4491 71.5962C75.4491 71.8186 75.5717 72.0006 75.7215 72.0006C75.8714 72.0006 75.9939 71.8186 75.9939 71.5962C75.9939 71.3737 75.8714 71.1917 75.7215 71.1917C75.5717 71.1917 75.4491 71.3737 75.4491 71.5962ZM73.5422 71.731C73.5422 71.8793 73.6647 72.0006 73.8146 72.0006C73.9644 72.0006 74.087 71.8793 74.087 71.731C74.087 71.5827 73.9644 71.4614 73.8146 71.4614C73.6647 71.4614 73.5422 71.5827 73.5422 71.731ZM34.5859 72.8096C34.5859 72.9579 34.7085 73.0792 34.8583 73.0792C35.0082 73.0792 35.1308 72.9579 35.1308 72.8096C35.1308 72.6613 35.0082 72.5399 34.8583 72.5399C34.7085 72.5399 34.5859 72.6613 34.5859 72.8096ZM30.3751 73.0606C30.2888 73.1987 30.343 73.3877 30.4952 73.481C30.6475 73.574 30.772 73.4611 30.772 73.23C30.772 72.7562 30.6086 72.6866 30.3751 73.0606ZM32.4065 73.0792C32.4065 73.2275 32.5291 73.3489 32.679 73.3489C32.8288 73.3489 32.9514 73.2275 32.9514 73.0792C32.9514 72.9309 32.8288 72.8096 32.679 72.8096C32.5291 72.8096 32.4065 72.9309 32.4065 73.0792ZM25.8684 73.3489C25.8684 73.4972 25.991 73.6185 26.1409 73.6185C26.2907 73.6185 26.4133 73.4972 26.4133 73.3489C26.4133 73.2006 26.2907 73.0792 26.1409 73.0792C25.991 73.0792 25.8684 73.2006 25.8684 73.3489ZM28.0478 73.3489C28.0478 73.4972 28.1704 73.6185 28.3202 73.6185C28.4701 73.6185 28.5926 73.4972 28.5926 73.3489C28.5926 73.2006 28.4701 73.0792 28.3202 73.0792C28.1704 73.0792 28.0478 73.2006 28.0478 73.3489ZM19.5044 73.536C19.1977 73.8396 19.3178 74.1578 19.739 74.1578C19.9637 74.1578 20.1476 74.0438 20.1476 73.9041C20.1476 73.5641 19.7221 73.3206 19.5044 73.536ZM21.6459 73.6185C21.7385 73.7668 21.9295 73.8882 22.0706 73.8882C22.2117 73.8882 22.327 73.7668 22.327 73.6185C22.327 73.4702 22.1357 73.3489 21.9023 73.3489C21.6688 73.3489 21.5533 73.4702 21.6459 73.6185ZM23.9105 73.533C24.107 73.611 24.3421 73.6013 24.4325 73.5117C24.5229 73.4222 24.3622 73.3586 24.0751 73.3702C23.7577 73.3831 23.6931 73.447 23.9105 73.533ZM17.4234 73.8882C17.4234 74.0365 17.546 74.1578 17.6958 74.1578C17.8456 74.1578 17.9682 74.0365 17.9682 73.8882C17.9682 73.7399 17.8456 73.6185 17.6958 73.6185C17.546 73.6185 17.4234 73.7399 17.4234 73.8882ZM63.9148 74.71C56.0829 76.0111 48.7393 81.404 44.471 88.9883C41.5193 94.2337 41.1327 100.284 43.5156 103.951C45.7056 107.321 50.5727 109.678 57.5298 110.737C60.8263 111.239 69.883 111.403 74.4956 111.043C80.5145 110.573 86.2378 108.717 89.0723 106.316C91.2781 104.447 92.8843 101.246 92.8838 98.7207C92.8816 91.9876 88.649 84.633 81.851 79.5499C76.5115 75.5578 69.7669 73.7377 63.9148 74.71ZM26.0191 75.4831C25.9314 75.6236 25.9758 75.8094 26.1177 75.8962C26.2596 75.9831 26.4473 75.9391 26.535 75.7986C26.6228 75.6581 26.5784 75.4723 26.4364 75.3855C26.2945 75.2987 26.1068 75.3426 26.0191 75.4831ZM21.7821 75.7757C21.7821 75.924 21.9047 76.0453 22.0545 76.0453C22.2044 76.0453 22.327 75.924 22.327 75.7757C22.327 75.6274 22.2044 75.506 22.0545 75.506C21.9047 75.506 21.7821 75.6274 21.7821 75.7757ZM23.9615 75.7757C23.9615 75.924 24.0841 76.0453 24.2339 76.0453C24.3837 76.0453 24.5063 75.924 24.5063 75.7757C24.5063 75.6274 24.3837 75.506 24.2339 75.506C24.0841 75.506 23.9615 75.6274 23.9615 75.7757ZM17.4234 76.1802C17.4234 76.4026 17.546 76.5846 17.6958 76.5846C17.8456 76.5846 17.9682 76.4026 17.9682 76.1802C17.9682 75.9577 17.8456 75.7757 17.6958 75.7757C17.546 75.7757 17.4234 75.9577 17.4234 76.1802ZM19.6027 76.0453C19.6027 76.1936 19.7253 76.315 19.8752 76.315C20.025 76.315 20.1476 76.1936 20.1476 76.0453C20.1476 75.897 20.025 75.7757 19.8752 75.7757C19.7253 75.7757 19.6027 75.897 19.6027 76.0453ZM15.244 76.315C15.244 76.4633 15.4352 76.5846 15.6687 76.5846C15.9022 76.5846 16.0177 76.4633 15.9251 76.315C15.8324 76.1667 15.6415 76.0453 15.5004 76.0453C15.3592 76.0453 15.244 76.1667 15.244 76.315ZM71.3628 77.1239C71.3628 77.2722 71.4854 77.3936 71.6352 77.3936C71.785 77.3936 71.9076 77.2722 71.9076 77.1239C71.9076 76.9756 71.785 76.8543 71.6352 76.8543C71.4854 76.8543 71.3628 76.9756 71.3628 77.1239ZM64.9835 77.3574C64.8661 77.5454 64.8438 77.7719 64.9337 77.8608C65.1775 78.1022 65.4433 77.7473 65.3115 77.3563C65.2194 77.0824 65.1551 77.0824 64.9835 77.3574ZM67.004 77.3936C67.004 77.5419 67.1266 77.6632 67.2765 77.6632C67.4263 77.6632 67.5489 77.5419 67.5489 77.3936C67.5489 77.2453 67.4263 77.1239 67.2765 77.1239C67.1266 77.1239 67.004 77.2453 67.004 77.3936ZM69.1834 77.3936C69.1834 77.5419 69.306 77.6632 69.4558 77.6632C69.6057 77.6632 69.7283 77.5419 69.7283 77.3936C69.7283 77.2453 69.6057 77.1239 69.4558 77.1239C69.306 77.1239 69.1834 77.2453 69.1834 77.3936ZM60.6021 77.6632C60.5095 77.8115 60.625 77.9329 60.8585 77.9329C61.092 77.9329 61.2832 77.8115 61.2832 77.6632C61.2832 77.5149 61.168 77.3936 61.0269 77.3936C60.8857 77.3936 60.6948 77.5149 60.6021 77.6632ZM62.6453 77.6632C62.6453 77.8115 62.7605 77.9329 62.9016 77.9329C63.0428 77.9329 63.2337 77.8115 63.3264 77.6632C63.419 77.5149 63.3035 77.3936 63.07 77.3936C62.8365 77.3936 62.6453 77.5149 62.6453 77.6632ZM58.2866 77.9329C58.2866 78.0812 58.4705 78.2025 58.6952 78.2025C58.9199 78.2025 59.1038 78.0812 59.1038 77.9329C59.1038 77.7845 58.9199 77.6632 58.6952 77.6632C58.4705 77.6632 58.2866 77.7845 58.2866 77.9329ZM17.6958 78.3214C17.6958 78.5525 17.8184 78.7418 17.9682 78.7418C18.118 78.7418 18.2406 78.6277 18.2406 78.4881C18.2406 78.3484 18.118 78.1594 17.9682 78.0677C17.8184 77.976 17.6958 78.0903 17.6958 78.3214ZM15.3064 78.5228C15.4747 79.0228 16.0613 79.1055 16.0613 78.6293C16.0613 78.3945 15.8673 78.2025 15.63 78.2025C15.3927 78.2025 15.247 78.3465 15.3064 78.5228ZM13.3371 78.7418C13.3371 78.8901 13.4596 79.0114 13.6095 79.0114C13.7593 79.0114 13.8819 78.8901 13.8819 78.7418C13.8819 78.5935 13.7593 78.4721 13.6095 78.4721C13.4596 78.4721 13.3371 78.5935 13.3371 78.7418ZM71.6352 79.2811C71.6352 79.4294 71.7652 79.5507 71.9237 79.5507C72.0823 79.5507 72.1365 79.4294 72.0438 79.2811C71.9512 79.1328 71.8215 79.0114 71.7553 79.0114C71.6891 79.0114 71.6352 79.1328 71.6352 79.2811ZM67.2765 79.6855C67.2765 79.908 67.3991 80.09 67.5489 80.09C67.6987 80.09 67.8213 79.908 67.8213 79.6855C67.8213 79.4631 67.6987 79.2811 67.5489 79.2811C67.3991 79.2811 67.2765 79.4631 67.2765 79.6855ZM69.3196 79.5507C69.4122 79.699 69.6032 79.8204 69.7443 79.8204C69.8855 79.8204 70.0007 79.699 70.0007 79.5507C70.0007 79.4024 69.8094 79.2811 69.576 79.2811C69.3425 79.2811 69.227 79.4024 69.3196 79.5507ZM62.9177 79.8204C62.9177 79.9687 63.0403 80.09 63.1901 80.09C63.34 80.09 63.4626 79.9687 63.4626 79.8204C63.4626 79.6721 63.34 79.5507 63.1901 79.5507C63.0403 79.5507 62.9177 79.6721 62.9177 79.8204ZM64.8247 79.8204C64.8247 79.9687 65.0086 80.09 65.2333 80.09C65.4581 80.09 65.6419 79.9687 65.6419 79.8204C65.6419 79.6721 65.4581 79.5507 65.2333 79.5507C65.0086 79.5507 64.8247 79.6721 64.8247 79.8204ZM58.559 80.09C58.559 80.2383 58.6816 80.3597 58.8314 80.3597C58.9812 80.3597 59.1038 80.2383 59.1038 80.09C59.1038 79.9417 58.9812 79.8204 58.8314 79.8204C58.6816 79.8204 58.559 79.9417 58.559 80.09ZM60.7384 80.09C60.7384 80.2383 60.8609 80.3597 61.0108 80.3597C61.1606 80.3597 61.2832 80.2383 61.2832 80.09C61.2832 79.9417 61.1606 79.8204 61.0108 79.8204C60.8609 79.8204 60.7384 79.9417 60.7384 80.09ZM54.3482 80.3411C54.2618 80.4791 54.316 80.6681 54.4683 80.7614C54.6206 80.8545 54.7451 80.7415 54.7451 80.5104C54.7451 80.0366 54.5816 79.9671 54.3482 80.3411ZM56.3796 80.3597C56.3796 80.508 56.5022 80.6293 56.652 80.6293C56.8019 80.6293 56.9245 80.508 56.9245 80.3597C56.9245 80.2114 56.8019 80.09 56.652 80.09C56.5022 80.09 56.3796 80.2114 56.3796 80.3597ZM13.3371 80.899C13.3371 81.0473 13.4596 81.1686 13.6095 81.1686C13.7593 81.1686 13.8819 81.0473 13.8819 80.899C13.8819 80.7507 13.7593 80.6293 13.6095 80.6293C13.4596 80.6293 13.3371 80.7507 13.3371 80.899ZM11.2939 81.1686C11.3865 81.3169 11.5775 81.4382 11.7186 81.4382C11.8597 81.4382 11.9749 81.3169 11.9749 81.1686C11.9749 81.0203 11.7837 80.899 11.5502 80.899C11.3168 80.899 11.2013 81.0203 11.2939 81.1686ZM60.7384 82.2472C60.7384 82.3955 60.8609 82.5168 61.0108 82.5168C61.1606 82.5168 61.2832 82.3955 61.2832 82.2472C61.2832 82.0989 61.1606 81.9775 61.0108 81.9775C60.8609 81.9775 60.7384 82.0989 60.7384 82.2472ZM62.9177 82.2472C62.9177 82.3955 63.0403 82.5168 63.1901 82.5168C63.34 82.5168 63.4626 82.3955 63.4626 82.2472C63.4626 82.0989 63.34 81.9775 63.1901 81.9775C63.0403 81.9775 62.9177 82.0989 62.9177 82.2472ZM54.3743 82.4343C54.0676 82.7379 54.1877 83.0561 54.6089 83.0561C54.8336 83.0561 55.0175 82.9421 55.0175 82.8024C55.0175 82.4624 54.592 82.2189 54.3743 82.4343ZM56.652 82.5168C56.652 82.6651 56.7746 82.7865 56.9245 82.7865C57.0743 82.7865 57.1969 82.6651 57.1969 82.5168C57.1969 82.3685 57.0743 82.2472 56.9245 82.2472C56.7746 82.2472 56.652 82.3685 56.652 82.5168ZM58.7805 82.4314C58.9769 82.5093 59.212 82.4996 59.3024 82.41C59.3929 82.3205 59.2321 82.2569 58.945 82.2685C58.6276 82.2814 58.5631 82.3453 58.7805 82.4314ZM52.2933 82.7865C52.2933 82.9348 52.4159 83.0561 52.5657 83.0561C52.7156 83.0561 52.8381 82.9348 52.8381 82.7865C52.8381 82.6382 52.7156 82.5168 52.5657 82.5168C52.4159 82.5168 52.2933 82.6382 52.2933 82.7865ZM70.8128 82.811C67.255 83.1074 65.1164 83.9616 61.8507 86.3906C60.5539 87.3551 58.0141 90.2694 58.0141 90.7928C58.0141 90.9179 57.7063 91.4688 57.3301 92.017C55.8601 94.158 55.4223 98.7794 56.4973 100.806C57.3345 102.385 60.1249 104.346 62.6453 105.129C65.4401 105.996 75.0734 106.336 78.0371 105.672C81.5244 104.891 83.7171 104.013 84.9182 102.917C87.0842 100.941 87.9429 98.3655 87.315 95.7295C86.8385 93.73 85.6842 90.9937 84.8727 89.9407C83.5637 88.2419 80.7341 85.6728 79.263 84.8474C76.2277 83.1443 73.8089 82.5613 70.8128 82.811ZM11.2939 83.3258C11.2013 83.4741 11.3168 83.5954 11.5502 83.5954C11.7837 83.5954 11.9749 83.4741 11.9749 83.3258C11.9749 83.1775 11.8597 83.0561 11.7186 83.0561C11.5775 83.0561 11.3865 83.1775 11.2939 83.3258ZM9.25073 83.5954C9.25073 83.7437 9.37332 83.8651 9.52316 83.8651C9.67299 83.8651 9.79558 83.7437 9.79558 83.5954C9.79558 83.4471 9.67299 83.3258 9.52316 83.3258C9.37332 83.3258 9.25073 83.4471 9.25073 83.5954ZM52.2933 85.0785C52.2933 85.3009 52.4159 85.4829 52.5657 85.4829C52.7156 85.4829 52.8381 85.3009 52.8381 85.0785C52.8381 84.856 52.7156 84.674 52.5657 84.674C52.4159 84.674 52.2933 84.856 52.2933 85.0785ZM54.4727 84.9436C54.4727 85.0919 54.5953 85.2133 54.7451 85.2133C54.8949 85.2133 55.0175 85.0919 55.0175 84.9436C55.0175 84.7953 54.8949 84.674 54.7451 84.674C54.5953 84.674 54.4727 84.7953 54.4727 84.9436ZM50.1139 85.2133C50.1139 85.3616 50.2978 85.4829 50.5226 85.4829C50.7473 85.4829 50.9312 85.3616 50.9312 85.2133C50.9312 85.065 50.7473 84.9436 50.5226 84.9436C50.2978 84.9436 50.1139 85.065 50.1139 85.2133ZM9.25073 85.7526C9.25073 85.9009 9.36597 86.0222 9.50709 86.0222C9.6482 86.0222 9.83916 85.9009 9.93179 85.7526C10.0244 85.6043 9.9089 85.4829 9.67544 85.4829C9.44197 85.4829 9.25073 85.6043 9.25073 85.7526ZM68.9832 85.8987C68.1986 86.1077 66.9261 86.5952 66.1555 86.9816C64.2681 87.9283 61.3034 90.9514 60.3224 92.9295C59.6424 94.3004 59.5337 94.8351 59.5239 96.8617L59.5125 99.2076L60.573 100.283C61.1563 100.875 62.2508 101.621 63.0055 101.943C67.3378 103.788 76.9123 103.653 80.8371 101.692C83.0952 100.564 83.9601 99.2618 83.9416 97.0195C83.9337 96.0876 83.7326 94.7841 83.4942 94.1232C82.0804 90.199 77.9843 86.6513 73.8693 85.7863C72.0158 85.3969 70.7572 85.4258 68.9832 85.8987ZM50.303 87.2731C50.0853 87.4885 50.3313 87.9097 50.6749 87.9097C50.816 87.9097 50.9312 87.7277 50.9312 87.5053C50.9312 87.0884 50.6097 86.9695 50.303 87.2731ZM48.207 87.6401C48.207 87.7884 48.3296 87.9097 48.4794 87.9097C48.6292 87.9097 48.7518 87.7884 48.7518 87.6401C48.7518 87.4918 48.6292 87.3705 48.4794 87.3705C48.3296 87.3705 48.207 87.4918 48.207 87.6401ZM69.1834 87.6069C66.7382 88.4018 64.021 90.6227 62.9491 92.7027C61.0623 96.3634 61.9373 99.2966 65.3129 100.626C66.7183 101.179 67.3263 101.239 71.6352 101.246C75.9817 101.252 76.5393 101.198 77.9527 100.635C80.718 99.5328 81.8382 97.5717 81.1806 94.9834C80.4456 92.0906 78.4896 89.7094 75.6779 88.2851C74.5223 87.6994 73.7753 87.5314 72.0438 87.4667C70.8452 87.4222 69.558 87.4853 69.1834 87.6069ZM7.34379 88.1794C7.34379 88.3277 7.46638 88.449 7.61621 88.449C7.76604 88.449 7.88863 88.3277 7.88863 88.1794C7.88863 88.0311 7.76604 87.9097 7.61621 87.9097C7.46638 87.9097 7.34379 88.0311 7.34379 88.1794ZM48.207 89.7973C48.207 89.9456 48.3296 90.0669 48.4794 90.0669C48.6292 90.0669 48.7518 89.9456 48.7518 89.7973C48.7518 89.649 48.6292 89.5276 48.4794 89.5276C48.3296 89.5276 48.207 89.649 48.207 89.7973ZM46.1638 90.0669C46.2564 90.2152 46.4474 90.3366 46.5885 90.3366C46.7296 90.3366 46.8449 90.2152 46.8449 90.0669C46.8449 89.9186 46.6536 89.7973 46.4202 89.7973C46.1867 89.7973 46.0712 89.9186 46.1638 90.0669ZM7.48 90.3366C7.57262 90.4849 7.76358 90.6062 7.9047 90.6062C8.04581 90.6062 8.16105 90.4849 8.16105 90.3366C8.16105 90.1883 7.96981 90.0669 7.73635 90.0669C7.50288 90.0669 7.38737 90.1883 7.48 90.3366ZM46.3 92.2241C46.3 92.3724 46.4226 92.4937 46.5725 92.4937C46.7223 92.4937 46.8449 92.3724 46.8449 92.2241C46.8449 92.0758 46.7223 91.9544 46.5725 91.9544C46.4226 91.9544 46.3 92.0758 46.3 92.2241ZM44.1207 94.6509C44.1207 94.7992 44.3045 94.9205 44.5293 94.9205C44.754 94.9205 44.9379 94.7992 44.9379 94.6509C44.9379 94.5026 44.754 94.3812 44.5293 94.3812C44.3045 94.3812 44.1207 94.5026 44.1207 94.6509ZM44.3931 96.8081C44.3931 96.9564 44.5157 97.0777 44.6655 97.0777C44.8153 97.0777 44.9379 96.9564 44.9379 96.8081C44.9379 96.6597 44.8153 96.5384 44.6655 96.5384C44.5157 96.5384 44.3931 96.6597 44.3931 96.8081Z" fill="#201B19"></path> <path d="M11.9431 4.68708C11.9431 2.35063 12.1983 1.05545 12.768 0.501506C13.6085 -0.315779 15.1174 -0.10648 15.8463 0.927978C16.5412 1.91522 16.2968 7.27218 15.5091 8.32028C14.865 9.17691 14.5596 9.2299 13.3512 8.69431C12.0451 8.1157 11.9431 7.82507 11.9431 4.68708Z" fill="#201B19"></path> <path d="M17.2031 12.6202C16.0653 12.1229 15.9493 9.84204 17.0326 9.25295C18.4245 8.49546 24.4458 9.25977 25.1023 10.2774C26.2369 12.0358 24.8682 13.0314 21.3162 13.032C19.5731 13.0325 17.7221 12.8468 17.2031 12.6202Z" fill="#201B19"></path> <path d="M3.17641 12.4198C2.67523 12.126 2.64177 9.92282 3.13163 9.44704C3.32908 9.25452 5.26694 9.09715 7.4373 9.09715C11.258 9.09715 11.3944 9.14122 11.7424 10.4904C12.2932 12.6228 10.8722 13.3436 6.86329 12.9659C5.05816 12.7954 3.39922 12.5499 3.17641 12.4198Z" fill="#201B19"></path> <path d="M11.9431 17.8014C11.9431 15.465 12.1983 14.1698 12.768 13.6158C13.6085 12.7985 15.1174 13.0078 15.8463 14.0423C16.5412 15.0295 16.2968 20.3865 15.5091 21.4346C14.865 22.2912 14.5596 22.3442 13.3512 21.8086C12.0451 21.23 11.9431 20.9394 11.9431 17.8014Z" fill="#201B19"></path> <path d="M138.252 104.617C138.234 102.914 138.404 101.967 138.803 101.559C139.393 100.956 140.464 101.097 140.989 101.845C141.49 102.56 141.36 106.468 140.81 107.238C140.361 107.868 140.144 107.909 139.283 107.528C138.353 107.116 138.278 106.905 138.252 104.617Z" fill="#201B19"></path> <path d="M142.046 110.36C141.236 110.006 141.135 108.344 141.898 107.906C142.879 107.343 147.154 107.853 147.628 108.59C148.446 109.863 147.484 110.599 144.966 110.628C143.73 110.642 142.416 110.521 142.046 110.36Z" fill="#201B19"></path> <path d="M132.1 110.325C131.742 110.115 131.7 108.508 132.044 108.158C132.182 108.016 133.555 107.886 135.094 107.868C137.803 107.838 137.9 107.869 138.157 108.85C138.565 110.401 137.564 110.938 134.718 110.694C133.437 110.584 132.259 110.418 132.1 110.325Z" fill="#201B19"></path> <path d="M138.359 114.18C138.34 112.476 138.51 111.53 138.91 111.121C139.499 110.519 140.571 110.659 141.096 111.408C141.596 112.122 141.467 116.03 140.917 116.801C140.467 117.43 140.251 117.471 139.39 117.09C138.459 116.679 138.384 116.468 138.359 114.18Z" fill="#201B19"></path> <path fill-rule="evenodd" clip-rule="evenodd" d="M15.8441 51.9195C16.6215 52.2588 17.5114 52.9457 18.3603 53.8612C19.7992 55.4133 18.6645 57.3888 16.5748 56.9707C15.7448 56.8046 15.3954 56.5114 14.5919 55.3078C13.8091 54.1355 13.6539 53.659 13.8065 52.8966C13.9387 52.2359 14.1742 51.893 14.5799 51.7705C14.9008 51.6736 15.1994 51.6162 15.243 51.6431C15.287 51.67 15.5574 51.7943 15.8441 51.9195ZM16.8942 55.9026C18.1831 56.1605 18.0078 54.8369 16.6211 53.8401C15.3072 52.8957 14.9698 52.8344 15.0117 53.5483C15.0556 54.2921 16.2381 55.7713 16.8942 55.9026Z" fill="#201B19"></path> <path fill-rule="evenodd" clip-rule="evenodd" d="M45.9238 32.2492C46.1289 31.4261 46.6581 30.4343 47.4196 29.4449C48.7106 27.7678 50.8474 28.5578 50.7829 30.688C50.7573 31.534 50.5263 31.9274 49.4732 32.9199C48.4475 33.887 48.0035 34.1193 47.2263 34.0957C46.5529 34.0753 46.1756 33.9002 45.9872 33.5205C45.8383 33.2202 45.732 32.9354 45.7512 32.8879C45.7705 32.8401 45.848 32.5527 45.9238 32.2492ZM49.6766 30.5508C49.7163 29.237 48.4404 29.6301 47.6883 31.1633C46.9757 32.6161 46.9715 32.959 47.6684 32.7989C48.3945 32.6318 49.6563 31.2196 49.6766 30.5508Z" fill="#201B19"></path> <path fill-rule="evenodd" clip-rule="evenodd" d="M111.834 37.0056C111.057 36.6654 110.168 35.9774 109.32 35.0608C107.883 33.5069 109.02 31.5328 111.11 31.9535C111.939 32.1206 112.288 32.4142 113.09 33.6189C113.872 34.7922 114.026 35.2688 113.873 36.0311C113.74 36.6916 113.504 37.0341 113.098 37.1562C112.777 37.2526 112.478 37.3097 112.435 37.2828C112.391 37.2558 112.12 37.1312 111.834 37.0056ZM110.789 33.0212C109.5 32.7617 109.674 34.0855 111.059 35.084C112.372 36.03 112.709 36.0918 112.668 35.3778C112.625 34.634 111.445 33.1533 110.789 33.0212Z" fill="#201B19"></path> <path fill-rule="evenodd" clip-rule="evenodd" d="M79.3888 16.815C78.6117 16.4748 77.7227 15.7868 76.8749 14.8702C75.438 13.3164 76.5751 11.3422 78.6643 11.7629C79.4941 11.93 79.8431 12.2237 80.6451 13.4283C81.4264 14.6016 81.581 15.0783 81.4275 15.8405C81.2945 16.501 81.0586 16.8436 80.6527 16.9657C80.3317 17.0621 80.0331 17.1191 79.9894 17.0922C79.9455 17.0653 79.6753 16.9406 79.3888 16.815ZM78.3435 12.8306C77.055 12.5711 77.2286 13.8949 78.6141 14.8935C79.9268 15.8395 80.2642 15.9012 80.2231 15.1872C80.1801 14.4434 78.9995 12.9627 78.3435 12.8306Z" fill="#201B19"></path> <path fill-rule="evenodd" clip-rule="evenodd" d="M141.542 33.8982C142.382 33.7747 143.42 33.3452 144.48 32.6843C146.275 31.5638 145.698 29.3599 143.572 29.2154C142.728 29.158 142.314 29.3493 141.223 30.3002C140.16 31.2262 139.885 31.6453 139.832 32.4211C139.787 33.0933 139.924 33.4859 140.283 33.7106C140.568 33.8881 140.841 34.0218 140.89 34.0074C140.939 33.9929 141.233 33.9439 141.542 33.8982ZM143.6 30.3299C144.912 30.419 144.395 31.6502 142.796 32.2486C141.28 32.8154 140.939 32.7861 141.166 32.1081C141.404 31.4019 142.933 30.2845 143.6 30.3299Z" fill="#201B19"></path> <path d="M127.03 28.2489C125.616 28.2489 125.324 27.1148 126.386 25.7497C127.502 24.3148 128.79 24.8495 128.465 26.6124C128.244 27.8061 127.856 28.2489 127.03 28.2489Z" fill="#201B19"></path> <path d="M99.5937 22.1561C97.897 22.1561 97.5462 21.022 98.8204 19.6568C100.16 18.2219 101.706 18.7566 101.315 20.5195C101.05 21.7133 100.584 22.1561 99.5937 22.1561Z" fill="#201B19"></path> <path d="M67.1681 28.2489C65.1886 28.2489 64.7794 27.1148 66.2659 25.7497C67.8285 24.3148 69.6325 24.8495 69.1765 26.6124C68.8673 27.8061 68.324 28.2489 67.1681 28.2489Z" fill="#201B19"></path> <path d="M32.814 49.851C34.5107 49.851 34.8614 48.5279 33.5873 46.9352C32.2479 45.2612 30.7016 45.885 31.0925 47.9417C31.3575 49.3344 31.8232 49.851 32.814 49.851Z" fill="#201B19"></path> <path d="M2.68906 65.3706C1.70973 64.0806 0.551611 64.5395 0.136688 66.3815C-0.299344 68.3178 1.04376 69.1514 2.30368 67.7264C3.15663 66.7613 3.26095 66.1239 2.68906 65.3706Z" fill="#201B19"></path> </svg> 