<?xml version="1.0" encoding="UTF-8"?> <svg xmlns="http://www.w3.org/2000/svg" width="197" height="212" viewBox="0 0 197 212" fill="none"> <path d="M74.468 1.18226C74.5904 0.803501 76.2303 0.721552 78.1123 1.00027C83.5399 1.80245 84.6876 2.17611 92.1129 5.55622C107.375 12.503 119.589 22.6758 124.361 32.4133L126.924 37.6431L123.561 32.1249C119.911 26.1356 112.325 18.5685 105.485 14.0964C99.1192 9.93352 86.9581 4.61542 81.4649 3.59232C77.2055 2.79914 76.7586 2.88942 77.5376 4.38286C78.0212 5.3099 81.8286 7.92465 85.9991 10.1932C99.3388 17.4482 105.145 22.681 110.464 32.2378L113.599 37.8719L109.895 33.7289C105.66 28.9903 99.458 23.8952 96.971 23.11C95.6358 22.6885 95.8557 23.5814 98.0093 27.3295C100.791 32.172 102.99 38.8921 101.965 39.4234C101.654 39.5848 100.98 38.0689 100.469 36.0555C99.6866 32.9765 94.7269 25.2346 93.2351 24.7637C92.988 24.6857 94.1132 27.1666 95.7365 30.277C99.9071 38.2722 100.237 42.6147 97.3566 51.5625C96.0659 55.5699 94.4337 59.5167 93.7283 60.3328C92.8479 61.3524 93.0423 59.8641 94.3481 55.581C96.5587 48.3358 96.464 41.0013 94.0979 36.2201C91.9269 31.8309 90.9706 31.8737 91.717 36.325C92.6606 41.9452 92.321 49.8396 90.9693 53.7314C90.3077 55.6351 89.8582 56.3724 89.9696 55.3687C90.0819 54.3654 90.427 51.2871 90.7384 48.5287C92.1392 36.1003 87.0157 19.342 78.0723 7.10614C75.9682 4.22642 74.3459 1.56016 74.468 1.18226Z" fill="#FA1B7A"></path> <path d="M127.887 70.5764C144.467 73.7314 165.765 65.9363 189.153 48.1521C192.918 45.2892 196.107 43.1559 196.239 43.4111C196.373 43.6658 194.145 47.0798 191.29 50.9977C179.335 67.4005 155.929 91.1826 146.735 96.2684C144.867 97.3014 144.372 98.0043 144.857 98.9336C145.219 99.6289 145.25 100.983 144.926 101.946C144.47 103.3 144.264 103.015 144.017 100.688C143.684 97.5501 140.397 94.009 137.507 93.6716C135.17 93.3995 130.608 97.306 128.558 101.334C127.594 103.225 125.919 105.671 124.835 106.768C118.02 113.658 110.654 131.269 110.114 141.961C109.25 159.098 116.09 181.518 127.734 199.714C136.468 213.359 136.432 212.471 128.118 209.277C118.699 205.66 108.344 197.8 97.6586 186.16C86.4527 173.951 84.1599 170.814 78.3627 159.764C73.7801 151.029 68.678 137.361 69.785 136.787C70.8162 136.252 73.6686 138.867 73.3064 140.014C72.6006 142.249 77.6016 156.607 81.4566 163.413C88.8912 176.539 105.673 194.742 117.129 202.108C124.419 206.795 131.617 210.188 131.961 209.101C132.1 208.66 130.705 206.666 128.862 204.672C127.019 202.679 123.884 198.853 121.898 196.171C119.908 193.486 115.987 189.738 113.171 187.829C107.062 183.687 98.6161 175.906 94.2133 170.365C88.8243 163.581 80.9654 150.717 79.4174 146.145C78.3978 143.134 77.2935 141.579 75.8127 141.07C73.7621 140.366 73.7968 140.325 76.6915 140.023C80.0559 139.672 83.4651 136.508 86.0649 131.322C88.5453 126.374 88.4134 123.775 85.5628 121.47C84.2093 120.375 81.2472 117.407 78.979 114.873C74.2272 109.561 70.511 108.1 63.6759 108.853C47.9206 110.59 22.4563 124.736 1.2702 143.522C-1.63259 146.096 4.53357 132.571 10.1947 123.946C15.0382 116.568 20.2472 109.775 19.8298 111.382C19.7343 111.747 16.8923 116.081 13.5136 121.011C6.20922 131.671 4.48842 135.715 11.2363 126.365C18.1494 116.786 27.3663 106.283 38.8169 94.937C48.9396 84.906 52.8773 81.5067 52.3943 83.2165C52.2531 83.7178 51.5984 84.4063 50.9396 84.748C50.2819 85.089 48.854 87.4203 47.7672 89.9272C45.2094 95.8313 46.3694 96.9634 53.8296 95.849C57.6871 95.2735 60.999 93.8326 65.8635 90.6162C73.0083 85.8921 75.194 85.4395 69.8874 89.7835C63.2553 95.2135 57.2224 98.5179 45.6344 103.07C30.3647 109.068 22.1172 114.778 14.2148 124.823C9.07576 131.356 8.96942 131.995 13.7857 127.417C27.6146 114.271 48.0615 105.982 64.5578 106.833C72.2742 107.231 75.7672 108.575 78.6935 112.269C80.0768 114.016 82.8003 117 84.7441 118.9C89.0604 123.117 89.5238 125.209 87.6464 132.001C86.0009 137.957 86.5041 142.813 89.5326 150.204C91.977 156.17 93.6808 157.784 91.5009 152.068C89.144 145.89 89.5337 136.5 92.551 126.759C95.0439 118.71 97.3587 114.478 95.2594 121.806C94.6565 123.91 94.0936 126.884 94.0078 128.415C93.8709 130.851 94.0348 130.668 95.3222 126.941C96.389 123.853 96.9104 123.11 97.2206 124.235C97.4558 125.088 97.3841 126.644 97.0622 127.691C96.7391 128.738 96.6024 131.987 96.7576 134.91C97.0721 140.844 101.78 152.116 104.271 152.903C105.263 153.216 106.731 156.501 108.324 161.973C109.698 166.692 112.27 173.56 114.04 177.235L117.257 183.917L113.993 175.331C103.491 147.708 104.385 123.485 116.474 108.121C118.437 105.624 120.974 101.699 122.109 99.3968C124.539 94.4696 125.896 93.0308 129.914 91.1159C132.311 89.9735 133.693 89.9755 136.982 91.125C139.23 91.9104 141.861 93.5201 142.828 94.7018C144.582 96.8439 144.594 96.8429 146.969 94.0371C152.661 87.3113 152.414 85.7924 146.176 89.153C141.729 91.5482 140.683 91.1254 144.283 88.3881C147.21 86.1636 151.872 81.4423 153.595 78.9587C154.78 77.2504 154.63 77.2333 149.559 78.4996C138.776 81.193 128.818 80.414 122.872 76.4131L119.475 74.1271L126.308 76.2841C132.57 78.2613 133.795 78.3335 140.992 77.153C149.109 75.8218 159.502 71.5595 165.599 67.0627C170.67 63.3231 170.272 62.6913 164.673 65.5946C158.611 68.738 148.435 71.8138 141.095 72.7207C136.715 73.2623 133.921 72.9593 128.127 71.3143L120.743 69.2173L127.887 70.5764Z" fill="#FA1B7A"></path> <path d="M174.08 73.8103C178.332 69.2267 183.858 62.865 186.358 59.6738C188.86 56.483 191 54.0509 191.115 54.2685C191.732 55.4407 179.777 70.1958 171.417 78.5801C163.908 86.1102 165.781 82.756 174.08 73.8103Z" fill="#FA1B7A"></path> <path d="M126.856 43.5588C128.038 44.3598 128.318 44.21 128.232 42.8202C128.13 41.1657 128.188 41.1859 129.382 43.2212C131.165 46.2602 130.624 46.906 127.55 45.4076C120.894 42.1637 109.461 50.6215 110.384 58.1089C110.715 60.7934 110.399 60.8663 108.192 58.6115C104.503 54.8423 104.051 49.9022 107.023 45.8524C112.351 38.5915 118.477 37.8831 126.856 43.5588Z" fill="#FA1B7A"></path> <path d="M163.712 85.3636C163.558 85.0674 163.817 84.4929 164.288 84.0883C165.57 82.9857 165.982 83.4084 164.922 84.7378C164.411 85.3783 163.867 85.6598 163.712 85.3636Z" fill="#FA1B7A"></path> <path d="M112.335 98.8155C117.654 91.7567 118.294 82.9966 114.005 75.9331C112.741 73.8511 112.24 72.3152 112.893 72.5215C113.547 72.7278 114.539 73.8909 115.097 75.106C116.345 77.8192 117.788 78.4211 117.649 76.1704C117.498 73.6917 120.657 79.5754 121.236 82.8469C121.878 86.4788 121.253 93.1035 120.297 92.8016C119.873 92.6678 119.652 92.0673 119.805 91.4658C119.958 90.8653 118.678 92.4792 116.96 95.0533C113.695 99.9483 110.559 103.396 110.127 102.568C109.988 102.301 110.981 100.612 112.335 98.8155Z" fill="#FA1B7A"></path> <path d="M79.0483 85.9178C80.8305 80.2514 86.2666 74.3759 92.3219 71.5733C98.5619 68.6836 98.9877 69.0201 93.0746 72.167C86.4651 75.6842 82.2211 80.7225 80.1255 87.5403C79.088 90.9137 78.2994 92.476 78.0701 91.6132C77.8654 90.8431 78.3053 88.2802 79.0483 85.9178Z" fill="#FA1B7A"></path> <path d="M85.5388 81.9437C88.6583 77.337 94.8547 73.2871 100.294 72.2997C105.494 71.3565 110.162 73.0323 112.819 76.7967C116.271 81.6896 116.479 85.1688 113.734 92.2434C111.758 97.3378 110.668 98.9173 107.067 101.911C95.1816 111.788 81.3225 107.758 81.5405 94.4889C81.6398 88.4829 82.1093 87.0107 85.5388 81.9437Z" fill="#FA1B7A"></path> <path d="M63.7383 75.1614C57.8965 90.3014 63.5827 91.274 76.6519 77.3703C83.5692 70.0113 85.515 68.6963 80.6817 74.6478C68.8775 89.1833 61.4915 92.6565 56.843 85.8571C55.2836 83.5762 55.2656 82.8084 56.6879 79.1967C57.5716 76.9524 58.2351 75.0965 58.1619 75.0734C57.6162 74.904 44.0553 85.3274 38.8547 89.9145C32.117 95.8561 30.7404 96.4952 35.7769 91.3425C40.5884 86.42 55.6577 74.9458 65.6339 68.6082C66.0957 68.3149 65.2424 71.2639 63.7383 75.1614Z" fill="#FA1B7A"></path> <path d="M107.399 119.335C109.19 113.316 111.561 109.19 116.481 103.536C120.574 98.8311 119.838 101.339 115.3 107.558C111.947 112.151 110.464 115.194 108.167 122.191C104.916 132.091 104.294 129.776 107.399 119.335Z" fill="#FA1B7A"></path> <path d="M84.0073 108.367C84.7469 108.92 84.5141 107.982 83.4859 106.27L81.6245 103.17L83.9601 105.368C86.6674 107.914 90.335 109.25 94.0414 109.04C97.8991 108.82 97.7983 109.994 93.9233 110.394C91.5593 110.638 91.0897 110.908 92.3024 111.327C95.9543 112.591 90.9098 112.77 86.9034 111.52C84.0639 110.634 82.4808 109.568 81.4384 107.841C79.9747 105.416 80.0973 105.441 84.0073 108.367Z" fill="#FA1B7A"></path> <path d="M105.329 133.583C104.839 134.181 104.699 133.913 104.973 132.899C105.222 131.982 105.585 131.54 105.781 131.915C105.977 132.291 105.774 133.041 105.329 133.583Z" fill="#FA1B7A"></path> </svg> 