<?xml version="1.0" encoding="UTF-8"?> <svg xmlns="http://www.w3.org/2000/svg" width="566" height="692" viewBox="0 0 566 692" fill="none"> <path fill-rule="evenodd" clip-rule="evenodd" d="M564.365 685.805C561.151 691.621 552.21 692.904 546.882 688.314C544.296 686.086 526.857 665.165 497.639 629.235C493.28 623.875 483.967 612.476 476.943 603.905C469.92 595.333 459.521 582.621 453.836 575.654C448.15 568.687 439.541 558.167 434.703 552.275C429.865 546.383 400.958 511.075 400.958 511.075C400.958 511.075 387.611 495.023 371.808 475.058C358.936 459.4 343.486 440.553 337.476 433.177C282.017 365.129 251.385 328.438 251.385 328.438C251.385 328.438 228.993 300.297 169.328 227.352C161.659 217.976 145.896 198.686 134.301 184.486C122.704 170.286 102.28 145.297 88.9133 128.955C-3.25433 16.2799 1.14074 21.8588 0.611413 16.8772C-0.0346104 10.7972 1.00054 8.54831 6.42947 4.23591C11.5149 0.196139 16.4854 -0.822223 21.0185 1.24472C22.8658 2.08715 35.8721 17.3277 55.6084 41.7755C89.5581 83.8303 88.816 82.9117 128.995 132.638C153.656 163.159 233.08 261.559 253.362 286.718C273.91 312.209 310.218 357.207 323.146 373.205C330.853 382.743 347.851 403.775 360.919 419.943C373.987 436.112 387.973 453.459 392.001 458.493C392.001 458.493 471.281 556.312 478.599 565.611C482.576 570.666 535.225 635.973 554.222 659.416C561.743 669.757 562.153 670.772 564.392 674.77C566.631 678.767 565.558 683.646 564.365 685.805ZM551.904 687.569C556.228 688.708 557.621 688.21 560.672 684.431C564.843 679.265 563.578 676.379 549.522 659.02C542.864 650.796 520.781 623.441 500.451 598.23C480.12 573.02 453.374 539.888 441.015 524.604C417.167 495.111 394.511 467.047 380.474 449.611C375.78 443.78 364.81 430.173 356.096 419.372C347.382 408.571 335.039 393.25 328.667 385.324C322.295 377.398 312.645 365.449 307.223 358.771C301.801 352.095 269.223 311.742 234.828 269.099C200.434 226.456 168.911 187.4 164.778 182.306C160.644 177.213 147.796 161.306 136.229 146.957C124.66 132.609 114.933 120.896 114.614 120.93C114.293 120.964 109.528 122.924 104.024 125.286C97.0827 128.264 94.2819 129.941 94.885 130.757C95.7652 131.95 135.056 180.122 160.608 211.338C177.158 231.556 210.004 271.794 223.643 288.561C228.981 295.123 240.534 309.258 249.317 319.972C267.298 341.907 313.961 399.016 329.932 418.631C335.722 425.743 344.847 436.923 350.209 443.477C366.937 463.92 414.265 521.881 427.542 538.185C434.515 546.747 446.785 561.755 454.809 571.538C462.833 581.32 479.252 601.387 491.295 616.133C546.877 684.185 549.127 686.837 551.904 687.569Z" fill="#201B19"></path> <path d="M560.672 684.431C557.621 688.21 556.228 688.708 551.904 687.569C549.127 686.837 546.877 684.185 491.295 616.133C479.252 601.387 462.833 581.32 454.809 571.538C446.785 561.755 434.515 546.747 427.542 538.185C414.265 521.881 366.937 463.92 350.209 443.477C344.847 436.923 335.722 425.743 329.932 418.631C313.961 399.016 267.298 341.907 249.317 319.972C240.534 309.258 228.981 295.123 223.643 288.561C210.004 271.794 177.158 231.556 160.608 211.338C135.056 180.122 95.7652 131.95 94.885 130.757C94.2819 129.941 97.0827 128.264 104.024 125.286C109.528 122.924 114.293 120.964 114.614 120.93C114.933 120.896 124.66 132.609 136.229 146.957C147.796 161.306 160.644 177.213 164.778 182.306C168.911 187.4 200.434 226.456 234.828 269.099C269.223 311.742 301.801 352.095 307.223 358.771C312.645 365.449 322.295 377.398 328.667 385.324C335.039 393.25 347.382 408.571 356.096 419.372C364.81 430.173 375.78 443.78 380.474 449.611C394.511 467.047 417.167 495.111 441.015 524.604C453.374 539.888 480.12 573.02 500.451 598.23C520.781 623.441 542.864 650.796 549.522 659.02C563.578 676.379 564.843 679.265 560.672 684.431Z" fill="#FAF5E5"></path> </svg> 