<?xml version="1.0" encoding="UTF-8"?> <svg xmlns="http://www.w3.org/2000/svg" width="147" height="128" viewBox="0 0 147 128" fill="none"> <path fill-rule="evenodd" clip-rule="evenodd" d="M39.1747 0.258775C38.1611 0.609746 37.5663 1.26745 37.482 2.13C37.3901 3.07006 37.2623 2.69139 40.42 10.8363C41.1691 12.7689 41.9695 14.8617 42.1988 15.487C42.4278 16.1122 42.9438 17.4144 43.3451 18.3807C43.7463 19.347 44.2431 20.6492 44.4487 21.2745C44.6543 21.8997 44.8964 22.5043 44.9868 22.618C45.077 22.7317 45.4664 23.7083 45.852 24.7883C46.2377 25.8683 46.8823 27.5477 47.2848 28.5206C47.687 29.4933 48.2134 30.8761 48.4542 31.5934L48.8923 32.8976L48.068 33.8553C45.0442 37.3679 43.3139 40.564 42.7832 43.6167C42.5076 45.2031 42.6845 47.2579 43.1378 47.7343C43.3462 47.9534 43.4303 48.3348 43.3693 48.7835C43.3165 49.1713 43.2667 49.6977 43.2584 49.9536C43.2443 50.404 43.1752 50.4187 41.0706 50.4187H38.8974L38.8807 49.1268C38.8553 47.1401 38.6395 46.3894 38.0007 46.064C37.2271 45.6703 36.3769 46.0512 35.0578 47.3827C33.7632 48.6893 32.0967 50.0756 31.1677 50.6188C30.6578 50.917 30.2045 51.7945 30.2045 52.4834C30.2045 52.6754 29.9844 52.9387 29.7155 53.0683C28.5533 53.6283 27.3763 54.3093 26.3025 55.0429L25.1507 55.83L24.0306 54.7779C23.4145 54.1992 22.7475 53.7258 22.548 53.7258C22.3487 53.7258 21.9117 54.0733 21.577 54.4979C21.2421 54.9226 20.6994 55.489 20.3706 55.7564C19.5613 56.4154 19.6189 56.9026 20.588 57.5909C22.0894 58.6574 22.0788 58.5444 20.8148 60.0057C19.306 61.7506 18.4091 63.1886 17.5031 65.3168C16.1578 68.4759 15.8879 70.8075 16.6675 72.5352C16.9076 73.0675 16.9869 73.9685 16.9674 75.9457C16.9198 80.763 18.1642 84.7023 21.1182 89.0861C21.534 89.7031 22.646 90.9873 23.5894 91.9401C25.1719 93.5383 25.8252 94.053 27.6783 95.1611C28.0517 95.3843 28.4844 95.6847 28.6396 95.8283C29.1505 96.3008 32.1863 97.5687 34.2613 98.1762C35.5989 98.5679 37.2675 98.8591 39.1193 99.0241L41.9399 99.2752L43.2521 101.563C44.613 103.935 45.1563 104.624 47.4328 106.869C48.9688 108.383 49.5986 108.849 52.0455 110.283C54.6885 111.831 58.475 113.123 61.0644 113.359C61.8413 113.43 62.7703 113.522 63.1289 113.564C63.4875 113.605 64.1232 113.647 64.5415 113.656C65.2659 113.672 65.3437 113.749 66.1688 115.272C67.7457 118.183 68.3284 118.95 70.8133 121.387C73.8623 124.378 79.0359 126.958 83.5573 127.741C86.5042 128.252 92.0622 127.974 94.5099 127.193C96.3478 126.607 98.9811 125.579 99.5305 125.234C103.602 122.672 104.135 122.253 106.348 119.871C108.09 117.994 110.048 114.704 110.715 112.531C110.925 111.849 111.227 110.872 111.388 110.361C111.825 108.965 111.921 108.22 112.011 105.504L112.094 103.025L114.234 102.989C117.619 102.932 119.138 102.672 122.442 101.588C124.019 101.07 126.291 100.024 126.913 99.5286C127.092 99.3858 127.679 99.0303 128.217 98.7382C129.329 98.1348 133.353 94.3602 133.826 93.4778C133.997 93.1572 134.302 92.7089 134.502 92.4815C134.923 92.003 136.519 88.941 136.98 87.7275C138.001 85.0361 138.365 82.8883 138.419 79.2529C138.437 78.0082 138.54 77.1557 138.679 77.1101C139.092 76.9743 139.948 74.9329 139.948 74.0855C139.947 72.8403 138.909 69.6793 137.852 67.7045C136.296 64.7988 132.704 60.8821 129.77 58.8933L128.398 57.9631L128.479 56.7064C128.542 55.7213 128.712 55.2227 129.268 54.3989C130.075 53.2031 130.335 52.1256 129.972 51.4805C129.665 50.9356 128.294 50.8784 126.835 51.3497C125.766 51.6948 122.559 52.2693 121.667 52.2752C120.877 52.2804 120.216 52.848 119.858 53.8292C119.615 54.4966 119.46 54.649 119.052 54.6194C116.895 54.4633 115.187 54.269 115.034 54.1628C114.934 54.0929 114.569 53.5243 114.223 52.8991C112.909 50.5237 111.247 48.4815 108.875 46.329C105.167 42.9625 98.9698 40.3641 93.7176 39.9735L91.7328 39.8257L90.253 37.4394C89.1097 35.5956 88.2788 34.5725 86.5998 32.9406C85.4045 31.7788 83.8511 30.4689 83.1479 30.0301C82.4446 29.5913 81.5644 29.0401 81.1919 28.805C80.8194 28.57 79.439 27.9334 78.1242 27.3904C76.8094 26.8472 75.7119 26.3832 75.6852 26.3592C75.6587 26.335 75.7397 25.9609 75.8654 25.5277C75.9912 25.0946 76.0362 24.5213 75.9658 24.2536C75.7636 23.4884 74.7772 22.7664 73.5761 22.5047C72.9697 22.3726 71.8097 21.8958 70.9978 21.445C69.3081 20.507 68.2388 20.2563 67.8461 20.7063C67.7027 20.8708 67.4934 21.4613 67.3813 22.0184C66.926 24.2788 65.9672 25.4818 64.5844 25.5281C62.3909 25.6012 59.0652 26.5791 56.1672 28.0026C54.8565 28.6463 53.6912 29.2563 53.5776 29.3577C53.1277 29.76 52.845 29.4907 52.5231 28.3538C52.1921 27.1854 51.671 25.7054 51.304 24.8917C51.0916 24.4212 49.7379 20.4911 48.9901 18.174C48.7148 17.3214 48.2838 16.1122 48.0322 15.487C47.7805 14.8617 47.3865 13.7455 47.1563 13.0066C46.9264 12.2676 46.392 10.6972 45.9691 9.51672C45.546 8.33628 45.1998 7.28068 45.1998 7.17092C45.1998 7.06116 45.0642 6.67836 44.8986 6.32016C44.5122 5.4849 43.795 3.47229 43.4243 2.18291C43.027 0.801352 42.0351 -0.0208862 40.7914 0.000403572C40.2876 0.00908484 39.56 0.125248 39.1747 0.258775ZM39.1691 1.2226C38.0677 1.86129 38.1848 2.60664 40.1877 7.69448C41.1365 10.1046 42.3018 13.0996 42.7773 14.3501C43.2528 15.6006 44.0456 17.6469 44.5389 18.8974C45.0324 20.148 46.0284 22.7058 46.7523 24.5816C48.4885 29.0804 48.6633 29.5297 50.0898 33.1595C50.76 34.8648 51.7323 37.3761 52.2506 38.7403C53.7866 42.7842 55.3309 46.7215 55.7365 47.6283C55.889 47.9693 56.1839 48.76 56.3919 49.3852C56.5999 50.0105 56.897 50.8011 57.0521 51.1421C57.2075 51.4832 58.0281 53.576 58.8759 55.7928C59.7237 58.0096 60.6028 60.2885 60.8294 60.8569C61.2545 61.9234 64.0993 69.2922 64.67 70.8048C64.8469 71.274 65.1926 71.8308 65.4382 72.0421C65.8737 72.417 65.8922 72.4166 66.191 72.028C66.3597 71.8087 66.4974 71.5185 66.4974 71.3831C66.4974 71.2477 63.04 61.2432 58.8144 49.151C54.5888 37.0589 50.0787 24.1424 48.7924 20.4477C47.5058 16.753 46.2788 13.265 46.0654 12.6965C45.852 12.1281 44.9196 9.45265 43.9934 6.75091C42.8972 3.55269 42.1349 1.65935 41.8091 1.32512C41.1889 0.688496 40.159 0.648603 39.1691 1.2226ZM68.386 21.6362C68.3349 21.7213 68.2228 22.1633 68.1365 22.618C67.8611 24.0727 67.044 25.4861 66.1413 26.0686C65.2839 26.6217 63.418 27.4754 63.0659 27.4754C62.7049 27.4754 62.1392 28.2391 62.2664 28.5543C62.3896 28.86 63.26 29.3356 63.6959 29.3356C64.1447 29.3356 66.424 30.4659 67.5204 31.2319C68.1428 31.6668 68.8782 32.0227 69.1544 32.0227C69.6819 32.0227 71.1245 30.9975 72.8448 29.3999C73.65 28.6521 74.0053 28.0886 74.514 26.7509C74.8698 25.8162 75.1258 24.8761 75.0834 24.6616C75.041 24.447 74.9989 24.2191 74.9898 24.1548C74.9685 24.0062 73.5124 23.3414 73.2079 23.3414C72.978 23.3414 70.7741 22.3489 69.7573 21.7873C69.1657 21.4605 68.5331 21.3908 68.386 21.6362ZM70.6266 24.7883C70.6266 24.902 70.7733 24.995 70.9526 24.995C71.1318 24.995 71.2785 24.902 71.2785 24.7883C71.2785 24.6746 71.1318 24.5816 70.9526 24.5816C70.7733 24.5816 70.6266 24.6746 70.6266 24.7883ZM68.9297 25.0105C68.9725 25.1327 69.1003 25.2327 69.214 25.2327C69.3276 25.2327 69.4554 25.1327 69.4982 25.0105C69.541 24.8883 69.4133 24.7883 69.214 24.7883C69.0147 24.7883 68.8869 24.8883 68.9297 25.0105ZM69.1053 26.6486C69.1053 26.7623 69.2031 26.8553 69.3226 26.8553C69.4422 26.8553 69.54 26.7623 69.54 26.6486C69.54 26.5349 69.4422 26.4419 69.3226 26.4419C69.2031 26.4419 69.1053 26.5349 69.1053 26.6486ZM67.3667 26.9586C67.3667 27.1482 67.4719 27.2697 67.6003 27.229C67.7288 27.1883 67.834 27.0665 67.834 26.9586C67.834 26.8507 67.7288 26.729 67.6003 26.6883C67.4719 26.6475 67.3667 26.7691 67.3667 26.9586ZM67.0407 38.8639C64.1051 39.1541 64.0973 39.1603 64.465 40.909L64.6061 41.5793L66.5839 41.4417C69.7721 41.2197 69.9746 41.1634 69.9746 40.5002C69.9746 40.186 69.9135 39.6382 69.8388 39.2829C69.6875 38.5636 69.8427 38.5868 67.0407 38.8639ZM81.1543 40.5896C80.9677 40.8604 80.7797 41.4493 80.7364 41.898C80.6358 42.9454 80.1699 44.416 79.4547 45.9452C79.1159 46.6694 78.9403 47.3338 79.0178 47.5987C79.1617 48.0903 81.0733 49.6366 82.7508 50.6182C83.5371 51.0783 84.3225 51.322 85.584 51.4968C88.1721 51.8557 88.2978 51.7668 88.7707 49.2471C88.9806 48.1293 89.2868 46.9638 89.4515 46.6568C89.6162 46.3497 89.751 45.8149 89.751 45.4683C89.751 44.8569 89.7208 44.8379 88.7522 44.8379C87.3824 44.8379 85.5338 44.2945 84.7389 43.6583C84.3755 43.3674 83.6477 42.5024 83.1216 41.736C82.0091 40.1151 81.6325 39.8956 81.1543 40.5896ZM57.5872 42.5421C57.5872 42.7881 60.515 51.4069 60.965 52.4857C61.1309 52.8836 61.4305 53.7662 61.6307 54.4468C61.8309 55.1275 62.0656 55.8251 62.1523 55.997C62.3633 56.415 62.7284 57.4338 63.3389 59.3067C63.6166 60.1593 64.1721 61.7651 64.573 62.8751C65.2898 64.8589 65.3132 64.8922 65.9541 64.8387C66.5713 64.787 66.6098 64.7302 66.6737 63.7723C66.7191 63.0896 66.5954 62.4385 66.2934 61.7705C66.0469 61.2258 65.8455 60.3732 65.8455 59.8757C65.8455 58.8195 66.5233 56.2331 67.2387 54.558L67.7397 53.3856L66.7758 51.5404C66.2456 50.5256 65.6347 49.5092 65.418 49.2819C65.2013 49.0545 64.6541 48.3104 64.2021 47.6283C62.7506 45.4385 59.8441 42.9927 58.0762 42.4733C57.7882 42.3887 57.5872 42.4171 57.5872 42.5421ZM51.9129 43.0303C51.6008 43.2856 50.8674 44.0923 50.283 44.8232C48.9888 46.4412 48.6348 46.7974 47.3365 47.786C46.5065 48.4179 46.146 48.5584 45.3547 48.5584C44.4057 48.5584 44.3848 48.5731 44.2527 49.3335C44.0378 50.5704 44.0621 50.6254 44.8245 50.6254C45.7494 50.6254 49.3602 51.503 50.7052 52.0549C51.2829 52.2918 51.8596 52.4857 51.987 52.4857C52.363 52.4857 55.6504 54.2771 56.8105 55.114C57.9932 55.9671 57.9951 55.9602 57.1502 53.9325C56.8896 53.3073 56.4891 52.2376 56.2602 51.5555C56.0312 50.8734 55.7515 50.1293 55.6387 49.902C55.2016 49.0214 54.7083 47.7918 54.3949 46.8015C54.215 46.2331 53.892 45.3495 53.6771 44.8379C53.4624 44.3263 53.1666 43.6056 53.0199 43.236C52.7037 42.439 52.6483 42.4288 51.9129 43.0303ZM98.3352 44.8681C98.2157 44.9861 97.3547 45.7484 96.4217 46.5622L94.7255 48.0417L95.2221 48.6934C96.1709 49.9387 96.2426 49.9257 98.4291 48.113L100.426 46.4572L99.6885 45.6074C98.8738 44.6686 98.6569 44.5502 98.3352 44.8681ZM83.9919 45.0446C84.0658 45.1583 84.2182 45.2513 84.3307 45.2513C84.4433 45.2513 84.5352 45.1583 84.5352 45.0446C84.5352 44.9309 84.3827 44.8379 84.1964 44.8379C84.0102 44.8379 83.918 44.9309 83.9919 45.0446ZM82.362 45.2513C82.362 45.365 82.4598 45.458 82.5793 45.458C82.6989 45.458 82.7967 45.365 82.7967 45.2513C82.7967 45.1376 82.6989 45.0446 82.5793 45.0446C82.4598 45.0446 82.362 45.1376 82.362 45.2513ZM86.0565 46.2848C86.0565 46.3984 86.2032 46.4915 86.3825 46.4915C86.5618 46.4915 86.7085 46.3984 86.7085 46.2848C86.7085 46.1711 86.5618 46.0781 86.3825 46.0781C86.2032 46.0781 86.0565 46.1711 86.0565 46.2848ZM84.3179 46.4915C84.3179 46.6051 84.4157 46.6982 84.5352 46.6982C84.6548 46.6982 84.7526 46.6051 84.7526 46.4915C84.7526 46.3778 84.6548 46.2848 84.5352 46.2848C84.4157 46.2848 84.3179 46.3778 84.3179 46.4915ZM36.3228 47.2908C36.0655 47.503 35.8549 47.7728 35.8549 47.8902C35.8549 48.193 33.6804 50.045 32.4936 50.7529C31.9155 51.0979 31.4382 51.5582 31.3609 51.8457C31.1938 52.4666 32.0026 54.9106 32.8465 56.3342C33.581 57.5733 35.7719 59.4666 36.6686 59.6372C37.2345 59.7449 37.4335 59.6031 38.7798 58.1361C39.5972 57.2453 40.4976 56.3693 40.7805 56.1897C41.3214 55.8461 41.9213 55.18 41.933 54.9098C41.9369 54.822 41.4896 54.4786 40.9392 54.1467C39.7932 53.4553 38.6579 52.2527 38.298 51.3488C38.1624 51.0078 37.9944 49.948 37.9247 48.9939C37.8549 48.0398 37.7463 47.1793 37.683 47.082C37.4879 46.7819 36.8144 46.8854 36.3228 47.2908ZM47.8077 48.5584C47.8077 48.6721 47.9544 48.7651 48.1336 48.7651C48.3129 48.7651 48.4596 48.6721 48.4596 48.5584C48.4596 48.4447 48.3129 48.3517 48.1336 48.3517C47.9544 48.3517 47.8077 48.4447 47.8077 48.5584ZM45.8518 49.8898C45.8518 50.0669 45.9495 50.212 46.0691 50.212C46.1886 50.212 46.2864 50.1246 46.2864 50.0175C46.2864 49.9104 46.1886 49.7655 46.0691 49.6953C45.9495 49.625 45.8518 49.7126 45.8518 49.8898ZM47.7105 49.9877C47.6405 50.0954 47.676 50.2378 47.7892 50.3044C47.9024 50.371 48.0521 50.3373 48.1221 50.2296C48.1921 50.1219 48.1567 49.9795 48.0435 49.9129C47.9302 49.8464 47.7805 49.88 47.7105 49.9877ZM36.3393 51.0776C36.4736 51.4609 36.9415 51.5243 36.9415 51.1593C36.9415 50.9793 36.7868 50.8321 36.5975 50.8321C36.4082 50.8321 36.2919 50.9425 36.3393 51.0776ZM127.29 52.0855C126.7 52.4201 124.796 52.837 123.11 53.0008C122.273 53.0818 121.426 53.2308 121.227 53.3317C120.823 53.5365 120.468 54.8701 120.172 57.3046C119.995 58.7535 120.03 59.0845 120.507 60.5208C120.82 61.4637 121.258 62.3184 121.573 62.5998L122.108 63.0774L124.184 62.4321C125.326 62.0774 126.508 61.787 126.811 61.787C127.114 61.787 127.705 61.6508 128.124 61.4842L128.886 61.1812L128.227 59.9766C127.813 59.2198 127.517 58.3054 127.43 57.5167C127.3 56.337 127.345 56.1597 128.175 54.5832C128.661 53.6603 129.089 52.6944 129.127 52.4371C129.186 52.0349 129.088 51.9617 128.434 51.9183C128.016 51.8904 127.501 51.9656 127.29 52.0855ZM36.2895 52.7957C36.2895 52.9662 36.3873 53.1058 36.5069 53.1058C36.6264 53.1058 36.7242 52.9662 36.7242 52.7957C36.7242 52.6252 36.6264 52.4857 36.5069 52.4857C36.3873 52.4857 36.2895 52.6252 36.2895 52.7957ZM37.9616 52.8244C37.788 52.9896 37.9842 53.3125 38.2583 53.3125C38.3709 53.3125 38.4628 53.1729 38.4628 53.0024C38.4628 52.6829 38.2063 52.5917 37.9616 52.8244ZM103.13 54.3521C102.443 54.9241 101.376 55.6318 100.76 55.9251C99.0372 56.7449 98.6808 57.1295 98.877 57.9569C99.1828 59.2463 100.387 60.9379 101.61 61.7974C103.394 63.0512 105.713 64.145 106.123 63.9267C106.312 63.8263 107.044 63.2128 107.749 62.5636C108.455 61.9143 109.651 61.0256 110.407 60.5882C112.07 59.6268 112.414 59.1961 111.844 58.7928C111.623 58.6372 111.037 58.446 110.54 58.3678C107.723 57.9255 106.373 57.0206 105.289 54.8468C104.868 54.0028 104.491 53.3125 104.451 53.3125C104.412 53.3125 103.817 53.7804 103.13 54.3521ZM125.175 54.5526C125.175 54.6663 125.272 54.7593 125.392 54.7593C125.511 54.7593 125.609 54.6663 125.609 54.5526C125.609 54.4389 125.511 54.3459 125.392 54.3459C125.272 54.3459 125.175 54.4389 125.175 54.5526ZM37.8108 54.7593C37.8108 54.873 37.9086 54.966 38.0281 54.966C38.1476 54.966 38.2454 54.873 38.2454 54.7593C38.2454 54.6456 38.1476 54.5526 38.0281 54.5526C37.9086 54.5526 37.8108 54.6456 37.8108 54.7593ZM21.851 55.5991C21.4253 56.0475 21.0769 56.4956 21.0769 56.595C21.0769 56.6944 21.7372 57.322 22.5439 57.9896C23.3506 58.6572 24.2003 59.3662 24.4322 59.565C24.6639 59.7639 24.9214 59.9268 25.0044 59.9268C25.0874 59.9268 25.519 59.5441 25.9632 59.0764C26.6326 58.3716 26.7206 58.1816 26.4774 57.9666C26.0521 57.5902 23.8574 55.7664 23.193 55.2368L22.6252 54.7843L21.851 55.5991ZM124.13 56.015C124.173 56.1372 124.3 56.2372 124.414 56.2372C124.528 56.2372 124.655 56.1372 124.698 56.015C124.741 55.8929 124.613 55.7928 124.414 55.7928C124.215 55.7928 124.087 55.8929 124.13 56.015ZM77.0376 56.4669C75.7739 56.9631 75.4298 57.2542 73.588 59.384C71.0128 62.362 70.0344 63.0454 68.2532 63.1101C67.7423 63.1287 67.6868 63.2176 67.6264 64.1124C67.5658 65.0105 67.603 65.0969 68.0611 65.1256C68.3366 65.1429 68.6598 65.1742 68.7793 65.1948C68.8989 65.2155 69.4856 65.3081 70.0833 65.4003C72.1787 65.7242 76.7907 67.4329 78.2789 68.4369C78.6719 68.7021 79.15 69.0119 79.3412 69.1254C82.721 71.1287 86.4546 75.0735 88.0641 78.3412C88.5014 79.2291 88.6335 79.3403 89.262 79.3478C89.9457 79.356 89.9692 79.3281 89.9933 78.4778C90.0292 77.2207 89.9648 76.8498 89.5926 76.1644C88.9171 74.9218 89.3011 72.0429 90.5355 69.0935L91.0675 67.8224L89.9192 65.7864C88.3908 63.0764 85.5045 59.4146 84.0612 58.3538C82.2125 56.9952 80.7801 56.3974 79.1352 56.2982C78.2687 56.2459 77.4283 56.3135 77.0376 56.4669ZM125.609 56.9174C125.609 57.0946 125.707 57.2397 125.827 57.2397C125.946 57.2397 126.044 57.1523 126.044 57.0452C126.044 56.9381 125.946 56.7932 125.827 56.7229C125.707 56.6527 125.609 56.7403 125.609 56.9174ZM102.573 57.033C102.573 57.1467 102.671 57.2397 102.79 57.2397C102.91 57.2397 103.008 57.1467 103.008 57.033C103.008 56.9193 102.91 56.8263 102.79 56.8263C102.671 56.8263 102.573 56.9193 102.573 57.033ZM47.373 58.2114C45.9984 58.6076 44.856 58.9476 44.8342 58.9673C44.8125 58.9867 44.952 59.54 45.1441 60.1965C45.3576 60.9261 45.5923 61.354 45.7479 61.2971C45.8878 61.2461 47.0196 60.9069 48.2632 60.5433C49.5067 60.18 50.5596 59.8509 50.6031 59.8124C50.7178 59.7103 50.1802 57.6663 50.0135 57.5716C49.9357 57.5274 48.7476 57.8153 47.373 58.2114ZM105.084 57.6355C105.014 57.7432 105.049 57.8856 105.162 57.9522C105.276 58.0187 105.425 57.985 105.495 57.8773C105.565 57.7697 105.53 57.6273 105.417 57.5607C105.303 57.4941 105.154 57.5278 105.084 57.6355ZM124.662 58.2099C124.417 58.4427 124.513 58.6866 124.849 58.6866C125.028 58.6866 125.175 58.5991 125.175 58.4921C125.175 58.2314 124.835 58.0448 124.662 58.2099ZM103.484 58.4954C103.527 58.6175 103.655 58.7176 103.768 58.7176C103.882 58.7176 104.01 58.6175 104.053 58.4954C104.095 58.3732 103.968 58.2732 103.768 58.2732C103.569 58.2732 103.441 58.3732 103.484 58.4954ZM105.972 59.0367C105.727 59.2695 105.823 59.5134 106.159 59.5134C106.338 59.5134 106.485 59.4259 106.485 59.3189C106.485 59.0582 106.145 58.8716 105.972 59.0367ZM71.0612 62.8205C71.0612 62.9342 71.159 63.0272 71.2785 63.0272C71.3981 63.0272 71.4959 62.9342 71.4959 62.8205C71.4959 62.7068 71.3981 62.6138 71.2785 62.6138C71.159 62.6138 71.0612 62.7068 71.0612 62.8205ZM68.7908 63.8364C68.7209 63.9441 68.7563 64.0865 68.8695 64.1531C68.9827 64.2196 69.1325 64.1859 69.2025 64.0783C69.2724 63.9706 69.237 63.8281 69.1238 63.7616C69.0106 63.695 68.8608 63.7287 68.7908 63.8364ZM70.6266 64.2552C70.6266 64.3623 70.7244 64.5071 70.8439 64.5774C70.9634 64.6477 71.0612 64.5601 71.0612 64.3829C71.0612 64.2058 70.9634 64.0607 70.8439 64.0607C70.7244 64.0607 70.6266 64.1481 70.6266 64.2552ZM53.2407 65.3893C51.0475 65.689 48.2423 67.2659 48.2423 68.1992C48.2423 68.4088 48.7313 69.3459 49.3289 70.2818C49.9266 71.2178 50.4155 72.0782 50.4155 72.194C50.4155 72.509 51.3016 74.1888 51.4672 74.1884C51.5463 74.188 51.9531 73.9034 52.3714 73.5557C53.5671 72.5619 55.0595 71.9152 56.1568 71.9152C57.083 71.9152 59.2893 72.3616 59.7754 72.6475C59.9002 72.7209 60.2414 72.7238 60.5334 72.6541C61.1887 72.4976 61.2454 71.7779 60.6591 71.0646C60.0503 70.3242 59.2275 68.6742 58.6851 67.1064C58.4191 66.3372 58.0533 65.5671 57.8721 65.3947C57.4929 65.034 55.8543 65.0322 53.2407 65.3893ZM117.46 66.5431C117.101 66.6376 116.27 66.8176 115.612 66.9435C113.854 67.2798 113.82 67.3168 114.103 68.572C114.236 69.1603 114.459 69.6415 114.598 69.6413C115.294 69.6409 119.742 68.6386 119.742 68.4821C119.742 68.4489 119.636 67.952 119.506 67.378C119.293 66.4332 119.216 66.3362 118.691 66.353C118.372 66.3633 117.818 66.4489 117.46 66.5431ZM27.8822 66.9354C26.5978 67.2473 25.4701 68.0832 24.0534 69.7742C23.2778 70.6998 22.2664 71.7992 21.8056 72.2176C20.7699 73.158 19.2543 73.8521 18.5851 73.6923C18.1635 73.5917 18.0672 73.6715 17.9525 74.2171C17.7163 75.3405 17.8071 77.744 18.1587 79.6663C19.203 85.3763 22.3746 90.3657 27.1185 93.7616C30.916 96.4798 35.8929 98.1657 40.1212 98.1657C41.3751 98.1657 41.5053 98.1256 41.5053 97.7386C41.5053 97.5038 41.3955 97.1167 41.2615 96.8785C40.7566 95.9811 40.4069 93.6192 40.3354 90.6212C40.2811 88.3405 40.1672 87.3091 39.9054 86.7204C39.7096 86.2802 39.5502 85.4896 39.5513 84.9635C39.5539 83.7452 40.5258 80.0879 41.0889 79.1785C41.3603 78.7399 41.4464 78.3972 41.3223 78.2484C41.2141 78.1188 40.7036 77.2275 40.1879 76.2676C38.7266 73.5489 35.736 69.8767 34.0526 68.7341C31.6432 67.0989 29.6284 66.5115 27.8822 66.9354ZM55.4466 69.6312C55.54 69.8976 55.838 69.9456 55.8649 69.6983C55.8738 69.6159 55.7639 69.5113 55.6204 69.4658C55.477 69.4203 55.3988 69.4947 55.4466 69.6312ZM53.0234 69.8482C53.0234 69.9619 53.1212 70.0549 53.2407 70.0549C53.3603 70.0549 53.4581 69.9619 53.4581 69.8482C53.4581 69.7345 53.3603 69.6415 53.2407 69.6415C53.1212 69.6415 53.0234 69.7345 53.0234 69.8482ZM73.8864 72.1165C72.99 73.1214 72.2565 74.0371 72.2565 74.1512C72.2565 74.3662 73.8445 75.6469 74.0794 75.6212C74.1524 75.6132 74.9763 74.7533 75.9097 73.7105L77.607 71.8145L76.6703 71.0441C76.1553 70.6206 75.6848 70.2773 75.625 70.2816C75.5652 70.2858 74.7829 71.1115 73.8864 72.1165ZM56.9352 70.675C56.9352 70.7887 57.033 70.8817 57.1525 70.8817C57.2721 70.8817 57.3699 70.7887 57.3699 70.675C57.3699 70.5613 57.2721 70.4683 57.1525 70.4683C57.033 70.4683 56.9352 70.5613 56.9352 70.675ZM54.3273 70.8817C54.3273 70.9954 54.4251 71.0884 54.5447 71.0884C54.6642 71.0884 54.762 70.9954 54.762 70.8817C54.762 70.768 54.6642 70.675 54.5447 70.675C54.4251 70.675 54.3273 70.768 54.3273 70.8817ZM100.603 70.8608C99.582 71.1748 98.2965 72.1266 97.5626 73.1117C96.3611 74.7244 93.8782 77.0512 93.0971 77.2963C92.6996 77.4211 92.0835 77.5311 91.7282 77.5406C91.1536 77.5561 91.0666 77.6454 90.9421 78.3463C90.865 78.7798 90.8567 79.2186 90.9237 79.3213C90.9904 79.4242 91.5313 79.5698 92.1253 79.6448C93.4811 79.8157 96.3361 80.5044 96.9187 80.8011C97.306 80.9982 97.4275 80.916 97.9391 80.1105C98.5891 79.0869 99.4179 78.5295 100.289 78.5295C101.061 78.5295 103.478 79.8292 104.366 80.7215C104.754 81.1117 105.323 81.8711 105.629 82.409C105.935 82.9468 106.46 83.8519 106.796 84.4203C107.164 85.0441 107.434 85.8451 107.477 86.4412C107.535 87.2512 107.717 87.6222 108.493 88.5081C111.034 91.41 113.29 95.9162 113.595 98.6987C113.706 99.7161 113.637 99.9433 112.607 101.967C112.408 102.359 117.843 101.94 120.068 101.392C122.161 100.876 126.578 98.9778 127.492 98.2006C127.716 98.0108 128.434 97.4246 129.09 96.8982C130.676 95.6235 131.474 94.8769 132.129 94.054C132.428 93.6783 132.873 93.1243 133.118 92.823C134.442 91.1934 135.515 89.1231 136.508 86.2806C137.041 84.7525 137.638 80.1808 137.457 79.0104L137.323 78.1481L136.193 78.2481C134.752 78.3757 133.81 77.9325 132.836 76.6692C131.156 74.4908 130.837 74.208 129.692 73.8848C127.462 73.255 125.624 73.5915 124.255 74.8802C123.191 75.8827 122.891 76.5334 122.107 79.5431C121.434 82.128 120.804 83.2188 119.596 83.8972C118.693 84.4038 117.361 84.4391 116.351 83.9832C115.693 83.6861 113.657 81.4375 113.657 81.0077C113.657 80.5923 111.705 77.6216 110.218 75.7729C107.581 72.4941 105.062 70.8618 102.464 70.7469C101.747 70.7151 100.909 70.7663 100.603 70.8608ZM23.8028 73.7612C23.7339 73.867 23.7772 74.0119 23.8987 74.0834C24.0201 74.1547 24.1195 74.0681 24.1195 73.891C24.1195 73.5278 23.9891 73.4745 23.8028 73.7612ZM21.9462 73.9821C21.9462 74.0958 22.044 74.1888 22.1636 74.1888C22.2831 74.1888 22.3809 74.0958 22.3809 73.9821C22.3809 73.8684 22.2831 73.7754 22.1636 73.7754C22.044 73.7754 21.9462 73.8684 21.9462 73.9821ZM22.1636 75.5445C22.1636 75.7217 22.2629 75.8083 22.3844 75.737C22.5058 75.6655 22.5491 75.5206 22.4802 75.4147C22.2939 75.1281 22.1636 75.1814 22.1636 75.5445ZM23.9021 75.5324C23.9021 75.7029 23.9999 75.8424 24.1195 75.8424C24.239 75.8424 24.3368 75.7029 24.3368 75.5324C24.3368 75.3618 24.239 75.2223 24.1195 75.2223C23.9999 75.2223 23.9021 75.3618 23.9021 75.5324ZM23.9021 77.0826C23.9021 77.1963 23.9999 77.2893 24.1195 77.2893C24.239 77.2893 24.3368 77.1963 24.3368 77.0826C24.3368 76.9689 24.239 76.8759 24.1195 76.8759C23.9999 76.8759 23.9021 76.9689 23.9021 77.0826ZM22.1636 77.2893C22.1636 77.403 22.2613 77.496 22.3809 77.496C22.5004 77.496 22.5982 77.403 22.5982 77.2893C22.5982 77.1756 22.5004 77.0826 22.3809 77.0826C22.2613 77.0826 22.1636 77.1756 22.1636 77.2893ZM93.4455 77.496C93.4455 77.6097 93.5433 77.7027 93.6628 77.7027C93.7823 77.7027 93.8801 77.6097 93.8801 77.496C93.8801 77.3823 93.7823 77.2893 93.6628 77.2893C93.5433 77.2893 93.4455 77.3823 93.4455 77.496ZM91.2723 78.6206C91.2723 78.7977 91.37 78.9428 91.4896 78.9428C91.6091 78.9428 91.7069 78.8554 91.7069 78.7484C91.7069 78.6413 91.6091 78.4964 91.4896 78.4261C91.37 78.3558 91.2723 78.4435 91.2723 78.6206ZM22.1636 78.9428C22.1636 79.0565 22.2613 79.1495 22.3809 79.1495C22.5004 79.1495 22.5982 79.0565 22.5982 78.9428C22.5982 78.8292 22.5004 78.7362 22.3809 78.7362C22.2613 78.7362 22.1636 78.8292 22.1636 78.9428ZM24.0108 78.9428C24.0847 79.0565 24.1881 79.1495 24.2409 79.1495C24.2938 79.1495 24.3368 79.0565 24.3368 78.9428C24.3368 78.8292 24.2331 78.7362 24.1066 78.7362C23.9802 78.7362 23.9369 78.8292 24.0108 78.9428ZM67.729 78.874C67.4243 79.1636 67.6123 79.804 68.399 81.1578C69.1373 82.428 69.214 82.706 69.214 84.1103C69.214 85.422 69.1151 85.8432 68.5716 86.8478C67.8003 88.2731 67.8859 88.4061 69.7362 88.6547C70.4764 88.7543 71.7584 89.0815 72.5853 89.3821C74.6788 90.1429 74.9402 90.0677 75.7691 88.4658C76.6642 86.7355 76.7692 85.8963 76.4106 83.3385C76.1225 81.2829 75.6772 80.1843 75.131 80.1818C74.1355 80.1772 70.4997 79.5094 69.5667 79.1595C68.3738 78.7124 67.9654 78.6489 67.729 78.874ZM93.0108 78.9428C93.0108 79.0565 93.1086 79.1495 93.2282 79.1495C93.3477 79.1495 93.4455 79.0565 93.4455 78.9428C93.4455 78.8292 93.3477 78.7362 93.2282 78.7362C93.1086 78.7362 93.0108 78.8292 93.0108 78.9428ZM99.5044 79.7014C99.3165 79.9096 98.8344 80.5448 98.4333 81.1132C98.0323 81.6816 97.3195 82.5394 96.8492 83.0191C95.2273 84.6746 95.2319 84.6417 96.5275 85.2661C99.0541 86.484 99.9832 87.7076 100.279 90.2078C100.489 91.9862 100.574 92.1714 101.178 92.1714C101.588 92.1714 101.89 91.8998 102.503 90.9829C102.939 90.3292 104.019 89.1367 104.901 88.3329C105.784 87.529 106.517 86.6919 106.53 86.4726C106.573 85.7889 104.796 82.5377 103.787 81.4521C103.168 80.7866 101.145 79.5704 100.431 79.4344C100.027 79.3577 99.7409 79.4402 99.5044 79.7014ZM22.1636 80.3897C22.1636 80.5034 22.2613 80.5964 22.3809 80.5964C22.5004 80.5964 22.5982 80.5034 22.5982 80.3897C22.5982 80.2761 22.5004 80.183 22.3809 80.183C22.2613 80.183 22.1636 80.2761 22.1636 80.3897ZM24.0108 80.3897C23.9369 80.5034 24.0347 80.5964 24.2281 80.5964C24.4215 80.5964 24.5193 80.5034 24.4454 80.3897C24.3716 80.2761 24.2738 80.183 24.2281 80.183C24.1825 80.183 24.0847 80.2761 24.0108 80.3897ZM25.858 80.3897C25.858 80.5034 25.9558 80.5964 26.0754 80.5964C26.1949 80.5964 26.2927 80.5034 26.2927 80.3897C26.2927 80.2761 26.1949 80.183 26.0754 80.183C25.9558 80.183 25.858 80.2761 25.858 80.3897ZM132.346 81.1132C132.346 81.2837 132.444 81.4232 132.564 81.4232C132.683 81.4232 132.781 81.2837 132.781 81.1132C132.781 80.9426 132.683 80.8031 132.564 80.8031C132.444 80.8031 132.346 80.9426 132.346 81.1132ZM50.9588 81.3835C49.8787 81.7426 49.1218 82.3236 47.8077 83.8027C44.3957 87.6425 43.8817 88.0375 42.2946 88.0375H41.288L41.2675 89.1227C41.2565 89.7196 41.2399 90.5799 41.231 91.0346C41.1782 93.7047 42.0297 97.1322 43.4458 99.9519C46.2236 105.483 50.6389 109.294 56.8266 111.504C59.0761 112.307 64.0362 112.956 64.7443 112.54C64.8606 112.471 64.781 111.921 64.5557 111.236C63.812 108.975 63.6994 108.175 63.6992 105.158C63.6987 102.527 63.6409 102.018 63.2611 101.31C62.5213 99.9306 62.9581 96.8174 64.2951 93.9426L64.7504 92.9641L64.2112 92.0009C63.9148 91.4714 63.6722 90.9786 63.6722 90.9063C63.6722 90.6938 62.3003 88.5884 61.5892 87.7097C61.2293 87.2647 60.7584 86.6216 60.5428 86.2806C59.831 85.1549 56.885 82.6746 55.5226 82.0541C54.1839 81.4441 51.8207 81.097 50.9588 81.3835ZM134.085 81.6299C134.085 81.7436 134.183 81.8366 134.302 81.8366C134.422 81.8366 134.52 81.7436 134.52 81.6299C134.52 81.5162 134.422 81.4232 134.302 81.4232C134.183 81.4232 134.085 81.5162 134.085 81.6299ZM22.1636 82.0433C22.1636 82.157 22.2613 82.25 22.3809 82.25C22.5004 82.25 22.5982 82.157 22.5982 82.0433C22.5982 81.9296 22.5004 81.8366 22.3809 81.8366C22.2613 81.8366 22.1636 81.9296 22.1636 82.0433ZM24.1195 82.0433C24.1195 82.157 24.2173 82.25 24.3368 82.25C24.4563 82.25 24.5541 82.157 24.5541 82.0433C24.5541 81.9296 24.4563 81.8366 24.3368 81.8366C24.2173 81.8366 24.1195 81.9296 24.1195 82.0433ZM25.858 82.0433C25.858 82.157 25.9558 82.25 26.0754 82.25C26.1949 82.25 26.2927 82.157 26.2927 82.0433C26.2927 81.9296 26.1949 81.8366 26.0754 81.8366C25.9558 81.8366 25.858 81.9296 25.858 82.0433ZM72.0694 82.1867C71.8247 82.4195 71.9205 82.6634 72.2565 82.6634C72.4358 82.6634 72.5825 82.576 72.5825 82.4689C72.5825 82.2083 72.243 82.0216 72.0694 82.1867ZM131.912 82.6634C131.912 82.7771 132.009 82.8701 132.129 82.8701C132.248 82.8701 132.346 82.7771 132.346 82.6634C132.346 82.5497 132.248 82.4567 132.129 82.4567C132.009 82.4567 131.912 82.5497 131.912 82.6634ZM133.542 83.0768C133.468 83.1905 133.565 83.2835 133.759 83.2835C133.952 83.2835 134.05 83.1905 133.976 83.0768C133.902 82.9631 133.805 82.8701 133.759 82.8701C133.713 82.8701 133.615 82.9631 133.542 83.0768ZM22.2133 83.7357C22.3476 84.119 22.8155 84.1824 22.8155 83.8174C22.8155 83.6373 22.6608 83.4902 22.4715 83.4902C22.2822 83.4902 22.1659 83.6006 22.2133 83.7357ZM24.1195 83.6969C24.1195 83.8106 24.2173 83.9036 24.3368 83.9036C24.4563 83.9036 24.5541 83.8106 24.5541 83.6969C24.5541 83.5832 24.4563 83.4902 24.3368 83.4902C24.2173 83.4902 24.1195 83.5832 24.1195 83.6969ZM25.858 83.6969C25.858 83.8106 25.9558 83.9036 26.0754 83.9036C26.1949 83.9036 26.2927 83.8106 26.2927 83.6969C26.2927 83.5832 26.1949 83.4902 26.0754 83.4902C25.9558 83.4902 25.858 83.5832 25.858 83.6969ZM70.8439 83.6969C70.8439 83.8106 70.9417 83.9036 71.0612 83.9036C71.1807 83.9036 71.2785 83.8106 71.2785 83.6969C71.2785 83.5832 71.1807 83.4902 71.0612 83.4902C70.9417 83.4902 70.8439 83.5832 70.8439 83.6969ZM99.9652 84.0241C99.9652 84.2041 100.081 84.3147 100.223 84.2696C100.626 84.1419 100.693 83.6969 100.309 83.6969C100.12 83.6969 99.9652 83.8441 99.9652 84.0241ZM131.26 84.2136C131.26 84.3841 131.357 84.5237 131.477 84.5237C131.597 84.5237 131.694 84.3841 131.694 84.2136C131.694 84.0431 131.597 83.9036 131.477 83.9036C131.357 83.9036 131.26 84.0431 131.26 84.2136ZM72.0507 84.7128C71.9807 84.8205 72.0161 84.9629 72.1293 85.0294C72.2426 85.096 72.3923 85.0623 72.4623 84.9546C72.5323 84.8469 72.4969 84.7045 72.3836 84.638C72.2704 84.5714 72.1207 84.6051 72.0507 84.7128ZM133.116 84.7161C133.047 84.8219 133.091 84.9668 133.212 85.0383C133.334 85.1096 133.433 85.023 133.433 84.8459C133.433 84.4827 133.303 84.4294 133.116 84.7161ZM25.9761 85.1295C25.9072 85.2353 25.9504 85.3802 26.0719 85.4517C26.1934 85.523 26.2927 85.4364 26.2927 85.2593C26.2927 84.8961 26.1623 84.8428 25.9761 85.1295ZM24.1195 85.3504C24.1195 85.4641 24.2662 85.5571 24.4454 85.5571C24.6247 85.5571 24.7714 85.4641 24.7714 85.3504C24.7714 85.2368 24.6247 85.1438 24.4454 85.1438C24.2662 85.1438 24.1195 85.2368 24.1195 85.3504ZM99.7478 85.6727C99.7478 85.8498 99.8472 85.9364 99.9686 85.8651C100.09 85.7936 100.133 85.6487 100.064 85.5429C99.8782 85.2562 99.7478 85.3095 99.7478 85.6727ZM130.825 85.855C130.825 86.0321 130.923 86.1772 131.042 86.1772C131.162 86.1772 131.26 86.0898 131.26 85.9827C131.26 85.8757 131.162 85.7308 131.042 85.6605C130.923 85.5902 130.825 85.6779 130.825 85.855ZM70.8439 86.0739C70.8439 86.2444 70.9417 86.3839 71.0612 86.3839C71.1807 86.3839 71.2785 86.2444 71.2785 86.0739C71.2785 85.9034 71.1807 85.7639 71.0612 85.7639C70.9417 85.7639 70.8439 85.9034 70.8439 86.0739ZM101.269 86.0739C101.269 86.2444 101.367 86.3839 101.486 86.3839C101.606 86.3839 101.704 86.2444 101.704 86.0739C101.704 85.9034 101.606 85.7639 101.486 85.7639C101.367 85.7639 101.269 85.9034 101.269 86.0739ZM132.564 86.3839C132.564 86.4976 132.661 86.5906 132.781 86.5906C132.9 86.5906 132.998 86.4976 132.998 86.3839C132.998 86.2703 132.9 86.1772 132.781 86.1772C132.661 86.1772 132.564 86.2703 132.564 86.3839ZM24.3368 86.8885C24.3368 87.0656 24.4346 87.2107 24.5541 87.2107C24.6736 87.2107 24.7714 87.1233 24.7714 87.0162C24.7714 86.9092 24.6736 86.7643 24.5541 86.694C24.4346 86.6237 24.3368 86.7113 24.3368 86.8885ZM26.0754 86.8885C26.0754 87.0656 26.1732 87.2107 26.2927 87.2107C26.4122 87.2107 26.51 87.1233 26.51 87.0162C26.51 86.9092 26.4122 86.7643 26.2927 86.694C26.1732 86.6237 26.0754 86.7113 26.0754 86.8885ZM27.8139 86.7973C27.8139 86.911 27.9117 87.004 28.0313 87.004C28.1508 87.004 28.2486 86.911 28.2486 86.7973C28.2486 86.6836 28.1508 86.5906 28.0313 86.5906C27.9117 86.5906 27.8139 86.6836 27.8139 86.7973ZM128.652 87.004C128.652 87.1177 128.75 87.2107 128.869 87.2107C128.989 87.2107 129.086 87.1177 129.086 87.004C129.086 86.8903 128.989 86.7973 128.869 86.7973C128.75 86.7973 128.652 86.8903 128.652 87.004ZM130.39 87.4174C130.39 87.5311 130.488 87.6241 130.608 87.6241C130.727 87.6241 130.825 87.5311 130.825 87.4174C130.825 87.3037 130.727 87.2107 130.608 87.2107C130.488 87.2107 130.39 87.3037 130.39 87.4174ZM100.955 87.6065C100.885 87.7142 100.92 87.8567 101.033 87.9232C101.147 87.9898 101.296 87.9561 101.366 87.8484C101.436 87.7407 101.401 87.5983 101.288 87.5317C101.174 87.4652 101.025 87.4989 100.955 87.6065ZM132.129 87.8308C132.129 87.9445 132.227 88.0375 132.346 88.0375C132.466 88.0375 132.564 87.9445 132.564 87.8308C132.564 87.7171 132.466 87.6241 132.346 87.6241C132.227 87.6241 132.129 87.7171 132.129 87.8308ZM47.373 88.0375C47.373 88.1512 47.4708 88.2442 47.5903 88.2442C47.7099 88.2442 47.8077 88.1512 47.8077 88.0375C47.8077 87.9238 47.7099 87.8308 47.5903 87.8308C47.4708 87.8308 47.373 87.9238 47.373 88.0375ZM45.5258 88.2442C45.5997 88.3579 45.752 88.4509 45.8646 88.4509C45.9772 88.4509 46.0691 88.3579 46.0691 88.2442C46.0691 88.1305 45.9165 88.0375 45.7303 88.0375C45.544 88.0375 45.4519 88.1305 45.5258 88.2442ZM26.0754 88.4509C26.0754 88.5646 26.2279 88.6576 26.4142 88.6576C26.6004 88.6576 26.6926 88.5646 26.6187 88.4509C26.5448 88.3372 26.3924 88.2442 26.2799 88.2442C26.1673 88.2442 26.0754 88.3372 26.0754 88.4509ZM27.8557 88.4664C27.8985 88.5886 28.0263 88.6886 28.1399 88.6886C28.2536 88.6886 28.3814 88.5886 28.4242 88.4664C28.467 88.3442 28.3392 88.2442 28.1399 88.2442C27.9406 88.2442 27.8129 88.3442 27.8557 88.4664ZM128 88.4509C128 88.5646 128.098 88.6576 128.217 88.6576C128.337 88.6576 128.434 88.5646 128.434 88.4509C128.434 88.3372 128.337 88.2442 128.217 88.2442C128.098 88.2442 128 88.3372 128 88.4509ZM129.956 88.9555C129.956 89.1326 130.054 89.2777 130.173 89.2777C130.293 89.2777 130.39 89.1903 130.39 89.0832C130.39 88.9761 130.293 88.8312 130.173 88.761C130.054 88.6907 129.956 88.7783 129.956 88.9555ZM131.694 89.4844C131.694 89.5981 131.792 89.6911 131.912 89.6911C132.031 89.6911 132.129 89.5981 132.129 89.4844C132.129 89.3707 132.031 89.2777 131.912 89.2777C131.792 89.2777 131.694 89.3707 131.694 89.4844ZM45.6344 89.6911C45.6344 89.8048 45.7322 89.8978 45.8518 89.8978C45.9713 89.8978 46.0691 89.8048 46.0691 89.6911C46.0691 89.5774 45.9713 89.4844 45.8518 89.4844C45.7322 89.4844 45.6344 89.5774 45.6344 89.6911ZM47.4817 89.6911C47.4078 89.8048 47.451 89.8978 47.5775 89.8978C47.704 89.8978 47.8077 89.8048 47.8077 89.6911C47.8077 89.5774 47.7646 89.4844 47.7118 89.4844C47.659 89.4844 47.5556 89.5774 47.4817 89.6911ZM28.0313 90.1045C28.0313 90.2182 28.1291 90.3112 28.2486 90.3112C28.3681 90.3112 28.4659 90.2182 28.4659 90.1045C28.4659 89.9908 28.3681 89.8978 28.2486 89.8978C28.1291 89.8978 28.0313 89.9908 28.0313 90.1045ZM29.7699 90.1045C29.7699 90.2182 29.8677 90.3112 29.9872 90.3112C30.1067 90.3112 30.2045 90.2182 30.2045 90.1045C30.2045 89.9908 30.1067 89.8978 29.9872 89.8978C29.8677 89.8978 29.7699 89.9908 29.7699 90.1045ZM127.565 90.1045C127.565 90.2182 127.663 90.3112 127.783 90.3112C127.902 90.3112 128 90.2182 128 90.1045C128 89.9908 127.902 89.8978 127.783 89.8978C127.663 89.8978 127.565 89.9908 127.565 90.1045ZM129.304 90.5179C129.304 90.6316 129.45 90.7246 129.63 90.7246C129.809 90.7246 129.956 90.6316 129.956 90.5179C129.956 90.4042 129.809 90.3112 129.63 90.3112C129.45 90.3112 129.304 90.4042 129.304 90.5179ZM131.042 91.0346C131.042 91.2051 131.14 91.3447 131.26 91.3447C131.379 91.3447 131.477 91.2051 131.477 91.0346C131.477 90.8641 131.379 90.7246 131.26 90.7246C131.14 90.7246 131.042 90.8641 131.042 91.0346ZM47.5903 91.3447C47.5903 91.4583 47.6881 91.5514 47.8077 91.5514C47.9272 91.5514 48.025 91.4583 48.025 91.3447C48.025 91.231 47.9272 91.138 47.8077 91.138C47.6881 91.138 47.5903 91.231 47.5903 91.3447ZM45.6344 91.5514C45.6344 91.665 45.7322 91.7581 45.8518 91.7581C45.9713 91.7581 46.0691 91.665 46.0691 91.5514C46.0691 91.4377 45.9713 91.3447 45.8518 91.3447C45.7322 91.3447 45.6344 91.4377 45.6344 91.5514ZM87.2633 91.6192C86.7902 93.2446 86.6946 93.6739 86.7865 93.7616C87.0303 93.9933 91.7964 95.0613 91.9314 94.9143C92.122 94.7066 92.6614 92.7979 92.5518 92.7186C92.5055 92.6851 91.3124 92.3695 89.9007 92.0173C88.0987 91.5677 87.3128 91.449 87.2633 91.6192ZM127.131 91.5514C127.131 91.665 127.228 91.7581 127.348 91.7581C127.467 91.7581 127.565 91.665 127.565 91.5514C127.565 91.4377 127.467 91.3447 127.348 91.3447C127.228 91.3447 127.131 91.4377 127.131 91.5514ZM29.9872 91.7581C29.9872 91.8717 30.085 91.9647 30.2045 91.9647C30.324 91.9647 30.4218 91.8717 30.4218 91.7581C30.4218 91.6444 30.324 91.5514 30.2045 91.5514C30.085 91.5514 29.9872 91.6444 29.9872 91.7581ZM31.7258 91.7581C31.7258 91.8717 31.8236 91.9647 31.9431 91.9647C32.0626 91.9647 32.1604 91.8717 32.1604 91.7581C32.1604 91.6444 32.0626 91.5514 31.9431 91.5514C31.8236 91.5514 31.7258 91.6444 31.7258 91.7581ZM128.79 92.0693C128.714 92.2568 128.791 92.3781 128.985 92.3781C129.336 92.3781 129.416 92.0551 129.109 91.8748C129.002 91.8118 128.859 91.8994 128.79 92.0693ZM124.957 92.5848C124.957 92.6985 125.055 92.7915 125.175 92.7915C125.294 92.7915 125.392 92.6985 125.392 92.5848C125.392 92.4712 125.294 92.3781 125.175 92.3781C125.055 92.3781 124.957 92.4712 124.957 92.5848ZM45.7524 92.984C45.6836 93.0898 45.7268 93.2347 45.8483 93.3062C45.9698 93.3775 46.0691 93.2909 46.0691 93.1138C46.0691 92.7506 45.9387 92.6973 45.7524 92.984ZM47.5903 92.9982C47.5903 93.1119 47.6881 93.2049 47.8077 93.2049C47.9272 93.2049 48.025 93.1119 48.025 92.9982C48.025 92.8845 47.9272 92.7915 47.8077 92.7915C47.6881 92.7915 47.5903 92.8845 47.5903 92.9982ZM31.7258 93.3083C31.7258 93.4788 31.8236 93.6183 31.9431 93.6183C32.0626 93.6183 32.1604 93.4788 32.1604 93.3083C32.1604 93.1377 32.0626 92.9982 31.9431 92.9982C31.8236 92.9982 31.7258 93.1377 31.7258 93.3083ZM33.6032 93.1417C33.3585 93.3744 33.4543 93.6183 33.7903 93.6183C33.9696 93.6183 34.1163 93.5309 34.1163 93.4238C34.1163 93.1632 33.7769 92.9765 33.6032 93.1417ZM126.479 93.2049C126.479 93.3186 126.625 93.4116 126.805 93.4116C126.984 93.4116 127.131 93.3186 127.131 93.2049C127.131 93.0912 126.984 92.9982 126.805 92.9982C126.625 92.9982 126.479 93.0912 126.479 93.2049ZM128.217 93.6183C128.217 93.732 128.309 93.825 128.422 93.825C128.534 93.825 128.687 93.732 128.76 93.6183C128.834 93.5046 128.742 93.4116 128.556 93.4116C128.37 93.4116 128.217 93.5046 128.217 93.6183ZM124.305 94.2384C124.305 94.3521 124.403 94.4451 124.523 94.4451C124.642 94.4451 124.74 94.3521 124.74 94.2384C124.74 94.1247 124.642 94.0317 124.523 94.0317C124.403 94.0317 124.305 94.1247 124.305 94.2384ZM45.6344 94.6518C45.6344 94.7655 45.7322 94.8585 45.8518 94.8585C45.9713 94.8585 46.0691 94.7655 46.0691 94.6518C46.0691 94.5381 45.9713 94.4451 45.8518 94.4451C45.7322 94.4451 45.6344 94.5381 45.6344 94.6518ZM47.5903 94.6518C47.5903 94.7655 47.6881 94.8585 47.8077 94.8585C47.9272 94.8585 48.025 94.7655 48.025 94.6518C48.025 94.5381 47.9272 94.4451 47.8077 94.4451C47.6881 94.4451 47.5903 94.5381 47.5903 94.6518ZM49.3289 94.6518C49.3289 94.7655 49.4815 94.8585 49.6677 94.8585C49.854 94.8585 49.9461 94.7655 49.8722 94.6518C49.7983 94.5381 49.646 94.4451 49.5334 94.4451C49.4208 94.4451 49.3289 94.5381 49.3289 94.6518ZM126.044 94.6518C126.044 94.7655 126.142 94.8585 126.261 94.8585C126.381 94.8585 126.479 94.7655 126.479 94.6518C126.479 94.5381 126.381 94.4451 126.261 94.4451C126.142 94.4451 126.044 94.5381 126.044 94.6518ZM35.4202 94.8585C35.4202 94.9722 35.518 95.0652 35.6376 95.0652C35.7571 95.0652 35.8549 94.9722 35.8549 94.8585C35.8549 94.7448 35.7571 94.6518 35.6376 94.6518C35.518 94.6518 35.4202 94.7448 35.4202 94.8585ZM37.1588 94.8585C37.1588 94.9722 37.2566 95.0652 37.3762 95.0652C37.4957 95.0652 37.5935 94.9722 37.5935 94.8585C37.5935 94.7448 37.4957 94.6518 37.3762 94.6518C37.2566 94.6518 37.1588 94.7448 37.1588 94.8585ZM122.066 95.1973C121.892 95.3624 122.088 95.6853 122.362 95.6853C122.475 95.6853 122.567 95.5458 122.567 95.3752C122.567 95.0557 122.31 94.9645 122.066 95.1973ZM123.871 95.6853C123.871 95.799 123.968 95.892 124.088 95.892C124.208 95.892 124.305 95.799 124.305 95.6853C124.305 95.5716 124.208 95.4786 124.088 95.4786C123.968 95.4786 123.871 95.5716 123.871 95.6853ZM74.1037 96.0028C72.9454 96.3657 72.6036 96.6303 71.1762 98.269C68.148 101.746 67.2813 102.418 65.5445 102.639L64.4831 102.774L64.5996 105.585C64.8125 110.725 66.198 114.518 69.2609 118.345C75.9603 126.715 87.8344 129.521 97.6833 125.062C100.274 123.889 101.681 122.96 103.877 120.972C108.814 116.503 111.2 110.904 111.068 104.094C111.05 103.157 111.02 103.108 110.56 103.252C109.693 103.524 108.492 103.368 107.692 102.88C107.263 102.617 106.451 101.761 105.889 100.975C104.621 99.206 103.657 98.7227 101.378 98.7124C99.6837 98.7047 98.9798 98.9697 97.8306 100.047C96.827 100.988 96.5597 101.557 95.8208 104.32C95.0324 107.269 94.6425 108.017 93.4898 108.792C92.8142 109.246 92.3602 109.39 91.6356 109.379C89.7508 109.352 88.5955 108.337 86.8423 105.167C85.5097 102.757 82.6847 99.1663 81.2063 98.003C78.8275 96.1311 76.124 95.3699 74.1037 96.0028ZM45.8518 96.3176C45.8518 96.4379 45.9495 96.479 46.0691 96.4087C46.1886 96.3385 46.2864 96.2401 46.2864 96.1898C46.2864 96.1396 46.1886 96.0987 46.0691 96.0987C45.9495 96.0987 45.8518 96.1973 45.8518 96.3176ZM47.5903 96.3054C47.5903 96.419 47.6881 96.5121 47.8077 96.5121C47.9272 96.5121 48.025 96.419 48.025 96.3054C48.025 96.1917 47.9272 96.0987 47.8077 96.0987C47.6881 96.0987 47.5903 96.1917 47.5903 96.3054ZM49.4376 96.3054C49.5115 96.419 49.6638 96.5121 49.7764 96.5121C49.889 96.5121 49.9809 96.419 49.9809 96.3054C49.9809 96.1917 49.8283 96.0987 49.6421 96.0987C49.4558 96.0987 49.3637 96.1917 49.4376 96.3054ZM119.742 96.4259C119.742 96.7909 120.209 96.7274 120.344 96.3442C120.391 96.2091 120.275 96.0987 120.086 96.0987C119.897 96.0987 119.742 96.2458 119.742 96.4259ZM121.598 96.7045C121.529 96.8103 121.572 96.9552 121.694 97.0267C121.815 97.0981 121.915 97.0115 121.915 96.8343C121.915 96.4711 121.784 96.4178 121.598 96.7045ZM117.568 97.4422C117.568 97.6127 117.666 97.7523 117.786 97.7523C117.905 97.7523 118.003 97.6127 118.003 97.4422C118.003 97.2717 117.905 97.1322 117.786 97.1322C117.666 97.1322 117.568 97.2717 117.568 97.4422ZM45.8518 97.959C45.8518 98.0726 45.9495 98.1657 46.0691 98.1657C46.1886 98.1657 46.2864 98.0726 46.2864 97.959C46.2864 97.8453 46.1886 97.7523 46.0691 97.7523C45.9495 97.7523 45.8518 97.8453 45.8518 97.959ZM47.5903 97.959C47.5903 98.0726 47.6881 98.1657 47.8077 98.1657C47.9272 98.1657 48.025 98.0726 48.025 97.959C48.025 97.8453 47.9272 97.7523 47.8077 97.7523C47.6881 97.7523 47.5903 97.8453 47.5903 97.959ZM49.4376 97.959C49.5115 98.0726 49.6638 98.1657 49.7764 98.1657C49.889 98.1657 49.9809 98.0726 49.9809 97.959C49.9809 97.8453 49.8283 97.7523 49.6421 97.7523C49.4558 97.7523 49.3637 97.8453 49.4376 97.959ZM113.657 97.959C113.657 98.0726 113.754 98.1657 113.874 98.1657C113.993 98.1657 114.091 98.0726 114.091 97.959C114.091 97.8453 113.993 97.7523 113.874 97.7523C113.754 97.7523 113.657 97.8453 113.657 97.959ZM119.307 97.959C119.307 98.0726 119.405 98.1657 119.524 98.1657C119.644 98.1657 119.742 98.0726 119.742 97.959C119.742 97.8453 119.644 97.7523 119.524 97.7523C119.405 97.7523 119.307 97.8453 119.307 97.959ZM115.317 98.3091C115.072 98.5418 115.168 98.7857 115.504 98.7857C115.683 98.7857 115.83 98.6983 115.83 98.5912C115.83 98.3306 115.49 98.1439 115.317 98.3091ZM49.5462 99.4058C49.5462 99.5195 49.6499 99.6125 49.7764 99.6125C49.9029 99.6125 49.9461 99.5195 49.8722 99.4058C49.7983 99.2921 49.6949 99.1991 49.6421 99.1991C49.5893 99.1991 49.5462 99.2921 49.5462 99.4058ZM47.5903 99.6125C47.5903 99.7262 47.737 99.8192 47.9163 99.8192C48.0956 99.8192 48.2423 99.7262 48.2423 99.6125C48.2423 99.4988 48.0956 99.4058 47.9163 99.4058C47.737 99.4058 47.5903 99.4988 47.5903 99.6125ZM47.8077 101.151C47.8077 101.328 47.9055 101.473 48.025 101.473C48.1445 101.473 48.2423 101.385 48.2423 101.278C48.2423 101.171 48.1445 101.026 48.025 100.956C47.9055 100.886 47.8077 100.973 47.8077 101.151ZM49.5462 101.163C49.5462 101.352 49.6514 101.474 49.7799 101.433C49.9083 101.392 50.0135 101.271 50.0135 101.163C50.0135 101.055 49.9083 100.933 49.7799 100.892C49.6514 100.852 49.5462 100.973 49.5462 101.163ZM51.2848 101.059C51.2848 101.173 51.4374 101.266 51.6236 101.266C51.8099 101.266 51.902 101.173 51.8281 101.059C51.7542 100.946 51.6019 100.853 51.4893 100.853C51.3767 100.853 51.2848 100.946 51.2848 101.059ZM69.7573 102.391C69.7573 102.568 69.8551 102.713 69.9746 102.713C70.0941 102.713 70.1919 102.626 70.1919 102.518C70.1919 102.411 70.0941 102.267 69.9746 102.196C69.8551 102.126 69.7573 102.214 69.7573 102.391ZM68.0187 102.506C68.0187 102.62 68.1165 102.713 68.236 102.713C68.3556 102.713 68.4533 102.62 68.4533 102.506C68.4533 102.393 68.3556 102.3 68.236 102.3C68.1165 102.3 68.0187 102.393 68.0187 102.506ZM49.7636 102.713C49.7636 102.827 49.8614 102.92 49.9809 102.92C50.1004 102.92 50.1982 102.827 50.1982 102.713C50.1982 102.599 50.1004 102.506 49.9809 102.506C49.8614 102.506 49.7636 102.599 49.7636 102.713ZM51.5021 102.816C51.5021 102.987 51.5999 103.126 51.7195 103.126C51.839 103.126 51.9368 102.987 51.9368 102.816C51.9368 102.646 51.839 102.506 51.7195 102.506C51.5999 102.506 51.5021 102.646 51.5021 102.816ZM68.0187 104.16C68.0187 104.274 68.1165 104.367 68.236 104.367C68.3556 104.367 68.4533 104.274 68.4533 104.16C68.4533 104.046 68.3556 103.953 68.236 103.953C68.1165 103.953 68.0187 104.046 68.0187 104.16ZM69.7573 104.16C69.7573 104.274 69.8551 104.367 69.9746 104.367C70.0941 104.367 70.1919 104.274 70.1919 104.16C70.1919 104.046 70.0941 103.953 69.9746 103.953C69.8551 103.953 69.7573 104.046 69.7573 104.16ZM51.5021 104.367C51.5021 104.48 51.6547 104.573 51.841 104.573C52.0272 104.573 52.1193 104.48 52.0455 104.367C51.9716 104.253 51.8192 104.16 51.7066 104.16C51.5941 104.16 51.5021 104.253 51.5021 104.367ZM53.2407 104.367C53.2407 104.48 53.3874 104.573 53.5667 104.573C53.746 104.573 53.8927 104.48 53.8927 104.367C53.8927 104.253 53.746 104.16 53.5667 104.16C53.3874 104.16 53.2407 104.253 53.2407 104.367ZM69.9746 105.722C69.9746 105.899 70.0739 105.986 70.1954 105.915C70.3169 105.843 70.3601 105.698 70.2912 105.592C70.105 105.306 69.9746 105.359 69.9746 105.722ZM55.1966 105.905C55.1966 106.082 55.2944 106.227 55.414 106.227C55.5335 106.227 55.6313 106.139 55.6313 106.032C55.6313 105.925 55.5335 105.78 55.414 105.71C55.2944 105.64 55.1966 105.727 55.1966 105.905ZM68.0187 105.813C68.0187 105.927 68.1165 106.02 68.236 106.02C68.3556 106.02 68.4533 105.927 68.4533 105.813C68.4533 105.7 68.3556 105.607 68.236 105.607C68.1165 105.607 68.0187 105.7 68.0187 105.813ZM53.4581 106.02C53.4581 106.134 53.5558 106.227 53.6754 106.227C53.7949 106.227 53.8927 106.134 53.8927 106.02C53.8927 105.906 53.7949 105.813 53.6754 105.813C53.5558 105.813 53.4581 105.906 53.4581 106.02ZM55.414 107.583C55.414 107.76 55.5118 107.847 55.6313 107.777C55.7508 107.707 55.8486 107.562 55.8486 107.455C55.8486 107.348 55.7508 107.26 55.6313 107.26C55.5118 107.26 55.414 107.405 55.414 107.583ZM57.1525 107.57C57.1525 107.741 57.2503 107.88 57.3699 107.88C57.4894 107.88 57.5872 107.741 57.5872 107.57C57.5872 107.4 57.4894 107.26 57.3699 107.26C57.2503 107.26 57.1525 107.4 57.1525 107.57ZM68.0187 107.467C68.0187 107.581 68.1165 107.674 68.236 107.674C68.3556 107.674 68.4533 107.581 68.4533 107.467C68.4533 107.353 68.3556 107.26 68.236 107.26C68.1165 107.26 68.0187 107.353 68.0187 107.467ZM69.8659 107.467C69.9398 107.581 70.0922 107.674 70.2048 107.674C70.3173 107.674 70.4092 107.581 70.4092 107.467C70.4092 107.353 70.2567 107.26 70.0704 107.26C69.8842 107.26 69.7921 107.353 69.8659 107.467ZM69.9746 109.005C69.9746 109.182 70.0724 109.327 70.1919 109.327C70.3115 109.327 70.4092 109.24 70.4092 109.133C70.4092 109.026 70.3115 108.881 70.1919 108.811C70.0724 108.74 69.9746 108.828 69.9746 109.005ZM58.8911 109.121C58.8911 109.234 59.0378 109.327 59.2171 109.327C59.3964 109.327 59.5431 109.234 59.5431 109.121C59.5431 109.007 59.3964 108.914 59.2171 108.914C59.0378 108.914 58.8911 109.007 58.8911 109.121ZM60.847 109.121C60.847 109.234 60.9448 109.327 61.0644 109.327C61.1839 109.327 61.2817 109.234 61.2817 109.121C61.2817 109.007 61.1839 108.914 61.0644 108.914C60.9448 108.914 60.847 109.007 60.847 109.121ZM68.0187 109.121C68.0187 109.234 68.1165 109.327 68.236 109.327C68.3556 109.327 68.4533 109.234 68.4533 109.121C68.4533 109.007 68.3556 108.914 68.236 108.914C68.1165 108.914 68.0187 109.007 68.0187 109.121ZM71.7132 109.121C71.7132 109.234 71.811 109.327 71.9305 109.327C72.05 109.327 72.1478 109.234 72.1478 109.121C72.1478 109.007 72.05 108.914 71.9305 108.914C71.811 108.914 71.7132 109.007 71.7132 109.121ZM69.9746 110.683C69.9746 110.86 70.0724 110.948 70.1919 110.878C70.3115 110.807 70.4092 110.662 70.4092 110.555C70.4092 110.448 70.3115 110.361 70.1919 110.361C70.0724 110.361 69.9746 110.506 69.9746 110.683ZM71.8312 110.553C71.7623 110.659 71.8055 110.804 71.927 110.875C72.0485 110.947 72.1478 110.86 72.1478 110.683C72.1478 110.32 72.0174 110.267 71.8312 110.553ZM68.1295 110.777C68.2047 110.893 68.3571 110.934 68.4683 110.869C68.7698 110.691 68.7137 110.567 68.3318 110.567C68.1456 110.567 68.0546 110.662 68.1295 110.777ZM68.236 112.324C68.236 112.495 68.3338 112.634 68.4533 112.634C68.5729 112.634 68.6707 112.495 68.6707 112.324C68.6707 112.154 68.5729 112.014 68.4533 112.014C68.3338 112.014 68.236 112.154 68.236 112.324ZM69.9746 112.221C69.9746 112.335 70.0724 112.428 70.1919 112.428C70.3115 112.428 70.4092 112.335 70.4092 112.221C70.4092 112.107 70.3115 112.014 70.1919 112.014C70.0724 112.014 69.9746 112.107 69.9746 112.221ZM71.8218 112.221C71.748 112.335 71.7853 112.428 71.9049 112.428C72.0244 112.428 72.1826 112.335 72.2565 112.221C72.3304 112.107 72.293 112.014 72.1735 112.014C72.0539 112.014 71.8957 112.107 71.8218 112.221ZM70.0163 113.89C70.0591 114.012 70.1869 114.112 70.3006 114.112C70.4143 114.112 70.542 114.012 70.5848 113.89C70.6277 113.768 70.4999 113.668 70.3006 113.668C70.1013 113.668 69.9735 113.768 70.0163 113.89ZM71.8218 113.875C71.8957 113.988 72.0481 114.081 72.1607 114.081C72.2732 114.081 72.3652 113.988 72.3652 113.875C72.3652 113.761 72.2126 113.668 72.0263 113.668C71.8401 113.668 71.748 113.761 71.8218 113.875ZM70.1919 115.528C70.1919 115.642 70.2897 115.735 70.4092 115.735C70.5288 115.735 70.6266 115.642 70.6266 115.528C70.6266 115.414 70.5288 115.321 70.4092 115.321C70.2897 115.321 70.1919 115.414 70.1919 115.528ZM71.9305 115.528C71.9305 115.642 72.0283 115.735 72.1478 115.735C72.2674 115.735 72.3652 115.642 72.3652 115.528C72.3652 115.414 72.2674 115.321 72.1478 115.321C72.0283 115.321 71.9305 115.414 71.9305 115.528ZM73.6691 115.528C73.6691 115.642 73.7669 115.735 73.8864 115.735C74.0059 115.735 74.1037 115.642 74.1037 115.528C74.1037 115.414 74.0059 115.321 73.8864 115.321C73.7669 115.321 73.6691 115.414 73.6691 115.528ZM72.1478 117.194C72.1478 117.314 72.2456 117.355 72.3652 117.285C72.4847 117.215 72.5825 117.116 72.5825 117.066C72.5825 117.016 72.4847 116.975 72.3652 116.975C72.2456 116.975 72.1478 117.074 72.1478 117.194ZM73.8864 117.182C73.8864 117.295 73.9842 117.388 74.1037 117.388C74.2233 117.388 74.3211 117.295 74.3211 117.182C74.3211 117.068 74.2233 116.975 74.1037 116.975C73.9842 116.975 73.8864 117.068 73.8864 117.182ZM73.8864 118.629C73.8864 118.742 73.9842 118.835 74.1037 118.835C74.2233 118.835 74.3211 118.742 74.3211 118.629C74.3211 118.515 74.2233 118.422 74.1037 118.422C73.9842 118.422 73.8864 118.515 73.8864 118.629ZM75.625 118.732C75.625 118.922 75.7302 119.043 75.8586 119.002C75.9871 118.962 76.0922 118.84 76.0922 118.732C76.0922 118.624 75.9871 118.502 75.8586 118.462C75.7302 118.421 75.625 118.542 75.625 118.732ZM75.8423 120.282C75.8423 120.396 75.9401 120.489 76.0596 120.489C76.1792 120.489 76.277 120.396 76.277 120.282C76.277 120.169 76.1792 120.076 76.0596 120.076C75.9401 120.076 75.8423 120.169 75.8423 120.282ZM77.5809 120.282C77.5809 120.396 77.6787 120.489 77.7982 120.489C77.9178 120.489 78.0155 120.396 78.0155 120.282C78.0155 120.169 77.9178 120.076 77.7982 120.076C77.6787 120.076 77.5809 120.169 77.5809 120.282ZM77.6896 121.936C77.6157 122.049 77.6531 122.142 77.7726 122.142C77.8921 122.142 78.0503 122.049 78.1242 121.936C78.1981 121.822 78.1607 121.729 78.0412 121.729C77.9217 121.729 77.7634 121.822 77.6896 121.936ZM79.4281 121.936C79.3543 122.049 79.4464 122.142 79.6326 122.142C79.8189 122.142 79.9715 122.049 79.9715 121.936C79.9715 121.822 79.8795 121.729 79.767 121.729C79.6544 121.729 79.502 121.822 79.4281 121.936ZM81.2754 123.469C81.2754 123.649 81.4301 123.796 81.6194 123.796C82.0032 123.796 81.9365 123.351 81.5336 123.223C81.3914 123.178 81.2754 123.289 81.2754 123.469ZM83.014 123.383C83.014 123.496 83.1607 123.589 83.34 123.589C83.5192 123.589 83.6659 123.496 83.6659 123.383C83.6659 123.269 83.5192 123.176 83.34 123.176C83.1607 123.176 83.014 123.269 83.014 123.383Z" fill="#201B19"></path> <path fill-rule="evenodd" clip-rule="evenodd" d="M95.0709 6.88459C95.4934 6.96736 95.7171 7.33898 96.2202 8.79466C97.3278 12.0011 98.5483 13.1257 101.918 14.0443C105.339 14.9767 105.325 16.8057 101.885 18.5163C100.96 18.9764 99.204 20.1059 97.9823 21.0267C95.8448 22.6375 95.7262 22.6956 94.8303 22.5658C93.5176 22.3755 88.9081 18.7866 87.9636 17.2193C87.0834 15.7589 86.311 13.5704 86.3391 12.616C86.3689 11.6056 87.2271 10.8268 89.3303 9.90189C90.3319 9.46141 91.546 8.78578 92.0283 8.40041C93.3694 7.32967 94.4912 6.77068 95.0709 6.88459ZM97.5357 12.7844C96.5474 11.8479 96.2736 11.3883 95.6825 9.67333L94.9889 7.66088L93.9795 8.18004C93.4245 8.46564 92.4159 9.08775 91.7386 9.56206C91.0613 10.0366 89.9291 10.6268 89.2225 10.8737C88.2874 11.2003 87.8036 11.5334 87.4438 12.0976C86.9572 12.8605 86.9633 12.9051 87.8287 14.9335C88.5185 16.5504 88.9728 17.2462 89.9386 18.1647C91.6327 19.7759 93.8383 21.3571 94.7697 21.6281C95.5239 21.8475 95.605 21.8094 97.5348 20.3212C98.6282 19.4779 100.277 18.409 101.199 17.9458C103.201 16.9394 103.58 16.6419 103.599 16.0609C103.614 15.5946 102.58 15.0792 100.089 14.3124C99.2308 14.0479 98.2494 13.4608 97.5357 12.7844Z" fill="#201B19"></path> <path fill-rule="evenodd" clip-rule="evenodd" d="M19.3531 28.455C19.4456 28.1212 19.754 27.9654 20.9385 27.6544C23.5475 26.9699 24.5155 26.0621 25.4575 23.4166C26.4136 20.7311 27.8607 20.8584 28.9957 23.7278C29.301 24.4994 30.0833 25.9809 30.7343 27.0199C31.8733 28.8378 31.9117 28.9367 31.7519 29.6474C31.5176 30.6886 28.3827 34.159 27.0817 34.817C25.8695 35.4303 24.0877 35.9107 23.334 35.8273C22.536 35.739 21.9741 35.0007 21.3759 33.254C21.0911 32.4222 20.6336 31.4048 20.3592 30.9932C19.597 29.8488 19.226 28.9129 19.3531 28.455ZM24.1808 26.853C23.3764 27.5864 22.9951 27.7769 21.5998 28.1419L19.9625 28.5702L20.3091 29.4133C20.4998 29.8769 20.9281 30.726 21.2604 31.2997C21.5929 31.8734 21.988 32.8197 22.1384 33.4024C22.3374 34.1736 22.5702 34.5831 22.9939 34.9077C23.5669 35.3469 23.6026 35.3448 25.2635 34.7796C26.5875 34.3291 27.1673 34.0089 27.956 33.2924C29.3394 32.0356 30.7318 30.3664 31.0057 29.6363C31.2275 29.045 31.2024 28.9775 30.1473 27.3341C29.5493 26.4029 28.8082 25.0115 28.5003 24.2424C27.8311 22.5713 27.6198 22.2483 27.1611 22.1962C26.7929 22.1543 26.3189 22.9515 25.5532 24.901C25.2891 25.5733 24.7617 26.3234 24.1808 26.853Z" fill="#201B19"></path> <path d="M1.59266 28.1256C0.137406 28.1256 -0.163458 26.9503 0.929381 25.5357C2.07818 24.0487 3.40446 24.6028 3.06923 26.4296C2.84192 27.6667 2.44247 28.1256 1.59266 28.1256Z" fill="#201B19"></path> <path d="M141.741 52.2332C142.906 52.2332 143.146 51.058 142.272 49.6433C141.353 48.1563 140.292 48.7104 140.56 50.5373C140.742 51.7743 141.062 52.2332 141.741 52.2332Z" fill="#201B19"></path> <path d="M111.053 32.7175C109.598 32.7175 109.297 33.6968 110.39 34.8757C111.539 36.1149 112.865 35.6531 112.53 34.1308C112.303 33.0999 111.903 32.7175 111.053 32.7175Z" fill="#201B19"></path> <path d="M133.904 12.0609C133.879 9.74335 134.11 8.45589 134.651 7.90028C135.45 7.08053 136.903 7.27187 137.615 8.29012C138.293 9.2619 138.117 14.5782 137.372 15.6263C136.762 16.483 136.469 16.5388 135.302 16.0206C134.04 15.4608 133.939 15.1736 133.904 12.0609Z" fill="#201B19"></path> <path d="M139.047 19.8732C137.948 19.3922 137.811 17.1311 138.846 16.535C140.176 15.7687 145.972 16.4619 146.614 17.4643C147.724 19.1962 146.419 20.1985 143.005 20.2374C141.33 20.2567 139.548 20.0924 139.047 19.8732Z" fill="#201B19"></path> <path d="M125.563 19.8257C125.078 19.5397 125.021 17.3546 125.487 16.8774C125.675 16.6843 127.536 16.5073 129.622 16.4839C133.294 16.4428 133.426 16.485 133.775 17.8196C134.328 19.9288 132.97 20.659 129.112 20.3276C127.375 20.178 125.778 19.9523 125.563 19.8257Z" fill="#201B19"></path> <path d="M134.048 25.0693C134.022 22.7517 134.254 21.4643 134.795 20.9087C135.594 20.0889 137.047 20.2803 137.759 21.2985C138.437 22.2703 138.261 27.5866 137.516 28.6347C136.906 29.4914 136.613 29.5472 135.445 29.029C134.184 28.4691 134.083 28.182 134.048 25.0693Z" fill="#201B19"></path> <path d="M11.0516 110.648C11.0516 108.711 11.2566 107.637 11.7143 107.178C12.3895 106.501 13.6016 106.674 14.1871 107.532C14.7453 108.35 14.549 112.791 13.9163 113.66C13.3988 114.37 13.1535 114.414 12.1827 113.97C11.1335 113.49 11.0516 113.249 11.0516 110.648Z" fill="#201B19"></path> <path d="M15.2771 117.225C14.3631 116.812 14.2699 114.922 15.1401 114.433C16.2583 113.805 21.0953 114.439 21.6227 115.282C22.5341 116.74 21.4346 117.566 18.5812 117.566C17.181 117.566 15.694 117.412 15.2771 117.225Z" fill="#201B19"></path> <path d="M4.00913 117.059C3.60652 116.815 3.57964 114.988 3.97315 114.594C4.13177 114.434 5.68849 114.304 7.432 114.304C10.5012 114.304 10.6109 114.341 10.8904 115.459C11.3329 117.227 10.1914 117.824 6.97088 117.511C5.52078 117.37 4.18812 117.166 4.00913 117.059Z" fill="#201B19"></path> <path d="M11.0516 121.52C11.0516 119.583 11.2566 118.509 11.7143 118.05C12.3895 117.373 13.6016 117.546 14.1871 118.404C14.7453 119.222 14.549 123.663 13.9163 124.532C13.3988 125.242 13.1535 125.286 12.1827 124.842C11.1335 124.362 11.0516 124.121 11.0516 121.52Z" fill="#201B19"></path> </svg> 