<?xml version="1.0" encoding="UTF-8"?> <svg xmlns="http://www.w3.org/2000/svg" width="382" height="351" viewBox="0 0 382 351" fill="none"> <path fill-rule="evenodd" clip-rule="evenodd" d="M352.457 2.89425C336.424 -0.546724 321.821 0.107309 310.421 4.77618C301.388 8.47702 297.117 11.5334 291.446 18.3579L286.736 24.0257L283.471 22.8761C281.371 22.1365 277.989 22.1354 273.992 22.874C269.281 23.745 267.061 23.6648 264.813 22.5443C260.34 20.3132 257.072 20.7952 253.203 24.2541C247.929 28.9713 243.792 30.9643 235.526 32.7726C229.146 34.168 226.843 35.1755 221.995 38.6933C216.954 42.351 215.286 43.049 209.841 43.7763C203.22 44.6623 201.63 45.7862 200.34 50.4964C199.767 52.5862 198.637 53.438 191.729 56.9931C183.968 60.9852 183.739 61.1754 182.204 64.8952C181.339 66.9908 177.761 72.5458 174.253 77.2383C167.475 86.3056 165.858 89.992 165.779 96.5611C165.737 99.9913 165.014 101.201 159.361 107.288C155.853 111.065 155.688 111.446 155.652 115.83C155.632 118.353 155.418 120.688 155.177 121.017C154.937 121.347 153.311 121.466 151.562 121.281C141.723 120.24 135.374 122.27 131.331 127.75C130.035 129.507 127.515 131.385 124.537 132.814C115.616 137.095 112.699 142.078 114.856 149.351C115.61 151.896 115.505 154.328 114.505 157.408C112.501 163.581 112.627 166.523 115.257 174.932C116.52 178.971 117.613 185.052 117.686 188.446C117.855 196.42 118.825 199.349 122.371 202.604C124.489 204.548 125.229 205.896 125.139 207.65C124.973 210.921 126.664 214.022 132.683 221.489C138.826 229.109 141.211 230.969 145.82 231.731C151.344 232.645 154.541 234.531 156.264 237.89C157.523 240.346 157.491 241.591 156.075 245.398C154.549 249.499 154.575 250.345 156.325 253.761C158.267 257.549 158.205 261.068 156.142 264.026C155.575 264.839 155.155 266.741 155.208 268.251L155.306 270.998L151.08 269.218C148.079 267.955 145.353 267.612 141.679 268.036C136.017 268.689 130.717 268.416 127.527 267.306C126.4 266.914 122.829 267.132 119.593 267.791C116.357 268.45 111.078 268.619 107.861 268.166C103.851 267.601 100.506 267.838 97.2255 268.919C94.5927 269.786 91.7665 270.315 90.9453 270.094C90.1241 269.872 89.8129 269.635 90.2531 269.566C90.6937 269.496 91.4905 266.848 92.0235 263.682C93.2027 256.673 90.5637 239.511 87.4716 234.083C84.4224 228.731 72.0707 218.118 64.31 214.184C59.2684 211.627 45.4843 207.868 44.7657 208.853C44.6477 209.015 44.1263 212.574 43.6079 216.762C43.0889 220.95 42.4817 225.844 42.2571 227.638C41.9967 229.727 41.5106 230.804 40.906 230.636C33.1343 228.462 8.36582 227.241 6.97824 228.963C5.90369 230.296 6.59885 241.397 8.16291 247.888C9.24305 252.37 10.4936 255.227 12.0726 256.817C13.3492 258.103 14.2755 259.317 14.1309 259.515C13.9863 259.714 10.9244 261.312 7.3269 263.067C3.72892 264.823 0.496805 266.655 0.143775 267.139C-0.688331 268.28 3.67671 275.801 9.24391 282.821C22.2608 299.231 40.8262 307.809 58.8866 305.755L64.254 305.144L65.4575 308.051C66.3712 310.26 67.9434 311.895 72.0007 314.857C76.6135 318.225 77.5339 319.275 78.7511 322.556C80.3991 326.996 82.7198 328.429 88.7111 328.706C94.5593 328.975 99.2999 330.698 106.545 335.187C112.134 338.651 114.274 339.478 120.606 340.626C127.3 341.838 128.547 342.347 132.609 345.53C137.465 349.335 139.465 349.769 142.632 347.704C144.885 346.235 149.866 346.664 153.867 348.672C158.747 351.121 163.278 351.482 167.112 349.726C169.031 348.849 174.272 347.773 178.759 347.336C188.425 346.395 193.725 344.473 200.133 339.586C204.485 336.266 205.245 336.012 209.771 336.366C216.486 336.891 218.417 335.957 224.307 329.337C227.975 325.214 231.023 322.674 235.374 320.116C245.634 314.083 250.481 306.782 254.161 291.812C255.462 286.521 256.304 284.899 261.576 277.525C267.705 268.95 268.63 266.813 271.222 255.203C271.76 252.792 272.479 250.437 272.819 249.971C273.683 248.787 279.741 249.685 285.649 251.876C292.513 254.42 298.323 254.857 302.613 253.153C304.608 252.36 308.236 251.758 310.675 251.815C320.752 252.046 325.635 249.76 331.121 242.24C333.692 238.715 336.022 236.49 339.438 234.297C346.511 229.755 347.6 228.575 350.072 222.771C351.718 218.907 353.013 216.906 354.824 215.431C362.124 209.48 364.909 204.164 364.078 197.77C363.78 195.481 364.18 192.073 364.989 190.002C368.79 180.265 367.96 175.29 361.779 170.774C358.886 168.66 356.679 166.237 354.694 162.994C351.446 157.69 348.984 155.633 341.171 151.701C336.941 149.571 334.702 147.915 331.021 144.189C325.489 138.59 322.847 137.237 318.46 137.758C315.905 138.062 314.432 137.592 311.237 135.456C307.124 132.708 306.38 132.539 292.673 131.239C286.429 130.646 285.484 130.834 280.584 133.639C271.033 139.105 267.051 138.571 263.486 131.344C261.017 126.34 260.38 125.787 256.166 124.999C253.049 124.417 252.948 124.314 250.797 119.501C249.591 116.803 248.101 114.229 247.485 113.779C246.023 112.713 246.239 112.499 250.403 110.876C252.995 109.865 255.033 108.201 258.17 104.53C260.508 101.795 264.348 98.2854 266.701 96.733C269.899 94.6235 271.469 93.0127 272.914 90.356C274.272 87.8586 276.477 85.4799 280.326 82.3594C284.675 78.833 286.452 76.8311 288.947 72.649L292.09 67.3804L296.212 73.032C299.909 78.103 301.237 79.3028 309.117 84.6921C317.122 90.1672 318.333 90.7559 322.78 91.3337C329.846 92.252 344.715 90.4871 351.927 87.8736C359.048 85.2932 368.742 78.9669 367.722 77.5664C364.159 72.676 357.583 64.3487 356.852 63.8029C354.22 61.8365 354.858 60.7829 361.571 56.0132C367.379 51.8862 381.256 38.6963 381.067 37.4826C381.029 37.2339 379.136 35.1713 376.862 32.8993C370.868 26.9113 361.639 21.4834 357.258 21.3694L353.792 21.2791L356.321 13.4801C357.9 8.6074 358.504 5.34238 357.93 4.77681C357.424 4.27843 354.961 3.43127 352.457 2.89425ZM350.324 5.09652C333.823 2.3764 322.623 2.91979 312.379 6.94012C303.762 10.3212 298.576 13.9121 293.339 20.1236L288.888 25.4025L295.289 33.0638C303.412 42.787 303.593 43.1705 301.465 46.0882C300.03 48.0551 299.936 49.6139 300.896 55.5327C302.133 63.1657 301.547 64.929 297.384 66.1021L294.715 66.8551L297.76 71.0015C300.105 74.1925 302.877 76.6362 309.789 81.6053C320.551 89.3424 321.779 89.6613 335.957 88.3969C346.322 87.4728 355.698 84.477 361.142 80.3499L364.469 77.8277L360.153 71.9763C349.481 57.5053 333.2 49.0071 320.864 51.468C315.034 52.6313 303.855 52.585 302.217 51.3905C300.211 49.9272 302.749 49.0132 307.543 49.4739C318.487 50.5244 329.906 46.8151 337.831 39.6331C343.465 34.5284 349.919 24.1157 353.127 14.9556C356.102 6.45741 355.981 6.02913 350.324 5.09652ZM362.603 25.726C360.703 24.7117 357.787 23.9327 356.123 23.995L353.096 24.1069L346.05 33.4973C340.112 41.4109 338.329 43.3107 334.721 45.5663C332.365 47.0386 330.406 48.2883 330.365 48.3434C330.324 48.398 332.673 49.2406 335.581 50.2157C338.491 51.1907 343.375 53.5505 346.435 55.4595L351.998 58.9314L355.938 56.5976C361.339 53.3977 368.982 46.9738 373.748 41.6294L377.722 37.174L374.358 34.0408C370.525 30.4711 367.549 28.366 362.603 25.726ZM282.009 25.1112C280.781 24.8086 277.29 25.0473 274.249 25.6423C270.26 26.4223 267.69 26.3264 265.022 25.2957C259.298 23.0851 258.797 23.17 253.89 27.1743C248.337 31.7067 243.885 33.7333 234.936 35.8062C229.594 37.0433 227.005 38.2428 222.596 41.522C217.775 45.108 216.155 45.7905 210.686 46.5362L204.357 47.4L202.938 51.1979C201.535 54.9544 201.43 55.0415 193.537 59.1026C185.903 63.0302 185.509 63.3486 184.519 66.4196C183.95 68.1858 181.903 71.5857 179.971 73.9752C171.06 84.9918 168.991 89.0996 168.491 96.7679C168.213 101.035 166.85 103.376 161.494 108.78C158.59 111.709 158.33 112.303 158.403 115.832L158.483 119.684L161.848 118.477C165.619 117.125 170.215 117.256 175.617 118.871C177.614 119.468 182.145 119.568 185.685 119.09C196.172 117.68 196.543 117.817 210.136 128.122L221.937 137.068L226.101 145.076L230.266 153.085L240.668 159.98C254.329 169.036 255.052 170.02 257.638 183.101C259.704 193.544 260.286 194.718 266.906 201.778C271.392 206.562 272.101 209.953 270.026 216.712C268.556 221.503 268.545 222.451 269.952 223.262C271.082 223.913 271.33 224.591 270.746 225.424C270.274 226.096 270.646 228.44 271.582 230.685C273.024 234.148 273.662 240.278 273.09 245.183C272.964 246.261 273.759 246.611 277.211 246.995C279.563 247.258 284.304 248.485 287.746 249.722C293.53 251.802 294.645 251.859 302.458 250.49C307.108 249.675 312.692 249.01 314.868 249.013C320.792 249.021 324.729 246.671 329.306 240.396C332.264 236.34 334.288 234.425 338.232 231.949C342.748 229.115 343.654 228.181 346.126 223.815C347.662 221.103 350.135 217.397 351.621 215.58C353.107 213.763 356.099 209.915 358.268 207.029C362.146 201.869 362.202 201.706 361.598 197.328C361.228 194.65 361.558 191.405 362.424 189.187C364.387 184.157 365.056 179.24 364.09 176.931C363.645 175.87 361.585 173.876 359.485 172.475C356.674 170.6 354.784 168.493 352.224 164.387L348.764 158.836L341.198 154.718C335.166 151.435 332.668 149.641 328.867 145.864C323.572 140.602 322.252 139.976 317.601 140.52C314.983 140.827 313.654 140.379 310.341 138.073C306.745 135.569 305.211 135.144 296.79 134.319C286.947 133.355 285.134 133.659 280.23 137.085C276.314 139.822 270.285 140.682 266.766 139.007C264.549 137.951 263.376 136.624 261.369 132.897C258.911 128.334 258.682 128.118 255.859 127.685C251.786 127.059 250.918 126.246 248.462 120.751C247.283 118.111 245.872 115.918 245.328 115.877C244.784 115.835 243.949 114.991 243.473 114.001C242.466 111.909 243.833 110.558 248.993 108.551C251.349 107.634 253.483 105.87 256.448 102.386C258.733 99.7024 262.48 96.2836 264.773 94.7881C267.948 92.7202 269.467 91.1436 271.133 88.1894C272.766 85.2923 274.646 83.3089 278.545 80.3706C282.581 77.3287 284.228 75.568 285.784 72.6287C288.975 66.6017 289.952 65.6485 294.515 64.0991C296.879 63.2967 298.965 62.0802 299.149 61.3965C299.335 60.7121 298.907 57.7799 298.199 54.8789C297.194 50.7635 297.245 48.8892 298.428 46.345L299.944 43.0853L295.303 37.2734C289.544 30.0604 284.92 25.8295 282.009 25.1112ZM274.309 39.9992C273.895 40.5672 273.865 41.2576 274.243 41.5334C274.621 41.8092 275.27 41.5702 275.684 41.0022C276.098 40.4342 276.128 39.7438 275.75 39.468C275.372 39.1922 274.723 39.4313 274.309 39.9992ZM268.056 37.0203C267.78 37.3989 267.863 37.9344 268.241 38.2102C268.619 38.486 269.155 38.4018 269.431 38.0232C269.707 37.6445 269.624 37.1091 269.246 36.8333C268.867 36.5575 268.332 36.6416 268.056 37.0203ZM258.818 39.8541C258.657 40.3598 258.819 40.9883 259.178 41.2501C259.537 41.5119 260.185 41.474 260.617 41.1659C261.049 40.8578 260.888 40.2298 260.257 39.7699C259.627 39.3101 258.98 39.3484 258.818 39.8541ZM252.22 37.0715C251.944 37.4501 252.182 38.0984 252.749 38.5121C253.316 38.9258 254.006 38.9545 254.282 38.5758C254.558 38.1972 254.32 37.5489 253.753 37.1352C253.186 36.7215 252.496 36.6928 252.22 37.0715ZM249.985 42.5019C248.646 42.7125 248.356 43.746 249.419 44.5212C249.986 44.9349 250.663 44.9822 250.923 44.6256C251.556 43.7574 250.936 42.3525 249.985 42.5019ZM242.982 39.9053C242.821 40.4109 242.983 41.0395 243.342 41.3013C243.701 41.5631 244.349 41.5252 244.781 41.2171C245.213 40.909 245.052 40.281 244.421 39.8211C243.791 39.3613 243.144 39.3996 242.982 39.9053ZM352.773 122.737C351.189 122.118 348.645 123.674 348.516 125.341C348.468 125.95 349.146 127.632 350.02 129.077C352.15 132.596 355.587 133.613 357.319 131.238C359.605 128.105 357.78 124.693 352.773 122.737ZM239.558 45.7665C239.282 46.1452 239.52 46.7935 240.087 47.2072C240.654 47.6209 241.344 47.6495 241.62 47.2709C241.897 46.8922 241.659 46.2439 241.091 45.8302C240.524 45.4165 239.834 45.3879 239.558 45.7665ZM234.149 42.5531C232.809 42.7636 232.52 43.7972 233.583 44.5724C234.15 44.9861 234.827 45.0334 235.087 44.6768C235.72 43.8086 235.1 42.4037 234.149 42.5531ZM230.885 48.5519C229.934 48.7013 229.77 50.2295 230.637 50.8619C230.993 51.1216 231.623 50.869 232.037 50.3011C232.814 49.2367 232.224 48.3414 230.885 48.5519ZM224.158 46.6634C223.698 47.2947 223.735 47.9422 224.241 48.103C224.746 48.2637 225.374 48.1009 225.636 47.7415C225.899 47.3821 225.862 46.7339 225.554 46.3019C225.247 45.87 224.619 46.0321 224.158 46.6634ZM227.333 55.3073C226.872 55.9386 226.91 56.5861 227.415 56.7468C227.92 56.9076 228.549 56.7448 228.811 56.3854C229.073 56.026 229.036 55.3778 228.728 54.9458C228.421 54.5138 227.793 54.6759 227.333 55.3073ZM221.372 51.9269C220.935 52.5266 221.067 53.3738 221.666 53.8106C222.88 54.6961 223.75 53.0599 222.786 51.7048C222.445 51.2267 221.81 51.3273 221.372 51.9269ZM214.826 49.3493C214.366 49.9806 214.403 50.6282 214.909 50.7889C215.414 50.9496 216.042 50.7868 216.305 50.4274C216.567 50.0681 216.53 49.4199 216.222 48.9879C215.915 48.5559 215.287 48.718 214.826 49.3493ZM218.845 57.7587C217.505 57.9693 217.216 59.0028 218.279 59.7781C218.846 60.1918 219.522 60.239 219.782 59.8824C220.416 59.0143 219.795 57.6093 218.845 57.7587ZM211.842 55.1621C211.681 55.6678 211.842 56.2964 212.201 56.5581C212.56 56.8199 213.208 56.7821 213.64 56.474C214.073 56.1659 213.911 55.5378 213.281 55.078C212.651 54.6181 212.003 54.6565 211.842 55.1621ZM215.358 64.5038C214.944 65.0718 214.914 65.7621 215.292 66.0379C215.671 66.3137 216.319 66.0747 216.733 65.5067C217.147 64.9387 217.177 64.2483 216.799 63.9725C216.421 63.6967 215.772 63.9358 215.358 64.5038ZM208.512 61.1713C208.351 61.6769 208.513 62.3055 208.871 62.5673C209.23 62.829 209.878 62.7912 210.31 62.4831C210.743 62.175 210.581 61.5469 209.951 61.0871C209.321 60.6272 208.673 60.6656 208.512 61.1713ZM203.074 57.7996C202.124 57.9491 201.96 59.4772 202.827 60.1096C203.183 60.3693 203.813 60.1167 204.227 59.5488C205.003 58.4844 204.414 57.5891 203.074 57.7996ZM212.374 70.3166C212.212 70.8223 212.374 71.4509 212.733 71.7126C213.092 71.9744 213.74 71.9365 214.172 71.6284C214.604 71.3203 214.443 70.6923 213.813 70.2324C213.182 69.7726 212.535 69.8109 212.374 70.3166ZM205.775 67.534C205.499 67.9126 205.737 68.5609 206.304 68.9746C206.871 69.3883 207.561 69.417 207.838 69.0383C208.114 68.6597 207.876 68.0114 207.309 67.5977C206.741 67.184 206.051 67.1553 205.775 67.534ZM199.522 64.555C199.108 65.123 199.078 65.8133 199.456 66.0891C199.834 66.3649 200.483 66.1259 200.897 65.5579C201.311 64.9899 201.341 64.2996 200.963 64.0238C200.585 63.748 199.936 63.987 199.522 64.555ZM209.888 76.3351C209.474 76.903 209.444 77.5934 209.822 77.8692C210.2 78.145 210.849 77.906 211.263 77.338C211.677 76.77 211.707 76.0796 211.329 75.8038C210.951 75.528 210.302 75.7671 209.888 76.3351ZM203.606 72.9541C202.655 73.1035 202.492 74.6317 203.359 75.264C203.715 75.5238 204.344 75.2712 204.759 74.7032C205.535 73.6389 204.945 72.7435 203.606 72.9541ZM196.538 70.3678C196.376 70.8735 196.538 71.502 196.897 71.7638C197.256 72.0256 197.904 71.9877 198.336 71.6796C198.768 71.3715 198.607 70.7434 197.977 70.2836C197.346 69.8238 196.699 69.8621 196.538 70.3678ZM200.305 79.3652C200.029 79.7439 200.267 80.3922 200.834 80.8059C201.401 81.2196 202.091 81.2482 202.367 80.8696C202.644 80.4909 202.406 79.8426 201.838 79.4289C201.271 79.0152 200.581 78.9866 200.305 79.3652ZM194.771 76.2421C194.125 76.5058 193.647 77.043 193.708 77.4357C193.874 78.5007 195.205 78.0841 195.601 76.8431C195.879 75.9741 195.716 75.8558 194.771 76.2421ZM197.411 86.22C196.951 86.8514 196.988 87.4989 197.494 87.6596C197.999 87.8204 198.627 87.6575 198.89 87.2982C199.152 86.9388 199.115 86.2906 198.807 85.8586C198.5 85.4266 197.872 85.5887 197.411 86.22ZM190.722 82.3954C190.308 82.9634 190.433 83.7665 191 84.1802C191.567 84.5939 192.37 84.4677 192.784 83.8998C193.199 83.3318 193.074 82.5286 192.506 82.1149C191.939 81.7012 191.136 81.8274 190.722 82.3954ZM194.333 91.8849C194.056 92.2636 194.294 92.9119 194.862 93.3256C195.429 93.7393 196.119 93.768 196.395 93.3893C196.671 93.0107 196.433 92.3624 195.866 91.9487C195.299 91.535 194.609 91.5063 194.333 91.8849ZM188.121 88.8488C187.684 89.4485 187.816 90.2957 188.415 90.7325C189.629 91.618 190.499 89.9818 189.534 88.6267C189.194 88.1486 188.559 88.2492 188.121 88.8488ZM191.003 97.8941C190.726 98.2727 190.965 98.921 191.532 99.3347C192.099 99.7484 192.789 99.7771 193.065 99.3985C193.341 99.0198 193.103 98.3715 192.536 97.9578C191.969 97.5441 191.279 97.5154 191.003 97.8941ZM185.095 94.7188C184.934 95.2245 185.096 95.853 185.454 96.1148C185.813 96.3766 186.461 96.3387 186.893 96.0306C187.326 95.7225 187.164 95.0944 186.534 94.6346C185.904 94.1748 185.256 94.2131 185.095 94.7188ZM194.52 121.229C192.963 120.981 188.897 121.182 185.486 121.674C181.448 122.257 177.345 122.086 173.732 121.183C169.024 120.007 168.044 120.053 167.278 121.485C166.556 122.837 166.096 122.918 164.979 121.892C163.915 120.917 162.608 121.033 159.499 122.379C157.18 123.383 153.322 124.048 150.568 123.919C140.773 123.457 136.504 124.958 132.67 130.215C131.372 131.995 128.971 133.781 126.025 135.158C117.563 139.117 115.795 142.099 117.539 149.478C118.21 152.319 118.082 155.124 117.146 158.045C115.458 163.317 115.813 168.257 118.432 175.95C119.594 179.362 120.382 184.497 120.338 188.377C120.256 195.83 120.867 197.608 124.583 200.748C126.587 202.439 127.328 203.935 127.79 207.213C128.411 211.621 131.48 216.492 138.542 224.279C141.747 227.813 142.316 228.134 147.853 229.543C154.552 231.247 156.025 232.126 158.189 235.701C160.176 238.986 160.292 241.301 158.709 246.131C157.67 249.303 157.754 250.723 159.143 253.479C160.908 256.981 160.727 262.13 158.742 264.856C158.161 265.653 157.848 267.685 158.045 269.371C158.246 271.082 157.899 272.764 157.261 273.176C156.634 273.583 154.023 273.158 151.46 272.231C148.351 271.107 144.577 270.692 140.112 270.981C136.432 271.219 131.617 271.024 129.413 270.546C127.207 270.07 122.651 270.143 119.288 270.709C115.925 271.275 110.392 271.337 106.994 270.847C102.427 270.189 99.9058 270.376 97.3341 271.565C93.4402 273.366 90.8261 273.23 86.4663 271.001C84.8354 270.167 83.1035 269.455 82.6187 269.417C82.1339 269.38 79.9734 271.769 77.8175 274.725C74.5629 279.187 73.4119 280.236 71.0377 280.905L68.1778 281.711L67.4685 286.881C66.2568 295.711 66.2757 302.618 67.5207 306.034C68.5272 308.796 69.5671 309.917 74.0935 313.117C78.8153 316.457 79.632 317.374 80.7986 320.639C81.5291 322.684 82.4813 324.616 82.9151 324.932C83.3489 325.249 86.3103 325.736 89.4953 326.016C96.5811 326.638 99.6761 327.788 108.308 333.007C113.931 336.407 116.118 337.24 121.749 338.124C127.767 339.068 129.03 339.584 133.758 343.032L139.04 346.886L141.784 345.221C144.89 343.337 148.247 343.605 155.031 346.277C160.989 348.625 163.447 348.699 167.487 346.649C169.302 345.729 173.902 344.843 177.71 344.68C186.368 344.311 191.143 342.668 198.289 337.601C203.519 333.891 204.3 333.627 209.595 333.76C216.137 333.925 218.752 332.556 223.127 326.68C225.308 323.748 227.854 321.627 232.862 318.566C244.044 311.731 247.648 306.484 251.808 290.981C253.765 283.688 254.277 282.665 259.433 275.776C265.757 267.327 266.655 265.006 269.301 250.282C271.216 239.624 270.64 232.969 267.367 227.921C265.127 224.467 265.168 223.542 267.983 214.164C268.627 212.022 268.812 209.421 268.396 208.383C267.244 205.513 259.384 197.049 258.473 197.699C258.057 197.996 257.244 197.895 256.668 197.475C256.043 197.019 256.062 196.425 256.713 196.003C258.21 195.034 256.222 188.505 254.27 187.978C253.091 187.661 253.084 187.358 254.235 186.512C256.051 185.179 254.714 177.798 251.717 172.606C249.89 169.443 248.61 168.372 238.876 161.875L228.065 154.658L223.89 146.664L219.715 138.67L208.533 130.175C199.51 123.319 196.805 121.593 194.52 121.229ZM205.14 131.938C204.726 132.506 204.696 133.197 205.074 133.472C205.453 133.748 206.101 133.509 206.515 132.941C206.929 132.373 206.959 131.683 206.581 131.407C206.203 131.131 205.555 131.37 205.14 131.938ZM192.383 126.325C192.107 126.703 192.19 127.239 192.568 127.515C192.946 127.79 193.482 127.706 193.758 127.328C194.034 126.949 193.951 126.413 193.573 126.138C193.195 125.862 192.659 125.946 192.383 126.325ZM219.945 146.627C219.439 148.214 220.765 149.505 221.652 148.289C222.089 147.689 221.957 146.842 221.358 146.405C220.76 145.968 220.124 146.068 219.945 146.627ZM186.475 123.149C186.314 123.655 186.476 124.284 186.835 124.545C187.194 124.807 187.842 124.769 188.274 124.461C188.706 124.153 188.545 123.525 187.914 123.065C187.284 122.605 186.637 122.644 186.475 123.149ZM214.346 143.865C213.916 144.455 213.873 145.164 214.251 145.44C214.629 145.715 215.151 145.65 215.411 145.293C215.671 144.937 215.713 144.228 215.506 143.718C215.299 143.209 214.776 143.275 214.346 143.865ZM207.812 141.271C207.352 141.902 207.389 142.55 207.894 142.71C208.4 142.871 209.028 142.708 209.29 142.349C209.552 141.989 209.516 141.341 209.208 140.909C208.901 140.477 208.273 140.639 207.812 141.271ZM202.405 137.854C201.806 138.099 201.4 138.834 201.502 139.488C201.625 140.282 202.05 140.53 202.776 140.234C203.374 139.989 203.781 139.254 203.679 138.6C203.556 137.806 203.131 137.558 202.405 137.854ZM235.653 161.783C234.314 161.994 234.024 163.027 235.087 163.802C235.654 164.216 236.331 164.263 236.591 163.907C237.224 163.039 236.604 161.634 235.653 161.783ZM196.15 135.078C194.811 135.289 194.521 136.322 195.584 137.098C196.151 137.511 196.828 137.559 197.088 137.202C197.721 136.334 197.101 134.929 196.15 135.078ZM229.243 159.54C228.967 159.919 229.051 160.454 229.429 160.73C229.807 161.006 230.342 160.922 230.618 160.543C230.895 160.164 230.811 159.629 230.433 159.353C230.055 159.077 229.52 159.161 229.243 159.54ZM223.242 156.217C222.965 156.595 223.049 157.131 223.427 157.407C223.805 157.682 224.34 157.598 224.616 157.22C224.893 156.841 224.809 156.306 224.431 156.03C224.053 155.754 223.518 155.838 223.242 156.217ZM189.741 132.835C189.464 133.214 189.548 133.749 189.926 134.025C190.304 134.301 190.839 134.217 191.116 133.838C191.392 133.459 191.308 132.924 190.93 132.648C190.552 132.372 190.017 132.457 189.741 132.835ZM217.03 153.181C216.593 153.78 216.725 154.628 217.323 155.064C218.538 155.95 219.408 154.314 218.443 152.958C218.103 152.48 217.468 152.581 217.03 153.181ZM183.114 129.255C182.608 130.841 183.934 132.132 184.821 130.916C185.258 130.317 185.126 129.469 184.527 129.033C183.929 128.596 183.293 128.695 183.114 129.255ZM244.673 174.486C244.258 175.054 244.229 175.744 244.607 176.02C244.985 176.296 245.633 176.057 246.048 175.489C246.462 174.921 246.492 174.231 246.113 173.955C245.735 173.679 245.087 173.918 244.673 174.486ZM177.527 126.476C177.09 127.076 177.222 127.923 177.821 128.36C179.035 129.245 179.905 127.609 178.94 126.254C178.6 125.776 177.965 125.876 177.527 126.476ZM210.798 150.503C210.292 152.089 211.618 153.38 212.505 152.165C212.942 151.565 212.811 150.718 212.212 150.281C211.613 149.844 210.977 149.943 210.798 150.503ZM205.17 147.781C204.756 148.349 204.726 149.04 205.104 149.315C205.482 149.591 206.13 149.352 206.545 148.784C206.959 148.216 206.989 147.526 206.611 147.25C206.232 146.974 205.584 147.213 205.17 147.781ZM238.169 171.851C237.754 172.419 237.725 173.11 238.103 173.385C238.481 173.661 239.129 173.422 239.544 172.854C239.958 172.286 239.987 171.596 239.609 171.32C239.231 171.044 238.583 171.283 238.169 171.851ZM171.296 123.798C170.789 125.385 172.115 126.676 173.002 125.46C173.44 124.86 173.308 124.013 172.709 123.576C172.11 123.139 171.474 123.239 171.296 123.798ZM232.208 168.471C231.771 169.071 231.903 169.918 232.502 170.355C233.716 171.24 234.586 169.604 233.622 168.249C233.281 167.771 232.646 167.871 232.208 168.471ZM198.888 144.4C197.937 144.55 197.774 146.078 198.64 146.71C198.997 146.97 199.626 146.717 200.041 146.149C200.817 145.085 200.227 144.19 198.888 144.4ZM227.009 164.97C225.669 165.181 225.38 166.215 226.443 166.99C227.01 167.403 227.686 167.451 227.946 167.094C228.58 166.226 227.959 164.821 227.009 164.97ZM193.508 141.589C192.168 141.799 191.879 142.833 192.942 143.608C193.509 144.022 194.185 144.069 194.445 143.713C195.079 142.844 194.458 141.439 193.508 141.589ZM317.784 233.089C317.37 233.657 317.34 234.347 317.718 234.623C318.096 234.899 318.745 234.66 319.159 234.092C319.573 233.524 319.603 232.833 319.225 232.557C318.847 232.282 318.198 232.521 317.784 233.089ZM219.975 162.47C219.468 164.056 220.794 165.347 221.681 164.132C222.119 163.532 221.987 162.685 221.388 162.248C220.789 161.811 220.153 161.911 219.975 162.47ZM186.411 138.844C186.134 139.223 186.372 139.871 186.94 140.285C187.507 140.699 188.197 140.727 188.473 140.349C188.749 139.97 188.511 139.322 187.944 138.908C187.377 138.494 186.687 138.466 186.411 138.844ZM247.345 183.818C246.93 184.386 247.056 185.19 247.623 185.603C248.19 186.017 248.993 185.891 249.407 185.323C249.821 184.755 249.696 183.952 249.129 183.538C248.562 183.124 247.759 183.25 247.345 183.818ZM180.158 135.865C179.743 136.433 179.868 137.237 180.435 137.65C181.003 138.064 181.806 137.938 182.22 137.37C182.634 136.802 182.509 135.999 181.942 135.585C181.375 135.171 180.572 135.297 180.158 135.865ZM214.095 160.093C213.819 160.471 213.902 161.007 214.28 161.283C214.658 161.558 215.194 161.474 215.47 161.096C215.746 160.717 215.663 160.181 215.285 159.906C214.906 159.63 214.371 159.714 214.095 160.093ZM207.884 157.056C207.446 157.656 207.578 158.503 208.177 158.94C209.391 159.826 210.261 158.19 209.297 156.834C208.957 156.356 208.321 156.457 207.884 157.056ZM241.186 180.987C241.025 181.493 241.187 182.122 241.545 182.383C241.904 182.645 242.552 182.607 242.984 182.299C243.417 181.991 243.256 181.363 242.625 180.903C241.995 180.443 241.347 180.482 241.186 180.987ZM235.748 177.616C234.798 177.765 234.634 179.293 235.501 179.926C235.857 180.185 236.487 179.933 236.901 179.365C237.677 178.3 237.088 177.405 235.748 177.616ZM311.992 233.288C310.653 233.498 310.363 234.532 311.426 235.307C311.993 235.721 312.67 235.768 312.93 235.411C313.563 234.543 312.943 233.138 311.992 233.288ZM201.338 154.479C200.877 155.11 200.915 155.758 201.42 155.918C201.925 156.079 202.554 155.916 202.816 155.557C203.078 155.198 203.041 154.549 202.734 154.117C202.426 153.685 201.798 153.848 201.338 154.479ZM229.714 174.298C228.345 174.513 228.041 175.539 229.115 176.322C229.682 176.736 230.485 176.61 230.899 176.042C231.683 174.966 231.082 174.082 229.714 174.298ZM223.02 172.404C222.606 172.972 222.576 173.662 222.954 173.938C223.332 174.214 223.981 173.975 224.395 173.407C224.809 172.839 224.839 172.149 224.461 171.873C224.083 171.597 223.434 171.836 223.02 172.404ZM250.704 193.652C250.29 194.22 250.26 194.911 250.639 195.186C251.017 195.462 251.665 195.223 252.079 194.655C252.494 194.087 252.523 193.397 252.145 193.121C251.767 192.845 251.119 193.084 250.704 193.652ZM216.767 169.425C216.491 169.804 216.729 170.452 217.296 170.866C217.863 171.279 218.553 171.308 218.829 170.929C219.106 170.551 218.868 169.902 218.3 169.489C217.733 169.075 217.043 169.046 216.767 169.425ZM296.95 228.44C296.49 229.071 296.527 229.719 297.033 229.879C297.538 230.04 298.166 229.877 298.428 229.518C298.691 229.159 298.654 228.51 298.346 228.078C298.039 227.646 297.411 227.808 296.95 228.44ZM243.764 190.172C243.488 190.55 243.726 191.199 244.293 191.612C244.86 192.026 245.55 192.055 245.826 191.676C246.102 191.297 245.864 190.649 245.297 190.235C244.73 189.822 244.04 189.793 243.764 190.172ZM304.325 234.544C303.818 236.131 305.144 237.422 306.031 236.206C306.469 235.606 306.337 234.759 305.738 234.322C305.139 233.885 304.503 233.985 304.325 234.544ZM238.198 187.694C237.738 188.326 237.775 188.973 238.28 189.134C238.786 189.295 239.414 189.132 239.676 188.772C239.938 188.413 239.901 187.765 239.594 187.333C239.287 186.901 238.659 187.063 238.198 187.694ZM266.541 207.518C265.202 207.729 264.912 208.762 265.975 209.537C266.542 209.951 267.219 209.998 267.479 209.642C268.112 208.774 267.492 207.369 266.541 207.518ZM232.196 184.371C231.782 184.939 231.752 185.629 232.13 185.905C232.509 186.181 233.157 185.942 233.571 185.374C233.985 184.806 234.015 184.116 233.637 183.84C233.259 183.564 232.61 183.803 232.196 184.371ZM260.102 204.873C259.152 205.022 258.988 206.551 259.855 207.183C260.211 207.443 260.841 207.19 261.255 206.622C262.032 205.558 261.442 204.662 260.102 204.873ZM225.943 181.392C225.667 181.771 225.905 182.419 226.472 182.833C227.039 183.246 227.729 183.275 228.006 182.896C228.282 182.518 228.044 181.869 227.477 181.456C226.909 181.042 226.219 181.013 225.943 181.392ZM254.723 202.062C253.383 202.272 253.094 203.306 254.156 204.081C254.724 204.495 255.4 204.542 255.66 204.185C256.293 203.317 255.673 201.912 254.723 202.062ZM291.159 228.639C289.819 228.849 289.53 229.883 290.593 230.658C291.16 231.072 291.836 231.119 292.096 230.763C292.73 229.894 292.109 228.489 291.159 228.639ZM298.062 235.579C297.602 236.211 297.639 236.858 298.144 237.019C298.65 237.18 299.278 237.017 299.54 236.657C299.802 236.298 299.765 235.65 299.458 235.218C299.151 234.786 298.523 234.948 298.062 235.579ZM247.374 199.661C246.96 200.229 246.93 200.92 247.309 201.195C247.687 201.471 248.335 201.232 248.749 200.664C249.164 200.096 249.193 199.406 248.815 199.13C248.437 198.854 247.789 199.093 247.374 199.661ZM305.436 241.684C304.93 243.27 306.256 244.561 307.143 243.345C307.58 242.746 307.448 241.898 306.85 241.462C306.251 241.025 305.615 241.124 305.436 241.684ZM242.216 196.104C240.877 196.314 240.587 197.348 241.65 198.123C242.217 198.537 242.894 198.584 243.154 198.227C243.787 197.359 243.167 195.954 242.216 196.104ZM235.214 193.507C235.052 194.013 235.214 194.641 235.573 194.903C235.932 195.165 236.58 195.127 237.012 194.819C237.444 194.511 237.283 193.883 236.653 193.423C236.022 192.963 235.375 193.001 235.214 193.507ZM262.511 215.009C262.073 215.608 262.172 216.244 262.731 216.422C264.316 216.927 265.608 215.598 264.394 214.713C263.795 214.276 262.948 214.409 262.511 215.009ZM283.522 229.799C283.361 230.305 283.522 230.933 283.882 231.195C284.241 231.457 284.888 231.419 285.321 231.111C285.753 230.803 285.592 230.175 284.961 229.715C284.331 229.255 283.684 229.293 283.522 229.799ZM257.427 211.389C256.059 211.604 255.755 212.63 256.828 213.413C257.396 213.827 258.199 213.701 258.613 213.133C259.397 212.057 258.796 211.174 257.427 211.389ZM290.488 235.856C290.212 236.234 290.45 236.883 291.017 237.296C291.584 237.71 292.274 237.739 292.55 237.36C292.827 236.981 292.588 236.333 292.021 235.919C291.454 235.506 290.764 235.477 290.488 235.856ZM299.331 241.983C297.991 242.193 297.702 243.227 298.764 244.002C299.332 244.416 300.008 244.463 300.268 244.107C300.901 243.238 300.281 241.833 299.331 241.983ZM250.046 208.994C249.632 209.562 249.757 210.365 250.324 210.779C250.892 211.192 251.694 211.066 252.109 210.498C252.523 209.93 252.398 209.127 251.831 208.713C251.264 208.299 250.461 208.426 250.046 208.994ZM244.954 205.426C244.003 205.575 243.84 207.103 244.707 207.736C245.063 207.995 245.693 207.743 246.107 207.175C246.883 206.11 246.293 205.215 244.954 205.426ZM276.886 230.233C276.725 230.738 276.886 231.366 277.246 231.629C277.605 231.891 278.253 231.852 278.685 231.544C279.117 231.236 278.956 230.608 278.326 230.148C277.695 229.689 277.048 229.727 276.886 230.233ZM284.54 236.791C284.263 237.169 284.347 237.705 284.725 237.981C285.103 238.256 285.638 238.172 285.915 237.794C286.191 237.415 286.107 236.879 285.729 236.604C285.351 236.328 284.816 236.412 284.54 236.791ZM292.695 242.416C291.355 242.627 291.066 243.661 292.129 244.436C292.696 244.849 293.372 244.897 293.632 244.54C294.266 243.672 293.645 242.267 292.695 242.416ZM259.91 221.462C259.45 222.094 259.487 222.741 259.992 222.902C260.497 223.063 261.126 222.9 261.388 222.54C261.65 222.181 261.613 221.533 261.306 221.101C260.999 220.669 260.371 220.831 259.91 221.462ZM253.033 218.226C252.526 219.812 253.852 221.103 254.739 219.888C255.177 219.288 255.045 218.441 254.446 218.004C253.847 217.567 253.211 217.666 253.033 218.226ZM277.875 236.822C276.924 236.972 276.761 238.5 277.628 239.132C277.984 239.392 278.613 239.139 279.028 238.571C279.804 237.507 279.214 236.612 277.875 236.822ZM278.921 243.972C277.582 244.183 277.292 245.216 278.355 245.991C278.922 246.405 279.599 246.452 279.859 246.096C280.492 245.228 279.872 243.823 278.921 243.972ZM60.5036 215.282C55.1431 212.928 48.0664 211.547 47.2308 212.693C46.937 213.096 46.2553 217.107 45.7155 221.609C44.4544 232.126 46.3931 243.304 50.9299 251.674C53.8321 257.029 54.8692 258.199 60.8149 262.824C68.5188 268.815 73.0745 274.007 71.9642 275.53C71.4067 276.294 70.7981 276.099 69.6161 274.778C68.7389 273.797 66.2559 271.165 64.0993 268.931C52.0748 256.471 32.3514 254.467 12.3296 263.671C7.82572 265.742 3.90254 267.762 3.61178 268.161C2.1635 270.146 13.1095 284.251 21.6183 291.365C28.9681 297.508 39.1713 302.179 47.1693 303.062C52.4049 303.64 62.4343 303.034 63.1163 302.099C63.3332 301.802 63.8785 297.156 64.3281 291.774C64.7772 286.393 65.5699 281.408 66.0892 280.696C66.6084 279.984 68.227 279.065 69.6853 278.654C71.8505 278.043 73.0976 276.864 76.4762 272.232C80.9848 266.051 81.7093 265.694 85.9408 267.581L88.5353 268.737L89.3378 263.089C90.1867 257.11 87.8105 240.376 85.437 235.618C84.0601 232.857 74.7771 224.043 68.8527 219.871C66.9395 218.523 63.1823 216.459 60.5036 215.282ZM195.871 315.033C195.456 315.601 195.427 316.292 195.805 316.567C196.183 316.843 196.831 316.604 197.245 316.036C197.66 315.468 197.689 314.778 197.311 314.502C196.933 314.226 196.285 314.465 195.871 315.033ZM198.674 321.297C198.26 321.865 198.23 322.556 198.608 322.831C198.986 323.107 199.635 322.868 200.049 322.3C200.463 321.732 200.493 321.042 200.115 320.766C199.737 320.49 199.088 320.729 198.674 321.297ZM189.605 317.847C189.191 318.414 189.161 319.105 189.54 319.381C189.918 319.656 190.566 319.417 190.98 318.849C191.395 318.281 191.424 317.591 191.046 317.315C190.668 317.039 190.02 317.279 189.605 317.847ZM192.367 324.168C191.93 324.767 192.028 325.403 192.587 325.581C194.172 326.086 195.465 324.757 194.251 323.872C193.652 323.435 192.805 323.568 192.367 324.168ZM183.34 320.66C182.926 321.228 182.896 321.918 183.274 322.194C183.653 322.47 184.301 322.231 184.715 321.663C185.129 321.095 185.159 320.404 184.781 320.129C184.403 319.853 183.755 320.092 183.34 320.66ZM186.988 326.689C185.648 326.9 185.359 327.934 186.422 328.709C186.989 329.123 187.665 329.17 187.926 328.813C188.559 327.945 187.938 326.54 186.988 326.689ZM177.075 323.473C176.661 324.041 176.631 324.732 177.009 325.007C177.387 325.283 178.036 325.044 178.45 324.476C178.864 323.908 178.894 323.218 178.516 322.942C178.138 322.666 177.489 322.905 177.075 323.473ZM168.006 320.023C167.592 320.591 167.562 321.281 167.941 321.557C168.319 321.833 168.967 321.594 169.381 321.026C169.796 320.458 169.825 319.767 169.447 319.491C169.069 319.216 168.421 319.455 168.006 320.023ZM180.756 329.498C179.387 329.713 179.083 330.739 180.157 331.522C180.724 331.936 181.527 331.81 181.941 331.242C182.726 330.166 182.124 329.283 180.756 329.498ZM170.81 326.287C170.349 326.918 170.387 327.565 170.892 327.726C171.397 327.887 172.025 327.725 172.288 327.365C172.551 327.005 172.513 326.357 172.206 325.925C171.898 325.493 171.27 325.655 170.81 326.287ZM37.4369 232.788C31.4626 231.298 25.2355 230.701 17.6998 230.893C14.1977 230.982 10.8965 231.04 10.3647 231.022C8.84503 230.968 8.98744 239.584 10.6237 246.699C11.661 251.211 12.8289 253.89 14.4843 255.555C16.8247 257.909 17.0168 257.918 28.0938 256.256C36.3803 255.012 40.6898 254.879 44.5094 255.747C47.3579 256.395 49.8171 256.76 49.9729 256.56C50.1287 256.359 49.1956 254.178 47.8995 251.713C46.6033 249.248 44.8014 244.274 43.8951 240.661C42.9882 237.048 42.1429 234.043 42.0172 233.983C41.8908 233.922 39.8301 233.384 37.4369 232.788ZM161.741 322.836C161.327 323.404 161.297 324.094 161.675 324.37C162.054 324.646 162.702 324.407 163.116 323.839C163.53 323.271 163.56 322.581 163.182 322.305C162.804 322.029 162.155 322.268 161.741 322.836ZM174.301 333.052C173.887 333.62 173.857 334.311 174.235 334.586C174.613 334.862 175.262 334.623 175.676 334.055C176.09 333.487 176.12 332.797 175.742 332.521C175.364 332.245 174.715 332.484 174.301 333.052ZM164.859 329C164.353 330.586 165.679 331.877 166.566 330.662C167.003 330.062 166.871 329.215 166.272 328.778C165.673 328.341 165.037 328.441 164.859 329ZM155.821 325.453C155.66 325.959 155.822 326.587 156.181 326.849C156.54 327.111 157.188 327.073 157.62 326.765C158.052 326.457 157.891 325.829 157.261 325.369C156.63 324.909 155.983 324.947 155.821 325.453ZM168.036 335.866C167.575 336.497 167.613 337.144 168.118 337.305C168.623 337.466 169.251 337.304 169.514 336.944C169.777 336.584 169.739 335.936 169.432 335.504C169.124 335.072 168.496 335.234 168.036 335.866ZM158.967 332.415C158.553 332.983 158.523 333.673 158.901 333.949C159.279 334.225 159.928 333.986 160.342 333.418C160.756 332.85 160.786 332.159 160.408 331.884C160.03 331.608 159.381 331.847 158.967 332.415ZM149.462 328.119C149.186 328.497 149.424 329.145 149.991 329.559C150.558 329.973 151.248 330.002 151.524 329.623C151.801 329.244 151.563 328.596 150.995 328.182C150.428 327.769 149.738 327.74 149.462 328.119ZM161.771 338.679C161.356 339.247 161.327 339.937 161.705 340.213C162.083 340.489 162.731 340.25 163.146 339.682C163.56 339.114 163.59 338.423 163.211 338.148C162.833 337.872 162.185 338.111 161.771 338.679ZM140.393 324.668C140.117 325.047 140.355 325.695 140.922 326.109C141.489 326.522 142.179 326.551 142.456 326.172C142.732 325.794 142.494 325.145 141.927 324.732C141.359 324.318 140.669 324.289 140.393 324.668ZM152.36 334.531C152.199 335.036 152.36 335.665 152.719 335.927C153.078 336.188 153.726 336.15 154.158 335.842C154.591 335.534 154.429 334.906 153.799 334.446C153.169 333.986 152.521 334.025 152.36 334.531ZM144.292 330.353C142.953 330.564 142.663 331.597 143.726 332.373C144.293 332.786 144.97 332.834 145.23 332.477C145.863 331.609 145.243 330.204 144.292 330.353ZM135.223 326.903C133.884 327.113 133.594 328.147 134.657 328.922C135.224 329.336 135.901 329.383 136.161 329.026C136.794 328.158 136.174 326.753 135.223 326.903ZM146.939 337.353C146.525 337.921 146.495 338.612 146.873 338.887C147.251 339.163 147.9 338.924 148.314 338.356C148.728 337.788 148.758 337.098 148.38 336.822C148.002 336.546 147.353 336.785 146.939 337.353ZM125.31 323.686C124.896 324.254 124.867 324.945 125.245 325.22C125.623 325.496 126.271 325.257 126.685 324.689C127.1 324.121 127.129 323.431 126.751 323.155C126.373 322.879 125.725 323.118 125.31 323.686ZM138.06 333.162C136.691 333.377 136.387 334.403 137.461 335.186C138.028 335.6 138.831 335.473 139.245 334.905C140.03 333.83 139.428 332.946 138.06 333.162ZM116.242 320.236C115.827 320.804 115.798 321.494 116.176 321.77C116.554 322.046 117.202 321.807 117.617 321.239C118.031 320.671 118.061 319.98 117.682 319.704C117.304 319.429 116.656 319.668 116.242 320.236ZM95.7102 305.787C95.1114 306.032 94.7048 306.767 94.8068 307.421C94.9304 308.215 95.3548 308.463 96.0807 308.167C96.6794 307.922 97.086 307.187 96.9841 306.533C96.8605 305.739 96.4361 305.491 95.7102 305.787ZM128.072 330.008C127.635 330.607 127.733 331.243 128.293 331.421C129.877 331.925 131.17 330.597 129.956 329.712C129.357 329.275 128.51 329.408 128.072 330.008ZM106.8 316.184C106.293 317.77 107.619 319.061 108.506 317.845C108.944 317.245 108.812 316.398 108.213 315.961C107.614 315.525 106.978 315.624 106.8 316.184ZM119.045 326.5C118.585 327.131 118.622 327.779 119.128 327.939C119.633 328.1 120.261 327.938 120.523 327.578C120.786 327.218 120.749 326.57 120.441 326.138C120.134 325.706 119.506 325.868 119.045 326.5ZM97.7309 312.733C97.2247 314.319 98.5507 315.61 99.4375 314.394C99.8749 313.795 99.7429 312.948 99.1441 312.511C98.5454 312.074 97.9094 312.173 97.7309 312.733ZM110.228 322.705C109.951 323.084 110.035 323.619 110.413 323.895C110.791 324.171 111.326 324.086 111.603 323.708C111.879 323.329 111.795 322.794 111.417 322.518C111.039 322.242 110.504 322.326 110.228 322.705Z" fill="#201B19"></path> <path fill-rule="evenodd" clip-rule="evenodd" d="M194.52 121.229C192.963 120.981 188.897 121.182 185.486 121.674C181.448 122.257 177.345 122.086 173.732 121.183C169.024 120.007 168.044 120.053 167.278 121.485C166.556 122.837 166.096 122.918 164.979 121.892C163.915 120.917 162.608 121.033 159.499 122.379C157.18 123.383 153.322 124.048 150.568 123.919C140.773 123.457 136.504 124.958 132.67 130.215C131.372 131.995 128.971 133.781 126.025 135.158C117.563 139.117 115.795 142.099 117.539 149.478C118.21 152.319 118.082 155.124 117.146 158.045C115.458 163.317 115.813 168.257 118.432 175.95C119.594 179.362 120.382 184.497 120.338 188.377C120.256 195.83 120.867 197.608 124.583 200.748C126.587 202.439 127.328 203.935 127.79 207.213C128.411 211.621 131.48 216.492 138.542 224.279C141.747 227.813 142.316 228.134 147.853 229.543C154.552 231.247 156.025 232.126 158.189 235.701C160.176 238.986 160.292 241.301 158.709 246.131C157.67 249.303 157.754 250.723 159.143 253.479C160.908 256.981 160.727 262.13 158.742 264.856C158.161 265.653 157.848 267.685 158.045 269.371C158.246 271.082 157.899 272.764 157.261 273.176C156.634 273.583 154.023 273.158 151.46 272.231C148.351 271.107 144.577 270.692 140.112 270.981C136.432 271.219 131.617 271.024 129.413 270.546C127.207 270.07 122.651 270.143 119.288 270.709C115.925 271.275 110.392 271.337 106.994 270.847C102.427 270.189 99.9058 270.376 97.3341 271.565C93.4402 273.366 90.8261 273.23 86.4663 271.001C84.8354 270.167 83.1035 269.455 82.6187 269.417C82.1339 269.38 79.9734 271.769 77.8175 274.725C74.5629 279.187 73.4119 280.236 71.0377 280.905L68.1778 281.711L67.4685 286.881C66.2568 295.711 66.2757 302.618 67.5207 306.034C68.5272 308.796 69.5671 309.917 74.0935 313.117C78.8153 316.457 79.632 317.374 80.7986 320.639C81.5291 322.684 82.4813 324.616 82.9151 324.932C83.3489 325.249 86.3103 325.736 89.4953 326.016C96.5811 326.638 99.6761 327.788 108.308 333.007C113.931 336.407 116.118 337.24 121.749 338.124C127.767 339.068 129.03 339.584 133.758 343.032L139.04 346.886L141.784 345.221C144.89 343.337 148.247 343.605 155.031 346.277C160.989 348.625 163.447 348.699 167.487 346.649C169.302 345.729 173.902 344.843 177.71 344.68C186.368 344.311 191.143 342.668 198.289 337.601C203.519 333.891 204.3 333.627 209.595 333.76C216.137 333.925 218.752 332.556 223.127 326.68C225.308 323.748 227.854 321.627 232.862 318.566C244.044 311.731 247.648 306.484 251.808 290.981C253.765 283.688 254.277 282.665 259.433 275.776C265.757 267.327 266.655 265.006 269.301 250.282C271.216 239.624 270.64 232.969 267.367 227.921C265.127 224.467 265.168 223.542 267.983 214.164C268.627 212.022 268.812 209.421 268.396 208.383C267.244 205.513 259.384 197.049 258.473 197.699C258.057 197.996 257.244 197.895 256.668 197.475C256.043 197.019 256.062 196.425 256.713 196.003C258.21 195.034 256.222 188.505 254.27 187.978C253.091 187.661 253.084 187.358 254.235 186.512C256.051 185.179 254.714 177.798 251.717 172.606C249.89 169.443 248.61 168.372 238.876 161.875L228.065 154.658L223.89 146.664L219.715 138.67L208.533 130.175C199.51 123.319 196.805 121.593 194.52 121.229ZM205.074 133.472C204.696 133.197 204.726 132.506 205.14 131.938C205.555 131.37 206.203 131.131 206.581 131.407C206.959 131.683 206.929 132.373 206.515 132.941C206.101 133.509 205.453 133.748 205.074 133.472ZM192.568 127.515C192.19 127.239 192.107 126.703 192.383 126.325C192.659 125.946 193.195 125.862 193.573 126.138C193.951 126.413 194.034 126.949 193.758 127.328C193.482 127.706 192.946 127.79 192.568 127.515ZM221.652 148.289C220.765 149.505 219.439 148.214 219.945 146.627C220.124 146.068 220.76 145.968 221.358 146.405C221.957 146.842 222.089 147.689 221.652 148.289ZM186.835 124.545C186.476 124.284 186.314 123.655 186.475 123.149C186.637 122.644 187.284 122.605 187.914 123.065C188.545 123.525 188.706 124.153 188.274 124.461C187.842 124.769 187.194 124.807 186.835 124.545ZM214.251 145.44C213.873 145.164 213.916 144.455 214.346 143.865C214.776 143.275 215.299 143.209 215.506 143.718C215.713 144.228 215.671 144.937 215.411 145.293C215.151 145.65 214.629 145.715 214.251 145.44ZM207.894 142.71C207.389 142.55 207.352 141.902 207.812 141.271C208.273 140.639 208.901 140.477 209.208 140.909C209.516 141.341 209.552 141.989 209.29 142.349C209.028 142.708 208.4 142.871 207.894 142.71ZM201.502 139.488C201.4 138.834 201.806 138.099 202.405 137.854C203.131 137.558 203.556 137.806 203.679 138.6C203.781 139.254 203.374 139.989 202.776 140.234C202.05 140.53 201.625 140.282 201.502 139.488ZM235.087 163.802C234.024 163.027 234.314 161.994 235.653 161.783C236.604 161.634 237.224 163.039 236.591 163.907C236.331 164.263 235.654 164.216 235.087 163.802ZM195.584 137.098C194.521 136.322 194.811 135.289 196.15 135.078C197.101 134.929 197.721 136.334 197.088 137.202C196.828 137.559 196.151 137.511 195.584 137.098ZM229.429 160.73C229.051 160.454 228.967 159.919 229.243 159.54C229.52 159.161 230.055 159.077 230.433 159.353C230.811 159.629 230.895 160.164 230.618 160.543C230.342 160.922 229.807 161.006 229.429 160.73ZM223.427 157.407C223.049 157.131 222.965 156.595 223.242 156.217C223.518 155.838 224.053 155.754 224.431 156.03C224.809 156.306 224.893 156.841 224.616 157.22C224.34 157.598 223.805 157.682 223.427 157.407ZM189.926 134.025C189.548 133.749 189.464 133.214 189.741 132.835C190.017 132.457 190.552 132.372 190.93 132.648C191.308 132.924 191.392 133.459 191.116 133.838C190.839 134.217 190.304 134.301 189.926 134.025ZM217.323 155.064C216.725 154.628 216.593 153.78 217.03 153.181C217.468 152.581 218.103 152.48 218.443 152.958C219.408 154.314 218.538 155.95 217.323 155.064ZM184.821 130.916C183.934 132.132 182.608 130.841 183.114 129.255C183.293 128.695 183.929 128.596 184.527 129.033C185.126 129.469 185.258 130.317 184.821 130.916ZM244.607 176.02C244.229 175.744 244.258 175.054 244.673 174.486C245.087 173.918 245.735 173.679 246.113 173.955C246.492 174.231 246.462 174.921 246.048 175.489C245.633 176.057 244.985 176.296 244.607 176.02ZM177.821 128.36C177.222 127.923 177.09 127.076 177.527 126.476C177.965 125.876 178.6 125.776 178.94 126.254C179.905 127.609 179.035 129.245 177.821 128.36ZM212.505 152.165C211.618 153.38 210.292 152.089 210.798 150.503C210.977 149.943 211.613 149.844 212.212 150.281C212.811 150.718 212.942 151.565 212.505 152.165ZM205.104 149.315C204.726 149.04 204.756 148.349 205.17 147.781C205.584 147.213 206.232 146.974 206.611 147.25C206.989 147.526 206.959 148.216 206.545 148.784C206.13 149.352 205.482 149.591 205.104 149.315ZM238.103 173.385C237.725 173.11 237.754 172.419 238.169 171.851C238.583 171.283 239.231 171.044 239.609 171.32C239.987 171.596 239.958 172.286 239.544 172.854C239.129 173.422 238.481 173.661 238.103 173.385ZM173.002 125.46C172.115 126.676 170.789 125.385 171.296 123.798C171.474 123.239 172.11 123.139 172.709 123.576C173.308 124.013 173.44 124.86 173.002 125.46ZM232.502 170.355C231.903 169.918 231.771 169.071 232.208 168.471C232.646 167.871 233.281 167.771 233.622 168.249C234.586 169.604 233.716 171.24 232.502 170.355ZM198.64 146.71C197.774 146.078 197.937 144.55 198.888 144.4C200.227 144.19 200.817 145.085 200.041 146.149C199.626 146.717 198.997 146.97 198.64 146.71ZM226.443 166.99C225.38 166.215 225.669 165.181 227.009 164.97C227.959 164.821 228.58 166.226 227.946 167.094C227.686 167.451 227.01 167.403 226.443 166.99ZM192.942 143.608C191.879 142.833 192.168 141.799 193.508 141.589C194.458 141.439 195.079 142.844 194.445 143.713C194.185 144.069 193.509 144.022 192.942 143.608ZM221.681 164.132C220.794 165.347 219.468 164.056 219.975 162.47C220.153 161.911 220.789 161.811 221.388 162.248C221.987 162.685 222.119 163.532 221.681 164.132ZM186.94 140.285C186.372 139.871 186.134 139.223 186.411 138.844C186.687 138.466 187.377 138.494 187.944 138.908C188.511 139.322 188.749 139.97 188.473 140.349C188.197 140.727 187.507 140.699 186.94 140.285ZM247.623 185.603C247.056 185.19 246.93 184.386 247.345 183.818C247.759 183.25 248.562 183.124 249.129 183.538C249.696 183.952 249.821 184.755 249.407 185.323C248.993 185.891 248.19 186.017 247.623 185.603ZM180.435 137.65C179.868 137.237 179.743 136.433 180.158 135.865C180.572 135.297 181.375 135.171 181.942 135.585C182.509 135.999 182.634 136.802 182.22 137.37C181.806 137.938 181.003 138.064 180.435 137.65ZM214.28 161.283C213.902 161.007 213.819 160.471 214.095 160.093C214.371 159.714 214.906 159.63 215.285 159.906C215.663 160.181 215.746 160.717 215.47 161.096C215.194 161.474 214.658 161.558 214.28 161.283ZM208.177 158.94C207.578 158.503 207.446 157.656 207.884 157.056C208.321 156.457 208.957 156.356 209.297 156.834C210.261 158.19 209.391 159.826 208.177 158.94ZM241.545 182.383C241.187 182.122 241.025 181.493 241.186 180.987C241.347 180.482 241.995 180.443 242.625 180.903C243.256 181.363 243.417 181.991 242.984 182.299C242.552 182.607 241.904 182.645 241.545 182.383ZM235.501 179.926C234.634 179.293 234.798 177.765 235.748 177.616C237.088 177.405 237.677 178.3 236.901 179.365C236.487 179.933 235.857 180.185 235.501 179.926ZM201.42 155.918C200.915 155.758 200.877 155.11 201.338 154.479C201.798 153.848 202.426 153.685 202.734 154.117C203.041 154.549 203.078 155.198 202.816 155.557C202.554 155.916 201.925 156.079 201.42 155.918ZM229.115 176.322C228.041 175.539 228.345 174.513 229.714 174.298C231.082 174.082 231.683 174.966 230.899 176.042C230.485 176.61 229.682 176.736 229.115 176.322ZM222.954 173.938C222.576 173.662 222.606 172.972 223.02 172.404C223.434 171.836 224.083 171.597 224.461 171.873C224.839 172.149 224.809 172.839 224.395 173.407C223.981 173.975 223.332 174.214 222.954 173.938ZM250.639 195.186C250.26 194.911 250.29 194.22 250.704 193.652C251.119 193.084 251.767 192.845 252.145 193.121C252.523 193.397 252.494 194.087 252.079 194.655C251.665 195.223 251.017 195.462 250.639 195.186ZM217.296 170.866C216.729 170.452 216.491 169.804 216.767 169.425C217.043 169.046 217.733 169.075 218.3 169.489C218.868 169.902 219.106 170.551 218.829 170.929C218.553 171.308 217.863 171.279 217.296 170.866ZM244.293 191.612C243.726 191.199 243.488 190.55 243.764 190.172C244.04 189.793 244.73 189.822 245.297 190.235C245.864 190.649 246.102 191.297 245.826 191.676C245.55 192.055 244.86 192.026 244.293 191.612ZM238.28 189.134C237.775 188.973 237.738 188.326 238.198 187.694C238.659 187.063 239.287 186.901 239.594 187.333C239.901 187.765 239.938 188.413 239.676 188.772C239.414 189.132 238.786 189.295 238.28 189.134ZM265.975 209.537C264.912 208.762 265.202 207.729 266.541 207.518C267.492 207.369 268.112 208.774 267.479 209.642C267.219 209.998 266.542 209.951 265.975 209.537ZM232.13 185.905C231.752 185.629 231.782 184.939 232.196 184.371C232.61 183.803 233.259 183.564 233.637 183.84C234.015 184.116 233.985 184.806 233.571 185.374C233.157 185.942 232.509 186.181 232.13 185.905ZM259.855 207.183C258.988 206.551 259.152 205.022 260.102 204.873C261.442 204.662 262.032 205.558 261.255 206.622C260.841 207.19 260.211 207.443 259.855 207.183ZM226.472 182.833C225.905 182.419 225.667 181.771 225.943 181.392C226.219 181.013 226.909 181.042 227.477 181.456C228.044 181.869 228.282 182.518 228.006 182.896C227.729 183.275 227.039 183.246 226.472 182.833ZM254.156 204.081C253.094 203.306 253.383 202.272 254.723 202.062C255.673 201.912 256.293 203.317 255.66 204.185C255.4 204.542 254.724 204.495 254.156 204.081ZM247.309 201.195C246.93 200.92 246.96 200.229 247.374 199.661C247.789 199.093 248.437 198.854 248.815 199.13C249.193 199.406 249.164 200.096 248.749 200.664C248.335 201.232 247.687 201.471 247.309 201.195ZM241.65 198.123C240.587 197.348 240.877 196.314 242.216 196.104C243.167 195.954 243.787 197.359 243.154 198.227C242.894 198.584 242.217 198.537 241.65 198.123ZM235.573 194.903C235.214 194.641 235.052 194.013 235.214 193.507C235.375 193.001 236.022 192.963 236.653 193.423C237.283 193.883 237.444 194.511 237.012 194.819C236.58 195.127 235.932 195.165 235.573 194.903ZM262.731 216.422C262.172 216.244 262.073 215.608 262.511 215.009C262.948 214.409 263.795 214.276 264.394 214.713C265.608 215.598 264.316 216.927 262.731 216.422ZM256.828 213.413C255.755 212.63 256.059 211.604 257.427 211.389C258.796 211.174 259.397 212.057 258.613 213.133C258.199 213.701 257.396 213.827 256.828 213.413ZM250.324 210.779C249.757 210.365 249.632 209.562 250.046 208.994C250.461 208.426 251.264 208.299 251.831 208.713C252.398 209.127 252.523 209.93 252.109 210.498C251.694 211.066 250.892 211.192 250.324 210.779ZM244.707 207.736C243.84 207.103 244.003 205.575 244.954 205.426C246.293 205.215 246.883 206.11 246.107 207.175C245.693 207.743 245.063 207.995 244.707 207.736ZM259.992 222.902C259.487 222.741 259.45 222.094 259.91 221.462C260.371 220.831 260.999 220.669 261.306 221.101C261.613 221.533 261.65 222.181 261.388 222.54C261.126 222.9 260.497 223.063 259.992 222.902ZM254.739 219.888C253.852 221.103 252.526 219.812 253.033 218.226C253.211 217.666 253.847 217.567 254.446 218.004C255.045 218.441 255.177 219.288 254.739 219.888ZM195.805 316.567C195.427 316.292 195.456 315.601 195.871 315.033C196.285 314.465 196.933 314.226 197.311 314.502C197.689 314.778 197.66 315.468 197.245 316.036C196.831 316.604 196.183 316.843 195.805 316.567ZM198.608 322.831C198.23 322.556 198.26 321.865 198.674 321.297C199.088 320.729 199.737 320.49 200.115 320.766C200.493 321.042 200.463 321.732 200.049 322.3C199.635 322.868 198.986 323.107 198.608 322.831ZM189.54 319.381C189.161 319.105 189.191 318.414 189.605 317.847C190.02 317.279 190.668 317.039 191.046 317.315C191.424 317.591 191.395 318.281 190.98 318.849C190.566 319.417 189.918 319.656 189.54 319.381ZM192.587 325.581C192.028 325.403 191.93 324.767 192.367 324.168C192.805 323.568 193.652 323.435 194.251 323.872C195.465 324.757 194.172 326.086 192.587 325.581ZM183.274 322.194C182.896 321.918 182.926 321.228 183.34 320.66C183.755 320.092 184.403 319.853 184.781 320.129C185.159 320.404 185.129 321.095 184.715 321.663C184.301 322.231 183.653 322.47 183.274 322.194ZM186.422 328.709C185.359 327.934 185.648 326.9 186.988 326.689C187.938 326.54 188.559 327.945 187.926 328.813C187.665 329.17 186.989 329.123 186.422 328.709ZM177.009 325.007C176.631 324.732 176.661 324.041 177.075 323.473C177.489 322.905 178.138 322.666 178.516 322.942C178.894 323.218 178.864 323.908 178.45 324.476C178.036 325.044 177.387 325.283 177.009 325.007ZM167.941 321.557C167.562 321.281 167.592 320.591 168.006 320.023C168.421 319.455 169.069 319.216 169.447 319.491C169.825 319.767 169.796 320.458 169.381 321.026C168.967 321.594 168.319 321.833 167.941 321.557ZM180.157 331.522C179.083 330.739 179.387 329.713 180.756 329.498C182.124 329.283 182.726 330.166 181.941 331.242C181.527 331.81 180.724 331.936 180.157 331.522ZM170.892 327.726C170.387 327.565 170.349 326.918 170.81 326.287C171.27 325.655 171.898 325.493 172.206 325.925C172.513 326.357 172.551 327.005 172.288 327.365C172.025 327.725 171.397 327.887 170.892 327.726ZM161.675 324.37C161.297 324.094 161.327 323.404 161.741 322.836C162.155 322.268 162.804 322.029 163.182 322.305C163.56 322.581 163.53 323.271 163.116 323.839C162.702 324.407 162.054 324.646 161.675 324.37ZM174.235 334.586C173.857 334.311 173.887 333.62 174.301 333.052C174.715 332.484 175.364 332.245 175.742 332.521C176.12 332.797 176.09 333.487 175.676 334.055C175.262 334.623 174.613 334.862 174.235 334.586ZM166.566 330.662C165.679 331.877 164.353 330.586 164.859 329C165.037 328.441 165.673 328.341 166.272 328.778C166.871 329.215 167.003 330.062 166.566 330.662ZM156.181 326.849C155.822 326.587 155.66 325.959 155.821 325.453C155.983 324.947 156.63 324.909 157.261 325.369C157.891 325.829 158.052 326.457 157.62 326.765C157.188 327.073 156.54 327.111 156.181 326.849ZM168.118 337.305C167.613 337.144 167.575 336.497 168.036 335.866C168.496 335.234 169.124 335.072 169.432 335.504C169.739 335.936 169.777 336.584 169.514 336.944C169.251 337.304 168.623 337.466 168.118 337.305ZM158.901 333.949C158.523 333.673 158.553 332.983 158.967 332.415C159.381 331.847 160.03 331.608 160.408 331.884C160.786 332.159 160.756 332.85 160.342 333.418C159.928 333.986 159.279 334.225 158.901 333.949ZM149.991 329.559C149.424 329.145 149.186 328.497 149.462 328.119C149.738 327.74 150.428 327.769 150.995 328.182C151.563 328.596 151.801 329.244 151.524 329.623C151.248 330.002 150.558 329.973 149.991 329.559ZM161.705 340.213C161.327 339.937 161.356 339.247 161.771 338.679C162.185 338.111 162.833 337.872 163.211 338.148C163.59 338.423 163.56 339.114 163.146 339.682C162.731 340.25 162.083 340.489 161.705 340.213ZM140.922 326.109C140.355 325.695 140.117 325.047 140.393 324.668C140.669 324.289 141.359 324.318 141.927 324.732C142.494 325.145 142.732 325.794 142.456 326.172C142.179 326.551 141.489 326.522 140.922 326.109ZM152.719 335.927C152.36 335.665 152.199 335.036 152.36 334.531C152.521 334.025 153.169 333.986 153.799 334.446C154.429 334.906 154.591 335.534 154.158 335.842C153.726 336.15 153.078 336.188 152.719 335.927ZM143.726 332.373C142.663 331.597 142.953 330.564 144.292 330.353C145.243 330.204 145.863 331.609 145.23 332.477C144.97 332.834 144.293 332.786 143.726 332.373ZM134.657 328.922C133.594 328.147 133.884 327.113 135.223 326.903C136.174 326.753 136.794 328.158 136.161 329.026C135.901 329.383 135.224 329.336 134.657 328.922ZM146.873 338.887C146.495 338.612 146.525 337.921 146.939 337.353C147.353 336.785 148.002 336.546 148.38 336.822C148.758 337.098 148.728 337.788 148.314 338.356C147.9 338.924 147.251 339.163 146.873 338.887ZM125.245 325.22C124.867 324.945 124.896 324.254 125.31 323.686C125.725 323.118 126.373 322.879 126.751 323.155C127.129 323.431 127.1 324.121 126.685 324.689C126.271 325.257 125.623 325.496 125.245 325.22ZM137.461 335.186C136.387 334.403 136.691 333.377 138.06 333.162C139.428 332.946 140.03 333.83 139.245 334.905C138.831 335.473 138.028 335.6 137.461 335.186ZM116.176 321.77C115.798 321.494 115.827 320.804 116.242 320.236C116.656 319.668 117.304 319.429 117.682 319.704C118.061 319.98 118.031 320.671 117.617 321.239C117.202 321.807 116.554 322.046 116.176 321.77ZM94.8068 307.421C94.7048 306.767 95.1114 306.032 95.7102 305.787C96.4361 305.491 96.8605 305.739 96.9841 306.533C97.086 307.187 96.6794 307.922 96.0807 308.167C95.3548 308.463 94.9304 308.215 94.8068 307.421ZM128.293 331.421C127.733 331.243 127.635 330.607 128.072 330.008C128.51 329.408 129.357 329.275 129.956 329.712C131.17 330.597 129.877 331.925 128.293 331.421ZM108.506 317.845C107.619 319.061 106.293 317.77 106.8 316.184C106.978 315.624 107.614 315.525 108.213 315.961C108.812 316.398 108.944 317.245 108.506 317.845ZM119.128 327.939C118.622 327.779 118.585 327.131 119.045 326.5C119.506 325.868 120.134 325.706 120.441 326.138C120.749 326.57 120.786 327.218 120.523 327.578C120.261 327.938 119.633 328.1 119.128 327.939ZM99.4375 314.394C98.5507 315.61 97.2247 314.319 97.7309 312.733C97.9094 312.173 98.5454 312.074 99.1441 312.511C99.7429 312.948 99.8749 313.795 99.4375 314.394ZM110.413 323.895C110.035 323.619 109.951 323.084 110.228 322.705C110.504 322.326 111.039 322.242 111.417 322.518C111.795 322.794 111.879 323.329 111.603 323.708C111.326 324.086 110.791 324.171 110.413 323.895Z" fill="#FAF5E5"></path> <path fill-rule="evenodd" clip-rule="evenodd" d="M282.009 25.1112C280.781 24.8086 277.29 25.0473 274.249 25.6423C270.26 26.4223 267.69 26.3264 265.022 25.2957C259.298 23.0851 258.797 23.17 253.89 27.1743C248.337 31.7067 243.885 33.7333 234.936 35.8062C229.594 37.0433 227.005 38.2428 222.596 41.522C217.775 45.108 216.155 45.7905 210.686 46.5362L204.357 47.4L202.938 51.1979C201.535 54.9544 201.43 55.0415 193.537 59.1026C185.903 63.0302 185.509 63.3486 184.519 66.4196C183.95 68.1858 181.903 71.5857 179.971 73.9752C171.06 84.9918 168.991 89.0996 168.491 96.7679C168.213 101.035 166.85 103.376 161.494 108.78C158.59 111.709 158.33 112.303 158.403 115.832L158.483 119.684L161.848 118.477C165.619 117.125 170.215 117.256 175.617 118.871C177.614 119.468 182.145 119.568 185.685 119.09C196.172 117.68 196.543 117.817 210.136 128.122L221.937 137.068L226.101 145.076L230.266 153.085L240.668 159.98C254.329 169.036 255.052 170.02 257.638 183.101C259.704 193.544 260.286 194.718 266.906 201.778C271.392 206.562 272.101 209.953 270.026 216.712C268.556 221.503 268.545 222.451 269.952 223.262C271.082 223.913 271.33 224.591 270.746 225.424C270.274 226.096 270.646 228.44 271.582 230.685C273.024 234.148 273.662 240.278 273.09 245.183C272.964 246.261 273.759 246.611 277.211 246.995C279.563 247.258 284.304 248.485 287.746 249.722C293.53 251.802 294.645 251.859 302.458 250.49C307.108 249.675 312.692 249.01 314.868 249.013C320.792 249.021 324.729 246.671 329.306 240.396C332.264 236.34 334.288 234.425 338.232 231.949C342.748 229.115 343.654 228.181 346.126 223.815C347.662 221.103 350.135 217.397 351.621 215.58C353.107 213.763 356.099 209.915 358.268 207.029C362.146 201.869 362.202 201.706 361.598 197.328C361.228 194.65 361.558 191.405 362.424 189.187C364.387 184.157 365.056 179.24 364.09 176.931C363.645 175.87 361.585 173.876 359.485 172.475C356.674 170.6 354.784 168.493 352.224 164.387L348.764 158.836L341.198 154.718C335.166 151.435 332.668 149.641 328.867 145.864C323.572 140.602 322.252 139.976 317.601 140.52C314.983 140.827 313.654 140.379 310.341 138.073C306.745 135.569 305.211 135.144 296.79 134.319C286.947 133.355 285.134 133.659 280.23 137.085C276.314 139.822 270.285 140.682 266.766 139.007C264.549 137.951 263.376 136.624 261.369 132.897C258.911 128.334 258.682 128.118 255.859 127.685C251.786 127.059 250.918 126.246 248.462 120.751C247.283 118.111 245.872 115.918 245.328 115.877C244.784 115.835 243.949 114.991 243.473 114.001C242.466 111.909 243.833 110.558 248.993 108.551C251.349 107.634 253.483 105.87 256.448 102.386C258.733 99.7024 262.48 96.2836 264.773 94.7881C267.948 92.7202 269.467 91.1436 271.133 88.1894C272.766 85.2923 274.646 83.3089 278.545 80.3706C282.581 77.3287 284.228 75.568 285.784 72.6287C288.975 66.6017 289.952 65.6485 294.515 64.0991C296.879 63.2967 298.965 62.0802 299.149 61.3965C299.335 60.7121 298.907 57.7799 298.199 54.8789C297.194 50.7635 297.245 48.8892 298.428 46.345L299.944 43.0853L295.303 37.2734C289.544 30.0604 284.92 25.8295 282.009 25.1112ZM274.243 41.5334C273.865 41.2576 273.895 40.5672 274.309 39.9992C274.723 39.4313 275.372 39.1922 275.75 39.468C276.128 39.7438 276.098 40.4342 275.684 41.0022C275.27 41.5702 274.621 41.8092 274.243 41.5334ZM268.241 38.2102C267.863 37.9344 267.78 37.3989 268.056 37.0203C268.332 36.6416 268.867 36.5575 269.246 36.8333C269.624 37.1091 269.707 37.6445 269.431 38.0232C269.155 38.4018 268.619 38.486 268.241 38.2102ZM259.178 41.2501C258.819 40.9883 258.657 40.3598 258.818 39.8541C258.98 39.3484 259.627 39.3101 260.257 39.7699C260.888 40.2298 261.049 40.8578 260.617 41.1659C260.185 41.474 259.537 41.5119 259.178 41.2501ZM252.749 38.5121C252.182 38.0984 251.944 37.4501 252.22 37.0715C252.496 36.6928 253.186 36.7215 253.753 37.1352C254.32 37.5489 254.558 38.1972 254.282 38.5758C254.006 38.9545 253.316 38.9258 252.749 38.5121ZM249.419 44.5212C248.356 43.746 248.646 42.7125 249.985 42.5019C250.936 42.3525 251.556 43.7574 250.923 44.6256C250.663 44.9822 249.986 44.9349 249.419 44.5212ZM243.342 41.3013C242.983 41.0395 242.821 40.4109 242.982 39.9053C243.144 39.3996 243.791 39.3613 244.421 39.8211C245.052 40.281 245.213 40.909 244.781 41.2171C244.349 41.5252 243.701 41.5631 243.342 41.3013ZM240.087 47.2072C239.52 46.7935 239.282 46.1452 239.558 45.7665C239.834 45.3879 240.524 45.4165 241.091 45.8302C241.659 46.2439 241.897 46.8922 241.62 47.2709C241.344 47.6495 240.654 47.6209 240.087 47.2072ZM233.583 44.5724C232.52 43.7972 232.809 42.7636 234.149 42.5531C235.1 42.4037 235.72 43.8086 235.087 44.6768C234.827 45.0334 234.15 44.9861 233.583 44.5724ZM230.637 50.8619C229.77 50.2295 229.934 48.7013 230.885 48.5519C232.224 48.3414 232.814 49.2367 232.037 50.3011C231.623 50.869 230.993 51.1216 230.637 50.8619ZM224.241 48.103C223.735 47.9422 223.698 47.2947 224.158 46.6634C224.619 46.0321 225.247 45.87 225.554 46.3019C225.862 46.7339 225.899 47.3821 225.636 47.7415C225.374 48.1009 224.746 48.2637 224.241 48.103ZM227.415 56.7468C226.91 56.5861 226.872 55.9386 227.333 55.3073C227.793 54.6759 228.421 54.5138 228.728 54.9458C229.036 55.3778 229.073 56.026 228.811 56.3854C228.549 56.7448 227.92 56.9076 227.415 56.7468ZM221.666 53.8106C221.067 53.3738 220.935 52.5266 221.372 51.9269C221.81 51.3273 222.445 51.2267 222.786 51.7048C223.75 53.0599 222.88 54.6961 221.666 53.8106ZM214.909 50.7889C214.403 50.6282 214.366 49.9806 214.826 49.3493C215.287 48.718 215.915 48.5559 216.222 48.9879C216.53 49.4199 216.567 50.0681 216.305 50.4274C216.042 50.7868 215.414 50.9496 214.909 50.7889ZM218.279 59.7781C217.216 59.0028 217.505 57.9693 218.845 57.7587C219.795 57.6093 220.416 59.0143 219.782 59.8824C219.522 60.239 218.846 60.1918 218.279 59.7781ZM212.201 56.5581C211.842 56.2964 211.681 55.6678 211.842 55.1621C212.003 54.6565 212.651 54.6181 213.281 55.078C213.911 55.5378 214.073 56.1659 213.64 56.474C213.208 56.7821 212.56 56.8199 212.201 56.5581ZM215.292 66.0379C214.914 65.7621 214.944 65.0718 215.358 64.5038C215.772 63.9358 216.421 63.6967 216.799 63.9725C217.177 64.2483 217.147 64.9387 216.733 65.5067C216.319 66.0747 215.671 66.3137 215.292 66.0379ZM208.871 62.5673C208.513 62.3055 208.351 61.6769 208.512 61.1713C208.673 60.6656 209.321 60.6272 209.951 61.0871C210.581 61.5469 210.743 62.175 210.31 62.4831C209.878 62.7912 209.23 62.829 208.871 62.5673ZM202.827 60.1096C201.96 59.4772 202.124 57.9491 203.074 57.7996C204.414 57.5891 205.003 58.4844 204.227 59.5488C203.813 60.1167 203.183 60.3693 202.827 60.1096ZM212.733 71.7126C212.374 71.4509 212.212 70.8223 212.374 70.3166C212.535 69.8109 213.182 69.7726 213.813 70.2324C214.443 70.6923 214.604 71.3203 214.172 71.6284C213.74 71.9365 213.092 71.9744 212.733 71.7126ZM206.304 68.9746C205.737 68.5609 205.499 67.9126 205.775 67.534C206.051 67.1553 206.741 67.184 207.309 67.5977C207.876 68.0114 208.114 68.6597 207.838 69.0383C207.561 69.417 206.871 69.3883 206.304 68.9746ZM199.456 66.0891C199.078 65.8133 199.108 65.123 199.522 64.555C199.936 63.987 200.585 63.748 200.963 64.0238C201.341 64.2996 201.311 64.9899 200.897 65.5579C200.483 66.1259 199.834 66.3649 199.456 66.0891ZM209.822 77.8692C209.444 77.5934 209.474 76.903 209.888 76.3351C210.302 75.7671 210.951 75.528 211.329 75.8038C211.707 76.0796 211.677 76.77 211.263 77.338C210.849 77.906 210.2 78.145 209.822 77.8692ZM203.359 75.264C202.492 74.6317 202.655 73.1035 203.606 72.9541C204.945 72.7435 205.535 73.6389 204.759 74.7032C204.344 75.2712 203.715 75.5238 203.359 75.264ZM196.897 71.7638C196.538 71.502 196.376 70.8735 196.538 70.3678C196.699 69.8621 197.346 69.8238 197.977 70.2836C198.607 70.7434 198.768 71.3715 198.336 71.6796C197.904 71.9877 197.256 72.0256 196.897 71.7638ZM200.834 80.8059C200.267 80.3922 200.029 79.7439 200.305 79.3652C200.581 78.9866 201.271 79.0152 201.838 79.4289C202.406 79.8426 202.644 80.4909 202.367 80.8696C202.091 81.2482 201.401 81.2196 200.834 80.8059ZM193.708 77.4357C193.647 77.043 194.125 76.5058 194.771 76.2421C195.716 75.8558 195.879 75.9741 195.601 76.8431C195.205 78.0841 193.874 78.5007 193.708 77.4357ZM197.494 87.6596C196.988 87.4989 196.951 86.8514 197.411 86.22C197.872 85.5887 198.5 85.4266 198.807 85.8586C199.115 86.2906 199.152 86.9388 198.89 87.2982C198.627 87.6575 197.999 87.8204 197.494 87.6596ZM191 84.1802C190.433 83.7665 190.308 82.9634 190.722 82.3954C191.136 81.8274 191.939 81.7012 192.506 82.1149C193.074 82.5286 193.199 83.3318 192.784 83.8998C192.37 84.4677 191.567 84.5939 191 84.1802ZM194.862 93.3256C194.294 92.9119 194.056 92.2636 194.333 91.8849C194.609 91.5063 195.299 91.535 195.866 91.9487C196.433 92.3624 196.671 93.0107 196.395 93.3893C196.119 93.768 195.429 93.7393 194.862 93.3256ZM188.415 90.7325C187.816 90.2957 187.684 89.4485 188.121 88.8488C188.559 88.2492 189.194 88.1486 189.534 88.6267C190.499 89.9818 189.629 91.618 188.415 90.7325ZM191.532 99.3347C190.965 98.921 190.726 98.2727 191.003 97.8941C191.279 97.5154 191.969 97.5441 192.536 97.9578C193.103 98.3715 193.341 99.0198 193.065 99.3985C192.789 99.7771 192.099 99.7484 191.532 99.3347ZM185.454 96.1148C185.096 95.853 184.934 95.2245 185.095 94.7188C185.256 94.2131 185.904 94.1748 186.534 94.6346C187.164 95.0944 187.326 95.7225 186.893 96.0306C186.461 96.3387 185.813 96.3766 185.454 96.1148ZM317.718 234.623C317.34 234.347 317.37 233.657 317.784 233.089C318.198 232.521 318.847 232.282 319.225 232.557C319.603 232.833 319.573 233.524 319.159 234.092C318.745 234.66 318.096 234.899 317.718 234.623ZM311.426 235.307C310.363 234.532 310.653 233.498 311.992 233.288C312.943 233.138 313.563 234.543 312.93 235.411C312.67 235.768 311.993 235.721 311.426 235.307ZM297.033 229.879C296.527 229.719 296.49 229.071 296.95 228.44C297.411 227.808 298.039 227.646 298.346 228.078C298.654 228.51 298.691 229.159 298.428 229.518C298.166 229.877 297.538 230.04 297.033 229.879ZM306.031 236.206C305.144 237.422 303.818 236.131 304.325 234.544C304.503 233.985 305.139 233.885 305.738 234.322C306.337 234.759 306.469 235.606 306.031 236.206ZM290.593 230.658C289.53 229.883 289.819 228.849 291.159 228.639C292.109 228.489 292.73 229.894 292.096 230.763C291.836 231.119 291.16 231.072 290.593 230.658ZM298.144 237.019C297.639 236.858 297.602 236.211 298.062 235.579C298.523 234.948 299.151 234.786 299.458 235.218C299.765 235.65 299.802 236.298 299.54 236.657C299.278 237.017 298.65 237.18 298.144 237.019ZM307.143 243.345C306.256 244.561 304.93 243.27 305.436 241.684C305.615 241.124 306.251 241.025 306.85 241.462C307.448 241.898 307.58 242.746 307.143 243.345ZM283.882 231.195C283.522 230.933 283.361 230.305 283.522 229.799C283.684 229.293 284.331 229.255 284.961 229.715C285.592 230.175 285.753 230.803 285.321 231.111C284.888 231.419 284.241 231.457 283.882 231.195ZM291.017 237.296C290.45 236.883 290.212 236.234 290.488 235.856C290.764 235.477 291.454 235.506 292.021 235.919C292.588 236.333 292.827 236.981 292.55 237.36C292.274 237.739 291.584 237.71 291.017 237.296ZM298.764 244.002C297.702 243.227 297.991 242.193 299.331 241.983C300.281 241.833 300.901 243.238 300.268 244.107C300.008 244.463 299.332 244.416 298.764 244.002ZM277.246 231.629C276.886 231.366 276.725 230.738 276.886 230.233C277.048 229.727 277.695 229.689 278.326 230.148C278.956 230.608 279.117 231.236 278.685 231.544C278.253 231.852 277.605 231.891 277.246 231.629ZM284.725 237.981C284.347 237.705 284.263 237.169 284.54 236.791C284.816 236.412 285.351 236.328 285.729 236.604C286.107 236.879 286.191 237.415 285.915 237.794C285.638 238.172 285.103 238.256 284.725 237.981ZM292.129 244.436C291.066 243.661 291.355 242.627 292.695 242.416C293.645 242.267 294.266 243.672 293.632 244.54C293.372 244.897 292.696 244.849 292.129 244.436ZM277.628 239.132C276.761 238.5 276.924 236.972 277.875 236.822C279.214 236.612 279.804 237.507 279.028 238.571C278.613 239.139 277.984 239.392 277.628 239.132ZM278.355 245.991C277.292 245.216 277.582 244.183 278.921 243.972C279.872 243.823 280.492 245.228 279.859 246.096C279.599 246.452 278.922 246.405 278.355 245.991Z" fill="#FAF5E5"></path> <path d="M350.324 5.09652C333.823 2.3764 322.623 2.91979 312.379 6.94012C303.762 10.3212 298.576 13.9121 293.339 20.1236L288.888 25.4025L295.289 33.0638C303.412 42.787 303.593 43.1705 301.465 46.0882C300.03 48.0551 299.936 49.6139 300.896 55.5327C302.133 63.1657 301.547 64.929 297.384 66.1021L294.715 66.8551L297.76 71.0015C300.105 74.1925 302.877 76.6362 309.789 81.6053C320.551 89.3424 321.779 89.6613 335.957 88.3969C346.322 87.4728 355.698 84.477 361.142 80.3499L364.469 77.8277L360.153 71.9763C349.481 57.5053 333.2 49.0071 320.864 51.468C315.034 52.6313 303.855 52.585 302.217 51.3905C300.211 49.9272 302.749 49.0132 307.543 49.4739C318.487 50.5244 329.906 46.8151 337.831 39.6331C343.465 34.5284 349.919 24.1157 353.127 14.9556C356.102 6.45741 355.981 6.02913 350.324 5.09652Z" fill="#FAF5E5"></path> <path d="M362.603 25.726C360.703 24.7117 357.787 23.9327 356.123 23.995L353.096 24.1069L346.05 33.4973C340.112 41.4109 338.329 43.3107 334.721 45.5663C332.365 47.0386 330.406 48.2883 330.365 48.3434C330.324 48.398 332.673 49.2406 335.581 50.2157C338.491 51.1907 343.375 53.5505 346.435 55.4595L351.998 58.9314L355.938 56.5976C361.339 53.3977 368.982 46.9738 373.748 41.6294L377.722 37.174L374.358 34.0408C370.525 30.4711 367.549 28.366 362.603 25.726Z" fill="#FAF5E5"></path> <path d="M37.4369 232.788C31.4626 231.298 25.2355 230.701 17.6998 230.893C14.1977 230.982 10.8965 231.04 10.3647 231.022C8.84503 230.968 8.98744 239.584 10.6237 246.699C11.661 251.211 12.8289 253.89 14.4843 255.555C16.8247 257.909 17.0168 257.918 28.0938 256.256C36.3803 255.012 40.6898 254.879 44.5094 255.747C47.3579 256.395 49.8171 256.76 49.9729 256.56C50.1287 256.359 49.1956 254.178 47.8995 251.713C46.6033 249.248 44.8014 244.274 43.8951 240.661C42.9882 237.048 42.1429 234.043 42.0172 233.983C41.8908 233.922 39.8301 233.384 37.4369 232.788Z" fill="#FAF5E5"></path> <path d="M60.5036 215.282C55.1431 212.928 48.0664 211.547 47.2308 212.693C46.937 213.096 46.2553 217.107 45.7155 221.609C44.4544 232.126 46.3931 243.304 50.9299 251.674C53.8321 257.029 54.8692 258.199 60.8149 262.824C68.5188 268.815 73.0745 274.007 71.9642 275.53C71.4067 276.294 70.7981 276.099 69.6161 274.778C68.7389 273.797 66.2559 271.165 64.0993 268.931C52.0748 256.471 32.3514 254.467 12.3296 263.671C7.82572 265.742 3.90254 267.762 3.61178 268.161C2.1635 270.146 13.1095 284.251 21.6183 291.365C28.9681 297.508 39.1713 302.179 47.1693 303.062C52.4049 303.64 62.4343 303.034 63.1163 302.099C63.3332 301.802 63.8785 297.156 64.3281 291.774C64.7772 286.393 65.5699 281.408 66.0892 280.696C66.6084 279.984 68.227 279.065 69.6853 278.654C71.8505 278.043 73.0976 276.864 76.4762 272.232C80.9848 266.051 81.7093 265.694 85.9408 267.581L88.5353 268.737L89.3378 263.089C90.1867 257.11 87.8105 240.376 85.437 235.618C84.0601 232.857 74.7771 224.043 68.8527 219.871C66.9395 218.523 63.1823 216.459 60.5036 215.282Z" fill="#FAF5E5"></path> </svg> 