<?xml version="1.0" encoding="UTF-8"?> <svg xmlns="http://www.w3.org/2000/svg" width="343" height="346" viewBox="0 0 343 346" fill="none"> <path d="M165.775 63.4774C163.535 59.663 164.036 58.5676 181.157 29.8839C190.889 13.5774 199.019 0.192585 199.224 0.141571C199.428 0.0905612 200.795 5.34317 202.26 11.8158L204.927 23.5821L201.636 13.8548L198.347 4.12714L197.299 13.4291C196.578 19.8366 197.154 27.4289 199.149 37.8303C200.743 46.1347 202.374 55.3597 202.773 58.331C203.452 63.371 203.689 63.6026 206.331 61.8018C207.889 60.7415 209.211 58.2391 209.27 56.2415C209.374 52.661 209.391 52.6642 210.467 56.3847C211.331 59.3728 210.57 61.0919 206.813 64.6305C197.966 72.9639 196.478 88.1181 203.695 96.3967C208.795 102.248 212.668 104.319 219.53 104.863C230.512 105.734 247.303 98.823 251.23 91.8153C252.549 89.4615 254.227 87.3873 254.959 87.2049C255.69 87.0225 255.084 88.4724 253.612 90.4275L250.934 93.9806L254.68 93.871C260.853 93.69 294.898 89.316 298.623 88.2247L302.08 87.2139L298.244 86.9632C294.672 86.7295 294.743 86.6061 299.305 85.1633C304.08 83.652 304.014 83.6112 296.641 83.561C285.412 83.4834 292.895 81.8924 318.861 78.8347C331.362 77.3625 341.751 76.1184 341.946 76.0699C342.141 76.0213 342.445 76.5573 342.62 77.261C342.91 78.4228 340.716 80.2203 333.219 84.964C331.785 85.8715 332.529 84.767 334.871 82.5089C337.215 80.2523 338.713 78.4805 338.202 78.5733C337.69 78.6661 330.999 81.006 323.335 83.7722C310.031 88.5725 308.455 89.5804 288.686 105.89C277.294 115.288 268.121 123.485 268.302 124.106C268.484 124.727 270.486 125.983 272.752 126.899C276.789 128.53 277.068 128.406 286.523 120.816C291.831 116.557 296.461 113.243 296.812 113.454C297.165 113.664 292.933 117.435 287.41 121.832L277.369 129.826L269.812 127.949C264.501 126.628 260.025 126.626 254.744 127.942C245.237 130.312 241.933 132.636 235.975 141.147L231.187 147.99L235.023 141.076C237.132 137.273 238.852 132.39 238.845 130.223C238.831 125.691 234.345 116.979 230.309 113.644C227.783 111.557 227.744 111.855 229.85 117.19C232.027 122.704 232.711 135.78 230.917 137.617C230.46 138.085 229.505 134.896 228.795 130.533C227.169 120.546 221.919 112.746 212.258 105.963C203.612 99.8906 200.876 96.9998 197.973 90.8616L195.74 86.1443L196.737 90.8411C197.286 93.4241 199.29 97.6711 201.19 100.279L204.645 105.02L200.962 102.171C198.937 100.604 196.291 96.856 195.084 93.842C191.796 85.6418 187.353 67.8975 187.008 61.5901C186.765 57.1514 186.188 55.9678 184.142 55.7182C182.733 55.5466 180.719 56.6167 179.666 58.0966C174.259 65.6962 174.824 62.8447 181.166 50.5248C191.731 30.0057 192.737 27.5277 187.276 35.4978C175.397 52.8369 168.822 64.33 169.417 66.7177C170.479 70.9751 168.674 79.2182 165.216 85.9069C163.421 89.3769 162.502 92.7507 163.173 93.4031C163.843 94.0558 168.805 95.6924 174.201 97.0387C179.595 98.3853 183.381 99.8872 182.612 100.374C181.843 100.863 179.773 100.899 178.01 100.456C176.248 100.012 170.311 100.77 164.817 102.14C153.251 105.023 143.604 111.042 134.619 120.98C127.825 128.497 127.638 125.398 134.306 115.793C137.778 110.793 137.927 110.155 135.246 111.757C130.821 114.403 124.166 121.054 120.345 126.649C116.583 132.16 117.075 129.317 121.547 119.706C123.292 115.956 127.422 110.204 130.726 106.923L136.734 100.959L129.403 99.3901C120.663 97.5184 110.036 99.7033 104.586 104.49L100.763 107.849L102.8 102.675C105.309 96.3084 103.709 96.3953 99.6343 102.848C95.9268 108.715 96.0671 109.405 101.803 113.554C107.83 117.913 112.249 126.069 112.742 133.749C112.992 137.639 112.673 138.896 111.871 137.186C105.532 123.674 99.982 118.692 88.3002 116.029L80.9064 114.344L70.8481 96.8955C65.3159 87.2974 60.9777 79.1345 61.2061 78.7551C61.4346 78.3757 66.158 85.7646 71.7043 95.1768L81.7871 112.288L86.4601 111.123C89.031 110.483 91.0153 109.48 90.8696 108.896C90.7242 108.313 85.9551 100.516 80.2719 91.5721C70.3667 75.9851 62.0719 67.4884 52.2184 62.8399C46.573 60.1757 52.5679 61.2867 70.7523 66.274C81.2582 69.1551 95.1183 72.8788 101.555 74.5488C107.99 76.2173 113.425 78.2651 113.633 79.0993C113.846 79.9561 112.705 79.9785 111.003 79.1489C105.48 76.4574 63.7183 65.5607 61.2667 66.1718C60.7807 66.2929 62.635 68.0336 65.3877 70.0417C70.913 74.0708 112.724 85.7961 112.937 83.3771C113.199 80.4415 115.08 81.4658 116.324 85.2211C118.225 90.9597 121.76 94.2571 128.908 96.9536C142.345 102.026 158.225 95.5299 164.887 82.2383C168.858 74.3128 169.103 69.1437 165.775 63.4774Z" fill="#FA1B7A"></path> <path d="M206.331 34.9101C206.429 36.751 205.793 35.383 204.918 31.8718C204.043 28.3606 203.962 26.8544 204.739 28.5261C205.515 30.1981 206.231 33.0694 206.331 34.9101Z" fill="#FA1B7A"></path> <path d="M58.3408 72.9283C60.8324 78.5093 57.7851 74.9624 54.6089 68.5847C53.3001 65.9561 53.2331 65.1908 54.4139 66.3731C55.4091 67.3681 57.1755 70.3182 58.3408 72.9283Z" fill="#FA1B7A"></path> <path d="M208.398 43.3422C208.226 44.5859 207.806 44.3336 207.325 42.6979C206.892 41.2179 207.018 40.2972 207.608 40.6506C208.197 41.004 208.553 42.2155 208.398 43.3422Z" fill="#FA1B7A"></path> <path d="M287.142 83.185C286.276 83.8135 284.364 84.3159 282.891 84.3002C281.418 84.2846 282.127 83.7705 284.465 83.1576C286.802 82.5448 288.007 82.5564 287.142 83.185Z" fill="#FA1B7A"></path> <path d="M141.224 156.93C135.44 144.321 142.239 128.151 156.457 120.7C173.219 111.917 191.552 119.182 195.819 136.301C199.963 152.928 183.286 170.628 163.812 170.272C155.329 170.117 144.278 163.59 141.224 156.93Z" fill="#FA1B7A"></path> <path d="M315.707 99.1325C314.871 99.3106 315.56 98.1458 317.237 96.5437C321.185 92.7689 322.312 92.5121 319.464 96.0368C318.231 97.56 316.541 98.9532 315.707 99.1325Z" fill="#FA1B7A"></path> <path d="M72.8079 165.657C83.1544 164.973 95.3784 160.135 101.958 154.12C107.321 149.217 107.391 149.179 106.674 151.414C105.541 154.948 94.108 162.202 84.5832 165.431C76.6282 168.126 63.689 175.631 64.1511 177.279C64.214 177.501 67.8093 176.949 72.1417 176.052C76.4726 175.157 82.1501 174.927 84.7584 175.545C90.8552 176.986 90.7653 177.025 93.6419 171.808L96.0871 167.375L97.3814 172.567C99.2556 180.086 104.482 182.928 110.286 179.585C114.453 177.184 114.612 176.629 113.716 167.561L112.778 158.055L115.804 166.342C118.943 174.94 123.155 180.623 131.122 187.009C135.504 190.521 135.54 192.816 131.17 190.196C130.01 189.5 130.723 191.374 132.872 194.669C139.495 204.818 139.422 221.188 132.696 234.197C129.525 240.332 129.487 241.672 131.929 262.187C136.348 299.316 136.562 303.597 133.123 286.126C129.549 267.955 124.111 252.506 123.404 258.52C123.161 260.597 123.855 272.629 124.946 285.258C126.038 297.887 127.331 313.885 127.819 320.808C128.308 327.73 128.979 334.343 129.311 335.504C130.025 338.005 136.133 308.652 135.46 305.952C135.206 304.934 135.729 303.376 136.623 302.49C138.625 300.506 164.915 250.495 166.443 245.765C167.049 243.884 167.315 239.961 167.031 237.047C166.522 231.818 166.403 231.73 158.132 230.498C153.521 229.811 148.692 228.474 147.401 227.527C145.347 226.018 145.8 225.919 151.059 226.718C154.361 227.221 158.891 227.175 161.125 226.618C165.082 225.632 165.128 225.453 162.891 219.774C160.984 214.93 161.01 212.959 163.04 208.143C167.046 198.645 165.344 196.379 150.217 191.061C135.935 186.04 133.833 183.145 147.843 187.792C156.063 190.519 172.771 192.072 178.504 190.643C184.079 189.253 194.996 183.468 197.283 180.69C199.176 178.39 198.422 178.416 191.085 180.898L182.733 183.725L189.416 179.238C198.199 173.339 203.227 166.869 207.009 156.593C210.822 146.234 213.268 144.867 210.365 154.717C209.198 158.678 208.387 162.44 208.564 163.077C209.427 166.175 215.371 148.64 217.031 138.096L217.772 133.391L218.464 138.921C220.308 153.653 212.251 171.816 198.421 184.101C190.351 191.27 184.36 199.088 184.884 201.766C185.048 202.606 182.675 205.952 179.608 209.203C176.542 212.453 172.788 218.363 171.265 222.336C168.795 228.784 168.776 230.682 171.095 239.984C173.193 248.404 173.252 249.922 171.397 247.877C169.184 245.436 169.016 245.549 166.733 251.023C160.37 266.277 151.534 291.374 152.352 291.864C153.593 292.61 160.589 281.138 168.138 265.979C171.541 259.148 174.648 253.754 175.044 253.993C175.874 254.491 142.481 321.169 134.096 335.752L128.491 345.502L127.894 339.624C127.565 336.391 125.586 314.508 123.494 290.996C120.231 254.299 120.026 247.844 122.046 245.4C134.897 229.854 137.672 220.961 134.119 206.706C131.784 197.339 131.144 196.238 126.186 193.049C114.864 185.766 97.9984 186.494 89.9703 194.613C85.2734 199.364 85.1428 200.838 89.699 197.673C97.901 191.978 114.689 190.347 123.502 194.392C125.775 195.434 124.286 195.504 119.025 194.6C107.805 192.673 96.1563 195.782 87.0168 203.142C80.8666 208.094 79.024 208.89 72.7055 209.315C68.7163 209.583 50.9232 211.356 33.1644 213.254C15.406 215.153 0.522903 216.494 0.0901976 216.236C-0.341083 215.977 2.37419 213.354 6.12595 210.407C41.1013 182.925 51.1496 175.946 35.94 189.701C32.0327 193.235 27.7986 197.42 26.5327 199.002C24.3078 201.782 24.3749 201.846 28.5105 200.881C30.967 200.308 40.9864 193.195 52.0273 184.185C68.4182 170.81 70.7731 168.4 67.9388 167.9C65.8009 167.522 62.9832 168.294 60.0441 170.062C57.5304 171.574 55.6695 172.199 55.909 171.453C56.7606 168.795 64.2618 166.223 72.8079 165.657Z" fill="#FA1B7A"></path> <path d="M301.738 110.065C300.957 110.26 302.811 108.163 305.86 105.407C308.909 102.65 312.043 100.234 312.825 100.039C313.606 99.8444 311.752 101.942 308.703 104.698C305.654 107.455 302.52 109.871 301.738 110.065Z" fill="#FA1B7A"></path> <path d="M110.494 170.177C108.657 167.52 107.742 161.356 108.677 157.947C109.278 155.756 109.535 156.504 111.06 164.886C112.277 171.577 112.167 172.597 110.494 170.177Z" fill="#FA1B7A"></path> <path d="M52.4053 175.939C51.261 176.738 50.6317 176.642 50.9289 175.715C51.2141 174.824 52.0487 173.946 52.7849 173.762C54.8286 173.253 54.6316 174.382 52.4053 175.939Z" fill="#FA1B7A"></path> <path d="M230.58 152.966C230.115 152.687 229.986 151.672 230.294 150.712C231.131 148.099 232.059 148.335 231.722 151.074C231.559 152.394 231.045 153.245 230.58 152.966Z" fill="#FA1B7A"></path> <path d="M237.76 179.919C236.466 176.773 234.041 169.793 232.371 164.408C229.338 154.629 229.338 154.627 232.454 163.131C237.558 177.059 250.656 186.211 264.008 185.177C269.627 184.743 270.417 185.212 276.221 192.431C314.667 240.239 333.315 264.083 332.854 264.845C332.313 265.746 295.976 253.485 295.681 252.302C295.489 251.532 297.181 252.045 311.196 257.017C327.731 262.881 327.571 262.846 325.06 260.148C323.89 258.889 317.256 253.671 310.321 248.553C298.544 239.862 295.647 238.585 266.535 229.241L235.36 219.236L236.291 224.854C236.813 228.008 238.286 231.258 239.647 232.262C241.822 233.864 241.704 233.929 238.501 232.897C236.461 232.239 234 229.717 232.759 227.011C227.586 215.732 214.853 205.45 203.48 203.37C198.116 202.388 198.083 202.348 202.408 202.097C204.863 201.954 209.829 202.8 213.442 203.976L220.013 206.114L213.278 202.287C209.575 200.183 206.748 198.121 206.998 197.706C207.948 196.128 223.866 205.544 228.856 210.638C231.728 213.57 234.74 215.803 235.552 215.6C238.142 214.954 246.378 199.844 245.644 197.085C244.974 194.575 244.888 194.587 244.092 197.317C243.312 199.993 234.954 209.722 233.021 210.204C232.554 210.32 233.782 207.204 235.75 203.278C240.197 194.402 240.806 187.319 237.76 179.919Z" fill="#FA1B7A"></path> <path d="M161.907 236.937C159.438 237.512 146.515 235.243 146.252 234.187C146.068 233.448 161.722 235.145 163.189 236.024C163.596 236.268 163.019 236.678 161.907 236.937Z" fill="#FA1B7A"></path> <path d="M285.268 249.149C282.883 248.318 280.866 247.371 280.784 247.043C280.528 246.016 286.829 247.955 288.251 249.34C288.996 250.064 287.653 249.978 285.268 249.149Z" fill="#FA1B7A"></path> </svg> 