<?xml version="1.0" encoding="UTF-8"?> <svg xmlns="http://www.w3.org/2000/svg" width="210" height="210" viewBox="0 0 210 210" fill="none"> <path d="M145 14L38.5 37.5H38L35.5 43L58.5 185.5L64.5 188.5L67 188.053V123.5L160 100.5L174 32.5L171 27.5L152 17.5L145 14Z" fill="#FAF5E5"></path> <path d="M38.1373 37.5214C38.8017 37.3668 62.5383 32.0268 90.8852 25.6536C119.232 19.2812 143.241 14.0394 144.237 14.0064C146.019 13.9468 146.049 14.1079 146.049 23.5944C146.049 32.9295 145.99 33.2573 144.237 33.6938C143.241 33.9426 124.854 38.0763 103.379 42.88L64.3325 51.6143L50.6309 44.708C43.0948 40.9093 37.473 37.6752 38.1373 37.5214Z" fill="url(#paint0_linear_1793_1406)"></path> <path d="M151.984 31.6628C151.132 31.6628 150.881 30.0151 150.881 24.415C150.881 20.4287 151.112 17.1672 151.396 17.1672C152.324 17.1672 170.991 27.1224 170.668 27.4454C170.253 27.8609 153.409 31.6628 151.984 31.6628Z" fill="url(#paint1_linear_1793_1406)"></path> <path d="M35.3182 173.544L35.112 108.172C34.9984 72.2174 35.1796 42.9251 35.5146 43.0789C35.8497 43.2327 41.2879 45.9836 47.5991 49.1928L59.0748 55.0272V120.253C59.0748 156.126 58.8034 185.471 58.4708 185.463C58.1382 185.456 52.7934 182.771 46.5925 179.498L35.3182 173.544Z" fill="#201B19"></path> <path fill-rule="evenodd" clip-rule="evenodd" d="M167.794 33.6833C165.358 34.2768 140.986 39.7602 113.637 45.8692L63.9082 56.9769V122.838C63.9082 159.061 64.1795 188.708 64.5121 188.721C64.8447 188.733 89.8488 183.222 120.079 176.474L175.04 164.205V98.3368C175.04 36.1154 174.963 32.4721 173.632 32.5366C172.857 32.5744 170.23 33.0906 167.794 33.6833ZM149.255 61.9263C148.053 60.724 148.312 58.1325 149.799 56.4897C151.453 54.6624 153.132 54.6174 155.046 56.3496C156.573 57.7315 157.044 61.0405 155.82 61.7967C155.435 62.0342 154.875 64.4042 154.574 67.0634C152.977 81.1797 145.432 92.3139 133.753 97.7876C128.239 100.373 127.461 100.517 119.055 100.517C110.653 100.517 109.894 100.376 104.814 97.8745C97.7908 94.4181 92.6191 88.756 90.8023 82.535C90.0679 80.0233 88.8986 76.8084 88.2036 75.3911C87.0278 72.9945 87.0439 72.6989 88.4339 71.1632C91.7647 67.4821 97.2698 70.941 95.2243 75.4298C93.0346 80.2359 99.2299 89.5034 107.266 93.4421C113.446 96.4709 123.075 96.5828 130.346 93.7087C136.965 91.093 144.327 83.7494 146.702 77.3939C148.917 71.4636 150.317 62.9877 149.255 61.9263Z" fill="#201B19"></path> <path d="M69.0081 132.683C69.91 132.497 70.82 132.32 71.7219 132.127C72.9138 131.885 74.0976 131.636 75.2814 131.386C75.8773 131.257 76.4652 131.112 77.0612 130.991C77.343 130.935 77.6329 130.927 77.955 130.887C78.0919 131.716 78.0114 132.489 78.0195 133.254C78.0356 134.035 78.0195 134.809 78.0195 135.638C77.3591 136.057 76.5216 135.92 75.7968 136.323V180.373C75.0318 180.743 74.2345 180.8 73.4695 180.985C73.0346 181.09 72.5917 181.162 72.1568 181.267C71.4804 181.42 71.1743 181.219 71.2549 180.59C71.279 180.429 71.2549 180.268 71.2549 180.107C71.2549 166.127 71.2549 152.147 71.2549 138.167C71.2549 137.853 71.2388 137.539 71.2307 137.168C70.4254 137.345 69.7087 137.506 69 137.667C69 136 69 134.341 69 132.675L69.0081 132.683Z" fill="#FAF5E5"></path> <path d="M157.913 118.832C157.478 118.937 157.043 119.049 156.608 119.154C156.254 119.235 155.892 119.307 155.497 119.388V162.544C155.497 162.705 155.497 162.866 155.497 163.027C155.489 163.672 155.481 163.647 154.853 163.776C153.645 164.026 152.445 164.3 151.156 164.582V120.298C150.335 120.475 149.602 120.628 148.869 120.781C148.7 120.193 148.66 117.125 148.789 115.828C149.618 115.651 150.464 115.466 151.318 115.288C152.711 114.991 154.104 114.685 155.497 114.411C156.294 114.25 157.108 114.137 157.913 114V118.832Z" fill="#FAF5E5"></path> <path d="M87.0937 155.079C86.3851 155.054 85.765 155.304 85.1851 155.53C85.2174 156.021 85.2657 156.415 85.2657 156.802C85.2657 163.671 85.2657 170.541 85.2657 177.41C85.2657 177.772 85.1932 178.135 85.1529 178.505C83.6631 178.819 82.278 179.19 80.7559 179.407C80.7559 179.053 80.7559 178.787 80.7559 178.529C80.7559 162.721 80.7559 146.913 80.7559 131.105C80.7559 130.943 80.7559 130.782 80.7559 130.621C80.7559 130.299 80.9009 130.162 81.223 130.098C82.3827 129.864 83.5423 129.591 84.702 129.341C84.8469 129.309 85.008 129.325 85.1288 129.317C85.1851 129.373 85.2012 129.389 85.2174 129.413C85.2335 129.438 85.2415 129.462 85.2415 129.486C85.2415 136.412 85.2415 143.329 85.2415 150.311C85.7972 150.223 86.3045 150.142 86.8119 150.07C87.0615 150.029 87.1823 149.876 87.1904 149.627C87.1904 149.409 87.1904 149.2 87.1904 148.982C87.1904 142.596 87.1904 136.21 87.1904 129.824V128.89C88.5916 128.487 90.0251 128.31 91.4827 127.932C91.5068 128.27 91.539 128.479 91.539 128.681C91.539 144.593 91.539 160.506 91.539 176.427C91.539 176.564 91.539 176.693 91.539 176.83C91.539 177.12 91.386 177.249 91.1042 177.305C89.9365 177.523 88.7688 177.756 87.6091 177.982C87.5125 177.998 87.4158 178.054 87.3353 178.086C87.2951 178.046 87.2709 178.03 87.2548 178.006C87.2387 177.982 87.2145 177.966 87.2145 177.941C87.2065 177.885 87.1984 177.837 87.1984 177.78C87.1984 177.756 87.1984 177.724 87.1984 177.7C87.1984 177.643 87.1984 177.595 87.1984 177.539C87.1984 170.186 87.1984 162.834 87.1984 155.481C87.1984 155.457 87.1984 155.425 87.1984 155.401C87.1984 155.377 87.1984 155.344 87.1984 155.32C87.1984 155.296 87.1984 155.264 87.1823 155.24C87.1743 155.216 87.1581 155.191 87.0937 155.079Z" fill="#FAF5E5"></path> <path d="M130.857 119.605V120.66C130.857 134.64 130.857 148.62 130.857 162.601C130.857 163.06 130.824 163.519 131.259 163.889C131.404 163.897 131.589 163.929 131.767 163.921C132.362 163.889 132.66 163.631 132.789 163.019C132.87 162.633 132.942 162.238 132.942 161.844C132.942 147.944 132.942 134.044 132.942 120.145V119.203C134.247 118.913 135.527 118.639 136.864 118.341C136.904 118.51 136.945 118.647 136.961 118.792C136.977 118.953 136.961 119.114 136.961 119.275C136.961 133.956 136.961 148.637 136.961 163.309C136.961 164.3 136.759 165.266 136.445 166.192C136.051 167.368 135.101 168.004 133.989 168.431C132.902 168.858 131.742 169.011 130.599 169.228C130.051 169.333 129.496 169.389 128.94 169.389C127.893 169.389 127.136 168.866 126.862 167.867C126.661 167.135 126.5 166.361 126.5 165.604C126.476 150.843 126.484 136.082 126.484 121.329C126.484 121.192 126.484 121.063 126.484 120.926C126.484 120.644 126.621 120.491 126.902 120.435C127.676 120.282 128.457 120.121 129.23 119.951C129.721 119.847 130.204 119.734 130.832 119.597L130.857 119.605Z" fill="#FAF5E5"></path> <path d="M118.792 127.086H117.745C117.133 127.392 117.117 128.013 117.012 128.576C116.98 128.729 117.012 128.898 117.012 129.059C117.012 141.139 117.012 153.211 117.012 165.29C117.012 165.733 117.109 166.184 117.182 166.627C117.23 166.917 117.431 167.038 117.713 166.957C118.092 166.845 118.462 166.716 118.832 166.595C119.026 165.991 119.114 165.427 119.114 164.831C119.098 160.193 119.114 155.546 119.114 150.908V149.973C120.419 149.571 121.724 149.345 123.093 149.088C123.117 149.353 123.141 149.53 123.141 149.708C123.141 155.232 123.157 160.765 123.133 166.289C123.133 167.239 122.972 168.189 122.642 169.091C122.336 169.929 121.748 170.525 120.983 170.976C120 171.564 118.897 171.733 117.81 171.966C116.956 172.144 116.111 172.361 115.217 172.313C113.968 172.24 113.219 171.588 112.97 170.372C112.704 169.099 112.672 167.843 112.672 166.563C112.672 153.766 112.672 140.962 112.672 128.166C112.672 127.135 112.849 126.112 113.139 125.113C113.477 123.946 114.291 123.197 115.354 122.738C116.376 122.295 117.48 122.126 118.559 121.884C119.3 121.723 120.04 121.763 120.781 121.731C121.603 121.699 122.126 122.134 122.513 122.786C122.787 123.245 122.883 123.761 122.988 124.292C123.157 125.122 123.117 125.943 123.117 126.764C123.125 131.032 123.117 135.301 123.117 139.561V140.535C121.828 140.898 120.524 141.131 119.114 141.437C119.106 141.067 119.09 140.785 119.09 140.503C119.09 136.501 119.09 132.506 119.09 128.504C119.09 128.013 118.994 127.562 118.776 127.095L118.792 127.086Z" fill="#FAF5E5"></path> <path d="M99.449 131.37C99.449 136.694 99.449 141.992 99.449 147.364C100.504 147.138 101.446 146.937 102.396 146.736C102.541 147.291 102.574 150.706 102.445 151.769C101.478 151.978 100.504 152.188 99.5779 152.389C99.4088 153.114 99.3363 167.843 99.4732 170.251C99.6745 170.444 99.9242 170.388 100.15 170.339C100.995 170.146 101.841 169.937 102.694 169.752C102.864 169.711 103.057 169.752 103.274 169.752V174.696C100.601 175.268 97.9109 175.872 95.1406 176.411V127.255C95.495 127.143 95.8815 126.99 96.2842 126.901C98.5068 126.434 100.729 125.991 102.952 125.532C103.025 125.516 103.097 125.484 103.218 125.443C103.25 125.556 103.306 125.645 103.306 125.741C103.306 127.135 103.315 128.536 103.306 129.929C103.306 130.46 103.29 130.468 102.743 130.597C101.97 130.766 101.188 130.911 100.423 131.081C100.117 131.145 99.8195 131.258 99.449 131.37Z" fill="#FAF5E5"></path> <path d="M140.448 117.624C141.881 117.238 143.331 117.028 144.861 116.642V160.853C145.964 160.628 146.979 160.418 148.05 160.193V165.105C147.72 165.508 147.18 165.395 146.737 165.508C145.304 165.87 143.854 166.144 142.404 166.442C141.76 166.579 141.116 166.684 140.472 166.812C140.335 166.225 140.295 118.663 140.448 117.624Z" fill="#FAF5E5"></path> <defs> <linearGradient id="paint0_linear_1793_1406" x1="105" y1="19" x2="112.5" y2="46.5" gradientUnits="userSpaceOnUse"> <stop stop-color="#FA007A"></stop> <stop offset="1" stop-color="#8D0447"></stop> </linearGradient> <linearGradient id="paint1_linear_1793_1406" x1="148.5" y1="14" x2="147.5" y2="35" gradientUnits="userSpaceOnUse"> <stop stop-color="#FA007A"></stop> <stop offset="1" stop-color="#B30057"></stop> </linearGradient> </defs> </svg> 