<?xml version="1.0" encoding="UTF-8"?> <svg xmlns="http://www.w3.org/2000/svg" width="248" height="113" viewBox="0 0 248 113" fill="none"> <path d="M60.92 0.119996C57.32 17.88 50.6 35.04 41 45.6C44 47.4 49.64 51.48 51.92 53.64C61.64 41.64 69.56 22.56 73.88 2.63999L60.92 0.119996ZM101.24 18.84V21.96C99.32 72.96 97.04 91.56 93.68 95.76C92.24 97.44 91.16 98.04 89.36 98.04C87.08 98.04 83 97.92 78.56 97.44C80.72 101.4 82.16 107.52 82.52 111.6C87.8 111.84 92.84 111.84 96.2 111.12C100.16 110.4 102.8 108.96 105.56 104.88C110.12 98.88 112.28 79.2 114.56 25.32C114.68 23.52 114.8 18.84 114.8 18.84H101.24ZM64.52 18.84L57.92 32.16H107.36V18.84H64.52ZM72.92 23.16C68.36 43.32 57.8 65.88 43.88 76.8C47.6 78.84 52.16 82.2 54.92 84.96C68 72.72 78.56 48.96 83.36 28.32L72.92 23.16ZM89.6 24.48C84.08 55.32 71.72 86.64 50.72 101.64C54.68 103.56 59.72 107.16 62.48 110.04C82.28 93.48 95 60.84 100.76 29.64L89.6 24.48ZM2.12 65.52L5.6 79.32C18.32 75.6 34.76 70.68 49.88 66L47.96 53.28C31.4 57.96 13.88 62.88 2.12 65.52ZM23.72 0.119996V112.8H36.92V0.119996H23.72ZM7.88 6.95999C6.8 21.24 4.76 36.24 0.92 45.84C3.8 47.28 8.96 50.64 11.12 52.32C15.44 41.64 18.32 24.84 19.88 9L7.88 6.95999ZM11.12 23.28L8.48 37.08H46.88V23.28H11.12ZM187.4 67.68V112.8H200.84V80.52H226.04V112.32H240.08V67.68H187.4ZM185 24.36V36.6H223.64V55.56H237.44V24.36H185ZM199.64 8.63999C197.84 23.76 194.72 43.44 191.96 55.56H206C208.4 44.04 211.64 24.84 213.68 9.71999L199.64 8.63999ZM183.08 3.59999V15.84H243.56V3.59999H183.08ZM178.64 48.72V61.32H247.76V48.72H178.64ZM192.8 95.4V108.24H234.2V95.4H192.8ZM140.36 37.8V48.6H175.04V37.8H140.36ZM141.08 3.84V14.76H175.16V3.84H141.08ZM140.36 54.6V65.4H175.04V54.6H140.36ZM134.48 20.52V31.8H179.36V20.52H134.48ZM146.96 71.52V82.92H163.52V96.72H146.96V108H175.88V71.52H146.96ZM140 71.52V112.8H152.12V71.52H140Z" fill="#201B19"></path> </svg> 