<?xml version="1.0" encoding="UTF-8"?> <svg xmlns="http://www.w3.org/2000/svg" width="370" height="113" viewBox="0 0 370 113" fill="none"> <path d="M24.04 11.88V112.56H38.2V11.88H24.04ZM3.16 35.04V48.72H56.32V35.04H3.16ZM24.16 40.92C19.6 54.12 9.76 72.12 0.28 81.96C2.68 85.68 6.04 91.8 7.36 95.88C17.56 83.88 27.4 62.16 32.92 45.12L24.16 40.92ZM46.6 0.599997C35.92 5.39999 18.28 9.6 2.44 12.12C4 15.12 5.92 20.04 6.52 23.16C23.32 21 42.52 17.04 56.68 11.4L46.6 0.599997ZM37.48 51.12L30.04 57.6C34.84 63 44.32 74.76 48.4 81.12L56.92 70.32C54.04 67.2 41.32 54.12 37.48 51.12ZM71.08 2.76C68.2 33.36 61 72.24 54.04 97.32L67.96 100.2C75.16 75.48 83.08 37.68 87.52 5.39999L71.08 2.76ZM44.2 93.48L47.56 108.72C63.4 106.68 84.76 103.68 104.92 100.56L104.56 87.36C82.36 89.88 58.84 92.28 44.2 93.48ZM85.24 62.64C92.08 78.96 98.32 99.84 99.88 112.8L115.12 108.12C113.2 94.8 106.24 74.52 99.04 58.68L85.24 62.64ZM159.8 46.92H132.56V60.24H146V91.08H159.8V46.92ZM159.8 85.44H147.32C142.04 89.88 136.16 94.2 131.12 97.44L137.96 111.72C143.96 106.56 149 102 153.8 97.32C161 106.56 170.72 110.04 185.12 110.64C199.76 111.36 225.32 111.12 240.32 110.4C240.92 106.2 243.2 99.6 244.76 96.36C228.08 97.68 199.64 98.04 185.24 97.32C172.88 96.84 164.36 93.36 159.8 85.44ZM132.92 11.28C139.76 17.16 147.8 25.44 151.04 31.32L162.92 22.2C159.2 16.56 150.8 8.51999 143.96 3.24L132.92 11.28ZM178.04 33.96C179.96 37.56 181.76 42.48 182.12 45.6L195.32 42.6C194.6 39.48 192.56 34.8 190.4 31.32L178.04 33.96ZM172.04 7.2V17.16H235.04V7.2H172.04ZM170.72 58.92V68.88H236.6V58.92H170.72ZM165.8 43.44V53.64H241.04V43.44H165.8ZM164 23.16V33.6H242.48V23.16H164ZM165.68 74.64V85.08H241.28V74.64H165.68ZM195.8 0.119996V29.76H210.08V0.119996H195.8ZM195.8 48.48V93H210.08V48.48H195.8ZM214.52 31.08C213.68 34.32 211.76 39.24 210.2 42.72L221.84 45.72C223.64 42.84 226.04 38.76 228.68 34.32L214.52 31.08ZM328.92 19.8L312.48 19.32C311.28 31.92 308.64 45.72 305.16 57C300.12 73.2 295.56 80.88 290.4 80.88C285.84 80.88 281.04 75 281.04 62.88C281.04 47.76 294.96 27 320.4 27C341.16 27 352.92 40.44 352.92 59.28C352.92 76.92 340.92 87.84 325.68 91.56C322.44 92.28 319.08 92.88 314.4 93.48L323.52 107.64C353.76 102.96 369.24 85.08 369.24 59.88C369.24 33.6 350.4 12.96 320.76 12.96C289.68 12.96 265.56 36.72 265.56 64.32C265.56 84.6 276.6 99.36 290.04 99.36C303.12 99.36 313.44 84.48 320.64 60.24C324.84 46.08 327.24 32.04 328.92 19.8Z" fill="#201B19"></path> </svg> 