<?xml version="1.0" encoding="UTF-8"?> <svg xmlns="http://www.w3.org/2000/svg" width="264" height="264" viewBox="0 0 264 264" fill="none"> <path fill-rule="evenodd" clip-rule="evenodd" d="M9.18631 40.0296C14.0705 34.1268 21.1251 34.3786 23.5317 40.5414C24.6828 43.4902 23.956 46.4481 21.395 49.2299C18.8432 52.0023 19.6214 56.2198 23.7122 61.7863L26.218 65.196L29.8763 60.6308C31.8886 58.1193 34.031 55.6197 34.6379 55.0759C35.558 54.2502 35.6417 53.7537 35.142 52.0711C33.2397 45.656 39.3287 39.9869 45.7355 42.2089C48.3389 43.1112 48.7342 43.0496 52.5437 41.1496C54.7676 40.0401 57.7622 38.7838 59.1985 38.3575C61.6054 37.6425 61.8805 37.3714 62.7192 34.8856C64.0682 30.8884 66.3576 29.2441 70.7671 29.1047C76.3014 28.9295 81.0259 29.5198 86.4899 31.0695C91.5053 32.4922 92.554 32.3934 90.9855 30.6446C89.8609 29.3901 89.56 25.6533 90.3989 23.3512C91.2071 21.132 93.8518 18.8741 96.3259 18.2902C98.1466 17.8602 101.471 18.76 103.321 20.1825C104.209 20.8652 105.179 20.3704 110.191 16.6754C125.361 5.4943 137.498 0.827219 151.477 0.799619C167.412 0.767787 184.393 6.20489 200.654 16.5446C207.346 20.7996 216.903 28.2669 218.658 30.6107C219.88 32.2431 220.37 35.5484 219.674 37.4646C219.463 38.0466 218.564 38.9744 217.675 39.5262L216.059 40.5303L217.374 41.6589C218.097 42.2792 219.995 43.4189 221.592 44.1904C223.412 45.071 225.105 46.4174 226.131 47.8023C227.032 49.017 228.523 50.4576 229.444 51.0028C231.409 52.1653 232.442 53.8301 232.77 56.363C232.933 57.6159 233.443 58.3437 234.404 58.6927C236.902 59.5997 238.92 62.0019 239.465 64.7168C240.102 67.893 240.535 68.5686 241.974 68.6355C242.703 68.6693 243.502 69.6004 244.338 71.3901C245.033 72.8772 246.384 75.0032 247.341 76.1155C248.298 77.227 249.387 79.4576 249.763 81.0717C250.138 82.6857 251.239 85.1776 252.209 86.609C253.179 88.0408 254.163 90.2299 254.396 91.4742C254.705 93.1258 255.315 94.0302 256.657 94.8228C258.093 95.6714 258.517 96.3696 258.596 98.0089C258.651 99.1641 258.971 100.578 259.306 101.152C259.642 101.726 259.804 104.176 259.664 106.595C259.319 112.588 259.539 113.899 261.827 119.497C263.982 124.77 263.989 126.871 261.868 130.782C260.775 132.796 260.727 133.257 261.518 134.139C262.984 135.773 263.135 139 261.854 141.308C260.963 142.912 260.845 143.988 261.272 146.618C261.758 149.615 261.681 150.066 260.425 151.572C258.416 153.98 258.314 154.608 259.308 158.435C260.376 162.541 260.264 166.401 259.026 168.235C258.533 168.963 256.918 170.203 255.437 170.989C253.396 172.072 252.594 172.883 252.123 174.344C250.918 178.08 250.393 178.73 247.491 180.087C245.879 180.84 244.189 182.006 243.734 182.68C243.279 183.353 241.728 184.777 240.286 185.845C238.844 186.913 236.948 188.994 236.071 190.471C234.139 193.726 233.406 194.406 230.423 195.711C228.671 196.478 227.93 197.213 227.377 198.736C226.794 200.342 226.049 201.019 223.694 202.086C221.789 202.948 220.216 204.199 219.264 205.606C217.832 207.722 214.817 209.33 213.311 208.783C212.15 208.362 210.904 209.447 209.165 212.389C208.027 214.313 205.699 216.641 201.752 219.799L195.998 224.404L197.363 227.524C201.4 236.758 195.392 246.629 181.873 252.972C174.556 256.406 169.349 257.382 163.108 256.489C160.59 256.129 158.147 256.274 155.936 256.915C146.239 259.723 131.32 259.466 118.951 256.276L114.782 255.201L111.961 257.618C107.819 261.169 103.337 263.257 98.7887 263.753C81.5353 265.634 69.1456 251.79 71.854 233.657C72.3773 230.152 72.298 229.782 70.7528 228.521C69.8369 227.775 68.5013 226.935 67.7851 226.655C67.0688 226.376 64.9483 225.177 63.0729 223.992C61.1977 222.807 56.9424 220.544 53.6166 218.963C50.2908 217.383 45.625 214.67 43.248 212.936C23.87 198.798 17.731 180.075 26.9646 163.277L29.2843 159.056L28.124 154.193C27.4853 151.519 26.8481 149.289 26.7076 149.238C26.1975 149.052 22.7473 152.633 20.2418 155.948C18.49 158.265 17.1338 160.836 15.9669 164.05C13.9879 169.501 12.4276 171.279 9.26179 171.689C6.55612 172.04 3.25989 170.846 1.89216 169.018C-0.108511 166.345 -0.0294836 163.81 2.24463 157.708C4.86007 150.692 8.56468 145.339 14.9064 139.412C17.4602 137.025 19.5018 135.007 19.4438 134.925C19.0066 134.309 12.5815 128.928 10.3484 127.306C6.75 124.694 5.75513 122.369 6.7113 118.809C8.3354 112.76 14.844 111.194 19.9492 115.625C20.3615 115.982 20.9403 115.552 21.6384 114.371C22.2225 113.383 23.4427 112.113 24.3511 111.549C25.7529 110.677 26.1231 110.017 26.8066 107.17L27.6103 103.818L24.446 102.65C20.5436 101.208 17.5045 97.8302 16.2896 93.5848C15.2882 90.0846 15.4199 87.5062 16.8724 82.1653L17.987 78.0665L15.2342 75.3388C9.43259 69.5903 5.45044 61.5538 4.84643 54.3746C4.44068 49.5535 6.24774 43.5803 9.18631 40.0296ZM9.73163 43.9466C11.6714 40.5261 13.9495 38.6329 16.2661 38.5174C19.066 38.378 21.027 40.0939 21.302 42.9234C21.4995 44.9639 21.3901 45.2548 19.861 46.7605C18.9507 47.6566 17.9788 49.0163 17.7007 49.7823C16.1682 54.0032 18.8536 61.0199 24.4141 67.3263C24.5848 67.5202 19.8304 75.0659 19.4155 75.2598C18.5771 75.6521 12.9529 68.723 10.9446 64.8244C8.2536 59.5995 7.24286 55.1778 7.67756 50.5375C7.8645 48.5401 8.09651 46.7819 8.19287 46.6294C8.28866 46.4768 8.98133 45.2694 9.73163 43.9466ZM23.2917 74.4864C25.252 71.0215 30.452 63.9291 34.18 59.6358L37.1795 56.1816L39.6877 57.0488C44.6589 58.7672 48.7744 56.9644 50.4593 52.3306C51.1457 50.4433 51.2343 49.0557 50.7681 47.4844L50.1148 45.283L54.2097 43.3181C56.4623 42.2372 59.164 41.1081 60.2133 40.8076C62.1148 40.2643 62.1238 40.2676 62.8599 41.8429C65.185 46.8189 72.0639 48.0587 75.8892 44.1913C77.6945 42.3663 78.3984 42.7008 83.2314 47.6831C90.2399 54.9077 93.7018 65.7399 92.6636 77.2024C92.2743 81.502 89.7626 91.387 88.5534 93.3792C87.8547 94.5302 87.2267 94.8158 85.8548 94.6074C83.3248 94.2226 79.367 96.2391 77.9547 98.6327C76.365 101.327 76.8031 105.607 78.9101 107.969C80.0766 109.276 80.2908 109.959 79.7809 110.745C68.7449 127.754 63.6221 136.514 63.0894 139.288C62.1241 144.316 63.9946 148.255 68.0485 149.731C71.0918 150.84 73.55 150.337 81.0281 147.076C86.5887 144.651 87.8248 144.326 88.7004 145.061C91.8771 147.728 96.7042 147.868 99.6312 145.376C101.102 144.123 101.26 144.132 105.601 145.711C118.01 150.227 125.362 160.648 125.559 174.004L125.604 177.096L123.35 177.833C117.166 179.853 115.245 186.678 119.573 191.259C120.402 192.137 121.154 193.012 121.243 193.204C121.333 193.395 120.034 196.089 118.357 199.191C114.971 205.453 110.112 212.389 107.22 215.087C103.352 218.696 103.438 222.78 107.412 224.222C111.041 225.54 113.027 224.334 121.86 215.454C124.968 212.33 129.192 209.766 133.712 208.259L136.56 207.311L137.731 209.343C140.714 214.516 148.45 214.885 151.743 210.011C152.484 208.914 152.794 208.88 154.208 209.737C159.229 212.78 161.178 215.065 166.863 224.574C168.011 226.494 169.501 228.214 170.254 228.487C171.697 229.011 172.286 228.785 178.047 225.493C182.831 222.759 186.846 222.258 190.404 223.951C193.616 225.479 194.96 227.454 195.607 231.596C196.711 238.662 191.235 245.684 180.783 250.6C169.32 255.993 158.864 254.981 152.194 247.833C149.291 244.722 148.155 242.151 147.721 237.711C147.494 235.381 146.808 232.808 146.198 231.993C144.564 229.808 140.704 228.676 137.133 229.332C131.256 230.413 127.045 234.023 118.805 245.045C110.587 256.036 106.807 259.329 100.897 260.641C93.2068 262.348 85.3577 260.026 80.019 254.466C73.6274 247.808 72.4164 237.982 76.5766 226.524C79.0747 219.643 80.6476 217.017 89.3956 205.125C98.2801 193.045 101.118 188.473 103.074 183.085C106.477 173.713 104.494 166.496 97.8818 164.187C92.1327 162.18 87.0155 164.548 77.202 173.758C65.8728 184.39 61.4417 186.157 53.4967 183.208C47.8087 181.097 45.0312 178.708 46.3204 177.036C47.564 175.424 48.4151 172.452 48.2003 170.472C47.8642 167.367 46.0693 165.409 42.4116 164.157L39.1164 163.03L38.988 159.089C38.7038 150.356 41.6233 138.526 46.6402 128.08C48.2722 124.681 53.655 114.639 58.6015 105.765C70.8694 83.7553 72.6662 78.3368 69.568 72.6921C68.483 70.7151 67.7784 70.1305 65.4714 69.2929C63.9394 68.7367 61.7538 68.3313 60.6146 68.3928C57.2759 68.572 52.8716 70.9564 49.3939 74.4679C45.3548 78.5454 42.9194 82.1078 38.7716 90.0075C34.9987 97.1928 33.3852 99.141 30.2579 100.287C24.5997 102.36 18.2099 96.2678 18.3557 88.9387C18.4171 85.8237 20.7634 78.9546 23.2917 74.4864ZM10.283 117.337C12.9236 114.202 19.1344 116.557 21.4938 121.588C22.5802 123.905 23.2405 124.426 27.5982 126.403C29.1692 127.116 30.5517 127.907 30.6701 128.162C30.7891 128.416 28.9748 129.715 26.638 131.048C24.302 132.382 22.3159 133.533 22.2248 133.607C22.1341 133.681 20.8136 132.591 19.2912 131.185C17.7687 129.778 14.8976 127.411 12.9112 125.925C9.99818 123.745 9.25208 122.858 9.05521 121.339C8.77902 119.209 8.82014 119.073 10.283 117.337ZM40.6252 44.7843C43.7015 43.3463 47.9683 45.6754 48.2271 48.9338C48.4372 51.5826 47.4683 53.2728 45.1072 54.3761C41.9817 55.8366 38.6695 54.3577 37.6168 51.0319C36.9807 49.0228 38.5569 45.7503 40.6252 44.7843ZM8.3476 151.09C13.1939 143.411 20.8476 136.969 31.0472 131.984C34.8528 130.124 38.4426 128.534 39.0246 128.45C39.7644 128.343 40.3721 128.859 41.0424 130.164C41.8676 131.768 41.8341 132.481 40.8056 135.246C39.6269 138.414 39.5378 138.498 34.7868 140.896C23.5193 146.58 17.4612 152.823 13.59 162.738C11.6756 167.64 11.4332 168.002 9.59042 168.7C6.93226 169.707 5.03671 168.892 3.77931 166.202C2.78326 164.07 2.81509 163.782 4.57208 159.075C5.57932 156.377 7.27824 152.784 8.3476 151.09ZM25.3921 113.897C28.31 111.464 33.6739 113.491 34.2129 117.231C34.7735 121.121 30.5163 124.75 26.9232 123.445C23.31 122.133 22.3909 116.401 25.3921 113.897ZM31.7001 102.994C33.4902 102.505 36.1331 100.014 38.1161 96.9452C39.0126 95.5569 40.1252 94.432 40.5891 94.4439C41.1846 94.4601 41.2068 94.7256 40.6647 95.3497C38.804 97.4941 36.1942 104.46 35.8233 108.271C35.6175 110.393 35.4237 112.198 35.3933 112.281C35.2832 112.584 29.6689 109.77 29.4499 109.302C29.3264 109.038 29.4829 107.592 29.7977 106.089C30.2775 103.799 30.5858 103.298 31.7001 102.994ZM43.8574 86.2154C44.9334 84.4386 45.9875 82.9031 46.2003 82.8036C46.4136 82.7044 47.3438 83.2081 48.2686 83.9231C49.1936 84.6375 50.2285 85.4316 50.5692 85.6872C50.9787 85.9949 50.0099 87.0452 47.7068 88.7917C45.7915 90.2436 44.1417 91.6612 44.0399 91.9417C43.7265 92.8047 41.4736 91.2447 41.6937 90.3169C41.8077 89.8377 42.7813 87.9922 43.8574 86.2154ZM52.3986 75.5891C56.641 71.8346 60.4982 70.5173 63.9145 71.6573C66.5158 72.5254 67.5651 74.0895 67.899 77.5948L68.1213 79.9338L66.1011 80.5135C64.9898 80.8319 61.7928 81.8721 58.9965 82.8255L53.9121 84.558L51.0559 82.5202C49.1093 81.1313 48.3052 80.2021 48.5302 79.6017C48.7111 79.1171 50.4519 77.3116 52.3986 75.5891ZM43.5729 96.3545C46.6929 92.5055 50.3568 89.7777 55.7776 87.2683C61.1584 84.7771 66.5739 83.1441 66.9294 83.9048C67.0494 84.1617 65.9532 86.6682 64.4929 89.474C62.0103 94.2435 61.6172 94.7078 58.441 96.6067C52.8239 99.9662 50.7768 102.155 49.303 106.377C48.3474 109.117 48.0934 111.075 48.3117 114.035C48.5986 117.927 48.5521 118.116 46.142 122.908C44.7874 125.602 43.4633 127.902 43.1984 128.019C42.461 128.347 39.2771 120.151 38.7249 116.503C37.6807 109.599 39.7251 101.101 43.5729 96.3545ZM33.2289 125.313C33.681 125.102 34.6921 124.135 35.476 123.164L36.9011 121.399L37.5026 123.426L38.1035 125.452L35.9648 126.396C34.4107 127.082 33.6325 127.116 33.1168 126.518C32.6082 125.929 32.6399 125.588 33.2289 125.313ZM67.8987 33.6962C73.7043 31.2009 78.358 38.2326 73.7289 42.5047C71.6642 44.4097 68.429 44.3022 66.5498 42.2657C64.8793 40.4553 64.5885 38.8196 65.4941 36.3253C65.9485 35.0737 66.7614 34.185 67.8987 33.6962ZM31.3266 146.01C32.6014 145.267 33.172 145.309 34.8982 146.267L36.9531 147.408L36.4231 151.924C36.1319 154.409 35.784 156.469 35.6499 156.503C35.516 156.536 34.5786 156.741 33.567 156.956L31.7271 157.349L30.6661 152.346C30.0818 149.595 29.6505 147.243 29.7069 147.119C29.7639 146.995 30.4927 146.496 31.3266 146.01ZM79.792 32.2805C81.8562 32.6469 85.7387 33.7435 88.4192 34.7167C102.064 39.6705 110.459 53.0978 108.199 66.3523C107.138 72.5712 102.487 79.3186 96.6942 83.0391L94.5573 84.4112L95.0641 78.6879C95.4057 74.8202 96.1386 71.3293 97.3234 67.9218C99.2273 62.445 99.241 59.1139 97.3765 54.805C95.3626 50.1502 89.8821 45.3488 84.2313 43.2884C80.4465 41.9086 78.2131 40.0376 78.3829 38.388C78.4646 37.5948 77.9314 35.8534 77.1983 34.5183C76.4654 33.1827 75.9044 31.9834 75.9522 31.8518C75.9998 31.7208 77.7276 31.9133 79.792 32.2805ZM37.3968 142.392C38.3059 142.065 38.4144 142.196 38.0553 143.185C37.8084 143.865 37.2701 144.239 36.7896 144.064C36.3296 143.897 36.0333 143.54 36.131 143.271C36.2286 143.002 36.7982 142.606 37.3968 142.392ZM29.5694 163.843C29.7995 163.579 30.3861 162.736 30.8731 161.968C31.8002 160.505 34.5581 159.029 35.6335 159.419C35.9792 159.545 36.3557 160.616 36.4704 161.8C36.664 163.792 36.5508 164.067 34.952 165.508C31.6804 168.455 31.1799 173.087 33.7619 176.528C34.5962 177.64 35.3493 179.681 35.4558 181.119C35.5612 182.542 36.5569 185.657 37.6683 188.039C43.4291 200.391 61.8879 211.489 77.251 211.838L80.7551 211.918L79.5315 214.08C78.8584 215.27 77.6302 217.514 76.8018 219.069C75.9743 220.624 74.8851 221.982 74.3814 222.086C72.3075 222.519 63.6127 220.222 57.0624 217.512C39.2953 210.163 27.4129 196.626 25.7534 181.844C25.1451 176.425 25.1924 176.029 27.1373 170.278C28.245 167.002 29.3393 164.107 29.5694 163.843ZM53.2647 106.507C54.1935 107.543 53.9156 108.75 52.1246 111.456L51.1148 112.983L51.0384 111.179C50.9961 110.187 51.2777 108.504 51.6639 107.44C52.3035 105.678 52.4468 105.595 53.2647 106.507ZM56.6197 100.942C57.6198 100.177 58.5504 99.5919 58.6875 99.6417C58.939 99.733 57.1626 103.091 56.2056 104.333C55.7915 104.871 55.5722 104.807 55.1084 104.015C54.3683 102.751 54.4375 102.611 56.6197 100.942ZM37.9506 166.857C40.0186 165.891 43.54 166.781 44.673 168.558C46.5487 171.499 45.5582 174.989 42.4327 176.449C39.6006 177.772 37.2882 177.005 35.675 174.207C34.1072 171.488 35.1338 168.173 37.9506 166.857ZM93.8259 22.9636C95.8675 19.9908 100.513 20.3203 102.481 23.5771C104.123 26.2939 103.368 29.2416 100.626 30.8224C98.9104 31.8119 98.0583 31.9063 96.3752 31.2952C92.5033 29.8895 91.4449 26.4297 93.8259 22.9636ZM89.2336 49.2034C92.683 51.8162 95.0444 55.6323 95.8195 59.8479C96.1176 61.4687 96.0822 63.311 95.7405 63.941C95.2239 64.8949 94.947 64.4183 94.0849 61.0923C93.5154 58.8947 91.9163 55.1131 90.5309 52.6881C88.881 49.7992 88.4333 48.5974 89.2336 49.2034ZM41.5792 179.963C42.6453 179.809 43.4715 180.199 45.2209 181.681C47.8413 183.901 47.9903 184.493 46.9832 188.68C46.1106 192.307 46.2557 192.43 42.5318 184.885C40.3325 180.428 40.2789 180.15 41.5792 179.963ZM96.4872 34.3218C101.531 35.4224 105.908 31.745 106.022 26.3099L106.082 23.4187L112.506 18.6735C129.837 5.86892 142.794 2.03357 161.353 4.21366C166.019 4.76161 168.581 5.48852 178.55 9.09151C188.757 12.7811 191.026 13.7954 196.193 16.9794C204.582 22.1485 215.593 30.7872 216.635 33.0168C217.665 35.2226 217.119 36.9986 215.331 37.2561C213.788 37.4784 212.707 36.7912 203.659 29.8363C193.758 22.2259 187.43 18.6811 176.797 14.7884C171.254 12.7597 166.175 11.2298 163.999 10.9338C137.185 7.2877 112.828 18.1128 104.862 37.2161C103.395 40.7343 103.269 40.8237 101.727 39.4422C101.016 38.8055 98.9861 37.2709 97.2157 36.0312L93.9978 33.7783L96.4872 34.3218ZM81.5787 98.2707C82.1123 97.8246 83.5306 97.4132 84.7307 97.356C86.6172 97.2661 87.1314 97.4541 88.53 98.7411C92.7566 102.632 89.2867 108.906 83.5141 107.812C81.6947 107.467 81.2354 107.077 80.3086 105.094C79.1584 102.632 79.6741 99.8615 81.5787 98.2707ZM68.121 136.342C70.239 133.277 70.655 133.077 78.2892 131.432C92.398 128.391 100.158 126.227 105.865 123.743L112.444 120.88L114.899 125.801C116.249 128.507 118.416 132.385 119.715 134.418C124.142 141.348 124.363 141.83 123.806 143.374C123.512 144.191 123.408 145.76 123.575 146.862C124.227 151.15 124.428 153.639 124.257 155.309L124.078 157.049L122.784 155.172C119.183 149.951 112.818 145.165 106.354 142.818L102.522 141.427L102.586 139.263C102.703 135.271 99.1721 131.24 95.2017 130.832C94.3464 130.744 92.4603 131.165 91.0097 131.768C88.9071 132.641 88.1191 133.372 87.1255 135.375C86.4106 136.816 85.9154 138.698 85.964 139.788C86.0471 141.657 85.9427 141.736 79.4928 144.697C70.7447 148.713 67.1986 148.35 65.9323 143.308C65.2682 140.665 65.3815 140.306 68.121 136.342ZM50.8941 185.593C51.1717 185.548 52.5914 185.903 54.0489 186.381C55.5068 186.86 57.446 187.24 58.3577 187.227C60.638 187.192 60.5958 187.117 59.6993 189.587C58.5107 192.86 58.7826 198.215 60.3387 202.186L61.7137 205.693L58.7899 204.222C55.2125 202.423 50.0323 198.894 49.4109 197.833C48.5046 196.285 49.778 185.776 50.8941 185.593ZM75.1862 122.88L77.9258 118.723L87.8198 116.308C102.354 112.76 109.327 108.813 116.094 100.304C119.639 95.8471 120.086 95.5375 122.426 95.9221C124.871 96.3239 126.652 98.308 126.687 100.671C126.721 102.891 123.532 107.271 118.153 112.394C114.277 116.085 112.465 117.265 105.986 120.32C98.5433 123.829 93.883 125.198 77.5556 128.673L71.2301 130.019L71.8389 128.528C72.173 127.709 73.6795 125.167 75.1862 122.88ZM108.734 35.5141C112.155 29.4573 116.757 24.8582 123.65 20.6091C132.381 15.2265 147.119 11.9337 155.384 13.5179C157.384 13.9015 160.663 14.3864 162.669 14.5956C165.86 14.9288 166.706 15.2302 169.426 17.0056C171.789 18.549 173.355 19.1825 175.956 19.6498C178.472 20.1014 179.866 20.6485 181.22 21.715C182.658 22.8472 183.556 23.1796 185.313 23.2319C186.551 23.2681 187.809 23.6073 188.107 23.985C188.405 24.3622 189.467 24.8909 190.466 25.1588C193.124 25.8727 204.514 33.8314 206.37 36.2719C207.286 37.4758 208.801 38.6701 209.936 39.0822C211.021 39.4763 212.876 40.8362 214.058 42.1038C215.24 43.3722 217.525 45.0806 219.136 45.9009C220.747 46.7211 222.94 48.3909 224.01 49.6105C225.081 50.8301 226.782 52.407 227.791 53.1146C229.115 54.0421 229.722 55.0498 229.969 56.7301C230.303 59.0096 231.634 60.5142 234.695 62.0758C235.511 62.4918 236.208 63.6541 236.536 65.1458C237.397 69.0509 238.007 70.0968 239.811 70.7516C241.041 71.1983 241.753 72.0109 242.356 73.6543C242.815 74.9097 243.887 76.5764 244.736 77.3581C245.61 78.1631 246.77 80.4324 247.409 82.5876C248.029 84.6818 249.218 87.257 250.051 88.3103C250.883 89.3639 251.543 90.7587 251.516 91.4109C251.449 93.0336 253.567 96.5687 254.894 97.0507C255.567 97.2948 255.99 98.1096 256.005 99.189C256.018 100.149 256.303 101.601 256.639 102.416C256.974 103.232 257.133 105.558 256.991 107.584C256.636 112.64 256.959 114.637 258.843 119.028C261.191 124.502 261.38 126.794 259.673 129.091C257.547 131.95 257.438 132.862 258.928 135.298C260.211 137.394 260.231 137.792 259.199 140.635C258.419 142.782 258.22 144.481 258.537 146.283C258.949 148.626 258.852 149.036 257.472 150.788C255.727 153.004 255.632 154.703 256.927 160.539C257.937 165.09 257.161 167.079 253.725 168.747C251.37 169.889 250.918 170.395 250.009 172.899C248.821 176.169 247.719 177.33 244.773 178.409C243.623 178.831 242.536 179.577 242.358 180.068C242.18 180.559 240.458 182.251 238.533 183.829C236.413 185.565 234.484 187.731 233.644 189.316C232.5 191.473 231.723 192.155 229.231 193.186C226.63 194.262 226.109 194.741 225.515 196.602C224.934 198.419 224.417 198.922 222.289 199.739C220.796 200.311 218.925 201.707 217.737 203.134C216.133 205.059 215.195 205.625 213.165 205.891C210.978 206.178 210.614 206.091 210.632 205.287C210.677 203.286 207.56 198.13 205.012 195.99C202.892 194.209 201.063 193.305 195.832 191.453C189.305 189.141 189.301 189.139 191.041 188.566C192.231 188.173 193.132 188.262 193.891 188.845C195.769 190.29 198.011 190.754 200.19 190.15C201.336 189.832 203.809 189.863 205.685 190.218C207.562 190.573 210.88 190.669 213.058 190.43C220.173 189.651 231.712 183.964 236.81 178.724C239.543 175.914 243.564 169.004 243.944 166.466C244.082 165.541 245.327 162.923 246.709 160.649C249.202 156.546 249.227 156.463 249.82 150.238C250.161 146.667 250.969 142.446 251.696 140.444C253.39 135.777 253.368 133.404 251.615 131.8C249.784 130.125 249.633 128.748 250.897 125.266C252.072 122.028 251.919 119.354 250.34 115.589C249.739 114.156 249.014 111.611 248.729 109.933C248.444 108.255 247.683 106.294 247.038 105.575C246.393 104.857 245.961 103.574 246.075 102.725C246.454 99.9322 246.375 99.6247 244.798 97.7113C243.934 96.663 243.088 94.6264 242.905 93.1547C242.724 91.6911 241.196 87.5236 239.511 83.8938C236.173 76.6998 231.891 70.9654 227.249 67.4724C224.809 65.6355 224.353 64.9679 224.143 62.917C223.886 60.4101 222.539 58.8017 219.894 57.8414C219 57.517 217.695 56.234 216.835 54.8361C215.485 52.6376 211.501 49.1153 209.575 48.4162C209.164 48.267 208.057 46.6584 207.114 44.8408C205.429 41.5915 205.338 41.517 201.677 40.3229C199.63 39.6552 196.848 38.2906 195.496 37.2898C194.143 36.2895 191.248 34.8211 189.061 34.0272C185.385 32.6927 185.011 32.416 184.106 30.3662C182.799 27.4048 180.999 26.3824 176.502 26.0456C173.306 25.8065 172.446 25.536 170.666 24.2088C166.349 20.9916 158.999 19.9521 150.55 21.3639C147.926 21.8022 146.449 21.7302 145.436 21.1151C143.219 19.7687 140.24 19.8451 136.909 21.3326C134.691 22.3232 133.146 22.5598 131.251 22.1992C124.112 20.8418 112.138 31.2478 108.128 42.2937C106.893 45.6939 106.809 45.79 105.981 44.7321C105.03 43.5174 105.945 40.4518 108.734 35.5141ZM81.8111 112.812C82.4864 111.736 83.5097 111.204 85.3866 110.955C88.8688 110.492 91.7089 108.375 92.7664 105.453C93.7434 102.755 93.185 99.1925 91.5309 97.5698C90.4529 96.5121 90.47 96.1435 91.7598 92.5911C93.0779 88.9606 93.3362 88.6348 96.548 86.5493C98.4153 85.3374 100.083 84.5217 100.253 84.7375C100.424 84.9529 100.958 87.0606 101.44 89.4208C101.922 91.7817 103.12 96.479 104.102 99.8598C105.525 104.761 105.705 106.169 104.988 106.807C103.5 108.13 96.2877 111.2 92.0018 112.335C85.4501 114.07 80.42 115.121 80.6499 114.707C80.7683 114.493 81.2912 113.641 81.8111 112.812ZM112.501 39.0902C117.492 30.8019 125.449 24.2453 129.775 24.8552C130.676 24.9821 132.126 25.1873 132.998 25.3114C133.87 25.4356 136.112 24.796 137.982 23.8896C141.2 22.3295 141.497 22.305 143.583 23.4202C145.478 24.433 146.618 24.5048 151.706 23.9362C154.962 23.5722 159.406 23.4531 161.583 23.671C165.265 24.0408 165.768 24.2239 168.826 26.3135C171.815 28.3557 172.393 28.5733 175.21 28.7171C179.372 28.9288 180.533 29.4209 181.278 31.2884C182.282 33.808 184.635 35.5752 189.18 37.2253C191.509 38.0709 193.856 39.2569 194.395 39.8603C194.934 40.4641 197.215 41.5851 199.464 42.3517C203.4 43.6939 203.607 43.8478 205.011 46.4949C205.977 48.3151 207.573 50.0429 209.734 51.6082C211.529 52.9085 213.649 54.9847 214.444 56.2231C215.239 57.4615 217.073 59.232 218.518 60.1579C220.026 61.1246 221.195 62.3137 221.261 62.9506C221.325 63.5598 221.431 64.575 221.496 65.2062C221.562 65.8455 223.241 67.6792 225.286 69.3455C232.357 75.1087 238.806 85.7961 240.254 94.1546C240.658 96.4896 241.418 98.2969 242.424 99.3189C243.546 100.458 243.838 101.259 243.485 102.231C243.174 103.086 243.585 104.782 244.622 106.92C245.515 108.762 246.147 110.54 246.027 110.872C245.906 111.203 246.473 113.052 247.286 114.981C249.247 119.632 249.361 120.923 248.178 125.105C246.788 130.019 246.838 130.577 248.859 132.743L250.643 134.655L249.132 138.816C248.121 141.601 247.504 144.736 247.269 148.293C246.876 154.211 245.737 157.977 243.48 160.817C242.651 161.861 241.795 163.645 241.579 164.781C241.157 166.997 238.738 171.974 236.603 175.021C233.492 179.459 221.093 186.387 214.091 187.6C212.121 187.941 208.942 187.951 207.028 187.624C205.115 187.296 201.992 187.223 200.089 187.463C197.154 187.832 196.498 187.731 195.765 186.796C194.493 185.173 193.35 184.945 190.933 185.83C187.383 187.131 186.188 186.705 183.356 183.128C180.059 178.962 172.706 172.906 166.89 169.564C162.178 166.858 151.766 162.847 148.979 162.664C148.028 162.602 146.487 161.804 144.95 160.577C140.506 157.029 139.743 155.871 139.689 152.59C139.529 142.833 136.175 137.825 130.322 138.605C127.483 138.982 125.58 137.188 123.765 132.425C122.642 129.475 121.703 128.054 120.169 126.978C118.052 125.496 115.121 121.314 115.092 119.737C115.084 119.258 116.746 117.378 118.787 115.561C123.225 111.606 127.969 105.827 128.913 103.227C130.417 99.085 128.493 95.1036 124.286 93.6473C120.894 92.474 118.635 93.2766 115.645 96.716C114.291 98.2751 112.331 100.519 111.29 101.703C109.218 104.059 107.556 104.116 108.112 101.811C108.871 98.6665 108.787 97.5686 107.709 96.5106C106.902 95.7192 106.546 93.9527 106.446 90.2369C106.369 87.3921 105.932 83.9012 105.475 82.4786C104.651 79.9121 104.659 79.8709 106.532 77.1831C110.492 71.4971 112.165 63.6214 110.835 56.9307C108.866 47.029 109.076 44.7776 112.501 39.0902ZM65.7557 186.082C66.8172 185.627 69.0015 184.409 70.6093 183.377C74.3995 180.942 78.6259 180.702 90.4749 182.248C100.86 183.603 100.475 183.214 97.1415 188.997C94.217 194.07 84.2429 207.445 82.8207 208.201C81.0006 209.168 75.89 209.257 71.3085 208.401C67.4048 207.672 67.0403 207.5 65.6185 205.701C62.0603 201.2 60.9147 195.028 62.7092 190.024C63.6534 187.391 64.1222 186.784 65.7557 186.082ZM69.2146 191.304C72.8599 185.449 82.545 187.411 84.1794 194.336C85.1624 198.503 81.148 203.963 76.9643 204.15C69.715 204.474 65.4335 197.377 69.2146 191.304ZM91.1547 134.721C94.0959 132.846 97.5854 133.836 99.0459 136.962C101.172 141.513 97.232 145.752 92.4482 144.06C89.5391 143.031 88.291 140.36 89.3684 137.469C89.8003 136.309 90.6045 135.072 91.1547 134.721ZM80.8415 173.979C83.1213 171.887 85.5917 169.914 86.3315 169.595C87.4568 169.11 98.6365 170.304 101.001 171.163C101.767 171.441 102.198 175.773 101.763 178.818C101.447 181.026 101.747 181.011 90.542 179.368C87.0821 178.861 82.601 178.403 80.5837 178.351C78.567 178.299 76.8669 178.15 76.8056 178.02C76.7449 177.89 78.5611 176.072 80.8415 173.979ZM71.6402 192.684C75.0115 188.671 81.4472 191.175 81.4109 196.485C81.3911 199.46 77.0671 202.226 74.114 201.154C70.8654 199.974 69.4852 195.249 71.6402 192.684ZM71.4911 224.58C72.6008 224.697 73.6046 224.996 73.7207 225.244C74.1219 226.103 73.059 226.099 71.2685 225.234L69.4721 224.367L71.4911 224.58ZM94.3592 166.329C96.3156 166.174 98.7499 166.928 97.7073 167.367C96.9811 167.672 92.4866 167.06 92.6265 166.675C92.6694 166.557 93.449 166.401 94.3592 166.329ZM134.765 58.7995C136.477 56.2026 143.658 47.3153 145.013 46.1144C150.792 40.9939 158.263 40.7785 172.654 45.3163C178.119 47.0397 181.323 47.7858 182.238 47.5489C185.233 46.7724 189.826 49.5854 206.833 62.6126C213.235 67.5158 214.22 68.7567 213.929 71.5536C213.764 73.1375 213.808 73.1704 215.931 73.0693C222.596 72.7524 227.46 78.0852 231.063 89.6591C231.611 91.4186 233.055 95.2328 234.272 98.1342C236.849 104.278 236.852 105.021 234.366 117.046C233.01 123.606 232.622 127.004 232.845 130.376C233.226 136.151 231.513 142.307 228.431 146.24C222.492 153.816 216.595 156.994 206.492 158.065C197.914 158.974 189.741 157.762 174.421 153.308C167.591 151.322 164.706 149.426 158.279 142.695C148.393 132.341 140.856 121.299 137.623 112.431C135.681 107.104 135.687 107.138 134.476 94.096C134.012 89.1048 133.07 82.5272 132.381 79.4788C131.693 76.4304 131.206 72.2943 131.3 70.2882C131.458 66.8896 133.168 61.2201 134.765 58.7995ZM137.53 59.5569C141.803 53.5701 145.61 50.7518 150.341 50.0737C154.485 49.4794 161.789 52.2984 169.892 57.6207C175.734 61.4574 176.301 61.9957 179.27 66.5296C181.008 69.1835 183.831 72.8064 185.544 74.5804L188.658 77.8051L182.787 81.6051C171.024 89.2192 165.68 96.1861 159.762 111.623C156.743 119.497 156.245 119.917 151.833 118.315C149.954 117.633 148.733 116.698 147.302 114.844C145.078 111.962 144.417 110.058 142.64 101.411C141.946 98.0361 139.857 91.4566 137.996 86.7902C132.851 73.8822 132.721 66.2959 137.53 59.5569ZM128.721 141.951C130.697 140.723 132.783 140.996 134.654 142.725C136.7 144.617 137.576 153.44 136.319 159.497C135.285 164.478 132.577 169.902 129.886 172.386L128.414 173.744L127.753 168.912C127.388 166.254 126.773 163.34 126.385 162.437C125.948 161.42 125.951 160.048 126.394 158.829C127.273 156.407 127.422 150.415 126.672 147.707C125.968 145.171 126.658 143.233 128.721 141.951ZM108.054 218.377C108.906 217.334 109.824 217.087 112.287 217.234C114.017 217.337 115.476 217.515 115.53 217.63C115.82 218.25 111.302 221.383 109.749 221.639C108.139 221.904 107.876 221.811 107.449 220.822C107.091 219.994 107.246 219.364 108.054 218.377ZM123.246 180.787C126.052 179.603 128.741 180.696 130.082 183.565C130.79 185.081 130.917 186.345 130.481 187.545C129.561 190.079 126.047 191.614 123.38 190.646C118.965 189.043 118.878 182.629 123.246 180.787ZM115.391 209.254C118.613 204.73 119.25 204.332 121.858 205.214C122.785 205.528 124.705 206.047 126.124 206.367L128.704 206.948L126.226 208.487C124.864 209.333 122.44 211.153 120.84 212.531C118.374 214.654 117.608 214.984 115.825 214.691C114.667 214.501 113.312 214.353 112.812 214.362C111.716 214.382 111.659 214.494 115.391 209.254ZM131.354 174.926C134.501 171.771 137.258 167.121 138.358 163.114C139.206 160.025 139.488 159.993 142.017 162.704C143.696 164.503 143.73 164.685 142.639 166.024C141.012 168.02 140.821 171.687 142.198 174.477C143.316 176.742 143.334 176.752 151.938 180.262C156.68 182.196 160.882 184.062 161.276 184.409C161.671 184.757 162.961 185.702 164.142 186.508C165.991 187.77 166.217 188.182 165.756 189.45C165.462 190.261 165.349 192.171 165.505 193.693C165.948 197.992 169.334 200.754 174.241 200.817C176.112 200.841 176.356 201.003 176.86 202.557C177.166 203.499 177.332 205.721 177.229 207.494C177.051 210.56 176.937 210.827 174.907 212.961C172.76 215.217 169.226 217.028 167.138 216.942C166.477 216.915 164.839 215.578 163.167 213.7C160.223 210.393 158.204 208.719 154.922 206.867C153.529 206.08 153.049 205.422 153.151 204.435C153.333 202.651 150.12 198.461 147.971 197.682C143.852 196.189 139.04 198.276 137.516 202.216C136.707 204.305 136.31 204.654 134.235 205.092C132.288 205.504 130.945 205.268 126.596 203.751C123.693 202.739 121.016 201.974 120.647 202.051C120.217 202.14 120.502 201.157 121.434 199.327C123.851 194.583 124.558 193.597 125.343 193.882C126.765 194.399 130.549 192.517 131.994 190.572C134.708 186.923 134.009 182.207 130.299 179.13L128.582 177.706L131.354 174.926ZM180.166 53.198C180.395 52.9343 180.975 52.0988 181.455 51.3422C182.695 49.3844 184.165 49.6817 188.969 52.8593C195.964 57.4871 210.935 69.0336 211.139 69.9584C211.485 71.5224 210.743 72.5594 208.676 73.4054C203.708 75.4375 193.952 77.4487 192.18 76.8054C189.442 75.8112 179.628 63.6496 178.828 60.2583C178.442 58.6234 179.277 54.2174 180.166 53.198ZM159.318 125.335C160.241 126.697 162.006 128.556 163.239 129.465C164.472 130.374 165.424 131.248 165.355 131.407C165.052 132.103 162.157 133.422 161.479 133.173C159.164 132.326 157.375 128.263 157.569 124.296C157.637 122.899 157.688 122.93 159.318 125.335ZM163.876 109.058C165.282 108.025 167.65 108.283 172.326 109.977C181.014 113.126 184.838 112.562 186.537 107.881C188.174 103.371 186.974 99.919 181.559 93.5746C179.411 91.0569 178.38 89.3464 178.549 88.578C178.699 87.8966 180.379 86.4494 182.578 85.1061L186.349 82.803L187.742 85.6939C188.508 87.2839 189.471 91.1873 189.882 94.3685C190.872 102.026 191.693 104.049 195.43 108.011C199.346 112.164 200.041 114.637 198.331 118.325C197.635 119.828 196.526 121.221 195.66 121.679C192.309 123.454 190.811 123.234 178.049 119.093C171.374 116.928 164.885 115.052 163.63 114.926L161.347 114.696L162.295 112.11C162.817 110.687 163.529 109.314 163.876 109.058ZM161.939 117.843C162.85 117.964 164.019 118.067 164.538 118.073C165.057 118.077 170.935 119.874 177.601 122.065C188.711 125.716 189.982 126.021 192.848 125.717C198.853 125.082 202.898 119.625 202.106 113.228C201.804 110.79 201.157 109.648 198.167 106.263C194.349 101.942 193.4 99.5217 192.614 92.1067C192.403 90.1215 191.531 86.956 190.676 85.0717C189.821 83.1876 189.237 81.3268 189.378 80.9377C189.648 80.1934 196.15 79.5087 197.679 80.0638C199.104 80.5813 203.622 87.5817 204.969 91.3615C205.65 93.2714 206.72 97.1097 207.347 99.8923C207.975 102.674 209.723 107.426 211.231 110.452C214.478 116.965 215.73 121.638 215.456 126.228C215.19 130.685 214.512 132.361 212.463 133.635C209.606 135.41 206.455 135.382 190.149 133.434C181.525 132.404 173.555 131.502 172.437 131.429C170.818 131.324 169.657 130.711 166.719 128.413C162.582 125.178 160.653 122.647 160.305 120.003C159.993 117.629 160.024 117.587 161.939 117.843ZM168.509 99.5429C171.083 95.4331 174.961 90.7458 175.598 90.9768C175.841 91.065 176.471 91.815 176.998 92.643C177.525 93.4711 179.031 95.3519 180.345 96.8232C184.7 101.701 185.355 107.256 181.747 108.729C180.442 109.261 179.19 109.024 174.069 107.279C170.704 106.132 167.352 105.28 166.62 105.385C165.465 105.551 165.356 105.41 165.797 104.32C166.076 103.628 167.297 101.478 168.509 99.5429ZM146.205 166.233C147.023 165.74 148.78 165.473 150.108 165.638C153.6 166.074 162.369 169.86 167.741 173.252C177.017 179.108 182.784 185.392 186.852 194.077C190.37 201.589 191.013 207.044 189.126 213.371C187.434 219.045 186.614 220.197 184.188 220.304C183.107 220.352 179.679 221.712 176.57 223.325L170.916 226.259L169.246 223.165L167.574 220.071L169.722 219.368C175.274 217.552 177.802 215.384 179.323 211.135C180.348 208.27 180.26 203.632 179.131 201.002C178.511 199.558 178.586 199.203 179.818 197.726C185.104 191.389 178.076 181.947 170.539 185.26L168.535 186.141L165.043 183.594C162.641 181.841 159.03 180.001 153.475 177.697C146.333 174.735 145.316 174.166 144.67 172.782C143.611 170.512 144.352 167.348 146.205 166.233ZM117.855 251.002C118.065 250.903 119.968 248.409 122.083 245.458C128.637 236.318 134.026 232.114 139.304 232.027C143.114 231.964 144.435 233.266 144.708 237.356C145.131 243.684 147.35 247.524 153.912 253.287C155.034 254.272 154.876 254.356 150.601 255.053C145.567 255.874 135.956 256.399 134.681 255.924C134.173 255.734 134.642 255.374 135.883 255C138.137 254.322 140.5 252.061 141.323 249.796C142.075 247.723 141.206 243.223 139.746 241.642C138.125 239.886 134.434 238.589 131.965 238.91C127.533 239.485 124.313 244.387 125.429 248.858C125.987 251.095 126.833 252.279 129.497 254.562C130.608 255.514 130.466 255.56 127.636 255.173C125.952 254.943 122.842 254.319 120.725 253.787C117.546 252.989 116.929 252.679 117.175 252.001C117.339 251.549 117.645 251.1 117.855 251.002ZM165.641 135.073C168.365 133.8 169.178 134.025 174.436 137.515C177.234 139.371 181.871 142.095 184.741 143.568C187.612 145.042 190.014 146.326 190.08 146.423C190.145 146.52 189.327 147.318 188.262 148.196C186.342 149.779 186.301 149.781 183.587 148.402C178.813 145.978 165.018 136.96 164.55 135.958C164.471 135.789 164.962 135.391 165.641 135.073ZM141.123 201.699C142.653 199.994 145.333 199.664 147.569 200.906C150.068 202.294 150.837 204.474 149.817 207.283C148.097 212.021 141.781 212.083 140.058 207.379C139.211 205.068 139.504 203.504 141.123 201.699ZM131.076 242.313C133.144 241.347 136.665 242.237 137.798 244.014C139.674 246.955 138.683 250.445 135.558 251.905C132.726 253.228 130.413 252.461 128.8 249.662C127.232 246.944 128.259 243.629 131.076 242.313ZM132.75 255.304C133.39 255.567 133.474 255.747 132.965 255.763C132.504 255.778 132.03 255.583 131.912 255.331C131.794 255.079 132.171 255.067 132.75 255.304ZM177.162 134.875C177.779 134.921 180.862 135.287 184.013 135.689C205.728 138.456 209.145 138.596 212.833 136.873C216.141 135.327 217.604 133.084 218.257 128.557C219.088 122.8 218.055 117.78 214.518 110.39C212.545 106.267 210.676 101.05 209.745 97.0646C208.195 90.4292 206.213 85.6889 203.303 81.6614L201.701 79.4438L204.94 79.0655C206.721 78.8572 208.899 78.3879 209.78 78.0225C211.043 77.4986 211.569 77.5676 212.269 78.3487C213.922 80.1911 216.287 87.0671 216.825 91.5915C217.153 94.3522 218.398 98.5472 220.047 102.445C222.263 107.683 222.692 109.413 222.492 112.3C222.176 116.891 222.953 120.734 224.724 123.326C227.993 128.11 226.962 136.337 222.555 140.624C216.825 146.199 203.292 147.725 192.934 143.965C189.313 142.65 176.543 135.867 176.165 135.058C176.097 134.911 176.545 134.829 177.162 134.875ZM171.347 187.82C174.254 186.462 176.599 187.276 178.077 190.155C180.426 194.728 176.585 199.261 171.854 197.498C167.099 195.727 166.797 189.947 171.347 187.82ZM216.151 76.0195C221.141 75.9445 225.083 80.1446 227.628 88.2492C228.582 91.2887 230.259 95.9465 231.354 98.5998C232.449 101.253 233.376 104.303 233.413 105.377C233.478 107.2 230.09 125.37 229.641 125.61C229.529 125.67 228.495 123.921 227.346 121.723C225.589 118.367 225.286 117.09 225.449 113.745C225.711 108.375 225.591 107.798 222.908 101.438C221.624 98.3992 220.16 93.3395 219.654 90.195C219.08 86.6374 217.941 82.8853 216.639 80.2607L214.545 76.0435L216.151 76.0195ZM192.253 149.186C193.931 148.446 195.47 148.444 199.597 149.175C206.151 150.337 209.446 150.432 214.922 149.618L219.258 148.974L217.287 150.056C213.137 152.336 210.649 153.094 205.358 153.691C200.452 154.244 199.366 154.146 194.82 152.737C191.88 151.826 189.831 150.948 189.941 150.645C190.045 150.358 191.085 149.702 192.253 149.186ZM195.219 194.012C200.979 196.103 204.35 198.55 206.353 202.093C208.063 205.116 208.203 208.908 206.693 211.247C206.188 212.031 203.145 214.846 199.932 217.504L194.09 222.335L191.985 221.335L189.879 220.335L191.21 216.626C191.942 214.585 192.69 211.701 192.872 210.215C193.345 206.353 192.62 200.125 191.286 196.585C190.656 194.913 190.24 193.271 190.361 192.937C190.503 192.546 192.242 192.931 195.219 194.012Z" fill="#FA1B7A"></path> <path d="M131.354 174.926C134.501 171.771 137.258 167.121 138.358 163.114C139.206 160.025 139.488 159.993 142.017 162.704C143.696 164.503 143.73 164.685 142.639 166.024C141.012 168.02 140.821 171.687 142.198 174.477C143.316 176.742 143.334 176.752 151.938 180.262C156.68 182.196 160.882 184.062 161.276 184.409C161.671 184.757 162.961 185.702 164.142 186.508C165.991 187.77 166.217 188.182 165.756 189.45C165.462 190.261 165.349 192.171 165.505 193.693C165.948 197.992 169.334 200.754 174.241 200.817C176.112 200.841 176.356 201.003 176.86 202.557C177.166 203.499 177.332 205.721 177.229 207.494C177.051 210.56 176.937 210.827 174.907 212.961C172.76 215.217 169.226 217.028 167.138 216.942C166.477 216.915 164.839 215.578 163.167 213.7C160.223 210.393 158.204 208.719 154.922 206.867C153.529 206.08 153.049 205.422 153.151 204.435C153.333 202.651 150.12 198.461 147.971 197.682C143.852 196.189 139.04 198.276 137.516 202.216C136.707 204.305 136.31 204.654 134.235 205.092C132.288 205.504 130.945 205.268 126.596 203.751C123.693 202.739 121.016 201.974 120.647 202.051C120.217 202.14 120.502 201.157 121.434 199.327C123.851 194.583 124.558 193.597 125.343 193.882C126.765 194.399 130.549 192.517 131.994 190.572C134.708 186.923 134.009 182.207 130.299 179.13L128.582 177.706L131.354 174.926Z" fill="#FA1B7A"></path> <path d="M68.121 136.342C70.239 133.277 70.655 133.077 78.2892 131.432C92.398 128.391 100.158 126.227 105.865 123.743L112.444 120.88L114.899 125.801C116.249 128.507 118.416 132.385 119.715 134.418C124.142 141.348 124.363 141.83 123.806 143.374C123.512 144.191 123.408 145.76 123.575 146.862C124.227 151.15 124.428 153.639 124.257 155.309L124.078 157.049L122.784 155.172C119.183 149.951 112.818 145.165 106.354 142.818L102.522 141.427L102.586 139.263C102.703 135.271 99.1721 131.24 95.2017 130.832C94.3464 130.744 92.4603 131.165 91.0097 131.768C88.9071 132.641 88.1191 133.372 87.1255 135.375C86.4106 136.816 85.9154 138.698 85.964 139.788C86.0471 141.657 85.9427 141.736 79.4928 144.697C70.7447 148.713 67.1986 148.35 65.9323 143.308C65.2682 140.665 65.3815 140.306 68.121 136.342Z" fill="#FA1B7A"></path> <path fill-rule="evenodd" clip-rule="evenodd" d="M65.7557 186.082C66.8172 185.627 69.0015 184.409 70.6093 183.377C74.3995 180.942 78.6259 180.702 90.4749 182.248C100.86 183.603 100.475 183.214 97.1415 188.997C94.217 194.07 84.2429 207.445 82.8207 208.201C81.0006 209.168 75.89 209.257 71.3085 208.401C67.4048 207.672 67.0403 207.5 65.6185 205.701C62.0603 201.2 60.9147 195.028 62.7092 190.024C63.6534 187.391 64.1222 186.784 65.7557 186.082ZM84.1794 194.336C82.545 187.411 72.8599 185.449 69.2146 191.304C65.4335 197.377 69.715 204.474 76.9643 204.15C81.148 203.963 85.1624 198.503 84.1794 194.336Z" fill="#FA1B7A"></path> <path d="M81.8111 112.812C82.4864 111.736 83.5097 111.204 85.3866 110.955C88.8688 110.492 91.7089 108.375 92.7664 105.453C93.7434 102.755 93.185 99.1925 91.5309 97.5698C90.4529 96.5121 90.47 96.1435 91.7598 92.5911C93.0779 88.9606 93.3362 88.6348 96.548 86.5493C98.4153 85.3374 100.083 84.5217 100.253 84.7375C100.424 84.9529 100.958 87.0606 101.44 89.4208C101.922 91.7817 103.12 96.479 104.102 99.8598C105.525 104.761 105.705 106.169 104.988 106.807C103.5 108.13 96.2877 111.2 92.0018 112.335C85.4501 114.07 80.42 115.121 80.6499 114.707C80.7683 114.493 81.2912 113.641 81.8111 112.812Z" fill="#FA1B7A"></path> <path d="M52.3986 75.5891C56.641 71.8346 60.4982 70.5173 63.9145 71.6573C66.5158 72.5254 67.5651 74.0895 67.899 77.5948L68.1213 79.9338L66.1011 80.5135C64.9898 80.8319 61.7928 81.8721 58.9965 82.8255L53.9121 84.558L51.0559 82.5202C49.1093 81.1313 48.3052 80.2021 48.5302 79.6017C48.7111 79.1171 50.4519 77.3116 52.3986 75.5891Z" fill="#FA1B7A"></path> <path d="M89.2336 49.2034C92.683 51.8162 95.0444 55.6323 95.8195 59.8479C96.1176 61.4687 96.0822 63.311 95.7405 63.941C95.2239 64.8949 94.947 64.4183 94.0849 61.0923C93.5154 58.8947 91.9163 55.1131 90.5309 52.6881C88.881 49.7992 88.4333 48.5974 89.2336 49.2034Z" fill="#FA1B7A"></path> <path d="M53.2647 106.507C54.1935 107.543 53.9156 108.75 52.1246 111.456L51.1148 112.983L51.0384 111.179C50.9961 110.187 51.2777 108.504 51.6639 107.44C52.3035 105.678 52.4468 105.595 53.2647 106.507Z" fill="#FA1B7A"></path> <path d="M56.6197 100.942C57.6198 100.177 58.5504 99.5919 58.6875 99.6417C58.939 99.733 57.1626 103.091 56.2056 104.333C55.7915 104.871 55.5722 104.807 55.1084 104.015C54.3683 102.751 54.4375 102.611 56.6197 100.942Z" fill="#FA1B7A"></path> <path d="M43.8574 86.2154C44.9334 84.4386 45.9875 82.9031 46.2003 82.8036C46.4136 82.7044 47.3438 83.2081 48.2686 83.9231C49.1936 84.6375 50.2285 85.4316 50.5692 85.6872C50.9787 85.9949 50.0099 87.0452 47.7068 88.7917C45.7915 90.2436 44.1417 91.6612 44.0399 91.9417C43.7265 92.8047 41.4736 91.2447 41.6937 90.3169C41.8077 89.8377 42.7813 87.9922 43.8574 86.2154Z" fill="#FA1B7A"></path> <path d="M31.7001 102.994C33.4902 102.505 36.1331 100.014 38.1161 96.9452C39.0126 95.5569 40.1252 94.432 40.5891 94.4439C41.1846 94.4601 41.2068 94.7256 40.6647 95.3497C38.804 97.4941 36.1942 104.46 35.8233 108.271C35.6175 110.393 35.4237 112.198 35.3933 112.281C35.2832 112.584 29.6689 109.77 29.4499 109.302C29.3264 109.038 29.4829 107.592 29.7977 106.089C30.2775 103.799 30.5858 103.298 31.7001 102.994Z" fill="#FA1B7A"></path> <path d="M33.2289 125.313C33.681 125.102 34.6921 124.135 35.476 123.164L36.9011 121.399L37.5026 123.426L38.1035 125.452L35.9648 126.396C34.4107 127.082 33.6325 127.116 33.1168 126.518C32.6082 125.929 32.6399 125.588 33.2289 125.313Z" fill="#FA1B7A"></path> <path d="M31.3266 146.01C32.6014 145.267 33.172 145.309 34.8982 146.267L36.9531 147.408L36.4231 151.924C36.1319 154.409 35.784 156.469 35.6499 156.503C35.516 156.536 34.5786 156.741 33.567 156.956L31.7271 157.349L30.6661 152.346C30.0818 149.595 29.6505 147.243 29.7069 147.119C29.7639 146.995 30.4927 146.496 31.3266 146.01Z" fill="#FA1B7A"></path> <path d="M41.5792 179.963C42.6453 179.809 43.4715 180.199 45.2209 181.681C47.8413 183.901 47.9903 184.493 46.9832 188.68C46.1106 192.307 46.2557 192.43 42.5318 184.885C40.3325 180.428 40.2789 180.15 41.5792 179.963Z" fill="#FA1B7A"></path> <path d="M37.3968 142.392C38.3059 142.065 38.4144 142.196 38.0553 143.185C37.8084 143.865 37.2701 144.239 36.7896 144.064C36.3296 143.897 36.0333 143.54 36.131 143.271C36.2286 143.002 36.7982 142.606 37.3968 142.392Z" fill="#FA1B7A"></path> <path d="M115.391 209.254C118.613 204.73 119.25 204.332 121.858 205.214C122.785 205.528 124.705 206.047 126.124 206.367L128.704 206.948L126.226 208.487C124.864 209.333 122.44 211.153 120.84 212.531C118.374 214.654 117.608 214.984 115.825 214.691C114.667 214.501 113.312 214.353 112.812 214.362C111.716 214.382 111.659 214.494 115.391 209.254Z" fill="#FA1B7A"></path> <path d="M108.054 218.377C108.906 217.334 109.824 217.087 112.287 217.234C114.017 217.337 115.476 217.515 115.53 217.63C115.82 218.25 111.302 221.383 109.749 221.639C108.139 221.904 107.876 221.811 107.449 220.822C107.091 219.994 107.246 219.364 108.054 218.377Z" fill="#FA1B7A"></path> <path d="M117.855 251.002C118.065 250.903 119.968 248.409 122.083 245.458C128.637 236.318 134.026 232.114 139.304 232.027C143.114 231.964 144.435 233.266 144.708 237.356C145.131 243.684 147.35 247.524 153.912 253.287C155.034 254.272 154.876 254.356 150.601 255.053C145.567 255.874 135.956 256.399 134.681 255.924C134.173 255.734 134.642 255.374 135.883 255C138.137 254.322 140.5 252.061 141.323 249.796C142.075 247.723 141.206 243.223 139.746 241.642C138.125 239.886 134.434 238.589 131.965 238.91C127.533 239.485 124.313 244.387 125.429 248.858C125.987 251.095 126.833 252.279 129.497 254.562C130.608 255.514 130.466 255.56 127.636 255.173C125.952 254.943 122.842 254.319 120.725 253.787C117.546 252.989 116.929 252.679 117.175 252.001C117.339 251.549 117.645 251.1 117.855 251.002Z" fill="#FA1B7A"></path> <path d="M195.219 194.012C200.979 196.103 204.35 198.55 206.353 202.093C208.063 205.116 208.203 208.908 206.693 211.247C206.188 212.031 203.145 214.846 199.932 217.504L194.09 222.335L191.985 221.335L189.879 220.335L191.21 216.626C191.942 214.585 192.69 211.701 192.872 210.215C193.345 206.353 192.62 200.125 191.286 196.585C190.656 194.913 190.24 193.271 190.361 192.937C190.503 192.546 192.242 192.931 195.219 194.012Z" fill="#FA1B7A"></path> <path d="M96.4872 34.3218C101.531 35.4224 105.908 31.745 106.022 26.3099L106.082 23.4187L112.506 18.6735C129.837 5.86892 142.794 2.03357 161.353 4.21366C166.019 4.76161 168.581 5.48852 178.55 9.09151C188.757 12.7811 191.026 13.7954 196.193 16.9794C204.582 22.1485 215.593 30.7872 216.635 33.0168C217.665 35.2226 217.119 36.9986 215.331 37.2561C213.788 37.4784 212.707 36.7912 203.659 29.8363C193.758 22.2259 187.43 18.6811 176.797 14.7884C171.254 12.7597 166.175 11.2298 163.999 10.9338C137.185 7.2877 112.828 18.1128 104.862 37.2161C103.395 40.7343 103.269 40.8237 101.727 39.4422C101.016 38.8055 98.9861 37.2709 97.2157 36.0312L93.9978 33.7783L96.4872 34.3218Z" fill="#FA1B7A"></path> <path d="M177.162 134.875C177.779 134.921 180.862 135.287 184.013 135.689C205.728 138.456 209.145 138.596 212.833 136.873C216.141 135.327 217.604 133.084 218.257 128.557C219.088 122.8 218.055 117.78 214.518 110.39C212.545 106.267 210.676 101.05 209.745 97.0646C208.195 90.4292 206.213 85.6889 203.303 81.6614L201.701 79.4438L204.94 79.0655C206.721 78.8572 208.899 78.3879 209.78 78.0225C211.043 77.4986 211.569 77.5676 212.269 78.3487C213.922 80.1911 216.287 87.0671 216.825 91.5915C217.153 94.3522 218.398 98.5472 220.047 102.445C222.263 107.683 222.692 109.413 222.492 112.3C222.176 116.891 222.953 120.734 224.724 123.326C227.993 128.11 226.962 136.337 222.555 140.624C216.825 146.199 203.292 147.725 192.934 143.965C189.313 142.65 176.543 135.867 176.165 135.058C176.097 134.911 176.545 134.829 177.162 134.875Z" fill="#FA1B7A"></path> <path d="M163.876 109.058C165.282 108.025 167.65 108.283 172.326 109.977C181.014 113.126 184.838 112.562 186.537 107.881C188.174 103.371 186.974 99.919 181.559 93.5746C179.411 91.0569 178.38 89.3464 178.549 88.578C178.699 87.8966 180.379 86.4494 182.578 85.1061L186.349 82.803L187.742 85.6939C188.508 87.2839 189.471 91.1873 189.882 94.3685C190.872 102.026 191.693 104.049 195.43 108.011C199.346 112.164 200.041 114.637 198.331 118.325C197.635 119.828 196.526 121.221 195.66 121.679C192.309 123.454 190.811 123.234 178.049 119.093C171.374 116.928 164.885 115.052 163.63 114.926L161.347 114.696L162.295 112.11C162.817 110.687 163.529 109.314 163.876 109.058Z" fill="#FA1B7A"></path> <path d="M180.166 53.198C180.395 52.9343 180.975 52.0988 181.455 51.3422C182.695 49.3844 184.165 49.6817 188.969 52.8593C195.964 57.4871 210.935 69.0336 211.139 69.9584C211.485 71.5224 210.743 72.5594 208.676 73.4054C203.708 75.4375 193.952 77.4487 192.18 76.8054C189.442 75.8112 179.628 63.6496 178.828 60.2583C178.442 58.6234 179.277 54.2174 180.166 53.198Z" fill="#FA1B7A"></path> <path d="M192.253 149.186C193.931 148.446 195.47 148.444 199.597 149.175C206.151 150.337 209.446 150.432 214.922 149.618L219.258 148.974L217.287 150.056C213.137 152.336 210.649 153.094 205.358 153.691C200.452 154.244 199.366 154.146 194.82 152.737C191.88 151.826 189.831 150.948 189.941 150.645C190.045 150.358 191.085 149.702 192.253 149.186Z" fill="#FA1B7A"></path> <path d="M165.641 135.073C168.365 133.8 169.178 134.025 174.436 137.515C177.234 139.371 181.871 142.095 184.741 143.568C187.612 145.042 190.014 146.326 190.08 146.423C190.145 146.52 189.327 147.318 188.262 148.196C186.342 149.779 186.301 149.781 183.587 148.402C178.813 145.978 165.018 136.96 164.55 135.958C164.471 135.789 164.962 135.391 165.641 135.073Z" fill="#FA1B7A"></path> <path d="M159.318 125.335C160.241 126.697 162.006 128.556 163.239 129.465C164.472 130.374 165.424 131.248 165.355 131.407C165.052 132.103 162.157 133.422 161.479 133.173C159.164 132.326 157.375 128.263 157.569 124.296C157.637 122.899 157.688 122.93 159.318 125.335Z" fill="#FA1B7A"></path> </svg> 