<?xml version="1.0" encoding="UTF-8"?> <svg xmlns="http://www.w3.org/2000/svg" width="219" height="205" viewBox="0 0 219 205" fill="none"> <path fill-rule="evenodd" clip-rule="evenodd" d="M138.73 6.66585C149.68 10.9901 160.195 17.8375 169.963 27.0053C177.83 34.3878 181.04 39.1801 181.253 43.8576L181.379 46.6423L188.196 53.2484C202.753 67.3561 208.229 73.8597 212.95 82.6461C219.678 95.1689 220.656 109.426 215.938 126.214C212.981 136.732 207.968 147.001 201.023 156.767C197.547 161.653 195.566 162.876 192.497 162.027C190.829 161.565 190.255 161.132 189.765 159.963C188.932 157.976 188.074 158.606 186.617 162.274C185.946 163.961 184.697 165.909 183.488 167.153C182.38 168.291 181.087 170.019 180.614 170.991C179.956 172.346 179.294 172.883 177.784 173.289C175.553 173.89 174.522 174.786 174.034 176.548C173.611 178.078 170.987 179.906 168.835 180.172C167.492 180.337 167.111 180.659 166.761 181.927C166.444 183.07 165.746 183.797 164.117 184.679C162.9 185.338 161.413 186.498 160.813 187.257C160.209 188.02 158.385 189.128 156.732 189.736C155.088 190.341 152.844 191.59 151.745 192.511C150.646 193.433 148.997 194.279 148.08 194.392C147.013 194.523 146.178 195.029 145.762 195.796C144.767 197.629 143.23 198.838 142.242 198.565C141.752 198.43 140.856 198.633 140.25 199.017C139.012 199.801 137.578 200.009 133.299 200.024C131.088 200.031 129.299 200.537 126.166 202.043C120.391 204.819 119.263 205.01 116.053 203.755C113.558 202.779 113.298 202.784 111.363 203.839C109.543 204.832 109.004 204.87 106.514 204.18C104.765 203.697 103.178 203.575 102.294 203.857C99.9705 204.597 98.6323 204.455 96.7423 203.269C95.0255 202.19 94.7942 202.187 91.0845 203.2C88.9574 203.781 86.6611 204.266 85.9819 204.279C83.8884 204.316 81.5965 202.831 80.088 200.459C79.0083 198.762 78.3424 198.186 77.4356 198.164C75.4462 198.116 72.7798 196.177 71.6436 193.952C71.0603 192.81 70.2691 191.788 69.8852 191.681C69.5013 191.575 68.0013 190.214 66.5518 188.658C65.1023 187.101 63.3048 185.658 62.5574 185.451C60.4451 184.866 58.3946 183.002 57.6676 181.005C57.0993 179.445 56.701 179.101 54.8754 178.596C53.0449 178.09 52.617 177.719 51.829 175.955C51.2438 174.647 50.007 173.248 48.4125 172.091C46.3696 170.61 45.8093 169.859 45.3431 167.978C44.8603 166.03 44.3506 165.38 42.0088 163.73C38.3918 161.18 36.2066 158.507 34.9402 155.084C34.375 153.555 33.7413 152.257 33.5332 152.199C33.3246 152.141 32.3061 150.928 31.269 149.502C30.1539 147.969 28.466 146.4 27.1362 145.659C22.6039 143.135 20.3193 140.706 17.3257 135.228C15.5258 131.934 13.6992 129.338 12.4158 128.25C9.79103 126.023 8.36713 123.044 7.95062 118.903C7.67765 116.189 7.41927 115.549 6.49255 115.293C3.98253 114.598 1.9918 111.721 1.17654 107.61C0.257996 102.976 0.951342 86.9383 2.65135 73.508C4.24429 60.9209 8.02528 50.1975 14.2954 40.484C20.4525 30.9446 29.9726 22.4806 41.8271 16.0051C63.3592 4.24297 89.6949 -1.36599 113.239 0.795714C119.002 1.3247 133.883 4.75145 138.73 6.66585ZM136.898 8.53602C138.864 9.27074 142.041 10.6069 143.958 11.5045C147.372 13.1038 147.41 13.1412 145.814 13.3505C144.918 13.4683 143.879 13.3858 143.505 13.1679C143.132 12.9499 140.446 11.9652 137.537 10.9795C127.948 7.72952 113.807 5.79817 102.508 6.19553C97.9374 6.356 97.5097 6.28599 94.9621 4.95584C93.4762 4.18062 92.1603 3.48131 92.0376 3.40217C91.6928 3.17908 97.263 2.79448 101.957 2.71697C109.021 2.60021 116.647 3.36762 123.958 4.93006C131.561 6.55551 131.706 6.59576 136.898 8.53602ZM155.499 18.1095C158.774 20.2494 161.752 25.7618 161.806 29.7851C161.897 36.7437 156.648 43.1435 150.022 44.1495L147.82 44.4838L147.042 42.1516C145.35 37.0796 140.954 32.987 135.673 31.5682L132.877 30.8167L133.149 28.5707C134.448 17.8868 146.513 12.2394 155.499 18.1095ZM140.188 14.5462C140.267 14.8189 139.831 15.293 139.219 15.6006C138.369 16.0271 136.707 15.8432 132.221 14.8269C128.986 14.094 126.216 13.4963 126.066 13.4986C125.917 13.5013 125.007 12.6736 124.044 11.6596L122.293 9.81536L124.67 10.1357C128.186 10.6088 140.02 13.9728 140.188 14.5462ZM119.405 10.9342C122.985 13.2082 125.592 16.9141 126.438 20.9304C126.944 23.3291 125.804 28.8489 124.35 31.0469C123.098 32.9385 120.058 35.4538 117.648 36.592L116.111 37.3174L114.456 34.346C112.482 30.8005 109.656 28.2472 106.217 26.9027C104.831 26.3605 103.571 25.62 103.416 25.2562C103.262 24.8926 103.338 23.4684 103.583 22.0913C103.998 19.7655 103.739 17.0425 102.797 13.8203C102.427 12.5546 102.564 12.4097 105.654 10.8156C110.174 8.48359 115.621 8.5306 119.405 10.9342ZM146.904 19.8903C146.793 20.293 146.482 20.5616 146.213 20.4873C145.945 20.413 145.816 20.0227 145.927 19.62C146.039 19.2174 146.35 18.9487 146.618 19.0231C146.887 19.0974 147.016 19.4877 146.904 19.8903ZM142.794 19.5412C142.719 19.8096 142.439 19.9684 142.17 19.8941C141.901 19.8197 141.742 19.5393 141.817 19.2708C141.891 19.0024 142.172 18.8436 142.44 18.9179C142.709 18.9923 142.868 19.2727 142.794 19.5412ZM102.679 9.66046C101.676 10.541 101.385 10.5719 100.736 9.86466C99.8399 8.88902 100.302 8.52603 102.365 8.58361L103.859 8.62535L102.679 9.66046ZM135.212 18.4303C135.147 18.6661 134.512 19.5995 133.8 20.5055C132.423 22.2577 130.742 27.1297 130.735 29.3923C130.731 30.5252 130.495 30.794 129.34 30.9768C128.574 31.0982 127.795 31.1537 127.606 31.0999C127.418 31.0461 127.705 29.3963 128.244 27.4332C129.074 24.4129 129.119 23.3162 128.538 20.3044C128.039 17.7199 128.039 16.6878 128.536 16.5358C129.493 16.2437 135.357 17.9076 135.212 18.4303ZM95.8246 8.14329C99.9767 11.2798 102.288 17.5871 101.065 22.4455C100.382 25.1555 100.162 25.3427 97.1692 25.7593C93.51 26.2681 89.0094 28.9075 86.6415 31.9326L84.9202 34.1319L82.3418 33.1237C76.7996 30.9572 72.7745 25.4114 72.7565 19.9182C72.7449 16.3487 74.558 11.7552 76.8615 9.51989C81.9877 4.5451 90.2663 3.94405 95.8246 8.14329ZM113.498 13.2749C113.387 13.6775 113.076 13.9462 112.807 13.8718C112.539 13.7975 112.41 13.4072 112.521 13.0046C112.633 12.6019 112.944 12.3333 113.212 12.4076C113.481 12.4819 113.61 12.8722 113.498 13.2749ZM109.388 12.9257C109.313 13.1942 109.033 13.353 108.764 13.2786C108.495 13.2043 108.336 12.9238 108.411 12.6554C108.485 12.3869 108.765 12.2281 109.034 12.3025C109.303 12.3768 109.462 12.6573 109.388 12.9257ZM165.843 29.3742L166.861 30.4472L165.728 29.7901C165.105 29.429 164.44 28.8804 164.251 28.5716C163.698 27.6683 164.709 28.1782 165.843 29.3742ZM142.134 23.825C142.023 24.2277 141.609 24.4678 141.214 24.3586C140.777 24.2378 140.686 23.9046 140.98 23.5058C141.247 23.1459 141.661 22.9058 141.901 22.9722C142.141 23.0386 142.246 23.4224 142.134 23.825ZM76.8481 6.42814C76.2869 6.78361 75.1483 7.89568 74.3186 8.8988C73.0551 10.4261 71.8336 11.0334 66.8148 12.6299C40.6898 20.9407 23.5731 34.0894 13.3775 53.6782C11.3857 57.5051 10.4365 60.0899 8.57997 66.7412C6.57079 73.9403 6.14346 76.2812 5.34 84.498C4.83064 89.7035 4.31147 97.1856 4.18625 101.124C4.06087 105.064 3.87363 108.263 3.77007 108.234C2.82625 107.973 2.90362 95.2219 3.9191 83.5795C5.02445 70.9089 5.32151 69.0465 7.45199 61.4374C12.7229 42.611 23.6534 28.9959 41.8007 18.6513C50.8494 13.4934 65.1388 8.00678 74.2919 6.17644C77.7019 5.49419 78.2384 5.547 76.8481 6.42814ZM87.2174 9.41897C87.1431 9.68742 86.7526 9.81582 86.3496 9.70431C85.9466 9.5928 85.6776 9.28193 85.7518 9.01349C85.8261 8.74504 86.2166 8.61664 86.6197 8.72815C87.0227 8.83966 87.2917 9.15053 87.2174 9.41897ZM82.6102 8.96344C82.4945 9.38173 82.2174 9.52784 81.9946 9.28755C81.7718 9.04727 81.6467 8.64429 81.7166 8.39146C81.7866 8.13864 82.0635 7.99301 82.3322 8.06735C82.6009 8.14169 82.7259 8.54516 82.6102 8.96344ZM169.998 36.217C176.587 41.6708 179.098 44.1926 178.847 45.1019C178.736 45.5027 177.825 46.2943 176.823 46.8618C175.168 47.7981 174.696 47.8091 171.705 46.9817C169.893 46.4802 167.026 45.4407 165.335 44.6723C163.644 43.9033 161.598 42.9769 160.79 42.6129L159.319 41.9517L160.918 39.7746C161.84 38.5181 162.858 36.3612 163.325 34.6739C163.77 33.0662 164.298 31.7993 164.498 31.8585C164.699 31.9177 167.174 33.8792 169.998 36.217ZM108.728 17.2096C108.617 17.6122 108.306 17.8809 108.037 17.8065C107.768 17.7322 107.64 17.3419 107.751 16.9392C107.863 16.5366 108.174 16.2679 108.442 16.3423C108.711 16.4166 108.84 16.8069 108.728 17.2096ZM137.297 28.0037C137.223 28.2722 136.832 28.4006 136.429 28.2891C136.026 28.1776 135.757 27.8667 135.831 27.5983C135.905 27.3298 136.296 27.2014 136.699 27.3129C137.102 27.4244 137.371 27.7353 137.297 28.0037ZM81.9588 13.2185C81.8846 13.4869 81.604 13.6457 81.3353 13.5714C81.0666 13.4971 80.9075 13.2166 80.9818 12.9482C81.0561 12.6797 81.3367 12.5209 81.6054 12.5952C81.874 12.6696 82.0331 12.95 81.9588 13.2185ZM70.7546 16.2925C70.4414 18.3712 70.225 18.7464 69.1216 19.1247C57.9515 22.9575 44.7061 29.7381 37.3882 35.3696C28.6234 42.1152 21.0433 51.4143 16.192 61.3734C12.71 68.5223 9.91979 79.7399 8.86355 90.8377C8.12012 98.6514 7.49985 109.006 7.59361 112.051C7.63762 113.483 6.76377 112.908 6.51419 111.34C5.94265 107.751 6.97789 89.3597 8.36275 78.5036C9.49312 69.6431 12.9781 58.8758 16.9487 51.976C25.2236 37.5958 37.4318 27.1259 54.5157 19.7564C59.6037 17.5617 70.3521 13.6853 70.9168 13.8415C71.0262 13.8718 70.9534 14.9751 70.7546 16.2925ZM77.1213 17.3972C77.0099 17.7999 76.6989 18.0685 76.4302 17.9942C76.1615 17.9198 76.0328 17.5296 76.1442 17.1269C76.2556 16.7242 76.5666 16.4556 76.8353 16.5299C77.104 16.6043 77.2327 16.9945 77.1213 17.3972ZM139.469 35.8044C144.086 38.906 146.368 44.5682 145.248 50.1395C143.987 56.4106 139.999 60.4355 133.909 61.5824C131.283 62.0773 130.145 62.0079 127.329 61.1804C123.393 60.0236 121.589 58.6985 119.293 55.2763C117.071 51.9645 116.484 48.147 117.582 44.1534C118.879 39.4379 120.244 37.6251 124.193 35.3737C129.476 32.3616 134.558 32.5051 139.469 35.8044ZM186.39 54.9056C195.373 63.6122 199.456 67.9246 203.891 73.3881C207.903 78.3319 212.278 85.4289 212.791 87.8267L213.078 89.1672L212.195 87.8281C211.708 87.0915 210.817 85.7061 210.214 84.7491C208.311 81.7282 201.655 74.3365 198.881 72.1635C193.95 68.2995 187.929 65.4116 180.62 63.404C170.412 60.6007 161.204 60.4916 147.989 63.0172C144.4 63.7032 141.537 64.0107 141.626 63.7007C142.052 62.2202 144.768 58.197 146.386 56.6519C147.379 55.7024 150.818 53.1838 154.027 51.0548C159.511 47.4175 160.457 46.5694 159.975 45.7199C159.436 44.7695 157.323 45.6504 152.749 48.7327C147.738 52.108 147.719 52.1158 147.808 50.5931C147.997 47.3769 148.253 46.9995 150.48 46.6549C151.652 46.4737 153.64 45.7635 154.896 45.0764L157.179 43.8272L163.392 46.4346C172.641 50.3156 175.684 50.868 178.193 49.1211C178.685 48.779 179.331 48.5835 179.628 48.6873C179.926 48.7912 182.969 51.5893 186.39 54.9056ZM106.657 29.4474C112.614 32.9178 115.227 39.2562 113.409 45.8278C110.753 55.4283 100.516 59.3838 91.9688 54.1127C88.5006 51.9735 85.7365 47.2795 85.5267 43.1718C85.2372 37.5005 88.5086 31.6321 93.2328 29.3493C97.3113 27.3781 103.179 27.421 106.657 29.4474ZM76.9505 21.8162C76.8762 22.0847 76.4857 22.2131 76.0826 22.1016C75.6796 21.9901 75.4106 21.6792 75.4849 21.4107C75.5592 21.1423 75.9497 21.0139 76.3527 21.1254C76.7557 21.2369 77.0247 21.5478 76.9505 21.8162ZM132.403 37.7235C132.227 37.9853 131.874 38.1419 131.619 38.0714C131.364 38.0008 131.141 37.685 131.125 37.3699C131.109 37.0548 131.461 36.898 131.909 37.022C132.357 37.1459 132.579 37.4616 132.403 37.7235ZM128.329 37.6077C128.254 37.8761 127.987 38.0386 127.734 37.9686C127.481 37.8986 127.199 37.5842 127.107 37.2698C127.015 36.9554 127.283 36.793 127.702 36.9089C128.121 37.0247 128.403 37.3392 128.329 37.6077ZM70.7449 22.9882C71.1261 25.3814 73.7827 29.9181 75.9676 31.9076C77.2782 33.101 79.2108 34.242 81.0719 34.9214C84.0622 36.0125 84.0659 36.0162 83.6407 37.5532C83.4065 38.3995 83.1944 40.4815 83.169 42.1795C83.1278 44.9383 83.0318 45.289 82.2664 45.476C81.7954 45.5911 78.703 46.7337 75.395 48.0149C53.4952 56.4947 33.345 75.4164 13.9906 105.676C12.0667 108.684 10.3451 111.104 10.1644 111.054C9.78822 110.95 10.4076 98.7966 11.2568 89.6219C12.0327 81.2403 15.9128 66.787 18.9567 60.9424C26.6658 46.1376 39.1357 34.6325 55.6272 27.108C60.9304 24.6886 69.599 21.3586 70.1775 21.5186C70.3694 21.5718 70.6246 22.2329 70.7449 22.9882ZM100.052 32.4114C100.144 32.7258 99.8759 32.8881 99.4572 32.7723C99.0385 32.6565 98.7564 32.342 98.8306 32.0735C98.9049 31.8051 99.1723 31.6426 99.4254 31.7126C99.6784 31.7826 99.9601 32.097 100.052 32.4114ZM95.7645 31.7506C95.6902 32.0191 95.4096 32.1779 95.1409 32.1035C94.8722 32.0292 94.7132 31.7487 94.7874 31.4803C94.8617 31.2118 95.1423 31.053 95.411 31.1274C95.6797 31.2017 95.8387 31.4822 95.7645 31.7506ZM127.669 41.8915C127.558 42.2942 127.137 42.5324 126.734 42.4209C126.331 42.3094 126.092 41.8887 126.204 41.486C126.315 41.0834 126.736 40.8452 127.139 40.9567C127.542 41.0682 127.781 41.4889 127.669 41.8915ZM94.9621 36.5514C94.8464 36.9697 94.5693 37.1158 94.3465 36.8755C94.1238 36.6352 93.9986 36.2322 94.0686 35.9794C94.1385 35.7266 94.4155 35.5809 94.6841 35.6553C94.9528 35.7296 95.0779 36.1331 94.9621 36.5514ZM122.899 45.8262C122.788 46.2289 122.367 46.4671 121.964 46.3556C121.561 46.2441 121.322 45.8234 121.434 45.4207C121.545 45.0181 121.966 44.7798 122.369 44.8913C122.772 45.0029 123.011 45.4235 122.899 45.8262ZM90.2 40.4572C90.0886 40.8599 89.7776 41.1285 89.509 41.0542C89.2403 40.9799 89.1116 40.5896 89.223 40.1869C89.3344 39.7842 89.6454 39.5156 89.9141 39.59C90.1828 39.6643 90.3115 40.0546 90.2 40.4572ZM188.957 69.1097C194.913 72.6845 198.839 76.965 202.577 83.9609C206.514 91.3296 208.567 99.4977 207.812 104.787C207.593 106.316 207.371 109.053 207.317 110.87C207.234 113.71 206.999 114.623 205.65 117.37C204.41 119.894 204.052 121.144 203.944 123.319C203.83 125.617 203.603 126.332 202.571 127.645C201.692 128.764 201.372 129.601 201.461 130.551C201.765 133.777 195.345 146.722 191.905 149.824C190.615 150.986 189.678 152.319 189.371 153.43C189.103 154.399 188.048 156.072 187.027 157.148C185.919 158.317 184.947 159.912 184.616 161.107C184.251 162.42 183.151 164.11 181.414 166.024C179.959 167.628 178.659 169.334 178.526 169.816C178.391 170.304 177.288 170.992 176.034 171.37C173.726 172.065 173.384 172.403 171.964 175.376C171.294 176.78 170.683 177.222 168.676 177.756C165.831 178.512 165.53 178.734 164.62 180.75C164.231 181.613 163.117 182.672 161.974 183.269C160.889 183.836 159.55 184.887 158.999 185.604C158.443 186.328 156.725 187.341 155.137 187.882C153.564 188.419 151.483 189.548 150.512 190.393C149.541 191.237 147.977 192.09 147.035 192.287C145.938 192.518 144.776 193.332 143.794 194.558C142.927 195.642 141.937 196.379 141.509 196.26C141.094 196.145 140.247 196.394 139.628 196.813C139.009 197.232 136.836 197.61 134.799 197.653C129.73 197.76 128.62 198.039 123.987 200.368C119.605 202.572 117.953 202.804 116.331 201.446C114.591 199.989 113.059 199.837 111.524 200.969C109.45 202.498 107.997 202.708 106.372 201.714C105.263 201.036 104.426 200.986 102.068 201.46C99.3997 201.995 98.9919 201.949 97.4727 200.937C95.5143 199.632 94.1057 199.648 90.1316 201.02C88.6896 201.517 86.6207 201.802 85.5341 201.653C83.7928 201.413 83.3834 201.106 82.0854 199.066C80.7597 196.982 80.3382 196.676 77.8628 195.991C75.3469 195.295 75.0148 195.045 73.9592 193.049C73.3244 191.85 72.1526 190.424 71.3552 189.881C70.5578 189.338 69.1418 187.995 68.2092 186.897C67.2261 185.739 65.3487 184.332 63.7429 183.55C61.4593 182.436 60.7596 181.787 59.7606 179.855C58.7555 177.911 58.2246 177.421 56.6457 176.984C55.08 176.551 54.5258 176.049 53.5251 174.159C52.7811 172.753 51.4798 171.321 50.1769 170.474C48.5995 169.448 47.9703 168.664 47.7555 167.456C47.4944 165.985 47.5658 165.798 48.4793 165.554C51.0675 164.866 53.0333 163.613 55.0023 161.399C56.9232 159.239 57.3275 158.388 58.973 153.045C60.5066 148.064 60.8895 147.217 61.3227 147.839C61.7168 148.404 61.6484 148.783 61.0344 149.426C59.9911 150.521 59.7014 153.284 60.4184 155.308C60.7293 156.186 60.8213 158.041 60.6223 159.431C60.0679 163.302 61.42 169.174 63.929 173.793C66.4317 178.401 69.5725 182.809 71.8171 184.864C74.0205 186.882 80.5784 190.095 83.2165 190.45C84.553 190.63 86.5189 191.374 88.1857 192.329C91.2148 194.065 92.9225 194.394 99.1382 194.434C101.434 194.449 104.422 194.857 106.307 195.412C110.381 196.612 111.972 196.462 113.568 194.726C115.251 192.897 115.673 192.808 118.703 193.637C121.951 194.525 124.287 194.237 127.638 192.533C129.088 191.795 131.05 191.033 131.996 190.84C132.942 190.647 134.515 189.883 135.491 189.142C136.763 188.177 137.727 187.878 138.894 188.082C140.216 188.315 140.777 188.071 141.88 186.784C142.821 185.688 144.007 185.044 145.735 184.694C149.119 184.009 157.059 179.553 160.844 176.216C162.548 174.714 165.022 171.97 166.341 170.118C168.181 167.535 168.988 166.78 169.804 166.879C171.184 167.044 173.445 165.37 173.859 163.876C174.285 162.333 176.113 160.041 177.364 159.48C177.912 159.234 179.401 157.399 180.67 155.403C182.297 152.847 183.528 151.485 184.835 150.797C187.007 149.653 187.86 148.34 188.244 145.549C188.397 144.435 188.941 142.886 189.453 142.106C189.965 141.325 191.12 138.613 192.019 136.077C193.539 131.79 193.797 131.373 195.713 130.119C198.082 128.566 198.739 126.915 198.513 123.073C198.378 120.781 198.485 120.409 199.879 118.33C200.919 116.78 201.478 115.369 201.667 113.817C202.062 110.568 201.623 104.503 200.745 101.067C200.256 99.1523 200.192 97.7532 200.564 97.1131C201.704 95.1477 201.466 92.6539 199.865 89.7826C198.744 87.7733 198.404 86.5662 198.679 85.5735C198.89 84.8082 198.707 83.0131 198.272 81.5844C196.024 74.2013 183.272 65.7263 174.579 65.837C171.292 65.8791 169.135 65.4089 168.278 64.4638C167.213 63.2907 171.615 63.7005 178.742 65.4382C184.614 66.8693 186.133 67.4159 188.957 69.1097ZM122.24 50.1101C122.166 50.3785 121.885 50.5373 121.616 50.463C121.348 50.3886 121.189 50.1082 121.263 49.8397C121.337 49.5713 121.618 49.4125 121.886 49.4868C122.155 49.5612 122.314 49.8416 122.24 50.1101ZM182.935 70.1013C191.343 74.3041 196.869 80.5571 196.38 85.3169C196.226 86.8124 196.607 88.3722 197.64 90.4727C199.002 93.2463 199.061 93.6945 198.386 96.1359C197.8 98.2522 197.822 99.3411 198.492 101.533C198.953 103.044 199.396 106.255 199.476 108.67C199.623 113.089 199.595 113.202 197.05 118.782C196.605 119.758 196.244 121.604 196.249 122.886C196.26 126.161 195.757 127.608 194.375 128.274C192.35 129.251 191.386 130.658 190.432 134.028C189.928 135.81 188.877 138.37 188.098 139.716C187.318 141.063 186.38 143.445 186.012 145.01C185.39 147.665 185.186 147.958 183.014 149.337C181.721 150.158 180.183 151.686 179.558 152.768C177.578 156.203 177.372 156.46 175.031 158.423C173.633 159.596 172.56 160.954 172.298 161.883C171.737 163.874 171.236 164.274 168.934 164.568C167.221 164.787 166.811 165.146 164.933 168.071C161.066 174.092 151.532 180.959 144.745 182.612C143.505 182.914 141.732 183.832 140.806 184.652C139.632 185.691 138.766 186.044 137.947 185.817C137.189 185.607 135.938 186.026 134.422 186.996C133.13 187.824 131.319 188.654 130.4 188.842C129.48 189.03 127.475 189.832 125.945 190.624C123.34 191.972 122.93 192.02 119.506 191.374C115.562 190.63 113.466 190.99 112.273 192.614C111.187 194.093 110.563 194.143 106.9 193.048C104.782 192.415 102.414 192.111 100.225 192.191C95.4701 192.365 91.5447 191.645 88.9288 190.118C87.7289 189.418 85.0884 188.427 83.0603 187.917C81.0091 187.4 78.166 186.29 76.6528 185.414C69.3393 181.181 61.2342 166.068 62.9484 159.859C63.2262 158.853 63.1328 156.739 62.729 154.895C62.0468 151.781 62.0626 151.642 63.2433 150.369C64.4017 149.119 64.4276 148.979 63.7764 147.491C61.7693 142.905 62.3794 137.566 65.2687 134.424C66.5257 133.057 66.8977 132.192 67.3795 129.511C68.01 126.008 70.172 122.256 72.8088 120.09C75.4263 117.94 76.6457 116.211 78.2242 112.411C79.4868 109.371 80.6393 107.603 83.5188 104.289C87.4324 99.7855 95.0884 92.3695 95.8952 92.3006C96.1609 92.2774 96.4411 92.0329 96.5175 91.7566C96.7237 91.0113 99.8301 88.809 103.865 86.5474C105.827 85.4475 107.995 83.8307 108.685 82.9542C110.974 80.0408 129.161 70.4155 131.273 70.9998C131.749 71.1317 132.803 70.7212 133.613 70.0873C134.611 69.3062 136.596 68.7445 139.765 68.3449C142.442 68.0076 145.374 67.2454 146.62 66.5629C149.01 65.2534 153.688 64.2532 159.079 63.8987L162.566 63.6697L166.23 65.9213L169.894 68.1724L174 68.1831C178.368 68.1947 179.686 68.4779 182.935 70.1013ZM115.807 53.848C119.306 62.3834 128.719 66.408 137.66 63.1908C138.207 62.9942 138.745 62.9927 138.856 63.1879C139.431 64.2031 137.043 65.6331 130.537 68.168C122.777 71.1918 111.072 77.4916 104.723 82.061C102.557 83.6201 100.622 84.969 100.423 85.0585C100.224 85.1479 99.6487 85.6592 99.1444 86.1949C98.6403 86.7301 98.15 87.0311 98.0544 86.8633C97.9594 86.6952 99.0986 83.6669 100.587 80.133C103.285 73.7246 103.294 73.6883 104.193 66.0663L105.094 58.4245L107.111 57.3138C109.917 55.7688 111.895 54.1517 113.296 52.2557L114.491 50.6381L115.807 53.848ZM90.0292 44.8763C89.955 45.1447 89.5644 45.2731 89.1614 45.1616C88.7584 45.0501 88.4894 44.7392 88.5637 44.4708C88.6379 44.2023 89.0285 44.0739 89.4315 44.1854C89.8345 44.2969 90.1035 44.6078 90.0292 44.8763ZM207.847 86.1025C209.657 88.7481 212.095 92.319 213.265 94.0381C216.232 98.3985 216.997 103.384 216.155 112.875C215.629 118.799 212.638 130.082 209.99 136.128C206.475 144.155 198.923 156.504 195.916 159.144C195.071 159.886 194.477 159.972 193.306 159.523C191.811 158.949 191.801 158.908 192.548 156.524C192.964 155.194 194.964 151.609 196.991 148.558C203.328 139.022 205.309 134.721 208.261 124.09C210.884 114.642 211.144 112.831 210.903 105.642C210.681 99.0013 208.235 89.402 205.324 83.744C204.585 82.3079 204.11 81.1688 204.269 81.2126C204.427 81.2564 206.037 83.4569 207.847 86.1025ZM85.5092 50.8705C88.514 55.7551 94.2762 59.0329 99.6827 58.9319C101.209 58.9039 102.439 58.9499 102.415 59.0344C102.392 59.1188 102.177 61.1155 101.938 63.4716C101.111 71.6273 100.515 73.9429 97.4077 81.0574C95.7783 84.7891 94.2798 88.4393 94.0778 89.1695C93.8733 89.9085 92.032 92.0835 89.9232 94.0768C87.8407 96.0459 84.8091 99.107 83.1875 100.879L80.2391 104.102L78.6076 98.0401C76.9267 91.7941 76.6674 89.3972 77.3895 86.7702C78.614 82.3122 78.1974 76.5699 76.3762 72.8099C74.8219 69.6002 73.2064 69.4517 66.929 71.9416C53.3707 77.3199 52.095 78.1098 46.3661 84.6833C43.8803 87.5355 41.7612 89.8459 41.6566 89.817C41.1696 89.6822 47.0055 78.1314 50.1587 72.9906C53.2736 67.9118 58.5874 60.8771 61.2926 58.2523C62.2891 57.2853 65.2446 55.4248 67.8609 54.1178C72.5812 51.7599 82.8025 47.5874 83.3754 47.7843C83.5396 47.8407 84.5001 49.2299 85.5092 50.8705ZM173.543 92.1735C179.2 94.25 181.947 96.1265 184.065 99.3629C186.056 102.405 186.876 105.867 186.635 110.225C186.504 112.59 186.805 114.048 187.896 116.344C190.394 121.597 190.523 123.571 188.766 129.73C187.675 133.555 186.574 136.256 184.919 139.175C178.432 150.61 172.093 156.315 166.541 155.712C165.256 155.573 164.332 155.973 162.615 157.414C161.38 158.45 157.524 161.085 154.047 163.27C149.071 166.395 147.631 167.552 147.289 168.698C145.635 174.239 137.858 177.336 126.599 176.938C123.181 176.817 118.917 177.011 117.123 177.37C107.883 179.216 99.7411 175.104 94.3715 165.879C89.5782 157.643 89.1233 146.879 92.873 130.379C94.7144 122.276 95.2494 121.258 101.008 114.912C109.786 105.239 118.015 98.6503 125.625 95.2024C129.995 93.2225 129.488 93.3419 146.07 90.3863C156.633 88.5036 158.075 88.3742 161.965 88.9617C166.599 89.6617 167.011 89.7756 173.543 92.1735ZM51.6651 66.4453C43.1779 78.8536 37.7421 90.7679 33.4117 106.452C31.3212 114.025 30.6478 117.321 30.118 122.576C29.3681 130.019 29.9606 138.565 31.5583 143.34C32.1052 144.975 32.6319 146.584 32.7286 146.915C32.8253 147.246 32.2713 146.862 31.4982 146.062C30.7251 145.262 29.0931 144.04 27.8723 143.347C23.3811 140.797 20.4048 137.371 18.496 132.553C17.6022 130.297 16.5562 128.788 14.825 127.255C11.7449 124.529 10.5407 122.268 10.2159 118.604C9.90043 115.044 9.86129 115.189 11.7396 112.949C12.5809 111.946 15.3754 107.925 17.9492 104.013C26.0054 91.7689 34.0888 81.525 42.1117 73.3914C45.4214 70.0358 53.2841 63.0837 53.6534 63.1859C53.7648 63.2167 52.8698 64.6836 51.6651 66.4453ZM169.62 101.26C177.671 106.9 181.893 110.999 185.023 116.21C188.678 122.297 188.301 127.499 183.538 136.691C177.541 148.263 170.847 154.46 165.842 153.076C163.468 152.419 162.533 151.16 161.018 146.577C159.682 142.538 159.162 141.759 154.024 136.103C150.879 132.64 150.867 132.615 149.962 127.263C149.14 122.402 148.735 121.363 145.655 116.231C141.501 109.306 141.001 107.758 141.887 104.555C142.976 100.62 146.186 98.3094 152.069 97.2253C158.801 95.9847 163.698 97.11 169.62 101.26ZM74.4031 74.6836C75.5801 77.915 75.7515 81.2569 74.9768 85.8588C74.1462 90.7941 74.3996 93.3606 76.3626 99.9137C78.1654 105.93 78.0634 106.415 73.7021 112.563C67.5357 121.258 63.8327 128.426 59.9569 139.173C59.1235 141.484 58.3773 143.261 58.2979 143.121C58.2191 142.983 58.1075 140.044 58.0496 136.592C57.912 128.386 58.6386 120.609 60.3176 112.32C61.0658 108.625 61.6835 104.593 61.6904 103.359C61.7062 100.507 60.1093 98.0751 57.8025 97.4368C54.2241 96.4468 51.152 98.1279 48.2222 102.68C46.2512 105.742 43.4558 108.861 38.432 113.605C36.4273 115.498 34.5225 117.512 34.1997 118.082C33.8764 118.652 33.4467 119.072 33.245 119.016C32.6509 118.852 35.8041 105.526 37.7559 99.9523C39.4643 95.0739 39.6682 94.7325 41.8549 93.075C43.1206 92.1158 44.4824 90.8873 44.8813 90.3445C47.3991 86.9164 52.878 81.3094 54.8208 80.1723C58.1941 78.1973 72.1476 72.5064 73.0226 72.7485C73.4359 72.8628 74.057 73.7335 74.4031 74.6836ZM148.594 95.52C143.903 97.1972 140.402 100.435 139.429 103.995C138.507 107.369 139.408 110.36 143.472 117.415C146.734 123.078 147.326 124.507 147.569 127.315C147.952 131.744 149.539 134.884 153.521 139.093C155.359 141.034 157.187 143.264 157.585 144.048C158.588 146.024 159.836 150.406 159.458 150.621C159.286 150.718 158.542 150.479 157.805 150.089C156.539 149.421 154.037 144.996 153.105 141.777C152.895 141.057 150.992 138.602 148.875 136.323C146.758 134.043 144.693 131.532 144.287 130.742C143.881 129.952 143.173 127.143 142.713 124.5C141.988 120.325 141.472 119.045 138.786 114.744C134.097 107.235 133.439 104.281 135.626 100.575C137.536 97.3387 143.573 94.7057 148.567 94.9315L150.053 94.9983L148.594 95.52ZM206.696 121.073C206.515 121.636 206.368 121.719 206.319 121.287C206.276 120.896 206.41 120.479 206.617 120.362C206.824 120.245 206.86 120.565 206.696 121.073ZM128.218 102.264C129.253 103.197 130.996 105.869 132.28 108.493C133.517 111.02 135.884 115.628 137.54 118.733C139.196 121.838 140.534 125.04 140.515 125.848C140.471 127.71 137.867 131.612 135.045 134.046C132.115 136.573 129.085 137.404 118.12 138.69C106.289 140.077 106.298 140.08 103.97 134.175C102.01 129.205 101.815 127.734 102.693 124.56C103.451 121.822 104.231 120.753 108.032 117.245C109.538 115.855 112.065 112.889 113.646 110.654C118 104.502 118.743 103.672 121.381 102.017C124.434 100.101 125.879 100.153 128.218 102.264ZM185.652 121.25C185.578 121.518 185.297 121.677 185.029 121.603C184.76 121.529 184.601 121.248 184.675 120.98C184.749 120.711 185.03 120.552 185.299 120.627C185.567 120.701 185.726 120.982 185.652 121.25ZM185.981 125.764C185.863 126.189 185.419 126.44 184.994 126.322C184.131 126.084 184.572 125.074 185.561 125.023C185.91 125.005 186.099 125.339 185.981 125.764ZM181.974 130.741C181.9 131.01 181.509 131.138 181.106 131.027C180.703 130.915 180.434 130.604 180.509 130.336C180.583 130.067 180.974 129.939 181.377 130.051C181.78 130.162 182.049 130.473 181.974 130.741ZM154.565 124.048C154.963 124.75 154.588 125.266 153.833 125.057C153.43 124.945 153.157 124.648 153.227 124.395C153.397 123.779 154.282 123.55 154.565 124.048ZM135.656 119.472C135.586 119.724 135.272 120.006 134.957 120.097C134.642 120.189 134.48 119.921 134.596 119.503C134.711 119.085 135.026 118.803 135.295 118.877C135.563 118.951 135.726 119.219 135.656 119.472ZM182.36 135.051C182.285 135.32 181.895 135.448 181.492 135.337C181.089 135.225 180.82 134.914 180.894 134.646C180.968 134.378 181.359 134.249 181.762 134.361C182.165 134.472 182.434 134.783 182.36 135.051ZM58.6088 101.309C59.4267 102.751 59.3329 103.829 57.624 112.625C55.4885 123.619 54.9977 133.773 56.0048 146.122C56.3527 150.384 56.3162 153.42 55.8992 154.928C55.2888 157.134 52.2473 161.58 51.4921 161.371C50.8589 161.196 49.7342 157.057 49.4558 153.878C49.3082 152.193 49.4243 148.671 49.7143 146.053C50.3383 140.412 50.2043 137.749 49.0621 133.088C48.0459 128.941 47.4502 127.982 45.8798 127.963C43.9319 127.94 37.7964 133.997 35.0694 138.635C34.3938 139.784 33.6873 140.682 33.4992 140.63C33.3111 140.578 32.935 138.759 32.6629 136.589C31.3112 125.808 32.6984 122.583 42.8109 112.996C44.7444 111.163 47.663 107.809 49.2965 105.543C53.467 99.7572 56.8552 98.2167 58.6088 101.309ZM157.949 130.137C157.838 130.539 157.417 130.778 157.014 130.666C156.611 130.555 156.372 130.134 156.484 129.731C156.595 129.329 157.016 129.09 157.419 129.202C157.822 129.313 158.061 129.734 157.949 130.137ZM153.62 128.676C153.546 128.945 153.265 129.104 152.997 129.029C152.728 128.955 152.569 128.674 152.643 128.406C152.717 128.138 152.998 127.979 153.267 128.053C153.535 128.127 153.694 128.408 153.62 128.676ZM135.898 124.299C135.824 124.567 135.434 124.695 135.031 124.584C134.628 124.472 134.359 124.162 134.433 123.893C134.507 123.625 134.898 123.496 135.301 123.608C135.704 123.719 135.973 124.03 135.898 124.299ZM161.198 135.502C161.124 135.77 160.72 135.895 160.302 135.779C159.883 135.663 159.737 135.387 159.977 135.164C160.217 134.942 160.62 134.817 160.874 134.887C161.127 134.957 161.272 135.234 161.198 135.502ZM156.801 134.285C156.727 134.554 156.337 134.682 155.934 134.571C155.531 134.459 155.262 134.148 155.336 133.88C155.41 133.612 155.801 133.483 156.204 133.595C156.607 133.706 156.876 134.017 156.801 134.285ZM131.892 129.276C131.774 129.701 131.441 129.89 131.151 129.695C130.329 129.143 130.469 128.051 131.332 128.29C131.758 128.407 132.009 128.851 131.892 129.276ZM146.039 136.659C146.362 137.228 145.728 137.532 143.279 137.986C141.53 138.31 137.603 139.537 134.55 140.712C131.497 141.888 126.676 143.297 123.836 143.844C114.981 145.551 111.145 148.747 108.101 156.953C107.285 159.153 106.634 160.305 106.324 160.099C105.071 159.265 108.709 149.319 111.302 146.49C113.413 144.186 117.047 142.542 122.317 141.506C124.848 141.008 129.431 139.644 132.502 138.474C141.02 135.232 144.932 134.707 146.039 136.659ZM132.1 133.195C132.185 133.487 131.993 133.803 131.674 133.896C131.354 133.989 131.187 133.723 131.303 133.304C131.54 132.447 131.868 132.402 132.1 133.195ZM150.108 141.178C151.475 142.832 151.155 145.222 148.047 156.582C146.396 162.615 144.851 168.191 144.613 168.973C143.719 171.919 134.085 175.46 128.905 174.747C127.116 174.501 121.829 171.978 111.045 166.224C107.792 164.488 107.755 164.155 110.142 158.075C113.447 149.661 115.7 147.849 125.258 145.924C128.124 145.347 132.991 143.882 136.075 142.67C139.158 141.457 142.542 140.346 143.595 140.2C146.76 139.762 149.247 140.135 150.108 141.178ZM154.389 149.877C155.12 151.013 156.322 152.01 157.705 152.625C159.075 153.235 159.806 153.838 159.689 154.261C159.352 155.479 149.433 162.258 149.064 161.523C148.995 161.385 149.907 158.307 151.091 154.683L153.244 148.094L154.389 149.877ZM104.633 140.361C106.508 141.424 108.521 142.437 109.107 142.611C110.588 143.051 110.649 143.727 109.34 145.18C107.906 146.773 106.376 149.888 104.467 155.102C103.018 159.06 102.991 159.295 103.817 160.751C104.291 161.587 104.96 162.486 105.305 162.75C106.457 163.633 103.294 164.67 101.208 164.092C99.6241 163.654 99.1608 163.186 98.068 160.922C97.3632 159.461 96.6598 156.725 96.5051 154.841C96.3505 152.957 96.0277 149.528 95.7875 147.22C94.7347 137.092 96.4804 135.738 104.633 140.361ZM46.9256 136.069C47.5049 139.358 47.5757 142.192 47.1795 146.254C46.5924 152.269 46.9251 156.988 48.1978 160.706C48.9258 162.833 48.911 163.017 48.0089 163.113C45.9977 163.326 43.9168 162.38 41.3894 160.105C38.4643 157.472 37.3644 155.294 35.7562 148.955L34.6555 144.617L36.1453 141.886C38.6078 137.371 44.3489 131.021 45.645 131.38C45.9078 131.452 46.4842 133.562 46.9256 136.069ZM113.895 156.305C113.783 156.708 113.369 156.948 112.975 156.839C112.538 156.718 112.447 156.385 112.741 155.986C113.007 155.626 113.421 155.386 113.661 155.453C113.901 155.519 114.006 155.903 113.895 156.305ZM117.076 161.915C116.952 162.362 116.637 162.584 116.374 162.408C116.112 162.232 115.955 161.879 116.026 161.624C116.097 161.369 116.412 161.147 116.728 161.131C117.043 161.115 117.2 161.467 117.076 161.915ZM112.747 160.454C112.673 160.723 112.392 160.881 112.123 160.807C111.855 160.733 111.696 160.452 111.77 160.184C111.844 159.915 112.125 159.757 112.394 159.831C112.662 159.905 112.821 160.186 112.747 160.454ZM120.325 167.28C120.251 167.548 119.86 167.677 119.457 167.565C119.054 167.454 118.785 167.143 118.859 166.874C118.934 166.606 119.324 166.477 119.727 166.589C120.13 166.7 120.399 167.011 120.325 167.28ZM115.928 166.063C115.854 166.332 115.573 166.491 115.305 166.416C115.036 166.342 114.877 166.061 114.951 165.793C115.026 165.525 115.306 165.366 115.575 165.44C115.844 165.514 116.003 165.795 115.928 166.063Z" fill="#FA1B7A"></path> <path d="M104.633 140.361C106.508 141.424 108.521 142.437 109.107 142.611C110.588 143.051 110.649 143.727 109.34 145.18C107.906 146.773 106.376 149.888 104.467 155.102C103.018 159.06 102.991 159.295 103.817 160.751C104.291 161.587 104.96 162.486 105.305 162.75C106.457 163.633 103.294 164.67 101.208 164.092C99.6241 163.654 99.1608 163.186 98.068 160.922C97.3632 159.461 96.6598 156.725 96.5051 154.841C96.3505 152.957 96.0277 149.528 95.7875 147.22C94.7347 137.092 96.4804 135.738 104.633 140.361Z" fill="#FA1B7A"></path> <path d="M154.389 149.877C155.12 151.013 156.322 152.01 157.705 152.625C159.075 153.235 159.806 153.838 159.689 154.261C159.352 155.479 149.433 162.258 149.064 161.523C148.995 161.385 149.907 158.307 151.091 154.683L153.244 148.094L154.389 149.877Z" fill="#FA1B7A"></path> <path d="M51.6651 66.4453C43.1779 78.8536 37.7421 90.7679 33.4117 106.452C31.3212 114.025 30.6478 117.321 30.118 122.576C29.3681 130.019 29.9606 138.565 31.5583 143.34C32.1052 144.975 32.6319 146.584 32.7286 146.915C32.8253 147.246 32.2713 146.862 31.4982 146.062C30.7251 145.262 29.0931 144.04 27.8723 143.347C23.3811 140.797 20.4048 137.371 18.496 132.553C17.6022 130.297 16.5562 128.788 14.825 127.255C11.7449 124.529 10.5407 122.268 10.2159 118.604C9.90043 115.044 9.86129 115.189 11.7396 112.949C12.5809 111.946 15.3754 107.925 17.9492 104.013C26.0054 91.7689 34.0888 81.525 42.1117 73.3914C45.4214 70.0358 53.2841 63.0837 53.6534 63.1859C53.7648 63.2167 52.8698 64.6836 51.6651 66.4453Z" fill="#FA1B7A"></path> <path d="M70.7546 16.2925C70.4414 18.3712 70.225 18.7464 69.1216 19.1247C57.9515 22.9575 44.7061 29.7381 37.3882 35.3696C28.6234 42.1152 21.0433 51.4143 16.192 61.3734C12.71 68.5223 9.91979 79.7399 8.86355 90.8377C8.12012 98.6514 7.49985 109.006 7.59361 112.051C7.63762 113.483 6.76377 112.908 6.51419 111.34C5.94265 107.751 6.97789 89.3597 8.36275 78.5036C9.49312 69.6431 12.9781 58.8758 16.9487 51.976C25.2236 37.5958 37.4318 27.1259 54.5157 19.7564C59.6037 17.5617 70.3521 13.6853 70.9168 13.8415C71.0262 13.8718 70.9534 14.9751 70.7546 16.2925Z" fill="#FA1B7A"></path> <path d="M207.847 86.1025C209.657 88.7481 212.095 92.319 213.265 94.0381C216.232 98.3985 216.997 103.384 216.155 112.875C215.629 118.799 212.638 130.082 209.99 136.128C206.475 144.155 198.923 156.504 195.916 159.144C195.071 159.886 194.477 159.972 193.306 159.523C191.811 158.949 191.801 158.908 192.548 156.524C192.964 155.194 194.964 151.609 196.991 148.558C203.328 139.022 205.309 134.721 208.261 124.09C210.884 114.642 211.144 112.831 210.903 105.642C210.681 99.0013 208.235 89.402 205.324 83.744C204.585 82.3079 204.11 81.1688 204.269 81.2126C204.427 81.2564 206.037 83.4569 207.847 86.1025Z" fill="#FA1B7A"></path> <path d="M85.5092 50.8705C88.514 55.7551 94.2762 59.0329 99.6827 58.9319C101.209 58.9039 102.439 58.9499 102.415 59.0344C102.392 59.1188 102.177 61.1155 101.938 63.4716C101.111 71.6273 100.515 73.9429 97.4077 81.0574C95.7783 84.7891 94.2798 88.4393 94.0778 89.1695C93.8733 89.9085 92.032 92.0835 89.9232 94.0768C87.8407 96.0459 84.8091 99.107 83.1875 100.879L80.2391 104.102L78.6076 98.0401C76.9267 91.7941 76.6674 89.3972 77.3895 86.7702C78.614 82.3122 78.1974 76.5699 76.3762 72.8099C74.8219 69.6002 73.2064 69.4517 66.929 71.9416C53.3707 77.3199 52.095 78.1098 46.3661 84.6833C43.8803 87.5355 41.7612 89.8459 41.6566 89.817C41.1696 89.6822 47.0055 78.1314 50.1587 72.9906C53.2736 67.9118 58.5874 60.8771 61.2926 58.2523C62.2891 57.2853 65.2446 55.4248 67.8609 54.1178C72.5812 51.7599 82.8025 47.5874 83.3754 47.7843C83.5396 47.8407 84.5001 49.2299 85.5092 50.8705Z" fill="#FA1B7A"></path> <path d="M58.6088 101.309C59.4267 102.751 59.3329 103.829 57.624 112.625C55.4885 123.619 54.9977 133.773 56.0048 146.122C56.3527 150.384 56.3162 153.42 55.8992 154.928C55.2888 157.134 52.2473 161.58 51.4921 161.371C50.8589 161.196 49.7342 157.057 49.4558 153.878C49.3082 152.193 49.4243 148.671 49.7143 146.053C50.3383 140.412 50.2043 137.749 49.0621 133.088C48.0459 128.941 47.4502 127.982 45.8798 127.963C43.9319 127.94 37.7964 133.997 35.0694 138.635C34.3938 139.784 33.6873 140.682 33.4992 140.63C33.3111 140.578 32.935 138.759 32.6629 136.589C31.3112 125.808 32.6984 122.583 42.8109 112.996C44.7444 111.163 47.663 107.809 49.2965 105.543C53.467 99.7572 56.8552 98.2167 58.6088 101.309Z" fill="#FA1B7A"></path> <path d="M140.188 14.5462C140.267 14.8189 139.831 15.293 139.219 15.6006C138.369 16.0271 136.707 15.8432 132.221 14.8269C128.986 14.094 126.216 13.4963 126.066 13.4986C125.917 13.5013 125.007 12.6736 124.044 11.6596L122.293 9.81536L124.67 10.1357C128.186 10.6088 140.02 13.9728 140.188 14.5462Z" fill="#FA1B7A"></path> <path d="M102.679 9.66046C101.676 10.541 101.385 10.5719 100.736 9.86466C99.8399 8.88902 100.302 8.52603 102.365 8.58361L103.859 8.62535L102.679 9.66046Z" fill="#FA1B7A"></path> <path d="M165.843 29.3742L166.861 30.4472L165.728 29.7901C165.105 29.429 164.44 28.8804 164.251 28.5716C163.698 27.6683 164.709 28.1782 165.843 29.3742Z" fill="#FA1B7A"></path> <path d="M186.39 54.9056C195.373 63.6122 199.456 67.9246 203.891 73.3881C207.903 78.3319 212.278 85.4289 212.791 87.8267L213.078 89.1672L212.195 87.8281C211.708 87.0915 210.817 85.7061 210.214 84.7491C208.311 81.7282 201.655 74.3365 198.881 72.1635C193.95 68.2995 187.929 65.4116 180.62 63.404C170.412 60.6007 161.204 60.4916 147.989 63.0172C144.4 63.7032 141.537 64.0107 141.626 63.7007C142.052 62.2202 144.768 58.197 146.386 56.6519C147.379 55.7024 150.818 53.1838 154.027 51.0548C159.511 47.4175 160.457 46.5694 159.975 45.7199C159.436 44.7695 157.323 45.6504 152.749 48.7327C147.738 52.108 147.719 52.1158 147.808 50.5931C147.997 47.3769 148.253 46.9995 150.48 46.6549C151.652 46.4737 153.64 45.7635 154.896 45.0764L157.179 43.8272L163.392 46.4346C172.641 50.3156 175.684 50.868 178.193 49.1211C178.685 48.779 179.331 48.5835 179.628 48.6873C179.926 48.7912 182.969 51.5893 186.39 54.9056Z" fill="#FA1B7A"></path> </svg> 