<?xml version="1.0" encoding="UTF-8"?> <svg xmlns="http://www.w3.org/2000/svg" width="282" height="348" viewBox="0 0 282 348" fill="none"> <path fill-rule="evenodd" clip-rule="evenodd" d="M129.289 3.20025C135.804 8.20533 138.873 11.2586 142.735 16.577C153.465 31.3553 154.013 49.4584 144.285 67.8299L141.879 72.3739L144.217 74.2833C145.504 75.3327 146.869 76.2625 147.252 76.3486C147.636 76.4348 149.634 76.0172 151.693 75.4204C158.706 73.3881 176.239 74.1673 181.972 76.7662C183.253 77.3467 185.509 79.1247 186.985 80.7172C189.603 83.5421 189.81 83.6464 195.439 84.977C198.613 85.727 202.453 86.9613 203.972 87.7189C205.883 88.6722 208.445 89.3152 212.282 89.8057C225.914 91.5475 227.587 91.9455 230.838 94.216C233.138 95.8225 234.585 97.5364 236.738 101.206C240.028 106.814 241.535 108.49 246.351 111.895C248.268 113.25 250.796 115.422 251.969 116.721C255.853 121.022 257.637 130.227 255.8 136.483C255.374 137.934 253.812 141.124 252.329 143.572C250.153 147.163 249.509 148.808 248.997 152.08L248.362 156.138L252.621 160.322C254.964 162.624 258.296 165.736 260.027 167.238C268.188 174.323 270.832 178.296 269.815 181.946C269.334 183.673 269.459 184.111 270.691 185.013C272.424 186.282 274.474 189.535 274.725 191.418C274.826 192.171 276.003 194.188 277.341 195.901C279.45 198.6 279.726 199.316 279.418 201.283C279.157 202.952 279.49 204.406 280.675 206.777C282.214 209.856 282.245 210.154 281.368 213.426C280.682 215.985 280.559 218.286 280.881 222.528C281.274 227.71 281.193 228.541 279.945 232.045C278.86 235.094 278.622 236.553 278.791 239.136C278.97 241.875 278.809 242.704 277.775 244.386C276.861 245.872 276.658 246.702 276.982 247.628C277.987 250.499 271.172 269.174 267.962 272.344C266.839 273.454 266.124 274.816 265.894 276.29C265.688 277.602 264.802 279.461 263.77 280.749C262.782 281.98 261.575 284.469 261.042 286.375C260.488 288.356 259.174 291.028 257.918 292.726C256.725 294.339 255.494 296.354 255.181 297.204C254.814 298.203 253.733 299.13 252.132 299.821C250.076 300.708 249.513 301.309 248.85 303.323C247.939 306.09 246.813 307.197 243.403 308.68C241.519 309.499 240.949 310.089 240.738 311.434C240.551 312.63 239.708 313.713 237.942 315.028C236.551 316.064 234.847 317.667 234.155 318.59C233.463 319.514 231.408 321.019 229.589 321.937C227.77 322.854 225.774 324.297 225.152 325.144C224.531 325.99 222.917 327.16 221.566 327.743C220.048 328.398 218.855 329.403 218.444 330.374C217.675 332.193 215.956 333.741 214.89 333.575C214.485 333.511 213.303 333.973 212.265 334.6C211.227 335.227 208.241 336.014 205.631 336.348C201.597 336.863 200.249 337.371 196.651 339.73C190.826 343.549 189.123 344.039 185.243 343.016C182.241 342.223 181.974 342.264 179.479 343.894C177.083 345.46 176.641 345.543 174.225 344.878C172.086 344.29 171.031 344.359 168.649 345.242C165.86 346.277 165.593 346.271 163.376 345.135C161.184 344.012 160.883 344 158.432 344.936C148.993 348.541 147.291 348.451 143.81 344.16C142.052 341.993 141.501 341.659 139.773 341.711C137.256 341.786 134.648 340.201 132.765 337.45C131.983 336.305 130.929 335.305 130.425 335.226C129.921 335.147 128.32 333.981 126.867 332.635C125.243 331.131 122.984 329.752 121.005 329.057C117.476 327.817 116.298 326.906 114.815 324.267C114.058 322.92 113.327 322.439 111.628 322.173C110.346 321.973 108.91 321.278 108.198 320.513C107.524 319.79 106.122 318.674 105.081 318.033C102.389 316.378 99.9898 313.432 99.0831 310.67C98.5484 309.04 97.8106 308.102 96.7343 307.683C94.0613 306.642 90.1341 302.102 89.1145 298.874C88.2522 296.144 88.0041 295.875 86.058 295.568C83.9399 295.233 82.672 294.333 79.4666 290.89C76.9156 288.149 72.3462 286.24 67.6365 285.946C59.3882 285.432 54.0331 279.861 53.4651 271.204C53.3657 269.689 52.4855 266.974 51.5 265.141C50.5182 263.316 49.4514 260.282 49.13 258.4C48.7101 255.945 47.8661 254.087 46.1449 251.825C44.1336 249.182 43.7636 248.239 43.8597 245.996L43.9746 243.32L41.5854 243.268C35.6929 243.137 32.642 236.602 36.1751 231.678C36.8507 230.737 38.2501 229.297 39.2855 228.477C42.1298 226.227 43.2881 223.537 42.4912 221.032C42.0341 219.595 42.0739 218.233 42.6296 216.334C43.7986 212.339 43.9159 211.616 43.8991 208.503C43.8849 205.902 44.0445 205.526 45.6864 204.276C47.3967 202.973 47.5018 202.693 47.7461 198.779C48.0486 193.942 49.562 191.149 52.5163 189.977C54.0227 189.379 54.2939 189.001 54.1383 187.712C53.7809 184.743 54.7507 180.982 56.4721 178.66C57.4022 177.406 58.1836 176.253 58.2077 176.099C58.2319 175.944 57.2346 176.067 55.9915 176.372C45.8346 178.858 30.9133 177.114 19.1074 172.061C13.6237 169.714 0.218106 160.832 0.171732 159.514C0.115748 157.927 13.016 144.456 18.8049 140.058C24.7121 135.568 31.3111 132.44 36.9434 131.459C38.9395 131.111 40.9815 130.745 41.4802 130.645C42.0773 130.525 41.4403 129.735 39.6154 128.334C33.3576 123.527 28.4227 117.296 24.8254 109.658C22.7795 105.313 17.9672 90.6791 18.1664 89.4065C18.2207 89.0594 20.4146 88.3125 23.0422 87.7477C46.8175 82.6335 65.6314 89.9111 76.9379 108.596C79.3368 112.56 83.3823 121.756 83.7895 124.171C83.9538 125.146 100.023 122.313 104.368 120.543C106.627 119.623 110.015 118.569 111.898 118.201C113.781 117.833 115.828 117.41 116.447 117.262C117.394 117.035 116.975 116.26 113.797 112.365C109.658 107.291 106.473 101.879 105.057 97.5123C103.911 93.9791 103.636 93.7416 100.037 93.1671C98.4191 92.9091 95.1376 91.8443 92.7438 90.8011C79.412 84.9899 68.145 71.5722 62.8262 55.1725C61.312 50.5027 58.7075 34.5681 59.3389 33.8331C60.35 32.6554 75.7714 32.8205 84.2426 34.0997C94.0533 35.5808 101.514 38.6284 106.953 43.3758C108.169 44.4375 109.263 45.2356 109.382 45.1483C109.502 45.0612 109.437 43.4927 109.237 41.6628C108.604 35.8677 109.791 27.358 112.08 21.2914C115.212 12.9879 122.708 0.197057 124.453 0.18045C124.945 0.175975 127.122 1.53478 129.289 3.20025ZM128.672 6.27021C139.304 14.3325 146.129 24.6802 147.941 35.481C148.685 39.9191 148.637 41.261 147.458 48.8341C146.486 55.0794 145.732 58.1861 144.533 60.8665C142.712 64.94 140.437 69.2285 139.806 69.7768C139.574 69.978 137.989 69.6882 136.282 69.1333C132.902 68.0339 127.766 67.9065 124.928 68.8512C123.238 69.4146 123.227 69.4021 122.249 65.9334C121.16 62.0676 119.009 57.677 115.51 52.1756C114.233 50.1689 113.031 47.8331 112.839 46.9853C111.911 42.892 111.784 38.827 112.399 32.9394C112.943 27.7316 113.452 25.5393 115.064 21.461C117.262 15.8984 123.831 3.99897 124.778 3.8612C125.109 3.81307 126.861 4.8973 128.672 6.27021ZM139.201 23.2011C139.033 23.5263 138.647 23.7538 138.343 23.7062C138.039 23.6586 137.741 23.3241 137.68 22.9631C137.619 22.6021 138.005 22.3746 138.538 22.458C139.072 22.5414 139.369 22.8759 139.201 23.2011ZM142.645 26.6692C142.818 27.0805 142.657 27.6371 142.288 27.9064C141.839 28.2329 141.51 28.1469 141.3 27.6483C141.127 27.237 141.287 26.6804 141.657 26.4111C142.105 26.0846 142.434 26.1706 142.645 26.6692ZM142.154 33.9533C142.446 35.3122 141.689 35.864 140.939 34.8379C140.497 34.2322 140.546 33.9074 141.143 33.4722C141.742 33.0364 141.982 33.1508 142.154 33.9533ZM145.551 38.3836C145.872 39.1458 144.671 39.6626 143.971 39.0636C143.384 38.5606 143.974 37.5831 144.788 37.7105C145.07 37.7546 145.414 38.0576 145.551 38.3836ZM141.789 41.6525C141.71 42.1582 141.231 42.5067 140.725 42.4275C140.218 42.3483 139.956 41.9896 140.142 41.6303C140.67 40.6096 141.949 40.6273 141.789 41.6525ZM145.079 45.5277C145.478 46.4759 144.784 46.8485 143.738 46.2482C143.255 45.971 143.064 45.5063 143.314 45.2159C143.904 44.5285 144.718 44.672 145.079 45.5277ZM90.8162 38.1373C97.369 40.0317 102.484 43.0018 107.73 47.9606C111.511 51.5339 116.591 59.6647 118.404 65.0438L120.093 70.0544L114.459 74.1158C107.569 79.0835 105.673 81.5481 104.411 87.1759L103.472 91.3654L100.844 90.5925C92.2681 88.0705 85.8861 84.3995 80.2193 78.7272C73.6097 72.111 67.5786 61.8085 64.9595 52.6585C63.2498 46.6878 61.9948 36.5361 62.9174 36.1482C65.5155 35.0565 84.9552 36.4428 90.8162 38.1373ZM141.174 49.387C141.014 50.4123 139.79 50.0382 139.599 48.9056C139.532 48.5061 139.891 48.2447 140.398 48.324C140.903 48.4031 141.253 48.8814 141.174 49.387ZM144.602 53.2571C144.074 54.2772 142.794 54.2595 142.955 53.2343C143.034 52.7286 143.513 52.3801 144.019 52.4593C144.525 52.5385 144.788 52.8972 144.602 53.2571ZM141.011 56.1561C141.16 56.5089 140.836 56.893 140.291 57.0094C139.112 57.2614 138.565 56.6946 139.235 55.9139C139.84 55.2091 140.659 55.3213 141.011 56.1561ZM71.0682 52.0467C70.9933 52.5256 70.6703 52.8765 70.3506 52.8265C70.0308 52.7765 69.8305 52.3437 69.9054 51.8647C69.9804 51.3857 70.3033 51.0348 70.6231 51.0849C70.9429 51.1349 71.1432 51.5677 71.0682 52.0467ZM71.3404 57.1894C71.1721 57.5146 70.7863 57.7421 70.4822 57.6945C70.1782 57.6469 69.8803 57.3124 69.8194 56.9514C69.7586 56.5904 70.1444 56.3629 70.6776 56.4463C71.2107 56.5297 71.5086 56.8642 71.3404 57.1894ZM76.8817 61.8285C77.095 62.8219 75.4731 63.3924 75.0808 62.4621C74.7855 61.761 75.4936 60.7685 76.2093 60.8805C76.4761 60.9223 76.7786 61.3491 76.8817 61.8285ZM180.757 79.2798C182.302 79.9647 184.123 81.3785 185.061 82.6214C187.009 85.2024 190.815 87.1416 195.315 87.8458C197.132 88.1301 200.604 89.2218 203.03 90.2724C206.929 91.9596 208.467 92.2961 216.225 93.1609C229.305 94.6196 228.772 94.2732 237.043 106.665C238.455 108.779 240.791 111.073 243.718 113.217C251.833 119.163 254.374 124.02 253.702 132.305C253.39 136.157 253.123 136.884 250.27 141.648C247.362 146.506 247.133 147.145 246.434 152.348C246.025 155.392 245.279 158.687 244.777 159.671C242.88 163.388 238.274 163.679 235.761 160.24C233.873 157.655 234.256 155.361 237.486 149.923C242.48 141.51 244.454 135.873 243.967 131.414C243.612 128.169 241.292 125.099 239.329 125.277C237.731 125.422 235.824 128.017 234.611 131.701C233.648 134.626 232.199 136.133 229.617 136.896C227.798 137.434 226.972 137.344 223.918 136.273C220.837 135.193 220.072 135.113 218.336 135.691C214.934 136.824 214.022 138.317 213.717 143.252C213.424 148.007 211.738 151.793 209.579 152.546C207.711 153.198 205.119 152.509 203.697 150.981C202.329 149.512 201.961 147.716 201.752 141.492C201.591 136.692 199.833 134.413 194.311 131.842C184.314 127.19 167.934 123.286 162.583 124.281C156.499 125.412 152.334 130.465 149.357 140.325C148.337 143.707 146.977 147.053 146.337 147.761C144.694 149.574 142.447 150.109 140.859 149.063C138.651 147.61 138.201 144.52 139.229 137.861C140.462 129.873 140.007 128.392 134.007 120.831C131.198 117.291 128.81 113.589 128.154 111.755C125.167 103.415 129.669 92.8943 139.565 85.0877C147.904 78.5085 153.468 76.7515 165.323 76.9513C173.263 77.0853 177.123 77.6672 180.757 79.2798ZM136.418 72.1671C138.407 73.1194 143.933 77.46 143.839 77.9967C143.811 78.1612 141.955 79.6147 139.717 81.2271C134.981 84.6364 129.969 90.191 127.455 94.8151C125.995 97.501 125.427 99.5943 124.18 106.89C123.35 111.745 122.465 115.866 122.212 116.05C120.542 117.266 110.234 103.687 108.043 97.3848C106.788 93.7744 106.7 92.787 107.295 88.941C108.157 83.3667 109.499 81.4439 115.714 76.8709C123.1 71.4372 131.099 69.62 136.418 72.1671ZM82.4418 66.9114C82.3668 67.3903 81.9131 67.7208 81.4334 67.6457C80.9537 67.5707 80.6226 67.1174 80.6976 66.6384C80.7725 66.1595 81.2263 65.829 81.706 65.9041C82.1856 65.9791 82.5167 66.4324 82.4418 66.9114ZM77.2836 66.7816C77.6756 67.3182 77.0087 68.1428 76.2755 68.0281C75.9744 67.981 75.7897 67.5506 75.8647 67.0717C76.0051 66.1741 76.7313 66.0255 77.2836 66.7816ZM87.6199 71.8851C87.5366 72.4174 87.2018 72.7147 86.8761 72.5466C86.5503 72.3785 86.3223 71.9931 86.3698 71.6894C86.4174 71.3858 86.7522 71.0885 87.1137 71.0279C87.4752 70.9673 87.7032 71.3527 87.6199 71.8851ZM82.787 72.3183C82.712 72.7973 82.2582 73.1277 81.7786 73.0527C81.2989 72.9776 80.9678 72.5243 81.0427 72.0454C81.1177 71.5664 81.5715 71.2359 82.0511 71.311C82.5308 71.3861 82.8619 71.8393 82.787 72.3183ZM93.1518 76.6566C93.5514 77.6047 92.8576 77.9773 91.8115 77.377C91.3283 77.0998 91.1371 76.6351 91.3869 76.3447C91.9769 75.6573 92.7914 75.8008 93.1518 76.6566ZM88.2212 76.82C88.6131 77.3565 87.9462 78.1812 87.2131 78.0665C86.9119 78.0193 86.7273 77.589 86.8022 77.11C86.9427 76.2125 87.6688 76.0638 88.2212 76.82ZM110.414 87.4628C110.966 88.2189 110.603 88.8639 109.704 88.7232C109.224 88.6481 108.87 88.3412 108.917 88.0404C109.032 87.3084 110.022 86.9262 110.414 87.4628ZM110.469 93.353C110.308 94.3782 109.084 94.0041 108.893 92.8716C108.826 92.472 109.186 92.2107 109.692 92.2899C110.198 92.3691 110.548 92.8473 110.469 93.353ZM116.236 98.3695C116.161 98.8484 115.707 99.1789 115.227 99.1038C114.748 99.0288 114.416 98.5755 114.491 98.0965C114.566 97.6176 115.02 97.2871 115.5 97.3622C115.979 97.4372 116.311 97.8905 116.236 98.3695ZM52.1235 91.2737C57.4787 93.2234 60.3388 94.8688 64.6915 98.5053C71.0971 103.857 77.1088 113.064 79.9823 121.924L81.0268 125.146L78.537 126.284C75.418 127.71 72.7684 130.219 70.8081 133.603C69.9611 135.065 68.9825 136.096 68.597 135.934C68.2165 135.773 66.5076 135.019 64.8006 134.258C63.093 133.496 58.1934 132.132 53.9125 131.226C46.6577 129.692 45.8924 129.41 42.6499 127.071C35.6555 122.027 31.1655 116.47 27.4565 108.267C25.4187 103.761 21.3077 92.1702 21.4423 91.3104C21.5308 90.7449 26.015 89.8604 31.6319 89.3006C38.7216 88.5936 46.935 89.3847 52.1235 91.2737ZM121.414 103.343C121.339 103.822 120.885 104.153 120.405 104.077C119.926 104.002 119.594 103.549 119.669 103.07C119.744 102.591 120.198 102.261 120.678 102.336C121.157 102.411 121.489 102.864 121.414 103.343ZM116.426 102.86C116.6 103.271 116.439 103.828 116.069 104.097C115.621 104.424 115.292 104.338 115.082 103.839C114.909 103.428 115.069 102.871 115.439 102.602C115.887 102.275 116.216 102.361 116.426 102.86ZM121.85 108.17C121.766 108.702 121.432 108.999 121.106 108.831C120.78 108.663 120.552 108.278 120.6 107.974C120.647 107.67 120.982 107.373 121.343 107.312C121.705 107.252 121.933 107.637 121.85 108.17ZM240.234 130.222C241.93 133.963 240.565 139.059 235.653 147.32C234.06 150 232.31 153.755 231.763 155.665C230.484 160.132 223.905 169.499 220.403 171.838C213.397 176.519 202.021 175.117 181.872 167.09C179.02 165.954 176.714 164.844 176.749 164.624C176.783 164.403 178.402 163.493 180.347 162.6C182.99 161.388 184.234 161.127 185.274 161.567C186.324 162.012 186.701 161.928 186.811 161.223C186.891 160.709 186.655 160.242 186.287 160.184C185.919 160.127 188.078 158.745 191.086 157.114C194.094 155.484 197.42 153.637 198.478 153.009L200.401 151.867L202.199 153.546C208.171 159.117 216.641 153.365 216.492 143.838C216.443 140.684 216.565 140.29 217.953 139.11C219.421 137.862 219.578 137.859 223.049 138.988C230.415 141.386 235.342 138.94 237.594 131.769C238.619 128.504 239.28 128.117 240.234 130.222ZM59.1854 101.337C59.1105 101.816 58.6567 102.147 58.177 102.072C57.6974 101.997 57.3663 101.543 57.4412 101.064C57.5162 100.585 57.9699 100.255 58.4496 100.33C58.9292 100.405 59.2604 100.858 59.1854 101.337ZM53.6545 99.9923C54.2068 100.748 53.8433 101.393 52.9444 101.253C52.4648 101.178 52.1107 100.871 52.1578 100.57C52.2724 99.8379 53.2625 99.4557 53.6545 99.9923ZM68.833 108.2C68.7581 108.679 68.3043 109.009 67.8246 108.934C67.345 108.859 67.0139 108.406 67.0888 107.927C67.1638 107.448 67.6175 107.117 68.0972 107.193C68.5768 107.268 68.908 107.721 68.833 108.2ZM63.6004 107.381C63.5254 107.86 63.0717 108.19 62.592 108.115C62.1124 108.04 61.7812 107.587 61.8562 107.108C61.9311 106.629 62.3849 106.299 62.8646 106.374C63.3442 106.449 63.6753 106.902 63.6004 107.381ZM131.868 122.565C137.143 128.892 137.623 130.54 136.467 138.35C135.44 145.297 135.967 148.745 138.365 150.756C139.776 151.941 143.458 152.663 145.123 152.083C146.267 151.684 146.85 152.205 150.074 156.505C152.564 159.827 154.723 162.003 156.85 163.333C160.503 165.618 160.502 166.442 156.842 168.101C151.638 170.458 142.056 171.795 130.662 171.754C123.895 171.729 111.301 169.769 108.615 168.322C105.58 166.687 102.261 162.248 100.879 157.976C99.1803 152.726 97.7413 143.567 98.1544 140.638C98.3496 139.254 98.2892 138.087 98.02 138.045C97.7508 138.003 97.6518 137.193 97.8002 136.245C97.9939 135.007 98.2852 134.645 98.8344 134.961C99.8587 135.548 100.849 134.322 99.9626 133.563C99.5781 133.234 99.0351 133.061 98.7552 133.179C97.725 133.611 98.9476 129.148 100.412 127.129C102.061 124.856 104.616 123.294 108.968 121.901C112.789 120.677 120.114 119.443 120.679 119.927C120.932 120.144 121.181 120.055 121.232 119.729C121.309 119.239 126.698 118.147 128.019 118.354C128.233 118.387 129.966 120.282 131.868 122.565ZM126.333 120.561C125.889 121.418 124.564 121.372 124.653 120.504C124.686 120.182 125.164 119.897 125.714 119.869C126.34 119.839 126.572 120.098 126.333 120.561ZM177.577 128.883C192.134 133.552 196.507 135.427 197.945 137.618C198.427 138.351 198.937 141.122 199.078 143.775L199.334 148.599L195.309 151.086C181.113 159.86 171.942 163.554 165.212 163.209C161.978 163.043 161.209 162.777 158.45 160.866C156.537 159.54 154.068 156.952 152.041 154.144C148.961 149.878 148.8 149.48 149.596 148.088C150.064 147.268 151.036 144.537 151.755 142.019C154.463 132.535 158.43 127.619 163.873 127.004C166.158 126.746 174.464 127.884 177.577 128.883ZM73.0405 113.137C73.5929 113.893 73.2293 114.538 72.3305 114.397C71.8508 114.322 71.4968 114.015 71.5438 113.715C71.6584 112.983 72.6486 112.6 73.0405 113.137ZM68.1062 112.844C68.0313 113.323 67.5775 113.654 67.0978 113.579C66.6182 113.504 66.2871 113.05 66.362 112.571C66.437 112.092 66.8907 111.762 67.3704 111.837C67.85 111.912 68.1812 112.365 68.1062 112.844ZM114.836 122.536C114.753 123.068 114.418 123.366 114.093 123.198C113.767 123.029 113.539 122.644 113.586 122.34C113.634 122.037 113.969 121.739 114.33 121.679C114.692 121.618 114.92 122.004 114.836 122.536ZM119.653 123.372C120.045 123.909 119.378 124.734 118.645 124.619C118.344 124.572 118.159 124.141 118.234 123.662C118.374 122.765 119.101 122.616 119.653 123.372ZM77.7538 119.707C77.6789 120.186 77.2251 120.516 76.7454 120.441C76.2658 120.366 75.9347 119.913 76.0096 119.434C76.0846 118.955 76.5383 118.625 77.018 118.7C77.4976 118.775 77.8288 119.228 77.7538 119.707ZM72.5137 118.936C72.4345 119.442 72.0755 119.704 71.715 119.518C70.6933 118.99 70.7103 117.713 71.7371 117.873C72.2429 117.952 72.5928 118.431 72.5137 118.936ZM108.341 125.98C108.291 126.3 107.858 126.499 107.378 126.424C106.898 126.349 106.547 126.027 106.597 125.707C106.647 125.388 107.08 125.188 107.56 125.263C108.039 125.338 108.391 125.661 108.341 125.98ZM113.315 127.502C112.79 128.518 111.139 128.402 111.302 127.36C111.379 126.866 111.94 126.543 112.556 126.64C113.189 126.739 113.517 127.111 113.315 127.502ZM96.8987 126.616C95.3844 128.62 94.5686 136.197 95.1373 142.973C96.1195 154.67 97.8384 160.703 101.725 166.088C102.969 167.812 103.742 169.326 103.442 169.452C100.809 170.558 84.7599 168.716 80.4849 166.818C76.3986 165.003 73.4054 162.72 73.5875 161.556C73.6898 160.903 73.265 160.351 72.4736 160.11C70.1667 159.406 69.0959 154.377 69.9096 148.069C70.328 144.825 70.8331 142.712 71.1767 142.766C71.4913 142.815 71.8102 142.463 71.8851 141.984C71.9601 141.506 71.7307 141.068 71.3755 141.013C70.9446 140.945 70.9774 140.207 71.4737 138.798C72.9956 134.473 76.6785 130.202 80.1365 128.75C82.69 127.677 91.6152 126.286 91.507 126.978C91.4623 127.263 91.8182 127.558 92.2979 127.633C92.7776 127.708 93.2273 127.403 93.2974 126.956C93.3674 126.508 94.2935 125.984 95.3554 125.791C97.8782 125.332 97.8721 125.329 96.8987 126.616ZM77.027 124.351C76.9521 124.83 76.4983 125.161 76.0187 125.086C75.539 125.011 75.2079 124.557 75.2828 124.078C75.3578 123.599 75.8115 123.269 76.2912 123.344C76.7709 123.419 77.102 123.872 77.027 124.351ZM106.987 130.824C106.912 131.303 106.337 131.614 105.706 131.516C104.928 131.394 104.713 131.075 105.033 130.518C105.292 130.068 105.868 129.757 106.314 129.826C106.759 129.896 107.062 130.345 106.987 130.824ZM192.853 145.45C192.778 145.929 192.324 146.26 191.845 146.185C191.365 146.11 191.034 145.656 191.109 145.177C191.184 144.699 191.638 144.368 192.117 144.443C192.597 144.518 192.928 144.971 192.853 145.45ZM86.6924 130.369C86.5242 130.694 86.1384 130.922 85.8343 130.874C85.5302 130.827 85.2324 130.492 85.1715 130.131C85.1107 129.77 85.4965 129.543 86.0296 129.626C86.5628 129.71 86.8607 130.044 86.6924 130.369ZM91.3258 131.942C91.2509 132.421 90.7971 132.751 90.3175 132.676C89.8378 132.601 89.5067 132.148 89.5816 131.669C89.6566 131.19 90.1103 130.859 90.59 130.935C91.0697 131.01 91.4008 131.463 91.3258 131.942ZM185.905 147.981C185.826 148.487 185.467 148.749 185.106 148.563C184.085 148.035 184.102 146.757 185.129 146.918C185.635 146.997 185.984 147.475 185.905 147.981ZM190.859 149.711C190.331 150.731 189.051 150.713 189.212 149.688C189.291 149.182 189.77 148.834 190.276 148.913C190.782 148.992 191.045 149.351 190.859 149.711ZM80.3155 133.787C80.2406 134.266 79.7868 134.597 79.3071 134.522C78.8275 134.447 78.4963 133.993 78.5713 133.514C78.6462 133.036 79.1 132.705 79.5797 132.78C80.0593 132.855 80.3905 133.308 80.3155 133.787ZM255.894 167.007C264.267 174.713 266.833 177.61 267.346 179.941C267.808 182.035 265.999 183.364 263.269 182.937C260.836 182.556 259.629 181.545 255.86 176.735C252.713 172.717 247.324 167.555 244.959 166.294C243.122 165.313 243.023 164.791 244.506 163.909C245.072 163.571 246.109 162.514 246.81 161.558L248.084 159.821L255.894 167.007ZM84.5638 134.552C85.1285 135.324 84.7756 135.972 83.8675 135.83C83.3878 135.755 83.0567 135.302 83.1317 134.823C83.2736 133.916 83.9997 133.779 84.5638 134.552ZM178.965 150.464C178.885 150.969 178.526 151.231 178.166 151.045C177.144 150.518 177.161 149.24 178.188 149.401C178.694 149.48 179.044 149.958 178.965 150.464ZM183.918 152.193C183.39 153.214 182.111 153.196 182.271 152.171C182.35 151.665 182.829 151.316 183.335 151.396C183.842 151.475 184.104 151.834 183.918 152.193ZM172.122 152.317C172.047 152.796 171.594 153.127 171.114 153.052C170.634 152.977 170.303 152.523 170.378 152.044C170.453 151.566 170.907 151.235 171.387 151.31C171.866 151.385 172.197 151.838 172.122 152.317ZM78.3351 138.83C78.2601 139.309 77.8063 139.64 77.3267 139.565C76.847 139.49 76.5159 139.036 76.5909 138.557C76.6658 138.079 77.1196 137.748 77.5992 137.823C78.0789 137.898 78.41 138.351 78.3351 138.83ZM57.1996 134.962C57.816 135.21 59.7156 135.917 61.421 136.533C63.1263 137.15 65.3334 138.085 66.3257 138.611C68.0521 139.526 68.0989 139.665 67.4151 141.857C66.3834 145.166 66.2486 154.165 67.1829 157.356C67.6229 158.861 68.8984 161.344 70.0163 162.875L72.0491 165.658L68.1929 168.194C55.7097 176.403 37.2102 176.773 19.6564 169.166C15.9263 167.55 3.57565 159.808 3.67858 159.15C3.74508 158.725 9.93361 151.818 12.2337 149.601C22.9443 139.279 29.8209 135.34 39.5955 133.926C44.3917 133.233 54.3568 133.819 57.1996 134.962ZM238.145 165.283C240.486 166.545 242.464 167.698 242.54 167.847C242.615 167.995 242.743 169.599 242.824 171.411C242.906 173.223 243.081 175.191 243.215 175.784C243.43 176.732 243.073 176.803 240.273 176.364C238.52 176.09 235.912 176.083 234.478 176.35C231.112 176.974 228.842 176.595 225.911 174.919L223.547 173.566L225.196 172.279C227.029 170.849 229.325 167.783 230.915 164.64C232.159 162.182 232.434 162.206 238.145 165.283ZM177.128 154.588C177.078 154.907 176.645 155.107 176.165 155.032C175.685 154.957 175.334 154.634 175.384 154.315C175.434 153.995 175.867 153.796 176.347 153.871C176.826 153.946 177.178 154.268 177.128 154.588ZM160.491 151.786C161.056 152.558 160.703 153.207 159.795 153.065C159.315 152.99 158.984 152.536 159.059 152.057C159.201 151.151 159.927 151.013 160.491 151.786ZM165.182 154.8C165.107 155.279 164.653 155.609 164.174 155.534C163.694 155.459 163.363 155.006 163.438 154.527C163.513 154.048 163.966 153.718 164.446 153.793C164.926 153.868 165.257 154.321 165.182 154.8ZM248.136 172.177C250.786 174.594 258.286 183.437 258.242 184.093C258.226 184.341 257.224 184.838 256.016 185.197C253.91 185.824 253.724 185.783 251.424 184.186C250.076 183.25 248.435 181.364 247.674 179.874C246.316 177.216 245.066 171.673 245.594 170.658C245.75 170.359 246.894 171.042 248.136 172.177ZM193.462 162.497C193.635 162.908 193.475 163.465 193.105 163.734C192.656 164.06 192.327 163.974 192.117 163.476C191.944 163.064 192.104 162.508 192.474 162.238C192.922 161.912 193.251 161.998 193.462 162.497ZM200.953 164.315C201.4 165.377 199.879 166.277 199.202 165.35C198.636 164.575 199.25 163.402 200.148 163.543C200.43 163.587 200.792 163.934 200.953 164.315ZM207.815 165.932C207.988 166.344 207.828 166.9 207.458 167.169C207.01 167.496 206.681 167.41 206.471 166.911C206.297 166.5 206.458 165.943 206.827 165.674C207.276 165.348 207.605 165.434 207.815 165.932ZM214.72 167.831C214.844 168.41 214.752 169.025 214.516 169.197C214.279 169.37 213.824 169.153 213.504 168.716C213.062 168.11 213.111 167.785 213.709 167.35C214.307 166.914 214.547 167.029 214.72 167.831ZM196.405 166.526C196.578 166.937 196.418 167.494 196.048 167.763C195.6 168.09 195.271 168.004 195.06 167.505C194.887 167.094 195.048 166.537 195.417 166.268C195.866 165.941 196.195 166.027 196.405 166.526ZM203.445 169.114C203.362 169.647 203.027 169.944 202.702 169.776C202.376 169.608 202.148 169.222 202.195 168.919C202.243 168.615 202.578 168.318 202.939 168.257C203.301 168.197 203.529 168.582 203.445 169.114ZM210.808 170.676C210.28 171.696 209.001 171.678 209.161 170.653C209.24 170.147 209.719 169.799 210.225 169.878C210.732 169.957 210.994 170.316 210.808 170.676ZM173.435 166.431C174.02 166.964 173.442 167.698 170.612 170.019C168.655 171.623 163.685 176.372 159.569 180.572C146.966 193.429 144.021 195.279 126.082 201.616C110.951 206.96 104.596 211.122 97.8783 220.085C91.0884 229.146 87.2122 239.521 83.3876 258.872C81.6596 267.615 80.3764 272.771 79.4576 274.664C76.0813 281.624 69.2731 285.099 63.8317 282.641C58.6808 280.315 55.8744 275.441 56.2597 269.492C56.528 265.346 57.8253 262.122 61.5488 256.347C69.8774 243.429 73.1097 233.066 77.4659 205.308C79.8757 189.951 81.4843 183.341 84.1238 177.95C86.9335 172.21 87.6764 171.771 93.7747 172.254C96.6218 172.478 100.716 172.516 102.874 172.336C105.24 172.139 110.237 172.467 115.466 173.161C126.667 174.65 133.922 174.898 142.396 174.08C153.129 173.045 159.924 170.897 162.464 167.735C163.627 166.288 163.944 166.221 171.498 165.825C172.158 165.79 173.03 166.063 173.435 166.431ZM113.1 158.207C113.422 158.969 112.221 159.486 111.521 158.887C110.933 158.384 111.524 157.406 112.338 157.534C112.62 157.578 112.963 157.881 113.1 158.207ZM184.108 170.886C187.35 172.15 192.31 173.854 195.13 174.673C197.95 175.492 200.863 176.379 201.603 176.646L202.949 177.129L201.072 178.559C199.984 179.387 196.827 180.53 193.567 181.274C190.472 181.981 187.641 182.735 187.276 182.95C186.905 183.169 185.153 182.576 183.316 181.612C180.54 180.154 179.117 179.794 174.306 179.329C168.989 178.815 168.562 178.688 168.147 177.504C167.642 176.063 167.561 176.162 173.192 171.369C175.221 169.642 177.181 168.309 177.547 168.408C177.914 168.507 180.866 169.622 184.108 170.886ZM145.587 163.926C145.941 164.767 145.076 165.745 144.451 165.21C143.813 164.664 144.064 163.093 144.771 163.204C145.072 163.251 145.439 163.576 145.587 163.926ZM243.49 179.662C243.942 179.909 245.313 181.425 246.536 183.032C247.759 184.637 249.453 186.343 250.3 186.821C252.176 187.88 255.798 188.487 257.039 187.949C259.157 187.033 262.821 193.158 262.268 196.692C262.112 197.684 262.862 199.458 264.473 201.908C266.766 205.397 266.868 205.755 266.172 207.837C265.535 209.74 265.686 210.864 267.244 215.831C268.242 219.01 269.184 223.37 269.338 225.52C269.592 229.07 269.485 229.698 268.171 232.345C266.803 235.101 266.746 235.505 267.129 239.779L267.533 244.298L265.256 246.011C263.083 247.646 262.921 247.978 261.689 253.319C260.979 256.398 259.931 259.876 259.36 261.05C258.757 262.289 258.3 264.355 258.27 265.971C258.222 268.595 258.057 268.899 255.426 271.227C253.505 272.926 252.254 274.657 251.422 276.766C250.756 278.454 249.115 280.993 247.774 282.407C246.372 283.887 245.051 285.971 244.662 287.316C243.88 290.018 243.021 290.99 241.609 290.769C240.107 290.534 238.662 292.018 237.083 295.414C233.96 302.13 223.714 311.62 216.697 314.294C213.074 315.675 211.658 316.681 210.773 318.507C210.332 319.418 209.726 319.681 208.511 319.491C207.315 319.304 206.213 319.765 204.57 321.138C203.316 322.186 200.948 323.56 199.308 324.19C197.669 324.82 195.914 325.756 195.409 326.27C193.633 328.08 191.19 328.692 187.186 328.334C182.66 327.928 180.793 328.547 179.332 330.938C178.251 332.709 178.044 332.736 172.866 331.768C171.16 331.449 167.638 331.505 164.532 331.9C158.467 332.671 155.045 332.311 151.302 330.505C149.685 329.725 147.983 329.313 146.711 329.394C144.125 329.558 136.503 327.02 133.892 325.125C130.03 322.321 125.923 317.702 126.493 316.802C126.787 316.338 127.25 315.302 127.522 314.5C128.197 312.511 125.773 309.268 122.162 307.33C119.009 305.637 118.193 303.996 118.315 299.588C118.358 298.035 117.925 295.42 117.353 293.776C116.385 290.997 116.392 290.632 117.448 288.575C118.534 286.462 118.527 286.279 117.306 284.53C114.457 280.449 114.611 274.324 117.678 269.759C119.217 267.468 119.518 266.584 119.316 264.963C118.969 262.185 119.501 259.327 120.469 258.777C125.68 255.816 125.789 255.695 126.886 251.629C129.231 242.933 130.627 238.988 132.81 234.885C134.828 231.093 135.371 230.495 137.415 229.828C138.844 229.361 140.598 228.058 141.989 226.432C144.352 223.669 147.544 218.032 147.848 216.084C147.95 215.437 148.579 214.859 149.303 214.748C150.005 214.641 151.072 213.753 151.673 212.775C152.275 211.797 154.221 210.123 155.997 209.056C159.257 207.097 160.181 205.976 161.963 201.821C162.895 199.65 165.043 197.041 168.394 194.013C169.671 192.859 170.091 192.769 170.997 193.452C175.02 196.485 182.658 197.021 185.885 194.498C188.113 192.757 189.33 189.726 188.702 187.483C188.126 185.424 188.816 184.926 193.55 183.991C199.372 182.84 201.829 181.823 204.457 179.48C206.628 177.543 207.315 177.275 209.869 177.371C211.477 177.431 214.626 177.062 216.867 176.549L220.941 175.617L224.743 177.452C229.39 179.695 229.734 179.751 234.558 179.031C238.284 178.475 241.768 178.721 243.49 179.662ZM137.885 163.134C138.437 163.89 138.073 164.535 137.175 164.394C136.695 164.319 136.341 164.012 136.388 163.711C136.503 162.979 137.493 162.597 137.885 163.134ZM130.87 162.813C131.043 163.224 130.883 163.781 130.513 164.05C130.065 164.377 129.736 164.291 129.526 163.792C129.352 163.381 129.513 162.824 129.882 162.555C130.331 162.228 130.66 162.314 130.87 162.813ZM123.826 162.357C124.273 163.419 122.752 164.318 122.075 163.392C121.509 162.617 122.123 161.444 123.021 161.585C123.303 161.629 123.665 161.976 123.826 162.357ZM116.172 161.926C116.464 163.285 115.706 163.837 114.957 162.811C114.514 162.205 114.563 161.88 115.161 161.445C115.759 161.009 116 161.123 116.172 161.926ZM269.248 187.52C270.746 188.619 271.477 189.78 272.018 191.921C272.423 193.521 273.671 195.914 274.792 197.239C276.499 199.257 276.801 200.072 276.646 202.254C276.52 204.044 276.904 205.626 277.873 207.309C279.147 209.522 279.22 210.16 278.631 213.925C278.273 216.217 278.087 220.324 278.218 223.053C278.426 227.379 278.283 228.487 277.097 231.717C276.007 234.688 275.788 236.03 275.988 238.507C276.188 240.984 276.019 242.02 275.133 243.746C274.306 245.355 274.105 246.43 274.334 248.018C274.538 249.434 274.426 250.229 273.997 250.409C273.645 250.558 273.39 251.487 273.432 252.476C273.553 255.313 268.064 268.209 265.49 271.139C264.148 272.665 263.216 274.362 263.014 275.649C262.835 276.783 261.834 278.895 260.79 280.34C259.69 281.865 258.736 283.964 258.52 285.338C258.288 286.82 257.334 288.804 255.974 290.638C254.779 292.25 253.509 294.328 253.153 295.255C252.698 296.441 251.809 297.185 250.159 297.761C248.284 298.415 247.64 299.031 246.952 300.824C245.493 304.63 244.843 305.363 242.019 306.384C239.725 307.214 239.208 307.688 238.783 309.352C238.442 310.682 237.426 312.005 235.688 313.383C234.264 314.511 232.841 315.952 232.525 316.585C232.209 317.218 230.505 318.466 228.738 319.357C226.971 320.248 224.649 321.892 223.578 323.012C222.508 324.132 220.873 325.24 219.947 325.475C217.757 326.031 216.812 326.903 215.979 329.135C215.536 330.321 214.89 330.969 214.125 330.995C213.48 331.018 212.124 331.536 211.113 332.148C210.101 332.759 208.129 333.37 206.731 333.505C201.183 334.042 199.899 334.486 194.884 337.601C189.516 340.936 186.919 341.637 185.078 340.25C183.115 338.769 181.408 338.953 179.189 340.886C177.186 342.631 176.873 342.707 174.066 342.136C171.862 341.687 170.42 341.771 168.58 342.456C166.342 343.289 165.853 343.274 163.846 342.314C161.909 341.388 161.252 341.34 158.97 341.955C157.52 342.345 155.207 343.199 153.83 343.852C150.177 345.586 147.518 345.011 145.413 342.032C143.889 339.876 143.487 339.649 140.317 339.153C137.071 338.645 136.775 338.468 135.114 336.033C134.146 334.613 132.64 333.163 131.767 332.81C130.895 332.456 129.054 331.102 127.677 329.801C126.001 328.217 124.175 327.14 122.154 326.544C119.619 325.796 118.851 325.232 117.378 323.036C116.412 321.597 115.257 320.35 114.811 320.264C114.364 320.179 116.117 319.777 118.706 319.37L123.413 318.63L126.597 322.131C128.348 324.056 130.756 326.307 131.949 327.132C135.017 329.256 142.529 331.956 145.735 332.087C147.223 332.147 150.043 332.839 152.002 333.624C155.982 335.219 158.905 335.424 165.05 334.541C167.476 334.192 170.85 334.232 173.757 334.644C178.881 335.368 180.633 334.848 181.724 332.278C182.337 330.833 183.845 330.521 187.5 331.081C190.714 331.573 194.002 330.752 196.933 328.723C198.219 327.834 200.46 326.606 201.913 325.996C203.365 325.385 205.234 324.19 206.065 323.342C207.11 322.274 208.164 321.832 209.48 321.91C210.981 321.999 211.696 321.61 212.858 320.073C213.669 319 215.209 317.862 216.281 317.543C219.381 316.62 227.326 311.413 230.912 307.952C234.533 304.458 239.005 298.331 240.017 295.477C240.533 294.023 241.094 293.577 242.748 293.304C245.14 292.911 245.829 292.158 246.979 288.683C247.434 287.309 248.707 285.279 249.808 284.173C251.708 282.263 252.782 280.505 254.079 277.181C254.395 276.371 255.902 274.605 257.427 273.255C260.097 270.893 260.225 270.645 260.855 266.619C261.215 264.32 261.866 261.814 262.301 261.052C262.737 260.29 263.58 257.3 264.175 254.408C265.192 249.463 265.382 249.055 267.35 247.574C269.736 245.779 270.504 242.993 269.742 238.892C269.372 236.895 269.491 236.122 270.495 234.028C271.151 232.659 271.84 230.587 272.028 229.424C272.481 226.604 271.467 219.94 269.797 214.752C268.843 211.793 268.563 209.748 268.857 207.875C269.355 204.688 268.927 203.177 266.72 200.332C265.807 199.155 265.024 197.494 264.981 196.64C264.937 195.786 264.866 194.39 264.822 193.537C264.778 192.684 263.771 190.558 262.583 188.813C261.395 187.067 260.442 185.536 260.465 185.41C260.487 185.284 262.015 185.371 263.859 185.604C266.214 185.9 267.818 186.471 269.248 187.52ZM141.708 167.78C141.624 168.312 141.29 168.61 140.964 168.442C140.638 168.273 140.41 167.888 140.458 167.584C140.505 167.281 140.84 166.983 141.202 166.923C141.563 166.862 141.791 167.248 141.708 167.78ZM134.632 167.317C134.472 168.342 133.248 167.968 133.057 166.836C132.99 166.436 133.35 166.175 133.856 166.254C134.362 166.333 134.712 166.811 134.632 167.317ZM127.247 166.195C127.639 166.731 126.972 167.556 126.239 167.441C125.938 167.394 125.753 166.964 125.828 166.485C125.969 165.587 126.695 165.438 127.247 166.195ZM95.406 162.963C95.3269 163.469 94.9678 163.731 94.6074 163.544C93.5856 163.017 93.6027 161.739 94.6295 161.9C95.1353 161.979 95.4852 162.457 95.406 162.963ZM88.1871 161.477C88.5072 162.237 87.7974 163.21 87.0125 163.087C86.305 162.976 86.5462 161.404 87.3208 161.079C87.6473 160.942 88.0367 161.121 88.1871 161.477ZM81.0142 161.513C81.3357 162.275 80.1344 162.792 79.4348 162.193C78.847 161.69 79.4377 160.712 80.2517 160.839C80.5337 160.884 80.877 161.187 81.0142 161.513ZM63.5 159.408C63.8545 160.248 62.9891 161.226 62.3646 160.691C61.7264 160.145 61.977 158.574 62.6845 158.685C62.9857 158.732 63.3523 159.057 63.5 159.408ZM99.3465 166.166C99.668 166.928 98.4667 167.445 97.7671 166.846C97.1793 166.343 97.77 165.365 98.584 165.493C98.866 165.537 99.2093 165.84 99.3465 166.166ZM91.969 165.895C91.8899 166.401 91.4107 166.749 90.9048 166.67C90.3984 166.591 90.1359 166.232 90.322 165.873C90.8498 164.852 92.1294 164.87 91.969 165.895ZM84.5685 164.869C84.9605 165.405 84.2936 166.23 83.5604 166.115C83.2593 166.068 83.0746 165.638 83.1496 165.159C83.29 164.261 84.0162 164.113 84.5685 164.869ZM56.3003 160.772C55.7726 161.792 54.4929 161.774 54.6534 160.749C54.7325 160.243 55.2117 159.895 55.7175 159.974C56.2239 160.053 56.4865 160.412 56.3003 160.772ZM165.799 178.79C165.963 179.013 165.329 179.863 164.392 180.677C163.454 181.491 162.647 182.416 162.598 182.732C162.45 183.676 163.34 185.934 164.581 187.767C165.926 189.753 165.489 190.96 163.196 191.599C161.895 191.962 161.254 191.794 159.69 190.685C156.457 188.392 156.495 187.62 160.02 183.924C164.638 179.084 165.472 178.342 165.799 178.79ZM48.8436 161.079C49.4083 161.852 49.0555 162.5 48.1474 162.358C47.6677 162.283 47.3366 161.83 47.4115 161.351C47.5534 160.444 48.2796 160.306 48.8436 161.079ZM60.7383 163.734C60.6884 164.053 60.2551 164.253 59.7754 164.178C59.2957 164.103 58.9442 163.78 58.9942 163.461C59.0441 163.141 59.4774 162.941 59.9571 163.017C60.4368 163.092 60.7883 163.414 60.7383 163.734ZM30.2859 160.406C30.2068 160.911 29.7275 161.26 29.2217 161.181C28.7153 161.101 28.4528 160.743 28.6388 160.383C29.1667 159.363 30.4463 159.38 30.2859 160.406ZM53.4436 164.674C53.3686 165.153 52.9148 165.483 52.4352 165.408C51.9555 165.333 51.6244 164.88 51.6994 164.401C51.7743 163.922 52.2281 163.591 52.7077 163.666C53.1874 163.741 53.5185 164.195 53.4436 164.674ZM41.8155 162.854C41.7406 163.333 41.2868 163.663 40.8072 163.588C40.3275 163.513 39.9964 163.06 40.0713 162.581C40.1463 162.102 40.6 161.772 41.0797 161.847C41.5594 161.922 41.8905 162.375 41.8155 162.854ZM75.425 170.825C76.1977 175.441 75.6339 177.94 73.5259 179.245C70.7262 180.979 68.2321 179.941 66.2009 176.196L64.9287 173.851L69.524 170.76C72.0517 169.059 74.2971 167.684 74.514 167.702C74.7304 167.72 75.1399 169.126 75.425 170.825ZM81.8164 170.173L84.97 171.256L83.0469 174.466C80.054 179.463 77.3427 188.275 75.4825 199.05C75.2984 200.117 74.8886 200.147 70.3159 199.431C64.8222 198.572 65.2623 199.048 65.2347 193.938C65.2193 191.12 62.9752 187.704 61.3111 187.966C60.6974 188.063 59.5435 188.338 58.7478 188.577C55.4867 189.559 56.0116 184.332 59.7501 178.597C61.1531 176.446 62.4372 174.706 62.6047 174.732C62.7717 174.758 63.2608 175.777 63.6917 176.997C65.7861 182.931 73.6277 184.552 76.9169 179.733C78.4649 177.464 78.8345 175.335 78.3228 171.635C78.1073 170.078 78.0954 168.867 78.2969 168.947C78.4983 169.026 80.0816 169.577 81.8164 170.173ZM34.3209 163.168C34.6754 164.009 33.81 164.987 33.1855 164.452C32.5472 163.906 32.7978 162.335 33.5053 162.446C33.8065 162.493 34.1732 162.818 34.3209 163.168ZM46.0303 165.64C45.8621 165.965 45.4763 166.193 45.1722 166.145C44.8681 166.097 44.5702 165.763 44.5094 165.402C44.4485 165.041 44.8344 164.813 45.3675 164.897C45.9007 164.98 46.1985 165.315 46.0303 165.64ZM155.425 190.42C156.012 192.098 159.444 194.199 161.746 194.289C162.851 194.332 163.75 194.38 163.743 194.395C163.737 194.41 162.709 195.839 161.459 197.571C160.21 199.302 159.113 201.192 159.023 201.771C158.716 203.733 157.113 205.478 154.327 206.881C152.8 207.651 151.081 209.009 150.507 209.9C149.248 211.854 148.753 211.872 148.579 209.97C148.38 207.787 145.972 206.579 142.941 207.142L140.475 207.599L140.359 203.432C140.244 199.325 140.265 199.254 141.747 198.575C142.574 198.196 145.902 195.953 149.141 193.592C154.261 189.861 155.083 189.446 155.425 190.42ZM219.322 203.508C225.931 205.293 233.94 208.465 237.008 210.514C245.411 216.124 248.436 225.082 248.143 243.498C247.999 252.551 245.806 264.047 242.942 270.755C240.274 277.006 234.359 285.335 229.387 289.841C221.583 296.914 210.061 306.378 207.401 307.901C203.98 309.859 201.284 310.513 195.884 310.694C193.516 310.774 190.216 311.141 188.551 311.509C184.115 312.493 180.993 312.374 177.272 311.079C165.194 306.879 155.023 292.356 151.591 274.413C150.611 269.285 150.627 268.768 152.026 260.394C154.166 247.589 158.051 236.013 162.492 229.211C165.343 224.844 169.273 222.062 176.775 219.1C183.862 216.301 187.06 214.637 194.376 209.939C200.171 206.218 206.343 203.165 209.226 202.593C212.03 202.036 214.801 202.287 219.322 203.508ZM223.67 210.018C225.949 211.513 232.261 217.157 232.187 217.633C232.165 217.772 231.516 217.527 230.744 217.087C229.973 216.647 228.823 216.206 228.188 216.107C227.151 215.945 218.079 208.824 218.17 208.243C218.27 207.602 221.653 208.694 223.67 210.018ZM216.286 210.755C218.6 212.703 220.531 214.513 220.576 214.778C220.62 215.042 219.868 215.422 218.905 215.623C217.35 215.947 216.658 215.604 212.715 212.556C210.273 210.669 208.348 208.869 208.436 208.555C208.524 208.242 209.379 207.811 210.337 207.599C211.907 207.25 212.486 207.557 216.286 210.755ZM209.012 213.443C211.188 215.215 212.997 216.878 213.033 217.139C213.068 217.399 212.12 218.128 210.927 218.759C209.733 219.39 207.145 220.796 205.175 221.884L201.594 223.86L197.278 220.463C194.905 218.595 192.992 216.881 193.028 216.654C193.088 216.271 204.587 209.967 204.909 210.141C204.989 210.184 206.835 211.67 209.012 213.443ZM137.748 202.103C137.828 202.851 137.686 204.816 137.432 206.469C137.032 209.069 136.686 209.68 134.854 211.014C133.169 212.241 132.441 212.43 131.284 211.942C129.538 211.205 128.059 209.499 127.71 207.818C126.923 204.026 126.795 204.188 132.044 202.367C134.772 201.422 137.138 200.669 137.303 200.695C137.467 200.721 137.668 201.355 137.748 202.103ZM62.3014 191.983C62.5542 192.705 62.6723 194.664 62.5637 196.336C62.3748 199.245 62.2773 199.415 60.3151 200.246C56.2364 201.973 54.448 205.016 54.9527 209.369C55.1239 210.844 54.9895 211.01 53.7825 210.821C53.0331 210.704 51.8909 209.834 51.2444 208.888C50.2409 207.418 50.1597 206.605 50.6888 203.299C51.1957 200.132 51.7029 198.92 53.4846 196.617C55.5746 193.915 60.1165 190.401 61.2828 190.583C61.5903 190.631 62.0486 191.262 62.3014 191.983ZM228.598 219.184C235.19 221.948 242.57 230.136 243.032 235.198C243.174 236.756 243.179 238.764 243.042 239.661C242.906 240.558 242.984 243.462 243.216 246.115C244.525 261.068 237.011 277.318 224.255 287.118C219.483 290.784 209.216 296.654 205.468 297.859C204.322 298.227 200.739 298.35 197.384 298.136C194.069 297.925 189.856 297.92 188.022 298.126C183.772 298.604 178.398 297.776 174.87 296.1C166.994 292.358 163.696 281.577 166.566 268.95C168.138 262.033 170.639 255.038 173.781 248.775C179.581 237.212 182.911 234.423 198.372 228.18C201.344 226.981 206.34 224.547 209.474 222.773C212.608 220.999 216.376 219.186 217.848 218.745C221.1 217.769 225.671 217.956 228.598 219.184ZM125.224 208.406C126.085 211.186 127.906 213.368 130.623 214.874C130.703 214.918 130.223 215.838 129.559 216.918C126.902 221.237 127.559 227.112 130.912 229.012L132.478 229.9L131.032 232.388C129.435 235.135 127.844 239.038 126.62 243.217L125.819 245.949L124.53 243.426C122.872 240.181 119.415 236.329 116.369 234.33C113.281 232.304 112.802 232.25 110.816 233.697C109.462 234.682 109.076 235.474 108.664 238.105C107.548 245.236 110.907 254.299 115.625 256.887C117.428 257.875 117.511 258.069 116.887 259.825C116.521 260.859 116.382 262.683 116.58 263.877C116.894 265.773 116.725 266.351 115.256 268.413C112.215 272.682 111.8 280.294 114.36 284.849C115.111 286.187 115.1 286.745 114.284 288.591C113.434 290.512 113.45 291.08 114.423 293.549C115.313 295.807 116 301.611 115.645 303.879C115.604 304.14 114.459 304.18 113.099 303.969C108.395 303.239 104.428 304.422 102.241 307.205C101.606 308.013 101.194 307.844 98.0155 305.464C96.079 304.014 93.6789 301.583 92.6827 300.063L90.8709 297.299L93.2402 296.874C98.3955 295.949 100.908 292.22 102.053 283.798C102.705 279.004 102.794 278.794 104.831 277.202C108.471 274.356 109.015 270.079 106.478 264.261C104.985 260.837 101.093 255.386 99.1 253.927C98.0408 253.152 97.5924 252.093 97.3772 249.86C97.0671 246.638 95.2445 241.85 93.1802 238.834C91.9763 237.076 91.9701 236.857 93.0395 234.054C93.6562 232.439 94.9507 229.723 95.9159 228.02C97.6699 224.927 97.6739 224.924 99.4504 225.748C102.043 226.951 108.907 227.883 112.434 227.513C117.899 226.939 120.139 225.678 120.568 222.936C120.953 220.478 118.399 217.354 113.602 214.411L109.773 212.063L111.6 210.818C113.482 209.535 123.234 205.029 123.875 205.145C124.073 205.181 124.68 206.648 125.224 208.406ZM193.882 221.624C195.986 223.327 197.68 224.922 197.645 225.168C197.61 225.416 196.924 225.801 196.12 226.025C194.899 226.365 194.009 225.969 190.692 223.606C188.509 222.051 186.612 220.637 186.476 220.462C186.205 220.115 189.093 218.297 189.687 218.44C189.889 218.489 191.776 219.921 193.882 221.624ZM187.167 224.71C189.452 226.384 191.24 227.805 191.14 227.867C191.039 227.93 188.92 229.066 186.429 230.392L181.901 232.804L178.015 230.002C175.877 228.461 174.016 226.934 173.879 226.609C173.504 225.72 176.504 223.766 179.952 222.653L183.011 221.666L187.167 224.71ZM231.039 233.548C234.332 236.06 237.617 252.716 235.316 255.226C234.081 256.571 232.875 255.104 233.249 252.712C233.868 248.757 232.045 239.708 229.974 236.46C229.146 235.16 225.799 234.414 223.228 234.956C222.34 235.143 220.27 236.023 218.628 236.912C215.836 238.424 215.362 238.485 211.338 237.856C207.545 237.262 206.839 237.325 205.385 238.384C204.254 239.208 203.633 240.233 203.413 241.644C203.157 243.277 202.863 243.667 201.99 243.53C198.921 243.05 201.128 236.994 204.92 235.489C206.085 235.027 208.311 234.947 211.05 235.268C214.99 235.73 215.611 235.63 218.461 234.07C223.207 231.472 228.054 231.271 231.039 233.548ZM111.826 216.375C113.359 217.257 115.491 219.045 116.564 220.35L118.517 222.723L117.01 223.648C113.904 225.553 102.081 225.1 99.6063 222.982C99.109 222.555 101.882 218.855 104.85 215.987C106.844 214.06 107.903 214.118 111.826 216.375ZM48.0758 208.579C49.2569 211.856 52.2057 213.867 55.3942 213.57C57.0233 213.418 58.3689 213.619 59.3991 214.168C61.2934 215.18 66.4849 215.135 70.4618 214.074L73.2279 213.336L72.191 219.962L71.1541 226.588L67.7404 228.085C59.3506 231.763 53.7047 240.619 55.7845 246.84C56.4122 248.717 58.7628 250.855 60.4983 251.127C61.0343 251.211 61.284 251.579 61.0609 251.958C60.8402 252.333 59.3594 254.762 57.7698 257.357C56.1801 259.953 54.7928 262.628 54.6872 263.304C54.3506 265.454 53.396 263.747 51.817 258.171C50.8766 254.852 49.5543 251.825 48.353 250.245C46.63 247.979 46.4579 247.377 46.8374 244.952C47.2397 242.385 47.472 242.089 50.6052 240.146C54.6178 237.658 58.6996 233.354 59.5709 230.691C60.0409 229.255 59.9614 228.328 59.2651 227.129C58.427 225.687 57.9175 225.456 54.6238 225.029C52.5888 224.764 49.7057 224.784 48.2172 225.074C45.2226 225.654 44.734 225.457 45.7991 224.102C46.3294 223.427 46.2396 222.607 45.4542 220.946C44.2236 218.343 44.235 218.122 45.7547 215.277C46.6887 213.53 46.8429 212.616 46.6009 210.273C46.2178 206.574 47.021 205.651 48.0758 208.579ZM175.336 231.696C177.62 233.332 179.449 234.862 179.401 235.096C179.26 235.8 177.492 237.317 176.917 237.227C176.079 237.096 169.208 231.827 169.3 231.386C169.346 231.17 169.788 230.482 170.284 229.856C171.185 228.722 171.189 228.723 175.336 231.696ZM212.193 242.632C211.799 245.149 207.637 248.012 199.98 251.034C193.927 253.422 191.538 255.09 189.473 258.369C185.996 263.89 185.581 273.903 188.634 278.606C190.945 282.164 189.075 283.62 186.58 280.205C184.244 277.007 183.473 273.269 183.995 267.663C184.959 257.317 188.398 253.072 199.686 248.296C203.816 246.549 206.808 244.85 208.185 243.468C210.41 241.236 212.479 240.805 212.193 242.632ZM171.807 237.387C173.649 238.847 174.996 240.325 174.8 240.671C174.604 241.018 173.205 243.695 171.691 246.619L168.937 251.937L165.672 249.721C163.876 248.502 162.245 247.265 162.048 246.973C161.538 246.22 167.002 234.485 167.8 234.62C168.161 234.682 169.965 235.927 171.807 237.387ZM228.826 249.365C229.147 250.642 229.191 253.276 228.922 255.218C228.522 258.109 228.094 259.12 226.565 260.797C225.513 261.95 224.158 264.416 223.465 266.44C222.112 270.391 221.263 271.354 214.291 276.846C208.35 281.524 204.981 282.89 201.717 281.944C200.388 281.559 197.805 280.825 195.977 280.314C193.16 279.527 192.605 279.156 192.336 277.887C191.803 275.369 192.692 271.233 193.817 270.992C194.854 270.77 195.804 272.176 195.139 272.95C194.926 273.199 194.779 274.314 194.813 275.428C194.855 276.802 195.145 277.396 195.715 277.274C196.176 277.175 197.809 277.691 199.343 278.419C203.883 280.576 206.562 279.706 214.002 273.661C219.472 269.217 220.802 267.545 221.275 264.522C221.518 262.971 222.328 261.506 223.88 259.81C225.953 257.543 226.142 257.082 226.275 253.986C226.354 252.137 226.393 249.75 226.362 248.682C226.279 245.837 228.062 246.331 228.826 249.365ZM221.604 247.194C222.144 247.933 222.523 248.937 222.447 249.426C222.233 250.79 220.37 250.922 219.698 249.621C218.569 247.435 216.562 248.225 212.76 252.353C209.596 255.787 208.656 256.42 204.87 257.672C199.165 259.559 197.575 261.554 198.827 265.258C199.653 267.699 199.407 268.701 198.036 268.486C196.265 268.209 195.419 264.881 196.274 261.55C197.169 258.063 199.018 256.523 203.821 255.264C207.033 254.422 207.746 253.927 210.751 250.453C212.594 248.324 214.711 246.283 215.456 245.918C217.401 244.967 220.438 245.597 221.604 247.194ZM188.744 243.076C189.905 243.706 189.342 244.614 186.817 246.187C184.499 247.63 184.36 247.872 183.542 251.885C182.901 255.03 182.068 257.042 180.207 259.949C176.416 265.867 176.239 267.178 178.046 275.979C179.833 284.686 180.132 285.708 181.484 287.754C182.839 289.803 185.509 290.107 190.574 288.79C192.852 288.198 196.878 287.592 199.522 287.443C205.744 287.092 210.557 285.415 216.196 281.632C220.603 278.676 222.738 278.013 222.477 279.684C222.263 281.049 212.136 287.544 208.445 288.684C206.532 289.274 202.673 289.903 199.868 290.082C197.064 290.261 193.144 290.863 191.158 291.42C186.138 292.829 183.547 292.747 181.135 291.106C178.771 289.496 177.575 286.687 175.851 278.694C173.263 266.697 173.353 265.677 177.561 259.335C179.241 256.803 180.155 254.638 180.858 251.524C181.505 248.663 182.318 246.637 183.281 245.495C184.809 243.68 187.59 242.448 188.744 243.076ZM116.489 237.789C119.489 240.439 123.316 246.115 124.013 248.948C124.756 251.973 123.777 254.266 121.405 255.056C118.796 255.925 116.513 254.888 114.269 251.817C110.581 246.768 109.755 235.044 113.125 235.571C113.696 235.661 115.21 236.658 116.489 237.789ZM218.789 253.942C219.479 255.914 218.172 260.129 216.295 261.978C215.423 262.839 213.912 264.916 212.94 266.596C210.789 270.307 207.597 271.873 203.875 271.041C200.628 270.316 201.056 268.935 204.631 268.597C208.487 268.232 208.745 268.071 210.944 264.657C212.011 263 213.479 261.036 214.206 260.294C214.992 259.491 215.796 257.7 216.192 255.867C216.913 252.534 218.011 251.72 218.789 253.942ZM69.8645 231.011C69.5834 232.785 66.3393 242.059 64.8327 245.395C63.2061 248.995 61.8259 249.635 59.7445 247.756C55.9516 244.33 58.5927 237.319 65.534 232.387C68.7299 230.117 70.0738 229.689 69.8645 231.011ZM56.7442 228.272C57.5829 229.456 56.5345 231.462 53.5426 234.397C47.4601 240.364 40.3081 242.402 38.198 238.769C35.9903 234.968 39.1634 230.502 45.4647 228.542C49.4212 227.311 55.9523 227.155 56.7442 228.272ZM164.33 252.544C167.181 254.627 167.381 254.937 167.087 256.813C166.913 257.925 166.477 258.79 166.117 258.733C165.757 258.677 164.012 257.687 162.238 256.534C159.173 254.541 159.044 254.356 159.624 252.779C159.96 251.868 160.27 250.893 160.314 250.614C160.435 249.839 160.998 250.109 164.33 252.544ZM233.481 265.2C232.606 268.32 230.882 270.045 229.934 268.748C229.147 267.67 231.853 262.236 233.2 262.189C234.237 262.153 234.261 262.414 233.481 265.2ZM162.031 259.811L165.156 261.914L163.89 270.905C162.635 279.823 162.677 281.501 164.305 287.742C165.063 290.649 160.281 286.72 158.54 283.006C156.529 278.714 155.674 273.002 156.171 267.168C156.635 261.72 157.697 257.364 158.504 257.593C158.726 257.656 160.312 258.653 162.031 259.811ZM100.721 259.949C105.454 266.465 106.667 272.747 103.58 274.768C102.371 275.559 102.283 275.51 101.532 273.622C100.628 271.354 98.7988 270.362 96.6321 270.965C95.3174 271.332 95.0312 271.178 94.3843 269.75C92.562 265.729 92.9256 257.258 94.9684 256.159C96.8688 255.138 97.5523 255.588 100.721 259.949ZM89.466 255.162C90.7998 255.899 91.1654 256.908 90.6472 258.423C90.1847 259.776 90.7589 266.681 91.58 269.64L92.5205 273.028L89.642 277.012C87.0609 280.583 86.6923 281.45 86.0734 285.405C85.6939 287.831 85.5053 290.437 85.654 291.196C86.0711 293.322 84.7281 292.734 81.9094 289.557C80.5549 288.031 78.349 286.316 77.0069 285.746C75.6653 285.177 74.5881 284.577 74.6137 284.414C74.6391 284.251 75.6972 283.279 76.9643 282.254C80.2057 279.632 82.6353 274.999 84.3148 268.24C85.098 265.089 86.1469 261.542 86.6461 260.358C87.1453 259.173 87.5482 257.296 87.5419 256.186C87.5352 255.076 87.6264 254.204 87.744 254.248C87.8622 254.292 88.6365 254.703 89.466 255.162ZM117.408 307.836C120.52 309.239 123.719 311.419 124.441 312.628C125.349 314.15 124.19 315.196 120.415 316.264C117.603 317.059 115.68 317.152 111.555 316.693C106.829 316.166 106.142 315.95 104.885 314.593C103.799 313.422 103.561 312.587 103.826 310.89C104.223 308.354 105.581 307.238 109.078 306.577C111.953 306.034 114.144 306.365 117.408 307.836Z" fill="#FA1B7A"></path> <path d="M173.435 166.431C174.02 166.964 173.442 167.698 170.612 170.019C168.655 171.623 163.685 176.372 159.569 180.572C146.966 193.429 144.021 195.279 126.082 201.616C110.951 206.96 104.596 211.122 97.8783 220.085C91.0884 229.146 87.2122 239.521 83.3876 258.872C81.6596 267.615 80.3764 272.771 79.4576 274.664C76.0813 281.624 69.2731 285.099 63.8317 282.641C58.6808 280.315 55.8744 275.441 56.2597 269.492C56.528 265.346 57.8253 262.122 61.5488 256.347C69.8774 243.429 73.1097 233.066 77.4659 205.308C79.8757 189.951 81.4843 183.341 84.1238 177.95C86.9335 172.21 87.6764 171.771 93.7747 172.254C96.6218 172.478 100.716 172.516 102.874 172.336C105.24 172.139 110.237 172.467 115.466 173.161C126.667 174.65 133.922 174.898 142.396 174.08C153.129 173.045 159.924 170.897 162.464 167.735C163.627 166.288 163.944 166.221 171.498 165.825C172.158 165.79 173.03 166.063 173.435 166.431Z" fill="#FA1B7A"></path> <path d="M175.336 231.696C177.62 233.332 179.449 234.862 179.401 235.096C179.26 235.8 177.492 237.317 176.917 237.227C176.079 237.096 169.208 231.827 169.3 231.386C169.346 231.17 169.788 230.482 170.284 229.856C171.185 228.722 171.189 228.723 175.336 231.696Z" fill="#FA1B7A"></path> <path d="M193.882 221.624C195.986 223.327 197.68 224.922 197.645 225.168C197.61 225.416 196.924 225.801 196.12 226.025C194.899 226.365 194.009 225.969 190.692 223.606C188.509 222.051 186.612 220.637 186.476 220.462C186.205 220.115 189.093 218.297 189.687 218.44C189.889 218.489 191.776 219.921 193.882 221.624Z" fill="#FA1B7A"></path> <path d="M164.33 252.544C167.181 254.627 167.381 254.937 167.087 256.813C166.913 257.925 166.477 258.79 166.117 258.733C165.757 258.677 164.012 257.687 162.238 256.534C159.173 254.541 159.044 254.356 159.624 252.779C159.96 251.868 160.27 250.893 160.314 250.614C160.435 249.839 160.998 250.109 164.33 252.544Z" fill="#FA1B7A"></path> <path d="M216.286 210.755C218.6 212.703 220.531 214.513 220.576 214.778C220.62 215.042 219.868 215.422 218.905 215.623C217.35 215.947 216.658 215.604 212.715 212.556C210.273 210.669 208.348 208.869 208.436 208.555C208.524 208.242 209.379 207.811 210.337 207.599C211.907 207.25 212.486 207.557 216.286 210.755Z" fill="#FA1B7A"></path> <path d="M180.757 79.2798C182.302 79.9647 184.123 81.3785 185.061 82.6214C187.009 85.2024 190.815 87.1416 195.315 87.8458C197.132 88.1301 200.604 89.2218 203.03 90.2724C206.929 91.9596 208.467 92.2961 216.225 93.1609C229.305 94.6196 228.772 94.2732 237.043 106.665C238.455 108.779 240.791 111.073 243.718 113.217C251.833 119.163 254.374 124.02 253.702 132.305C253.39 136.157 253.123 136.884 250.27 141.648C247.362 146.506 247.133 147.145 246.434 152.348C246.025 155.392 245.279 158.687 244.777 159.671C242.88 163.388 238.274 163.679 235.761 160.24C233.873 157.655 234.256 155.361 237.486 149.923C242.48 141.51 244.454 135.873 243.967 131.414C243.612 128.169 241.292 125.099 239.329 125.277C237.731 125.422 235.824 128.017 234.611 131.701C233.648 134.626 232.199 136.133 229.617 136.896C227.798 137.434 226.972 137.344 223.918 136.273C220.837 135.193 220.072 135.113 218.336 135.691C214.934 136.824 214.022 138.317 213.717 143.252C213.424 148.007 211.738 151.793 209.579 152.546C207.711 153.198 205.119 152.509 203.697 150.981C202.329 149.512 201.961 147.716 201.752 141.492C201.591 136.692 199.833 134.413 194.311 131.842C184.314 127.19 167.934 123.286 162.583 124.281C156.499 125.412 152.334 130.465 149.357 140.325C148.337 143.707 146.977 147.053 146.337 147.761C144.694 149.574 142.447 150.109 140.859 149.063C138.651 147.61 138.201 144.52 139.229 137.861C140.462 129.873 140.007 128.392 134.007 120.831C131.198 117.291 128.81 113.589 128.154 111.755C125.167 103.415 129.669 92.8943 139.565 85.0877C147.904 78.5085 153.468 76.7515 165.323 76.9513C173.263 77.0853 177.123 77.6672 180.757 79.2798Z" fill="#FA1B7A"></path> <path d="M162.031 259.811L165.156 261.914L163.89 270.905C162.635 279.823 162.677 281.501 164.305 287.742C165.063 290.649 160.281 286.72 158.54 283.006C156.529 278.714 155.674 273.002 156.171 267.168C156.635 261.72 157.697 257.364 158.504 257.593C158.726 257.656 160.312 258.653 162.031 259.811Z" fill="#FA1B7A"></path> <path d="M171.807 237.387C173.649 238.847 174.996 240.325 174.8 240.671C174.604 241.018 173.205 243.695 171.691 246.619L168.937 251.937L165.672 249.721C163.876 248.502 162.245 247.265 162.048 246.973C161.538 246.22 167.002 234.485 167.8 234.62C168.161 234.682 169.965 235.927 171.807 237.387Z" fill="#FA1B7A"></path> <path d="M187.167 224.71C189.452 226.384 191.24 227.805 191.14 227.867C191.039 227.93 188.92 229.066 186.429 230.392L181.901 232.804L178.015 230.002C175.877 228.461 174.016 226.934 173.879 226.609C173.504 225.72 176.504 223.766 179.952 222.653L183.011 221.666L187.167 224.71Z" fill="#FA1B7A"></path> <path d="M209.012 213.443C211.188 215.215 212.997 216.878 213.033 217.139C213.068 217.399 212.12 218.128 210.927 218.759C209.733 219.39 207.145 220.796 205.175 221.884L201.594 223.86L197.278 220.463C194.905 218.595 192.992 216.881 193.028 216.654C193.088 216.271 204.587 209.967 204.909 210.141C204.989 210.184 206.835 211.67 209.012 213.443Z" fill="#FA1B7A"></path> <path d="M223.67 210.018C225.949 211.513 232.261 217.157 232.187 217.633C232.165 217.772 231.516 217.527 230.744 217.087C229.973 216.647 228.823 216.206 228.188 216.107C227.151 215.945 218.079 208.824 218.17 208.243C218.27 207.602 221.653 208.694 223.67 210.018Z" fill="#FA1B7A"></path> </svg> 