<?xml version="1.0" encoding="UTF-8"?> <svg xmlns="http://www.w3.org/2000/svg" width="298" height="267" viewBox="0 0 298 267" fill="none"> <path fill-rule="evenodd" clip-rule="evenodd" d="M7.52602 35.9562C9.71945 35.7281 12.0869 34.6973 13.3582 33.4174C15.6732 31.0862 22.4756 29.8839 24.1226 31.5147C24.6503 32.0372 25.7118 31.829 26.4807 31.0524C27.2497 30.2758 29.6359 29.6312 31.7824 29.6206L35.6855 29.6013L34.1371 26.5665C32.5811 23.5148 32.6696 19.3614 34.326 17.6885C34.8162 17.1935 36.7116 16.7822 38.5387 16.7731C41.2948 16.7588 42.5345 17.4192 45.8122 20.6485C50.4513 25.2177 51.491 25.5563 56.091 23.9941C60.7903 22.3981 62.6555 24.0902 65.3377 32.3835C69.3497 44.7907 77.4235 55.4556 87.0271 61.0336C93.3203 64.6885 92.1334 61.8204 84.0335 53.8002C75.7166 45.5652 74.1153 42.2342 76.5205 38.1716C77.4667 36.5739 77.2608 34.6152 75.7393 30.7371C74.603 27.841 73.5716 21.9296 73.448 17.6013L73.223 9.73169L78.5864 4.90798C81.8633 1.96163 84.4938 0.21082 85.3474 0.408258C86.1164 0.585136 87.817 2.11016 89.128 3.79612C91.3128 6.60719 91.7772 6.78288 94.7383 5.91693C98.765 4.74053 100.435 6.27313 102.321 12.8739C103.836 18.1806 106.003 20.1066 108.089 17.9998C109.654 16.4194 112.219 16.3905 113.779 17.9351C115.311 19.4522 114.518 23.2802 111.869 27.1546C109.67 30.3703 110.106 31.5788 113.656 32.1121C115.984 32.4619 119.236 29.8175 121.741 25.5358C122.801 23.7237 123.543 23.3587 125.183 23.8466C128.054 24.7006 128.801 27.5601 127.588 33.0548C126.923 36.0627 127.126 38.2225 128.224 39.8533C130.368 43.0347 130.292 48.3581 128.055 51.6627C126.004 54.6936 121.957 57.0016 113.857 59.762C105.498 62.6096 103.062 64.4623 103.079 67.9581C103.095 71.2225 104.592 72.5238 116.099 79.2773C125.368 84.7161 124.819 84.5774 125.327 81.6035C125.568 80.1914 125.977 78.8224 126.234 78.5626C126.921 77.869 143.124 86.0474 145.265 88.1678C146.271 89.1637 146.98 90.4716 146.841 91.0746C146.702 91.6775 146.937 92.5161 147.364 92.939C147.919 93.4891 148.138 93.2918 148.132 92.247C148.128 91.4431 149.303 89.8789 150.742 88.7701C154.105 86.1799 152.687 84.3788 148.716 86.1971C145.337 87.7445 143.414 86.1868 144.63 82.8872C145.476 80.5931 145.371 80.419 142.632 79.5616C138.906 78.3965 136.746 76.2309 137.53 74.4479C137.911 73.5785 137.265 72.1654 135.841 70.7554C133.621 68.5576 133.632 68.3633 136.113 65.6381C137.533 64.0808 139.189 62.2543 139.795 61.58C140.401 60.905 141.824 60.6415 142.957 60.9939C144.09 61.3456 146.969 61.604 149.356 61.5665C151.743 61.5297 154.349 62.1468 155.148 62.938C155.947 63.7291 156.706 63.9223 156.834 63.3688C157.401 60.9123 161.411 62.4028 165.96 66.7613L170.576 71.1845L168.133 67.5301C165.042 62.9046 161.454 60.3786 155.164 58.4012C149.381 56.5831 147.329 54.3987 148.514 51.3185C149.146 49.6751 148.789 48.561 147.094 46.8823C143.723 43.5445 143.262 40.9638 145.612 38.5905C146.779 37.4113 148.219 36.8128 149.03 37.1688C151.002 38.036 153.175 34.078 152.721 30.4403C152.525 28.8611 152.936 27.1403 153.636 26.6158C154.334 26.0912 155.345 24.207 155.879 22.428C156.693 19.7253 157.197 19.1381 158.946 18.8574C160.966 18.5341 161.897 19.4586 163.592 23.4726C164.117 24.7158 164.925 24.8404 166.834 23.9715C169.1 22.9398 169.593 23.11 171.361 25.5387C172.453 27.037 173.629 27.9765 173.976 27.6256C175.023 26.5688 177.854 30.0467 177.668 32.1603C177.51 33.9577 177.667 34.1024 179.45 33.8168C180.573 33.6373 181.986 34.2671 182.768 35.2979C184.167 37.1378 183.772 38.9472 179.671 49.5099C178.528 52.4525 177.469 56.252 177.317 57.9533C177.126 60.0872 177.782 58.8761 179.434 54.043C181.132 49.0757 182.271 46.9966 183.352 46.8911C184.432 46.7849 185.024 45.7169 185.385 43.2234C185.923 39.5057 187.837 37.9046 190.397 39.0295C191.235 39.3982 193.348 39.6916 195.092 39.683C199.04 39.6634 200.254 41.8906 197.702 44.4679C196.264 45.9205 196.125 46.8523 197.105 48.4716C197.808 49.632 198.062 50.9057 197.67 51.3015C197.277 51.6979 196.981 54.4976 197.011 57.523C197.048 61.1763 196.541 63.3342 195.501 63.9497C194.536 64.5209 193.91 66.4113 193.866 68.8862C193.78 73.7305 193.491 74.069 189.051 74.5186C181.395 75.2954 180.75 77.5528 184.746 89.5845C188.673 101.411 196.368 107.947 210.511 111.472C227.433 115.687 279.763 118.884 296.075 116.698C305.347 115.455 309.582 117.787 307.321 122.89C305.701 126.544 302.625 127.16 285.903 127.179C257.856 127.21 231.532 124.231 200.763 117.545C180.956 113.241 174.859 112.693 166.278 114.447C158.28 116.081 150.655 120.47 150.379 123.598C150.234 125.246 151.09 126.319 155.204 129.647C159.757 133.332 160.195 133.953 160.114 136.601C159.951 141.979 153.41 157.123 148.268 164.031C144.588 168.972 143.454 171.24 143.466 173.629C143.474 175.349 143.246 176.994 142.957 177.285C142.134 178.117 129.321 171.18 128.557 169.49C127.853 167.929 128.06 167.276 130.452 163.508C131.397 162.02 131.424 160.075 130.535 157.53C129.135 153.52 130.204 148.988 135.125 138.058C137.307 133.214 137.355 132.75 135.489 134.573C131.31 138.657 127.252 148.134 126.153 156.384C125.568 160.771 124.713 165.379 124.255 166.625C123.153 169.615 119.248 171.119 116.15 169.746C114.247 168.903 113.142 169.257 109.931 171.741C106.303 174.549 105.942 174.621 104.819 172.769C103.987 171.392 103.324 171.067 102.681 171.717C102.169 172.234 100.28 172.841 98.4863 173.065C95.8535 173.392 94.7978 172.971 93.0219 170.881C90.9432 168.435 90.6344 168.397 87.4668 170.196C83.7756 172.295 80.9239 172.141 79.86 169.785C78.8138 167.467 81.8101 154.712 83.8955 152.605C84.9035 151.587 85.6464 149.919 85.5466 148.898C85.4468 147.876 85.8833 146.517 86.5169 145.878C88.3437 144.033 87.8802 143.086 84.6548 142.077C81.2158 141.002 79.5688 138.543 80.4048 135.733C81.0731 133.484 82.761 132.571 88.5286 131.335C92.6075 130.461 92.7322 130.358 93.9574 126.865C95.0884 123.64 95.4661 123.235 97.8124 122.734C99.2422 122.429 103.459 123.025 107.183 124.057C115.418 126.341 122.631 126.06 130.666 123.139C140.564 119.542 137.341 118.017 126.77 121.295C120.052 123.378 115.629 122.705 113.557 119.284C112.623 117.74 111.26 117.099 108.427 116.869C103.38 116.46 101.297 115.136 95.5959 108.718C92.3819 105.099 90.8207 102.615 90.7307 100.978C90.6124 98.8248 90.4423 98.6375 89.1385 99.2253C88.3357 99.5886 85.97 99.4534 83.8824 98.9258C80.5394 98.0815 79.7622 98.2938 77.3772 100.702C74.8313 103.274 73.7271 103.453 58.9314 103.69C45.7901 103.901 42.8538 104.286 41.132 106.025C39.9981 107.17 38.6719 108.016 38.1848 107.902C37.6977 107.79 36.7564 103.692 36.0913 98.7954C34.6551 88.2073 35.5498 86.3107 42.051 86.1771C46.3179 86.0897 46.6148 85.9258 48.2807 82.7472C49.8527 79.7464 50.6322 79.1876 55.9901 77.2203C59.2689 76.0158 66.6233 74.3553 72.3347 73.5285C78.0454 72.7025 82.4481 71.7583 82.1169 71.4304C80.7759 70.1026 65.3532 70.4096 59.4508 71.8822C55.9762 72.7487 49.2432 75.2682 44.4895 77.4808C32.943 82.8542 27.9515 82.1582 27.17 75.0668C26.8568 72.2207 26.8066 72.179 22.2608 71.0166C17.3627 69.7638 15.7476 67.8967 17.2774 65.254C18.1524 63.742 17.9828 63.527 14.9464 62.2968C10.4549 60.4784 8.40485 55.7509 10.3431 51.6851C11.9144 48.3913 11.9683 48.4864 7.45376 46.6586C-1.19224 43.1588 -1.14964 36.8592 7.52602 35.9562ZM8.53166 38.9761C10.7536 38.6294 13.4348 37.4272 14.593 36.2575C17.5463 33.2749 21.3641 32.8236 23.7408 35.1769C26.0013 37.4151 27.9205 37.3035 28.13 34.9211C28.2094 34.0153 28.9912 32.951 29.8663 32.5555C32.4752 31.3787 35.3777 33.3031 39.3306 38.8319C42.5006 43.2662 43.5962 44.2258 47.3994 45.9041C51.6354 47.7739 54.4819 47.6861 54.4713 45.6851C54.4694 45.1607 50.3677 40.3452 45.3579 34.9834C37.0058 26.0455 36.2501 24.9821 36.2552 22.1859C36.26 19.1874 36.299 19.1412 38.5513 19.4616C39.8935 19.6526 42.4117 21.3339 44.6327 23.5209C49.0963 27.9177 52.8722 29.3965 55.18 27.6521C58.7896 24.9233 60.1634 26.1881 63.2186 35.0568C64.8012 39.6499 67.4194 45.4086 69.0353 47.853C72.6175 53.272 83.5903 63.1145 88.6861 65.4788C96.9575 69.3174 97.2848 61.604 89.1624 54.2471C78.6147 44.6934 77.8429 43.3892 79.6673 38.1939C80.2398 36.5642 79.8259 33.4568 78.5716 29.9726C77.4628 26.8909 76.4746 21.2339 76.3744 17.4001C76.2289 11.7977 76.5763 10.2064 78.1445 9.29051C79.2174 8.66399 81.211 7.03271 82.5746 5.66511L85.0553 3.17882L86.7768 6.1803C88.6655 9.47126 92.0159 11.1106 93.5955 9.5152C94.0925 9.01333 95.3244 8.67499 96.3338 8.76406C97.8205 8.89475 98.4078 9.82637 99.4372 13.6927C100.136 16.3142 101.662 19.4053 102.83 20.5621C104.627 22.3411 105.486 22.4431 108.409 21.2268C110.309 20.4352 111.865 20.0613 111.866 20.3956C111.868 20.7299 109.199 25.564 105.935 31.1379C100.557 40.3224 98.8629 44.9154 100.322 46.3604C101.401 47.429 105.154 46.8069 106.632 45.3142C107.474 44.4635 108.096 42.5541 108.015 41.0705C107.715 35.5981 108.586 34.6525 113.807 34.7803C118.468 34.8932 118.749 34.7578 121.565 31.0437C125.132 26.3365 126.373 26.9603 124.587 32.5628C123.635 35.5484 123.755 37.4264 125.059 39.9339C127.805 45.2142 127.58 47.28 123.851 51.046C121.471 53.4506 118.704 54.9876 113.749 56.6585C104.766 59.6872 102.093 61.5004 100.381 65.7275C98.6025 70.122 100.565 73.0702 108.791 78.3599C112.14 80.5136 114.881 82.4639 114.881 82.6946C114.882 82.926 111.123 81.4105 106.526 79.3266C94.5426 73.8944 91.4476 75.4411 90.7209 87.2262C90.4753 91.2146 89.6918 95.0662 88.9801 95.785C88.1485 96.6249 86.2239 96.6249 83.5921 95.7859C79.4814 94.4752 78.4803 94.828 75.175 98.7537C73.6412 100.576 71.2681 100.874 58.4816 100.857C50.2832 100.845 43.3696 101.035 43.1184 101.278C42.8658 101.521 41.9838 101.874 41.1571 102.065C39.9776 102.335 39.4593 101.108 38.7462 96.3589C38.2466 93.032 38.0473 90.0981 38.3039 89.839C38.5598 89.5806 41.1426 89.1442 44.0423 88.8694C47.3546 88.5559 49.559 87.8121 49.9705 86.8674C51.6406 83.0371 53.6574 81.0275 56.8936 79.9734C63.414 77.8495 76.5594 75.6 84.4576 75.2564C92.7272 74.8968 94.5365 73.7456 90.394 71.4768C77.8198 64.5885 59.9051 66.176 40.8516 75.8653C35.2314 78.7231 31.2353 78.8213 30.6 76.117C30.3602 75.0943 30.717 73.5029 31.3926 72.5813C33.0246 70.3563 32.204 69.7283 26.2762 68.6627C20.0863 67.5504 19.3289 66.8382 21.7436 64.3996C24.5063 61.6094 24.1269 60.8473 19.6849 60.2724C14.2258 59.5645 11.934 56.5922 13.5654 52.3344C15.088 48.3607 13.8505 46.2101 8.62223 43.7417C6.38659 42.6862 4.55408 41.3216 4.55105 40.7098C4.54803 40.0981 6.33879 39.3178 8.53166 38.9761ZM43.9502 37.8237C46.6603 40.4035 47.3144 41.4227 46.2641 41.4279C45.2491 41.4329 44.0878 40.3276 42.4858 37.831L40.172 34.2268L43.9502 37.8237ZM105.271 40.314C105.514 42.5764 104.043 44.6577 102.958 43.5838C102.584 43.2134 102.557 42.6295 102.897 42.2861C103.237 41.9427 103.86 40.8927 104.281 39.9534C104.956 38.4492 105.074 38.4926 105.271 40.314ZM30.2894 141.368C35.0733 142.79 38.1419 148.489 35.5401 151.116C33.5086 153.168 30.638 152.889 28.1198 150.395C24.3279 146.641 25.908 140.065 30.2894 141.368ZM97.6659 79.1621C98.4246 79.314 102.457 80.9025 106.627 82.6928C113.51 85.6477 114.187 86.1269 113.979 87.8975C113.651 90.6804 112.481 90.9751 107.404 89.5555C102.181 88.0959 100.48 88.6085 99.4893 91.9407C98.8703 94.0227 98.3847 94.3594 95.9811 94.3713L93.1918 94.385L93.5047 87.8817C93.8188 81.3459 95.1061 78.6489 97.6659 79.1621ZM160.359 23.607C161.404 26.9989 163.646 28.4888 166.229 27.5083C168.515 26.6403 168.69 26.7436 169.574 29.4738C170.779 33.1972 171.676 34.0292 173.021 32.6705C174.009 31.6728 174.165 31.8365 174.725 34.46C175.421 37.7183 177.454 39.0752 179.119 37.3935C180.965 35.5295 180.831 39.3651 178.919 43.1499C174.23 52.4325 172.784 62.5645 175.177 69.3441C177.751 76.6317 179.55 75.488 180.331 66.0711C181.075 57.0902 183.138 50.7765 185.854 49.1687C186.928 48.532 187.971 46.8466 188.305 45.204C188.861 42.4646 189.001 42.3583 191.711 42.6264C194.474 42.8997 194.519 42.9448 193.73 44.7C193.287 45.6861 193.346 47.6043 193.861 48.962C194.376 50.3189 194.436 52.1369 193.994 53.0013C193.551 53.8663 193.44 55.7514 193.747 57.1906C194.08 58.7501 193.516 60.9739 192.353 62.6944C191.278 64.2812 190.627 66.5439 190.906 67.722C191.572 70.542 190.329 71.6519 186.069 72.0397C184.14 72.215 181.932 73.1436 181.158 74.1049C180.385 75.0656 179.428 76.2559 179.033 76.7499C178.639 77.2444 179.155 80.9334 180.18 84.9473C182.387 93.5941 181.759 93.6798 179.008 85.1073C177.935 81.7629 176.407 78.5879 175.612 78.0525C173.492 76.6243 170.385 79.58 167.236 86.0209C163.666 93.322 163.339 93.5753 159.506 92.0236C157.709 91.2963 155.323 90.9102 154.202 91.1661C152.353 91.5887 152.341 91.5157 154.065 90.3845C155.274 89.5908 155.962 88.1873 155.954 86.5308C155.938 83.3936 156.533 82.6788 158.981 82.8941C160.003 82.9837 161.56 82.3298 162.44 81.441C163.678 80.1911 163.673 79.4596 162.423 78.222C160.696 76.511 158.759 77.0444 152.019 81.0858C148.772 83.0332 148.396 83.0445 148.387 81.1931C148.374 78.5378 147.076 77.297 143.564 76.5835C140.873 76.0372 140.763 75.8922 141.182 73.4439C141.491 71.6403 141.069 70.5488 139.763 69.7757C138.118 68.8019 138.174 68.3848 140.25 66.1665C141.986 64.3105 142.993 63.888 144.123 64.5415C144.962 65.0266 146.705 65.0234 147.996 64.5331C149.329 64.0271 151.34 64.273 152.649 65.1009C156.674 67.6498 157.143 67.7483 158.533 66.3447C159.787 65.0785 160.291 65.3764 164.876 70.0927C169.865 75.2246 172.669 76.5513 174.535 74.6662C175.958 73.2293 172.449 67.316 166.951 61.8855C162.606 57.5937 161.064 56.6275 156.828 55.5441C150.761 53.9933 150.096 53.418 151.766 51.1719C152.737 49.8651 152.597 48.8717 151.208 47.2199C147.877 43.2594 146.867 41.2004 147.975 40.6347C148.673 40.2793 151.365 42.1148 155.467 45.746C161.273 50.8839 161.997 51.2857 163.217 50.0528C164.424 48.8342 164.033 48.0965 159.46 42.9659C154.369 37.2526 154.362 37.2358 156.372 35.6281C158.09 34.2547 158.138 33.7063 156.692 31.9047C155.263 30.1245 155.302 29.5478 156.942 28.2357C158.024 27.3702 158.804 25.8275 158.699 24.7609C158.432 22.033 159.619 21.2077 160.359 23.607ZM97.4124 97.4073C100.148 97.4791 100.695 97.1454 101.865 94.692C103.321 91.6383 103.549 91.6054 110.196 93.4727C113.272 94.3372 113.765 94.1628 115.782 91.4934L117.995 88.5665L122.558 96.8918C128.259 107.294 129.167 108.244 131.327 106.062C133.379 103.99 132.624 101.239 129.026 97.6766C126.37 95.0466 126.359 94.9119 128.616 92.2203C130.55 89.9154 130.736 88.8906 129.753 85.9944L128.576 82.5267L130.843 83.534C138.333 86.8615 142.243 89.1504 143.235 90.7892C143.866 91.8296 143.78 96.0878 143.042 100.439C141.139 111.652 141.181 113.752 143.347 115.897C144.935 117.469 146.073 117.523 150.128 116.214L155.002 114.642L151.164 117.745C147.87 120.409 147.329 121.274 147.341 123.848C147.354 126.495 147.957 127.388 152.454 131.435L157.552 136.023L154.672 144.618C151.963 152.704 150.446 155.581 143.709 165.411C142.196 167.618 140.665 170.161 140.304 171.064C139.796 172.335 138.829 172.372 136.011 171.231C131.367 169.351 130.92 168.239 133.358 164.636C134.802 162.502 135.05 161.01 134.275 159.118C133.69 157.691 133.125 155.24 133.018 153.672C132.8 150.474 137.395 139.341 142.475 130.758C148.451 120.658 142.949 121.906 133.461 132.801C127.397 139.763 123.992 147.361 123.176 155.753C122.382 163.93 121.641 166.377 119.695 167.255C118.547 167.773 117.726 167.349 116.579 165.646C115.13 163.497 114.864 163.484 112.781 165.461C109.443 168.631 106.182 170.319 106.56 168.681C106.733 167.934 106.242 166.696 105.469 165.931C104.263 164.736 103.83 164.894 102.408 167.05C99.9287 170.809 96.919 171.401 94.972 168.512C92.5881 164.973 90.8935 164.69 86.8245 167.148C84.7862 168.381 82.9144 169.186 82.6648 168.939C81.9079 168.19 84.6744 155.899 85.8723 154.689C86.4877 154.068 87.6647 153.557 88.4889 153.553C89.5838 153.547 89.8194 152.761 89.3643 150.628C88.4692 146.434 90.7404 144.807 98.3833 144.165C104.038 143.69 105.413 143.193 107.293 140.947C108.517 139.486 109.172 137.948 108.749 137.53C108.327 137.112 103.676 137.431 98.4129 138.239C87.9339 139.848 83.5382 139.614 83.5275 137.446C83.523 136.543 85.4019 135.521 89.1689 134.379C94.4298 132.783 94.9228 132.437 96.3617 129.327C98.2398 125.269 99.1997 125.068 106.881 127.121C117.621 129.993 131.94 127.863 139.117 122.327C141.548 120.452 141.879 119.831 140.944 118.904C138.524 116.508 133.949 116.065 128.624 117.71C120.223 120.305 119.138 120.208 115.419 116.525C112.905 114.036 111.694 113.427 110.182 113.892C107.702 114.657 103.26 112.566 99.5433 108.887C92.5151 101.928 91.6481 97.2565 97.4124 97.4073ZM123.83 90.5116C124.433 90.6508 124.605 91.0891 124.213 91.4849C123.821 91.8806 123.194 91.902 122.82 91.5317C122.446 91.1614 122.273 90.7237 122.437 90.5585C122.601 90.3932 123.227 90.3725 123.83 90.5116ZM153.372 103.612C157.204 105.374 160.342 107.151 160.344 107.561C160.354 109.582 146.417 114.896 144.94 113.434C144.135 112.636 144.682 107.005 146.09 101.613C146.288 100.85 148.955 101.582 153.372 103.612ZM154.644 94.4249C155.437 93.9148 157.099 94.113 158.337 94.8655C163.234 97.8425 165.61 96.3359 169.832 87.5773C173.661 79.6308 173.807 79.6348 176.756 87.7245C178.203 91.6882 180.732 97.1834 182.377 99.9356C184.023 102.688 185.37 105.123 185.371 105.345C185.373 105.567 178.104 103.6 169.221 100.974C160.338 98.3474 153.099 96.0079 153.136 95.775C153.172 95.5427 153.85 94.935 154.644 94.4249ZM154.836 99.7151C171.367 105.058 191.633 110.444 192.377 109.693C192.981 109.083 192.347 107.794 190.478 105.83C188.11 103.34 188.449 103.474 192.657 106.689C200.223 112.469 211.087 115.539 231.591 117.693C257.787 120.444 276.407 121.237 290.563 120.203C303.372 119.266 306.253 119.818 303.432 122.667C302.309 123.801 297.011 124.217 284.809 124.133C253.24 123.913 228.502 120.862 194.315 112.971C183.493 110.473 170.047 109.975 163.395 111.826L158.146 113.287L161.576 110.525C166.064 106.908 165.501 105.782 157.408 102.162C150.289 98.9797 149.121 97.8676 154.836 99.7151ZM120.204 220.25C141.446 213.423 178.497 228.694 184.445 246.726C190.059 263.747 165.248 271.995 138.064 262.145C118.992 255.233 105.725 241.562 108.154 231.321C109.289 226.534 113.937 222.263 120.204 220.25ZM119.74 223.831C129.223 220.576 140.691 221.397 154.186 226.298C164.208 229.938 168.83 232.708 174.895 238.714C180.444 244.208 181.9 246.978 181.743 251.738C181.58 256.649 177.558 260.514 171.099 261.963C151.08 266.455 121.775 255.587 113.428 240.575C109.089 232.769 111.375 226.702 119.74 223.831ZM123.571 226.753C135.431 223.14 158.609 230.49 169.767 241.4C178.661 250.096 177.605 256.876 166.977 259.311C153.499 262.398 128.126 252.782 119.663 241.381C114.777 234.799 116.339 228.957 123.571 226.753ZM131.811 229.432C147.626 229.746 168.293 240.02 171.825 249.323C173.094 252.67 172.166 254.284 168.126 255.746C154.793 260.572 122.697 246.648 119.837 234.799C119.675 234.127 120.501 232.608 121.673 231.425C123.404 229.677 125.308 229.303 131.811 229.432Z" fill="#FA1B7A"></path> </svg> 