<?xml version="1.0" encoding="UTF-8"?> <svg xmlns="http://www.w3.org/2000/svg" width="247" height="234" viewBox="0 0 247 234" fill="none"> <path fill-rule="evenodd" clip-rule="evenodd" d="M113.083 6.40053C109.74 6.40887 106.922 6.43361 106.82 6.45488C106.718 6.47615 106.629 6.94763 106.623 7.50175C106.616 8.05587 106.506 9.16684 106.378 9.97071C105.528 15.3025 91.5984 23.6952 86.6661 21.8477C84.566 21.0608 83.8236 17.9126 84.9651 14.6298C85.4574 13.2117 85.7799 11.9495 85.6801 11.8251C85.5808 11.7007 83.0155 13.003 79.9784 14.7187L74.4577 17.8382L73.5599 22.1119C72.1131 28.9982 68.5146 32.7241 63.8267 32.1906C62.5797 32.0487 61.6123 31.427 60.6712 30.1624L59.3141 28.3382L56.0284 30.7794C52.4443 33.4422 52.2332 33.8076 53.4168 35.2907C54.491 36.6357 56.7258 36.7885 59.9794 35.7382C65.7656 33.871 69.3851 33.8717 82.2261 35.7436C92.9065 37.3005 99.547 38.8129 102.421 40.3436C103.216 40.7669 103.412 40.5314 103.595 38.9407C104.093 34.5731 107.907 31.2789 111.876 31.786C116.958 32.4352 119.466 37.3543 119.588 46.9119L119.657 52.3568L123.198 56.3219C125.145 58.5027 129.612 64.4031 133.124 69.4342C143.148 83.7931 145.91 86.2398 161.658 94.7119C168.539 98.4133 173.03 101.343 176.262 104.241L178.847 106.557L181.975 105.401C185.921 103.942 188.928 104.198 189.953 106.079C190.973 107.947 190.443 111.708 188.612 115.604L187.084 118.856L188.798 123.538C192.087 132.521 193.526 142.154 193.773 156.851C193.956 167.816 194.385 171.346 195.965 174.901C198.503 180.612 202.861 183.574 207.764 182.92C213.495 182.156 217.501 177.653 218.242 171.144C218.705 167.074 218.451 166.141 213.347 153.165C209.258 142.771 208.221 134.16 208.236 110.732C208.241 101.434 208.001 94.9367 207.645 94.7647C207.315 94.6054 205.173 93.2595 202.886 91.7736C197.902 88.5367 194.489 84.3081 194.782 81.734C195.118 78.7851 197.153 77.9197 204.689 77.5205C205.618 77.4717 205.58 77.1554 204.343 74.6221C202.691 71.24 199.309 67.9979 191.912 62.7065C186.063 58.5215 181.826 54.1191 179.128 49.4235C178.205 47.8166 175.676 42.3079 173.509 37.1825C168.782 26.0062 166.47 22.0957 162.532 18.6126C160.095 16.4585 155.184 13.1721 154.24 13.0647C154.114 13.0504 153.232 14.2189 152.28 15.6609C150.148 18.8886 146.192 21.636 143.069 22.0586C136.118 22.9991 132.264 16.2115 136.38 10.2802L137.78 8.26287L128.471 7.32397C123.35 6.80761 116.426 6.3922 113.083 6.40053ZM112.333 16.2436C111.004 12.4357 111.454 10.5166 114.083 8.77695C115.101 8.10323 116.454 7.6112 117.09 7.68355C123.186 8.37734 129.389 22.0649 124.678 24.43C122.84 25.3524 120.275 24.4497 116.196 21.4449C114.009 19.8343 113.212 18.7608 112.333 16.2436ZM132.271 36.2172C133.84 34.9493 136.48 33.437 138.138 32.8574C142.154 31.4532 144.612 31.7266 145.604 33.6868C146.571 35.5993 145.854 37.8755 143.088 41.6747C139.206 47.0075 133.218 48.4629 130.283 44.7867C129.242 43.4824 128.965 42.4986 129.16 40.7899C129.378 38.8722 129.857 38.1694 132.271 36.2172ZM149.052 59.0477C146.651 53.6961 150.73 39.4656 155.174 37.6874C158.211 36.4723 160.577 38.5981 162.674 44.4232C165.191 51.415 163.87 59.1675 159.667 62.0777C155.923 64.6698 150.935 63.2463 149.052 59.0477ZM180.557 64.4815C180.978 63.8737 181.912 63.1995 182.631 62.9838C185.859 62.0176 192.459 64.5682 195.211 67.8448C197.004 69.978 197.209 70.5736 196.949 72.8648C196.698 75.0689 196.36 75.6586 194.727 76.7388C193.668 77.4396 192.402 77.9674 191.912 77.9116C186.368 77.2807 178.299 67.7382 180.557 64.4815ZM162.217 70.9069C163.524 69.5773 165.46 68.0592 166.517 67.5342C169.106 66.2491 171.461 66.802 172.739 68.9949C173.615 70.4996 173.664 71.5341 173.091 76.5329C172.534 81.4002 172.157 82.7813 170.733 85.1663C167.678 90.2886 163.079 92.2614 158.792 90.2896C152.979 87.6158 154.554 78.703 162.217 70.9069Z" fill="#FA1B7A"></path> <path fill-rule="evenodd" clip-rule="evenodd" d="M149.04 1.51797C147.612 1.97781 145.676 2.77718 144.737 3.29444C142.909 4.30278 138.43 4.53532 127.221 4.20338C123.573 4.09568 117.202 3.92369 113.061 3.82222C106.376 3.65726 105.344 3.50982 103.837 2.50262C100.172 0.0524232 95.0336 1.03013 90.9074 4.96299C89.5171 6.28877 87.4173 7.81762 86.2414 8.3615C85.0656 8.90539 81.7335 10.6919 78.8369 12.3319C74.6231 14.7172 73.17 15.256 71.5682 15.0282C70.2796 14.8446 68.8242 15.16 67.4833 15.9141C65.4147 17.0773 60.3057 22.7013 60.1608 23.9739C60.1192 24.34 58.243 25.9225 55.991 27.4923C51.733 30.4591 49.6793 32.8029 50.0584 34.262C50.2107 34.8503 48.7565 35.7864 45.366 37.2826C38.5789 40.277 28.8975 45.9851 23.9438 49.9132C4.4078 65.4046 -3.56001 94.5736 2.71899 127.612C4.48922 136.926 5.85591 140.563 8.11094 141.962C10.4628 143.42 11.0929 143.502 13.3382 142.641C15.5339 141.8 15.8375 142.29 15.8459 146.691C15.8495 148.439 16.4077 151.36 17.0857 153.182C17.7643 155.004 18.4074 157.367 18.5146 158.433C18.6846 160.123 20.4029 162.18 22.4678 163.165C22.6895 163.271 22.9617 164.616 23.072 166.154C23.2922 169.217 24.6381 171.45 27.0793 172.799C28.3539 173.503 28.619 174.021 28.4528 175.481C28.3052 176.779 28.7778 178.016 30.1248 179.858C31.1578 181.271 32.4195 183.339 32.9291 184.454C33.4386 185.57 34.8636 187.336 36.096 188.38C37.3284 189.424 38.971 191.466 39.7468 192.916C40.522 194.367 41.8877 195.958 42.7812 196.452C43.9571 197.102 44.5404 198.012 44.8942 199.749C45.1623 201.069 45.8651 202.481 46.4555 202.886C47.0458 203.292 48.365 204.301 49.3865 205.128C51.3161 206.691 52.9297 207.533 56.8487 209.02C58.3942 209.606 60.2749 211.161 62.524 213.71C67.1205 218.921 68.579 219.819 72.5149 219.862C75.5486 219.894 75.7887 220.001 77.7211 222.186C79.6182 224.33 79.9293 224.474 82.6068 224.463C85.0569 224.452 85.7686 224.703 87.5714 226.211C89.5804 227.89 89.8077 227.952 92.5942 227.568C95.5018 227.168 95.5263 227.177 99.093 229.899C104.823 234.272 107.524 234.601 111.693 231.433C113.417 230.122 114.122 229.918 115.454 230.345C117.794 231.095 121.751 230.049 123.578 228.199C124.438 227.328 125.581 226.665 126.119 226.727C126.656 226.788 128.605 226.092 130.448 225.181C133.826 223.511 134.242 223.408 138.457 223.21C140.131 223.131 141.421 222.546 143.092 221.108C144.997 219.47 145.789 219.16 147.561 219.362C149.282 219.558 150.117 219.257 151.726 217.863C152.924 216.824 155.155 215.766 157.238 215.248C160.281 214.493 160.885 214.105 161.852 212.286C163.006 210.114 164.12 209.648 168.714 209.411C169.878 209.352 176.082 206.868 182.856 203.75C197.676 196.93 199.239 196.346 205.895 195.142C220.89 192.428 230.549 184.656 238.093 169.232C248.61 147.732 249.575 121.858 240.837 95.7083C239.516 91.753 239.133 89.8385 239.592 89.4748C240.717 88.5826 240.486 87.4772 239.139 87.3095C238.129 87.1836 237.323 85.9545 235.36 81.5444C220.067 47.1866 191.701 18.9698 162.151 8.71874C157.413 7.07506 156.465 6.55888 156.565 5.67747C156.707 4.4362 155.908 2.19169 155.075 1.48897C154.069 0.640866 151.729 0.652022 149.04 1.51797ZM137.278 14.1792C138.026 11.527 141.899 7.93044 146.7 5.42971C149.051 4.20523 151.213 3.49206 152.224 3.60719C153.831 3.79006 153.876 3.88742 153.571 6.56695C153.087 10.8174 149.046 16.6852 145.382 18.457C141.885 20.1476 139.735 19.9582 138.019 17.8095C136.943 16.4614 136.814 15.8284 137.278 14.1792ZM159.901 13.405C157.461 11.8671 155.493 10.2877 155.526 9.89476C155.56 9.50236 155.78 9.20559 156.016 9.23642C157.604 9.44253 168.473 13.8775 172.92 16.1341L178.292 18.8603L174.686 21.7497L171.081 24.6391L167.709 20.4199C165.246 17.3383 163.141 15.4469 159.901 13.405ZM87.4422 16.3651C88.161 11.4678 92.7318 5.8339 97.4381 4.04397C99.6597 3.19921 99.7066 3.2034 102.002 4.48087C104.527 5.88592 104.815 8.79563 102.697 11.4787C99.5186 15.5039 91.1796 20.0428 88.3243 19.302C87.207 19.0117 87.1036 18.6688 87.4422 16.3651ZM106.82 6.45488C106.922 6.43361 109.74 6.40887 113.083 6.40053C116.426 6.3922 123.35 6.80761 128.471 7.32397L137.78 8.26287L136.38 10.2802C132.264 16.2115 136.118 22.9991 143.069 22.0586C146.192 21.636 150.148 18.8886 152.28 15.6609C153.232 14.2189 154.114 13.0504 154.24 13.0647C155.184 13.1721 160.095 16.4585 162.532 18.6126C166.47 22.0957 168.782 26.0062 173.509 37.1825C175.676 42.3079 178.205 47.8166 179.128 49.4235C181.826 54.1191 186.063 58.5215 191.912 62.7065C199.309 67.9979 202.691 71.24 204.343 74.6221C205.58 77.1554 205.618 77.4717 204.689 77.5205C197.153 77.9197 195.118 78.7851 194.782 81.734C194.489 84.3081 197.902 88.5367 202.886 91.7736C205.173 93.2595 207.315 94.6054 207.645 94.7647C208.001 94.9367 208.241 101.434 208.236 110.732C208.221 134.16 209.258 142.771 213.347 153.165C218.451 166.141 218.705 167.074 218.242 171.144C217.501 177.653 213.495 182.156 207.764 182.92C202.861 183.574 198.503 180.612 195.965 174.901C194.385 171.346 193.956 167.816 193.773 156.851C193.526 142.154 192.087 132.521 188.798 123.538L187.084 118.856L188.612 115.604C190.443 111.708 190.973 107.947 189.953 106.079C188.928 104.198 185.921 103.942 181.975 105.401L178.847 106.557L176.262 104.241C173.03 101.343 168.539 98.4133 161.658 94.7119C145.91 86.2398 143.148 83.7931 133.124 69.4342C129.612 64.4031 125.145 58.5027 123.198 56.3219L119.657 52.3568L119.588 46.9119C119.466 37.3543 116.958 32.4352 111.876 31.786C107.907 31.2789 104.093 34.5731 103.595 38.9407C103.412 40.5314 103.216 40.7669 102.421 40.3436C99.547 38.8129 92.9065 37.3005 82.2261 35.7436C69.3851 33.8717 65.7656 33.871 59.9794 35.7382C56.7258 36.7885 54.491 36.6357 53.4168 35.2907C52.2332 33.8076 52.4443 33.4422 56.0284 30.7794L59.3141 28.3382L60.6712 30.1624C61.6123 31.427 62.5797 32.0487 63.8267 32.1906C68.5146 32.7241 72.1131 28.9982 73.5599 22.1119L74.4577 17.8382L79.9784 14.7187C83.0155 13.003 85.5808 11.7007 85.6801 11.8251C85.7799 11.9495 85.4574 13.2117 84.9651 14.6298C83.8236 17.9126 84.566 21.0608 86.6661 21.8477C91.5984 23.6952 105.528 15.3025 106.378 9.97071C106.506 9.16684 106.616 8.05587 106.623 7.50175C106.629 6.94763 106.718 6.47615 106.82 6.45488ZM172.423 27.9761C172.062 27.4177 173.056 26.3132 176.073 23.9215C178.352 22.1138 180.413 20.6573 180.652 20.6844C181.463 20.7768 190.273 27.1178 194.25 30.4727C198.904 34.3977 206.292 41.7847 210.616 46.8366L213.681 50.4164L211.823 51.4888C209.313 52.9375 199.96 60.3071 198.556 61.9416L197.428 63.2551L192.931 60.2264C184.972 54.8658 181.505 49.9195 175.738 35.6978C174.187 31.8732 172.695 28.3986 172.423 27.9761ZM107.187 45.5768C105.441 40.7986 106.56 35.3083 109.441 34.5189C111.642 33.9153 112.626 34.2014 114.257 35.9189C116.219 37.9843 117.133 41.9792 116.9 47.4584C116.691 52.3521 115.704 54.8202 114.032 54.6299C112.485 54.4539 108.509 49.1953 107.187 45.5768ZM60.5972 38.232C63.2015 37.5577 66.7284 36.9636 68.4339 36.9114C75.1489 36.7066 98.2281 40.5067 98.9002 41.9282C99.0196 42.1811 97.0462 42.3251 94.5151 42.2482C88.8874 42.0772 78.3678 42.6525 69.9775 43.5906C66.5352 43.9752 62.6072 44.1684 61.2487 44.019C55.526 43.3914 46.45 45.3456 39.999 48.5957L37.8505 49.6778L40.0291 47.6342C42.7305 45.1 45.9529 42.6353 49.6945 40.2408C52.0368 38.7424 52.8715 38.5006 54.2142 38.9308C55.3409 39.2921 57.3584 39.0712 60.5972 38.232ZM201.375 62.8704C204.256 59.7832 206.881 57.708 211.05 55.2242C213.235 53.9219 215.175 52.8917 215.361 52.9342C215.961 53.0711 221.825 61.8263 225.436 67.9761C227.364 71.2598 230.242 76.7631 231.831 80.2056L234.721 86.4641L230.317 87.2047C227.896 87.612 224.517 88.6055 222.809 89.4123C221.102 90.2193 219.593 90.8666 219.457 90.8511C219.32 90.8356 219.303 89.9903 219.417 88.9721C219.852 85.1117 217.004 81.5907 211.556 79.2531C209.136 78.2153 208.609 77.661 207.263 74.7457C206.42 72.9171 204.36 69.9143 202.688 68.0728L199.646 64.724L201.375 62.8704ZM74.4558 45.8224C74.4866 45.5514 85.2847 44.9092 91.3514 44.8175C94.3802 44.7717 98.5554 44.8973 100.63 45.0965C104.196 45.4394 104.431 45.5474 104.927 47.0683C106.337 51.3896 111.418 57.2163 114.036 57.5142C114.789 57.5999 116.122 57.056 116.998 56.305L118.591 54.9405L121.17 58.0774C125.462 63.2999 129.433 68.5556 129.591 69.2243C129.692 69.6458 128.922 69.6378 127.28 69.2005C125.925 68.84 121.751 68.0333 118.003 67.4072L111.189 66.2696L105.309 62.0049C95.6902 55.0291 87.3888 50.5125 78.4714 47.4018C76.2523 46.6279 74.445 45.917 74.4558 45.8224ZM18.7835 58.3984C21.9448 54.5789 30.4004 48.1148 36.9364 44.5196C40.1297 42.7634 42.8518 41.3389 42.9855 41.3541C43.1192 41.3693 41.3697 42.9985 39.0986 44.975C36.8269 46.9515 33.3312 50.5973 31.3304 53.0769C29.3291 55.5559 26.513 59.0513 25.072 60.8431C17.6762 70.0406 11.9095 81.8608 11.0248 89.6352C10.8641 91.0467 10.5492 91.8057 10.2278 91.5534C9.40443 90.9071 10.9832 78.8641 12.6215 73.3008C15.2616 64.3333 16.6495 60.9753 18.7835 58.3984ZM16.6245 81.2046C23.3469 61.3112 40.7487 46.7818 58.1567 46.5273C59.9189 46.5011 62.617 46.589 64.1527 46.7222C67.0114 46.9703 78.4539 49.8285 79.3256 50.5125C80.0083 51.0482 75.5698 51.9642 73.4224 51.7302C72.4399 51.623 70.5871 51.0269 69.305 50.4052C64.276 47.9671 55.5359 48.145 47.5546 50.8479C40.5189 53.2309 36.1544 56.955 35.6981 60.964C35.5813 61.9906 34.6406 63.1479 32.7214 64.6257C29.892 66.8045 28.4554 69.5231 28.8155 72.0188C28.9109 72.6808 27.7139 75.0887 25.951 77.7805C24.2855 80.3243 22.25 84.273 21.4284 86.5557C20.0339 90.4297 19.9696 90.9433 20.4669 94.2516C20.9368 97.374 20.8684 98.1022 19.893 100.353C18.1351 104.409 18.148 106.27 19.9508 108.856C21.4462 111 21.5273 111.488 21.2533 116.666C21.0928 119.704 21.1471 122.583 21.3742 123.064C21.6014 123.544 21.5363 125.718 21.2291 127.894C20.6468 132.019 20.9617 133.304 23.3587 136.593C23.9888 137.458 24.7249 139.725 24.9946 141.632C25.2644 143.538 26.127 146.244 26.9126 147.645C27.6981 149.046 28.4043 151.225 28.4823 152.487C28.6699 155.537 29.6627 157.466 31.4992 158.348C32.7222 158.935 33.1255 159.729 33.634 162.547C35.0443 170.356 42.9039 182.793 49.2428 187.246C50.8991 188.409 52.0527 189.779 52.5564 191.181C53.1375 192.796 53.7874 193.477 55.1701 193.917C56.3104 194.28 57.7347 195.489 58.9147 197.094C59.962 198.519 61.1072 199.718 61.4591 199.758C61.811 199.799 63.3021 201.168 64.7729 202.802C68.0725 206.468 70.166 207.668 74.0511 208.121C77.5901 208.534 77.9965 208.807 78.9915 211.439C79.9404 213.947 81.4631 214.722 86.5982 215.313C89.0715 215.596 92.1258 216.404 94.2859 217.345C98.9657 219.383 103.396 220.174 107.047 219.62C108.715 219.368 111.11 219.442 112.571 219.792C118.214 221.144 126.257 219.601 132.194 216.028C142.079 210.08 147.912 203.662 149.661 196.812C150.043 195.317 151.072 193.119 151.948 191.928C153.637 189.632 154.115 187.778 153.449 186.107C153.154 185.368 153.479 184.663 154.632 183.54L156.222 181.993L155.293 186.8C153.702 195.045 155.13 202.247 159.162 206.305L161.221 208.378L159.856 210.432C158.756 212.087 158.005 212.557 155.991 212.848C154.473 213.067 152.464 213.999 150.876 215.221C149.438 216.326 147.784 217.126 147.202 216.996C144.836 216.47 143.945 216.743 141.782 218.657C139.881 220.338 139.038 220.666 136.528 220.7C134.559 220.726 132.489 221.281 130.465 222.324C128.774 223.196 126.599 224.005 125.631 224.122C124.662 224.239 122.834 225.217 121.567 226.294C119.419 228.12 119.043 228.228 116.034 227.886C113.147 227.557 112.548 227.703 110.366 229.26C107.113 231.581 104.961 231.333 101.291 228.214C97.2958 224.818 95.9822 224.254 93.1354 224.71C90.9846 225.054 90.4793 224.918 88.2504 223.391C86.3287 222.074 85.3242 221.733 83.8243 221.886C81.4889 222.124 79.4098 220.934 78.2888 218.718C77.4385 217.036 75.486 216.473 73.3869 217.304C71.291 218.132 68.9353 216.764 65.186 212.54C61.6818 208.592 59.6523 207.19 54.8015 205.368C53.5534 204.899 51.857 203.789 51.0316 202.901C50.2062 202.013 49.091 201.236 48.5535 201.174C47.8955 201.099 47.4585 200.291 47.2181 198.706C46.9557 196.975 46.3341 195.929 44.8745 194.761C43.7819 193.887 42.3606 192.169 41.7165 190.944C41.0723 189.72 39.32 187.686 37.8231 186.425C35.9111 184.814 34.9733 183.52 34.6715 182.079C34.4348 180.95 33.4204 179.241 32.417 178.281C31.4129 177.32 30.6822 176.114 30.7929 175.599C31.2857 173.303 30.947 172.516 28.7344 170.815C26.3521 168.984 25.3507 167.146 25.59 165.043C25.7943 163.248 25.0049 161.815 22.9644 160.281C21.8717 159.458 21.136 158.418 21.2069 157.794C21.274 157.205 20.6512 154.984 19.823 152.86C18.8619 150.393 18.3348 147.835 18.3656 145.785C18.3924 144.018 17.9773 141.635 17.444 140.489C16.9101 139.343 16.5755 137.504 16.6996 136.403C16.8237 135.303 16.534 133.424 16.0567 132.228C13.5437 125.937 12.1027 110.546 13.6731 106.764C14.1107 105.709 14.1232 104.522 13.7121 103.151C13.1998 101.444 13.2716 100.63 14.1478 98.1985C14.992 95.8549 15.1378 94.5028 14.8969 91.245C14.6216 87.5212 14.7585 86.7253 16.6245 81.2046ZM37.9921 61.7661C39.5483 56.7102 46.2048 53.0428 56.493 51.5721C62.1707 50.7601 64.3122 51.0159 69.2472 53.0938L73.3258 54.8113L77.8998 54.0058C85.9968 52.5792 92.5069 55.0959 97.3651 61.53C99.4848 64.3367 100.815 65.4264 104.511 67.3829C107.685 69.0632 109.476 70.4206 110.461 71.8903C111.537 73.4979 112.315 74.0444 113.761 74.209C116.123 74.4777 119.25 77.4746 126.411 86.3301C130.479 91.3621 131.572 93.0985 131.433 94.3142C131.172 96.6122 132.232 98.8219 134.948 101.641C136.28 103.023 137.546 104.929 137.761 105.875C138.004 106.948 138.92 108.102 140.197 108.945C141.849 110.037 142.362 110.861 142.862 113.226C143.203 114.837 144.255 117.446 145.202 119.023C148.653 124.776 151.585 135.972 150.984 141.106C150.802 142.658 151.476 145.314 153.28 150.169L155.833 157.035L155.237 162.268C154.804 166.081 154.843 167.807 155.382 168.629C155.898 169.418 155.969 171.063 155.617 174.082C155.1 178.526 154.434 179.91 151.316 183.016C149.958 184.37 149.924 184.528 150.591 186.454C151.26 188.393 151.222 188.562 149.612 190.668C148.69 191.875 147.53 194.297 147.035 196.052C145.173 202.648 139.522 208.754 130.416 214.008C126.519 216.257 124.852 216.852 121.395 217.233C117.174 217.697 112.167 217.461 111.267 216.755C111.008 216.552 109.486 216.633 107.885 216.937C104.31 217.615 99.1107 216.681 94.037 214.448C91.7924 213.461 88.8551 212.687 86.1711 212.378L81.8873 211.885L80.9871 209.621C79.9404 206.991 77.7739 205.734 73.3253 205.178C70.48 204.823 68.0373 203.258 67.029 201.145C66.8262 200.72 65.5284 199.539 64.1449 198.521C62.7615 197.503 60.8848 195.597 59.975 194.286C58.9761 192.848 57.8102 191.845 57.0327 191.757C56.173 191.659 55.3656 190.851 54.6056 189.328C53.9788 188.073 52.3805 186.288 51.0538 185.361C47.6728 183.001 40.7712 174.161 38.783 169.645C37.8661 167.562 36.6834 163.947 36.1549 161.609C35.229 157.516 34.588 156.355 33.1506 156.172C31.8791 156.011 30.8871 154.09 31.1016 152.205C31.2395 150.994 30.7421 149.242 29.713 147.317C28.0853 144.27 27.9735 143.9 27.3536 139.513C27.1615 138.15 26.1171 135.744 25.0335 134.166C23.1432 131.413 23.0912 131.179 23.7492 128.376C24.2092 126.419 24.2476 124.403 23.8672 122.265C23.5542 120.51 23.5093 117.223 23.7667 114.961C24.2067 111.094 24.1311 110.691 22.5068 108.235C21.5564 106.798 20.7931 105.496 20.8106 105.343C20.8281 105.188 21.4654 103.479 22.2261 101.543C23.4478 98.4349 23.558 97.6602 23.1671 94.9223C22.9236 93.2173 22.862 91.059 23.03 90.1265C23.5185 87.4148 27.0214 80.3091 29.1939 77.623C30.8021 75.6333 31.2614 74.5263 31.5579 71.9214C31.9015 68.9019 32.0984 68.5494 34.5456 66.5711C36.5123 64.981 37.3707 63.7844 37.9921 61.7661ZM119.372 74.4501C116.735 71.753 114.585 69.4741 114.596 69.3853C114.615 69.2162 115.001 69.2931 125.414 71.5311L131.976 72.9418L136.991 79.1204C142.627 86.0616 146.564 89.288 155.455 94.2477C167.655 101.053 170.33 102.695 173.55 105.356L176.845 108.079L174.995 109.546L173.144 111.014L168.4 109.039C165.791 107.953 161.812 106.461 159.558 105.723C154.847 104.181 142.377 101.079 141.058 101.121C140.57 101.137 138.869 99.1849 137.278 96.7834C132.773 89.9817 124.64 79.8384 119.372 74.4501ZM197.059 82.0658C197.099 81.7139 197.882 81.1247 198.799 80.7556C201.098 79.8308 209.284 80.7536 211.95 82.2383C216.005 84.4952 217.796 87.9001 216.323 90.551C214.577 93.6929 210.491 93.4476 204.616 89.8474C201.297 87.8145 196.918 83.3042 197.059 82.0658ZM212.909 100.23C218 94.3962 225.31 90.2627 231.55 89.6901C233.607 89.5009 235.501 89.5013 235.76 89.691C237.162 90.7209 241.804 107.723 243.193 116.911L243.235 117.188C243.887 121.502 244.156 123.281 243.388 124.2C242.85 124.844 241.8 125.064 240.013 125.439L239.85 125.473C237.725 125.92 234.373 127.112 232.401 128.124C227.804 130.481 220.158 136.834 216.349 141.459L213.377 145.069L212.679 141.903C211.529 136.693 210.789 125.45 210.819 113.676L210.848 102.592L212.909 100.23ZM210.948 97.0179C210.776 96.2837 211.014 95.8136 211.653 95.6268C213.387 95.1205 213.528 95.3442 212.36 96.746C211.31 98.0061 211.186 98.0295 210.948 97.0179ZM3.39038 112.915C2.58584 102.716 4.33961 87.7728 7.39934 78.7441C8.21206 76.3467 8.91505 74.3896 8.96189 74.3949C9.00817 74.4002 8.59612 78.311 8.04576 83.0862C7.1837 90.5598 7.16229 92.2225 7.89062 95.0364C9.43707 101.014 9.5426 101.816 9.66111 108.503C9.76293 114.275 10.5541 120.183 12.8354 132.207L13.3913 135.138L11.2996 132.609C6.87066 127.253 3.94696 119.974 3.39038 112.915ZM171.513 118.409C171.91 114.913 178.677 109.105 184.365 107.378C186.972 106.587 187.033 106.592 187.77 107.714C188.495 108.818 187.789 111.421 185.606 115.693C183.144 120.509 178.809 123.715 175.297 123.315C173.31 123.089 171.28 120.457 171.513 118.409ZM155.302 136.181C152.566 126.788 148.803 117.705 142.638 105.612L141.779 103.928L143.416 104.118C148.169 104.669 169.404 111.545 170.547 112.904C170.757 113.153 170.384 114.381 169.719 115.631C168.59 117.755 168.556 118.084 169.207 120.604C170.702 126.395 177.073 127.534 183.092 123.086C184.232 122.244 185.23 121.562 185.311 121.571C185.77 121.623 188.63 131.631 189.399 135.878C190.335 141.043 191.162 150.564 191.185 156.451L191.198 159.806L187.796 157.083C181.167 151.775 168.765 144.945 158.748 141.084C156.624 140.266 156.399 139.946 155.302 136.181ZM216.806 145.187C223.835 136.173 231.101 130.746 239.548 128.203C243.285 127.078 244.186 127.531 244.297 130.591C244.449 134.768 243.033 146.375 241.723 151.699L240.517 156.603L236.387 159.206C234.116 160.636 229.775 163.692 226.741 165.996L221.223 170.184L221.046 168.52C220.637 164.682 219.972 162.473 217.177 155.663L214.232 148.487L216.806 145.187ZM154.976 146.591C154.813 147.712 153.567 144.255 153.705 143.063C153.796 142.277 154.027 142.547 154.453 143.936C154.792 145.041 155.027 146.236 154.976 146.591ZM158.684 152.178C158.076 147.811 157.59 144.14 157.604 144.019C157.67 143.434 159.921 144.255 166.086 147.11C174.355 150.939 181.58 155.35 187.038 159.901L191.181 163.354L191.453 167.038C191.814 171.92 193.707 177.279 196.152 180.342C198.075 182.75 198.132 182.987 197.957 187.805L197.776 192.78L194.68 189.917C191.05 186.561 183.366 181.327 178.122 178.64C176.087 177.597 171.18 175.535 167.217 174.058L160.012 171.373L159.901 165.745C159.84 162.65 159.292 156.545 158.684 152.178ZM11.1428 140.394C8.96796 140.146 7.94002 138.587 6.78534 133.784L5.82813 129.804L8.24246 132.95C9.5697 134.681 11.3458 136.703 12.1879 137.444C14.0948 139.121 13.5472 140.667 11.1428 140.394ZM225.7 169.93C228.393 167.875 232.29 165.036 234.361 163.621C236.431 162.207 238.294 161.065 238.499 161.084C239.163 161.145 235.792 168.416 232.955 173.044C227.973 181.168 221.109 187.513 214.376 190.217C211.119 191.526 203.601 193.142 203.187 192.623C203.034 192.432 204.029 190.836 205.396 189.076C207.296 186.631 208.476 185.69 210.397 185.087C214.035 183.944 218.043 180.25 219.554 176.648C220.608 174.136 221.574 173.08 225.7 169.93ZM158.913 201.421C156.982 197.045 156.922 194.198 158.544 183.982C159.484 178.067 159.691 175.593 160.855 175.008C161.815 174.525 163.427 175.329 166.64 176.547C172.711 178.85 179.985 182.445 184.438 185.343C188.355 187.892 195.894 194.168 195.78 194.785C195.744 194.98 193.345 196.166 190.45 197.423C187.554 198.68 182.155 201.144 178.451 202.901C171.73 206.089 168.099 207.28 165.878 207.027C163.473 206.753 160.051 203.999 158.913 201.421ZM200.545 190.786C200.418 190.771 200.475 189.345 200.671 187.617C201.029 184.477 201.03 184.474 202.557 185.029C203.398 185.333 204.164 185.665 204.26 185.765C204.467 185.98 200.883 190.824 200.545 190.786Z" fill="#FA1B7A"></path> <path fill-rule="evenodd" clip-rule="evenodd" d="M45.6548 87.0437C49.1751 82.363 58.8637 77.003 65.7442 75.9288C69.4875 75.3449 75.3669 76.0244 78.5895 77.4131C82.1142 78.9325 84.1955 80.5663 89.8483 86.2534C92.433 88.8534 97.525 93.3046 101.164 96.1446C116.343 107.991 119.137 111.927 122.307 125.923C125.14 138.436 125.461 153.616 123.093 163.037C118.353 181.895 105.439 188.782 86.9909 182.292C83.6248 181.108 78.5775 179.696 75.7747 179.155C72.9719 178.614 69.4475 177.548 67.9428 176.787C64.5558 175.074 55.1515 166.016 49.5316 159.054C47.2154 156.185 44.1994 153.052 42.8295 152.093C40.683 150.59 39.7616 149.167 36.1623 141.799C29.2505 127.65 27.2673 120.664 28.8633 116.092C29.7135 113.655 30.9885 112.519 33.9249 111.582C36.1269 110.878 36.3306 110.609 38.689 105.267C40.0434 102.197 41.2529 98.7897 41.3765 97.6935C41.732 94.5341 43.6931 89.6523 45.6548 87.0437ZM155.174 37.6874C150.73 39.4656 146.651 53.6961 149.052 59.0477C150.935 63.2463 155.923 64.6698 159.667 62.0777C163.87 59.1675 165.191 51.415 162.674 44.4232C160.577 38.5981 158.211 36.4723 155.174 37.6874ZM166.517 67.5342C165.46 68.0592 163.524 69.5773 162.217 70.9069C154.554 78.703 152.979 87.6158 158.792 90.2896C163.079 92.2614 167.678 90.2886 170.733 85.1663C172.157 82.7813 172.534 81.4002 173.091 76.5329C173.664 71.5341 173.615 70.4996 172.739 68.9949C171.461 66.802 169.106 66.2491 166.517 67.5342ZM98.2606 151.15C96.6789 152.052 94.9058 153.329 94.321 153.988C93.0266 155.447 92.5843 158.866 93.2291 162.424C93.4937 163.881 93.6489 167.273 93.5751 169.96C93.2692 181.033 95.2914 182.25 106.087 177.493C106.623 177.256 107.132 177.032 107.614 176.82C114.613 173.739 116.052 173.106 116.523 172.045C116.644 171.77 116.701 171.467 116.773 171.086C116.792 170.984 116.812 170.877 116.835 170.764C117.407 167.893 116.766 164.326 115.274 162.087C113.426 159.314 103.352 149.731 102.16 149.612C101.598 149.556 99.8429 150.248 98.2606 151.15ZM112.153 164.577C111.682 164.524 111.34 164.096 111.394 163.626C111.447 163.156 111.877 162.816 112.348 162.869C112.819 162.923 113.161 163.351 113.108 163.821C113.054 164.291 112.625 164.631 112.153 164.577ZM111.337 168.78C111.06 168.562 111.011 168.159 111.229 167.884C111.447 167.608 111.851 167.56 112.128 167.777C112.405 167.994 112.453 168.397 112.235 168.673C112.018 168.949 111.613 168.997 111.337 168.78ZM106.484 168.633C106.185 168.599 105.881 168.285 105.806 167.936C105.732 167.586 106.099 167.349 106.623 167.409C107.147 167.468 107.452 167.782 107.301 168.106C107.15 168.429 106.783 168.667 106.484 168.633ZM106.447 173.333C105.86 173.799 105.036 173.016 105.498 172.432C105.712 172.161 106.128 171.966 106.424 172C107.038 172.07 107.052 172.853 106.447 173.333ZM101.055 173.119C100.741 173.084 100.513 172.798 100.548 172.485C100.584 172.172 100.87 171.945 101.184 171.981C101.499 172.016 101.726 172.302 101.691 172.615C101.655 172.928 101.369 173.155 101.055 173.119ZM66.6486 145.044C71.7786 139.129 72.6083 138.332 74.7769 137.236C75.7795 136.729 77.1134 136.373 77.7419 136.443C80.6929 136.775 83.6779 140.739 86.2877 147.792C86.9618 149.613 88.1283 152.258 88.8796 153.67C89.631 155.081 90.1897 156.726 90.1217 157.323C90.0536 157.922 90.2841 160.473 90.6338 162.994C91.4938 169.191 91.1186 171.827 88.947 174.841C87.6098 176.696 86.8335 177.269 85.8104 177.152C83.4773 176.887 65.9166 170.286 63.4917 168.763C61.9126 167.771 60.5269 166.122 59.0952 163.529C55.6897 157.361 55.8165 155.907 60.1036 151.973C61.5471 150.648 64.4926 147.53 66.6486 145.044ZM88.2811 161.207C87.9898 161.576 87.8885 162.048 88.0556 162.258C88.5089 162.826 89.1517 162.14 88.9692 161.283C88.8419 160.682 88.7071 160.667 88.2811 161.207ZM82.1825 166.069C82.129 166.539 82.3423 166.953 82.6565 166.988C82.9707 167.024 83.2715 166.669 83.325 166.199C83.3784 165.729 83.1651 165.316 82.8509 165.28C82.5367 165.244 82.2359 165.599 82.1825 166.069ZM87.3562 166.37C87.3206 166.683 87.5485 166.968 87.8627 167.004C88.1769 167.04 88.4631 166.813 88.4988 166.5C88.5344 166.186 88.3065 165.901 87.9923 165.865C87.6781 165.829 87.3919 166.056 87.3562 166.37ZM76.4903 170.324C76.4546 170.637 76.6826 170.923 76.9968 170.958C77.311 170.994 77.5972 170.767 77.6328 170.454C77.6685 170.141 77.4405 169.855 77.1264 169.82C76.8121 169.784 76.5259 170.011 76.4903 170.324ZM81.6317 170.909C81.5961 171.222 81.824 171.508 82.1382 171.543C82.4524 171.579 82.7386 171.352 82.7742 171.039C82.8099 170.726 82.5819 170.44 82.2678 170.405C81.9536 170.369 81.6673 170.596 81.6317 170.909ZM61.2859 80.7617C58.3171 81.8219 55.0659 84.6922 54.4041 86.8362C53.0079 91.3606 56.3183 100.902 62.1604 109.191C64.0243 111.835 66.9541 116.523 68.6716 119.61C73.3598 128.036 77.4491 133.381 79.9657 134.374C82.6235 135.421 86.1701 140.08 87.9654 144.882C89.3923 148.697 92.3575 152.718 92.9163 151.595C93.518 150.386 101.072 146.59 102.542 146.758C103.456 146.862 105.863 148.711 109.099 151.795L114.211 156.668L116.426 148.159C119.787 135.253 120.626 130.686 120.024 128.594C119.513 126.823 106.04 110.729 97.6693 101.891C88.1846 91.8778 77.6282 83.6579 71.5472 81.5511C67.8278 80.2627 63.5943 79.9366 61.2859 80.7617ZM64.3983 85.8943C63.927 85.8407 63.5706 85.5406 63.6062 85.2274C63.6419 84.9143 64.0566 84.7019 64.5279 84.7556C64.9992 84.8092 65.3557 85.1093 65.32 85.4225C65.2844 85.7356 64.8696 85.948 64.3983 85.8943ZM62.387 90.8563C62.0728 90.8205 61.8595 90.407 61.9129 89.9372C61.9664 89.4675 62.2672 89.1124 62.5814 89.1481C62.8956 89.1839 63.1089 89.5975 63.0555 90.0672C63.002 90.537 62.7012 90.8921 62.387 90.8563ZM64.5859 97.3401C64.2355 97.4139 63.9971 97.0476 64.0565 96.5255C64.1159 96.0034 64.4305 95.7001 64.7554 95.8507C65.0802 96.0012 65.3186 96.3675 65.2847 96.6653C65.2509 96.9631 64.9363 97.2664 64.5859 97.3401ZM62.2984 101.805C61.9842 101.769 61.7563 101.483 61.7919 101.17C61.8276 100.857 62.1138 100.63 62.428 100.666C62.7422 100.702 62.9701 100.987 62.9345 101.3C62.8988 101.613 62.6126 101.84 62.2984 101.805ZM111.056 131C110.742 130.965 110.514 130.679 110.549 130.366C110.585 130.053 110.871 129.826 111.185 129.862C111.5 129.897 111.728 130.183 111.692 130.496C111.656 130.809 111.37 131.036 111.056 131ZM108.814 135.825C108.464 135.899 108.225 135.533 108.285 135.011C108.344 134.489 108.659 134.185 108.984 134.336C109.309 134.486 109.547 134.853 109.513 135.151C109.479 135.448 109.165 135.752 108.814 135.825ZM111.188 142.551C110.717 142.497 110.36 142.197 110.396 141.884C110.432 141.571 110.846 141.358 111.318 141.412C111.789 141.466 112.145 141.766 112.11 142.079C112.074 142.392 111.659 142.604 111.188 142.551ZM108.67 146.878C108.356 146.842 108.128 146.557 108.164 146.244C108.199 145.931 108.486 145.704 108.8 145.739C109.114 145.775 109.342 146.061 109.306 146.374C109.271 146.687 108.984 146.914 108.67 146.878ZM42.1358 132.377C40.2784 127.815 39.552 125.238 38.5706 119.726L38.0417 116.757L39.1883 117.98C39.8194 118.653 40.5646 119.519 40.8442 119.904C43.4261 123.459 52.3991 130.043 59.1992 133.372L64.0556 135.749L59.1087 141.661C53.1619 148.769 52.2531 149.285 50.1336 146.757C47.8633 144.048 44.2216 137.501 42.1358 132.377ZM32.3704 115.804C30.6678 117.987 30.5774 118.736 31.4996 123.008C32.3128 126.775 33.712 130.192 38.7021 140.599C43.096 149.761 43.2156 149.916 45.8004 149.748C46.9488 149.674 47.9914 149.543 48.1169 149.458C48.2429 149.372 47.2388 147.67 45.8861 145.675C40.1289 137.188 36.0744 126.228 35.2539 116.938C34.9923 113.973 34.0779 113.614 32.3704 115.804ZM51.4897 125.377C47.7 122.55 42.287 117.406 41.6031 115.981C41.1452 115.027 41.2136 114.924 42.0654 115.29C43.583 115.943 53.4217 118.641 55.9584 119.101C58.1424 119.496 58.2696 119.659 61.3493 126.025L64.5037 132.544L62.2012 131.531C58.3281 129.829 54.5423 127.654 51.4897 125.377ZM43.2134 109.427C41.8502 110.535 40.8343 111.56 40.9561 111.705C41.2625 112.069 49.4575 114.648 53.1332 115.537C56.0409 116.239 56.135 116.221 55.665 115.043C55.3961 114.369 53.9909 112.485 52.5421 110.856C48.9988 106.871 46.7778 106.531 43.2134 109.427ZM57.1795 112.153C55.6148 109.992 54.2738 107.995 54.1995 107.718C54.1247 107.439 54.4837 107.26 54.9967 107.318C56.7122 107.513 58.9765 109.446 61.0195 112.458L63.0436 115.443L61.5339 115.764C60.1819 116.051 59.7282 115.675 57.1795 112.153ZM62.8452 118.611C62.1063 118.814 61.4812 119.156 61.4567 119.371C61.4322 119.586 62.854 122.541 64.6156 125.936C66.3771 129.332 67.9518 132.586 68.1143 133.166C68.3282 133.931 69.0432 134.294 70.713 134.484C73.4545 134.796 73.6307 134.25 71.7648 131.226C70.9978 129.983 69.1358 126.555 67.6264 123.607C66.1176 120.66 64.7268 118.247 64.536 118.245C64.3453 118.243 63.5841 118.408 62.8452 118.611ZM58.3709 147.845C58.215 147.649 60.1445 145.038 62.6601 142.043C66.5633 137.394 67.4188 136.654 68.5003 136.99C69.7388 137.375 69.7112 137.444 67.269 140.066C65.8952 141.541 63.9676 143.748 62.9859 144.971C61.2505 147.132 58.9473 148.567 58.3709 147.845ZM210.948 97.0179C210.776 96.2837 211.014 95.8136 211.653 95.6268C213.387 95.1205 213.528 95.3442 212.36 96.746C211.31 98.0061 211.186 98.0295 210.948 97.0179ZM154.976 146.591C154.813 147.712 153.567 144.255 153.705 143.063C153.796 142.277 154.027 142.547 154.453 143.936C154.792 145.041 155.027 146.236 154.976 146.591ZM11.1428 140.394C8.96796 140.146 7.94002 138.587 6.78534 133.784L5.82813 129.804L8.24246 132.95C9.5697 134.681 11.3458 136.703 12.1879 137.444C14.0948 139.121 13.5472 140.667 11.1428 140.394ZM200.545 190.786C200.418 190.771 200.475 189.345 200.671 187.617C201.029 184.477 201.03 184.474 202.557 185.029C203.398 185.333 204.164 185.665 204.26 185.765C204.467 185.98 200.883 190.824 200.545 190.786ZM151.337 57.5175C150.152 54.1142 152.141 44.9468 154.807 41.5203C156.536 39.2975 157.549 39.485 159.049 42.3059C161.965 47.7887 162.107 55.0877 159.369 58.7026C156.95 61.896 152.639 61.2601 151.337 57.5175ZM165.011 71.9999C161.673 74.948 158.822 79.1373 157.926 82.4088C157.061 85.5725 158.547 87.957 161.604 88.3048C163.412 88.5106 164.167 88.213 166.063 86.5462C167.318 85.4427 168.73 83.5915 169.2 82.4332C170.123 80.154 171.074 73.1721 170.753 71.0338C170.411 68.7658 168.263 69.1269 165.011 71.9999Z" fill="#FA1B7A"></path> </svg> 