<svg width="1440" height="246" xmlns="http://www.w3.org/2000/svg"><path d="M1541.552 298.483L-32.17 575.973-84.916 276.84c11.209-8.244 20.944-17.012 30.567-25.677C-25.9 225.539 3.516 199.049 68.552 187.58c65.037-11.467 101.74 3.364 137.231 17.714 35.221 14.232 71.637 28.96 136.156 17.584 64.524-11.377 93.714-37.674 121.94-63.093 28.448-25.624 57.864-52.114 122.905-63.583 65.032-11.467 101.734 3.365 137.226 17.715 35.217 14.232 71.637 28.96 136.156 17.584 64.52-11.376 93.705-37.673 121.935-63.092 28.444-25.624 57.86-52.114 122.896-63.582 65.037-11.467 101.74 3.364 137.236 17.713 35.221 14.232 71.646 28.96 136.165 17.583 54.485-9.607 83.773-29.855 108.566-51.229l54.588 309.588z" fill="#242426" fill-rule="evenodd"/></svg>