<?xml version="1.0" encoding="UTF-8"?> <svg xmlns="http://www.w3.org/2000/svg" width="443" height="101" viewBox="0 0 443 101" fill="none"> <path d="M89.4 6.12L71.52 0C70.92 3 69.72 7.92 68.64 11.04C64.44 23.04 59.04 35.4 49.56 47.88C36.84 64.44 21.84 77.76 0 88.2L13.32 100.44C36.6 87.6 51.36 72.12 62.52 57.72C72.48 44.76 79.8 28.92 84.36 17.04C85.44 14.16 87.72 8.88 89.4 6.12ZM23.4 17.76L13.08 30C28.2 39.24 42.24 50.04 50.88 57.24C63.6 67.8 74.16 77.64 84.6 89.88L96.96 76.08C87.24 65.76 74.64 54.48 61.8 44.52C51.72 36.6 35.28 25.2 23.4 17.76Z" fill="#201B19"></path> <path d="M123.52 12.84V30.24C127.6 30.12 133.12 29.88 137.68 29.88C144.4 29.88 181 29.88 187.36 29.88C191.56 29.88 197.2 30.12 200.68 30.24V12.84C197.2 13.32 192.16 13.56 187.36 13.56C180.76 13.56 147.76 13.56 137.68 13.56C133.48 13.56 127.96 13.32 123.52 12.84ZM113.44 71.64V90C118 89.52 123.76 89.16 128.56 89.16C136.12 89.16 189.88 89.16 197.44 89.16C200.92 89.16 206.32 89.52 210.64 90V71.64C206.56 72 201.4 72.36 197.44 72.36C189.88 72.36 136.12 72.36 128.56 72.36C123.76 72.36 118.12 71.88 113.44 71.64Z" fill="#201B19"></path> <path d="M309.2 37.2L297.68 31.56C296.12 32.4 291.2 32.88 288.8 32.88C283.04 32.88 264.08 32.88 257.96 32.88C254.84 32.88 249.32 32.52 246.08 32.04V47.88C249.56 47.64 254.36 47.4 258.08 47.4C261.56 47.4 284.84 47.4 290.6 47.4C290 55.44 286.4 78.6 284.84 86.52H301.4C302.84 77.88 306.92 50.64 308.12 42.24C308.24 40.92 308.72 38.76 309.2 37.2ZM235.16 80.64V96.36C239.6 96.12 242.72 96 246.92 96C253.04 96 303.92 96 310.16 96C313.28 96 319.16 96.12 321.68 96.24V80.76C318.56 81.12 312.92 81.36 309.92 81.36C304.04 81.36 254.12 81.36 246.92 81.36C242.84 81.36 238.28 81 235.16 80.64Z" fill="#201B19"></path> <path d="M344.16 38.76V57.72C348.72 57.36 356.76 57 363.48 57C377.64 57 417.12 57 428.04 57C433.08 57 439.2 57.6 442.08 57.72V38.76C438.84 39 433.56 39.6 427.92 39.6C417.24 39.6 377.64 39.6 363.48 39.6C357.24 39.6 348.6 39.12 344.16 38.76Z" fill="#201B19"></path> </svg> 