<?xml version="1.0" encoding="UTF-8"?> <svg xmlns="http://www.w3.org/2000/svg" width="470" height="102" viewBox="0 0 470 102" fill="none"> <path d="M0 90.24L11.28 100.08C14.16 98.16 16.8 97.32 18.36 96.84C46.68 87.6 71.64 73.2 88.08 53.64L79.56 39.96C64.2 58.8 37.44 74.16 17.88 79.68C17.88 70.56 17.88 30.6 17.88 17.28C17.88 12.72 18.36 8.27999 18.96 3.72H0.12C0.84 7.07999 1.56 12.84 1.56 17.28C1.56 30.72 1.56 73.32 1.56 82.44C1.56 85.2 1.32 87.24 0 90.24Z" fill="#201B19"></path> <path d="M171.56 13.68L161.84 6.36C159.32 7.2 154.64 7.8 149.36 7.8C144.08 7.8 113.36 7.8 107 7.8C103.52 7.8 96.08 7.44 92.84 6.96V24.12C95.48 23.88 102.08 23.28 107 23.28C112.16 23.28 142.76 23.28 147.8 23.28C145.04 31.8 137.72 43.68 129.8 52.68C118.52 65.16 100.04 79.8 80.6 87L93.08 99.96C111.68 91.2 129.8 76.32 143.24 60.84C153.56 48.84 162.44 32.52 167.36 21.12C168.44 18.6 170.6 15 171.56 13.68ZM144.8 50.88L133.52 62.04C146.36 73.68 159.44 87.96 168.32 100.32L182 88.44C174.2 78.84 157.16 60.96 144.8 50.88Z" fill="#201B19"></path> <path d="M204.16 83.52C204.16 88.2 203.8 95.52 202.96 100.2H221.8C221.2 95.28 220.72 86.88 220.72 83.52C220.72 74.64 220.6 27.72 220.6 14.52C220.6 9.48 221.2 4.31999 221.68 0H202.96C203.8 4.31999 204.16 10.2 204.16 14.52C204.16 24.6 204.16 74.28 204.16 83.52ZM217.12 31.08V48.36C230.2 52.68 250.36 60.36 264.04 67.44L270.76 50.76C259 45 233.08 35.52 217.12 31.08Z" fill="#201B19"></path> <path d="M288.36 2.88V18.48C291.84 18.12 296.88 18 300.84 18C307.92 18 340.08 18 346.68 18C351.12 18 356.76 18.24 359.88 18.48V2.88C356.64 3.36 350.76 3.6 346.92 3.6C339.96 3.6 308.4 3.6 300.84 3.6C296.76 3.6 291.6 3.36 288.36 2.88ZM370.08 37.8L359.4 31.08C357.72 31.92 354.48 32.4 350.52 32.4C342.36 32.4 299.4 32.4 291.24 32.4C287.4 32.4 282.36 32.04 277.2 31.56V47.16C282.24 46.8 288.24 46.68 291.24 46.68C301.92 46.68 343.08 46.68 349.08 46.68C347.04 53.28 343.2 60.84 336.84 67.32C327.6 76.8 313.32 84.6 295.2 88.44L307.2 102C322.56 97.56 337.92 89.52 350.04 75.96C358.92 66.12 364.08 54.36 367.8 42.72C368.16 41.52 369.24 39.36 370.08 37.8Z" fill="#201B19"></path> <path d="M385.52 3.72L374.12 15.84C382.88 21.84 398 34.92 404.24 41.64L416.48 29.16C409.4 21.84 393.8 9.35999 385.52 3.72ZM370.4 83.64L380.6 99.48C397.4 96.6 412.88 90 425.12 82.68C444.44 71.04 460.4 54.48 469.4 38.16L460.16 21.36C452.48 37.56 436.88 55.8 416.36 68.04C404.72 74.88 389.24 81 370.4 83.64Z" fill="#201B19"></path> </svg> 