<?xml version="1.0" encoding="UTF-8"?> <svg xmlns="http://www.w3.org/2000/svg" width="968" height="1307" viewBox="0 0 968 1307" fill="none"> <g clip-path="url(#clip0_1467_395)"> <path fill-rule="evenodd" clip-rule="evenodd" d="M773.213 604.034L774.455 606.629C776.126 610.119 778.348 636.499 778.029 649.054L777.773 659.165L776.929 659.461L777.092 661.888C777.841 661.615 778.226 662.407 778.226 664.22C778.226 669.159 778.919 669.836 783.996 669.855C787.692 669.868 806.707 666.478 812.515 664.771C813.152 664.583 814.453 662.613 815.405 660.391C817.025 656.613 817.415 656.31 821.458 655.704C826.902 654.888 837.274 658.086 849.891 664.472C859.497 669.334 866.279 672.352 870.269 673.543C871.72 673.975 883.35 674.373 896.113 674.425C917.546 674.513 919.775 674.674 925.245 676.532C928.504 677.639 932.881 679.686 934.972 681.082C939.64 684.198 942.018 683.858 949.539 678.997C954.054 673.995 959.308 674.551 962.938 672.601C966.569 670.652 965.003 659 965.208 644.151C965.371 632.272 970.525 608.465 966.501 599.718C962.477 590.971 962.235 590.633 959.365 588.123C956.496 585.611 952.141 582.54 949.687 581.297C945.329 579.088 945.095 579.067 939.489 580.368C936.333 581.099 930.002 581.774 925.423 581.866C917.419 582.029 917.023 581.943 915.217 579.646C913.615 577.61 912.645 577.261 908.639 577.276C901.987 577.302 891.524 579.231 876.031 583.285L862.646 586.788L862.643 589.628C862.639 593.237 861.723 593.906 854.284 595.732C846.079 597.746 833.946 597.626 823.521 595.426C818.828 594.434 814.068 593.617 812.945 593.61C811.822 593.602 810.903 593.047 810.903 592.375C810.903 589.715 807.679 588.15 802.208 588.155C795.155 588.163 780.053 590.464 776.027 592.146C772.71 593.533 771.234 596.5 772.139 599.964L773.213 604.034ZM866.844 588.96C868.381 587.683 878.772 584.689 891.686 581.801C896.43 580.74 902.197 580.145 906.663 580.255L913.924 580.435L915.567 583.796C917.531 587.815 916.475 590.873 913.122 590.873C911.352 590.873 894.063 594.012 872.312 598.285C866.226 599.479 865.736 599.146 865.521 593.656C865.433 591.426 865.91 589.734 866.844 588.96ZM810.452 606.303C809.145 602.059 807.847 597.668 807.568 596.546C806.929 593.974 808.455 593.901 810.776 596.391C814.078 599.936 814.775 605.082 815.343 630.12C815.9 654.631 815.833 655.312 812.871 655.316C812.537 655.316 812.391 646.025 812.546 634.667C812.82 614.563 812.764 613.813 810.452 606.303ZM948.496 599.718C947.821 600.393 936.162 596.252 936.162 595.337C936.162 594.188 936.976 594.277 942.127 595.994C946.736 597.529 949.228 598.986 948.496 599.718ZM934.875 621.33C933.186 623.64 932.055 622.47 933.594 620.005C934.789 618.093 936.162 617.468 936.162 618.836C936.162 619.24 935.583 620.363 934.875 621.33ZM922.251 632.854C922.837 632.141 924.653 630.573 926.285 629.369C931.583 625.459 931.307 627.079 925.804 632.184C922.854 634.922 919.587 637.164 918.543 637.166C917.076 637.17 917.51 637.743 920.462 639.702C930.445 646.325 931.743 649.298 927.206 655.142C924.079 659.169 923.085 661.671 924.617 661.661C925.226 661.658 926.699 659.949 927.89 657.863L930.056 654.071L933.488 658.096C937.593 662.91 939.467 662.24 935.551 657.357C934.051 655.485 932.613 652.849 932.357 651.499C931.968 649.447 932.298 648.905 934.38 648.178C942.818 645.237 960.718 644.733 960.637 647.439C960.62 648.027 960.021 651.163 959.308 654.408C958.594 657.652 957.995 662.241 957.978 664.606C957.948 668.601 957.69 669.073 954.316 671.307C952.319 672.628 950.685 674.202 950.685 674.806C950.685 676.273 942.38 680.729 939.645 680.729C938.356 680.729 935.641 679.087 932.961 676.685L928.447 672.642L931.416 672.601C933.049 672.579 937.429 673.456 941.15 674.551C947.105 676.303 950.273 676.383 948.632 674.742C946.958 673.069 932.407 669.837 926.548 669.837C926.386 669.837 926.227 669.837 926.072 669.838C922.857 669.839 921.145 669.84 920.162 668.994C919.042 668.029 918.867 665.965 918.492 661.549C918.476 661.362 918.46 661.171 918.443 660.976C918.156 657.613 917.066 651.492 916.021 647.373C913.899 639.019 912.955 638.372 907.655 641.649C906.085 642.618 898.072 645.911 889.848 648.966C881.623 652.021 873.358 655.172 871.481 655.968C869.604 656.764 867.841 657.189 867.565 656.912C866.828 656.176 875.089 652.495 888.509 647.58C894.999 645.203 902.964 641.947 906.209 640.345C909.454 638.741 914.151 636.691 916.647 635.789C919.143 634.887 921.664 633.566 922.251 632.854ZM928.825 638.065C924.079 638.075 925.274 636.679 930.861 635.685C934.026 635.122 936.923 634.611 937.297 634.55C937.671 634.489 937.977 634.829 937.977 635.304C937.977 636.317 932.208 638.057 928.825 638.065ZM932.453 643.516C930.602 643.516 932.828 641.478 936.501 639.811C939.918 638.26 943.423 637.554 943.423 638.418C943.423 638.928 933.551 643.516 932.453 643.516ZM960.711 662.395C961.153 658.251 961.787 652.908 962.121 650.52C962.455 648.132 962.822 646.294 962.938 646.436C963.055 646.577 963.372 651.733 963.643 657.893C964.092 668.088 963.98 669.249 962.403 670.827C960.286 672.943 957.098 673.315 958.816 671.244C959.417 670.521 960.27 666.538 960.711 662.395ZM861.687 656.25C859.334 656.298 834.517 649.435 834.51 648.735C834.497 647.515 837.315 648.003 849.39 651.313C860.361 654.319 865.001 656.182 861.687 656.25Z" fill="#201B19"></path> <path fill-rule="evenodd" clip-rule="evenodd" d="M-25.9746 653.491V1306.98L137.861 1307L301.696 1307.01L301.694 1291.35C301.692 1279.42 301.258 1273.46 299.878 1266.35C298.247 1257.95 298.066 1253.27 298.063 1219.61C298.062 1198.49 297.634 1178.64 297.08 1174.03C296.181 1166.53 295.748 1165.34 291.81 1159.51C282.829 1146.21 281.573 1143.86 282.496 1142.11C282.975 1141.19 284.069 1135.9 284.93 1130.35C286.166 1122.36 286.413 1116.15 286.113 1100.67C285.772 1083.08 285.561 1080.91 284.02 1079.21C281.917 1076.89 268.577 1070.11 266.106 1070.11C264.497 1070.11 264.365 1069.66 264.83 1065.79C265.115 1063.42 265.972 1055.15 266.734 1047.42C267.496 1039.68 268.527 1029.47 269.026 1024.72C269.524 1019.98 270.35 1009.68 270.86 1001.82C271.371 993.967 271.961 987.024 272.172 986.392C272.384 985.759 273 979.932 273.542 973.443C274.083 966.953 275.3 955.721 276.246 948.482C277.192 941.244 278.222 932.871 278.536 929.876C278.85 926.881 280.493 914.628 282.188 902.647C283.882 890.666 285.517 876.779 285.821 871.787C286.124 866.795 287.13 858.83 288.055 854.088C288.98 849.346 289.956 842.477 290.223 838.824C290.49 835.172 291.744 826.799 293.008 820.218C294.272 813.637 295.768 803.147 296.332 796.907C296.897 790.667 297.947 781.885 298.666 777.393C299.385 772.9 300.022 768.743 300.079 768.154C300.189 767.028 307.534 763.43 318.942 758.913C322.686 757.43 328.201 755.196 331.196 753.948C334.191 752.701 340.194 751.254 344.535 750.733C348.877 750.213 355.412 748.797 359.058 747.588C362.704 746.378 368.547 744.693 372.041 743.844C380.988 741.67 396.865 736.255 400.606 734.103C404.634 731.785 416.392 728.403 425.14 727.047C431.795 726.015 445.188 725.156 481.87 723.409C502.582 722.422 531.882 720.09 533.114 719.328C533.569 719.047 539.789 717.381 546.936 715.627C554.083 713.872 562.403 711.627 565.425 710.637L570.92 708.836L575.322 713.053L579.722 717.27L586.165 716.571C589.708 716.186 600.229 715.759 609.547 715.623C624.539 715.403 626.99 715.151 630.866 713.437C636.082 711.13 638.812 708.712 641.4 704.108L643.317 700.697H649.45C652.823 700.697 655.804 700.34 656.074 699.903C657.192 698.093 648.315 696.855 636.793 697.215L625.09 697.579L629.572 686.658C634.746 674.05 638.432 665.472 642.26 657.13C643.749 653.886 646.606 647.351 648.609 642.608C652.803 632.68 658.569 619.858 664.835 606.53C668.135 599.511 669.634 597.226 670.94 597.226C671.892 597.226 677.938 598.026 684.376 599.003C704.429 602.049 715.122 602.837 744.631 603.445L773.213 604.034L772.139 599.964C772.591 601.688 772.145 601.763 761.576 601.717C738.82 601.62 709.219 600.036 695.249 598.169C687.304 597.107 680.462 596.028 680.046 595.771C679.63 595.515 679.29 594.436 679.29 593.375C679.29 590.752 675.881 583.891 674.272 583.274C673.556 582.999 669.801 583.779 665.929 585.008C655.524 588.311 654.674 588.194 638.331 581.245C634.774 579.733 631.506 579.073 627.562 579.073C622.393 579.073 621.304 579.445 615.074 583.327C608.669 587.319 607.798 587.603 600.882 587.947C596.32 588.173 591.003 587.781 586.918 586.916C581.799 585.831 577.142 585.642 566.109 586.073L551.895 586.629L548.198 589.885C546.164 591.676 544.296 593.39 544.046 593.692C543.796 593.994 541.179 596.343 538.231 598.911L532.872 603.58L521.439 603.576C515.152 603.574 506.332 602.956 501.839 602.202C488.596 599.98 473.756 599.523 466.96 601.126C462.001 602.297 460.842 602.317 459.233 601.263C455.4 598.751 447.3 598.183 401.306 597.198L354.325 596.193L337.768 592.54C328.662 590.532 319.373 588.674 317.127 588.411C313.838 588.028 312.688 587.394 311.227 585.156C310.229 583.628 308.799 582.188 308.05 581.954C306.896 581.596 306.909 581.793 308.139 583.252C311.716 587.496 311.207 588.15 304.319 588.15H297.921L298.544 585.314C298.995 583.26 298.874 582.658 298.107 583.132C296.589 584.071 295.738 586.592 290.587 605.395C279.084 647.39 279.462 645.583 270.392 702.059C263.352 745.897 257.393 774.88 254.469 779.498C251.889 783.574 239.179 793.178 235.623 793.74C233.773 794.032 227.154 795.651 220.913 797.337C206.766 801.161 199.004 802.813 189.145 804.098C180.814 805.183 145.435 808.706 142.856 808.706C141.811 808.706 140.746 807.26 139.679 804.395C133.582 788.026 119.242 775.732 97.1589 767.94C88.1511 764.761 87.6247 764.686 74.3236 764.686C59.6819 764.686 51.875 765.821 41.8134 769.413C27.0328 774.689 12.0461 786.219 3.86252 798.611L-0.559681 805.309V800.951C-0.559681 796.685 -0.403561 796.443 6.92865 789.342C11.0477 785.353 19.0125 778.677 24.6283 774.508C30.245 770.338 34.8397 766.721 34.8397 766.468C34.8397 766.217 33.1033 766.893 30.9821 767.971C25.4643 770.778 15.0215 778.808 6.6509 786.681L-0.559681 793.465V695.917V598.368L4.65946 597.779C7.53044 597.455 19.273 596.592 30.7551 595.861C42.2372 595.131 58.9839 593.864 67.9699 593.047C87.3469 591.283 131.57 591.743 152.384 593.925C170.342 595.808 191.868 596.694 191.868 595.553C191.868 594.477 186.621 593.86 170.991 593.097C164.751 592.793 154.131 591.967 147.392 591.264C130.674 589.519 81.5905 589.545 60.9808 591.31C52.3442 592.05 38.3342 593.078 29.8475 593.596C21.3607 594.112 11.0477 594.792 6.92865 595.107C-0.303717 595.66 -0.559681 595.613 -0.559681 593.73C-0.559681 591.851 -0.186628 591.78 9.65167 591.775C23.3176 591.768 34.8397 590.813 34.8397 589.687C34.8397 588.711 3.61472 589.465 0.898954 590.507C-0.426253 591.015 -0.559681 587.69 -0.559681 554.211C-0.559681 533.939 -0.457115 517.349 -0.332764 517.342C-0.208412 517.336 4.79379 516.351 10.7826 515.154C18.8482 513.542 21.849 513.251 22.3555 514.031C22.8529 514.797 23.2732 514.723 23.8931 513.757C24.484 512.839 28.7546 511.925 37.7352 510.793C48.2125 509.472 60.3772 509.052 100.646 508.619L150.568 508.083L164.637 510.443C186.213 514.063 191.106 516.479 196.308 526.082C200.254 533.367 201.403 540.459 201.365 557.29L201.33 572.266L197.862 581.343C195.955 586.335 194.259 590.897 194.094 591.482C193.872 592.272 192.451 592.194 188.581 591.183C178.544 588.563 168.62 587.153 156.468 586.624C149.729 586.33 144.428 586.325 144.689 586.611C144.95 586.898 151.281 587.77 158.758 588.549C172.462 589.978 189.398 592.908 193.791 594.611C195.635 595.326 198.079 595.017 204.683 593.234C214.754 590.514 265.281 582.253 288.469 579.534L293.848 578.903L292.476 581.03C288.912 586.56 286.204 591.74 284.945 595.441L283.566 599.495L285.819 596.772C287.058 595.275 288.074 593.765 288.077 593.418C288.084 592.392 294.336 582.025 295.875 580.487C296.807 579.555 298.965 579.073 302.215 579.073C306.983 579.073 308.656 578.033 305.707 576.901C302.443 575.649 284.245 576.391 276.498 578.093C272.136 579.051 265.707 580.104 262.213 580.431C258.718 580.759 251.978 581.804 247.236 582.753C242.493 583.702 232.742 585.332 225.567 586.374C218.392 587.417 210.018 589.054 206.96 590.013C201.907 591.598 196.406 592.33 196.406 591.417C196.406 591.219 197.927 587.236 199.786 582.568L203.167 574.082L203.488 558.189C203.73 546.163 203.469 540.831 202.411 536.274C200.668 528.759 195.463 519.143 191.504 516.122C187.96 513.419 179.616 510.457 173.123 509.596C166.042 508.656 165.992 508.53 169.625 500.879C173.493 492.735 174.986 484.632 174.177 476.168C173.438 468.425 172.394 465.579 170.073 464.971C168.9 464.665 168.268 463.732 168.268 462.307C168.268 461.101 167.655 458.648 166.907 456.856C165.06 452.437 165.194 449.268 167.464 443.618C168.965 439.884 169.443 436.469 169.656 427.952C169.892 418.486 170.519 414.672 174.444 398.816C177.009 388.455 178.759 379.516 178.493 378.13C178.043 375.774 177.962 375.743 176.268 377.276C175.302 378.152 172.454 381.641 169.942 385.03C167.428 388.419 165.039 390.986 164.63 390.734C164.222 390.482 163.605 388.541 163.261 386.423C161.986 378.588 156.324 363.075 150.899 352.556C147.827 346.599 143.689 338.458 141.702 334.465C139.715 330.471 137.198 325.978 136.108 324.481C135.018 322.983 133.431 319.92 132.581 317.674C130.642 312.548 129.508 310.746 128.72 311.535C128.38 311.875 128.812 313.905 129.678 316.048C132.145 322.147 139.174 350.426 138.051 349.731C137.497 349.389 132.94 346.263 127.922 342.784C122.905 339.305 115.124 334.229 110.631 331.504C106.138 328.779 95.9753 322.068 88.0477 316.592C73.0892 306.258 71.1467 305.102 71.1467 306.534C71.1467 307.578 96.4918 325.349 108.361 332.626C119.431 339.414 129.22 345.969 135.874 351.051C138.775 353.266 141.363 354.864 141.625 354.603C141.886 354.34 140.691 348.362 138.967 341.317C137.245 334.271 135.984 328.655 136.166 328.838C136.35 329.02 140.744 337.508 145.933 347.701C155.301 366.102 158.489 374.517 161.714 389.361C163.633 398.195 162.633 398.47 171.535 386.654C174.975 382.088 176.506 380.594 176.187 382.116C175.924 383.364 173.73 392.652 171.309 402.757C167.399 419.069 166.703 421.126 165.091 421.118C164.093 421.113 159.396 420.096 154.653 418.86C140.55 415.182 134.746 415.016 124.171 417.989C119.22 419.38 110.597 422.498 105.008 424.916C99.4208 427.334 94.6637 429.313 94.4368 429.313C94.2108 429.313 93.5645 426.668 93.0018 423.435C88.998 400.448 78.7694 385.276 60.2546 374.863C55.512 372.195 50.5479 369.264 49.2227 368.35C46.1629 366.238 43.9164 366.221 43.9164 368.312C43.9164 370.734 48.7544 385.133 52.5194 393.915C56.5849 403.398 59.0374 407.649 64.7313 415.077L69.1535 420.847L61.863 419.119C55.5311 417.62 51.875 417.439 34.0409 417.745C21.2182 417.965 12.2277 418.516 10.0955 419.212C8.21845 419.826 5.05248 422.023 3.06104 424.095L-0.559681 427.864L-0.530636 417.469C-0.509759 409.772 -0.156672 406.619 0.830879 405.314C2.52914 403.069 2.52006 402.084 0.801832 402.084C-0.338209 402.084 -0.559681 400.167 -0.559681 390.275V378.465L4.44343 376.012C7.19551 374.662 9.30585 373.136 9.13339 372.618C8.96184 372.101 6.7099 371.34 4.13028 370.928L-0.559681 370.178V355.725C-0.559681 347.776 -0.457115 341.206 -0.332764 341.124C-0.208412 341.043 8.88015 340.737 19.863 340.444C32.7021 340.101 39.6694 339.587 39.3781 339.003C39.0912 338.429 31.6646 338.178 19.1823 338.321L-0.559681 338.546V169.273V0H-13.2671H-25.9746V653.491ZM-25.2939 980.402C-25.42 1160.28 -25.5235 1013.38 -25.5235 653.954C-25.5235 294.529 -25.42 147.355 -25.2939 326.902C-25.1677 506.449 -25.1677 800.524 -25.2939 980.402ZM-25.5235 653.954C-25.5235 1013.38 -25.42 1160.28 -25.2939 980.402C-25.1677 800.524 -25.1677 506.449 -25.2939 326.902C-25.42 147.355 -25.5235 294.529 -25.5235 653.954ZM0.121078 375.733C-0.253792 375.75 -0.559681 374.902 -0.559681 373.85C-0.559681 372.48 -0.153042 372.094 0.876263 372.489C1.66594 372.792 2.76514 373.04 3.31882 373.04C4.39986 373.04 1.2593 375.685 0.121078 375.733ZM78.9319 426.945C78.2221 426.673 77.4079 425.842 77.1229 425.099C76.5056 423.492 78.8602 424.059 83.8406 426.717C85.5806 427.646 87.6746 428.405 88.4951 428.405C90.0718 428.405 92.6006 430.853 91.8245 431.629C91.5731 431.881 90.2633 431.667 88.9136 431.154C87.5639 430.641 85.056 430.221 83.3414 430.221C81.1466 430.221 80.2235 429.81 80.2235 428.831C80.2235 428.066 79.6426 427.218 78.9319 426.945ZM-0.50885 454.046C-0.558772 431.598 -0.518835 431.088 1.44084 429.128L3.44136 427.128L4.9962 432.363C5.85033 435.242 7.19641 438.961 7.987 440.627C9.99114 444.849 9.78782 447.226 7.15556 450.354C4.55235 453.447 4.31363 456.507 6.24789 461.988C6.29887 462.133 6.34828 462.273 6.39611 462.408C7.3691 465.163 7.6919 466.077 7.3945 466.379C7.24684 466.529 6.9463 466.528 6.49655 466.527C6.45203 466.526 6.40606 466.526 6.35863 466.526C4.67217 466.526 2.92852 468.74 1.07958 473.23C-0.425345 476.884 -0.458928 476.473 -0.50885 454.046ZM102.008 440.562C102.008 440.26 100.748 438.422 99.2084 436.478C97.306 434.076 96.8303 432.944 97.7235 432.944C99.2829 432.944 103.823 439.199 103.823 441.348C103.823 442.581 102.649 442.896 97.2424 443.115C93.2777 443.275 90.728 443.761 90.8288 444.335C90.9205 444.86 90.1852 445.795 89.1959 446.413C87.4622 447.496 87.4495 447.456 88.8509 445.318C90.2243 443.221 90.1934 443.02 88.28 441.681C87.1672 440.901 85.7295 439.009 85.085 437.478L83.9141 434.694L86.9412 437.903C89.8158 440.95 90.2724 441.112 95.988 441.112C99.2992 441.112 102.008 440.865 102.008 440.562ZM99.2311 445.651C98.2036 445.651 97.6037 445.26 97.8987 444.783C98.1937 444.306 99.0351 444.145 99.7676 444.426C101.644 445.146 101.423 445.651 99.2311 445.651ZM46.1856 459.799C55.6709 457.012 68.3329 453.12 74.3236 451.152C80.3142 449.183 85.3128 447.548 85.4317 447.519C85.5497 447.489 84.1692 449.776 82.3629 452.6C76.001 462.545 72.5237 477.715 72.5137 495.571L72.5082 506.009L60.7085 506.601C54.2186 506.928 43.5988 507.843 37.1089 508.635C30.619 509.428 24.8471 510.08 24.2816 510.085C23.7161 510.089 22.1386 506.52 20.7762 502.151C18.5551 495.034 18.4044 493.747 19.323 489.762C20.3486 485.309 19.972 483.208 18.5578 485.496C18.143 486.166 16.4465 490.851 14.7864 495.907C11.1012 507.134 10.5911 505.481 12.5363 488.621C13.3214 481.821 13.9631 474.693 13.9631 472.783V469.307L21.4515 467.086C25.5696 465.865 36.7004 462.585 46.1856 459.799ZM99.1531 485.356C103.61 476.034 104.833 458.35 101.563 450.524C100.86 448.842 100.482 447.466 100.722 447.466C100.963 447.466 103.087 448.434 105.441 449.617C107.796 450.801 110.744 452.074 111.992 452.446C113.24 452.819 118.789 455.081 124.321 457.474C138.091 463.429 149.451 467.074 156.395 467.765C159.599 468.085 162.402 468.527 162.623 468.748C162.845 468.969 162.577 473.155 162.029 478.049C161.48 482.944 160.813 490.216 160.547 494.209C160.049 501.657 159.26 506.834 158.707 506.28C158.534 506.108 157.518 500.667 156.446 494.188C154.62 483.147 153.611 479.973 152.333 481.251C152.039 481.545 152.679 485.968 153.755 491.08C154.832 496.193 155.475 501.642 155.185 503.191L154.657 506.009H116.532C95.5641 506.009 78.4172 505.804 78.4281 505.555C78.439 505.305 80.6555 503.519 83.3541 501.587C90.542 496.438 97.0536 489.748 99.1531 485.356ZM162.318 500.336C163.758 482.214 164.755 471.345 165.149 469.476C165.477 467.923 166.214 467.434 168.23 467.434C170.677 467.434 170.927 467.748 171.497 471.546C171.835 473.807 171.948 479.422 171.746 484.026C171.422 491.436 170.977 493.252 167.866 499.882C163.235 509.747 161.559 509.884 162.318 500.336ZM2.65258 496.651C0.505023 490.096 1.02149 478.617 3.73181 472.653C5.74141 468.234 6.96949 467.566 9.51825 469.508C10.7736 470.464 10.8734 471.864 10.2435 479.69C9.17061 493.018 9.2768 505.144 10.4895 507.806C11.261 509.5 11.28 510.416 10.5594 511.137C9.41931 512.277 5.29664 504.722 2.65258 496.651ZM-0.559681 514.863L-0.527006 504.536L-0.494328 494.209L1.14857 498.747C2.05261 501.244 3.90336 505.47 5.26216 508.141C6.62004 510.812 7.58671 513.142 7.40972 513.319C7.23272 513.496 5.36654 513.916 3.26345 514.252L-0.559681 514.863ZM13.0555 510.827C13.0555 509.651 15.1204 501.799 16.3521 498.294C16.6154 497.545 17.8026 499.978 18.9898 503.701C20.178 507.425 21.0485 510.571 20.9259 510.694C20.8034 510.817 18.9817 511.193 16.8786 511.529C13.8669 512.011 13.0555 511.862 13.0555 510.827ZM584.467 628.54C591.723 603.413 596.338 594.34 603.441 591.248C607.854 589.325 608.093 589.74 604.558 593.174C600.394 597.217 594.462 605.909 592.092 611.436C590.493 615.168 585.959 630.049 577.579 659.07C573.629 672.749 571.98 684.489 572.33 696.418C572.584 705.055 572.421 706.768 571.401 706.197C570.444 705.659 570.198 702.857 570.315 693.819C570.488 680.378 572.527 668.415 577.33 652.667C579.092 646.885 582.304 636.028 584.467 628.54ZM365.072 612.964C361.702 609.39 358.378 600.827 359.97 599.817C360.619 599.405 364.928 599.063 369.545 599.055L377.941 599.042V601.81C377.941 603.332 378.522 605.68 379.232 607.029C381.016 610.42 388.391 617.371 393.777 620.74L398.266 623.548L392.869 623.522C382.65 623.472 370.703 618.933 365.072 612.964ZM386.4 612.202C380.972 606.934 378.996 603.241 380.084 600.405C380.508 599.3 382.613 599.042 391.19 599.042H401.773L401.2 602.623C400.045 609.849 404.029 613.151 413.585 612.887C419.81 612.714 428.057 609.334 429.687 606.287C430.277 605.185 430.566 603.278 430.331 602.047C429.967 600.14 430.189 599.878 431.834 600.272C432.895 600.527 438.478 601.018 444.241 601.362C459.571 602.278 461.809 604.712 454.353 612.36C451.121 615.676 444.265 618.939 434.671 621.727C432.674 622.308 424.98 623.011 417.573 623.291L404.106 623.799L398.058 620.724C394.704 619.018 389.511 615.222 386.4 612.202ZM403.356 604.648C403.356 602.763 403.866 600.71 404.489 600.087C405.171 599.405 406.884 599.138 408.8 599.417C410.549 599.672 415.335 599.896 419.436 599.915C425.849 599.945 427.023 600.194 427.828 601.699C429.174 604.213 428.28 605.735 424.062 608.105C419.057 610.917 408.93 611.729 405.65 609.578C403.867 608.411 403.356 607.313 403.356 604.648ZM299.257 676.694C318.723 643.316 325.957 631.304 335.52 616.478C345.012 601.764 342.189 608.186 331.151 626.418C325.306 636.071 311.935 658.673 301.439 676.645C281.735 710.378 278.061 716.394 277.506 715.839C276.921 715.254 279.986 709.738 299.257 676.694ZM428.661 631.943C429.854 629.745 433.98 626.028 438.302 623.258C440.299 621.979 442.545 620.909 443.294 620.882C444.043 620.854 443.43 621.594 441.932 622.526C440.435 623.457 436.837 626.315 433.938 628.876C428.28 633.872 427.309 634.438 428.661 631.943ZM385.94 633.475C386.579 635.39 381.144 631.842 375.829 626.874L371.134 622.486L378.336 627.378C382.297 630.069 385.719 632.812 385.94 633.475ZM537.242 676.084C543.038 659.699 548.566 639.758 550.042 629.901C550.558 626.459 550.887 625.667 551.104 627.353C551.555 630.867 548.086 649.376 545.319 658.212C541.47 670.508 533.086 693.822 532.179 694.752C530.342 696.636 531.564 692.131 537.242 676.084ZM463.389 701.756C468.562 696.431 484.985 679.516 499.886 664.165C514.787 648.814 527.406 636.255 527.928 636.255C529.087 636.255 525.469 640.156 496.364 670.291C483.829 683.27 469.324 698.316 464.132 703.724C458.939 709.133 454.532 713.081 454.338 712.498C454.143 711.916 458.217 707.081 463.389 701.756ZM401.314 667.133C399.352 668.083 399.342 668.067 401.033 666.711C402.885 665.227 403.356 665.027 403.356 665.721C403.356 665.953 402.438 666.588 401.314 667.133ZM360.242 694.205C366.731 689.455 377.921 681.621 385.107 676.795C392.293 671.97 398.318 668.022 398.496 668.022C399.675 668.022 397.955 669.456 391.783 673.619C382.402 679.946 364.063 693.385 325.75 722.008C308.277 735.061 292.552 746.666 290.804 747.796C277.96 756.103 320.026 723.637 360.242 694.205ZM619.094 706.276C619.838 703.956 620.602 701.548 620.794 700.924C620.985 700.3 622.278 699.822 623.666 699.861C625.054 699.9 625.704 700.131 625.11 700.373C623.695 700.949 620.883 709.456 621.54 711.169C622.137 712.725 620.2 712.95 618.744 711.494C618.013 710.764 618.108 709.352 619.094 706.276ZM261.834 761.131C262.541 760.426 302.211 754.288 325.75 751.242C330.8 750.588 331.203 750.677 328.927 751.948C327.679 752.645 324.615 753.476 322.119 753.796C307.84 755.624 290.376 758.187 277.463 760.351C264.802 762.472 260.264 762.698 261.834 761.131ZM37.7869 773.358C43.9936 770.556 52.8943 768.212 62.07 766.962C76.925 764.939 92.8148 767.406 106.109 773.799C121.11 781.014 129.569 788.572 135.234 799.821C139.976 809.236 141.011 815.138 141.011 832.758C141.011 850.225 139.887 856.784 135.476 865.059C131.307 872.88 120.98 882.453 112.468 886.385C100.475 891.927 93.5536 893.311 75.4228 893.796C66.5421 894.033 56.535 893.945 53.1847 893.599L47.0933 892.969L40.9066 886.542C21.849 866.745 15.6469 851.323 19.8485 834.181C20.7244 830.606 21.2282 827.468 20.9677 827.207C20.7072 826.947 19.5662 829.111 18.4325 832.015C15.2647 840.131 15.5788 849.683 19.3202 859.013C22.9382 868.035 28.3117 876.135 36.7059 885.222C36.8349 885.362 36.9617 885.499 37.0863 885.633C37.1997 885.756 37.3114 885.877 37.421 885.995L37.4218 885.996C40.47 889.291 42.046 890.995 41.7169 891.535C41.3647 892.112 38.829 891.356 33.5789 889.789C33.4544 889.752 33.3284 889.714 33.2008 889.676C32.9492 889.601 32.6916 889.524 32.428 889.446C14.8681 884.217 6.75437 876.027 1.28018 858.004C-0.534264 852.03 -0.660432 849.952 -0.393576 830.33L-0.105841 809.115L3.87886 802.411C10.5748 791.146 24.1536 779.512 37.7869 773.358ZM284.904 772.163C289.397 770.101 293.462 768.087 293.936 767.685C296.002 765.935 295.461 767.186 293.073 769.678C291.638 771.175 290.121 772.401 289.701 772.401C289.281 772.401 282.411 775.42 274.434 779.112C266.458 782.803 259.698 785.445 259.412 784.983C259.126 784.52 262.908 782.29 267.814 780.026C272.721 777.763 280.411 774.224 284.904 772.163ZM274.466 804.523C274.466 803.106 286.59 782.076 292.021 774.072C293.598 771.747 295.019 769.971 295.177 770.125C295.7 770.633 290.634 779.985 285.231 788.478C279.928 796.818 278.543 800.081 281.266 797.82C282.775 796.569 293.752 779.279 294.749 776.582C296.005 773.188 296.053 775.718 294.883 783.746C294.227 788.239 293.219 797.02 292.641 803.26C292.062 809.5 291.218 816.29 290.764 818.35C286.336 838.456 281.849 871.459 281.835 884.04C281.827 889.787 281.063 897.714 279.908 904.008C278.854 909.749 277.808 915.876 277.585 917.623C276.154 928.798 271.793 966.278 271.354 971.173C271.061 974.418 270.226 982.995 269.496 990.234C268.083 1004.25 266.573 1021.58 265.347 1037.88C264.934 1043.38 264.172 1051.75 263.656 1056.49C263.138 1061.23 262.704 1065.93 262.69 1066.93C262.665 1068.71 262.036 1068.75 231.124 1068.79C202.084 1068.83 197.352 1069.07 171.445 1071.78C155.969 1073.41 137.997 1075.51 131.507 1076.45C109.264 1079.69 94.5711 1080.35 57.2003 1079.8C33.0997 1079.45 18.4679 1078.83 11.694 1077.9C6.20251 1077.14 1.19939 1076.5 0.574913 1076.49C-0.326409 1076.47 -0.558773 1054.28 -0.556957 968.677L-0.553326 860.895L3.50852 869.197C8.19939 878.782 12.7986 883.433 21.869 887.761C34.8814 893.971 56.6348 897.384 76.8932 896.394C90.8624 895.711 100.119 893.929 109.269 890.159C118.39 886.403 122.011 884.032 128.149 877.797C137.508 868.29 141.034 861.351 142.836 848.889C143.875 841.701 143.911 825.126 142.904 817.329C142.517 814.333 142.357 811.703 142.547 811.484C142.738 811.266 154.015 809.956 167.607 808.574C194.336 805.857 205.15 804.013 222.729 799.17C228.969 797.452 235.509 795.83 237.262 795.568C239.541 795.227 242.712 793.137 248.381 788.24C252.744 784.472 256.313 781.868 256.313 782.453C256.313 784.14 267.749 807.467 268.937 808.201C270.348 809.073 274.466 806.334 274.466 804.523ZM131.507 1078.97C150.92 1076.18 188.836 1072.2 207.298 1071.03C214.038 1070.6 228.946 1070.39 240.428 1070.56C263.599 1070.89 266.372 1071.39 276.49 1077.01L282.387 1080.29L283.036 1099.6C283.706 1119.48 283.308 1125.95 281.156 1130.19C280.472 1131.54 279.912 1134.87 279.912 1137.6V1142.55L273.332 1145.25C269.712 1146.73 262.482 1149.06 257.265 1150.41C252.047 1151.77 241.019 1154.9 232.758 1157.38C214.655 1162.8 209.453 1163.94 190.052 1166.76C160.42 1171.07 119.736 1173.58 79.4483 1173.58C50.9782 1173.58 15.4245 1171.41 4.11031 1168.98L-0.559681 1167.98V1123.32V1078.65L8.744 1080.02C16.1089 1081.11 28.0702 1081.4 66.1545 1081.42C113.832 1081.45 114.415 1081.43 131.507 1078.97Z" fill="#201B19"></path> <path d="M62.5238 791.571C50.3918 793.077 36.4336 801.852 28.9961 812.651C24.4404 819.265 25.2664 821.16 29.9936 814.941C35.3235 807.929 37.7234 805.542 43.537 801.47C50.9001 796.312 57.4399 794.109 67.0622 793.547C81.585 792.696 93.3104 796.408 98.1337 803.38C99.5152 805.379 101.348 807.905 102.205 808.995C103.71 810.907 103.763 810.913 103.789 809.16C103.802 808.161 102.27 805.302 100.382 802.806C95.9925 797.001 88.2492 792.973 78.7721 791.563L78.4351 791.513L78.4335 791.513C75.2409 791.038 73.4998 790.779 71.7535 790.737C69.6591 790.686 67.5572 790.946 62.935 791.52L62.5238 791.571Z" fill="#201B19"></path> <path d="M104.573 827.096C104.27 834.848 103.793 837.292 101.7 841.835C98.3516 849.099 94.0719 853.285 86.2541 856.941C80.0683 859.834 79.2822 859.974 69.168 859.98C58.6262 859.988 58.55 859.972 55.699 857.265C51.4229 853.205 50.2702 850.318 50.2702 843.667C50.2702 834.228 54.2603 827.172 60.8219 825.006C63.318 824.182 64.5325 824.337 68.1605 825.939C70.5522 826.995 73.8298 829.138 75.4446 830.701C79.4193 834.547 80.4404 833.098 76.5701 829.104C72.9757 825.397 67.0785 822.321 63.5622 822.321C54.9084 822.321 47.6425 832.444 47.5689 844.607C47.5381 849.76 51.3966 857.133 55.345 859.462C59.307 861.8 69.1707 863.425 74.674 862.646C80.5802 861.81 89.9202 858.005 94.8561 854.425C102.576 848.826 108.62 833.259 107.074 822.957C105.988 815.707 104.95 817.421 104.573 827.096Z" fill="#201B19"></path> <path d="M876.033 592.611C869.034 594.185 867.304 594.932 868.314 595.942C869.043 596.67 887.323 592.876 888.433 591.766C889.792 590.407 884.115 590.794 876.033 592.611Z" fill="#201B19"></path> <path d="M906.274 586.414C899.447 587.753 899.377 589.378 906.177 588.646C912.596 587.957 913.766 587.548 912.977 586.272C912.384 585.311 911.84 585.323 906.274 586.414Z" fill="#201B19"></path> <path d="M765.065 663.617C758.076 666.065 747.69 669.304 741.986 670.813C730.781 673.778 726.242 675.483 704.705 684.813C678.688 696.085 675.099 697.297 666.355 697.768C661.988 698.004 658.413 698.555 658.413 698.993C658.413 699.431 661.857 699.789 666.067 699.789C673.836 699.789 680.598 697.927 692.473 692.518C708.935 685.019 729.609 676.715 736.677 674.763C743.274 672.942 771.051 664.092 777.092 661.888L776.929 659.461L765.065 663.617Z" fill="#201B19"></path> <path d="M252.485 786.515C251.134 787.866 256.439 800.253 260.816 805.969C264.013 810.146 263.788 807.057 260.506 801.731C258.718 798.828 256.58 794.411 255.755 791.915C254.142 787.033 253.322 785.678 252.485 786.515Z" fill="#201B19"></path> <path d="M278.843 801.463C278.081 802.701 276.39 805.603 275.082 807.912C272.437 812.589 270.092 813.713 267.205 811.689C266.142 810.945 264.992 810.618 264.65 810.961C263.776 811.837 267.964 815.06 269.978 815.06C272.456 815.06 275.85 811.572 278.571 806.233C281.101 801.266 281.319 797.438 278.843 801.463Z" fill="#201B19"></path> <path fill-rule="evenodd" clip-rule="evenodd" d="M-25.2939 980.402C-25.42 1160.28 -25.5235 1013.38 -25.5235 653.954C-25.5235 294.529 -25.42 147.355 -25.2939 326.902C-25.1677 506.449 -25.1677 800.524 -25.2939 980.402ZM78.4172 325.401C72.2341 317.232 63.4596 301.887 61.6724 296.117C60.3744 291.926 62.1099 294.422 69.3405 307.142C73.425 314.33 78.9745 322.98 81.6721 326.365C84.3698 329.75 86.5772 332.827 86.5772 333.202C86.5772 334.177 82.824 332.953 72.9621 328.759C68.2195 326.743 56.3743 322.579 46.6395 319.508C36.9046 316.436 25.9799 312.773 22.3628 311.367L15.7848 308.812L20.5474 314.371C23.1661 317.428 28.9471 323.715 33.3938 328.341C37.8396 332.967 41.2297 337 40.9266 337.304C39.8283 338.402 20.7752 318.566 8.23116 303.264C4.72571 298.989 6.02642 298.493 10.1609 302.53C12.0443 304.369 14.0457 305.874 14.6076 305.874C15.1694 305.874 17.6029 306.855 20.0155 308.054C22.4281 309.253 28.6902 311.541 33.932 313.137C50.4935 318.182 72.0934 325.836 77.5758 328.603L82.8612 331.271L78.4172 325.401ZM99.2311 445.651C98.2036 445.651 97.6037 445.26 97.8987 444.783C98.1937 444.306 99.0351 444.145 99.7676 444.426C101.644 445.146 101.423 445.651 99.2311 445.651ZM51.7669 588.148C50.0033 586.49 65.6008 584.544 87.9387 583.636C96.9247 583.271 105.094 583.111 106.092 583.279C107.091 583.448 111.89 583.593 116.757 583.599C122.044 583.607 125.607 583.977 125.607 584.519C125.607 585.098 117.938 585.443 104.504 585.471C90.4194 585.501 78.2684 586.074 67.9699 587.195C59.4831 588.118 52.1917 588.547 51.7669 588.148ZM259.13 707.958C263.776 673.503 270.129 646.262 279.2 621.897C280.188 619.242 281.143 617.215 281.321 617.393C281.736 617.808 279.418 626.584 274.063 644.877C269.062 661.962 264.436 684.512 261.776 704.781C258.773 727.662 258.01 731.927 257.164 730.558C256.338 729.222 256.476 727.639 259.13 707.958ZM401.314 667.133C399.352 668.083 399.342 668.067 401.033 666.711C402.885 665.227 403.356 665.027 403.356 665.721C403.356 665.953 402.438 666.588 401.314 667.133ZM253.59 753.488C255.087 746.423 256.313 740.436 256.313 740.184C256.313 739.932 256.747 739.726 257.276 739.726C257.907 739.726 258.026 741.214 257.621 744.037C256.559 751.451 252.608 768.275 251.717 769.178C250.289 770.626 250.718 767.035 253.59 753.488ZM47.1732 760.612C47.6497 760.136 50.4817 759.126 53.4661 758.368C64.4835 755.573 90.2587 758.139 103.795 763.378C113.88 767.282 134.684 781.023 134.684 783.781C134.684 784.631 132.137 783.237 127.72 779.97C117.401 772.34 109.676 767.884 101.747 764.991C87.7418 759.88 63.0021 757.833 52.6692 760.93C47.4863 762.484 45.4214 762.364 47.1732 760.612ZM192.122 784.461C191.048 781.663 193.614 774.772 196.867 771.72C201.141 767.708 204.888 767.733 209.6 771.806C212.503 774.315 213.096 775.398 213.021 778.05C212.921 781.574 210.703 785.587 208.077 786.992C206.774 787.689 206.39 787.577 206.39 786.501C206.39 785.735 206.788 785.107 207.275 785.107C208.715 785.107 211.06 779.736 210.756 777.135C210.452 774.532 205.561 770.585 202.64 770.585C201.723 770.585 199.689 771.733 198.119 773.135C195.811 775.197 195.18 776.572 194.82 780.317C194.387 784.823 194.458 784.993 197.433 786.571C199.818 787.836 200.131 788.27 198.858 788.54C196.927 788.951 192.912 786.52 192.122 784.461ZM234.007 785.124C240.034 782.232 245.579 779.648 246.328 779.382C248.429 778.634 248.447 778.655 247.12 780.275C245.08 782.767 222.524 793.169 214.86 795.153C207.063 797.171 189.145 798.624 189.145 797.238C189.145 796.771 193.944 795.921 199.81 795.35C212.703 794.094 219.623 792.025 234.007 785.124ZM140.5 796.838C139.207 795.628 137.763 793.922 137.292 793.049C135.93 790.523 138.101 791.119 140.598 793.957C143.643 797.415 143.565 799.704 140.5 796.838ZM175.367 801.921C165.118 803.331 142.852 802.484 142.853 800.684C142.854 800.354 151.227 800.066 161.46 800.045C179.796 800.009 184.581 800.653 175.367 801.921Z" fill="#201B19"></path> </g> <defs> <clipPath id="clip0_1467_395"> <rect width="968" height="1307" fill="white"></rect> </clipPath> </defs> </svg> 