<?xml version="1.0" encoding="UTF-8"?> <svg xmlns="http://www.w3.org/2000/svg" width="974" height="1307" viewBox="0 0 974 1307" fill="none"> <g clip-path="url(#clip0_1467_396)"> <path fill-rule="evenodd" clip-rule="evenodd" d="M23.1048 678.997C30.6327 683.858 33.0133 684.198 37.6863 681.082C39.7797 679.686 44.1611 677.639 47.423 676.532C52.8992 674.674 55.1298 674.513 76.5848 674.425C89.3618 674.373 101.004 673.975 102.456 673.543C106.45 672.352 113.239 669.334 122.855 664.472C135.485 658.086 145.867 654.888 151.317 655.704C155.364 656.31 155.755 656.613 157.377 660.391C158.33 662.613 159.632 664.583 160.27 664.771C166.083 666.478 185.119 669.868 188.818 669.855C193.9 669.836 194.594 669.159 194.594 664.22C194.594 662.407 194.98 661.615 195.73 661.888C201.776 664.092 229.583 672.942 236.185 674.763C243.261 676.715 263.956 685.019 280.436 692.518C292.322 697.927 299.091 699.789 306.869 699.789C311.083 699.789 314.531 699.431 314.531 698.993C314.531 698.555 310.953 698.004 306.58 697.768C297.828 697.297 294.235 696.085 268.191 684.813C246.632 675.483 242.088 673.778 230.871 670.813C225.161 669.304 214.765 666.065 207.769 663.617L195.048 659.165L194.791 649.054C194.472 636.499 196.696 610.119 198.369 606.629L199.612 604.034L228.223 603.445C257.763 602.837 268.468 602.049 288.541 599.003C294.985 598.026 301.038 597.226 301.991 597.226C303.298 597.226 304.798 599.511 308.102 606.53C314.374 619.858 320.147 632.68 324.345 642.608C326.35 647.351 329.21 653.886 330.7 657.13C334.532 665.472 338.222 674.05 343.402 686.658L347.889 697.579L336.173 697.215C324.639 696.855 315.753 698.093 316.872 699.903C317.143 700.34 320.127 700.697 323.503 700.697H329.643L331.562 704.108C334.152 708.712 336.885 711.13 342.106 713.437C345.986 715.151 348.44 715.403 363.448 715.623C372.774 715.759 383.307 716.186 386.853 716.571L393.303 717.27L397.708 713.053L402.114 708.836L407.614 710.637C410.64 711.627 418.968 713.872 426.123 715.627C433.277 717.381 439.504 719.047 439.959 719.328C441.192 720.09 470.522 722.422 491.256 723.409C527.976 725.156 541.383 726.015 548.044 727.047C556.801 728.403 568.571 731.785 572.604 734.103C576.348 736.255 592.242 741.67 601.198 743.844C604.696 744.693 610.545 746.378 614.195 747.588C617.845 748.797 624.387 750.213 628.733 750.733C633.078 751.254 639.087 752.701 642.085 753.948C645.084 755.196 650.604 757.43 654.352 758.913C665.772 763.43 673.125 767.028 673.234 768.154C673.292 768.743 673.929 772.9 674.649 777.393C675.369 781.885 676.42 790.667 676.985 796.907C677.55 803.147 679.048 813.637 680.313 820.218C681.578 826.799 682.833 835.172 683.101 838.824C683.368 842.477 684.345 849.346 685.271 854.088C686.197 858.83 687.203 866.795 687.507 871.787C687.811 876.779 689.448 890.666 691.144 902.647C692.841 914.628 694.485 926.881 694.8 929.876C695.114 932.871 696.145 941.244 697.092 948.482C698.039 955.721 699.257 966.953 699.799 973.443C700.341 979.932 700.958 985.759 701.17 986.392C701.382 987.024 701.972 993.967 702.484 1001.82C702.994 1009.68 703.821 1019.98 704.32 1024.72C704.819 1029.47 705.851 1039.68 706.614 1047.42C707.377 1055.15 708.234 1063.42 708.52 1065.79C708.986 1069.66 708.853 1070.11 707.242 1070.11C704.769 1070.11 691.415 1076.89 689.31 1079.21C687.768 1080.91 687.556 1083.08 687.214 1100.67C686.915 1116.15 687.162 1122.36 688.399 1130.35C689.261 1135.9 690.356 1141.19 690.835 1142.11C691.759 1143.86 690.503 1146.21 681.512 1159.51C677.57 1165.34 677.137 1166.53 676.237 1174.03C675.682 1178.64 675.253 1198.49 675.253 1219.61C675.25 1253.27 675.068 1257.95 673.435 1266.35C672.054 1273.46 671.62 1279.42 671.618 1291.35L671.615 1307L836.756 1306.78L1001.9 1306.55L1002.12 653.273L1002.35 0H988.268H974.183L974.141 211.707L974.098 423.413L971.642 420.289C970.291 418.572 967.947 415.917 966.431 414.39C964.916 412.863 962.116 409.265 960.209 406.393C958.302 403.523 956.372 400.946 955.922 400.667C954.329 399.684 955.182 398.589 962.857 391.749L970.611 384.839H965.542C959.418 384.839 949.959 382.586 947.13 380.455L945.069 378.902L951.902 372.211C955.661 368.531 958.737 365.186 958.737 364.777C958.737 364.368 959.657 363.15 960.781 362.069L962.826 360.104L960.1 360.677C954.361 361.886 940.623 363.007 931.251 363.031C922.593 363.053 921.469 362.875 921.357 361.467C921.286 360.594 921.33 355.692 921.456 350.575C921.58 345.459 921.394 341.272 921.042 341.272C920.69 341.272 919.316 342.031 917.989 342.959C916.663 343.886 910.396 347.111 904.063 350.124L892.548 355.603L889.152 350.026C883.156 340.181 877.651 332.196 876.859 332.196C875.663 332.196 872.579 338.796 869.728 347.456L867.133 355.341L863.644 355.115C861.674 354.987 856.452 353.028 851.644 350.613C844.119 346.831 842.915 345.887 841.241 342.443C840.199 340.302 838.896 338.549 838.344 338.549C837.792 338.549 836.401 342.531 835.254 347.399C834.106 352.266 832.565 358.393 831.83 361.013L830.494 365.778H823.895C820.265 365.778 817.06 366.015 816.77 366.305C816.176 366.898 826.851 377.578 828.039 377.578C828.46 377.578 828.861 378.496 828.929 379.62C828.996 380.744 829.366 378.672 829.749 375.018C830.418 368.655 831 366.76 831.985 367.743C832.234 367.993 831.764 372.451 830.941 377.652C827.697 398.139 829.193 416.243 834.666 422.74C836.65 425.096 837.278 425.311 840.792 424.843L844.706 424.321L847.765 415.245C853.166 399.224 852.412 383.609 845.109 360.194C841.18 347.6 840.921 346.355 842.777 349.012C844.985 352.173 849.723 368.44 851.558 379.156C853.84 392.491 853.806 400.036 851.424 408.973C850.372 412.922 849.302 417.071 849.047 418.195L848.583 420.237L901.161 420.277C930.079 420.298 955.524 420.66 957.705 421.081C959.994 421.523 962.673 422.849 964.044 424.219C966.955 427.125 965.14 427.347 961.351 424.548L958.586 422.506L902.678 422.24L846.77 421.973L847.37 425.417C848.941 434.426 848.944 436.44 847.39 439.711C846.263 442.085 845.07 443.173 843.182 443.55C841.732 443.84 840.696 444.532 840.88 445.091C841.768 447.785 881.729 457.034 898.568 458.443C905.131 458.991 921.558 459.299 935.073 459.125C948.589 458.953 959.647 459.083 959.646 459.415C959.646 460.725 944.416 461.32 921.484 460.905L897.406 460.471L905.583 462.062C917.581 464.397 947.836 468.342 953.747 468.342C956.557 468.342 959.647 467.919 960.614 467.402C961.838 466.748 962.371 466.755 962.371 467.425C962.371 468.912 958.181 470.157 953.173 470.157C943.525 470.157 899.522 463.426 885.338 459.78C882.48 459.046 876.145 457.583 871.259 456.531C866.375 455.479 857.401 453.021 851.32 451.068C845.238 449.116 840.184 447.608 840.089 447.719C839.993 447.83 838.978 452.001 837.831 456.989C834.908 469.719 830.04 479.092 822.508 486.494C815.855 493.033 806.81 499.593 805.19 499.052C804.613 498.861 807.124 496.672 810.769 494.188C825.288 484.292 831.604 474.962 836.124 456.728C837.574 450.885 838.757 445.288 838.756 444.289C838.754 443.055 837.583 441.935 835.095 440.788C831.529 439.146 831.386 439.146 829.494 440.788C822.889 446.524 811.542 460.427 811.542 462.784C811.542 463.345 811.167 463.803 810.708 463.803C810.251 463.803 809.229 465.539 808.439 467.661C807.058 471.367 807.021 471.393 807.506 468.342C807.783 466.594 808.005 464.144 807.997 462.896C807.991 461.648 808.216 460.014 808.498 459.265C808.914 458.162 809.133 458.231 809.656 459.629C810.202 461.093 810.67 460.723 812.746 457.186C814.09 454.892 818.543 449.48 822.638 445.158C826.734 440.836 830.21 436.479 830.363 435.475C830.516 434.472 831.455 432.51 832.45 431.115C836.477 425.466 833.735 423.998 822.203 425.628C818.088 426.211 813.908 426.928 812.912 427.223C811.359 427.683 811.268 427.559 812.274 426.348C813.056 425.408 816.574 424.554 822.823 423.792L832.199 422.647L830.565 418.946C827.101 411.103 826.118 394.396 828.504 383.931C828.963 381.914 828.884 381.827 827.778 383.153C827.094 383.973 823.263 385.579 819.265 386.723C815.267 387.866 810.271 389.524 808.161 390.407C805.891 391.357 804.107 391.66 803.791 391.149C803.081 390 801.547 390.043 801.547 391.213C801.547 391.723 804.993 394.669 809.205 397.76L816.863 403.379L815.089 405.681C814.113 406.948 810.05 412.736 806.059 418.545C801.761 424.8 797.973 429.372 796.768 429.76C794.947 430.344 794.91 430.459 796.415 430.855C797.943 431.256 803.719 430.165 807.269 428.805C808.542 428.317 808.546 428.696 807.317 432.646C806.267 436.015 806.087 439.381 806.539 447.21L807.127 457.392L803.943 461.556C800.707 465.789 794.73 471.064 793.169 471.064C792.696 471.064 792.478 471.571 792.685 472.19C792.914 472.878 794.311 473.207 796.282 473.038L799.505 472.76L800.167 486.208C800.53 493.604 801.168 500.074 801.583 500.585C801.999 501.096 802.105 503.247 801.821 505.363C801.386 508.598 800.925 509.291 798.927 509.705C792.653 511.009 784.708 514 781.961 516.092C777.962 519.139 772.754 528.731 771.003 536.274C769.945 540.831 769.683 546.163 769.926 558.189L770.246 574.082L773.631 582.568C775.492 587.236 777.014 591.219 777.014 591.417C777.014 592.33 771.508 591.598 766.45 590.013C763.388 589.054 755.006 587.417 747.823 586.374C740.641 585.332 730.88 583.702 726.132 582.753C721.385 581.804 714.638 580.759 711.14 580.431C707.642 580.104 701.206 579.051 696.839 578.093C689.084 576.391 670.869 575.649 667.601 576.901C664.649 578.033 666.323 579.073 671.096 579.073C674.349 579.073 676.51 579.555 677.443 580.487C678.983 582.025 685.242 592.392 685.249 593.418C685.252 593.765 686.269 595.275 687.509 596.772L689.765 599.495L688.384 595.441C687.124 591.74 684.413 586.56 680.845 581.03L679.472 578.903L684.857 579.534C708.069 582.253 758.648 590.514 768.729 593.234C775.34 595.017 777.787 595.326 779.632 594.611C784.03 592.908 800.983 589.978 814.701 588.549C822.186 587.77 828.524 586.898 828.785 586.611C829.046 586.325 823.74 586.33 816.993 586.624C804.829 587.153 794.895 588.563 784.848 591.183C780.973 592.194 779.551 592.272 779.329 591.482C779.163 590.897 777.466 586.335 775.557 581.343L772.085 572.266L772.051 557.29C772.012 540.459 773.163 533.367 777.113 526.082C782.321 516.477 787.225 514.059 808.816 510.448L822.899 508.093L871.51 508.536C928.26 509.054 940.483 510.053 969.867 516.577L974.183 517.535V554.301C974.183 587.697 974.05 591.015 972.723 590.507C970.005 589.465 938.747 588.711 938.747 589.687C938.747 590.813 950.281 591.768 963.962 591.775C973.81 591.78 974.183 591.851 974.183 593.73C974.183 595.613 973.927 595.66 966.687 595.107C962.565 594.792 952.24 594.112 943.745 593.596C935.249 593.078 921.225 592.05 912.579 591.31C891.949 589.545 842.814 589.519 826.08 591.264C819.333 591.967 808.702 592.793 802.456 593.097C786.809 593.86 781.557 594.477 781.557 595.553C781.557 596.694 803.105 595.808 821.082 593.925C841.918 591.743 886.186 591.283 905.583 593.047C914.579 593.864 931.342 595.131 942.836 595.861C954.33 596.592 966.086 597.455 968.959 597.779L974.183 598.368V695.917V793.465L966.965 786.681C958.586 778.808 948.133 770.778 942.609 767.971C940.485 766.893 938.747 766.217 938.747 766.468C938.747 766.721 943.347 770.338 948.969 774.508C954.592 778.677 962.565 785.353 966.687 789.342C974.027 796.443 974.183 796.685 974.183 800.951V805.309L969.757 798.611C961.565 786.219 946.562 774.689 931.767 769.413C921.695 765.821 913.88 764.686 899.223 764.686C885.908 764.686 885.381 764.761 876.364 767.94C854.258 775.732 839.903 788.026 833.8 804.395C832.732 807.26 831.666 808.706 830.62 808.706C828.038 808.706 792.623 805.183 784.283 804.098C774.414 802.813 766.644 801.161 752.482 797.337C746.235 795.651 739.609 794.032 737.757 793.74C734.197 793.178 721.475 783.574 718.891 779.498C715.965 774.88 710 745.897 702.952 702.059C693.873 645.583 694.251 647.39 682.736 605.395C677.58 586.592 676.728 584.071 675.209 583.132C674.44 582.658 674.32 583.26 674.771 585.314L675.394 588.15H668.99C662.095 588.15 661.585 587.496 665.166 583.252C666.397 581.793 666.411 581.596 665.255 581.954C664.506 582.188 663.074 583.628 662.075 585.156C660.612 587.394 659.461 588.028 656.169 588.411C653.92 588.674 644.622 590.532 635.506 592.54L618.932 596.193L571.903 597.198C525.861 598.183 517.754 598.751 513.917 601.263C512.306 602.317 511.145 602.297 506.182 601.126C499.378 599.523 484.523 599.98 471.266 602.202C466.769 602.956 457.94 603.574 451.646 603.576L440.202 603.58L434.836 598.911C431.885 596.343 429.266 593.994 429.016 593.692C428.766 593.39 426.896 591.676 424.86 589.885L421.159 586.629L406.93 586.073C395.886 585.642 391.224 585.831 386.099 586.916C382.01 587.781 376.688 588.173 372.121 587.947C365.198 587.603 364.326 587.319 357.914 583.327C351.678 579.445 350.588 579.073 345.413 579.073C341.465 579.073 338.194 579.733 334.634 581.245C318.273 588.194 317.423 588.311 307.007 585.008C303.131 583.779 299.372 582.999 298.655 583.274C297.044 583.891 293.633 590.752 293.633 593.375C293.633 594.436 293.292 595.515 292.876 595.771C292.459 596.028 285.61 597.107 277.656 598.169C263.673 600.036 234.041 601.62 211.261 601.717C200.681 601.763 200.235 601.688 200.687 599.964C201.594 596.5 200.116 593.533 196.795 592.146C192.727 590.449 177.623 588.163 170.429 588.155C164.897 588.15 161.884 589.694 161.884 592.533C161.884 593.117 160.963 593.602 159.839 593.61C158.715 593.617 153.951 594.434 149.252 595.426C138.817 597.626 126.671 597.746 118.458 595.732C111.011 593.906 110.093 593.237 110.09 589.628L110.087 586.788L96.6879 583.285C81.1788 579.231 70.7052 577.302 64.0469 577.276C60.0363 577.261 59.0649 577.61 57.4612 579.646C55.654 581.943 55.257 582.029 47.2449 581.866C42.6609 581.774 36.3242 581.099 33.165 580.368C27.5525 579.067 27.319 579.088 22.9558 581.297C20.4998 582.54 16.1404 585.611 13.2683 588.123C10.3952 590.633 7.76381 592.688 7.41944 592.688C4.01775 598.681 -2.08563 615.697 0.714366 635.821C2.21484 644.5 3.71484 643.436 3.71484 655.968C3.71484 668.5 5.4886 670.859 7.41944 672.642C9.35029 674.425 14.7073 673.495 23.1048 678.997ZM968.416 432.395C967.59 430.666 966.915 429.061 966.915 428.828C966.915 428.596 968.55 428.405 970.549 428.405H974.183L974.141 454.046L974.098 479.687L972.353 475.221C970.436 470.319 969.355 469.284 966.13 469.263C964.187 469.25 964.042 468.969 964.605 466.299C964.947 464.677 965.535 459.674 965.911 455.181C966.286 450.688 967.341 444.431 968.255 441.275C969.812 435.898 969.822 435.342 968.416 432.395ZM801.596 478.173C801.569 475.842 801.795 473.29 802.099 472.5C802.53 471.376 805.226 470.315 805.168 471.291C805.161 471.417 804.365 473.969 803.4 476.964L801.645 482.41L801.596 478.173ZM969.186 480.391C967.437 476.36 966.006 472.611 966.006 472.063C966.006 470.454 968.589 470.917 969.542 472.696C971.298 475.972 974.264 489.388 973.466 490.436C973.026 491.014 972.152 493.937 971.522 496.932C970.892 499.927 969.338 504.726 968.068 507.597C966.189 511.842 965.354 512.816 963.595 512.816H961.433L961.834 498.664C962.055 490.881 962.432 484.316 962.672 484.076C962.912 483.837 964.775 484.691 966.811 485.975C970.094 488.046 972.366 488.88 972.366 488.016C972.366 487.854 970.935 484.423 969.186 480.391ZM969.692 508.023C971.163 504.918 972.673 500.949 973.048 499.201C973.547 496.874 973.799 498.543 973.989 505.446C974.132 510.628 974.11 515.008 973.938 515.179C973.767 515.35 972.14 515.08 970.323 514.579L967.018 513.667L969.692 508.023ZM804.703 509.009C804.515 508.821 806.007 506.742 808.022 504.388C810.035 502.035 812.061 500.109 812.521 500.109C812.982 500.109 813.359 501.755 813.359 503.768C813.359 508.026 811.161 509.653 809.138 506.89C808.014 505.353 807.762 505.39 807.989 507.061C808.086 507.781 805.191 509.498 804.703 509.009ZM955.79 511.984C952.611 511.336 951.823 509.696 952.807 505.781C953.392 503.454 953.427 503.472 956.064 507.441C957.53 509.648 958.731 511.709 958.734 512.021C958.735 512.332 957.411 512.316 955.79 511.984ZM59.5584 590.873C55.5696 590.873 54.9519 585.374 58.4655 581.146C60.7752 578.366 76.3595 580.204 96.5825 585.64C106.207 588.228 107.387 589.117 107.209 593.656C106.994 599.146 106.504 599.479 100.411 598.285C78.6374 594.012 61.3302 590.873 59.5584 590.873ZM380.92 611.436C378.548 605.909 372.609 597.217 368.441 593.174C364.802 589.644 364.934 589.362 369.359 591.209C376.63 594.243 381.221 603.171 388.553 628.54C390.719 636.028 393.933 646.885 395.698 652.667C400.505 668.415 402.546 680.378 402.72 693.819C402.837 702.857 402.591 705.659 401.633 706.197C400.612 706.768 400.448 705.055 400.703 696.418C401.053 684.489 399.402 672.749 395.448 659.07C387.06 630.049 382.521 615.168 380.92 611.436ZM24.3251 599.949C22.3934 599.949 25.8643 597.611 29.9467 596.163C34.9423 594.389 36.4951 594.191 36.4951 595.328C36.4951 596.096 26.3486 599.949 24.3251 599.949ZM157.439 630.12C158.008 605.082 158.705 599.936 162.011 596.391C162.979 595.353 164.212 594.503 164.751 594.503C165.868 594.503 165.66 595.519 162.335 606.303C160.02 613.813 159.965 614.563 160.239 634.667C160.393 646.025 160.247 655.316 159.914 655.316C156.948 655.312 156.881 654.631 157.439 630.12ZM545.336 601.733C546.113 600.281 547.502 599.976 554.367 599.756C558.829 599.612 563.585 599.393 564.935 599.268C568.392 598.947 569.851 600.523 569.851 604.577C569.851 607.317 569.353 608.402 567.555 609.578C564.271 611.729 554.134 610.917 549.123 608.105C544.916 605.743 544.006 604.212 545.336 601.733ZM559.612 612.887C569.177 613.151 573.165 609.849 572.009 602.623L571.435 599.042H582.03C593.591 599.042 594.264 599.36 593.056 604.262C592.145 607.956 582.094 617.198 575.154 620.724L569.1 623.799L555.619 623.291C548.205 623.011 540.503 622.308 538.504 621.727C528.9 618.939 522.037 615.676 518.801 612.36C511.338 604.712 513.578 602.278 528.924 601.362C534.693 601.018 540.282 600.527 541.344 600.272C542.99 599.878 543.213 600.14 542.848 602.047C542.612 603.278 542.902 605.185 543.493 606.287C545.125 609.334 553.38 612.714 559.612 612.887ZM594 607.029C594.71 605.68 595.292 603.332 595.292 601.81V599.042L603.697 599.055C608.32 599.063 612.632 599.405 613.281 599.817C614.875 600.827 611.548 609.39 608.174 612.964C602.537 618.933 590.578 623.472 580.349 623.522L574.946 623.548L579.44 620.74C584.831 617.371 592.213 610.42 594 607.029ZM642.203 626.536C636.391 616.947 631.645 608.779 631.656 608.383C631.723 606.028 647.765 631.757 671.6 672.443C691.358 706.172 696.433 715.237 695.872 715.798C695.271 716.397 691.918 710.926 671.873 676.645C661.366 658.673 648.014 636.124 642.203 626.536ZM37.7835 621.33C37.0747 620.363 36.4951 619.24 36.4951 618.836C36.4951 617.468 37.8698 618.093 39.0655 620.005C40.6065 622.47 39.4744 623.64 37.7835 621.33ZM539.238 628.876C536.336 626.315 532.734 623.457 531.235 622.526C529.736 621.594 529.028 620.83 529.663 620.829C532.404 620.82 542.637 628.476 544.52 631.943C545.873 634.438 544.901 633.872 539.238 628.876ZM589.91 632.903C584.344 636.167 587.282 632.558 594.156 627.688C598.03 624.943 601.402 622.704 601.652 622.71C602.524 622.734 592.683 631.276 589.91 632.903ZM427.749 658.238C425.166 649.995 421.7 632.113 421.829 627.7C421.874 626.166 422.838 629.402 423.971 634.893C426.933 649.242 429.245 657.248 435.869 676.091C441.523 692.176 442.721 696.624 440.895 694.752C439.988 693.823 431.595 670.511 427.749 658.238ZM54.1321 637.166C53.0872 637.164 49.8163 634.922 46.8633 632.184C43.9094 629.446 41.924 627.199 42.4519 627.192C43.5532 627.177 48.8359 630.929 50.4205 632.854C51.0075 633.566 53.5316 634.887 56.0303 635.789C58.529 636.691 63.231 638.741 66.4793 640.345C69.7275 641.947 77.7006 645.203 84.1972 647.58C97.631 652.495 105.9 656.176 105.162 656.912C104.886 657.189 103.122 656.764 101.243 655.968C99.3638 655.172 91.09 652.021 82.8571 648.966C74.6241 645.911 66.6029 642.618 65.0319 641.649C59.7256 638.372 58.7805 639.019 56.6571 647.373C55.6104 651.492 54.5193 657.613 54.2322 660.976C54.2155 661.171 54.1993 661.362 54.1835 661.549C53.8084 665.965 53.6331 668.029 52.5117 668.994C51.5272 669.84 49.8134 669.839 46.5951 669.838C46.44 669.837 46.2813 669.837 46.1192 669.837C40.2541 669.837 25.688 673.069 24.0125 674.742C22.3697 676.383 25.5409 676.303 31.5023 674.551C35.2267 673.456 39.6116 672.579 41.2462 672.601L44.2183 672.642L39.6997 676.685C37.0166 679.087 34.2989 680.729 33.0087 680.729C30.271 680.729 21.9573 676.273 21.9573 674.806C21.9573 674.202 20.3218 672.628 18.3228 671.307C14.9446 669.073 14.6865 668.601 14.6566 664.606C14.6393 662.241 14.0396 657.652 13.3254 654.408C12.6113 651.163 12.0117 648.027 11.9944 647.439C11.9135 644.733 29.8322 645.237 38.2787 648.178C40.3631 648.905 40.6938 649.447 40.304 651.499C40.0477 652.849 38.6085 655.485 37.1066 657.357C33.1868 662.24 35.0622 662.91 39.1719 658.096L42.6074 654.071L44.7753 657.863C45.9683 659.949 47.4421 661.658 48.0518 661.661C49.5855 661.671 48.5905 659.169 45.4603 655.142C40.9182 649.298 42.2184 646.325 52.2113 639.702C55.1661 637.743 55.6004 637.17 54.1321 637.166ZM43.9376 638.065C40.3277 638.057 34.6779 636.314 34.6779 635.207C34.6779 634.678 35.2267 634.456 35.8981 634.713C36.5696 634.97 39.4272 635.469 42.2484 635.821C47.363 636.46 48.5788 638.075 43.9376 638.065ZM476.747 670.291C464.198 657.312 451.742 644.345 449.065 641.474C446.389 638.603 444.627 636.255 445.15 636.255C445.672 636.255 458.305 648.814 473.222 664.165C488.137 679.516 504.578 696.431 509.756 701.756C514.933 707.081 519.011 711.916 518.817 712.498C518.622 713.081 514.21 709.133 509.012 703.724C503.815 698.316 489.295 683.27 476.747 670.291ZM40.2077 643.516C39.1082 643.516 29.2262 638.928 29.2262 638.418C29.2262 637.554 32.7352 638.26 36.1561 639.811C39.8324 641.478 42.0603 643.516 40.2077 643.516ZM8.67335 664.61C8.98319 662.354 9.2876 657.195 9.35029 653.146C9.45569 646.346 9.52297 646.096 10.238 649.869C10.6633 652.116 11.4002 657.553 11.8754 661.951C12.3506 666.348 13.2283 670.535 13.8253 671.254C15.6289 673.424 12.2815 672.879 10.0363 670.636C8.42808 669.03 8.2036 668.037 8.67335 664.61ZM110.843 655.973C109.206 655.366 110.365 654.929 123.383 651.251C134.294 648.167 138.265 647.495 138.252 648.735C138.242 649.68 112.328 656.524 110.843 655.973ZM571.668 667.114C570.668 666.58 569.851 665.939 569.851 665.689C569.851 665.44 570.668 665.672 571.668 666.207C572.667 666.741 573.485 667.382 573.485 667.632C573.485 667.881 572.667 667.649 571.668 667.114ZM581.436 673.619C577.562 671.009 574.394 668.649 574.394 668.374C574.394 667.265 594.421 680.674 613.01 694.228C651.804 722.515 695.446 756.148 682.519 747.796C680.77 746.666 665.028 735.061 647.537 722.008C609.185 693.385 590.826 679.946 581.436 673.619ZM351.442 711.169C352.096 709.467 349.293 700.966 347.869 700.329C347.273 700.064 347.959 699.936 349.393 700.045C351.721 700.222 352.171 700.796 353.591 705.399C354.721 709.061 354.9 710.835 354.21 711.525C352.777 712.957 350.851 712.709 351.442 711.169ZM651.172 753.796C648.673 753.476 645.606 752.633 644.357 751.922C642.153 750.669 642.194 750.644 645.72 751.077C667.267 753.73 710.76 760.376 711.519 761.131C713.091 762.698 708.548 762.472 695.874 760.351C682.948 758.187 665.465 755.624 651.172 753.796ZM853.683 781.569C863.443 774.904 875.186 769.783 886.048 767.457C896.068 765.31 910.517 766.036 924.21 769.375C941.844 773.673 960.843 787.459 969.74 802.411L973.729 809.115L974.017 830.33C974.284 849.952 974.158 852.03 972.342 858.004C966.862 876.027 958.74 884.217 941.162 889.446C940.764 889.564 940.38 889.679 940.01 889.789C934.754 891.356 932.216 892.112 931.863 891.535C931.534 890.995 933.111 889.292 936.161 885.998L936.162 885.997C936.336 885.809 936.514 885.617 936.697 885.419C936.757 885.354 936.818 885.288 936.88 885.222C954.801 865.842 961.16 847.342 955.172 832.015C954.037 829.111 952.895 826.947 952.634 827.207C952.373 827.468 952.877 830.606 953.754 834.181C957.96 851.323 951.752 866.745 932.674 886.542L926.481 892.969L920.384 893.599C917.03 893.945 907.012 894.033 898.123 893.796C879.973 893.311 873.045 891.927 861.039 886.385C855.967 884.045 852.326 881.46 847.456 876.743C839.959 869.482 835.886 862.68 833.839 854.004C831.971 846.089 831.951 819.514 833.806 811.652C836.53 800.112 844.752 787.667 853.683 781.569ZM683.624 772.401C683.203 772.401 681.672 771.163 680.221 769.649L677.582 766.899L684.82 770.428C688.802 772.37 695.126 775.294 698.874 776.926C709.633 781.612 714.426 784.202 713.905 785.044C713.64 785.472 706.89 782.803 698.906 779.112C690.921 775.42 684.043 772.401 683.624 772.401ZM688.098 788.478C682.974 780.431 677.976 771.319 677.976 770.025C677.976 768.765 683.292 776.853 690.973 789.801C695.318 797.125 698.874 803.752 698.874 804.529C698.874 806.335 702.999 809.072 704.409 808.201C705.598 807.467 717.046 784.14 717.046 782.453C717.046 781.868 720.619 784.472 724.985 788.24C730.661 793.137 733.834 795.227 736.116 795.568C737.871 795.83 744.418 797.452 750.665 799.17C768.262 804.013 779.087 805.857 805.843 808.574C819.449 809.956 830.738 811.266 830.929 811.484C831.12 811.703 830.959 814.333 830.572 817.329C829.563 825.126 829.6 841.701 830.64 848.889C832.443 861.351 835.973 868.29 845.342 877.797C851.486 884.032 855.111 886.403 864.241 890.159C873.401 893.929 882.667 895.711 896.651 896.394C916.93 897.384 938.706 893.971 951.732 887.761C960.811 883.433 965.415 878.782 970.111 869.197L974.177 860.895L974.181 968.677C974.183 1054.28 973.95 1076.47 973.048 1076.49C972.424 1076.5 967.414 1077.14 961.917 1077.9C955.136 1078.83 940.489 1079.45 916.364 1079.8C878.954 1080.35 864.247 1079.69 841.98 1076.45C835.484 1075.51 817.493 1073.41 802.001 1071.78C776.068 1069.07 771.33 1068.83 742.261 1068.79C711.316 1068.75 710.687 1068.71 710.662 1066.93C710.648 1065.93 710.213 1061.23 709.695 1056.49C709.178 1051.75 708.416 1043.38 708.003 1037.88C706.775 1021.58 705.263 1004.25 703.849 990.234C703.118 982.995 702.282 974.418 701.989 971.173C701.55 966.278 697.184 928.798 695.752 917.623C695.528 915.876 694.482 909.749 693.427 904.008C692.27 897.714 691.505 889.787 691.498 884.04C691.483 871.459 686.992 838.456 682.559 818.35C682.104 816.29 681.259 809.5 680.681 803.26C680.102 797.02 679.092 788.239 678.436 783.746C677.265 775.718 677.313 773.188 678.57 776.582C679.569 779.279 690.556 796.569 692.066 797.82C694.793 800.081 693.407 796.818 688.098 788.478ZM696.5 1077.2C704.364 1072.94 707.544 1071.87 714.775 1071.06C737.444 1068.53 793.669 1072.03 841.98 1078.97C859.09 1081.43 859.674 1081.45 907.4 1081.42C945.524 1081.4 957.498 1081.11 964.87 1080.02L974.183 1078.65V1123.32V1167.98L969.509 1168.98C958.183 1171.41 922.592 1173.58 894.093 1173.58C853.763 1173.58 813.037 1171.07 783.375 1166.76C763.954 1163.94 758.747 1162.8 740.625 1157.38C732.355 1154.9 721.316 1151.77 716.093 1150.41C710.87 1149.06 703.632 1146.73 700.01 1145.25L693.422 1142.55V1137.6C693.422 1134.87 692.862 1131.54 692.177 1130.19C690.022 1125.95 689.625 1119.48 690.295 1099.56L690.948 1080.21L696.5 1077.2Z" fill="#201B19"></path> <path d="M84.2736 591.766C85.3848 592.876 103.683 596.67 104.413 595.942C105.433 594.922 103.691 594.202 96.2427 592.565C87.7844 590.706 82.8852 590.379 84.2736 591.766Z" fill="#201B19"></path> <path d="M59.7365 586.218C58.9169 587.543 60.0145 587.946 66.4193 588.669C70.4427 589.124 72.0199 589.028 71.6019 588.352C71.2712 587.819 69.7795 587.146 68.2866 586.858L66.0089 586.42L62.9312 585.827C61.4801 585.549 60.0418 585.725 59.7365 586.218Z" fill="#201B19"></path> <path d="M893.202 791.801C884.561 793.342 877.294 797.332 873.131 802.823C871.245 805.31 869.714 808.161 869.727 809.16C869.753 810.913 869.807 810.907 871.313 808.995C872.171 807.905 874.005 805.379 875.388 803.38C880.216 796.408 891.954 792.696 906.492 793.547C921.985 794.453 932.716 800.639 943.599 814.941C948.331 821.16 949.157 819.265 944.597 812.651C936.769 801.295 923.264 793.102 909.695 791.476L909.226 791.42C904.832 790.893 902.762 790.645 900.705 790.721C898.874 790.789 897.053 791.114 893.613 791.728L893.61 791.728L893.607 791.729L893.202 791.801Z" fill="#201B19"></path> <path d="M867.609 818.441C867.212 819.054 866.654 821.521 866.368 823.924C865.16 834.122 871.149 848.976 878.669 854.425C883.61 858.005 892.96 861.81 898.872 862.646C904.381 863.425 914.255 861.8 918.221 859.462C922.174 857.133 926.036 849.76 926.005 844.607C925.932 832.444 918.658 822.321 909.995 822.321C906.475 822.321 900.572 825.397 896.974 829.104C893.1 833.098 894.122 834.547 898.101 830.701C899.717 829.138 902.998 826.995 905.392 825.939C909.024 824.337 910.24 824.182 912.739 825.006C919.307 827.172 923.301 834.228 923.301 843.667C923.301 850.318 922.147 853.205 917.867 857.265C915.013 859.972 914.936 859.988 904.384 859.98C894.259 859.974 893.472 859.834 887.28 856.941C874.809 851.115 869.66 842.719 868.829 826.859C868.554 821.617 868.006 817.83 867.609 818.441Z" fill="#201B19"></path> <path fill-rule="evenodd" clip-rule="evenodd" d="M837.922 427.273C834.307 429.094 831.141 433.917 831.93 436.401C832.566 438.4 840.515 442.348 842.959 441.878C845.349 441.417 846.949 437.77 846.964 432.74C846.976 428.904 846.695 428.307 844.297 427.068C844.017 426.923 843.765 426.79 843.537 426.67C842.512 426.129 841.968 425.842 841.416 425.825C840.793 425.806 840.159 426.131 838.81 426.821L838.493 426.983C838.315 427.074 838.125 427.171 837.922 427.273ZM857.654 583.416C852.154 583.561 847.886 584.056 847.886 584.55C847.886 585.087 856.057 585.444 869.011 585.471C883.017 585.501 895.343 586.078 905.583 587.183C914.079 588.101 921.388 588.637 921.827 588.375C926.155 585.793 885.794 582.673 857.654 583.416ZM692.159 619.463C692.494 620.961 693.955 626.271 695.405 631.263C704.523 662.655 708.885 682.706 711.994 707.504C714.395 726.656 715.353 731.916 716.194 730.558C717.021 729.222 716.882 727.639 714.226 707.958C710.003 676.673 705.475 656.091 697.453 631.717C693.524 619.78 690.839 613.566 692.159 619.463ZM569.851 665.689C569.851 665.939 570.668 666.58 571.668 667.114C572.667 667.649 573.485 667.881 573.485 667.632C573.485 667.382 572.667 666.741 571.668 666.207C570.668 665.672 569.851 665.44 569.851 665.689ZM347.869 700.329C349.293 700.966 352.096 709.467 351.442 711.169C350.851 712.709 352.777 712.957 354.21 711.525C354.9 710.835 354.721 709.061 353.591 705.399C352.171 700.796 351.721 700.222 349.393 700.045C347.959 699.936 347.273 700.064 347.869 700.329ZM715.736 744.037C716.8 751.451 720.755 768.275 721.646 769.178C723.075 770.626 722.647 767.035 719.772 753.488C718.273 746.423 717.046 740.436 717.046 740.184C717.046 739.932 716.612 739.726 716.082 739.726C715.451 739.726 715.331 741.214 715.736 744.037ZM896.497 757.577C885.779 758.892 875.664 761.081 869.777 763.356C859.633 767.279 838.8 781.015 838.8 783.781C838.8 784.631 841.35 783.237 845.771 779.97C856.101 772.34 863.834 767.884 871.771 764.991C885.791 759.88 910.556 757.833 920.9 760.93C923.827 761.807 926.424 762.323 926.67 762.077C929.766 758.984 909.572 755.972 896.497 757.577ZM763.807 771.806C760.901 774.315 760.307 775.398 760.382 778.05C760.482 781.574 762.703 785.587 765.331 786.992C766.636 787.689 767.02 787.577 767.02 786.501C767.02 785.735 766.622 785.107 766.135 785.107C764.693 785.107 762.345 779.736 762.649 777.135C762.954 774.532 767.85 770.585 770.774 770.585C771.692 770.585 773.728 771.733 775.3 773.135C777.61 775.197 778.242 776.572 778.602 780.317C779.035 784.823 778.964 784.993 775.987 786.571C773.599 787.836 773.285 788.27 774.56 788.54C776.493 788.951 780.512 786.52 781.303 784.461C782.378 781.663 779.809 774.772 776.553 771.72C772.274 767.708 768.523 767.733 763.807 771.806ZM726.231 780.254C728.287 782.763 750.837 793.161 758.541 795.153C766.346 797.171 784.283 798.624 784.283 797.238C784.283 796.771 779.48 795.921 773.607 795.35C760.72 794.096 753.798 792.032 739.375 785.14C733.341 782.258 727.631 779.632 726.686 779.306C725.162 778.78 725.11 778.888 726.231 780.254ZM832.667 794.15C831.543 795.575 830.623 797.257 830.623 797.889C830.623 799.193 834.864 795.505 836.19 793.049C837.614 790.409 834.968 791.237 832.667 794.15ZM793.369 800.642C793.369 801.683 802.124 802.565 812.84 802.605C822.919 802.642 830.623 801.811 830.623 800.684C830.622 800.354 822.24 800.066 811.996 800.045C801.751 800.025 793.369 800.293 793.369 800.642Z" fill="#201B19"></path> </g> <defs> <clipPath id="clip0_1467_396"> <rect width="974" height="1307" fill="white"></rect> </clipPath> </defs> </svg> 