<?xml version="1.0" encoding="UTF-8"?> <svg xmlns="http://www.w3.org/2000/svg" width="1886" height="1181" viewBox="0 0 1886 1181" fill="none"> <path fill-rule="evenodd" clip-rule="evenodd" d="M4.33908 1.30596C4.33908 1.86234 3.56403 2.02934 2.52185 1.69896C-0.95995 0.595275 0.739155 2.84985 5.68383 5.89407C8.42148 7.58046 10.6703 9.47107 10.6812 10.0946C10.6921 10.8098 12.0423 11.2292 14.3338 11.2292C16.3328 11.2292 17.9683 10.8207 17.9683 10.3215C17.9683 9.82233 17.6612 9.41208 17.2868 9.40935C16.6617 9.40482 12.8346 5.82418 9.28829 1.92587C7.70458 0.184115 4.33908 -0.237029 4.33908 1.30596ZM447.061 144.642C445.436 145.631 444.108 146.549 444.107 146.681C444.107 146.813 443.479 149.925 442.712 153.595C441.174 160.962 441.571 164.531 443.73 162.741C444.437 162.155 445.016 161.238 445.016 160.705C445.016 160.171 446.647 156.991 448.641 153.639C450.635 150.287 452.669 146.485 453.162 145.19C453.96 143.094 453.836 142.837 452.035 142.84C450.923 142.842 448.685 143.653 447.061 144.642ZM220.286 175.21C218.886 176.607 219.929 177.165 223.996 177.191C230.172 177.231 235.218 176.395 234.622 175.431C234.038 174.487 221.208 174.288 220.286 175.21ZM1874.28 180.042C1872.51 181.132 1873.9 183.676 1876.28 183.712C1877.42 183.73 1879.35 184.299 1880.58 184.976C1882.82 186.218 1885.17 185.977 1885.17 184.503C1885.17 184.064 1883.63 183.01 1881.76 182.159C1879.89 181.31 1877.7 180.32 1876.91 179.962C1876.11 179.603 1874.93 179.639 1874.28 180.042ZM1526.35 277.246C1525.16 277.726 1520.56 278.492 1516.14 278.949C1511.72 279.406 1507.69 280.032 1507.19 280.34C1505.98 281.085 1508.65 286.244 1510.24 286.244C1511.67 286.244 1529.9 277.432 1529.9 276.742C1529.9 276.081 1528.93 276.219 1526.35 277.246ZM265.565 339.346C265.066 339.52 262.359 340.301 259.55 341.081L254.444 342.499L253.856 346.931C252.69 355.707 254.841 356.396 262.073 349.564C269.826 342.24 271.523 337.273 265.565 339.346ZM636.671 495.127C635.806 499.659 636.051 500.17 640.506 503.083C642.993 504.71 647.761 506.969 651.102 508.104C654.443 509.24 659.365 511.276 662.039 512.631C666.94 515.112 669.444 515.187 669.444 512.85C669.444 509.201 660.859 503.104 648.863 498.235C643.845 496.199 636.809 494.404 636.671 495.127ZM1577.99 507.187C1579.13 508.397 1579.82 509.779 1579.53 510.256C1578.63 511.701 1582.51 515.786 1587.46 518.626C1592.83 521.698 1593.5 521.846 1593.5 519.941C1593.5 516.963 1580.53 504.985 1577.31 504.985C1576.25 504.985 1576.42 505.514 1577.99 507.187ZM1171.11 744.673C1169.19 745.439 1169 745.959 1169.44 749.249C1170 753.404 1173.7 761.214 1175.06 761.101C1176.09 761.016 1178.17 752.717 1178.23 748.459C1178.25 746.761 1178.75 745.482 1179.4 745.445C1181.17 745.346 1177.13 743.822 1175.09 743.815C1174.09 743.812 1172.3 744.197 1171.11 744.673ZM1171.92 746.643C1171.93 747.268 1172.33 748.391 1172.82 749.139C1173.5 750.2 1173.7 749.95 1173.71 748.005C1173.72 746.632 1173.31 745.509 1172.82 745.509C1172.32 745.509 1171.91 746.02 1171.92 746.643ZM415.714 861.428C414.839 861.643 414.123 862.555 414.123 863.455C414.123 866.772 415.323 870.931 416.398 871.344C417.006 871.577 419.887 870.335 422.798 868.583C425.708 866.832 430.059 864.894 432.465 864.279C436.534 863.237 438.313 861.776 435.703 861.619C429.364 861.237 416.968 861.119 415.714 861.428ZM422.806 881.573C422.259 882.457 423.083 885.285 423.888 885.285C424.519 885.285 426.778 882.308 426.815 881.428C426.857 880.457 423.418 880.582 422.806 881.573ZM1537.72 958.425C1537.05 960.159 1536.98 973.326 1537.63 973.326C1538.52 973.326 1547.64 966.724 1550.57 963.959C1552.24 962.384 1553.52 960.262 1553.52 959.08C1553.52 957.063 1553.25 956.989 1545.9 956.989C1539.78 956.989 1538.16 957.273 1537.72 958.425ZM593.526 1156.59C593.809 1157.05 593.629 1157.56 593.127 1157.73C591.376 1158.31 597.516 1168.97 602.978 1174.82L608.481 1180.72L608.524 1177.08C608.572 1172.96 604.62 1166.23 598.267 1159.62C594.958 1156.18 592.167 1154.39 593.526 1156.59Z" fill="#201B19"></path> </svg> 